<?xml version="1.0" encoding="utf-8"?>
<!-- Generator: Adobe Illustrator 23.0.1, SVG Export Plug-In . SVG Version: 6.00 Build 0)  -->
<svg version="1.1" xmlns="http://www.w3.org/2000/svg" xmlns:xlink="http://www.w3.org/1999/xlink" x="0px" y="0px" width="245px"
	 height="225px" viewBox="0 0 245 225" style="enable-background:new 0 0 245 225;" xml:space="preserve">
<style type="text/css">
	.st0{fill:#FFFFFF;}
	.st1{clip-path:url(#SVGID_2_);}
	.st2{fill:#6BC62A;}
	.st3{clip-path:url(#SVGID_4_);}
	.st4{fill:none;stroke:#7A6356;stroke-width:3;stroke-linecap:round;stroke-linejoin:round;stroke-miterlimit:10;}
	.st5{fill:#7A6356;}
	.st6{fill:#FFFFFF;stroke:#7A6356;stroke-width:3;stroke-linecap:round;stroke-linejoin:round;stroke-miterlimit:10;}
	.st7{fill:#009380;}
	.st8{fill:url(#SVGID_5_);}
	.st9{fill:url(#SVGID_6_);}
	.st10{fill:#A60C17;}
	.st11{fill:url(#SVGID_7_);}
	.st12{fill:#E02229;}
	.st13{opacity:0.88;fill:#D50000;enable-background:new    ;}
	.st14{fill:url(#SVGID_8_);}
	.st15{fill:#491B02;}
	.st16{fill:url(#SVGID_9_);}
	.st17{fill:url(#SVGID_10_);}
	.st18{fill:url(#SVGID_11_);}
	.st19{fill:#680200;}
	.st20{fill:#A30B05;}
	.st21{fill:#FF5B56;}
	.st22{fill:#A40000;}
	.st23{opacity:0.5;fill:#D50000;enable-background:new    ;}
	.st24{fill:#6A1100;}
	.st25{opacity:0.43;fill:#FFFFFF;enable-background:new    ;}
	.st26{fill:#006325;}
	.st27{fill:#004B25;}
	.st28{fill:url(#SVGID_12_);}
	.st29{fill:url(#SVGID_13_);}
	.st30{fill:#00923D;}
	.st31{opacity:0.4;fill:#006830;enable-background:new    ;}
	.st32{fill:#006830;}
	.st33{fill:url(#SVGID_14_);}
	.st34{fill:#D6E000;}
	.st35{opacity:0.5;fill:#00923D;enable-background:new    ;}
	.st36{fill:none;stroke:#000000;stroke-width:2;stroke-linecap:round;stroke-linejoin:round;stroke-miterlimit:10;}
	.st37{fill:#00962B;}
	.st38{fill:url(#SVGID_15_);}
	.st39{fill:url(#SVGID_16_);}
	.st40{fill:url(#SVGID_17_);}
	.st41{fill:url(#SVGID_18_);}
	.st42{fill:url(#SVGID_19_);}
	.st43{fill:url(#SVGID_20_);}
	.st44{fill:url(#SVGID_21_);}
	.st45{clip-path:url(#SVGID_23_);}
	.st46{fill:url(#SVGID_24_);}
	.st47{fill:url(#SVGID_25_);}
	.st48{fill:url(#SVGID_26_);}
	.st49{clip-path:url(#SVGID_28_);}
	.st50{fill:url(#SVGID_29_);}
	.st51{fill:url(#SVGID_30_);}
	.st52{fill:url(#SVGID_31_);}
	.st53{fill:url(#SVGID_32_);}
	.st54{fill:url(#SVGID_33_);}
	.st55{fill:url(#SVGID_34_);}
	.st56{fill:url(#SVGID_35_);}
	.st57{fill:url(#SVGID_36_);}
	.st58{fill:url(#SVGID_37_);}
	.st59{fill:url(#SVGID_38_);}
	.st60{fill:url(#SVGID_39_);}
	.st61{fill:url(#SVGID_40_);}
	.st62{fill:url(#SVGID_41_);}
</style>
<g id="Layer_2">
	<rect x="-1672" y="-102.2" class="st0" width="1146.2" height="404.9"/>
</g>
<g id="green">
	<g>
		<defs>
			<rect id="SVGID_1_" x="-1010.3" y="107.1" width="49.7" height="58"/>
		</defs>
		<clipPath id="SVGID_2_">
			<use xlink:href="#SVGID_1_"  style="overflow:visible;"/>
		</clipPath>
		<g class="st1">
			<path class="st2" d="M-979,148.9c0,0-4-20.3,18.1-24.4C-960.9,124.4-957,141.8-979,148.9z"/>
			<path class="st2" d="M-982.2,149.1c0,0-20.3,7.5-28.1-13.7C-1010.3,135.5-992.9,128.6-982.2,149.1z"/>
			<path class="st2" d="M-983.3,137.2c0,0-17.7-11.7-4.8-30.1C-988.1,107.1-972.6,116.7-983.3,137.2z"/>
			<g>
				<path class="st2" d="M-984.5,134.6c0,0,0.4-2.1,1.3-0.4c1.6,3.1,4.1,11.2,4.2,14.7c0.2,5.4-0.1,11.6-1.1,15.2
					c-1,3.6-2.8,6.5-4.5,8.3c-1.6,1.8-3,2.5-3.1,2.4c-0.1-0.1,1-1.1,2.4-2.9c1.4-1.8-0.5,1.2,1.7-11.2
					C-981.7,150.2-984.6,134.6-984.5,134.6z"/>
			</g>
		</g>
	</g>
	<g>
		<defs>
			<rect id="SVGID_3_" x="-429" y="339.7" width="49.7" height="58"/>
		</defs>
		<clipPath id="SVGID_4_">
			<use xlink:href="#SVGID_3_"  style="overflow:visible;"/>
		</clipPath>
		<g class="st3">
			<path class="st2" d="M-397.7,381.5c0,0-4-20.3,18.1-24.4C-379.6,357.1-375.7,374.4-397.7,381.5z"/>
			<path class="st2" d="M-400.9,381.7c0,0-20.3,7.5-28.1-13.7C-429,368.1-411.6,361.3-400.9,381.7z"/>
			<path class="st2" d="M-402,369.8c0,0-17.7-11.7-4.8-30.1C-406.8,339.7-391.3,349.3-402,369.8z"/>
			<g>
				<path class="st2" d="M-403.2,367.2c0,0,0.4-2.1,1.3-0.4c1.6,3.1,4.1,11.2,4.2,14.7c0.2,5.4-0.1,11.6-1.1,15.2
					c-1,3.6-2.8,6.5-4.5,8.3c-1.6,1.8-3,2.5-3.1,2.4c-0.1-0.1,1-1.1,2.4-2.9c1.4-1.8-0.5,1.2,1.7-11.2
					C-400.4,382.8-403.3,367.2-403.2,367.2z"/>
			</g>
		</g>
	</g>
</g>
<g id="fire">
</g>
<g id="Layer_1">
	<line class="st4" x1="-1199.3" y1="56.7" x2="-981.7" y2="56.7"/>
	<circle class="st5" cx="-1090.5" cy="33.3" r="3.8"/>
	<path class="st5" d="M-1083.2,13c-3.4-4.1-5.8-11.8-6.9-15.2c-0.1-0.5-0.8-0.5-1,0c-0.8,3-2.9,9.3-6.9,14.7
		c-3.7,5,0.4,12.3,7.3,12.3c0,0,0,0,0.1,0c0,0,0,0,0.1,0C-1083.7,24.8-1079.3,17.8-1083.2,13z M-1089.8,21.8
		c-3.4,0.6-6.2-2.3-5.7-5.7c0.3-2,2-3.7,4-4c3.4-0.6,6.2,2.3,5.7,5.7C-1086.1,19.8-1087.7,21.4-1089.8,21.8z"/>
	<line class="st4" x1="-1090.5" y1="56.7" x2="-1090.5" y2="23.6"/>
	<circle class="st6" cx="-1090.5" cy="56.2" r="12"/>
	<g>
		<path class="st7" d="M-1029.6,166.6c9.5,17.3,27,28.8,47,28.8s37.5-11.6,47-28.8H-1029.6z"/>
		<polygon class="st4" points="-982.6,58.4 -1029.9,166.6 -935.3,166.6 		"/>
		<circle class="st2" cx="-982.6" cy="57.8" r="6.5"/>
	</g>
	<g>
		<linearGradient id="SVGID_5_" gradientUnits="userSpaceOnUse" x1="-1245.3983" y1="181.0293" x2="-1151.4641" y2="181.0293">
			<stop  offset="0" style="stop-color:#FF3A2D"/>
			<stop  offset="1" style="stop-color:#D50000"/>
		</linearGradient>
		<path class="st8" d="M-1245.4,166.6c9.5,17.3,27,28.8,47,28.8c20,0,37.5-11.6,47-28.8H-1245.4z"/>
		<polygon class="st4" points="-1198.4,58.4 -1245.7,166.6 -1151.1,166.6 		"/>
		<linearGradient id="SVGID_6_" gradientUnits="userSpaceOnUse" x1="-1204.9587" y1="57.8233" x2="-1191.9037" y2="57.8233">
			<stop  offset="0" style="stop-color:#FF3A2D"/>
			<stop  offset="1" style="stop-color:#D50000"/>
		</linearGradient>
		<circle class="st9" cx="-1198.4" cy="57.8" r="6.5"/>
	</g>
	<g>
		<path class="st10" d="M-1382.8,104.8c0,0-0.2-1.8-9.7-1.8c-4.9,0-10.3-1.8-10.9-6.7c-1.1-8.8,9.7-19.4,22.5-29.1
			s-29.1-16.4-37.6-12.1c-8.5,4.2-27.9,36.4-28.5,44.3s10.9,20,10.9,20l14.6-3L-1382.8,104.8z"/>
		<path class="st10" d="M-1487.8,155.8c-0.7-1.8-0.8-18.3,1.2-17.6s13,0.3,13,0.3s-15-17.2-12.4-18.5c2.7-1.3,23.9-1.3,22.7-4.4
			c-1.2-3-22.4-8.8-19.8-10.1s9.7-14.2,9.7-14.2s-18.6-1.4-16.9-2.6c1.7-1.2,11.5-10.2,11.5-10.2l-13.4-12.9l13.3-6.1
			c0,0-7-15-5.2-15.2l26.7,2.2l6.7,99L-1487.8,155.8"/>
		<path class="st10" d="M-1487.8,155.8l-10.3-9.1l-8.6,16l-2.9-15.4l-14.2,3.1l-4-11l-6.7,6.7c0,0,20,20,26.7,25.5
			c6.7,5.5,27.3,3,27.3,3L-1487.8,155.8z"/>
		
			<linearGradient id="SVGID_7_" gradientUnits="userSpaceOnUse" x1="-1395.1396" y1="1102.5435" x2="-1309.0592" y2="1102.5435" gradientTransform="matrix(0.9906 -0.1366 -0.1366 -0.9906 96.975 981.0318)">
			<stop  offset="0" style="stop-color:#E6E6E6"/>
			<stop  offset="1" style="stop-color:#FF9300"/>
		</linearGradient>
		<path class="st11" d="M-1423.9,93.1l6.1,2.8l-1.1-8.2l7.5,3.8l-1-7.9c0,0,6.2,2.3,7.2,1.8s2.9-7.1,2.9-7.1l4.4,2.2l1.7-5.4l5,4.7
			l2.4-5.5l4.3,0.9l1-6.2l8.7,3.6l2.2-7.2l6.1,4.4l0.1-9.2c0,0,8.2,7.2,8,6c-0.1-1.2-0.9-8.7-0.9-8.7s8.5,5.5,8.2,4.8
			c-0.3-0.7-3-12.1-3-12.1l-8.9-0.2l-71.5,37.6L-1423.9,93.1z"/>
		<path class="st12" d="M-1423.4,181.1c0,0-6.7,16.7-7.3,20.4c-0.6,3.6,9.3,5.3,10.2,7.9c0.9,2.6-6.4,1.2-6.4,1.2s-2.5,2.4-4.8,1.8
			c-1.5-0.4-8.3-0.9-12.9-1.3c-2.3-0.2-4-2.3-3.7-4.6l2.8-20.3C-1445.5,186.3-1424.8,171.7-1423.4,181.1z"/>
		<path class="st13" d="M-1447.7,201.7c0,0,9.1-7.5,14.6-9.3s3.9,4.2,3.9,4.2l5.8-15.7c0,0-19.7,3.1-20.2,3.7s-3.1,5.1-3.1,5.1
			L-1447.7,201.7z"/>
		<g>
			
				<linearGradient id="SVGID_8_" gradientUnits="userSpaceOnUse" x1="-1502.2407" y1="1069.5763" x2="-1308.7931" y2="1069.5763" gradientTransform="matrix(0.9906 -0.1366 -0.1366 -0.9906 96.975 981.0318)">
				<stop  offset="0" style="stop-color:#FF3A2D"/>
				<stop  offset="1" style="stop-color:#D50000"/>
			</linearGradient>
			<path class="st14" d="M-1424.4,143.8c1.7,5.6,5.9,17.6,6.8,26.4c0.9,8.8-6.6,16.7-14.7,19.3s-12.6,3.3-19.9,5.6
				c-4.1,3.9-8.9,7.3-12.7,11.7c5.1,0.9,11.6,2,15,6.2c-1.6,1.7-3.4,2.8-5.6,3.1c-3.5,0.5-5.6,0.8-9.4,1.3
				c-2.6,0.3-6.9-0.3-10.7-0.6c-2.8-0.2-4.9-2.6-5-5.4c-0.1-5.1,0.4-9.7-0.1-15.3c-25.1-1.8-37.8-29.4-53.9-50
				c10.2-0.6,23.3,17.4,33.4,17c10.1-0.4,31.8-29,35.4-39.2c3.6-10.2-8.8-26.3-13.5-40.4c-4.7-14.2-7.7-24.6,10-38.1
				c17.7-13.5,65.5-48,82.3-36.3c16.8,11.8,41.6,33.9,31.9,45.2c-9.6,11.3-72.3,27.4-74.2,47.4c-1.9,20,4.4,12.1,12.5,9.4
				c7.4-2.4,29.2-11.4,34-6.5c4.8,4.9-12.7,8.4-27.8,11.8c-14.3,3.2-19.3,10.1-20.9,10.3c-1.6,0.2,3.9,6.8,4.8,9.6
				C-1425.6,139-1426.1,138.3-1424.4,143.8z"/>
		</g>
		<path class="st15" d="M-1425.3,210.9c0,0-0.6-4.1,1-4s4.6,1.9,5.2,3.1C-1418.6,211.2-1425.3,210.9-1425.3,210.9z"/>
		<path class="st15" d="M-1432.6,212.3c0,0-0.6-3.5,1.8-3.5s5.5,1.2,6.1,3C-1424.1,213.6-1432.6,212.3-1432.6,212.3z"/>
		<path class="st15" d="M-1453.3,215c0,0-0.6-4.1,1-4s4.6,1.9,5.2,3.1C-1446.5,215.3-1453.3,215-1453.3,215z"/>
		<path class="st15" d="M-1460.5,216.4c0,0-0.6-3.5,1.8-3.5c2.4,0,5.5,1.2,6.1,3C-1452,217.7-1460.5,216.4-1460.5,216.4z"/>
		<path class="st13" d="M-1452,194.7c0,0-27.3,1.2-28.5,0.6c-1.2-0.6,0.4,10.9,0.2,13.3c-0.2,2.4,4.7-3.6,13.8-6.6
			S-1452,194.7-1452,194.7z"/>
		<g>
			
				<linearGradient id="SVGID_9_" gradientUnits="userSpaceOnUse" x1="-1376.6736" y1="756.179" x2="-1273.6094" y2="756.179" gradientTransform="matrix(0.9932 -0.1162 -0.101 -0.8634 52.0039 582.4554)">
				<stop  offset="0.1522" style="stop-color:#FF3A2D"/>
				<stop  offset="0.1907" style="stop-color:#FF462A"/>
				<stop  offset="0.4015" style="stop-color:#FF811B"/>
				<stop  offset="0.5953" style="stop-color:#FFB00F"/>
				<stop  offset="0.7658" style="stop-color:#FFD207"/>
				<stop  offset="0.9065" style="stop-color:#FFE702"/>
				<stop  offset="1" style="stop-color:#FFEE00"/>
			</linearGradient>
			<path class="st16" d="M-1391.9,87.9c0-0.1,0-0.2,0.1-0.2c1.9-0.9,27.6-13.6,37-15.2c11.3-1.9,21-0.7,26.6-5.5
				c3.9-3.3,4.4-6.3,4.4-7.6c0-0.2,0.3-0.3,0.4-0.1c1.2,1.9,4.1,7.3,1.8,10.5c-2.1,2.9-4.6,5.3-6.1,6.5c-0.2,0.2,0,0.4,0.2,0.3
				c3-1.4,10.5-4.8,14.8-5.6c7.5-1.4,18.1,1.6,22.8,4.2c0.6,0.3,0.4,1.2-0.3,1.3c-3.4,0.3-10.2,1.4-13.7,5.3
				c-4.8,5.3-21.6,27-40.1,23.6C-1362.3,102.1-1391.7,93.4-1391.9,87.9z"/>
			
				<linearGradient id="SVGID_10_" gradientUnits="userSpaceOnUse" x1="-1371.2399" y1="751.2076" x2="-1305.2977" y2="751.2076" gradientTransform="matrix(0.9932 -0.1162 -0.101 -0.8634 52.0039 582.4554)">
				<stop  offset="0.1522" style="stop-color:#FF5A19"/>
				<stop  offset="1" style="stop-color:#FFEE00"/>
			</linearGradient>
			<path class="st17" d="M-1386.3,89c0,0,30-12.5,42.3-8.4c12.3,4.1,13.7,10,20.7,8c11.3-3.3-8.6,10.3-20.6,8.6
				C-1355.9,95.4-1386.3,89-1386.3,89z"/>
			
				<linearGradient id="SVGID_11_" gradientUnits="userSpaceOnUse" x1="-1369.4462" y1="751.9831" x2="-1318.9482" y2="751.9831" gradientTransform="matrix(0.9932 -0.1162 -0.101 -0.8634 52.0039 582.4554)">
				<stop  offset="0.1522" style="stop-color:#FFB02A"/>
				<stop  offset="0.9393" style="stop-color:#FFEE00"/>
			</linearGradient>
			<path class="st18" d="M-1384.5,88.7c0,0,21.5-5.6,28.8-5.6c7.3-0.1,10.6,2.3,16.2,4.3c1.3,0.5,4.3,1,5.8,1.3
				c0.3,0,0.3,0.4,0.1,0.5c-2.1,1-8.4,3.9-14.4,4.9C-1355.5,95.4-1384.5,88.7-1384.5,88.7z"/>
		</g>
		<g>
			<path class="st19" d="M-1430.4,76.3c0,0-3.2-1.9-6.4-2.4c-3.2-0.5-8.1-0.6-8.1-0.6l1.7-0.9c0,0-0.7-0.2-1.5-1.1
				c-0.7-0.7-1.8-3.1-1.8-3.1s3.5,0.4,7.4,0.8c5.5,0.7,8.2,3.8,8.2,3.8h-1.1C-1432,72.9-1430.6,75-1430.4,76.3z"/>
			<path class="st20" d="M-1432.4,72.1c0,0-1.6-1.5-4.8-2.3c-3.2-0.8-7-0.9-7-0.9l2.7,1l-3.2-0.5c0,0,1.7,1,4.9,1.6
				c3.2,0.6,7.3,2.3,7.3,2.3l-0.8-1.4L-1432.4,72.1z"/>
		</g>
		<path class="st10" d="M-1431.3,135.1c0,0,0.8,0.3,5.4,0.6s6-7.3,9-8s1.1,5.9,1.6,6.6c0.4,0.7,1.5-4.1,1.5-4.1s0.1,4.3,0.8,3.9
			c0.7-0.4,1-5.4,1-5.4s1.2,8.3,2.1,2.5c1-5.8-3.4-7.7-6.1-8.6c-2.7-0.9-6.9,7.1-9.6,7.8c-2.6,0.6-6.7-2.8-6.7-2.8L-1431.3,135.1z"
			/>
		<g>
			<circle cx="-1436.7" cy="81.4" r="4.2"/>
			<circle class="st0" cx="-1436.4" cy="80.6" r="1.5"/>
			<circle class="st0" cx="-1438" cy="83.1" r="0.7"/>
		</g>
		<path class="st10" d="M-1456.4,140.8c0,0,0.8,0.1,5.3-1s3.5-8.8,6.1-10.3s2.8,5.3,3.5,5.9c0.6,0.6,0.2-4.4,0.2-4.4
			s1.4,4.1,1.9,3.5c0.6-0.6-0.7-5.5-0.7-5.5s3.6,7.5,2.8,1.7c-0.8-5.8-5.5-6.3-8.4-6.3c-2.9,0-4.5,8.9-6.8,10.3
			c-2.3,1.4-7.3-0.6-7.3-0.6L-1456.4,140.8z"/>
		<g>
			<path class="st21" d="M-1390.1,47.3c3.2,6.1,7.8,10.1,10.2,8.8c2.5-1.3,1.9-7.3-1.3-13.4c-3.2-6.1-7.8-10.1-10.2-8.8
				C-1393.8,35.2-1393.2,41.2-1390.1,47.3z"/>
			<path class="st22" d="M-1391,47.9c3.2,6.1,7.8,10.1,10.2,8.8c2.5-1.3,1.9-7.3-1.3-13.4c-3.2-6.1-7.8-10.1-10.2-8.8
				C-1394.8,35.8-1394.2,41.8-1391,47.9z"/>
		</g>
		<g>
			<path class="st21" d="M-1374.3,34.4c2.5,4.7,6,7.8,7.9,6.8s1.5-5.7-1-10.4s-6-7.8-7.9-6.8C-1377.2,25-1376.8,29.6-1374.3,34.4z"
				/>
			<path class="st22" d="M-1375.1,34.9c2.5,4.7,6,7.8,7.9,6.8c1.9-1,1.5-5.7-1-10.4s-6-7.8-7.9-6.8
				C-1378,25.5-1377.5,30.1-1375.1,34.9z"/>
		</g>
		<g>
			<path class="st23" d="M-1388.6,28.2c0,0-4.8-2.5-8.6-0.4c-7.2,4-2.9,14.8-2.9,14.8s-2.3-6.3,4.9-12.2
				C-1391.5,27.6-1388.6,28.2-1388.6,28.2z"/>
			<path class="st24" d="M-1388.6,28.2c0,0-5.4,0.7-9.3,5.9s-1.2,11-1.2,11s-3.4-6,0.1-11.4C-1395.5,28.2-1388.6,28.2-1388.6,28.2z"
				/>
			<path class="st25" d="M-1390.5,29.8c0,0-5.8,3.5-6.8,8.9s1.9,9.4,1.9,9.4s-4-3.6-3.5-9.5C-1398.3,32.5-1390.5,29.8-1390.5,29.8z"
				/>
		</g>
		<g>
			<path class="st23" d="M-1375.1,20.7c0,0-2.8-1.5-5.1-0.2c-4.3,2.4-1.7,8.8-1.7,8.8s-1.3-3.7,2.9-7.2
				C-1376.8,20.3-1375.1,20.7-1375.1,20.7z"/>
			<path class="st24" d="M-1375.1,20.7c0,0-3.2,0.4-5.5,3.5c-2.3,3.1-0.7,6.5-0.7,6.5s-2-3.6,0.1-6.8
				C-1379.2,20.7-1375.1,20.7-1375.1,20.7z"/>
			<path class="st25" d="M-1376.3,21.7c0,0-3.4,2-4,5.2s1.2,5.6,1.2,5.6s-2.4-2.2-2.1-5.6C-1380.8,23.3-1376.3,21.7-1376.3,21.7z"/>
		</g>
		<path class="st10" d="M-1469,45.3c0,0,11.5-10.3,32.2-19.4c19.7-8.7,29.7-9.1,29.7-9.1s-4.9-12.7,6.7-17.6s-11.5-12.1-22.5,0
			c-6.9,7.7-10.3-6.7-10.3-6.7l-9.1,21.9l-12.1-3.6l-3.6,18.8l-13.4,1.2L-1469,45.3z"/>
	</g>
	<g>
		<g>
			<path class="st26" d="M-776.7,145.4c0,0-21.9-3.7-22.9,0.4c-0.7,2.9,23.4,2.8,23.4,2.8L-776.7,145.4z"/>
			<path class="st26" d="M-796.7,142c0,0-5.9-7.3-6.6-5.1s2.1,5.7,2.1,5.7s-8.1-3.6-9.1-2.4s7.9,4.1,7.4,4.2s-8.8-0.6-8.5,0.6
				c0.2,1.2,8.1,1.3,8.2,1.8c0.1,0.5-7.7,1.2-7.2,2.1c0.4,0.9,7.4,0.1,8.2,0.2c0.8,0.1-4.9,2.4-4.5,3.4c0.4,0.9,5.4-1.3,6.3-1.9
				c0.9-0.7,5-0.4,6.5-1.7s0.9-4.5,0-5.3C-794.8,142.7-796.7,142-796.7,142z"/>
		</g>
		<path class="st27" d="M-817.3,91c4.9,0,12.8,0.5,16.6-1.6c7.7-4.4-14.5-13.5-27.3-23.3s29.1-16.4,37.6-12.1s37.7,28.6,38.3,36.5
			s-20.7,27.9-20.7,27.9l-14.6-3C-787.3,115.3-826.8,91-817.3,91z"/>
		
			<linearGradient id="SVGID_12_" gradientUnits="userSpaceOnUse" x1="-826.3168" y1="908.5028" x2="-778.0991" y2="860.2851" gradientTransform="matrix(1 0 0 -1 0 956.182)">
			<stop  offset="0" style="stop-color:#FFC76D"/>
			<stop  offset="1" style="stop-color:#E8E3E0"/>
		</linearGradient>
		<path class="st28" d="M-838.3,59.6c0,0-1.5,4.1,0.6,4.6c2.1,0.5,4.3-1.1,4.3-1.1s-1.1,8.6,1.6,7.5S-827,68-827,68s-1,5.9,1.6,6.4
			c2.7,0.5,5.4-2.8,5.4-2.8s0,7.1,2.6,7.1c2.6,0,5.7-3.2,5.7-3.2s-2.5,5.3,1.8,5.9c4.3,0.5,5.4-1.6,5.4-1.6s0.5,4.4,3.2,4.8
			c3.7,0.5,5.1-1.9,5.1-1.9s3,4,4,3.5c1.1-0.5,5.9-2.7,5.9-2.7s-0.5,3.7,2.1,3.7c2.6,0,7-3.7,7-3.7s0,3.7,2.1,3.2
			c2.1-0.5,3.7-3.7,3.7-3.7s1.1,2.7,3.2,2.1c2.1-0.5,4.3-4.3,4.3-4.3L-838.3,59.6z"/>
		
			<linearGradient id="SVGID_13_" gradientUnits="userSpaceOnUse" x1="-860.8582" y1="727.0714" x2="-801.5735" y2="720.8959" gradientTransform="matrix(0.9996 2.982325e-02 2.982325e-02 -0.9996 19.0937 849.373)">
			<stop  offset="0" style="stop-color:#FFC76D"/>
			<stop  offset="1" style="stop-color:#E8E3E0"/>
		</linearGradient>
		<path class="st29" d="M-760.6,103.8c0,0-3.2-7.5-6.4-5.4c-2.9,1.9-1.6,4.3-1.6,4.3s-1.6-3.7-3.7-2.1c-2.1,1.6-2.1,4.3-2.1,4.3
			s-1-5.3-3.7-3.2c-2.7,2.1-2.8,5.1-2.8,5.1s0.2-5.6-2.5-4.6s-2.2,2.8-2.2,2.8s-0.4-4.4-3.1-3.4s-3.3,2.1-3.3,2.1s-0.9-5.2-3.1-3.2
			c-2.2,2.1-2.7,2.5-2.7,2.5s0.6-5.1-2.1-4.6s-3.7,1.7-3.7,1.7s1.6-3.8-1.6-3.9s-3,1.9-3,1.9s0.4-6.1-2.3-4.1c-2.7,2.1-3,2.3-3,2.3
			s4.3-8.3,0.9-8.2c-3.4,0.1-3.8,5.4-3.8,5.4s1.6-7.5-0.5-7c-2.1,0.5-1.2,5.4-1.2,5.4s10.9,10.6,11.9,11.2s41.4,12,41.4,12
			L-760.6,103.8z"/>
		<g>
			<path class="st30" d="M-779.3,183.9c0,0,6.7,16.7,7.4,20.4c0.6,3.6-9.3,5.4-10.2,8c-0.9,2.6,6.4,1.1,6.4,1.1s2.5,2.4,4.8,1.8
				c1.5-0.4,8.3-1,12.9-1.3c2.3-0.2,4-2.3,3.7-4.6l-2.8-20.2C-757.2,189-778,174.5-779.3,183.9z"/>
			<path class="st31" d="M-755,204.4c0,0-9.1-7.5-14.6-9.3s-3.9,4.2-3.9,4.2l-5.8-15.7c0,0,19.7,3,20.2,3.6s3.1,5.1,3.1,5.1
				L-755,204.4z"/>
			<path class="st15" d="M-777.3,213.7c0,0,0.6-4.1-1-4c-1.6,0.1-4.6,1.9-5.2,3.1C-784.1,214-777.3,213.7-777.3,213.7z"/>
			<path class="st15" d="M-770.1,215c0,0,0.6-3.5-1.9-3.5c-2.4,0-5.5,1.2-6.1,3C-778.7,216.3-770.1,215-770.1,215z"/>
		</g>
		<path class="st32" d="M-727.9,162.2c0,0,9.1-22.2,6.4-23.6c-2.7-1.3-10.9-7.2-9.6-10.2c1.2-3,23.5-11.5,20.9-12.8
			c-2.7-1.3-9.6-16.6-9.6-16.6s23.3-5.9,21.6-7.1s-11.5-10.2-11.5-10.2l13.4-12.9l-13.3-6.1c0,0-4.4-13,0.9-16.8
			c5.4-3.7-24.6,1.1-24.6,1.1l-28.4,98"/>
		<path class="st32" d="M-730.1,160l17.1-13.3l8.6,12.3l2.9-11.6l13.7,2l4.6-9.9l6.7,6.7c0,0-20,20-26.7,25.5s-27.3,3-27.3,3
			L-730.1,160z"/>
		
			<linearGradient id="SVGID_14_" gradientUnits="userSpaceOnUse" x1="-839.7711" y1="842.7586" x2="-676.571" y2="842.7586" gradientTransform="matrix(1 0 0 -1 0 956.182)">
			<stop  offset="0" style="stop-color:#6BC62A"/>
			<stop  offset="1" style="stop-color:#00B53E"/>
		</linearGradient>
		<path class="st33" d="M-709.9,163.1c-31.9-3.1-29.2-27.7-20.1-43.2c0.1-0.1,0.1-0.2,0-0.3c12.8-13.2,26.4-39.3,23.1-48.9
			c-4.3-12.3-76.6-66.1-99.6-61.3s-33.3,48.5-33.3,48.5c4,15.2,49,32.2,68.8,26.5c7.7-2.3,13.5-3.7,16.9,2.9c1.8,3.5,0,8.1-18.2,15
			c-15.5,5.9-39.4-4.5-43.4-10.7c-3.4-5.4-12.9,2.5-3.8,10.1c6,5,20.4,13.9,43.8,20.4c-2.2,3.3-5.1,8.3-5.8,10.2
			c-1,2.8-4.1,8.9-5.9,14.5c-1.7,5.6-5.5,12.6-6.4,21.4c-0.9,8.8,6.9,18.9,14.9,21.5s12.6,3.3,19.9,5.6c4.1,3.9,8.9,7.3,12.7,11.7
			c-5.1,0.9-11.6,2-15,6.2c1.6,1.7,3.4,2.8,5.6,3.1c3.5,0.5,5.6,0.8,9.4,1.3c2.6,0.3,6.9-0.3,10.7-0.6c2.8-0.2,4.9-2.6,5-5.4
			c0.1-5.1-0.4-9.7,0.1-15.3c25.1-1.8,37.8-29.4,53.9-50C-686.7,145.5-699.9,164.1-709.9,163.1z"/>
		<g>
			<path class="st2" d="M-809.3,132c0,0-13.3-8.3-4.1-22.6C-813.3,109.3-801.8,116.2-809.3,132z"/>
			<path class="st2" d="M-811.3,134c0,0-5.8,14.9-21.5,8.3C-832.9,142.3-828.2,129.3-811.3,134z"/>
			<path class="st2" d="M-817.9,128.3c0,0-15.6,3.7-19.1-13C-837,115.3-823.7,111.8-817.9,128.3z"/>
			<g>
				<path class="st2" d="M-820,127.6c0-0.1,7.6,1.7,10.7,4.4c3.1,2.7,6.3,6.1,7.8,8.5s2.1,5,2.2,6.8c0.1,1.8-0.2,3-0.3,2.9
					c-0.1,0-0.1-1.1-0.4-2.9c-0.3-1.7-3.9-4.5-5.3-6.7C-806.6,138.3-820,127.7-820,127.6z"/>
			</g>
		</g>
		<path class="st15" d="M-757.8,215c0,0,0.6-4.1-1-4c-1.6,0.1-4.6,1.9-5.2,3.1C-764.5,215.3-757.8,215-757.8,215z"/>
		<path class="st15" d="M-750.6,216.4c0,0,0.6-3.5-1.8-3.5c-2.4,0-5.5,1.2-6.1,3C-759.1,217.7-750.6,216.4-750.6,216.4z"/>
		<path class="st31" d="M-759,195.4c0,0,28.4-0.8,28.4,0.5c0,1.1-0.2,10.9,0,13.4s-4.8-4.2-13.9-7.3
			C-753.6,198.9-759,195.4-759,195.4z"/>
		<g>
			<g>
				<path class="st34" d="M-806,53.7c-3.2,6.1-7.8,10.1-10.2,8.8c-2.5-1.3-1.9-7.3,1.3-13.4s7.8-10.1,10.2-8.8
					C-802.3,41.6-802.8,47.6-806,53.7z"/>
				<path class="st27" d="M-805.1,54.4c-3.2,6.1-7.8,10.1-10.2,8.8c-2.5-1.3-1.9-7.3,1.3-13.4c3.2-6.1,7.8-10.1,10.2-8.8
					C-801.3,42.2-801.9,48.2-805.1,54.4z"/>
			</g>
			<g>
				<path class="st34" d="M-821.8,40.8c-2.5,4.7-6,7.8-7.9,6.8c-1.9-1-1.5-5.7,1-10.4s6-7.8,7.9-6.8
					C-818.8,31.4-819.3,36.1-821.8,40.8z"/>
				<path class="st27" d="M-821,41.3c-2.5,4.7-6,7.8-7.9,6.8c-1.9-1-1.5-5.7,1-10.4s6-7.8,7.9-6.8C-818.1,31.9-818.5,36.5-821,41.3z
					"/>
			</g>
			<g>
				<path class="st35" d="M-807.5,34.6c0,0,4.8-2.5,8.6-0.4c7.2,4,2.9,14.8,2.9,14.8s2.3-6.3-4.9-12.2
					C-804.5,34-807.5,34.6-807.5,34.6z"/>
				<path class="st32" d="M-807.5,34.6c0,0,5.4,0.7,9.3,5.9c3.9,5.2,1.2,11,1.2,11s3.4-6-0.1-11.4
					C-800.5,34.6-807.5,34.6-807.5,34.6z"/>
				<path class="st25" d="M-805.5,36.3c0,0,5.8,3.5,6.8,8.9s-1.9,9.4-1.9,9.4s4-3.6,3.5-9.5C-797.8,38.9-805.5,36.3-805.5,36.3z"/>
			</g>
			<g>
				<path class="st35" d="M-821,27.1c0,0,2.8-1.5,5.1-0.2c4.3,2.4,1.7,8.8,1.7,8.8s1.3-3.7-2.9-7.2C-819.2,26.7-821,27.1-821,27.1z"
					/>
				<path class="st32" d="M-821,27.1c0,0,3.2,0.4,5.5,3.5s0.7,6.5,0.7,6.5s2-3.6-0.1-6.8C-816.9,27.1-821,27.1-821,27.1z"/>
				<path class="st25" d="M-819.8,28.1c0,0,3.4,2,4,5.2c0.6,3.2-1.2,5.6-1.2,5.6s2.4-2.2,2.1-5.6C-815.2,29.7-819.8,28.1-819.8,28.1
					z"/>
			</g>
		</g>
		<g>
			<g>
				<path class="st32" d="M-740,67.3c0,0,2.2,2.9,3,6.1s1.4,8,1.4,8l0.7-1.8c0,0,0.3,0.6,1.2,1.4c0.8,0.6,3.2,1.4,3.2,1.4
					s-0.7-3.4-1.6-7.3c-1.2-5.4-4.6-7.8-4.6-7.8l0.1,1.1C-736.5,68.5-738.7,67.4-740,67.3z"/>
				<path class="st30" d="M-735.6,68.8c0,0,1.7,1.5,2.8,4.6c1.1,3.1,1.6,6.9,1.6,6.9l-1.3-2.5l0.8,3.1c0,0-1.2-1.6-2.1-4.7
					c-0.9-3.2-3-7-3-7l1.5,0.7L-735.6,68.8z"/>
			</g>
			<path class="st36" d="M-745.8,74.3c0,0,7.6-0.9,5.3,6"/>
		</g>
		<g>
			<path class="st37" d="M-777.1,141.7c-4.2-0.3-22.5,2.5-22.2,6.7c0.2,2.9,23.2-4.4,23.2-4.4S-772.9,142-777.1,141.7z"/>
			<path class="st37" d="M-797.7,143.9c0,0-7.9-5.2-7.8-2.9c0.1,2.2,3.7,4.8,3.7,4.8s-8.8-1-9.4,0.5c-0.6,1.5,8.8,1.6,8.3,1.8
				c-0.4,0.2-8.6,2-8,3.1c0.6,1.1,8.1-1.2,8.4-0.8c0.2,0.4-7,3.4-6.3,4.2s7.1-2.1,7.9-2.2c0.8-0.1-4,3.7-3.2,4.6
				c0.7,0.8,4.7-2.8,5.4-3.7c0.7-0.9,4.6-1.9,5.7-3.6c1.1-1.7-0.5-4.6-1.6-5.1C-795.7,144.1-797.7,143.9-797.7,143.9z"/>
		</g>
		<path class="st32" d="M-729,48.7c0,0-12.3-10.5-33-19.6c-19.7-8.7-33.4-12-33.4-12s0.1-19.7,18.7-24.1c9.1-2.1,24.5,3.8,22,4.8
			c-10.7,4.3-11.4,22.4-2.1,15c8-6.4,20.9,1.1,20.9,1.1s-13.1,8.2-8.6,9.1c5.4,1.1,18.6-2.5,15,1.6c-4.3,4.8-9.6,8.6-9.6,8.6
			s24.1-4.8,19.8,1.1C-723.6,40.2-729,48.7-729,48.7z"/>
	</g>
	<g>
		<g>
			<circle class="st5" cx="-456.3" cy="-59.9" r="3.8"/>
		</g>
		<g>
			<path class="st5" d="M-449-80.3c-3.4-4.1-5.8-11.8-6.9-15.2c-0.1-0.5-0.8-0.5-1,0c-0.8,3-2.9,9.3-6.9,14.7
				c-3.7,5,0.4,12.3,7.3,12.3c0,0,0,0,0.1,0c0,0,0,0,0.1,0C-449.5-68.5-445.1-75.5-449-80.3z M-455.6-71.5c-3.4,0.6-6.2-2.3-5.7-5.7
				c0.3-2,2-3.7,4-4c3.4-0.6,6.2,2.3,5.7,5.7C-451.9-73.5-453.5-71.8-455.6-71.5z"/>
		</g>
		<path class="st5" d="M-456.3-71.2c-0.8,0-1.5,0.7-1.5,1.5v19.3h3v-19.3C-454.8-70.5-455.5-71.2-456.3-71.2z"/>
	</g>
	<g>
		<path class="st5" d="M-202.9-80.7h-217.6c-0.8,0-1.5-0.7-1.5-1.5s0.7-1.5,1.5-1.5h217.6c0.8,0,1.5,0.7,1.5,1.5
			S-202.1-80.7-202.9-80.7z"/>
	</g>
	<g>
		
			<linearGradient id="SVGID_15_" gradientUnits="userSpaceOnUse" x1="-1242.9712" y1="-138.4937" x2="-1170.4794" y2="-138.4937" gradientTransform="matrix(-3.274567e-02 -0.9994 -0.8688 2.845226e-02 -582.4089 -1112.0139)">
			<stop  offset="0.1522" style="stop-color:#FF3A2D"/>
			<stop  offset="0.1907" style="stop-color:#FF462A"/>
			<stop  offset="0.4015" style="stop-color:#FF811B"/>
			<stop  offset="0.5953" style="stop-color:#FFB00F"/>
			<stop  offset="0.7658" style="stop-color:#FFD207"/>
			<stop  offset="0.9065" style="stop-color:#FFE702"/>
			<stop  offset="1" style="stop-color:#FFEE00"/>
		</linearGradient>
		<path class="st38" d="M-424.2,126.4c-0.1,0-0.1,0-0.1-0.1c-0.6-1.4-13.5-16.4-13.1-27.9c0.4-12.1,2.8-27.1,3-29
			c0.3-3.5,4.5,11,5.3,12.1c0.1,0.1,0.3,0,0.3-0.1c-0.9-2.2-1.2-8.2-0.3-12.4c1-4.2,6.1-11.9,8.3-15c0.3-0.4,0.9-0.2,0.9,0.3
			c0,2.3,1,9.8,3.7,12.5c3.7,3.6,11.5,15.2,7.9,27.8C-411.9,106.9-420.1,126.6-424.2,126.4z"/>
		
			<linearGradient id="SVGID_16_" gradientUnits="userSpaceOnUse" x1="-1239.2186" y1="-140.3258" x2="-1190.7693" y2="-140.3258" gradientTransform="matrix(-3.274567e-02 -0.9994 -0.8688 2.845226e-02 -582.4089 -1112.0139)">
			<stop  offset="0.1522" style="stop-color:#FF5A19"/>
			<stop  offset="1" style="stop-color:#FFEE00"/>
		</linearGradient>
		<path class="st39" d="M-423,122.6c0,0-7.6-21.5-3.8-29.7c3.8-8.2,5.4-12.2,4.3-17.1c-1.8-8,10.8,14.4,8.9,22.6
			C-415.8,106.5-423,122.6-423,122.6z"/>
		
			<linearGradient id="SVGID_17_" gradientUnits="userSpaceOnUse" x1="-1237.9752" y1="-139.5018" x2="-1203.0396" y2="-139.5018" gradientTransform="matrix(-3.274567e-02 -0.9994 -0.8688 2.845226e-02 -582.4089 -1112.0139)">
			<stop  offset="0.1522" style="stop-color:#FFB02A"/>
			<stop  offset="0.9393" style="stop-color:#FFEE00"/>
		</linearGradient>
		<path class="st40" d="M-423.2,121.4c0,0-2.9-15.1-2.5-20.2c0.3-5,2.3-7.2,4.1-10.9c0.4-0.9,1-2.9,1.3-3.9c0.1-0.2,0.3-0.2,0.4,0
			c0.7,1.5,2.5,6,2.8,10.2C-416.5,101.8-423.2,121.4-423.2,121.4z"/>
	</g>
	<g>
		<linearGradient id="SVGID_18_" gradientUnits="userSpaceOnUse" x1="-469.099" y1="126.0775" x2="-375.1649" y2="126.0775">
			<stop  offset="0" style="stop-color:#FF3A2D"/>
			<stop  offset="1" style="stop-color:#D50000"/>
		</linearGradient>
		<path class="st41" d="M-469.1,111.7c9.5,17.3,27,28.8,47,28.8c20,0,37.5-11.6,47-28.8H-469.1z"/>
		<polygon class="st4" points="-422.1,3.4 -469.4,111.7 -374.8,111.7 		"/>
		<linearGradient id="SVGID_19_" gradientUnits="userSpaceOnUse" x1="-428.6594" y1="2.8715" x2="-415.6045" y2="2.8715">
			<stop  offset="0" style="stop-color:#FF3A2D"/>
			<stop  offset="1" style="stop-color:#D50000"/>
		</linearGradient>
		<circle class="st42" cx="-422.1" cy="2.9" r="6.5"/>
	</g>
	<g>
		<path class="st2" d="M-305.2,93.9c0,0-4-20.3,18.1-24.4C-287.1,69.5-283.2,86.8-305.2,93.9z"/>
		<path class="st2" d="M-308.4,94.2c0,0-20.3,7.5-28.1-13.7C-336.5,80.5-319.1,73.7-308.4,94.2z"/>
		<path class="st2" d="M-309.6,82.2c0,0-17.7-11.7-4.8-30.1C-314.3,52.1-298.9,61.8-309.6,82.2z"/>
		<g>
			<path class="st2" d="M-310.7,79.6c0,0,0.4-2.1,1.3-0.4c1.6,3.1,4.1,11.2,4.2,14.7c0.2,5.4-0.1,11.6-1.1,15.2
				c-1,3.6-2.8,6.5-4.5,8.3c-1.6,1.8-3,2.5-3.1,2.4c-0.1-0.1,1-1.1,2.4-2.9c1.4-1.8-0.5,1.2,1.7-11.2
				C-307.9,95.2-310.8,79.6-310.7,79.6z"/>
		</g>
	</g>
	<g>
		<path class="st7" d="M-355.8,111.7c9.5,17.3,27,28.8,47,28.8c20,0,37.5-11.6,47-28.8H-355.8z"/>
		<polygon class="st4" points="-308.8,3.4 -356.1,111.7 -261.5,111.7 		"/>
		<circle class="st2" cx="-308.8" cy="2.9" r="6.5"/>
	</g>
	<g>
		<circle class="st0" cx="-415.6" cy="-55" r="12"/>
		<path class="st5" d="M-415.6-41.5c-7.4,0-13.5-6-13.5-13.5s6-13.5,13.5-13.5s13.5,6,13.5,13.5S-408.2-41.5-415.6-41.5z
			 M-415.6-65.5c-5.8,0-10.5,4.7-10.5,10.5s4.7,10.5,10.5,10.5s10.5-4.7,10.5-10.5S-409.8-65.5-415.6-65.5z"/>
	</g>
	<g>
		<polygon class="st4" points="-422.5,173.2 -469.8,281.4 -375.1,281.4 		"/>
		<linearGradient id="SVGID_20_" gradientUnits="userSpaceOnUse" x1="-428.9907" y1="172.6485" x2="-415.9357" y2="172.6485">
			<stop  offset="0" style="stop-color:#FF3A2D"/>
			<stop  offset="1" style="stop-color:#D50000"/>
		</linearGradient>
		<circle class="st43" cx="-422.5" cy="172.6" r="6.5"/>
	</g>
	<g>
		<polygon class="st4" points="-308.8,173.2 -356.1,281.4 -261.5,281.4 		"/>
		<circle class="st2" cx="-308.8" cy="172.6" r="6.5"/>
	</g>
	<linearGradient id="SVGID_21_" gradientUnits="userSpaceOnUse" x1="-469.4303" y1="307.9121" x2="-375.4961" y2="307.9121">
		<stop  offset="0" style="stop-color:#FF3A2D"/>
		<stop  offset="1" style="stop-color:#D50000"/>
	</linearGradient>
	<path class="st44" d="M-469.4,293.5c9.5,17.3,27,28.8,47,28.8c20,0,37.5-11.6,47-28.8H-469.4z"/>
	<path class="st7" d="M-354.8,294.5c9.5,17.3,27,28.8,47,28.8c20,0,37.5-11.6,47-28.8H-354.8z"/>
	<g>
		<defs>
			<rect id="SVGID_22_" x="-1213.8" y="108.7" width="30.1" height="56.3"/>
		</defs>
		<clipPath id="SVGID_23_">
			<use xlink:href="#SVGID_22_"  style="overflow:visible;"/>
		</clipPath>
		<g class="st45">
			
				<linearGradient id="SVGID_24_" gradientUnits="userSpaceOnUse" x1="-1272.4857" y1="756.1269" x2="-1199.9938" y2="756.1269" gradientTransform="matrix(-3.274567e-02 -0.9994 -0.8688 2.845226e-02 -582.4089 -1112.0139)">
				<stop  offset="0.1522" style="stop-color:#FF3A2D"/>
				<stop  offset="0.1907" style="stop-color:#FF462A"/>
				<stop  offset="0.4015" style="stop-color:#FF811B"/>
				<stop  offset="0.5953" style="stop-color:#FFB00F"/>
				<stop  offset="0.7658" style="stop-color:#FFD207"/>
				<stop  offset="0.9065" style="stop-color:#FFE702"/>
				<stop  offset="1" style="stop-color:#FFEE00"/>
			</linearGradient>
			<path class="st46" d="M-1200.5,181.4c-0.1,0-0.1,0-0.1-0.1c-0.6-1.4-13.5-16.4-13.1-27.9c0.4-12.1,2.8-27.1,3-29
				c0.3-3.5,4.5,11,5.3,12.1c0.1,0.1,0.3,0,0.3-0.1c-0.9-2.2-1.2-8.2-0.3-12.4c1-4.2,6.1-11.9,8.3-15c0.3-0.4,0.9-0.2,0.9,0.3
				c0,2.3,1,9.8,3.7,12.5c3.7,3.6,11.5,15.2,7.9,27.8C-1188.2,161.9-1196.4,181.6-1200.5,181.4z"/>
			
				<linearGradient id="SVGID_25_" gradientUnits="userSpaceOnUse" x1="-1268.733" y1="754.2948" x2="-1220.2837" y2="754.2948" gradientTransform="matrix(-3.274567e-02 -0.9994 -0.8688 2.845226e-02 -582.4089 -1112.0139)">
				<stop  offset="0.1522" style="stop-color:#FF5A19"/>
				<stop  offset="1" style="stop-color:#FFEE00"/>
			</linearGradient>
			<path class="st47" d="M-1199.3,177.6c0,0-7.6-21.5-3.8-29.7s5.4-12.2,4.3-17.1c-1.8-8,10.8,14.4,8.9,22.6
				C-1192.1,161.5-1199.3,177.6-1199.3,177.6z"/>
			
				<linearGradient id="SVGID_26_" gradientUnits="userSpaceOnUse" x1="-1267.4897" y1="755.1188" x2="-1232.554" y2="755.1188" gradientTransform="matrix(-3.274567e-02 -0.9994 -0.8688 2.845226e-02 -582.4089 -1112.0139)">
				<stop  offset="0.1522" style="stop-color:#FFB02A"/>
				<stop  offset="0.9393" style="stop-color:#FFEE00"/>
			</linearGradient>
			<path class="st48" d="M-1199.5,176.3c0,0-2.9-15.1-2.5-20.2c0.3-5,2.3-7.2,4.1-10.9c0.4-0.9,1-2.9,1.3-3.9c0.1-0.2,0.3-0.2,0.4,0
				c0.7,1.5,2.5,6,2.8,10.2C-1192.8,156.8-1199.5,176.3-1199.5,176.3z"/>
		</g>
	</g>
	<g>
		<defs>
			<rect id="SVGID_27_" x="-469.1" y="338.7" width="30.1" height="56.3"/>
		</defs>
		<clipPath id="SVGID_28_">
			<use xlink:href="#SVGID_27_"  style="overflow:visible;"/>
		</clipPath>
		<g class="st49">
			
				<linearGradient id="SVGID_29_" gradientUnits="userSpaceOnUse" x1="-1526.7081" y1="-91.4207" x2="-1454.2162" y2="-91.4207" gradientTransform="matrix(-3.274567e-02 -0.9994 -0.8688 2.845226e-02 -582.4089 -1112.0139)">
				<stop  offset="0.1522" style="stop-color:#FF3A2D"/>
				<stop  offset="0.1907" style="stop-color:#FF462A"/>
				<stop  offset="0.4015" style="stop-color:#FF811B"/>
				<stop  offset="0.5953" style="stop-color:#FFB00F"/>
				<stop  offset="0.7658" style="stop-color:#FFD207"/>
				<stop  offset="0.9065" style="stop-color:#FFE702"/>
				<stop  offset="1" style="stop-color:#FFEE00"/>
			</linearGradient>
			<path class="st50" d="M-455.9,411.3c-0.1,0-0.1,0-0.1-0.1c-0.6-1.4-13.5-16.4-13.1-27.9c0.4-12.1,2.8-27.1,3-29
				c0.3-3.5,4.5,11,5.3,12.1c0.1,0.1,0.3,0,0.3-0.1c-0.9-2.2-1.2-8.2-0.3-12.4c1-4.2,6.1-11.9,8.3-15c0.3-0.4,0.9-0.2,0.9,0.3
				c0,2.3,1,9.8,3.7,12.5c3.7,3.6,11.5,15.2,7.9,27.8C-443.6,391.8-451.7,411.6-455.9,411.3z"/>
			
				<linearGradient id="SVGID_30_" gradientUnits="userSpaceOnUse" x1="-1522.9556" y1="-93.2527" x2="-1474.5062" y2="-93.2527" gradientTransform="matrix(-3.274567e-02 -0.9994 -0.8688 2.845226e-02 -582.4089 -1112.0139)">
				<stop  offset="0.1522" style="stop-color:#FF5A19"/>
				<stop  offset="1" style="stop-color:#FFEE00"/>
			</linearGradient>
			<path class="st51" d="M-454.7,407.5c0,0-7.6-21.5-3.8-29.7c3.8-8.2,5.4-12.2,4.3-17.1c-1.8-8,10.8,14.4,8.9,22.6
				C-447.4,391.4-454.7,407.5-454.7,407.5z"/>
			
				<linearGradient id="SVGID_31_" gradientUnits="userSpaceOnUse" x1="-1521.7122" y1="-92.4287" x2="-1486.7764" y2="-92.4287" gradientTransform="matrix(-3.274567e-02 -0.9994 -0.8688 2.845226e-02 -582.4089 -1112.0139)">
				<stop  offset="0.1522" style="stop-color:#FFB02A"/>
				<stop  offset="0.9393" style="stop-color:#FFEE00"/>
			</linearGradient>
			<path class="st52" d="M-454.8,406.3c0,0-2.9-15.1-2.5-20.2c0.3-5,2.3-7.2,4.1-10.9c0.4-0.9,1-2.9,1.3-3.9c0.1-0.2,0.3-0.2,0.4,0
				c0.7,1.5,2.5,6,2.8,10.2C-448.1,386.7-454.8,406.3-454.8,406.3z"/>
		</g>
	</g>
	<g>
		<path class="st10" d="M-43.5,262c0,0,0.8,0.3,5.4,0.6c4.6,0.3,6-7.3,9-8s1.1,5.9,1.6,6.6c0.4,0.7,1.5-4.1,1.5-4.1s0.1,4.3,0.8,3.9
			s1-5.4,1-5.4s1.2,8.3,2.1,2.5c1-5.8-3.4-7.7-6.1-8.6c-2.7-0.9-6.9,7.1-9.6,7.8c-2.6,0.6-6.7-2.8-6.7-2.8L-43.5,262z"/>
	</g>
	<g>
		<g>
			
				<linearGradient id="SVGID_32_" gradientUnits="userSpaceOnUse" x1="-213.7249" y1="381.1656" x2="-110.6606" y2="381.1656" gradientTransform="matrix(0.9932 -0.1162 -0.101 -0.8634 52.0039 582.4554)">
				<stop  offset="0.1522" style="stop-color:#FF3A2D"/>
				<stop  offset="0.1907" style="stop-color:#FF462A"/>
				<stop  offset="0.4015" style="stop-color:#FF811B"/>
				<stop  offset="0.5953" style="stop-color:#FFB00F"/>
				<stop  offset="0.7658" style="stop-color:#FFD207"/>
				<stop  offset="0.9065" style="stop-color:#FFE702"/>
				<stop  offset="1" style="stop-color:#FFEE00"/>
			</linearGradient>
			<path class="st53" d="M-199,276.5c0-0.1,0-0.2,0.1-0.2c1.9-0.9,27.6-13.6,37-15.2c11.3-1.9,21-0.7,26.6-5.5
				c3.9-3.3,4.4-6.3,4.4-7.6c0-0.2,0.3-0.3,0.4-0.1c1.2,1.9,4.1,7.3,1.8,10.5c-2.1,2.9-4.6,5.3-6.1,6.5c-0.2,0.2,0,0.4,0.2,0.3
				c3-1.4,10.5-4.8,14.8-5.6c7.6-1.4,18.1,1.6,22.8,4.2c0.6,0.3,0.4,1.2-0.3,1.3c-3.4,0.3-10.2,1.4-13.7,5.3
				c-4.8,5.3-21.6,27-40.1,23.6C-169.4,290.7-198.8,282-199,276.5z"/>
			
				<linearGradient id="SVGID_33_" gradientUnits="userSpaceOnUse" x1="-208.2912" y1="376.1942" x2="-142.349" y2="376.1942" gradientTransform="matrix(0.9932 -0.1162 -0.101 -0.8634 52.0039 582.4554)">
				<stop  offset="0.1522" style="stop-color:#FF5A19"/>
				<stop  offset="1" style="stop-color:#FFEE00"/>
			</linearGradient>
			<path class="st54" d="M-193.4,277.7c0,0,30-12.5,42.3-8.4s13.7,10,20.7,8c11.3-3.3-8.6,10.3-20.6,8.6
				C-163,284.1-193.4,277.7-193.4,277.7z"/>
			
				<linearGradient id="SVGID_34_" gradientUnits="userSpaceOnUse" x1="-206.4975" y1="376.9697" x2="-155.9995" y2="376.9697" gradientTransform="matrix(0.9932 -0.1162 -0.101 -0.8634 52.0039 582.4554)">
				<stop  offset="0.1522" style="stop-color:#FFB02A"/>
				<stop  offset="0.9393" style="stop-color:#FFEE00"/>
			</linearGradient>
			<path class="st55" d="M-191.6,277.3c0,0,21.5-5.6,28.8-5.6c7.3-0.1,10.6,2.3,16.2,4.3c1.3,0.5,4.3,1,5.8,1.3
				c0.3,0,0.3,0.4,0.1,0.5c-2.1,1-8.4,3.9-14.4,4.9C-162.6,284-191.6,277.3-191.6,277.3z"/>
		</g>
	</g>
	<g>
		<path class="st10" d="M-49.6,112.3c0,0-0.2-1.8-9.7-1.8c-4.9,0-10.3-1.8-10.9-6.7c-1.1-8.8,9.7-19.4,22.5-29.1
			s-29.1-16.4-37.6-12.1c-8.5,4.2-27.9,36.4-28.5,44.3s10.9,20,10.9,20l14.6-3L-49.6,112.3z"/>
		<path class="st10" d="M-154.6,163.3c-0.7-1.8-0.8-18.3,1.2-17.6s13,0.3,13,0.3s-15-17.2-12.4-18.5c2.7-1.3,23.9-1.3,22.7-4.4
			c-1.2-3-22.4-8.8-19.8-10.1s9.7-14.2,9.7-14.2s-18.6-1.4-16.9-2.6S-145.6,86-145.6,86L-159,73.1l13.3-6.1c0,0-7-15-5.2-15.2
			l26.7,2.2l6.7,99L-154.6,163.3"/>
		<path class="st10" d="M-154.6,163.3l-10.3-9.1l-8.6,16l-2.9-15.4l-14.2,3.1l-4-11l-6.7,6.7c0,0,20,20,26.7,25.5s27.3,3,27.3,3
			L-154.6,163.3z"/>
		
			<linearGradient id="SVGID_35_" gradientUnits="userSpaceOnUse" x1="-75.4819" y1="913.0303" x2="10.5985" y2="913.0303" gradientTransform="matrix(0.9906 -0.1366 -0.1366 -0.9906 96.975 981.0318)">
			<stop  offset="0" style="stop-color:#E6E6E6"/>
			<stop  offset="1" style="stop-color:#FF9300"/>
		</linearGradient>
		<path class="st56" d="M-90.7,100.6l6.1,2.8l-1.1-8.2l7.5,3.8l-1-7.9c0,0,6.2,2.3,7.2,1.8s2.9-7.1,2.9-7.1l4.4,2.2l1.7-5.4l5,4.7
			l2.4-5.5l4.3,0.9l1-6.2l8.7,3.6l2.2-7.2l6.1,4.4l0.1-9.2c0,0,8.2,7.2,8,6c-0.1-1.2-0.9-8.7-0.9-8.7s8.5,5.5,8.2,4.8
			c-0.3-0.7-3-12.1-3-12.1l-8.9-0.2l-71.5,37.6L-90.7,100.6z"/>
		<path class="st12" d="M-90.2,188.6c0,0-6.7,16.7-7.3,20.4c-0.6,3.6,9.3,5.3,10.2,7.9c0.9,2.6-6.4,1.2-6.4,1.2s-2.5,2.4-4.8,1.8
			c-1.5-0.4-8.3-0.9-12.9-1.3c-2.3-0.2-4-2.3-3.7-4.6l2.8-20.3C-112.3,193.8-91.6,179.2-90.2,188.6z"/>
		<path class="st13" d="M-114.5,209.2c0,0,9.1-7.5,14.6-9.3s3.9,4.2,3.9,4.2l5.8-15.7c0,0-19.7,3.1-20.2,3.7s-3.1,5.1-3.1,5.1
			L-114.5,209.2z"/>
		<g>
			
				<linearGradient id="SVGID_36_" gradientUnits="userSpaceOnUse" x1="-182.5829" y1="880.0631" x2="10.8647" y2="880.0631" gradientTransform="matrix(0.9906 -0.1366 -0.1366 -0.9906 96.975 981.0318)">
				<stop  offset="0" style="stop-color:#FF3A2D"/>
				<stop  offset="1" style="stop-color:#D50000"/>
			</linearGradient>
			<path class="st57" d="M-91.2,151.3c1.7,5.6,5.9,17.6,6.8,26.4c0.9,8.8-6.6,16.7-14.7,19.3s-12.6,3.3-19.9,5.6
				c-4.1,3.9-8.9,7.3-12.7,11.7c5.1,0.9,11.6,2,15,6.2c-1.6,1.7-3.4,2.8-5.6,3.1c-3.5,0.5-5.6,0.8-9.4,1.3
				c-2.6,0.3-6.9-0.3-10.7-0.6c-2.8-0.2-4.9-2.6-5-5.4c-0.1-5.1,0.4-9.7-0.1-15.3c-25.1-1.8-37.8-29.4-53.9-50
				c10.2-0.6,23.3,17.4,33.4,17s31.8-29,35.4-39.2c3.6-10.2-8.8-26.3-13.5-40.4c-4.7-14.2-7.7-24.6,10-38.1s65.5-48,82.3-36.3
				C-37,28.4-12.2,50.5-21.9,61.8c-9.6,11.3-72.3,27.4-74.2,47.4s4.4,12.1,12.5,9.4c7.4-2.4,29.2-11.4,34-6.5s-12.7,8.4-27.8,11.8
				c-14.3,3.2-19.3,10.1-20.9,10.3c-1.6,0.2,3.9,6.8,4.8,9.6C-92.4,146.5-92.9,145.8-91.2,151.3z"/>
		</g>
		<path class="st15" d="M-92.1,218.4c0,0-0.6-4.1,1-4s4.6,1.9,5.2,3.1C-85.4,218.7-92.1,218.4-92.1,218.4z"/>
		<path class="st15" d="M-99.4,219.8c0,0-0.6-3.5,1.8-3.5s5.5,1.2,6.1,3S-99.4,219.8-99.4,219.8z"/>
		<path class="st15" d="M-120.1,222.5c0,0-0.6-4.1,1-4s4.6,1.9,5.2,3.1C-113.3,222.8-120.1,222.5-120.1,222.5z"/>
		<path class="st15" d="M-127.3,223.9c0,0-0.6-3.5,1.8-3.5c2.4,0,5.5,1.2,6.1,3C-118.8,225.2-127.3,223.9-127.3,223.9z"/>
		<path class="st13" d="M-118.8,202.2c0,0-27.3,1.2-28.5,0.6s0.4,10.9,0.2,13.3s4.7-3.6,13.8-6.6S-118.8,202.2-118.8,202.2z"/>
		<g>
			<path class="st19" d="M-97.2,83.8c0,0-3.2-1.9-6.4-2.4s-8.1-0.6-8.1-0.6l1.7-0.9c0,0-0.7-0.2-1.5-1.1c-0.7-0.7-1.8-3.1-1.8-3.1
				s3.5,0.4,7.4,0.8c5.5,0.7,8.2,3.8,8.2,3.8h-1.1C-98.8,80.4-97.4,82.5-97.2,83.8z"/>
			<path class="st20" d="M-99.2,79.6c0,0-1.6-1.5-4.8-2.3s-7-0.9-7-0.9l2.7,1l-3.2-0.5c0,0,1.7,1,4.9,1.6s7.3,2.3,7.3,2.3l-0.8-1.4
				L-99.2,79.6z"/>
		</g>
		<path class="st10" d="M-98.1,142.6c0,0,0.8,0.3,5.4,0.6c4.6,0.3,6-7.3,9-8s1.1,5.9,1.6,6.6c0.4,0.7,1.5-4.1,1.5-4.1
			s0.1,4.3,0.8,3.9s1-5.4,1-5.4s1.2,8.3,2.1,2.5c1-5.8-3.4-7.7-6.1-8.6c-2.7-0.9-6.9,7.1-9.6,7.8c-2.6,0.6-6.7-2.8-6.7-2.8
			L-98.1,142.6z"/>
		<g>
			<circle cx="-103.5" cy="88.9" r="4.2"/>
			<circle class="st0" cx="-103.2" cy="88.1" r="1.5"/>
			<circle class="st0" cx="-104.8" cy="90.6" r="0.7"/>
		</g>
		<path class="st10" d="M-123.2,148.3c0,0,0.8,0.1,5.3-1s3.5-8.8,6.1-10.3s2.8,5.3,3.5,5.9c0.6,0.6,0.2-4.4,0.2-4.4s1.4,4.1,1.9,3.5
			c0.6-0.6-0.7-5.5-0.7-5.5s3.6,7.5,2.8,1.7s-5.5-6.3-8.4-6.3s-4.5,8.9-6.8,10.3c-2.3,1.4-7.3-0.6-7.3-0.6L-123.2,148.3z"/>
		<g>
			<path class="st21" d="M-56.9,54.8c3.2,6.1,7.8,10.1,10.2,8.8c2.5-1.3,1.9-7.3-1.3-13.4s-7.8-10.1-10.2-8.8S-60,48.7-56.9,54.8z"
				/>
			<path class="st22" d="M-57.8,55.4c3.2,6.1,7.8,10.1,10.2,8.8c2.5-1.3,1.9-7.3-1.3-13.4s-7.8-10.1-10.2-8.8
				C-61.6,43.3-61,49.3-57.8,55.4z"/>
		</g>
		<g>
			<path class="st21" d="M-41.1,41.9c2.5,4.7,6,7.8,7.9,6.8c1.9-1,1.5-5.7-1-10.4s-6-7.8-7.9-6.8C-44,32.5-43.6,37.1-41.1,41.9z"/>
			<path class="st22" d="M-41.9,42.4c2.5,4.7,6,7.8,7.9,6.8s1.5-5.7-1-10.4s-6-7.8-7.9-6.8C-44.8,33-44.3,37.6-41.9,42.4z"/>
		</g>
		<g>
			<path class="st23" d="M-55.4,35.7c0,0-4.8-2.5-8.6-0.4c-7.2,4-2.9,14.8-2.9,14.8s-2.3-6.3,4.9-12.2
				C-58.3,35.1-55.4,35.7-55.4,35.7z"/>
			<path class="st24" d="M-55.4,35.7c0,0-5.4,0.7-9.3,5.9c-3.9,5.2-1.2,11-1.2,11s-3.4-6,0.1-11.4C-62.3,35.7-55.4,35.7-55.4,35.7z"
				/>
			<path class="st25" d="M-57.3,37.3c0,0-5.8,3.5-6.8,8.9c-1,5.4,1.9,9.4,1.9,9.4s-4-3.6-3.5-9.5C-65.1,40-57.3,37.3-57.3,37.3z"/>
		</g>
		<g>
			<path class="st23" d="M-41.9,28.2c0,0-2.8-1.5-5.1-0.2c-4.3,2.4-1.7,8.8-1.7,8.8s-1.3-3.7,2.9-7.2
				C-43.6,27.8-41.9,28.2-41.9,28.2z"/>
			<path class="st24" d="M-41.9,28.2c0,0-3.2,0.4-5.5,3.5c-2.3,3.1-0.7,6.5-0.7,6.5s-2-3.6,0.1-6.8C-46,28.2-41.9,28.2-41.9,28.2z"
				/>
			<path class="st25" d="M-43.1,29.2c0,0-3.4,2-4,5.2c-0.6,3.2,1.2,5.6,1.2,5.6s-2.4-2.2-2.1-5.6C-47.6,30.8-43.1,29.2-43.1,29.2z"
				/>
		</g>
		<path class="st10" d="M-135.8,52.8c0,0,11.5-10.3,32.2-19.4c19.7-8.7,29.7-9.1,29.7-9.1s-4.9-12.7,6.7-17.6s-11.5-12.1-22.5,0
			C-96.6,14.4-100,0-100,0l-9.1,21.9l-12.1-3.6l-3.6,18.8l-13.4,1.2L-135.8,52.8z"/>
	</g>
	<path class="st10" d="M-76.2,264.2c0,0,0.8,0.1,5.3-1s3.5-8.8,6.1-10.3s2.8,5.3,3.5,5.9c0.6,0.6,0.2-4.4,0.2-4.4s1.4,4.1,1.9,3.5
		c0.6-0.6-0.7-5.5-0.7-5.5s3.6,7.5,2.8,1.7s-5.5-6.3-8.4-6.3s-4.5,8.9-6.8,10.3s-7.3-0.6-7.3-0.6L-76.2,264.2z"/>
	<g>
		<path class="st10" d="M151.8,112.3c0,0-0.2-1.8-9.7-1.8c-4.9,0-10.3-1.8-10.9-6.7c-1.1-8.8,9.7-19.4,22.5-29.1
			s-29.1-16.4-37.6-12.1c-8.5,4.2-27.9,36.4-28.5,44.3s10.9,20,10.9,20l14.6-3L151.8,112.3z"/>
		<path class="st10" d="M46.8,163.3c-0.7-1.8-0.8-18.3,1.2-17.6s13,0.3,13,0.3s-15-17.2-12.4-18.5c2.7-1.3,23.9-1.3,22.7-4.4
			c-1.2-3-22.4-8.8-19.8-10.1s9.7-14.2,9.7-14.2s-18.6-1.4-16.9-2.6S55.8,86,55.8,86L42.4,73.1L55.7,67c0,0-7-15-5.2-15.2L77.2,54
			l6.7,99L46.8,163.3"/>
		<path class="st10" d="M46.8,163.3l-10.3-9.1l-8.6,16L25,154.8l-14.2,3.1l-4-11l-6.7,6.7c0,0,20,20,26.7,25.5s27.3,3,27.3,3
			L46.8,163.3z"/>
		
			<linearGradient id="SVGID_37_" gradientUnits="userSpaceOnUse" x1="124.0657" y1="885.5134" x2="210.1461" y2="885.5134" gradientTransform="matrix(0.9906 -0.1366 -0.1366 -0.9906 96.975 981.0318)">
			<stop  offset="0" style="stop-color:#E6E6E6"/>
			<stop  offset="1" style="stop-color:#FF9300"/>
		</linearGradient>
		<path class="st58" d="M110.7,100.6l6.1,2.8l-1.1-8.2l7.5,3.8l-1-7.9c0,0,6.2,2.3,7.2,1.8s2.9-7.1,2.9-7.1l4.4,2.2l1.7-5.4l5,4.7
			l2.4-5.5l4.3,0.9l1-6.2l8.7,3.6l2.2-7.2l6.1,4.4l0.1-9.2c0,0,8.2,7.2,8,6c-0.1-1.2-0.9-8.7-0.9-8.7s8.5,5.5,8.2,4.8
			c-0.3-0.7-3-12.1-3-12.1l-8.9-0.2l-71.5,37.6L110.7,100.6z"/>
		<path class="st12" d="M111.2,188.6c0,0-6.7,16.7-7.3,20.4c-0.6,3.6,9.3,5.3,10.2,7.9c0.9,2.6-6.4,1.2-6.4,1.2s-2.5,2.4-4.8,1.8
			c-1.5-0.4-8.3-0.9-12.9-1.3c-2.3-0.2-4-2.3-3.7-4.6l2.8-20.3C89.1,193.8,109.8,179.2,111.2,188.6z"/>
		<path class="st13" d="M86.9,209.2c0,0,9.1-7.5,14.6-9.3s3.9,4.2,3.9,4.2l5.8-15.7c0,0-19.7,3.1-20.2,3.7s-3.1,5.1-3.1,5.1
			L86.9,209.2z"/>
		<g>
			
				<linearGradient id="SVGID_38_" gradientUnits="userSpaceOnUse" x1="16.9646" y1="852.5463" x2="210.4122" y2="852.5463" gradientTransform="matrix(0.9906 -0.1366 -0.1366 -0.9906 96.975 981.0318)">
				<stop  offset="0" style="stop-color:#FF3A2D"/>
				<stop  offset="1" style="stop-color:#D50000"/>
			</linearGradient>
			<path class="st59" d="M110.2,151.3c1.7,5.6,5.9,17.6,6.8,26.4c0.9,8.8-6.6,16.7-14.7,19.3s-12.6,3.3-19.9,5.6
				c-4.1,3.9-8.9,7.3-12.7,11.7c5.1,0.9,11.6,2,15,6.2c-1.6,1.7-3.4,2.8-5.6,3.1c-3.5,0.5-5.6,0.8-9.4,1.3
				c-2.6,0.3-6.9-0.3-10.7-0.6c-2.8-0.2-4.9-2.6-5-5.4c-0.1-5.1,0.4-9.7-0.1-15.3c-25.1-1.8-37.8-29.4-53.9-50
				c10.2-0.6,23.3,17.4,33.4,17s31.8-29,35.4-39.2c3.6-10.2-8.8-26.3-13.5-40.4c-4.7-14.2-7.7-24.6,10-38.1s65.5-48,82.3-36.3
				c16.8,11.8,41.6,33.9,31.9,45.2c-9.6,11.3-72.3,27.4-74.2,47.4s4.4,12.1,12.5,9.4c7.4-2.4,29.2-11.4,34-6.5s-12.7,8.4-27.8,11.8
				c-14.3,3.2-19.3,10.1-20.9,10.3c-1.6,0.2,3.9,6.8,4.8,9.6C109,146.5,108.5,145.8,110.2,151.3z"/>
		</g>
		<path class="st15" d="M109.3,218.4c0,0-0.6-4.1,1-4s4.6,1.9,5.2,3.1C116,218.7,109.3,218.4,109.3,218.4z"/>
		<path class="st15" d="M102,219.8c0,0-0.6-3.5,1.8-3.5s5.5,1.2,6.1,3S102,219.8,102,219.8z"/>
		<path class="st15" d="M81.3,222.5c0,0-0.6-4.1,1-4s4.6,1.9,5.2,3.1C88.1,222.8,81.3,222.5,81.3,222.5z"/>
		<path class="st15" d="M74.1,223.9c0,0-0.6-3.5,1.8-3.5c2.4,0,5.5,1.2,6.1,3C82.6,225.2,74.1,223.9,74.1,223.9z"/>
		<path class="st13" d="M82.6,202.2c0,0-27.3,1.2-28.5,0.6s0.4,10.9,0.2,13.3s4.7-3.6,13.8-6.6S82.6,202.2,82.6,202.2z"/>
		<g>
			
				<linearGradient id="SVGID_39_" gradientUnits="userSpaceOnUse" x1="146.6759" y1="542.5125" x2="249.7402" y2="542.5125" gradientTransform="matrix(0.9932 -0.1162 -0.101 -0.8634 52.0039 582.4554)">
				<stop  offset="0.1522" style="stop-color:#FF3A2D"/>
				<stop  offset="0.1907" style="stop-color:#FF462A"/>
				<stop  offset="0.4015" style="stop-color:#FF811B"/>
				<stop  offset="0.5953" style="stop-color:#FFB00F"/>
				<stop  offset="0.7658" style="stop-color:#FFD207"/>
				<stop  offset="0.9065" style="stop-color:#FFE702"/>
				<stop  offset="1" style="stop-color:#FFEE00"/>
			</linearGradient>
			<path class="st60" d="M142.7,95.3c0-0.1,0-0.2,0.1-0.2c1.9-0.9,27.6-13.6,37-15.2c11.3-1.9,21-0.7,26.6-5.5
				c3.9-3.3,4.4-6.3,4.4-7.6c0-0.2,0.3-0.3,0.4-0.1c1.2,1.9,4.1,7.3,1.8,10.5c-2.1,2.9-4.6,5.3-6.1,6.5c-0.2,0.2,0,0.4,0.2,0.3
				c3-1.4,10.5-4.8,14.8-5.6c7.6-1.4,18.1,1.6,22.8,4.2c0.6,0.3,0.4,1.2-0.3,1.3c-3.4,0.3-10.2,1.4-13.7,5.3
				c-4.8,5.3-21.6,27-40.1,23.6C172.2,109.5,142.9,100.8,142.7,95.3z"/>
			
				<linearGradient id="SVGID_40_" gradientUnits="userSpaceOnUse" x1="152.1096" y1="537.5411" x2="218.0517" y2="537.5411" gradientTransform="matrix(0.9932 -0.1162 -0.101 -0.8634 52.0039 582.4554)">
				<stop  offset="0.1522" style="stop-color:#FF5A19"/>
				<stop  offset="1" style="stop-color:#FFEE00"/>
			</linearGradient>
			<path class="st61" d="M148.3,96.5c0,0,30-12.5,42.3-8.4s13.7,10,20.7,8c11.3-3.3-8.6,10.3-20.6,8.6
				C178.7,102.9,148.3,96.5,148.3,96.5z"/>
			
				<linearGradient id="SVGID_41_" gradientUnits="userSpaceOnUse" x1="153.9033" y1="538.3166" x2="204.4013" y2="538.3166" gradientTransform="matrix(0.9932 -0.1162 -0.101 -0.8634 52.0039 582.4554)">
				<stop  offset="0.1522" style="stop-color:#FFB02A"/>
				<stop  offset="0.9393" style="stop-color:#FFEE00"/>
			</linearGradient>
			<path class="st62" d="M150.1,96.1c0,0,21.5-5.6,28.8-5.6c7.3-0.1,10.6,2.3,16.2,4.3c1.3,0.5,4.3,1,5.8,1.3c0.3,0,0.3,0.4,0.1,0.5
				c-2.1,1-8.4,3.9-14.4,4.9C179.1,102.8,150.1,96.1,150.1,96.1z"/>
		</g>
		<g>
			<path class="st19" d="M104.2,83.8c0,0-3.2-1.9-6.4-2.4s-8.1-0.6-8.1-0.6l1.7-0.9c0,0-0.7-0.2-1.5-1.1c-0.7-0.7-1.8-3.1-1.8-3.1
				s3.5,0.4,7.4,0.8c5.5,0.7,8.2,3.8,8.2,3.8h-1.1C102.6,80.4,104,82.5,104.2,83.8z"/>
			<path class="st20" d="M102.2,79.6c0,0-1.6-1.5-4.8-2.3s-7-0.9-7-0.9l2.7,1l-3.2-0.5c0,0,1.7,1,4.9,1.6s7.3,2.3,7.3,2.3l-0.8-1.4
				L102.2,79.6z"/>
		</g>
		<path class="st10" d="M103.3,142.6c0,0,0.8,0.3,5.4,0.6c4.6,0.3,6-7.3,9-8s1.1,5.9,1.6,6.6c0.4,0.7,1.5-4.1,1.5-4.1
			s0.1,4.3,0.8,3.9s1-5.4,1-5.4s1.2,8.3,2.1,2.5c1-5.8-3.4-7.7-6.1-8.6c-2.7-0.9-6.9,7.1-9.6,7.8c-2.6,0.6-6.7-2.8-6.7-2.8
			L103.3,142.6z"/>
		<g>
			<circle cx="97.9" cy="88.9" r="4.2"/>
			<circle class="st0" cx="98.2" cy="88.1" r="1.5"/>
			<circle class="st0" cx="96.6" cy="90.6" r="0.7"/>
		</g>
		<path class="st10" d="M78.2,148.3c0,0,0.8,0.1,5.3-1s3.5-8.8,6.1-10.3s2.8,5.3,3.5,5.9c0.6,0.6,0.2-4.4,0.2-4.4s1.4,4.1,1.9,3.5
			c0.6-0.6-0.7-5.5-0.7-5.5s3.6,7.5,2.8,1.7s-5.5-6.3-8.4-6.3s-4.5,8.9-6.8,10.3c-2.3,1.4-7.3-0.6-7.3-0.6L78.2,148.3z"/>
		<g>
			<path class="st21" d="M144.5,54.8c3.2,6.1,7.8,10.1,10.2,8.8c2.5-1.3,1.9-7.3-1.3-13.4s-7.8-10.1-10.2-8.8S141.4,48.7,144.5,54.8
				z"/>
			<path class="st22" d="M143.6,55.4c3.2,6.1,7.8,10.1,10.2,8.8c2.5-1.3,1.9-7.3-1.3-13.4s-7.8-10.1-10.2-8.8
				C139.8,43.3,140.4,49.3,143.6,55.4z"/>
		</g>
		<g>
			<path class="st21" d="M160.3,41.9c2.5,4.7,6,7.8,7.9,6.8s1.5-5.7-1-10.4s-6-7.8-7.9-6.8C157.4,32.5,157.8,37.1,160.3,41.9z"/>
			<path class="st22" d="M159.5,42.4c2.5,4.7,6,7.8,7.9,6.8s1.5-5.7-1-10.4s-6-7.8-7.9-6.8C156.6,33,157.1,37.6,159.5,42.4z"/>
		</g>
		<g>
			<path class="st23" d="M146,35.7c0,0-4.8-2.5-8.6-0.4c-7.2,4-2.9,14.8-2.9,14.8s-2.3-6.3,4.9-12.2C143.1,35.1,146,35.7,146,35.7z"
				/>
			<path class="st24" d="M146,35.7c0,0-5.4,0.7-9.3,5.9c-3.9,5.2-1.2,11-1.2,11s-3.4-6,0.1-11.4C139.1,35.7,146,35.7,146,35.7z"/>
			<path class="st25" d="M144.1,37.3c0,0-5.8,3.5-6.8,8.9s1.9,9.4,1.9,9.4s-4-3.6-3.5-9.5C136.3,40,144.1,37.3,144.1,37.3z"/>
		</g>
		<g>
			<path class="st23" d="M159.5,28.2c0,0-2.8-1.5-5.1-0.2c-4.3,2.4-1.7,8.8-1.7,8.8s-1.3-3.7,2.9-7.2
				C157.8,27.8,159.5,28.2,159.5,28.2z"/>
			<path class="st24" d="M159.5,28.2c0,0-3.2,0.4-5.5,3.5c-2.3,3.1-0.7,6.5-0.7,6.5s-2-3.6,0.1-6.8
				C155.4,28.2,159.5,28.2,159.5,28.2z"/>
			<path class="st25" d="M158.3,29.2c0,0-3.4,2-4,5.2c-0.6,3.2,1.2,5.6,1.2,5.6s-2.4-2.2-2.1-5.6C153.8,30.8,158.3,29.2,158.3,29.2z
				"/>
		</g>
		<path class="st10" d="M65.6,52.8c0,0,11.5-10.3,32.2-19.4c19.7-8.7,29.7-9.1,29.7-9.1s-4.9-12.7,6.7-17.6s-11.5-12.1-22.5,0
			c-6.9,7.7-10.3-6.7-10.3-6.7l-9.1,21.9l-12.1-3.6l-3.6,18.8l-13.4,1.2L65.6,52.8z"/>
	</g>
</g>
</svg>
