<?xml version="1.0" encoding="utf-8"?>
<!-- Generator: Adobe Illustrator 23.0.1, SVG Export Plug-In . SVG Version: 6.00 Build 0)  -->
<svg version="1.1" xmlns="http://www.w3.org/2000/svg" xmlns:xlink="http://www.w3.org/1999/xlink" x="0px" y="0px" width="22.6px"
	 height="16.4px" viewBox="0 0 22.6 16.4" style="enable-background:new 0 0 22.6 16.4;" xml:space="preserve">
<style type="text/css">
	.st0{fill:#FFFFFF;}
	.st1{clip-path:url(#SVGID_2_);}
	.st2{fill:#6BC62A;}
	.st3{clip-path:url(#SVGID_4_);}
	.st4{fill:none;stroke:#7A6356;stroke-width:3;stroke-linecap:round;stroke-linejoin:round;stroke-miterlimit:10;}
	.st5{fill:#7A6356;}
	.st6{fill:#FFFFFF;stroke:#7A6356;stroke-width:3;stroke-linecap:round;stroke-linejoin:round;stroke-miterlimit:10;}
	.st7{fill:#009380;}
	.st8{fill:url(#SVGID_5_);}
	.st9{fill:url(#SVGID_6_);}
	.st10{fill:#A60C17;}
	.st11{fill:url(#SVGID_7_);}
	.st12{fill:#E02229;}
	.st13{opacity:0.88;fill:#D50000;enable-background:new    ;}
	.st14{fill:url(#SVGID_8_);}
	.st15{fill:#491B02;}
	.st16{fill:url(#SVGID_9_);}
	.st17{fill:url(#SVGID_10_);}
	.st18{fill:url(#SVGID_11_);}
	.st19{fill:#680200;}
	.st20{fill:#A30B05;}
	.st21{fill:#FF5B56;}
	.st22{fill:#A40000;}
	.st23{opacity:0.5;fill:#D50000;enable-background:new    ;}
	.st24{fill:#6A1100;}
	.st25{opacity:0.43;fill:#FFFFFF;enable-background:new    ;}
	.st26{fill:#006325;}
	.st27{fill:#004B25;}
	.st28{fill:url(#SVGID_12_);}
	.st29{fill:url(#SVGID_13_);}
	.st30{fill:#00923D;}
	.st31{opacity:0.4;fill:#006830;enable-background:new    ;}
	.st32{fill:#006830;}
	.st33{fill:url(#SVGID_14_);}
	.st34{fill:#D6E000;}
	.st35{opacity:0.5;fill:#00923D;enable-background:new    ;}
	.st36{fill:none;stroke:#000000;stroke-width:2;stroke-linecap:round;stroke-linejoin:round;stroke-miterlimit:10;}
	.st37{fill:#00962B;}
	.st38{fill:url(#SVGID_15_);}
	.st39{fill:url(#SVGID_16_);}
	.st40{fill:url(#SVGID_17_);}
	.st41{fill:url(#SVGID_18_);}
	.st42{fill:url(#SVGID_19_);}
	.st43{fill:url(#SVGID_20_);}
	.st44{fill:url(#SVGID_21_);}
	.st45{clip-path:url(#SVGID_23_);}
	.st46{fill:url(#SVGID_24_);}
	.st47{fill:url(#SVGID_25_);}
	.st48{fill:url(#SVGID_26_);}
	.st49{clip-path:url(#SVGID_28_);}
	.st50{fill:url(#SVGID_29_);}
	.st51{fill:url(#SVGID_30_);}
	.st52{fill:url(#SVGID_31_);}
	.st53{fill:url(#SVGID_32_);}
	.st54{fill:url(#SVGID_33_);}
	.st55{fill:url(#SVGID_34_);}
	.st56{fill:url(#SVGID_35_);}
	.st57{fill:url(#SVGID_36_);}
	.st58{fill:url(#SVGID_37_);}
	.st59{fill:url(#SVGID_38_);}
	.st60{fill:url(#SVGID_39_);}
	.st61{fill:url(#SVGID_40_);}
	.st62{fill:url(#SVGID_41_);}
</style>
<g id="Layer_2">
	<rect x="-1592.4" y="-350" class="st0" width="1146.2" height="404.9"/>
</g>
<g id="green">
	<g>
		<defs>
			<rect id="SVGID_1_" x="-930.7" y="-140.7" width="49.7" height="58"/>
		</defs>
		<clipPath id="SVGID_2_">
			<use xlink:href="#SVGID_1_"  style="overflow:visible;"/>
		</clipPath>
		<g class="st1">
			<path class="st2" d="M-899.4-98.9c0,0-4-20.3,18.1-24.4C-881.3-123.3-877.4-106-899.4-98.9z"/>
			<path class="st2" d="M-902.6-98.7c0,0-20.3,7.5-28.1-13.7C-930.7-112.3-913.3-119.1-902.6-98.7z"/>
			<path class="st2" d="M-903.7-110.6c0,0-17.7-11.7-4.8-30.1C-908.5-140.7-893-131.1-903.7-110.6z"/>
			<g>
				<path class="st2" d="M-904.9-113.2c0,0,0.4-2.1,1.3-0.4c1.6,3.1,4.1,11.2,4.2,14.7c0.2,5.4-0.1,11.6-1.1,15.2
					c-1,3.6-2.8,6.5-4.5,8.3c-1.6,1.8-3,2.5-3.1,2.4c-0.1-0.1,1-1.1,2.4-2.9c1.4-1.8-0.5,1.2,1.7-11.2
					C-902.1-97.6-905-113.2-904.9-113.2z"/>
			</g>
		</g>
	</g>
	<g>
		<defs>
			<rect id="SVGID_3_" x="-349.4" y="91.9" width="49.7" height="58"/>
		</defs>
		<clipPath id="SVGID_4_">
			<use xlink:href="#SVGID_3_"  style="overflow:visible;"/>
		</clipPath>
		<g class="st3">
			<path class="st2" d="M-318.1,133.7c0,0-4-20.3,18.1-24.4C-300,109.3-296.1,126.6-318.1,133.7z"/>
			<path class="st2" d="M-321.3,134c0,0-20.3,7.5-28.1-13.7C-349.4,120.3-332,113.5-321.3,134z"/>
			<path class="st2" d="M-322.4,122c0,0-17.7-11.7-4.8-30.1C-327.2,91.9-311.7,101.6-322.4,122z"/>
			<g>
				<path class="st2" d="M-323.6,119.4c0,0,0.4-2.1,1.3-0.4c1.6,3.1,4.1,11.2,4.2,14.7c0.2,5.4-0.1,11.6-1.1,15.2
					c-1,3.6-2.8,6.5-4.5,8.3c-1.6,1.8-3,2.5-3.1,2.4c-0.1-0.1,1-1.1,2.4-2.9c1.4-1.8-0.5,1.2,1.7-11.2
					C-320.8,135-323.7,119.4-323.6,119.4z"/>
			</g>
		</g>
	</g>
</g>
<g id="fire">
</g>
<g id="Layer_1">
	<line class="st4" x1="-1119.7" y1="-191" x2="-902.1" y2="-191"/>
	<circle class="st5" cx="-1010.9" cy="-214.4" r="3.8"/>
	<path class="st5" d="M-1003.6-234.8c-3.4-4.1-5.8-11.8-6.9-15.2c-0.1-0.5-0.8-0.5-1,0c-0.8,3-2.9,9.3-6.9,14.7
		c-3.7,5,0.4,12.3,7.3,12.3c0,0,0,0,0.1,0c0,0,0,0,0.1,0C-1004.1-223-999.7-230-1003.6-234.8z M-1010.2-226
		c-3.4,0.6-6.2-2.3-5.7-5.7c0.3-2,2-3.7,4-4c3.4-0.6,6.2,2.3,5.7,5.7C-1006.5-228-1008.1-226.3-1010.2-226z"/>
	<line class="st4" x1="-1010.9" y1="-191" x2="-1010.9" y2="-224.2"/>
	<circle class="st6" cx="-1010.9" cy="-191.6" r="12"/>
	<g>
		<path class="st7" d="M-950-81.2c9.5,17.3,27,28.8,47,28.8c20,0,37.5-11.6,47-28.8H-950z"/>
		<polygon class="st4" points="-903,-189.4 -950.3,-81.2 -855.7,-81.2 		"/>
		<circle class="st2" cx="-903" cy="-189.9" r="6.5"/>
	</g>
	<g>
		<linearGradient id="SVGID_5_" gradientUnits="userSpaceOnUse" x1="-1165.8125" y1="-66.7427" x2="-1071.8784" y2="-66.7427">
			<stop  offset="0" style="stop-color:#FF3A2D"/>
			<stop  offset="1" style="stop-color:#D50000"/>
		</linearGradient>
		<path class="st8" d="M-1165.8-81.2c9.5,17.3,27,28.8,47,28.8c20,0,37.5-11.6,47-28.8H-1165.8z"/>
		<polygon class="st4" points="-1118.8,-189.4 -1166.2,-81.2 -1071.5,-81.2 		"/>
		<linearGradient id="SVGID_6_" gradientUnits="userSpaceOnUse" x1="-1125.3729" y1="-189.9487" x2="-1112.318" y2="-189.9487">
			<stop  offset="0" style="stop-color:#FF3A2D"/>
			<stop  offset="1" style="stop-color:#D50000"/>
		</linearGradient>
		<circle class="st9" cx="-1118.8" cy="-189.9" r="6.5"/>
	</g>
	<g>
		<path class="st10" d="M-1303.2-142.9c0,0-0.2-1.8-9.7-1.8c-4.9,0-10.3-1.8-10.9-6.7c-1.1-8.8,9.7-19.4,22.5-29.1
			c12.8-9.7-29.1-16.4-37.6-12.1c-8.5,4.2-27.9,36.4-28.5,44.3c-0.6,7.9,10.9,20,10.9,20l14.6-3L-1303.2-142.9z"/>
		<path class="st10" d="M-1408.2-91.9c-0.7-1.8-0.8-18.3,1.2-17.6s13,0.3,13,0.3s-15-17.2-12.4-18.5c2.7-1.3,23.9-1.3,22.7-4.4
			c-1.2-3-22.4-8.8-19.8-10.1c2.6-1.3,9.7-14.2,9.7-14.2s-18.6-1.4-16.9-2.6c1.7-1.2,11.5-10.2,11.5-10.2l-13.4-12.9l13.3-6.1
			c0,0-7-15-5.2-15.2l26.7,2.2l6.7,99L-1408.2-91.9"/>
		<path class="st10" d="M-1408.2-91.9l-10.3-9.1l-8.6,16l-2.9-15.4l-14.2,3.1l-4-11l-6.7,6.7c0,0,20,20,26.7,25.5
			c6.7,5.5,27.3,3,27.3,3L-1408.2-91.9z"/>
		
			<linearGradient id="SVGID_7_" gradientUnits="userSpaceOnUse" x1="-1315.5538" y1="854.7714" x2="-1229.4735" y2="854.7714" gradientTransform="matrix(0.9906 -0.1366 -0.1366 -0.9906 63.8775 498.6882)">
			<stop  offset="0" style="stop-color:#E6E6E6"/>
			<stop  offset="1" style="stop-color:#FF9300"/>
		</linearGradient>
		<path class="st11" d="M-1344.3-154.6l6.1,2.8l-1.1-8.2l7.5,3.8l-1-7.9c0,0,6.2,2.3,7.2,1.8s2.9-7.1,2.9-7.1l4.4,2.2l1.7-5.4l5,4.7
			l2.4-5.5l4.3,0.9l1-6.2l8.7,3.6l2.2-7.2l6.1,4.4l0.1-9.2c0,0,8.2,7.2,8,6c-0.1-1.2-0.9-8.7-0.9-8.7s8.5,5.5,8.2,4.8
			c-0.3-0.7-3-12.1-3-12.1l-8.9-0.2l-71.5,37.6L-1344.3-154.6z"/>
		<path class="st12" d="M-1343.8-66.6c0,0-6.7,16.7-7.3,20.4c-0.6,3.6,9.3,5.3,10.2,7.9c0.9,2.6-6.4,1.2-6.4,1.2s-2.5,2.4-4.8,1.8
			c-1.5-0.4-8.3-0.9-12.9-1.3c-2.3-0.2-4-2.3-3.7-4.6l2.8-20.3C-1365.9-61.4-1345.2-76-1343.8-66.6z"/>
		<path class="st13" d="M-1368.1-46c0,0,9.1-7.5,14.6-9.3s3.9,4.2,3.9,4.2l5.8-15.7c0,0-19.7,3.1-20.2,3.7s-3.1,5.1-3.1,5.1
			L-1368.1-46z"/>
		<g>
			
				<linearGradient id="SVGID_8_" gradientUnits="userSpaceOnUse" x1="-1422.6549" y1="821.8043" x2="-1229.2073" y2="821.8043" gradientTransform="matrix(0.9906 -0.1366 -0.1366 -0.9906 63.8775 498.6882)">
				<stop  offset="0" style="stop-color:#FF3A2D"/>
				<stop  offset="1" style="stop-color:#D50000"/>
			</linearGradient>
			<path class="st14" d="M-1344.8-103.9c1.7,5.6,5.9,17.6,6.8,26.4c0.9,8.8-6.6,16.7-14.7,19.3s-12.6,3.3-19.9,5.6
				c-4.1,3.9-8.9,7.3-12.7,11.7c5.1,0.9,11.6,2,15,6.2c-1.6,1.7-3.4,2.8-5.6,3.1c-3.5,0.5-5.6,0.8-9.4,1.3
				c-2.6,0.3-6.9-0.3-10.7-0.6c-2.8-0.2-4.9-2.6-5-5.4c-0.1-5.1,0.4-9.7-0.1-15.3c-25.1-1.8-37.8-29.4-53.9-50
				c10.2-0.6,23.3,17.4,33.4,17c10.1-0.4,31.8-29,35.4-39.2s-8.8-26.3-13.5-40.4c-4.7-14.2-7.7-24.6,10-38.1s65.5-48,82.3-36.3
				c16.8,11.8,41.6,33.9,31.9,45.2c-9.6,11.3-72.3,27.4-74.2,47.4s4.4,12.1,12.5,9.4c7.4-2.4,29.2-11.4,34-6.5
				c4.8,4.9-12.7,8.4-27.8,11.8c-14.3,3.2-19.3,10.1-20.9,10.3c-1.6,0.2,3.9,6.8,4.8,9.6C-1346-108.7-1346.5-109.4-1344.8-103.9z"/>
		</g>
		<path class="st15" d="M-1345.7-36.8c0,0-0.6-4.1,1-4s4.6,1.9,5.2,3.1C-1339-36.5-1345.7-36.8-1345.7-36.8z"/>
		<path class="st15" d="M-1353-35.4c0,0-0.6-3.5,1.8-3.5s5.5,1.2,6.1,3S-1353-35.4-1353-35.4z"/>
		<path class="st15" d="M-1373.7-32.7c0,0-0.6-4.1,1-4s4.6,1.9,5.2,3.1C-1366.9-32.4-1373.7-32.7-1373.7-32.7z"/>
		<path class="st15" d="M-1380.9-31.3c0,0-0.6-3.5,1.8-3.5s5.5,1.2,6.1,3C-1372.4-30-1380.9-31.3-1380.9-31.3z"/>
		<path class="st13" d="M-1372.4-53c0,0-27.3,1.2-28.5,0.6c-1.2-0.6,0.4,10.9,0.2,13.3s4.7-3.6,13.8-6.6S-1372.4-53-1372.4-53z"/>
		<g>
			
				<linearGradient id="SVGID_9_" gradientUnits="userSpaceOnUse" x1="-1297.0879" y1="508.407" x2="-1194.0236" y2="508.407" gradientTransform="matrix(0.9932 -0.1162 -0.101 -0.8634 27.5201 130.0049)">
				<stop  offset="0.1522" style="stop-color:#FF3A2D"/>
				<stop  offset="0.1907" style="stop-color:#FF462A"/>
				<stop  offset="0.4015" style="stop-color:#FF811B"/>
				<stop  offset="0.5953" style="stop-color:#FFB00F"/>
				<stop  offset="0.7658" style="stop-color:#FFD207"/>
				<stop  offset="0.9065" style="stop-color:#FFE702"/>
				<stop  offset="1" style="stop-color:#FFEE00"/>
			</linearGradient>
			<path class="st16" d="M-1312.3-159.9c0-0.1,0-0.2,0.1-0.2c1.9-0.9,27.6-13.6,37-15.2c11.3-1.9,21-0.7,26.6-5.5
				c3.9-3.3,4.4-6.3,4.4-7.6c0-0.2,0.3-0.3,0.4-0.1c1.2,1.9,4.1,7.3,1.8,10.5c-2.1,2.9-4.6,5.3-6.1,6.5c-0.2,0.2,0,0.4,0.2,0.3
				c3-1.4,10.5-4.8,14.8-5.6c7.6-1.4,18.1,1.6,22.8,4.2c0.6,0.3,0.4,1.2-0.3,1.3c-3.4,0.3-10.2,1.4-13.7,5.3
				c-4.8,5.3-21.6,27-40.1,23.6C-1282.7-145.7-1312.1-154.4-1312.3-159.9z"/>
			
				<linearGradient id="SVGID_10_" gradientUnits="userSpaceOnUse" x1="-1291.6542" y1="503.4356" x2="-1225.712" y2="503.4356" gradientTransform="matrix(0.9932 -0.1162 -0.101 -0.8634 27.5201 130.0049)">
				<stop  offset="0.1522" style="stop-color:#FF5A19"/>
				<stop  offset="1" style="stop-color:#FFEE00"/>
			</linearGradient>
			<path class="st17" d="M-1306.7-158.7c0,0,30-12.5,42.3-8.4c12.3,4.1,13.7,10,20.7,8c11.3-3.3-8.6,10.3-20.6,8.6
				C-1276.3-152.3-1306.7-158.7-1306.7-158.7z"/>
			
				<linearGradient id="SVGID_11_" gradientUnits="userSpaceOnUse" x1="-1289.8604" y1="504.2111" x2="-1239.3624" y2="504.2111" gradientTransform="matrix(0.9932 -0.1162 -0.101 -0.8634 27.5201 130.0049)">
				<stop  offset="0.1522" style="stop-color:#FFB02A"/>
				<stop  offset="0.9393" style="stop-color:#FFEE00"/>
			</linearGradient>
			<path class="st18" d="M-1304.9-159.1c0,0,21.5-5.6,28.8-5.6c7.3-0.1,10.6,2.3,16.2,4.3c1.3,0.5,4.3,1,5.8,1.3
				c0.3,0,0.3,0.4,0.1,0.5c-2.1,1-8.4,3.9-14.4,4.9C-1275.9-152.4-1304.9-159.1-1304.9-159.1z"/>
		</g>
		<g>
			<path class="st19" d="M-1350.8-171.4c0,0-3.2-1.9-6.4-2.4s-8.1-0.6-8.1-0.6l1.7-0.9c0,0-0.7-0.2-1.5-1.1
				c-0.7-0.7-1.8-3.1-1.8-3.1s3.5,0.4,7.4,0.8c5.5,0.7,8.2,3.8,8.2,3.8h-1.1C-1352.4-174.8-1351-172.7-1350.8-171.4z"/>
			<path class="st20" d="M-1352.8-175.6c0,0-1.6-1.5-4.8-2.3c-3.2-0.8-7-0.9-7-0.9l2.7,1l-3.2-0.5c0,0,1.7,1,4.9,1.6
				c3.2,0.6,7.3,2.3,7.3,2.3l-0.8-1.4L-1352.8-175.6z"/>
		</g>
		<path class="st10" d="M-1351.7-112.6c0,0,0.8,0.3,5.4,0.6s6-7.3,9-8s1.1,5.9,1.6,6.6c0.4,0.7,1.5-4.1,1.5-4.1s0.1,4.3,0.8,3.9
			c0.7-0.4,1-5.4,1-5.4s1.2,8.3,2.1,2.5c1-5.8-3.4-7.7-6.1-8.6c-2.7-0.9-6.9,7.1-9.6,7.8c-2.6,0.6-6.7-2.8-6.7-2.8L-1351.7-112.6z"
			/>
		<g>
			<circle cx="-1357.1" cy="-166.3" r="4.2"/>
			<circle class="st0" cx="-1356.8" cy="-167.1" r="1.5"/>
			<circle class="st0" cx="-1358.4" cy="-164.6" r="0.7"/>
		</g>
		<path class="st10" d="M-1376.8-106.9c0,0,0.8,0.1,5.3-1s3.5-8.8,6.1-10.3c2.6-1.5,2.8,5.3,3.5,5.9c0.6,0.6,0.2-4.4,0.2-4.4
			s1.4,4.1,1.9,3.5c0.6-0.6-0.7-5.5-0.7-5.5s3.6,7.5,2.8,1.7s-5.5-6.3-8.4-6.3c-2.9,0-4.5,8.9-6.8,10.3c-2.3,1.4-7.3-0.6-7.3-0.6
			L-1376.8-106.9z"/>
		<g>
			<path class="st21" d="M-1310.5-200.4c3.2,6.1,7.8,10.1,10.2,8.8c2.5-1.3,1.9-7.3-1.3-13.4c-3.2-6.1-7.8-10.1-10.2-8.8
				C-1314.2-212.5-1313.6-206.5-1310.5-200.4z"/>
			<path class="st22" d="M-1311.4-199.8c3.2,6.1,7.8,10.1,10.2,8.8c2.5-1.3,1.9-7.3-1.3-13.4c-3.2-6.1-7.8-10.1-10.2-8.8
				C-1315.2-211.9-1314.6-205.9-1311.4-199.8z"/>
		</g>
		<g>
			<path class="st21" d="M-1294.7-213.3c2.5,4.7,6,7.8,7.9,6.8c1.9-1,1.5-5.7-1-10.4s-6-7.8-7.9-6.8
				C-1297.6-222.7-1297.2-218.1-1294.7-213.3z"/>
			<path class="st22" d="M-1295.5-212.8c2.5,4.7,6,7.8,7.9,6.8s1.5-5.7-1-10.4s-6-7.8-7.9-6.8
				C-1298.4-222.2-1297.9-217.6-1295.5-212.8z"/>
		</g>
		<g>
			<path class="st23" d="M-1309-219.5c0,0-4.8-2.5-8.6-0.4c-7.2,4-2.9,14.8-2.9,14.8s-2.3-6.3,4.9-12.2
				C-1311.9-220.1-1309-219.5-1309-219.5z"/>
			<path class="st24" d="M-1309-219.5c0,0-5.4,0.7-9.3,5.9s-1.2,11-1.2,11s-3.4-6,0.1-11.4C-1315.9-219.5-1309-219.5-1309-219.5z"/>
			<path class="st25" d="M-1310.9-217.9c0,0-5.8,3.5-6.8,8.9c-1,5.4,1.9,9.4,1.9,9.4s-4-3.6-3.5-9.5
				C-1318.7-215.2-1310.9-217.9-1310.9-217.9z"/>
		</g>
		<g>
			<path class="st23" d="M-1295.5-227c0,0-2.8-1.5-5.1-0.2c-4.3,2.4-1.7,8.8-1.7,8.8s-1.3-3.7,2.9-7.2
				C-1297.2-227.4-1295.5-227-1295.5-227z"/>
			<path class="st24" d="M-1295.5-227c0,0-3.2,0.4-5.5,3.5c-2.3,3.1-0.7,6.5-0.7,6.5s-2-3.6,0.1-6.8
				C-1299.6-227-1295.5-227-1295.5-227z"/>
			<path class="st25" d="M-1296.7-226c0,0-3.4,2-4,5.2s1.2,5.6,1.2,5.6s-2.4-2.2-2.1-5.6C-1301.2-224.4-1296.7-226-1296.7-226z"/>
		</g>
		<path class="st10" d="M-1389.4-202.4c0,0,11.5-10.3,32.2-19.4c19.7-8.7,29.7-9.1,29.7-9.1s-4.9-12.7,6.7-17.6
			c11.6-4.9-11.5-12.1-22.5,0c-6.9,7.7-10.3-6.7-10.3-6.7l-9.1,21.9l-12.1-3.6l-3.6,18.8l-13.4,1.2L-1389.4-202.4z"/>
	</g>
	<g>
		<g>
			<path class="st26" d="M-697.1-102.3c0,0-21.9-3.7-22.9,0.4c-0.7,2.9,23.4,2.8,23.4,2.8L-697.1-102.3z"/>
			<path class="st26" d="M-717.1-105.7c0,0-5.9-7.3-6.6-5.1s2.1,5.7,2.1,5.7s-8.1-3.6-9.1-2.4s7.9,4.1,7.4,4.2s-8.8-0.6-8.5,0.6
				c0.2,1.2,8.1,1.3,8.2,1.8c0.1,0.5-7.7,1.2-7.2,2.1c0.4,0.9,7.4,0.1,8.2,0.2c0.8,0.1-4.9,2.4-4.5,3.4c0.4,0.9,5.4-1.3,6.3-1.9
				c0.9-0.7,5-0.4,6.5-1.7s0.9-4.5,0-5.3C-715.2-105-717.1-105.7-717.1-105.7z"/>
		</g>
		<path class="st27" d="M-737.7-156.7c4.9,0,12.8,0.5,16.6-1.6c7.7-4.4-14.5-13.5-27.3-23.3s29.1-16.4,37.6-12.1
			c8.5,4.3,37.7,28.6,38.3,36.5c0.6,7.9-20.7,27.9-20.7,27.9l-14.6-3C-707.7-132.4-747.2-156.7-737.7-156.7z"/>
		
			<linearGradient id="SVGID_12_" gradientUnits="userSpaceOnUse" x1="-746.731" y1="660.7308" x2="-698.5132" y2="612.5131" gradientTransform="matrix(1 0 0 -1 0 460.6379)">
			<stop  offset="0" style="stop-color:#FFC76D"/>
			<stop  offset="1" style="stop-color:#E8E3E0"/>
		</linearGradient>
		<path class="st28" d="M-758.7-188.1c0,0-1.5,4.1,0.6,4.6c2.1,0.5,4.3-1.1,4.3-1.1s-1.1,8.6,1.6,7.5c2.7-1.1,4.8-2.6,4.8-2.6
			s-1,5.9,1.6,6.4c2.7,0.5,5.4-2.8,5.4-2.8s0,7.1,2.6,7.1c2.6,0,5.7-3.2,5.7-3.2s-2.5,5.3,1.8,5.9c4.3,0.5,5.4-1.6,5.4-1.6
			s0.5,4.4,3.2,4.8c3.7,0.5,5.1-1.9,5.1-1.9s3,4,4,3.5c1.1-0.5,5.9-2.7,5.9-2.7s-0.5,3.7,2.1,3.7c2.6,0,7-3.7,7-3.7s0,3.7,2.1,3.2
			c2.1-0.5,3.7-3.7,3.7-3.7s1.1,2.7,3.2,2.1c2.1-0.5,4.3-4.3,4.3-4.3L-758.7-188.1z"/>
		
			<linearGradient id="SVGID_13_" gradientUnits="userSpaceOnUse" x1="-781.2724" y1="479.2993" x2="-721.9877" y2="473.1239" gradientTransform="matrix(0.9996 2.982325e-02 2.982325e-02 -0.9996 26.5149 351.5546)">
			<stop  offset="0" style="stop-color:#FFC76D"/>
			<stop  offset="1" style="stop-color:#E8E3E0"/>
		</linearGradient>
		<path class="st29" d="M-681-143.9c0,0-3.2-7.5-6.4-5.4c-2.9,1.9-1.6,4.3-1.6,4.3s-1.6-3.7-3.7-2.1c-2.1,1.6-2.1,4.3-2.1,4.3
			s-1-5.3-3.7-3.2s-2.8,5.1-2.8,5.1s0.2-5.6-2.5-4.6s-2.2,2.8-2.2,2.8s-0.4-4.4-3.1-3.4s-3.3,2.1-3.3,2.1s-0.9-5.2-3.1-3.2
			c-2.2,2.1-2.7,2.5-2.7,2.5s0.6-5.1-2.1-4.6s-3.7,1.7-3.7,1.7s1.6-3.8-1.6-3.9c-3.2-0.1-3,1.9-3,1.9s0.4-6.1-2.3-4.1
			c-2.7,2.1-3,2.3-3,2.3s4.3-8.3,0.9-8.2c-3.4,0.1-3.8,5.4-3.8,5.4s1.6-7.5-0.5-7c-2.1,0.5-1.2,5.4-1.2,5.4s10.9,10.6,11.9,11.2
			c1,0.6,41.4,12,41.4,12L-681-143.9z"/>
		<g>
			<path class="st30" d="M-699.7-63.8c0,0,6.7,16.7,7.4,20.4c0.6,3.6-9.3,5.4-10.2,8s6.4,1.1,6.4,1.1s2.5,2.4,4.8,1.8
				c1.5-0.4,8.3-1,12.9-1.3c2.3-0.2,4-2.3,3.7-4.6l-2.8-20.2C-677.6-58.7-698.4-73.2-699.7-63.8z"/>
			<path class="st31" d="M-675.4-43.3c0,0-9.1-7.5-14.6-9.3s-3.9,4.2-3.9,4.2l-5.8-15.7c0,0,19.7,3,20.2,3.6s3.1,5.1,3.1,5.1
				L-675.4-43.3z"/>
			<path class="st15" d="M-697.7-34c0,0,0.6-4.1-1-4c-1.6,0.1-4.6,1.9-5.2,3.1C-704.5-33.7-697.7-34-697.7-34z"/>
			<path class="st15" d="M-690.5-32.7c0,0,0.6-3.5-1.9-3.5c-2.4,0-5.5,1.2-6.1,3C-699.1-31.4-690.5-32.7-690.5-32.7z"/>
		</g>
		<path class="st32" d="M-648.3-85.5c0,0,9.1-22.2,6.4-23.6c-2.7-1.3-10.9-7.2-9.6-10.2c1.2-3,23.5-11.5,20.9-12.8
			c-2.7-1.3-9.6-16.6-9.6-16.6s23.3-5.9,21.6-7.1s-11.5-10.2-11.5-10.2l13.4-12.9L-630-185c0,0-4.4-13,0.9-16.8
			c5.4-3.7-24.6,1.1-24.6,1.1l-28.4,98"/>
		<path class="st32" d="M-650.5-87.7l17.1-13.3l8.6,12.3l2.9-11.6l13.7,2l4.6-9.9l6.7,6.7c0,0-20,20-26.7,25.5s-27.3,3-27.3,3
			L-650.5-87.7z"/>
		
			<linearGradient id="SVGID_14_" gradientUnits="userSpaceOnUse" x1="-760.1853" y1="594.9866" x2="-596.9853" y2="594.9866" gradientTransform="matrix(1 0 0 -1 0 460.6379)">
			<stop  offset="0" style="stop-color:#6BC62A"/>
			<stop  offset="1" style="stop-color:#00B53E"/>
		</linearGradient>
		<path class="st33" d="M-630.3-84.6c-31.9-3.1-29.2-27.7-20.1-43.2c0.1-0.1,0.1-0.2,0-0.3c12.8-13.2,26.4-39.3,23.1-48.9
			c-4.3-12.3-76.6-66.1-99.6-61.3s-33.3,48.5-33.3,48.5c4,15.2,49,32.2,68.8,26.5c7.7-2.3,13.5-3.7,16.9,2.9c1.8,3.5,0,8.1-18.2,15
			c-15.5,5.9-39.4-4.5-43.4-10.7c-3.4-5.4-12.9,2.5-3.8,10.1c6,5,20.4,13.9,43.8,20.4c-2.2,3.3-5.1,8.3-5.8,10.2
			c-1,2.8-4.1,8.9-5.9,14.5c-1.7,5.6-5.5,12.6-6.4,21.4c-0.9,8.8,6.9,18.9,14.9,21.5s12.6,3.3,19.9,5.6c4.1,3.9,8.9,7.3,12.7,11.7
			c-5.1,0.9-11.6,2-15,6.2c1.6,1.7,3.4,2.8,5.6,3.1c3.5,0.5,5.6,0.8,9.4,1.3c2.6,0.3,6.9-0.3,10.7-0.6c2.8-0.2,4.9-2.6,5-5.4
			c0.1-5.1-0.4-9.7,0.1-15.3c25.1-1.8,37.8-29.4,53.9-50C-607.1-102.2-620.3-83.6-630.3-84.6z"/>
		<g>
			<path class="st2" d="M-729.7-115.7c0,0-13.3-8.3-4.1-22.6C-733.7-138.4-722.2-131.5-729.7-115.7z"/>
			<path class="st2" d="M-731.7-113.7c0,0-5.8,14.9-21.5,8.3C-753.3-105.4-748.6-118.4-731.7-113.7z"/>
			<path class="st2" d="M-738.3-119.4c0,0-15.6,3.7-19.1-13C-757.4-132.4-744.1-135.9-738.3-119.4z"/>
			<g>
				<path class="st2" d="M-740.4-120.1c0-0.1,7.6,1.7,10.7,4.4c3.1,2.7,6.3,6.1,7.8,8.5s2.1,5,2.2,6.8c0.1,1.8-0.2,3-0.3,2.9
					c-0.1,0-0.1-1.1-0.4-2.9c-0.3-1.7-3.9-4.5-5.3-6.7C-727-109.4-740.4-120-740.4-120.1z"/>
			</g>
		</g>
		<path class="st15" d="M-678.2-32.7c0,0,0.6-4.1-1-4c-1.6,0.1-4.6,1.9-5.2,3.1C-684.9-32.4-678.2-32.7-678.2-32.7z"/>
		<path class="st15" d="M-671-31.3c0,0,0.6-3.5-1.8-3.5c-2.4,0-5.5,1.2-6.1,3C-679.5-30-671-31.3-671-31.3z"/>
		<path class="st31" d="M-679.4-52.3c0,0,28.4-0.8,28.4,0.5c0,1.1-0.2,10.9,0,13.4s-4.8-4.2-13.9-7.3
			C-674-48.8-679.4-52.3-679.4-52.3z"/>
		<g>
			<g>
				<path class="st34" d="M-726.4-194c-3.2,6.1-7.8,10.1-10.2,8.8c-2.5-1.3-1.9-7.3,1.3-13.4c3.2-6.1,7.8-10.1,10.2-8.8
					C-722.7-206.1-723.2-200.1-726.4-194z"/>
				<path class="st27" d="M-725.5-193.3c-3.2,6.1-7.8,10.1-10.2,8.8c-2.5-1.3-1.9-7.3,1.3-13.4c3.2-6.1,7.8-10.1,10.2-8.8
					C-721.7-205.5-722.3-199.5-725.5-193.3z"/>
			</g>
			<g>
				<path class="st34" d="M-742.2-206.9c-2.5,4.7-6,7.8-7.9,6.8c-1.9-1-1.5-5.7,1-10.4s6-7.8,7.9-6.8
					C-739.2-216.3-739.7-211.6-742.2-206.9z"/>
				<path class="st27" d="M-741.4-206.4c-2.5,4.7-6,7.8-7.9,6.8c-1.9-1-1.5-5.7,1-10.4s6-7.8,7.9-6.8
					C-738.5-215.8-738.9-211.2-741.4-206.4z"/>
			</g>
			<g>
				<path class="st35" d="M-727.9-213.1c0,0,4.8-2.5,8.6-0.4c7.2,4,2.9,14.8,2.9,14.8s2.3-6.3-4.9-12.2
					C-724.9-213.7-727.9-213.1-727.9-213.1z"/>
				<path class="st32" d="M-727.9-213.1c0,0,5.4,0.7,9.3,5.9c3.9,5.2,1.2,11,1.2,11s3.4-6-0.1-11.4
					C-720.9-213.1-727.9-213.1-727.9-213.1z"/>
				<path class="st25" d="M-725.9-211.4c0,0,5.8,3.5,6.8,8.9c1,5.4-1.9,9.4-1.9,9.4s4-3.6,3.5-9.5
					C-718.2-208.8-725.9-211.4-725.9-211.4z"/>
			</g>
			<g>
				<path class="st35" d="M-741.4-220.6c0,0,2.8-1.5,5.1-0.2c4.3,2.4,1.7,8.8,1.7,8.8s1.3-3.7-2.9-7.2
					C-739.6-221-741.4-220.6-741.4-220.6z"/>
				<path class="st32" d="M-741.4-220.6c0,0,3.2,0.4,5.5,3.5c2.3,3.1,0.7,6.5,0.7,6.5s2-3.6-0.1-6.8
					C-737.3-220.6-741.4-220.6-741.4-220.6z"/>
				<path class="st25" d="M-740.2-219.6c0,0,3.4,2,4,5.2c0.6,3.2-1.2,5.6-1.2,5.6s2.4-2.2,2.1-5.6
					C-735.6-218-740.2-219.6-740.2-219.6z"/>
			</g>
		</g>
		<g>
			<g>
				<path class="st32" d="M-660.4-180.4c0,0,2.2,2.9,3,6.1s1.4,8,1.4,8l0.7-1.8c0,0,0.3,0.6,1.2,1.4c0.8,0.6,3.2,1.4,3.2,1.4
					s-0.7-3.4-1.6-7.3c-1.2-5.4-4.6-7.8-4.6-7.8l0.1,1.1C-656.9-179.2-659.1-180.3-660.4-180.4z"/>
				<path class="st30" d="M-656-178.9c0,0,1.7,1.5,2.8,4.6c1.1,3.1,1.6,6.9,1.6,6.9l-1.3-2.5l0.8,3.1c0,0-1.2-1.6-2.1-4.7
					c-0.9-3.2-3-7-3-7l1.5,0.7L-656-178.9z"/>
			</g>
			<path class="st36" d="M-666.2-173.4c0,0,7.6-0.9,5.3,6"/>
		</g>
		<g>
			<path class="st37" d="M-697.5-106c-4.2-0.3-22.5,2.5-22.2,6.7c0.2,2.9,23.2-4.4,23.2-4.4S-693.3-105.7-697.5-106z"/>
			<path class="st37" d="M-718.1-103.8c0,0-7.9-5.2-7.8-2.9c0.1,2.2,3.7,4.8,3.7,4.8s-8.8-1-9.4,0.5c-0.6,1.5,8.8,1.6,8.3,1.8
				c-0.4,0.2-8.6,2-8,3.1c0.6,1.1,8.1-1.2,8.4-0.8c0.2,0.4-7,3.4-6.3,4.2s7.1-2.1,7.9-2.2c0.8-0.1-4,3.7-3.2,4.6
				c0.7,0.8,4.7-2.8,5.4-3.7c0.7-0.9,4.6-1.9,5.7-3.6c1.1-1.7-0.5-4.6-1.6-5.1C-716.1-103.6-718.1-103.8-718.1-103.8z"/>
		</g>
		<path class="st32" d="M-649.4-199c0,0-12.3-10.5-33-19.6c-19.7-8.7-33.4-12-33.4-12s0.1-19.7,18.7-24.1c9.1-2.1,24.5,3.8,22,4.8
			c-10.7,4.3-11.4,22.4-2.1,15c8-6.4,20.9,1.1,20.9,1.1s-13.1,8.2-8.6,9.1c5.4,1.1,18.6-2.5,15,1.6c-4.3,4.8-9.6,8.6-9.6,8.6
			s24.1-4.8,19.8,1.1C-644-207.5-649.4-199-649.4-199z"/>
	</g>
	<g>
		<g>
			<circle class="st5" cx="-376.7" cy="-307.7" r="3.8"/>
		</g>
		<g>
			<path class="st5" d="M-369.4-328c-3.4-4.1-5.8-11.8-6.9-15.2c-0.1-0.5-0.8-0.5-1,0c-0.8,3-2.9,9.3-6.9,14.7
				c-3.7,5,0.4,12.3,7.3,12.3c0,0,0,0,0.1,0c0,0,0,0,0.1,0C-369.9-316.2-365.5-323.2-369.4-328z M-376-319.3
				c-3.4,0.6-6.2-2.3-5.7-5.7c0.3-2,2-3.7,4-4c3.4-0.6,6.2,2.3,5.7,5.7C-372.3-321.2-373.9-319.6-376-319.3z"/>
		</g>
		<path class="st5" d="M-376.7-319c-0.8,0-1.5,0.7-1.5,1.5v19.3h3v-19.3C-375.2-318.3-375.9-319-376.7-319z"/>
	</g>
	<g>
		<path class="st5" d="M-123.3-328.4h-217.6c-0.8,0-1.5-0.7-1.5-1.5s0.7-1.5,1.5-1.5h217.6c0.8,0,1.5,0.7,1.5,1.5
			S-122.5-328.4-123.3-328.4z"/>
	</g>
	<g>
		
			<linearGradient id="SVGID_15_" gradientUnits="userSpaceOnUse" x1="-1163.3855" y1="-386.2657" x2="-1090.8936" y2="-386.2657" gradientTransform="matrix(-3.274567e-02 -0.9994 -0.8688 2.845226e-02 -715.4868 -1273.1953)">
			<stop  offset="0.1522" style="stop-color:#FF3A2D"/>
			<stop  offset="0.1907" style="stop-color:#FF462A"/>
			<stop  offset="0.4015" style="stop-color:#FF811B"/>
			<stop  offset="0.5953" style="stop-color:#FFB00F"/>
			<stop  offset="0.7658" style="stop-color:#FFD207"/>
			<stop  offset="0.9065" style="stop-color:#FFE702"/>
			<stop  offset="1" style="stop-color:#FFEE00"/>
		</linearGradient>
		<path class="st38" d="M-344.7-121.4c-0.1,0-0.1,0-0.1-0.1c-0.6-1.4-13.5-16.4-13.1-27.9c0.4-12.1,2.8-27.1,3-29
			c0.3-3.5,4.5,11,5.3,12.1c0.1,0.1,0.3,0,0.3-0.1c-0.9-2.2-1.2-8.2-0.3-12.4c1-4.2,6.1-11.9,8.3-15c0.3-0.4,0.9-0.2,0.9,0.3
			c0,2.3,1,9.8,3.7,12.5c3.7,3.6,11.5,15.2,7.9,27.8C-332.4-140.8-340.5-121.1-344.7-121.4z"/>
		
			<linearGradient id="SVGID_16_" gradientUnits="userSpaceOnUse" x1="-1159.6328" y1="-388.0978" x2="-1111.1835" y2="-388.0978" gradientTransform="matrix(-3.274567e-02 -0.9994 -0.8688 2.845226e-02 -715.4868 -1273.1953)">
			<stop  offset="0.1522" style="stop-color:#FF5A19"/>
			<stop  offset="1" style="stop-color:#FFEE00"/>
		</linearGradient>
		<path class="st39" d="M-343.5-125.2c0,0-7.6-21.5-3.8-29.7c3.8-8.2,5.4-12.2,4.3-17.1c-1.8-8,10.8,14.4,8.9,22.6
			C-336.2-141.2-343.5-125.2-343.5-125.2z"/>
		
			<linearGradient id="SVGID_17_" gradientUnits="userSpaceOnUse" x1="-1158.3895" y1="-387.2738" x2="-1123.4537" y2="-387.2738" gradientTransform="matrix(-3.274567e-02 -0.9994 -0.8688 2.845226e-02 -715.4868 -1273.1953)">
			<stop  offset="0.1522" style="stop-color:#FFB02A"/>
			<stop  offset="0.9393" style="stop-color:#FFEE00"/>
		</linearGradient>
		<path class="st40" d="M-343.6-126.4c0,0-2.9-15.1-2.5-20.2c0.3-5,2.3-7.2,4.1-10.9c0.4-0.9,1-2.9,1.3-3.9c0.1-0.2,0.3-0.2,0.4,0
			c0.7,1.5,2.5,6,2.8,10.2C-337-146-343.6-126.4-343.6-126.4z"/>
	</g>
	<g>
		<linearGradient id="SVGID_18_" gradientUnits="userSpaceOnUse" x1="-389.5132" y1="-121.6945" x2="-295.5791" y2="-121.6945">
			<stop  offset="0" style="stop-color:#FF3A2D"/>
			<stop  offset="1" style="stop-color:#D50000"/>
		</linearGradient>
		<path class="st41" d="M-389.5-136.1c9.5,17.3,27,28.8,47,28.8c20,0,37.5-11.6,47-28.8H-389.5z"/>
		<polygon class="st4" points="-342.5,-244.4 -389.9,-136.1 -295.2,-136.1 		"/>
		<linearGradient id="SVGID_19_" gradientUnits="userSpaceOnUse" x1="-349.0736" y1="-244.9006" x2="-336.0187" y2="-244.9006">
			<stop  offset="0" style="stop-color:#FF3A2D"/>
			<stop  offset="1" style="stop-color:#D50000"/>
		</linearGradient>
		<circle class="st42" cx="-342.5" cy="-244.9" r="6.5"/>
	</g>
	<g>
		<path class="st2" d="M-225.6-153.8c0,0-4-20.3,18.1-24.4C-207.5-178.3-203.7-161-225.6-153.8z"/>
		<path class="st2" d="M-228.8-153.6c0,0-20.3,7.5-28.1-13.7C-256.9-167.3-239.6-174.1-228.8-153.6z"/>
		<path class="st2" d="M-230-165.5c0,0-17.7-11.7-4.8-30.1C-234.8-195.7-219.3-186-230-165.5z"/>
		<g>
			<path class="st2" d="M-231.1-168.2c0,0,0.4-2.1,1.3-0.4c1.6,3.1,4.1,11.2,4.2,14.7c0.2,5.4-0.1,11.6-1.1,15.2
				c-1,3.6-2.8,6.5-4.5,8.3c-1.6,1.8-3,2.5-3.1,2.4c-0.1-0.1,1-1.1,2.4-2.9c1.4-1.8-0.5,1.2,1.7-11.2
				C-228.4-152.6-231.2-168.1-231.1-168.2z"/>
		</g>
	</g>
	<g>
		<path class="st7" d="M-276.2-136.1c9.5,17.3,27,28.8,47,28.8s37.5-11.6,47-28.8H-276.2z"/>
		<polygon class="st4" points="-229.2,-244.4 -276.6,-136.1 -181.9,-136.1 		"/>
		<circle class="st2" cx="-229.2" cy="-244.9" r="6.5"/>
	</g>
	<g>
		<circle class="st0" cx="-336" cy="-302.8" r="12"/>
		<path class="st5" d="M-336-289.3c-7.4,0-13.5-6-13.5-13.5s6-13.5,13.5-13.5s13.5,6,13.5,13.5S-328.6-289.3-336-289.3z M-336-313.2
			c-5.8,0-10.5,4.7-10.5,10.5s4.7,10.5,10.5,10.5s10.5-4.7,10.5-10.5S-330.2-313.2-336-313.2z"/>
	</g>
	<g>
		<polygon class="st4" points="-342.9,-74.6 -390.2,33.7 -295.6,33.7 		"/>
		<linearGradient id="SVGID_20_" gradientUnits="userSpaceOnUse" x1="-349.4049" y1="-75.1235" x2="-336.3499" y2="-75.1235">
			<stop  offset="0" style="stop-color:#FF3A2D"/>
			<stop  offset="1" style="stop-color:#D50000"/>
		</linearGradient>
		<circle class="st43" cx="-342.9" cy="-75.1" r="6.5"/>
	</g>
	<g>
		<polygon class="st4" points="-229.2,-74.6 -276.6,33.7 -181.9,33.7 		"/>
		<circle class="st2" cx="-229.2" cy="-75.1" r="6.5"/>
	</g>
	<linearGradient id="SVGID_21_" gradientUnits="userSpaceOnUse" x1="-389.8445" y1="60.1401" x2="-295.9103" y2="60.1401">
		<stop  offset="0" style="stop-color:#FF3A2D"/>
		<stop  offset="1" style="stop-color:#D50000"/>
	</linearGradient>
	<path class="st44" d="M-389.8,45.7c9.5,17.3,27,28.8,47,28.8c20,0,37.5-11.6,47-28.8H-389.8z"/>
	<path class="st7" d="M-275.2,46.7c9.5,17.3,27,28.8,47,28.8s37.5-11.6,47-28.8H-275.2z"/>
	<g>
		<defs>
			<rect id="SVGID_22_" x="-1134.2" y="-139.1" width="30.1" height="56.3"/>
		</defs>
		<clipPath id="SVGID_23_">
			<use xlink:href="#SVGID_22_"  style="overflow:visible;"/>
		</clipPath>
		<g class="st45">
			
				<linearGradient id="SVGID_24_" gradientUnits="userSpaceOnUse" x1="-1192.8999" y1="508.3549" x2="-1120.408" y2="508.3549" gradientTransform="matrix(-3.274567e-02 -0.9994 -0.8688 2.845226e-02 -715.4868 -1273.1953)">
				<stop  offset="0.1522" style="stop-color:#FF3A2D"/>
				<stop  offset="0.1907" style="stop-color:#FF462A"/>
				<stop  offset="0.4015" style="stop-color:#FF811B"/>
				<stop  offset="0.5953" style="stop-color:#FFB00F"/>
				<stop  offset="0.7658" style="stop-color:#FFD207"/>
				<stop  offset="0.9065" style="stop-color:#FFE702"/>
				<stop  offset="1" style="stop-color:#FFEE00"/>
			</linearGradient>
			<path class="st46" d="M-1121-66.4c-0.1,0-0.1,0-0.1-0.1c-0.6-1.4-13.5-16.4-13.1-27.9c0.4-12.1,2.8-27.1,3-29
				c0.3-3.5,4.5,11,5.3,12.1c0.1,0.1,0.3,0,0.3-0.1c-0.9-2.2-1.2-8.2-0.3-12.4s6.1-11.9,8.3-15c0.3-0.4,0.9-0.2,0.9,0.3
				c0,2.3,1,9.8,3.7,12.5c3.7,3.6,11.5,15.2,7.9,27.8C-1108.7-85.9-1116.8-66.2-1121-66.4z"/>
			
				<linearGradient id="SVGID_25_" gradientUnits="userSpaceOnUse" x1="-1189.1473" y1="506.5228" x2="-1140.6979" y2="506.5228" gradientTransform="matrix(-3.274567e-02 -0.9994 -0.8688 2.845226e-02 -715.4868 -1273.1953)">
				<stop  offset="0.1522" style="stop-color:#FF5A19"/>
				<stop  offset="1" style="stop-color:#FFEE00"/>
			</linearGradient>
			<path class="st47" d="M-1119.8-70.2c0,0-7.6-21.5-3.8-29.7c3.8-8.2,5.4-12.2,4.3-17.1c-1.8-8,10.8,14.4,8.9,22.6
				C-1112.5-86.3-1119.8-70.2-1119.8-70.2z"/>
			
				<linearGradient id="SVGID_26_" gradientUnits="userSpaceOnUse" x1="-1187.9039" y1="507.3468" x2="-1152.9681" y2="507.3468" gradientTransform="matrix(-3.274567e-02 -0.9994 -0.8688 2.845226e-02 -715.4868 -1273.1953)">
				<stop  offset="0.1522" style="stop-color:#FFB02A"/>
				<stop  offset="0.9393" style="stop-color:#FFEE00"/>
			</linearGradient>
			<path class="st48" d="M-1119.9-71.4c0,0-2.9-15.1-2.5-20.2c0.3-5,2.3-7.2,4.1-10.9c0.4-0.9,1-2.9,1.3-3.9c0.1-0.2,0.3-0.2,0.4,0
				c0.7,1.5,2.5,6,2.8,10.2C-1113.3-91-1119.9-71.4-1119.9-71.4z"/>
		</g>
	</g>
	<g>
		<defs>
			<rect id="SVGID_27_" x="-389.5" y="90.9" width="30.1" height="56.3"/>
		</defs>
		<clipPath id="SVGID_28_">
			<use xlink:href="#SVGID_27_"  style="overflow:visible;"/>
		</clipPath>
		<g class="st49">
			
				<linearGradient id="SVGID_29_" gradientUnits="userSpaceOnUse" x1="-1447.1223" y1="-339.1927" x2="-1374.6305" y2="-339.1927" gradientTransform="matrix(-3.274567e-02 -0.9994 -0.8688 2.845226e-02 -715.4868 -1273.1953)">
				<stop  offset="0.1522" style="stop-color:#FF3A2D"/>
				<stop  offset="0.1907" style="stop-color:#FF462A"/>
				<stop  offset="0.4015" style="stop-color:#FF811B"/>
				<stop  offset="0.5953" style="stop-color:#FFB00F"/>
				<stop  offset="0.7658" style="stop-color:#FFD207"/>
				<stop  offset="0.9065" style="stop-color:#FFE702"/>
				<stop  offset="1" style="stop-color:#FFEE00"/>
			</linearGradient>
			<path class="st50" d="M-376.3,163.6c-0.1,0-0.1,0-0.1-0.1c-0.6-1.4-13.5-16.4-13.1-27.9c0.4-12.1,2.8-27.1,3-29
				c0.3-3.5,4.5,11,5.3,12.1c0.1,0.1,0.3,0,0.3-0.1c-0.9-2.2-1.2-8.2-0.3-12.4s6.1-11.9,8.3-15c0.3-0.4,0.9-0.2,0.9,0.3
				c0,2.3,1,9.8,3.7,12.5c3.7,3.6,11.5,15.2,7.9,27.8C-364,144.1-372.1,163.8-376.3,163.6z"/>
			
				<linearGradient id="SVGID_30_" gradientUnits="userSpaceOnUse" x1="-1443.3698" y1="-341.0247" x2="-1394.9204" y2="-341.0247" gradientTransform="matrix(-3.274567e-02 -0.9994 -0.8688 2.845226e-02 -715.4868 -1273.1953)">
				<stop  offset="0.1522" style="stop-color:#FF5A19"/>
				<stop  offset="1" style="stop-color:#FFEE00"/>
			</linearGradient>
			<path class="st51" d="M-375.1,159.8c0,0-7.6-21.5-3.8-29.7c3.8-8.2,5.4-12.2,4.3-17.1c-1.8-8,10.8,14.4,8.9,22.6
				C-367.8,143.7-375.1,159.8-375.1,159.8z"/>
			
				<linearGradient id="SVGID_31_" gradientUnits="userSpaceOnUse" x1="-1442.1263" y1="-340.2007" x2="-1407.1907" y2="-340.2007" gradientTransform="matrix(-3.274567e-02 -0.9994 -0.8688 2.845226e-02 -715.4868 -1273.1953)">
				<stop  offset="0.1522" style="stop-color:#FFB02A"/>
				<stop  offset="0.9393" style="stop-color:#FFEE00"/>
			</linearGradient>
			<path class="st52" d="M-375.2,158.5c0,0-2.9-15.1-2.5-20.2c0.3-5,2.3-7.2,4.1-10.9c0.4-0.9,1-2.9,1.3-3.9c0.1-0.2,0.3-0.2,0.4,0
				c0.7,1.5,2.5,6,2.8,10.2C-368.6,138.9-375.2,158.5-375.2,158.5z"/>
		</g>
	</g>
	<g>
		<g>
			
				<linearGradient id="SVGID_32_" gradientUnits="userSpaceOnUse" x1="-134.1391" y1="133.3935" x2="-31.0748" y2="133.3935" gradientTransform="matrix(0.9932 -0.1162 -0.101 -0.8634 27.5201 130.0049)">
				<stop  offset="0.1522" style="stop-color:#FF3A2D"/>
				<stop  offset="0.1907" style="stop-color:#FF462A"/>
				<stop  offset="0.4015" style="stop-color:#FF811B"/>
				<stop  offset="0.5953" style="stop-color:#FFB00F"/>
				<stop  offset="0.7658" style="stop-color:#FFD207"/>
				<stop  offset="0.9065" style="stop-color:#FFE702"/>
				<stop  offset="1" style="stop-color:#FFEE00"/>
			</linearGradient>
			<path class="st53" d="M-119.4,28.7c0-0.1,0-0.2,0.1-0.2c1.9-0.9,27.6-13.6,37-15.2c11.3-1.9,21-0.7,26.6-5.5
				c3.9-3.3,4.4-6.3,4.4-7.6c0-0.2,0.3-0.3,0.4-0.1c1.2,1.9,4.1,7.3,1.8,10.5c-2.1,2.9-4.6,5.3-6.1,6.5c-0.2,0.2,0,0.4,0.2,0.3
				c3-1.4,10.5-4.8,14.8-5.6c7.6-1.4,18.1,1.6,22.8,4.2c0.6,0.3,0.4,1.2-0.3,1.3c-3.4,0.3-10.2,1.4-13.7,5.3
				c-4.8,5.3-21.6,27-40.1,23.6C-89.8,42.9-119.2,34.3-119.4,28.7z"/>
			
				<linearGradient id="SVGID_33_" gradientUnits="userSpaceOnUse" x1="-128.7054" y1="128.4221" x2="-62.7633" y2="128.4221" gradientTransform="matrix(0.9932 -0.1162 -0.101 -0.8634 27.5201 130.0049)">
				<stop  offset="0.1522" style="stop-color:#FF5A19"/>
				<stop  offset="1" style="stop-color:#FFEE00"/>
			</linearGradient>
			<path class="st54" d="M-113.8,29.9c0,0,30-12.5,42.3-8.4s13.7,10,20.7,8c11.3-3.3-8.6,10.3-20.6,8.6
				C-83.4,36.3-113.8,29.9-113.8,29.9z"/>
			
				<linearGradient id="SVGID_34_" gradientUnits="userSpaceOnUse" x1="-126.9117" y1="129.1976" x2="-76.4137" y2="129.1976" gradientTransform="matrix(0.9932 -0.1162 -0.101 -0.8634 27.5201 130.0049)">
				<stop  offset="0.1522" style="stop-color:#FFB02A"/>
				<stop  offset="0.9393" style="stop-color:#FFEE00"/>
			</linearGradient>
			<path class="st55" d="M-112,29.6c0,0,21.5-5.6,28.8-5.6c7.3-0.1,10.6,2.3,16.2,4.3c1.3,0.5,4.3,1,5.8,1.3c0.3,0,0.3,0.4,0.1,0.5
				c-2.1,1-8.4,3.9-14.4,4.9C-83,36.2-112,29.6-112,29.6z"/>
		</g>
	</g>
	<g>
		<path class="st10" d="M30-135.5c0,0-0.2-1.8-9.7-1.8c-4.9,0-10.3-1.8-10.9-6.7c-1.1-8.8,9.7-19.4,22.5-29.1
			c12.8-9.7-29.1-16.4-37.6-12.1c-8.5,4.2-27.9,36.4-28.5,44.3c-0.6,7.9,10.9,20,10.9,20l14.6-3L30-135.5z"/>
		<path class="st10" d="M-75-84.5c-0.7-1.8-0.8-18.3,1.2-17.6s13,0.3,13,0.3s-15-17.2-12.4-18.5c2.7-1.3,23.9-1.3,22.7-4.4
			c-1.2-3-22.4-8.8-19.8-10.1c2.6-1.3,9.7-14.2,9.7-14.2s-18.6-1.4-16.9-2.6S-66-161.8-66-161.8l-13.4-12.9l13.3-6.1
			c0,0-7-15-5.2-15.2l26.7,2.2l6.7,99L-75-84.5"/>
		<path class="st10" d="M-75-84.5l-10.3-9.1l-8.6,16L-96.8-93l-14.2,3.1l-4-11l-6.7,6.7c0,0,20,20,26.7,25.5s27.3,3,27.3,3L-75-84.5
			z"/>
		
			<linearGradient id="SVGID_35_" gradientUnits="userSpaceOnUse" x1="4.1039" y1="665.2582" x2="90.1843" y2="665.2582" gradientTransform="matrix(0.9906 -0.1366 -0.1366 -0.9906 63.8775 498.6882)">
			<stop  offset="0" style="stop-color:#E6E6E6"/>
			<stop  offset="1" style="stop-color:#FF9300"/>
		</linearGradient>
		<path class="st56" d="M-11.1-147.2l6.1,2.8l-1.1-8.2l7.5,3.8l-1-7.9c0,0,6.2,2.3,7.2,1.8s2.9-7.1,2.9-7.1l4.4,2.2l1.7-5.4l5,4.7
			L24-166l4.3,0.9l1-6.2l8.7,3.6l2.2-7.2l6.1,4.4l0.1-9.2c0,0,8.2,7.2,8,6c-0.1-1.2-0.9-8.7-0.9-8.7s8.5,5.5,8.2,4.8
			c-0.3-0.7-3-12.1-3-12.1l-8.9-0.2l-71.5,37.6L-11.1-147.2z"/>
		<path class="st12" d="M-10.6-59.2c0,0-6.7,16.7-7.3,20.4c-0.6,3.6,9.3,5.3,10.2,7.9c0.9,2.6-6.4,1.2-6.4,1.2s-2.5,2.4-4.8,1.8
			c-1.5-0.4-8.3-0.9-12.9-1.3c-2.3-0.2-4-2.3-3.7-4.6l2.8-20.3C-32.7-54-12-68.6-10.6-59.2z"/>
		<path class="st13" d="M-34.9-38.6c0,0,9.1-7.5,14.6-9.3s3.9,4.2,3.9,4.2l5.8-15.7c0,0-19.7,3.1-20.2,3.7s-3.1,5.1-3.1,5.1
			L-34.9-38.6z"/>
		<g>
			
				<linearGradient id="SVGID_36_" gradientUnits="userSpaceOnUse" x1="-102.9972" y1="632.2911" x2="90.4505" y2="632.2911" gradientTransform="matrix(0.9906 -0.1366 -0.1366 -0.9906 63.8775 498.6882)">
				<stop  offset="0" style="stop-color:#FF3A2D"/>
				<stop  offset="1" style="stop-color:#D50000"/>
			</linearGradient>
			<path class="st57" d="M-11.6-96.5c1.7,5.6,5.9,17.6,6.8,26.4c0.9,8.8-6.6,16.7-14.7,19.3s-12.6,3.3-19.9,5.6
				c-4.1,3.9-8.9,7.3-12.7,11.7c5.1,0.9,11.6,2,15,6.2c-1.6,1.7-3.4,2.8-5.6,3.1c-3.5,0.5-5.6,0.8-9.4,1.3
				c-2.6,0.3-6.9-0.3-10.7-0.6c-2.8-0.2-4.9-2.6-5-5.4c-0.1-5.1,0.4-9.7-0.1-15.3c-25.1-1.8-37.8-29.4-53.9-50
				c10.2-0.6,23.3,17.4,33.4,17s31.8-29,35.4-39.2c3.6-10.2-8.8-26.3-13.5-40.4c-4.7-14.2-7.7-24.6,10-38.1s65.5-48,82.3-36.3
				c16.8,11.8,41.6,33.9,31.9,45.2c-9.6,11.3-72.3,27.4-74.2,47.4s4.4,12.1,12.5,9.4c7.4-2.4,29.2-11.4,34-6.5
				c4.8,4.9-12.7,8.4-27.8,11.8c-14.3,3.2-19.3,10.1-20.9,10.3c-1.6,0.2,3.9,6.8,4.8,9.6C-12.8-101.3-13.3-102-11.6-96.5z"/>
		</g>
		<path class="st15" d="M-12.5-29.4c0,0-0.6-4.1,1-4s4.6,1.9,5.2,3.1C-5.8-29.1-12.5-29.4-12.5-29.4z"/>
		<path class="st15" d="M-19.8-28c0,0-0.6-3.5,1.8-3.5s5.5,1.2,6.1,3S-19.8-28-19.8-28z"/>
		<path class="st15" d="M-40.5-25.3c0,0-0.6-4.1,1-4s4.6,1.9,5.2,3.1C-33.7-25-40.5-25.3-40.5-25.3z"/>
		<path class="st15" d="M-47.7-23.9c0,0-0.6-3.5,1.8-3.5c2.4,0,5.5,1.2,6.1,3C-39.2-22.6-47.7-23.9-47.7-23.9z"/>
		<path class="st13" d="M-39.2-45.6c0,0-27.3,1.2-28.5,0.6s0.4,10.9,0.2,13.3s4.7-3.6,13.8-6.6S-39.2-45.6-39.2-45.6z"/>
		<g>
			<path class="st19" d="M-17.6-164c0,0-3.2-1.9-6.4-2.4s-8.1-0.6-8.1-0.6l1.7-0.9c0,0-0.7-0.2-1.5-1.1c-0.7-0.7-1.8-3.1-1.8-3.1
				s3.5,0.4,7.4,0.8c5.5,0.7,8.2,3.8,8.2,3.8h-1.1C-19.2-167.4-17.8-165.3-17.6-164z"/>
			<path class="st20" d="M-19.6-168.2c0,0-1.6-1.5-4.8-2.3s-7-0.9-7-0.9l2.7,1l-3.2-0.5c0,0,1.7,1,4.9,1.6c3.2,0.6,7.3,2.3,7.3,2.3
				l-0.8-1.4L-19.6-168.2z"/>
		</g>
		<path class="st10" d="M-18.5-105.2c0,0,0.8,0.3,5.4,0.6c4.6,0.3,6-7.3,9-8s1.1,5.9,1.6,6.6c0.4,0.7,1.5-4.1,1.5-4.1
			s0.1,4.3,0.8,3.9s1-5.4,1-5.4s1.2,8.3,2.1,2.5c1-5.8-3.4-7.7-6.1-8.6s-6.9,7.1-9.6,7.8c-2.6,0.6-6.7-2.8-6.7-2.8L-18.5-105.2z"/>
		<g>
			<circle cx="-23.9" cy="-158.9" r="4.2"/>
			<circle class="st0" cx="-23.6" cy="-159.7" r="1.5"/>
			<circle class="st0" cx="-25.2" cy="-157.2" r="0.7"/>
		</g>
		<path class="st10" d="M-43.6-99.5c0,0,0.8,0.1,5.3-1s3.5-8.8,6.1-10.3s2.8,5.3,3.5,5.9c0.6,0.6,0.2-4.4,0.2-4.4s1.4,4.1,1.9,3.5
			c0.6-0.6-0.7-5.5-0.7-5.5s3.6,7.5,2.8,1.7s-5.5-6.3-8.4-6.3s-4.5,8.9-6.8,10.3c-2.3,1.4-7.3-0.6-7.3-0.6L-43.6-99.5z"/>
		<g>
			<path class="st21" d="M22.7-193c3.2,6.1,7.8,10.1,10.2,8.8c2.5-1.3,1.9-7.3-1.3-13.4c-3.2-6.1-7.8-10.1-10.2-8.8
				S19.6-199.1,22.7-193z"/>
			<path class="st22" d="M21.8-192.4c3.2,6.1,7.8,10.1,10.2,8.8c2.5-1.3,1.9-7.3-1.3-13.4c-3.2-6.1-7.8-10.1-10.2-8.8
				C18-204.5,18.6-198.5,21.8-192.4z"/>
		</g>
		<g>
			<path class="st21" d="M38.5-205.9c2.5,4.7,6,7.8,7.9,6.8s1.5-5.7-1-10.4s-6-7.8-7.9-6.8S36-210.7,38.5-205.9z"/>
			<path class="st22" d="M37.7-205.4c2.5,4.7,6,7.8,7.9,6.8s1.5-5.7-1-10.4s-6-7.8-7.9-6.8S35.3-210.2,37.7-205.4z"/>
		</g>
		<g>
			<path class="st23" d="M24.2-212.1c0,0-4.8-2.5-8.6-0.4c-7.2,4-2.9,14.8-2.9,14.8s-2.3-6.3,4.9-12.2
				C21.3-212.7,24.2-212.1,24.2-212.1z"/>
			<path class="st24" d="M24.2-212.1c0,0-5.4,0.7-9.3,5.9c-3.9,5.2-1.2,11-1.2,11s-3.4-6,0.1-11.4C17.3-212.1,24.2-212.1,24.2-212.1
				z"/>
			<path class="st25" d="M22.3-210.5c0,0-5.8,3.5-6.8,8.9c-1,5.4,1.9,9.4,1.9,9.4s-4-3.6-3.5-9.5C14.5-207.8,22.3-210.5,22.3-210.5z
				"/>
		</g>
		<g>
			<path class="st23" d="M37.7-219.6c0,0-2.8-1.5-5.1-0.2c-4.3,2.4-1.7,8.8-1.7,8.8s-1.3-3.7,2.9-7.2C36-220,37.7-219.6,37.7-219.6z
				"/>
			<path class="st24" d="M37.7-219.6c0,0-3.2,0.4-5.5,3.5c-2.3,3.1-0.7,6.5-0.7,6.5s-2-3.6,0.1-6.8
				C33.6-219.6,37.7-219.6,37.7-219.6z"/>
			<path class="st25" d="M36.5-218.6c0,0-3.4,2-4,5.2c-0.6,3.2,1.2,5.6,1.2,5.6s-2.4-2.2-2.1-5.6C32-217,36.5-218.6,36.5-218.6z"/>
		</g>
		<path class="st10" d="M-56.2-195c0,0,11.5-10.3,32.2-19.4c19.7-8.7,29.7-9.1,29.7-9.1s-4.9-12.7,6.7-17.6
			c11.6-4.9-11.5-12.1-22.5,0c-6.9,7.7-10.3-6.7-10.3-6.7l-9.1,21.9l-12.1-3.6l-3.6,18.8l-13.4,1.2L-56.2-195z"/>
	</g>
	<path class="st10" d="M3.4,16.4c0,0,0.8,0.1,5.3-1s3.5-8.8,6.1-10.3s2.8,5.3,3.5,5.9c0.6,0.6,0.2-4.4,0.2-4.4s1.4,4.1,1.9,3.5
		c0.6-0.6-0.7-5.5-0.7-5.5s3.6,7.5,2.8,1.7S17,0,14.1,0S9.6,8.9,7.3,10.3C5,11.7,0,9.7,0,9.7L3.4,16.4z"/>
	<g>
		<path class="st10" d="M231.4-135.5c0,0-0.2-1.8-9.7-1.8c-4.9,0-10.3-1.8-10.9-6.7c-1.1-8.8,9.7-19.4,22.5-29.1
			c12.8-9.7-29.1-16.4-37.6-12.1c-8.5,4.2-27.9,36.4-28.5,44.3c-0.6,7.9,10.9,20,10.9,20l14.6-3L231.4-135.5z"/>
		<path class="st10" d="M126.4-84.5c-0.7-1.8-0.8-18.3,1.2-17.6c2,0.7,13,0.3,13,0.3s-15-17.2-12.4-18.5c2.7-1.3,23.9-1.3,22.7-4.4
			c-1.2-3-22.4-8.8-19.8-10.1c2.6-1.3,9.7-14.2,9.7-14.2s-18.6-1.4-16.9-2.6s11.5-10.2,11.5-10.2L122-174.7l13.3-6.1
			c0,0-7-15-5.2-15.2l26.7,2.2l6.7,99L126.4-84.5"/>
		<path class="st10" d="M126.4-84.5l-10.3-9.1l-8.6,16L104.6-93l-14.2,3.1l-4-11l-6.7,6.7c0,0,20,20,26.7,25.5s27.3,3,27.3,3
			L126.4-84.5z"/>
		
			<linearGradient id="SVGID_37_" gradientUnits="userSpaceOnUse" x1="203.6515" y1="637.7414" x2="289.7318" y2="637.7414" gradientTransform="matrix(0.9906 -0.1366 -0.1366 -0.9906 63.8775 498.6882)">
			<stop  offset="0" style="stop-color:#E6E6E6"/>
			<stop  offset="1" style="stop-color:#FF9300"/>
		</linearGradient>
		<path class="st58" d="M190.3-147.2l6.1,2.8l-1.1-8.2l7.5,3.8l-1-7.9c0,0,6.2,2.3,7.2,1.8s2.9-7.1,2.9-7.1l4.4,2.2l1.7-5.4l5,4.7
			l2.4-5.5l4.3,0.9l1-6.2l8.7,3.6l2.2-7.2l6.1,4.4l0.1-9.2c0,0,8.2,7.2,8,6c-0.1-1.2-0.9-8.7-0.9-8.7s8.5,5.5,8.2,4.8
			c-0.3-0.7-3-12.1-3-12.1l-8.9-0.2l-71.5,37.6L190.3-147.2z"/>
		<path class="st12" d="M190.8-59.2c0,0-6.7,16.7-7.3,20.4c-0.6,3.6,9.3,5.3,10.2,7.9c0.9,2.6-6.4,1.2-6.4,1.2s-2.5,2.4-4.8,1.8
			c-1.5-0.4-8.3-0.9-12.9-1.3c-2.3-0.2-4-2.3-3.7-4.6l2.8-20.3C168.7-54,189.4-68.6,190.8-59.2z"/>
		<path class="st13" d="M166.5-38.6c0,0,9.1-7.5,14.6-9.3s3.9,4.2,3.9,4.2l5.8-15.7c0,0-19.7,3.1-20.2,3.7s-3.1,5.1-3.1,5.1
			L166.5-38.6z"/>
		<g>
			
				<linearGradient id="SVGID_38_" gradientUnits="userSpaceOnUse" x1="96.5504" y1="604.7742" x2="289.998" y2="604.7742" gradientTransform="matrix(0.9906 -0.1366 -0.1366 -0.9906 63.8775 498.6882)">
				<stop  offset="0" style="stop-color:#FF3A2D"/>
				<stop  offset="1" style="stop-color:#D50000"/>
			</linearGradient>
			<path class="st59" d="M189.8-96.5c1.7,5.6,5.9,17.6,6.8,26.4c0.9,8.8-6.6,16.7-14.7,19.3s-12.6,3.3-19.9,5.6
				c-4.1,3.9-8.9,7.3-12.7,11.7c5.1,0.9,11.6,2,15,6.2c-1.6,1.7-3.4,2.8-5.6,3.1c-3.5,0.5-5.6,0.8-9.4,1.3
				c-2.6,0.3-6.9-0.3-10.7-0.6c-2.8-0.2-4.9-2.6-5-5.4c-0.1-5.1,0.4-9.7-0.1-15.3c-25.1-1.8-37.8-29.4-53.9-50
				c10.2-0.6,23.3,17.4,33.4,17s31.8-29,35.4-39.2c3.6-10.2-8.8-26.3-13.5-40.4c-4.7-14.2-7.7-24.6,10-38.1
				c17.7-13.5,65.5-48,82.3-36.3c16.8,11.8,41.6,33.9,31.9,45.2c-9.6,11.3-72.3,27.4-74.2,47.4s4.4,12.1,12.5,9.4
				c7.4-2.4,29.2-11.4,34-6.5c4.8,4.9-12.7,8.4-27.8,11.8c-14.3,3.2-19.3,10.1-20.9,10.3c-1.6,0.2,3.9,6.8,4.8,9.6
				C188.6-101.3,188.1-102,189.8-96.5z"/>
		</g>
		<path class="st15" d="M188.9-29.4c0,0-0.6-4.1,1-4s4.6,1.9,5.2,3.1C195.6-29.1,188.9-29.4,188.9-29.4z"/>
		<path class="st15" d="M181.6-28c0,0-0.6-3.5,1.8-3.5s5.5,1.2,6.1,3S181.6-28,181.6-28z"/>
		<path class="st15" d="M160.9-25.3c0,0-0.6-4.1,1-4s4.6,1.9,5.2,3.1C167.7-25,160.9-25.3,160.9-25.3z"/>
		<path class="st15" d="M153.7-23.9c0,0-0.6-3.5,1.8-3.5c2.4,0,5.5,1.2,6.1,3C162.2-22.6,153.7-23.9,153.7-23.9z"/>
		<path class="st13" d="M162.2-45.6c0,0-27.3,1.2-28.5,0.6s0.4,10.9,0.2,13.3s4.7-3.6,13.8-6.6S162.2-45.6,162.2-45.6z"/>
		<g>
			
				<linearGradient id="SVGID_39_" gradientUnits="userSpaceOnUse" x1="226.2617" y1="294.7404" x2="329.326" y2="294.7404" gradientTransform="matrix(0.9932 -0.1162 -0.101 -0.8634 27.5201 130.0049)">
				<stop  offset="0.1522" style="stop-color:#FF3A2D"/>
				<stop  offset="0.1907" style="stop-color:#FF462A"/>
				<stop  offset="0.4015" style="stop-color:#FF811B"/>
				<stop  offset="0.5953" style="stop-color:#FFB00F"/>
				<stop  offset="0.7658" style="stop-color:#FFD207"/>
				<stop  offset="0.9065" style="stop-color:#FFE702"/>
				<stop  offset="1" style="stop-color:#FFEE00"/>
			</linearGradient>
			<path class="st60" d="M222.3-152.4c0-0.1,0-0.2,0.1-0.2c1.9-0.9,27.6-13.6,37-15.2c11.3-1.9,21-0.7,26.6-5.5
				c3.9-3.3,4.4-6.3,4.4-7.6c0-0.2,0.3-0.3,0.4-0.1c1.2,1.9,4.1,7.3,1.8,10.5c-2.1,2.9-4.6,5.3-6.1,6.5c-0.2,0.2,0,0.4,0.2,0.3
				c3-1.4,10.5-4.8,14.8-5.6c7.6-1.4,18.1,1.6,22.8,4.2c0.6,0.3,0.4,1.2-0.3,1.3c-3.4,0.3-10.2,1.4-13.7,5.3
				c-4.8,5.3-21.6,27-40.1,23.6C251.8-138.2,222.5-146.9,222.3-152.4z"/>
			
				<linearGradient id="SVGID_40_" gradientUnits="userSpaceOnUse" x1="231.6954" y1="289.769" x2="297.6375" y2="289.769" gradientTransform="matrix(0.9932 -0.1162 -0.101 -0.8634 27.5201 130.0049)">
				<stop  offset="0.1522" style="stop-color:#FF5A19"/>
				<stop  offset="1" style="stop-color:#FFEE00"/>
			</linearGradient>
			<path class="st61" d="M227.9-151.3c0,0,30-12.5,42.3-8.4c12.3,4.1,13.7,10,20.7,8c11.3-3.3-8.6,10.3-20.6,8.6
				C258.3-144.9,227.9-151.3,227.9-151.3z"/>
			
				<linearGradient id="SVGID_41_" gradientUnits="userSpaceOnUse" x1="233.4891" y1="290.5446" x2="283.9871" y2="290.5446" gradientTransform="matrix(0.9932 -0.1162 -0.101 -0.8634 27.5201 130.0049)">
				<stop  offset="0.1522" style="stop-color:#FFB02A"/>
				<stop  offset="0.9393" style="stop-color:#FFEE00"/>
			</linearGradient>
			<path class="st62" d="M229.6-151.6c0,0,21.5-5.6,28.8-5.6c7.3-0.1,10.6,2.3,16.2,4.3c1.3,0.5,4.3,1,5.8,1.3
				c0.3,0,0.3,0.4,0.1,0.5c-2.1,1-8.4,3.9-14.4,4.9C258.7-144.9,229.6-151.6,229.6-151.6z"/>
		</g>
		<g>
			<path class="st19" d="M183.8-164c0,0-3.2-1.9-6.4-2.4s-8.1-0.6-8.1-0.6l1.7-0.9c0,0-0.7-0.2-1.5-1.1c-0.7-0.7-1.8-3.1-1.8-3.1
				s3.5,0.4,7.4,0.8c5.5,0.7,8.2,3.8,8.2,3.8h-1.1C182.2-167.4,183.6-165.3,183.8-164z"/>
			<path class="st20" d="M181.8-168.2c0,0-1.6-1.5-4.8-2.3s-7-0.9-7-0.9l2.7,1l-3.2-0.5c0,0,1.7,1,4.9,1.6c3.2,0.6,7.3,2.3,7.3,2.3
				l-0.8-1.4L181.8-168.2z"/>
		</g>
		<path class="st10" d="M182.9-105.2c0,0,0.8,0.3,5.4,0.6c4.6,0.3,6-7.3,9-8s1.1,5.9,1.6,6.6c0.4,0.7,1.5-4.1,1.5-4.1
			s0.1,4.3,0.8,3.9s1-5.4,1-5.4s1.2,8.3,2.1,2.5c1-5.8-3.4-7.7-6.1-8.6s-6.9,7.1-9.6,7.8c-2.6,0.6-6.7-2.8-6.7-2.8L182.9-105.2z"/>
		<g>
			<circle cx="177.5" cy="-158.9" r="4.2"/>
			<circle class="st0" cx="177.8" cy="-159.7" r="1.5"/>
			<circle class="st0" cx="176.2" cy="-157.2" r="0.7"/>
		</g>
		<path class="st10" d="M157.8-99.5c0,0,0.8,0.1,5.3-1s3.5-8.8,6.1-10.3s2.8,5.3,3.5,5.9c0.6,0.6,0.2-4.4,0.2-4.4s1.4,4.1,1.9,3.5
			c0.6-0.6-0.7-5.5-0.7-5.5s3.6,7.5,2.8,1.7s-5.5-6.3-8.4-6.3s-4.5,8.9-6.8,10.3c-2.3,1.4-7.3-0.6-7.3-0.6L157.8-99.5z"/>
		<g>
			<path class="st21" d="M224.1-193c3.2,6.1,7.8,10.1,10.2,8.8c2.5-1.3,1.9-7.3-1.3-13.4c-3.2-6.1-7.8-10.1-10.2-8.8
				S221-199.1,224.1-193z"/>
			<path class="st22" d="M223.2-192.4c3.2,6.1,7.8,10.1,10.2,8.8c2.5-1.3,1.9-7.3-1.3-13.4c-3.2-6.1-7.8-10.1-10.2-8.8
				C219.4-204.5,220-198.5,223.2-192.4z"/>
		</g>
		<g>
			<path class="st21" d="M239.9-205.9c2.5,4.7,6,7.8,7.9,6.8s1.5-5.7-1-10.4s-6-7.8-7.9-6.8S237.4-210.7,239.9-205.9z"/>
			<path class="st22" d="M239.1-205.4c2.5,4.7,6,7.8,7.9,6.8s1.5-5.7-1-10.4s-6-7.8-7.9-6.8S236.7-210.2,239.1-205.4z"/>
		</g>
		<g>
			<path class="st23" d="M225.6-212.1c0,0-4.8-2.5-8.6-0.4c-7.2,4-2.9,14.8-2.9,14.8s-2.3-6.3,4.9-12.2
				C222.7-212.7,225.6-212.1,225.6-212.1z"/>
			<path class="st24" d="M225.6-212.1c0,0-5.4,0.7-9.3,5.9c-3.9,5.2-1.2,11-1.2,11s-3.4-6,0.1-11.4
				C218.7-212.1,225.6-212.1,225.6-212.1z"/>
			<path class="st25" d="M223.7-210.5c0,0-5.8,3.5-6.8,8.9c-1,5.4,1.9,9.4,1.9,9.4s-4-3.6-3.5-9.5
				C215.9-207.8,223.7-210.5,223.7-210.5z"/>
		</g>
		<g>
			<path class="st23" d="M239.1-219.6c0,0-2.8-1.5-5.1-0.2c-4.3,2.4-1.7,8.8-1.7,8.8s-1.3-3.7,2.9-7.2
				C237.4-220,239.1-219.6,239.1-219.6z"/>
			<path class="st24" d="M239.1-219.6c0,0-3.2,0.4-5.5,3.5c-2.3,3.1-0.7,6.5-0.7,6.5s-2-3.6,0.1-6.8
				C235-219.6,239.1-219.6,239.1-219.6z"/>
			<path class="st25" d="M237.9-218.6c0,0-3.4,2-4,5.2c-0.6,3.2,1.2,5.6,1.2,5.6s-2.4-2.2-2.1-5.6
				C233.4-217,237.9-218.6,237.9-218.6z"/>
		</g>
		<path class="st10" d="M145.2-195c0,0,11.5-10.3,32.2-19.4c19.7-8.7,29.7-9.1,29.7-9.1s-4.9-12.7,6.7-17.6
			c11.6-4.9-11.5-12.1-22.5,0c-6.9,7.7-10.3-6.7-10.3-6.7l-9.1,21.9l-12.1-3.6l-3.6,18.8l-13.4,1.2L145.2-195z"/>
	</g>
</g>
</svg>
