<?xml version="1.0" encoding="utf-8"?>
<!-- Generator: Adobe Illustrator 23.0.1, SVG Export Plug-In . SVG Version: 6.00 Build 0)  -->
<svg version="1.1" xmlns="http://www.w3.org/2000/svg" xmlns:xlink="http://www.w3.org/1999/xlink" x="0px" y="0px" width="37.7px"
	 height="40.8px" viewBox="0 0 37.7 40.8" style="enable-background:new 0 0 37.7 40.8;" xml:space="preserve">
<style type="text/css">
	.st0{fill:#FFFFFF;}
	.st1{clip-path:url(#SVGID_2_);}
	.st2{fill:#6BC62A;}
	.st3{clip-path:url(#SVGID_4_);}
	.st4{fill:none;stroke:#7A6356;stroke-width:3;stroke-linecap:round;stroke-linejoin:round;stroke-miterlimit:10;}
	.st5{fill:#7A6356;}
	.st6{fill:#FFFFFF;stroke:#7A6356;stroke-width:3;stroke-linecap:round;stroke-linejoin:round;stroke-miterlimit:10;}
	.st7{fill:#009380;}
	.st8{fill:url(#SVGID_5_);}
	.st9{fill:url(#SVGID_6_);}
	.st10{fill:#A60C17;}
	.st11{fill:url(#SVGID_7_);}
	.st12{fill:#E02229;}
	.st13{opacity:0.88;fill:#D50000;enable-background:new    ;}
	.st14{fill:url(#SVGID_8_);}
	.st15{fill:#491B02;}
	.st16{fill:url(#SVGID_9_);}
	.st17{fill:url(#SVGID_10_);}
	.st18{fill:url(#SVGID_11_);}
	.st19{fill:#680200;}
	.st20{fill:#A30B05;}
	.st21{fill:#FF5B56;}
	.st22{fill:#A40000;}
	.st23{opacity:0.5;fill:#D50000;enable-background:new    ;}
	.st24{fill:#6A1100;}
	.st25{opacity:0.43;fill:#FFFFFF;enable-background:new    ;}
	.st26{fill:#006325;}
	.st27{fill:#004B25;}
	.st28{fill:url(#SVGID_12_);}
	.st29{fill:url(#SVGID_13_);}
	.st30{fill:#00923D;}
	.st31{opacity:0.4;fill:#006830;enable-background:new    ;}
	.st32{fill:#006830;}
	.st33{fill:url(#SVGID_14_);}
	.st34{fill:#D6E000;}
	.st35{opacity:0.5;fill:#00923D;enable-background:new    ;}
	.st36{fill:none;stroke:#000000;stroke-width:2;stroke-linecap:round;stroke-linejoin:round;stroke-miterlimit:10;}
	.st37{fill:#00962B;}
	.st38{fill:url(#SVGID_15_);}
	.st39{fill:url(#SVGID_16_);}
	.st40{fill:url(#SVGID_17_);}
	.st41{fill:url(#SVGID_18_);}
	.st42{fill:url(#SVGID_19_);}
	.st43{fill:url(#SVGID_20_);}
	.st44{fill:url(#SVGID_21_);}
	.st45{clip-path:url(#SVGID_23_);}
	.st46{fill:url(#SVGID_24_);}
	.st47{fill:url(#SVGID_25_);}
	.st48{fill:url(#SVGID_26_);}
	.st49{clip-path:url(#SVGID_28_);}
	.st50{fill:url(#SVGID_29_);}
	.st51{fill:url(#SVGID_30_);}
	.st52{fill:url(#SVGID_31_);}
	.st53{fill:url(#SVGID_32_);}
	.st54{fill:url(#SVGID_33_);}
	.st55{fill:url(#SVGID_34_);}
	.st56{fill:url(#SVGID_35_);}
	.st57{fill:url(#SVGID_36_);}
	.st58{fill:url(#SVGID_37_);}
	.st59{fill:url(#SVGID_38_);}
	.st60{fill:url(#SVGID_39_);}
	.st61{fill:url(#SVGID_40_);}
	.st62{fill:url(#SVGID_41_);}
	.st63{fill:url(#SVGID_42_);}
	.st64{fill:url(#SVGID_43_);}
	.st65{fill:url(#SVGID_44_);}
	.st66{fill:url(#SVGID_45_);}
	.st67{fill:url(#SVGID_46_);}
	.st68{fill:url(#SVGID_47_);}
</style>
<g id="Layer_2">
	<rect x="-1833.9" y="-476" class="st0" width="1146.2" height="404.9"/>
</g>
<g id="green">
	<g>
		<defs>
			<rect id="SVGID_1_" x="-1172.2" y="-266.8" width="49.7" height="58"/>
		</defs>
		<clipPath id="SVGID_2_">
			<use xlink:href="#SVGID_1_"  style="overflow:visible;"/>
		</clipPath>
		<g class="st1">
			<path class="st2" d="M-1140.9-224.9c0,0-4-20.3,18.1-24.4C-1122.8-249.4-1118.9-232.1-1140.9-224.9z"/>
			<path class="st2" d="M-1144.1-224.7c0,0-20.3,7.5-28.1-13.7C-1172.2-238.4-1154.8-245.2-1144.1-224.7z"/>
			<path class="st2" d="M-1145.2-236.6c0,0-17.7-11.7-4.8-30.1C-1150-266.8-1134.5-257.1-1145.2-236.6z"/>
			<g>
				<path class="st2" d="M-1146.4-239.3c0,0,0.4-2.1,1.3-0.4c1.6,3.1,4.1,11.2,4.2,14.7c0.2,5.4-0.1,11.6-1.1,15.2
					c-1,3.6-2.8,6.5-4.5,8.3c-1.6,1.8-3,2.5-3.1,2.4c-0.1-0.1,1-1.1,2.4-2.9c1.4-1.8-0.5,1.2,1.7-11.2
					C-1143.6-223.7-1146.5-239.2-1146.4-239.3z"/>
			</g>
		</g>
	</g>
	<g>
		<defs>
			<rect id="SVGID_3_" x="-590.9" y="-34.1" width="49.7" height="58"/>
		</defs>
		<clipPath id="SVGID_4_">
			<use xlink:href="#SVGID_3_"  style="overflow:visible;"/>
		</clipPath>
		<g class="st3">
			<path class="st2" d="M-559.6,7.7c0,0-4-20.3,18.1-24.4C-541.5-16.8-537.6,0.6-559.6,7.7z"/>
			<path class="st2" d="M-562.8,7.9c0,0-20.3,7.5-28.1-13.7C-590.9-5.7-573.5-12.6-562.8,7.9z"/>
			<path class="st2" d="M-563.9-4c0,0-17.7-11.7-4.8-30.1C-568.7-34.1-553.2-24.5-563.9-4z"/>
			<g>
				<path class="st2" d="M-565.1-6.6c0,0,0.4-2.1,1.3-0.4c1.6,3.1,4.1,11.2,4.2,14.7c0.2,5.4-0.1,11.6-1.1,15.2
					c-1,3.6-2.8,6.5-4.5,8.3c-1.6,1.8-3,2.5-3.1,2.4c-0.1-0.1,1-1.1,2.4-2.9c1.4-1.8-0.5,1.2,1.7-11.2C-562.3,9-565.2-6.6-565.1-6.6
					z"/>
			</g>
		</g>
	</g>
</g>
<g id="fire">
</g>
<g id="Layer_1">
	<line class="st4" x1="-1361.2" y1="-317.1" x2="-1143.6" y2="-317.1"/>
	<circle class="st5" cx="-1252.4" cy="-340.5" r="3.8"/>
	<path class="st5" d="M-1245.1-360.8c-3.4-4.1-5.8-11.8-6.9-15.2c-0.1-0.5-0.8-0.5-1,0c-0.8,3-2.9,9.3-6.9,14.7
		c-3.7,5,0.4,12.3,7.3,12.3c0,0,0,0,0.1,0c0,0,0,0,0.1,0C-1245.6-349-1241.2-356-1245.1-360.8z M-1251.7-352
		c-3.4,0.6-6.2-2.3-5.7-5.7c0.3-2,2-3.7,4-4c3.4-0.6,6.2,2.3,5.7,5.7C-1248-354-1249.6-352.4-1251.7-352z"/>
	<line class="st4" x1="-1252.4" y1="-317.1" x2="-1252.4" y2="-350.3"/>
	<circle class="st6" cx="-1252.4" cy="-317.6" r="12"/>
	<g>
		<path class="st7" d="M-1191.5-207.2c9.5,17.3,27,28.8,47,28.8c20,0,37.5-11.6,47-28.8H-1191.5z"/>
		<polygon class="st4" points="-1144.5,-315.5 -1191.8,-207.2 -1097.2,-207.2 		"/>
		<circle class="st2" cx="-1144.5" cy="-316" r="6.5"/>
	</g>
	<g>
		<linearGradient id="SVGID_5_" gradientUnits="userSpaceOnUse" x1="-1407.2996" y1="-192.7958" x2="-1313.3655" y2="-192.7958">
			<stop  offset="0" style="stop-color:#FF3A2D"/>
			<stop  offset="1" style="stop-color:#D50000"/>
		</linearGradient>
		<path class="st8" d="M-1407.3-207.2c9.5,17.3,27,28.8,47,28.8c20,0,37.5-11.6,47-28.8H-1407.3z"/>
		<polygon class="st4" points="-1360.3,-315.5 -1407.7,-207.2 -1313,-207.2 		"/>
		<linearGradient id="SVGID_6_" gradientUnits="userSpaceOnUse" x1="-1366.86" y1="-316.0018" x2="-1353.8051" y2="-316.0018">
			<stop  offset="0" style="stop-color:#FF3A2D"/>
			<stop  offset="1" style="stop-color:#D50000"/>
		</linearGradient>
		<circle class="st9" cx="-1360.3" cy="-316" r="6.5"/>
	</g>
	<g>
		<path class="st10" d="M-1544.7-269c0,0-0.2-1.8-9.7-1.8c-4.9,0-10.3-1.8-10.9-6.7c-1.1-8.8,9.7-19.4,22.5-29.1
			c12.8-9.7-29.1-16.4-37.6-12.1c-8.5,4.2-27.9,36.4-28.5,44.3c-0.6,7.9,10.9,20,10.9,20l14.6-3L-1544.7-269z"/>
		<path class="st10" d="M-1649.7-218c-0.7-1.8-0.8-18.3,1.2-17.6s13,0.3,13,0.3s-15-17.2-12.4-18.5c2.7-1.3,23.9-1.3,22.7-4.4
			c-1.2-3-22.4-8.8-19.8-10.1c2.6-1.3,9.7-14.2,9.7-14.2s-18.6-1.4-16.9-2.6c1.7-1.2,11.5-10.2,11.5-10.2l-13.4-12.9l13.3-6.1
			c0,0-7-15-5.2-15.2l26.7,2.2l6.7,99L-1649.7-218"/>
		<path class="st10" d="M-1649.7-218l-10.3-9.1l-8.6,16l-2.9-15.4l-14.2,3.1l-4-11l-6.7,6.7c0,0,20,20,26.7,25.5
			c6.7,5.5,27.3,3,27.3,3L-1649.7-218z"/>
		
			<linearGradient id="SVGID_7_" gradientUnits="userSpaceOnUse" x1="-1557.0409" y1="728.7183" x2="-1470.9606" y2="728.7183" gradientTransform="matrix(0.9906 -0.1366 -0.1366 -0.9906 44.3887 214.7798)">
			<stop  offset="0" style="stop-color:#E6E6E6"/>
			<stop  offset="1" style="stop-color:#FF9300"/>
		</linearGradient>
		<path class="st11" d="M-1585.8-280.7l6.1,2.8l-1.1-8.2l7.5,3.8l-1-7.9c0,0,6.2,2.3,7.2,1.8s2.9-7.1,2.9-7.1l4.4,2.2l1.7-5.4l5,4.7
			l2.4-5.5l4.3,0.9l1-6.2l8.7,3.6l2.2-7.2l6.1,4.4l0.1-9.2c0,0,8.2,7.2,8,6c-0.1-1.2-0.9-8.7-0.9-8.7s8.5,5.5,8.2,4.8
			c-0.3-0.7-3-12.1-3-12.1l-8.9-0.2l-71.5,37.6L-1585.8-280.7z"/>
		<path class="st12" d="M-1585.3-192.7c0,0-6.7,16.7-7.3,20.4c-0.6,3.6,9.3,5.3,10.2,7.9c0.9,2.6-6.4,1.2-6.4,1.2s-2.5,2.4-4.8,1.8
			c-1.5-0.4-8.3-0.9-12.9-1.3c-2.3-0.2-4-2.3-3.7-4.6l2.8-20.3C-1607.4-187.5-1586.7-202.1-1585.3-192.7z"/>
		<path class="st13" d="M-1609.6-172.1c0,0,9.1-7.5,14.6-9.3s3.9,4.2,3.9,4.2l5.8-15.7c0,0-19.7,3.1-20.2,3.7s-3.1,5.1-3.1,5.1
			L-1609.6-172.1z"/>
		<g>
			
				<linearGradient id="SVGID_8_" gradientUnits="userSpaceOnUse" x1="-1664.142" y1="695.7512" x2="-1470.6943" y2="695.7512" gradientTransform="matrix(0.9906 -0.1366 -0.1366 -0.9906 44.3887 214.7798)">
				<stop  offset="0" style="stop-color:#FF3A2D"/>
				<stop  offset="1" style="stop-color:#D50000"/>
			</linearGradient>
			<path class="st14" d="M-1586.3-230c1.7,5.6,5.9,17.6,6.8,26.4c0.9,8.8-6.6,16.7-14.7,19.3s-12.6,3.3-19.9,5.6
				c-4.1,3.9-8.9,7.3-12.7,11.7c5.1,0.9,11.6,2,15,6.2c-1.6,1.7-3.4,2.8-5.6,3.1c-3.5,0.5-5.6,0.8-9.4,1.3
				c-2.6,0.3-6.9-0.3-10.7-0.6c-2.8-0.2-4.9-2.6-5-5.4c-0.1-5.1,0.4-9.7-0.1-15.3c-25.1-1.8-37.8-29.4-53.9-50
				c10.2-0.6,23.3,17.4,33.4,17c10.1-0.4,31.8-29,35.4-39.2s-8.8-26.3-13.5-40.4c-4.7-14.2-7.7-24.6,10-38.1s65.5-48,82.3-36.3
				c16.8,11.8,41.6,33.9,31.9,45.2c-9.6,11.3-72.3,27.4-74.2,47.4s4.4,12.1,12.5,9.4c7.4-2.4,29.2-11.4,34-6.5s-12.7,8.4-27.8,11.8
				c-14.3,3.2-19.3,10.1-20.9,10.3c-1.6,0.2,3.9,6.8,4.8,9.6C-1587.5-234.8-1588-235.5-1586.3-230z"/>
		</g>
		<path class="st15" d="M-1587.2-162.9c0,0-0.6-4.1,1-4s4.6,1.9,5.2,3.1C-1580.5-162.6-1587.2-162.9-1587.2-162.9z"/>
		<path class="st15" d="M-1594.5-161.5c0,0-0.6-3.5,1.8-3.5s5.5,1.2,6.1,3S-1594.5-161.5-1594.5-161.5z"/>
		<path class="st15" d="M-1615.2-158.8c0,0-0.6-4.1,1-4s4.6,1.9,5.2,3.1C-1608.4-158.5-1615.2-158.8-1615.2-158.8z"/>
		<path class="st15" d="M-1622.4-157.4c0,0-0.6-3.5,1.8-3.5s5.5,1.2,6.1,3C-1613.9-156.1-1622.4-157.4-1622.4-157.4z"/>
		<path class="st13" d="M-1613.9-179.1c0,0-27.3,1.2-28.5,0.6c-1.2-0.6,0.4,10.9,0.2,13.3s4.7-3.6,13.8-6.6
			S-1613.9-179.1-1613.9-179.1z"/>
		<g>
			
				<linearGradient id="SVGID_9_" gradientUnits="userSpaceOnUse" x1="-1538.575" y1="382.3539" x2="-1435.5106" y2="382.3539" gradientTransform="matrix(0.9932 -0.1162 -0.101 -0.8634 13.1466 -132.9433)">
				<stop  offset="0.1522" style="stop-color:#FF3A2D"/>
				<stop  offset="0.1907" style="stop-color:#FF462A"/>
				<stop  offset="0.4015" style="stop-color:#FF811B"/>
				<stop  offset="0.5953" style="stop-color:#FFB00F"/>
				<stop  offset="0.7658" style="stop-color:#FFD207"/>
				<stop  offset="0.9065" style="stop-color:#FFE702"/>
				<stop  offset="1" style="stop-color:#FFEE00"/>
			</linearGradient>
			<path class="st16" d="M-1553.8-286c0-0.1,0-0.2,0.1-0.2c1.9-0.9,27.6-13.6,37-15.2c11.3-1.9,21-0.7,26.6-5.5
				c3.9-3.3,4.4-6.3,4.4-7.6c0-0.2,0.3-0.3,0.4-0.1c1.2,1.9,4.1,7.3,1.8,10.5c-2.1,2.9-4.6,5.3-6.1,6.5c-0.2,0.2,0,0.4,0.2,0.3
				c3-1.4,10.5-4.8,14.8-5.6c7.6-1.4,18.1,1.6,22.8,4.2c0.6,0.3,0.4,1.2-0.3,1.3c-3.4,0.3-10.2,1.4-13.7,5.3
				c-4.8,5.3-21.6,27-40.1,23.6C-1524.2-271.8-1553.6-280.5-1553.8-286z"/>
			
				<linearGradient id="SVGID_10_" gradientUnits="userSpaceOnUse" x1="-1533.1412" y1="377.3825" x2="-1467.1991" y2="377.3825" gradientTransform="matrix(0.9932 -0.1162 -0.101 -0.8634 13.1466 -132.9433)">
				<stop  offset="0.1522" style="stop-color:#FF5A19"/>
				<stop  offset="1" style="stop-color:#FFEE00"/>
			</linearGradient>
			<path class="st17" d="M-1548.2-284.8c0,0,30-12.5,42.3-8.4c12.3,4.1,13.7,10,20.7,8c11.3-3.3-8.6,10.3-20.6,8.6
				C-1517.8-278.4-1548.2-284.8-1548.2-284.8z"/>
			
				<linearGradient id="SVGID_11_" gradientUnits="userSpaceOnUse" x1="-1531.3474" y1="378.158" x2="-1480.8495" y2="378.158" gradientTransform="matrix(0.9932 -0.1162 -0.101 -0.8634 13.1466 -132.9433)">
				<stop  offset="0.1522" style="stop-color:#FFB02A"/>
				<stop  offset="0.9393" style="stop-color:#FFEE00"/>
			</linearGradient>
			<path class="st18" d="M-1546.4-285.2c0,0,21.5-5.6,28.8-5.6c7.3-0.1,10.6,2.3,16.2,4.3c1.3,0.5,4.3,1,5.8,1.3
				c0.3,0,0.3,0.4,0.1,0.5c-2.1,1-8.4,3.9-14.4,4.9C-1517.4-278.5-1546.4-285.2-1546.4-285.2z"/>
		</g>
		<g>
			<path class="st19" d="M-1592.3-297.5c0,0-3.2-1.9-6.4-2.4s-8.1-0.6-8.1-0.6l1.7-0.9c0,0-0.7-0.2-1.5-1.1
				c-0.7-0.7-1.8-3.1-1.8-3.1s3.5,0.4,7.4,0.8c5.5,0.7,8.2,3.8,8.2,3.8h-1.1C-1593.9-300.9-1592.5-298.8-1592.3-297.5z"/>
			<path class="st20" d="M-1594.3-301.7c0,0-1.6-1.5-4.8-2.3c-3.2-0.8-7-0.9-7-0.9l2.7,1l-3.2-0.5c0,0,1.7,1,4.9,1.6
				s7.3,2.3,7.3,2.3l-0.8-1.4L-1594.3-301.7z"/>
		</g>
		<path class="st10" d="M-1593.2-238.7c0,0,0.8,0.3,5.4,0.6s6-7.3,9-8s1.1,5.9,1.6,6.6c0.4,0.7,1.5-4.1,1.5-4.1s0.1,4.3,0.8,3.9
			c0.7-0.4,1-5.4,1-5.4s1.2,8.3,2.1,2.5c1-5.8-3.4-7.7-6.1-8.6c-2.7-0.9-6.9,7.1-9.6,7.8c-2.6,0.6-6.7-2.8-6.7-2.8L-1593.2-238.7z"
			/>
		<g>
			<circle cx="-1598.6" cy="-292.4" r="4.2"/>
			<circle class="st0" cx="-1598.3" cy="-293.2" r="1.5"/>
			<circle class="st0" cx="-1599.9" cy="-290.7" r="0.7"/>
		</g>
		<path class="st10" d="M-1618.3-233c0,0,0.8,0.1,5.3-1s3.5-8.8,6.1-10.3c2.6-1.5,2.8,5.3,3.5,5.9c0.6,0.6,0.2-4.4,0.2-4.4
			s1.4,4.1,1.9,3.5c0.6-0.6-0.7-5.5-0.7-5.5s3.6,7.5,2.8,1.7s-5.5-6.3-8.4-6.3c-2.9,0-4.5,8.9-6.8,10.3c-2.3,1.4-7.3-0.6-7.3-0.6
			L-1618.3-233z"/>
		<g>
			<path class="st21" d="M-1552-326.5c3.2,6.1,7.8,10.1,10.2,8.8c2.5-1.3,1.9-7.3-1.3-13.4c-3.2-6.1-7.8-10.1-10.2-8.8
				C-1555.7-338.6-1555.1-332.6-1552-326.5z"/>
			<path class="st22" d="M-1552.9-325.9c3.2,6.1,7.8,10.1,10.2,8.8c2.5-1.3,1.9-7.3-1.3-13.4c-3.2-6.1-7.8-10.1-10.2-8.8
				C-1556.7-338-1556.1-332-1552.9-325.9z"/>
		</g>
		<g>
			<path class="st21" d="M-1536.2-339.4c2.5,4.7,6,7.8,7.9,6.8c1.9-1,1.5-5.7-1-10.4c-2.5-4.7-6-7.8-7.9-6.8
				S-1538.7-344.2-1536.2-339.4z"/>
			<path class="st22" d="M-1537-338.9c2.5,4.7,6,7.8,7.9,6.8s1.5-5.7-1-10.4c-2.5-4.7-6-7.8-7.9-6.8
				C-1539.9-348.3-1539.4-343.7-1537-338.9z"/>
		</g>
		<g>
			<path class="st23" d="M-1550.5-345.6c0,0-4.8-2.5-8.6-0.4c-7.2,4-2.9,14.8-2.9,14.8s-2.3-6.3,4.9-12.2
				C-1553.4-346.2-1550.5-345.6-1550.5-345.6z"/>
			<path class="st24" d="M-1550.5-345.6c0,0-5.4,0.7-9.3,5.9c-3.9,5.2-1.2,11-1.2,11s-3.4-6,0.1-11.4
				C-1557.4-345.6-1550.5-345.6-1550.5-345.6z"/>
			<path class="st25" d="M-1552.4-344c0,0-5.8,3.5-6.8,8.9c-1,5.4,1.9,9.4,1.9,9.4s-4-3.6-3.5-9.5
				C-1560.2-341.3-1552.4-344-1552.4-344z"/>
		</g>
		<g>
			<path class="st23" d="M-1537-353.1c0,0-2.8-1.5-5.1-0.2c-4.3,2.4-1.7,8.8-1.7,8.8s-1.3-3.7,2.9-7.2
				C-1538.7-353.5-1537-353.1-1537-353.1z"/>
			<path class="st24" d="M-1537-353.1c0,0-3.2,0.4-5.5,3.5c-2.3,3.1-0.7,6.5-0.7,6.5s-2-3.6,0.1-6.8
				C-1541.1-353.1-1537-353.1-1537-353.1z"/>
			<path class="st25" d="M-1538.2-352.1c0,0-3.4,2-4,5.2s1.2,5.6,1.2,5.6s-2.4-2.2-2.1-5.6C-1542.7-350.5-1538.2-352.1-1538.2-352.1
				z"/>
		</g>
		<path class="st10" d="M-1630.9-328.5c0,0,11.5-10.3,32.2-19.4c19.7-8.7,29.7-9.1,29.7-9.1s-4.9-12.7,6.7-17.6
			c11.6-4.9-11.5-12.1-22.5,0c-6.9,7.7-10.3-6.7-10.3-6.7l-9.1,21.9l-12.1-3.6l-3.6,18.8l-13.4,1.2L-1630.9-328.5z"/>
	</g>
	<g>
		<g>
			<path class="st26" d="M-938.6-228.4c0,0-21.9-3.7-22.9,0.4c-0.7,2.9,23.4,2.8,23.4,2.8L-938.6-228.4z"/>
			<path class="st26" d="M-958.6-231.8c0,0-5.9-7.3-6.6-5.1s2.1,5.7,2.1,5.7s-8.1-3.6-9.1-2.4s7.9,4.1,7.4,4.2s-8.8-0.6-8.5,0.6
				c0.2,1.2,8.1,1.3,8.2,1.8c0.1,0.5-7.7,1.2-7.2,2.1c0.4,0.9,7.4,0.1,8.2,0.2c0.8,0.1-4.9,2.4-4.5,3.4c0.4,0.9,5.4-1.3,6.3-1.9
				c0.9-0.7,5-0.4,6.5-1.7s0.9-4.5,0-5.3C-956.7-231.1-958.6-231.8-958.6-231.8z"/>
		</g>
		<path class="st27" d="M-979.2-282.8c4.9,0,12.8,0.5,16.6-1.6c7.7-4.4-14.5-13.5-27.3-23.3c-12.8-9.8,29.1-16.4,37.6-12.1
			s37.7,28.6,38.3,36.5c0.6,7.9-20.7,27.9-20.7,27.9l-14.6-3C-949.2-258.5-988.7-282.8-979.2-282.8z"/>
		
			<linearGradient id="SVGID_12_" gradientUnits="userSpaceOnUse" x1="-988.218" y1="534.6777" x2="-940.0003" y2="486.46" gradientTransform="matrix(1 0 0 -1 0 208.5318)">
			<stop  offset="0" style="stop-color:#FFC76D"/>
			<stop  offset="1" style="stop-color:#E8E3E0"/>
		</linearGradient>
		<path class="st28" d="M-1000.2-314.2c0,0-1.5,4.1,0.6,4.6c2.1,0.5,4.3-1.1,4.3-1.1s-1.1,8.6,1.6,7.5s4.8-2.6,4.8-2.6
			s-1,5.9,1.6,6.4c2.7,0.5,5.4-2.8,5.4-2.8s0,7.1,2.6,7.1c2.6,0,5.7-3.2,5.7-3.2s-2.5,5.3,1.8,5.9c4.3,0.5,5.4-1.6,5.4-1.6
			s0.5,4.4,3.2,4.8c3.7,0.5,5.1-1.9,5.1-1.9s3,4,4,3.5c1.1-0.5,5.9-2.7,5.9-2.7s-0.5,3.7,2.1,3.7c2.6,0,7-3.7,7-3.7s0,3.7,2.1,3.2
			c2.1-0.5,3.7-3.7,3.7-3.7s1.1,2.7,3.2,2.1c2.1-0.5,4.3-4.3,4.3-4.3L-1000.2-314.2z"/>
		
			<linearGradient id="SVGID_13_" gradientUnits="userSpaceOnUse" x1="-1022.7595" y1="353.2462" x2="-963.4748" y2="347.0708" gradientTransform="matrix(0.9996 2.982325e-02 2.982325e-02 -0.9996 30.1776 106.7008)">
			<stop  offset="0" style="stop-color:#FFC76D"/>
			<stop  offset="1" style="stop-color:#E8E3E0"/>
		</linearGradient>
		<path class="st29" d="M-922.5-270c0,0-3.2-7.5-6.4-5.4c-2.9,1.9-1.6,4.3-1.6,4.3s-1.6-3.7-3.7-2.1c-2.1,1.6-2.1,4.3-2.1,4.3
			s-1-5.3-3.7-3.2s-2.8,5.1-2.8,5.1s0.2-5.6-2.5-4.6s-2.2,2.8-2.2,2.8s-0.4-4.4-3.1-3.4s-3.3,2.1-3.3,2.1s-0.9-5.2-3.1-3.2
			c-2.2,2.1-2.7,2.5-2.7,2.5s0.6-5.1-2.1-4.6s-3.7,1.7-3.7,1.7s1.6-3.8-1.6-3.9s-3,1.9-3,1.9s0.4-6.1-2.3-4.1c-2.7,2.1-3,2.3-3,2.3
			s4.3-8.3,0.9-8.2c-3.4,0.1-3.8,5.4-3.8,5.4s1.6-7.5-0.5-7c-2.1,0.5-1.2,5.4-1.2,5.4s10.9,10.6,11.9,11.2c1,0.6,41.4,12,41.4,12
			L-922.5-270z"/>
		<g>
			<path class="st30" d="M-941.2-189.9c0,0,6.7,16.7,7.4,20.4c0.6,3.6-9.3,5.4-10.2,8s6.4,1.1,6.4,1.1s2.5,2.4,4.8,1.8
				c1.5-0.4,8.3-1,12.9-1.3c2.3-0.2,4-2.3,3.7-4.6l-2.8-20.2C-919.1-184.8-939.9-199.3-941.2-189.9z"/>
			<path class="st31" d="M-916.9-169.4c0,0-9.1-7.5-14.6-9.3s-3.9,4.2-3.9,4.2l-5.8-15.7c0,0,19.7,3,20.2,3.6s3.1,5.1,3.1,5.1
				L-916.9-169.4z"/>
			<path class="st15" d="M-939.2-160.1c0,0,0.6-4.1-1-4c-1.6,0.1-4.6,1.9-5.2,3.1C-946-159.8-939.2-160.1-939.2-160.1z"/>
			<path class="st15" d="M-932-158.8c0,0,0.6-3.5-1.9-3.5c-2.4,0-5.5,1.2-6.1,3C-940.6-157.5-932-158.8-932-158.8z"/>
		</g>
		<path class="st32" d="M-889.8-211.6c0,0,9.1-22.2,6.4-23.6c-2.7-1.3-10.9-7.2-9.6-10.2c1.2-3,23.5-11.5,20.9-12.8
			c-2.7-1.3-9.6-16.6-9.6-16.6s23.3-5.9,21.6-7.1c-1.7-1.2-11.5-10.2-11.5-10.2l13.4-12.9l-13.3-6.1c0,0-4.4-13,0.9-16.8
			c5.4-3.7-24.6,1.1-24.6,1.1l-28.4,98"/>
		<path class="st32" d="M-892-213.8l17.1-13.3l8.6,12.3l2.9-11.6l13.7,2l4.6-9.9l6.7,6.7c0,0-20,20-26.7,25.5s-27.3,3-27.3,3
			L-892-213.8z"/>
		
			<linearGradient id="SVGID_14_" gradientUnits="userSpaceOnUse" x1="-1001.6724" y1="468.9335" x2="-838.4724" y2="468.9335" gradientTransform="matrix(1 0 0 -1 0 208.5318)">
			<stop  offset="0" style="stop-color:#6BC62A"/>
			<stop  offset="1" style="stop-color:#00B53E"/>
		</linearGradient>
		<path class="st33" d="M-871.8-210.7c-31.9-3.1-29.2-27.7-20.1-43.2c0.1-0.1,0.1-0.2,0-0.3c12.8-13.2,26.4-39.3,23.1-48.9
			c-4.3-12.3-76.6-66.1-99.6-61.3s-33.3,48.5-33.3,48.5c4,15.2,49,32.2,68.8,26.5c7.7-2.3,13.5-3.7,16.9,2.9c1.8,3.5,0,8.1-18.2,15
			c-15.5,5.9-39.4-4.5-43.4-10.7c-3.4-5.4-12.9,2.5-3.8,10.1c6,5,20.4,13.9,43.8,20.4c-2.2,3.3-5.1,8.3-5.8,10.2
			c-1,2.8-4.1,8.9-5.9,14.5c-1.7,5.6-5.5,12.6-6.4,21.4c-0.9,8.8,6.9,18.9,14.9,21.5s12.6,3.3,19.9,5.6c4.1,3.9,8.9,7.3,12.7,11.7
			c-5.1,0.9-11.6,2-15,6.2c1.6,1.7,3.4,2.8,5.6,3.1c3.5,0.5,5.6,0.8,9.4,1.3c2.6,0.3,6.9-0.3,10.7-0.6c2.8-0.2,4.9-2.6,5-5.4
			c0.1-5.1-0.4-9.7,0.1-15.3c25.1-1.8,37.8-29.4,53.9-50C-848.6-228.3-861.8-209.7-871.8-210.7z"/>
		<g>
			<path class="st2" d="M-971.2-241.8c0,0-13.3-8.3-4.1-22.6C-975.2-264.5-963.7-257.6-971.2-241.8z"/>
			<path class="st2" d="M-973.2-239.8c0,0-5.8,14.9-21.5,8.3C-994.8-231.5-990.1-244.5-973.2-239.8z"/>
			<path class="st2" d="M-979.8-245.5c0,0-15.6,3.7-19.1-13C-998.9-258.5-985.6-262-979.8-245.5z"/>
			<g>
				<path class="st2" d="M-981.9-246.2c0-0.1,7.6,1.7,10.7,4.4c3.1,2.7,6.3,6.1,7.8,8.5s2.1,5,2.2,6.8c0.1,1.8-0.2,3-0.3,2.9
					c-0.1,0-0.1-1.1-0.4-2.9c-0.3-1.7-3.9-4.5-5.3-6.7C-968.5-235.5-981.9-246.1-981.9-246.2z"/>
			</g>
		</g>
		<path class="st15" d="M-919.7-158.8c0,0,0.6-4.1-1-4c-1.6,0.1-4.6,1.9-5.2,3.1C-926.4-158.5-919.7-158.8-919.7-158.8z"/>
		<path class="st15" d="M-912.5-157.4c0,0,0.6-3.5-1.8-3.5c-2.4,0-5.5,1.2-6.1,3C-921-156.1-912.5-157.4-912.5-157.4z"/>
		<path class="st31" d="M-920.9-178.4c0,0,28.4-0.8,28.4,0.5c0,1.1-0.2,10.9,0,13.4s-4.8-4.2-13.9-7.3
			C-915.5-174.9-920.9-178.4-920.9-178.4z"/>
		<g>
			<g>
				<path class="st34" d="M-967.9-320.1c-3.2,6.1-7.8,10.1-10.2,8.8c-2.5-1.3-1.9-7.3,1.3-13.4c3.2-6.1,7.8-10.1,10.2-8.8
					C-964.2-332.2-964.7-326.2-967.9-320.1z"/>
				<path class="st27" d="M-967-319.4c-3.2,6.1-7.8,10.1-10.2,8.8c-2.5-1.3-1.9-7.3,1.3-13.4c3.2-6.1,7.8-10.1,10.2-8.8
					C-963.2-331.6-963.8-325.6-967-319.4z"/>
			</g>
			<g>
				<path class="st34" d="M-983.7-333c-2.5,4.7-6,7.8-7.9,6.8c-1.9-1-1.5-5.7,1-10.4c2.5-4.7,6-7.8,7.9-6.8
					C-980.7-342.4-981.2-337.7-983.7-333z"/>
				<path class="st27" d="M-982.9-332.5c-2.5,4.7-6,7.8-7.9,6.8c-1.9-1-1.5-5.7,1-10.4c2.5-4.7,6-7.8,7.9-6.8
					C-980-341.9-980.4-337.3-982.9-332.5z"/>
			</g>
			<g>
				<path class="st35" d="M-969.4-339.2c0,0,4.8-2.5,8.6-0.4c7.2,4,2.9,14.8,2.9,14.8s2.3-6.3-4.9-12.2
					C-966.4-339.8-969.4-339.2-969.4-339.2z"/>
				<path class="st32" d="M-969.4-339.2c0,0,5.4,0.7,9.3,5.9c3.9,5.2,1.2,11,1.2,11s3.4-6-0.1-11.4
					C-962.4-339.2-969.4-339.2-969.4-339.2z"/>
				<path class="st25" d="M-967.4-337.5c0,0,5.8,3.5,6.8,8.9c1,5.4-1.9,9.4-1.9,9.4s4-3.6,3.5-9.5
					C-959.7-334.9-967.4-337.5-967.4-337.5z"/>
			</g>
			<g>
				<path class="st35" d="M-982.9-346.7c0,0,2.8-1.5,5.1-0.2c4.3,2.4,1.7,8.8,1.7,8.8s1.3-3.7-2.9-7.2
					C-981.1-347.1-982.9-346.7-982.9-346.7z"/>
				<path class="st32" d="M-982.9-346.7c0,0,3.2,0.4,5.5,3.5c2.3,3.1,0.7,6.5,0.7,6.5s2-3.6-0.1-6.8
					C-978.8-346.7-982.9-346.7-982.9-346.7z"/>
				<path class="st25" d="M-981.7-345.7c0,0,3.4,2,4,5.2c0.6,3.2-1.2,5.6-1.2,5.6s2.4-2.2,2.1-5.6
					C-977.1-344.1-981.7-345.7-981.7-345.7z"/>
			</g>
		</g>
		<g>
			<g>
				<path class="st32" d="M-901.9-306.5c0,0,2.2,2.9,3,6.1c0.8,3.2,1.4,8,1.4,8l0.7-1.8c0,0,0.3,0.6,1.2,1.4
					c0.8,0.6,3.2,1.4,3.2,1.4s-0.7-3.4-1.6-7.3c-1.2-5.4-4.6-7.8-4.6-7.8l0.1,1.1C-898.4-305.3-900.6-306.4-901.9-306.5z"/>
				<path class="st30" d="M-897.5-305c0,0,1.7,1.5,2.8,4.6s1.6,6.9,1.6,6.9l-1.3-2.5l0.8,3.1c0,0-1.2-1.6-2.1-4.7c-0.9-3.2-3-7-3-7
					l1.5,0.7L-897.5-305z"/>
			</g>
			<path class="st36" d="M-907.7-299.5c0,0,7.6-0.9,5.3,6"/>
		</g>
		<g>
			<path class="st37" d="M-939-232.1c-4.2-0.3-22.5,2.5-22.2,6.7c0.2,2.9,23.2-4.4,23.2-4.4S-934.8-231.8-939-232.1z"/>
			<path class="st37" d="M-959.6-229.9c0,0-7.9-5.2-7.8-2.9c0.1,2.2,3.7,4.8,3.7,4.8s-8.8-1-9.4,0.5c-0.6,1.5,8.8,1.6,8.3,1.8
				c-0.4,0.2-8.6,2-8,3.1c0.6,1.1,8.1-1.2,8.4-0.8c0.2,0.4-7,3.4-6.3,4.2s7.1-2.1,7.9-2.2c0.8-0.1-4,3.7-3.2,4.6
				c0.7,0.8,4.7-2.8,5.4-3.7c0.7-0.9,4.6-1.9,5.7-3.6c1.1-1.7-0.5-4.6-1.6-5.1C-957.6-229.7-959.6-229.9-959.6-229.9z"/>
		</g>
		<path class="st32" d="M-890.9-325.1c0,0-12.3-10.5-33-19.6c-19.7-8.7-33.4-12-33.4-12s0.1-19.7,18.7-24.1c9.1-2.1,24.5,3.8,22,4.8
			c-10.7,4.3-11.4,22.4-2.1,15c8-6.4,20.9,1.1,20.9,1.1s-13.1,8.2-8.6,9.1c5.4,1.1,18.6-2.5,15,1.6c-4.3,4.8-9.6,8.6-9.6,8.6
			s24.1-4.8,19.8,1.1C-885.5-333.6-890.9-325.1-890.9-325.1z"/>
	</g>
	<g>
		<g>
			<circle class="st5" cx="-618.2" cy="-433.8" r="3.8"/>
		</g>
		<g>
			<path class="st5" d="M-610.9-454.1c-3.4-4.1-5.8-11.8-6.9-15.2c-0.1-0.5-0.8-0.5-1,0c-0.8,3-2.9,9.3-6.9,14.7
				c-3.7,5,0.4,12.3,7.3,12.3c0,0,0,0,0.1,0c0,0,0,0,0.1,0C-611.4-442.3-607-449.3-610.9-454.1z M-617.5-445.3
				c-3.4,0.6-6.2-2.3-5.7-5.7c0.3-2,2-3.7,4-4c3.4-0.6,6.2,2.3,5.7,5.7C-613.8-447.3-615.4-445.6-617.5-445.3z"/>
		</g>
		<path class="st5" d="M-618.2-445c-0.8,0-1.5,0.7-1.5,1.5v19.3h3v-19.3C-616.7-444.4-617.4-445-618.2-445z"/>
	</g>
	<g>
		<path class="st5" d="M-364.8-454.5h-217.6c-0.8,0-1.5-0.7-1.5-1.5s0.7-1.5,1.5-1.5h217.6c0.8,0,1.5,0.7,1.5,1.5
			S-364-454.5-364.8-454.5z"/>
	</g>
	<g>
		
			<linearGradient id="SVGID_15_" gradientUnits="userSpaceOnUse" x1="-1404.8726" y1="-512.3188" x2="-1332.3806" y2="-512.3188" gradientTransform="matrix(-3.274567e-02 -0.9994 -0.8688 2.845226e-02 -1074.3992 -1637.0132)">
			<stop  offset="0.1522" style="stop-color:#FF3A2D"/>
			<stop  offset="0.1907" style="stop-color:#FF462A"/>
			<stop  offset="0.4015" style="stop-color:#FF811B"/>
			<stop  offset="0.5953" style="stop-color:#FFB00F"/>
			<stop  offset="0.7658" style="stop-color:#FFD207"/>
			<stop  offset="0.9065" style="stop-color:#FFE702"/>
			<stop  offset="1" style="stop-color:#FFEE00"/>
		</linearGradient>
		<path class="st38" d="M-586.1-247.4c-0.1,0-0.1,0-0.1-0.1c-0.6-1.4-13.5-16.4-13.1-27.9c0.4-12.1,2.8-27.1,3-29
			c0.3-3.5,4.5,11,5.3,12.1c0.1,0.1,0.3,0,0.3-0.1c-0.9-2.2-1.2-8.2-0.3-12.4c1-4.2,6.1-11.9,8.3-15c0.3-0.4,0.9-0.2,0.9,0.3
			c0,2.3,1,9.8,3.7,12.5c3.7,3.6,11.5,15.2,7.9,27.8C-573.8-266.9-582-247.2-586.1-247.4z"/>
		
			<linearGradient id="SVGID_16_" gradientUnits="userSpaceOnUse" x1="-1401.1199" y1="-514.1509" x2="-1352.6705" y2="-514.1509" gradientTransform="matrix(-3.274567e-02 -0.9994 -0.8688 2.845226e-02 -1074.3992 -1637.0132)">
			<stop  offset="0.1522" style="stop-color:#FF5A19"/>
			<stop  offset="1" style="stop-color:#FFEE00"/>
		</linearGradient>
		<path class="st39" d="M-584.9-251.2c0,0-7.6-21.5-3.8-29.7s5.4-12.2,4.3-17.1c-1.8-8,10.8,14.4,8.9,22.6
			C-577.7-267.3-584.9-251.2-584.9-251.2z"/>
		
			<linearGradient id="SVGID_17_" gradientUnits="userSpaceOnUse" x1="-1399.8766" y1="-513.3269" x2="-1364.9408" y2="-513.3269" gradientTransform="matrix(-3.274567e-02 -0.9994 -0.8688 2.845226e-02 -1074.3992 -1637.0132)">
			<stop  offset="0.1522" style="stop-color:#FFB02A"/>
			<stop  offset="0.9393" style="stop-color:#FFEE00"/>
		</linearGradient>
		<path class="st40" d="M-585.1-252.4c0,0-2.9-15.1-2.5-20.2c0.3-5,2.3-7.2,4.1-10.9c0.4-0.9,1-2.9,1.3-3.9c0.1-0.2,0.3-0.2,0.4,0
			c0.7,1.5,2.5,6,2.8,10.2C-578.4-272-585.1-252.4-585.1-252.4z"/>
	</g>
	<g>
		<linearGradient id="SVGID_18_" gradientUnits="userSpaceOnUse" x1="-631.0003" y1="-247.7476" x2="-537.0662" y2="-247.7476">
			<stop  offset="0" style="stop-color:#FF3A2D"/>
			<stop  offset="1" style="stop-color:#D50000"/>
		</linearGradient>
		<path class="st41" d="M-631-262.2c9.5,17.3,27,28.8,47,28.8c20,0,37.5-11.6,47-28.8H-631z"/>
		<polygon class="st4" points="-584,-370.4 -631.4,-262.2 -536.7,-262.2 		"/>
		<linearGradient id="SVGID_19_" gradientUnits="userSpaceOnUse" x1="-590.5607" y1="-370.9536" x2="-577.5057" y2="-370.9536">
			<stop  offset="0" style="stop-color:#FF3A2D"/>
			<stop  offset="1" style="stop-color:#D50000"/>
		</linearGradient>
		<circle class="st42" cx="-584" cy="-371" r="6.5"/>
	</g>
	<g>
		<path class="st2" d="M-467.1-279.9c0,0-4-20.3,18.1-24.4C-449-304.3-445.1-287-467.1-279.9z"/>
		<path class="st2" d="M-470.3-279.7c0,0-20.3,7.5-28.1-13.7C-498.4-293.3-481-300.1-470.3-279.7z"/>
		<path class="st2" d="M-471.5-291.6c0,0-17.7-11.7-4.8-30.1C-476.2-321.7-460.8-312.1-471.5-291.6z"/>
		<g>
			<path class="st2" d="M-472.6-294.2c0,0,0.4-2.1,1.3-0.4c1.6,3.1,4.1,11.2,4.2,14.7c0.2,5.4-0.1,11.6-1.1,15.2
				c-1,3.6-2.8,6.5-4.5,8.3c-1.6,1.8-3,2.5-3.1,2.4c-0.1-0.1,1-1.1,2.4-2.9c1.4-1.8-0.5,1.2,1.7-11.2
				C-469.8-278.6-472.7-294.2-472.6-294.2z"/>
		</g>
	</g>
	<g>
		<path class="st7" d="M-517.7-262.2c9.5,17.3,27,28.8,47,28.8c20,0,37.5-11.6,47-28.8H-517.7z"/>
		<polygon class="st4" points="-470.7,-370.4 -518,-262.2 -423.4,-262.2 		"/>
		<circle class="st2" cx="-470.7" cy="-371" r="6.5"/>
	</g>
	<g>
		<circle class="st0" cx="-577.5" cy="-428.8" r="12"/>
		<path class="st5" d="M-577.5-415.4c-7.4,0-13.5-6-13.5-13.5s6-13.5,13.5-13.5s13.5,6,13.5,13.5S-570.1-415.4-577.5-415.4z
			 M-577.5-439.3c-5.8,0-10.5,4.7-10.5,10.5s4.7,10.5,10.5,10.5s10.5-4.7,10.5-10.5S-571.7-439.3-577.5-439.3z"/>
	</g>
	<g>
		<polygon class="st4" points="-584.4,-200.6 -631.7,-92.4 -537,-92.4 		"/>
		<linearGradient id="SVGID_20_" gradientUnits="userSpaceOnUse" x1="-590.892" y1="-201.1766" x2="-577.837" y2="-201.1766">
			<stop  offset="0" style="stop-color:#FF3A2D"/>
			<stop  offset="1" style="stop-color:#D50000"/>
		</linearGradient>
		<circle class="st43" cx="-584.4" cy="-201.2" r="6.5"/>
	</g>
	<g>
		<polygon class="st4" points="-470.7,-200.6 -518,-92.4 -423.4,-92.4 		"/>
		<circle class="st2" cx="-470.7" cy="-201.2" r="6.5"/>
	</g>
	<linearGradient id="SVGID_21_" gradientUnits="userSpaceOnUse" x1="-631.3315" y1="-65.913" x2="-537.3974" y2="-65.913">
		<stop  offset="0" style="stop-color:#FF3A2D"/>
		<stop  offset="1" style="stop-color:#D50000"/>
	</linearGradient>
	<path class="st44" d="M-631.3-80.3c9.5,17.3,27,28.8,47,28.8c20,0,37.5-11.6,47-28.8H-631.3z"/>
	<path class="st7" d="M-516.7-79.3c9.5,17.3,27,28.8,47,28.8c20,0,37.5-11.6,47-28.8H-516.7z"/>
	<g>
		<defs>
			<rect id="SVGID_22_" x="-1375.7" y="-265.1" width="30.1" height="56.3"/>
		</defs>
		<clipPath id="SVGID_23_">
			<use xlink:href="#SVGID_22_"  style="overflow:visible;"/>
		</clipPath>
		<g class="st45">
			
				<linearGradient id="SVGID_24_" gradientUnits="userSpaceOnUse" x1="-1434.387" y1="382.3018" x2="-1361.895" y2="382.3018" gradientTransform="matrix(-3.274567e-02 -0.9994 -0.8688 2.845226e-02 -1074.3992 -1637.0132)">
				<stop  offset="0.1522" style="stop-color:#FF3A2D"/>
				<stop  offset="0.1907" style="stop-color:#FF462A"/>
				<stop  offset="0.4015" style="stop-color:#FF811B"/>
				<stop  offset="0.5953" style="stop-color:#FFB00F"/>
				<stop  offset="0.7658" style="stop-color:#FFD207"/>
				<stop  offset="0.9065" style="stop-color:#FFE702"/>
				<stop  offset="1" style="stop-color:#FFEE00"/>
			</linearGradient>
			<path class="st46" d="M-1362.4-192.5c-0.1,0-0.1,0-0.1-0.1c-0.6-1.4-13.5-16.4-13.1-27.9c0.4-12.1,2.8-27.1,3-29
				c0.3-3.5,4.5,11,5.3,12.1c0.1,0.1,0.3,0,0.3-0.1c-0.9-2.2-1.2-8.2-0.3-12.4s6.1-11.9,8.3-15c0.3-0.4,0.9-0.2,0.9,0.3
				c0,2.3,1,9.8,3.7,12.5c3.7,3.6,11.5,15.2,7.9,27.8C-1350.1-211.9-1358.3-192.2-1362.4-192.5z"/>
			
				<linearGradient id="SVGID_25_" gradientUnits="userSpaceOnUse" x1="-1430.6344" y1="380.4697" x2="-1382.1849" y2="380.4697" gradientTransform="matrix(-3.274567e-02 -0.9994 -0.8688 2.845226e-02 -1074.3992 -1637.0132)">
				<stop  offset="0.1522" style="stop-color:#FF5A19"/>
				<stop  offset="1" style="stop-color:#FFEE00"/>
			</linearGradient>
			<path class="st47" d="M-1361.2-196.3c0,0-7.6-21.5-3.8-29.7c3.8-8.2,5.4-12.2,4.3-17.1c-1.8-8,10.8,14.4,8.9,22.6
				C-1354-212.3-1361.2-196.3-1361.2-196.3z"/>
			
				<linearGradient id="SVGID_26_" gradientUnits="userSpaceOnUse" x1="-1429.391" y1="381.2937" x2="-1394.4552" y2="381.2937" gradientTransform="matrix(-3.274567e-02 -0.9994 -0.8688 2.845226e-02 -1074.3992 -1637.0132)">
				<stop  offset="0.1522" style="stop-color:#FFB02A"/>
				<stop  offset="0.9393" style="stop-color:#FFEE00"/>
			</linearGradient>
			<path class="st48" d="M-1361.4-197.5c0,0-2.9-15.1-2.5-20.2c0.3-5,2.3-7.2,4.1-10.9c0.4-0.9,1-2.9,1.3-3.9c0.1-0.2,0.3-0.2,0.4,0
				c0.7,1.5,2.5,6,2.8,10.2C-1354.7-217.1-1361.4-197.5-1361.4-197.5z"/>
		</g>
	</g>
	<g>
		<defs>
			<rect id="SVGID_27_" x="-631" y="-35.1" width="30.1" height="56.3"/>
		</defs>
		<clipPath id="SVGID_28_">
			<use xlink:href="#SVGID_27_"  style="overflow:visible;"/>
		</clipPath>
		<g class="st49">
			
				<linearGradient id="SVGID_29_" gradientUnits="userSpaceOnUse" x1="-1688.6094" y1="-465.2458" x2="-1616.1176" y2="-465.2458" gradientTransform="matrix(-3.274567e-02 -0.9994 -0.8688 2.845226e-02 -1074.3992 -1637.0132)">
				<stop  offset="0.1522" style="stop-color:#FF3A2D"/>
				<stop  offset="0.1907" style="stop-color:#FF462A"/>
				<stop  offset="0.4015" style="stop-color:#FF811B"/>
				<stop  offset="0.5953" style="stop-color:#FFB00F"/>
				<stop  offset="0.7658" style="stop-color:#FFD207"/>
				<stop  offset="0.9065" style="stop-color:#FFE702"/>
				<stop  offset="1" style="stop-color:#FFEE00"/>
			</linearGradient>
			<path class="st50" d="M-617.8,37.5c-0.1,0-0.1,0-0.1-0.1C-618.5,36-631.4,21-631,9.5c0.4-12.1,2.8-27.1,3-29
				c0.3-3.5,4.5,11,5.3,12.1c0.1,0.1,0.3,0,0.3-0.1c-0.9-2.2-1.2-8.2-0.3-12.4c1-4.2,6.1-11.9,8.3-15c0.3-0.4,0.9-0.2,0.9,0.3
				c0,2.3,1,9.8,3.7,12.5c3.7,3.6,11.5,15.2,7.9,27.8C-605.5,18-613.6,37.7-617.8,37.5z"/>
			
				<linearGradient id="SVGID_30_" gradientUnits="userSpaceOnUse" x1="-1684.8568" y1="-467.0778" x2="-1636.4075" y2="-467.0778" gradientTransform="matrix(-3.274567e-02 -0.9994 -0.8688 2.845226e-02 -1074.3992 -1637.0132)">
				<stop  offset="0.1522" style="stop-color:#FF5A19"/>
				<stop  offset="1" style="stop-color:#FFEE00"/>
			</linearGradient>
			<path class="st51" d="M-616.6,33.7c0,0-7.6-21.5-3.8-29.7c3.8-8.2,5.4-12.2,4.3-17.1c-1.8-8,10.8,14.4,8.9,22.6
				C-609.3,17.6-616.6,33.7-616.6,33.7z"/>
			
				<linearGradient id="SVGID_31_" gradientUnits="userSpaceOnUse" x1="-1683.6134" y1="-466.2538" x2="-1648.6777" y2="-466.2538" gradientTransform="matrix(-3.274567e-02 -0.9994 -0.8688 2.845226e-02 -1074.3992 -1637.0132)">
				<stop  offset="0.1522" style="stop-color:#FFB02A"/>
				<stop  offset="0.9393" style="stop-color:#FFEE00"/>
			</linearGradient>
			<path class="st52" d="M-616.7,32.5c0,0-2.9-15.1-2.5-20.2c0.3-5,2.3-7.2,4.1-10.9c0.4-0.9,1-2.9,1.3-3.9c0.1-0.2,0.3-0.2,0.4,0
				c0.7,1.5,2.5,6,2.8,10.2C-610,12.9-616.7,32.5-616.7,32.5z"/>
		</g>
	</g>
	<g>
		<g>
			
				<linearGradient id="SVGID_32_" gradientUnits="userSpaceOnUse" x1="-375.6262" y1="7.3404" x2="-272.5619" y2="7.3404" gradientTransform="matrix(0.9932 -0.1162 -0.101 -0.8634 13.1466 -132.9433)">
				<stop  offset="0.1522" style="stop-color:#FF3A2D"/>
				<stop  offset="0.1907" style="stop-color:#FF462A"/>
				<stop  offset="0.4015" style="stop-color:#FF811B"/>
				<stop  offset="0.5953" style="stop-color:#FFB00F"/>
				<stop  offset="0.7658" style="stop-color:#FFD207"/>
				<stop  offset="0.9065" style="stop-color:#FFE702"/>
				<stop  offset="1" style="stop-color:#FFEE00"/>
			</linearGradient>
			<path class="st53" d="M-360.9-97.3c0-0.1,0-0.2,0.1-0.2c1.9-0.9,27.6-13.6,37-15.2c11.3-1.9,21-0.7,26.6-5.5
				c3.9-3.3,4.4-6.3,4.4-7.6c0-0.2,0.3-0.3,0.4-0.1c1.2,1.9,4.1,7.3,1.8,10.5c-2.1,2.9-4.6,5.3-6.1,6.5c-0.2,0.2,0,0.4,0.2,0.3
				c3-1.4,10.5-4.8,14.8-5.6c7.6-1.4,18.1,1.6,22.8,4.2c0.6,0.3,0.4,1.2-0.3,1.3c-3.4,0.3-10.2,1.4-13.7,5.3
				c-4.8,5.3-21.6,27-40.1,23.6C-331.3-83.1-360.7-91.8-360.9-97.3z"/>
			
				<linearGradient id="SVGID_33_" gradientUnits="userSpaceOnUse" x1="-370.1924" y1="2.369" x2="-304.2503" y2="2.369" gradientTransform="matrix(0.9932 -0.1162 -0.101 -0.8634 13.1466 -132.9433)">
				<stop  offset="0.1522" style="stop-color:#FF5A19"/>
				<stop  offset="1" style="stop-color:#FFEE00"/>
			</linearGradient>
			<path class="st54" d="M-355.3-96.1c0,0,30-12.5,42.3-8.4c12.3,4.1,13.7,10,20.7,8c11.3-3.3-8.6,10.3-20.6,8.6
				C-324.9-89.7-355.3-96.1-355.3-96.1z"/>
			
				<linearGradient id="SVGID_34_" gradientUnits="userSpaceOnUse" x1="-368.3987" y1="3.1446" x2="-317.9008" y2="3.1446" gradientTransform="matrix(0.9932 -0.1162 -0.101 -0.8634 13.1466 -132.9433)">
				<stop  offset="0.1522" style="stop-color:#FFB02A"/>
				<stop  offset="0.9393" style="stop-color:#FFEE00"/>
			</linearGradient>
			<path class="st55" d="M-353.5-96.5c0,0,21.5-5.6,28.8-5.6c7.3-0.1,10.6,2.3,16.2,4.3c1.3,0.5,4.3,1,5.8,1.3
				c0.3,0,0.3,0.4,0.1,0.5c-2.1,1-8.4,3.9-14.4,4.9C-324.5-89.8-353.5-96.5-353.5-96.5z"/>
		</g>
	</g>
	<g>
		<path class="st10" d="M-211.5-261.5c0,0-0.2-1.8-9.7-1.8c-4.9,0-10.3-1.8-10.9-6.7c-1.1-8.8,9.7-19.4,22.5-29.1
			c12.8-9.7-29.1-16.4-37.6-12.1c-8.5,4.2-27.9,36.4-28.5,44.3s10.9,20,10.9,20l14.6-3L-211.5-261.5z"/>
		<path class="st10" d="M-316.5-210.5c-0.7-1.8-0.8-18.3,1.2-17.6s13,0.3,13,0.3s-15-17.2-12.4-18.5c2.7-1.3,23.9-1.3,22.7-4.4
			c-1.2-3-22.4-8.8-19.8-10.1c2.6-1.3,9.7-14.2,9.7-14.2s-18.6-1.4-16.9-2.6c1.7-1.2,11.5-10.2,11.5-10.2l-13.4-12.9l13.3-6.1
			c0,0-7-15-5.2-15.2l26.7,2.2l6.7,99L-316.5-210.5"/>
		<path class="st10" d="M-316.5-210.5l-10.3-9.1l-8.6,16l-2.9-15.4l-14.2,3.1l-4-11l-6.7,6.7c0,0,20,20,26.7,25.5s27.3,3,27.3,3
			L-316.5-210.5z"/>
		
			<linearGradient id="SVGID_35_" gradientUnits="userSpaceOnUse" x1="-237.3831" y1="539.2051" x2="-151.3027" y2="539.2051" gradientTransform="matrix(0.9906 -0.1366 -0.1366 -0.9906 44.3887 214.7798)">
			<stop  offset="0" style="stop-color:#E6E6E6"/>
			<stop  offset="1" style="stop-color:#FF9300"/>
		</linearGradient>
		<path class="st56" d="M-252.6-273.2l6.1,2.8l-1.1-8.2l7.5,3.8l-1-7.9c0,0,6.2,2.3,7.2,1.8s2.9-7.1,2.9-7.1l4.4,2.2l1.7-5.4l5,4.7
			l2.4-5.5l4.3,0.9l1-6.2l8.7,3.6l2.2-7.2l6.1,4.4l0.1-9.2c0,0,8.2,7.2,8,6c-0.1-1.2-0.9-8.7-0.9-8.7s8.5,5.5,8.2,4.8
			c-0.3-0.7-3-12.1-3-12.1l-8.9-0.2l-71.5,37.6L-252.6-273.2z"/>
		<path class="st12" d="M-252.1-185.2c0,0-6.7,16.7-7.3,20.4c-0.6,3.6,9.3,5.3,10.2,7.9c0.9,2.6-6.4,1.2-6.4,1.2s-2.5,2.4-4.8,1.8
			c-1.5-0.4-8.3-0.9-12.9-1.3c-2.3-0.2-4-2.3-3.7-4.6l2.8-20.3C-274.2-180-253.5-194.6-252.1-185.2z"/>
		<path class="st13" d="M-276.4-164.6c0,0,9.1-7.5,14.6-9.3s3.9,4.2,3.9,4.2l5.8-15.7c0,0-19.7,3.1-20.2,3.7s-3.1,5.1-3.1,5.1
			L-276.4-164.6z"/>
		<g>
			
				<linearGradient id="SVGID_36_" gradientUnits="userSpaceOnUse" x1="-344.4842" y1="506.238" x2="-151.0366" y2="506.238" gradientTransform="matrix(0.9906 -0.1366 -0.1366 -0.9906 44.3887 214.7798)">
				<stop  offset="0" style="stop-color:#FF3A2D"/>
				<stop  offset="1" style="stop-color:#D50000"/>
			</linearGradient>
			<path class="st57" d="M-253.1-222.5c1.7,5.6,5.9,17.6,6.8,26.4c0.9,8.8-6.6,16.7-14.7,19.3c-8.1,2.6-12.6,3.3-19.9,5.6
				c-4.1,3.9-8.9,7.3-12.7,11.7c5.1,0.9,11.6,2,15,6.2c-1.6,1.7-3.4,2.8-5.6,3.1c-3.5,0.5-5.6,0.8-9.4,1.3
				c-2.6,0.3-6.9-0.3-10.7-0.6c-2.8-0.2-4.9-2.6-5-5.4c-0.1-5.1,0.4-9.7-0.1-15.3c-25.1-1.8-37.8-29.4-53.9-50
				c10.2-0.6,23.3,17.4,33.4,17s31.8-29,35.4-39.2c3.6-10.2-8.8-26.3-13.5-40.4c-4.7-14.2-7.7-24.6,10-38.1s65.5-48,82.3-36.3
				c16.8,11.8,41.6,33.9,31.9,45.2c-9.6,11.3-72.3,27.4-74.2,47.4s4.4,12.1,12.5,9.4c7.4-2.4,29.2-11.4,34-6.5s-12.7,8.4-27.8,11.8
				c-14.3,3.2-19.3,10.1-20.9,10.3c-1.6,0.2,3.9,6.8,4.8,9.6C-254.3-227.3-254.8-228-253.1-222.5z"/>
		</g>
		<path class="st15" d="M-254-155.4c0,0-0.6-4.1,1-4s4.6,1.9,5.2,3.1C-247.3-155.1-254-155.4-254-155.4z"/>
		<path class="st15" d="M-261.3-154c0,0-0.6-3.5,1.8-3.5c2.4,0,5.5,1.2,6.1,3S-261.3-154-261.3-154z"/>
		<path class="st15" d="M-282-151.3c0,0-0.6-4.1,1-4s4.6,1.9,5.2,3.1C-275.2-151-282-151.3-282-151.3z"/>
		<path class="st15" d="M-289.2-149.9c0,0-0.6-3.5,1.8-3.5c2.4,0,5.5,1.2,6.1,3C-280.7-148.6-289.2-149.9-289.2-149.9z"/>
		<path class="st13" d="M-280.7-171.6c0,0-27.3,1.2-28.5,0.6s0.4,10.9,0.2,13.3s4.7-3.6,13.8-6.6
			C-286.1-167.3-280.7-171.6-280.7-171.6z"/>
		<g>
			<path class="st19" d="M-259.1-290c0,0-3.2-1.9-6.4-2.4c-3.2-0.5-8.1-0.6-8.1-0.6l1.7-0.9c0,0-0.7-0.2-1.5-1.1
				c-0.7-0.7-1.8-3.1-1.8-3.1s3.5,0.4,7.4,0.8c5.5,0.7,8.2,3.8,8.2,3.8h-1.1C-260.7-293.4-259.3-291.3-259.1-290z"/>
			<path class="st20" d="M-261.1-294.2c0,0-1.6-1.5-4.8-2.3c-3.2-0.8-7-0.9-7-0.9l2.7,1l-3.2-0.5c0,0,1.7,1,4.9,1.6
				c3.2,0.6,7.3,2.3,7.3,2.3l-0.8-1.4L-261.1-294.2z"/>
		</g>
		<g>
			<circle cx="-265.4" cy="-284.9" r="4.2"/>
			<circle class="st0" cx="-265.1" cy="-285.7" r="1.5"/>
			<circle class="st0" cx="-266.7" cy="-283.2" r="0.7"/>
		</g>
		<g>
			<path class="st21" d="M-218.8-319c3.2,6.1,7.8,10.1,10.2,8.8c2.5-1.3,1.9-7.3-1.3-13.4c-3.2-6.1-7.8-10.1-10.2-8.8
				S-221.9-325.1-218.8-319z"/>
			<path class="st22" d="M-219.7-318.4c3.2,6.1,7.8,10.1,10.2,8.8c2.5-1.3,1.9-7.3-1.3-13.4s-7.8-10.1-10.2-8.8
				C-223.5-330.5-222.9-324.5-219.7-318.4z"/>
		</g>
		<g>
			<path class="st21" d="M-203-331.9c2.5,4.7,6,7.8,7.9,6.8s1.5-5.7-1-10.4s-6-7.8-7.9-6.8S-205.5-336.7-203-331.9z"/>
			<path class="st22" d="M-203.8-331.4c2.5,4.7,6,7.8,7.9,6.8s1.5-5.7-1-10.4s-6-7.8-7.9-6.8S-206.2-336.2-203.8-331.4z"/>
		</g>
		<g>
			<path class="st23" d="M-217.3-338.1c0,0-4.8-2.5-8.6-0.4c-7.2,4-2.9,14.8-2.9,14.8s-2.3-6.3,4.9-12.2
				C-220.2-338.7-217.3-338.1-217.3-338.1z"/>
			<path class="st24" d="M-217.3-338.1c0,0-5.4,0.7-9.3,5.9c-3.9,5.2-1.2,11-1.2,11s-3.4-6,0.1-11.4
				C-224.2-338.1-217.3-338.1-217.3-338.1z"/>
			<path class="st25" d="M-219.2-336.5c0,0-5.8,3.5-6.8,8.9c-1,5.4,1.9,9.4,1.9,9.4s-4-3.6-3.5-9.5
				C-227-333.8-219.2-336.5-219.2-336.5z"/>
		</g>
		<g>
			<path class="st23" d="M-203.8-345.6c0,0-2.8-1.5-5.1-0.2c-4.3,2.4-1.7,8.8-1.7,8.8s-1.3-3.7,2.9-7.2
				C-205.5-346-203.8-345.6-203.8-345.6z"/>
			<path class="st24" d="M-203.8-345.6c0,0-3.2,0.4-5.5,3.5s-0.7,6.5-0.7,6.5s-2-3.6,0.1-6.8C-207.9-345.6-203.8-345.6-203.8-345.6z
				"/>
			<path class="st25" d="M-205-344.6c0,0-3.4,2-4,5.2c-0.6,3.2,1.2,5.6,1.2,5.6s-2.4-2.2-2.1-5.6C-209.5-343-205-344.6-205-344.6z"
				/>
		</g>
		<path class="st10" d="M-297.7-321c0,0,11.5-10.3,32.2-19.4c19.7-8.7,29.7-9.1,29.7-9.1s-4.9-12.7,6.7-17.6
			c11.6-4.9-11.5-12.1-22.5,0c-6.9,7.7-10.3-6.7-10.3-6.7l-9.1,21.9l-12.1-3.6l-3.6,18.8l-13.4,1.2L-297.7-321z"/>
	</g>
	<path class="st10" d="M-238.1-109.7c0,0,0.8,0.1,5.3-1s3.5-8.8,6.1-10.3s2.8,5.3,3.5,5.9c0.6,0.6,0.2-4.4,0.2-4.4s1.4,4.1,1.9,3.5
		c0.6-0.6-0.7-5.5-0.7-5.5s3.6,7.5,2.8,1.7s-5.5-6.3-8.4-6.3s-4.5,8.9-6.8,10.3c-2.3,1.4-7.3-0.6-7.3-0.6L-238.1-109.7z"/>
	<g>
		<path class="st10" d="M-10.1-261.5c0,0-0.2-1.8-9.7-1.8c-4.9,0-10.3-1.8-10.9-6.7c-1.1-8.8,9.7-19.4,22.5-29.1
			c12.8-9.7-29.1-16.4-37.6-12.1c-8.5,4.2-27.9,36.4-28.5,44.3s10.9,20,10.9,20l14.6-3L-10.1-261.5z"/>
		<path class="st10" d="M-115.1-210.5c-0.7-1.8-0.8-18.3,1.2-17.6s13,0.3,13,0.3s-15-17.2-12.4-18.5c2.7-1.3,23.9-1.3,22.7-4.4
			c-1.2-3-22.4-8.8-19.8-10.1c2.6-1.3,9.7-14.2,9.7-14.2s-18.6-1.4-16.9-2.6c1.7-1.2,11.5-10.2,11.5-10.2l-13.4-12.9l13.3-6.1
			c0,0-7-15-5.2-15.2l26.7,2.2l6.7,99L-115.1-210.5"/>
		<path class="st10" d="M-115.1-210.5l-10.3-9.1l-8.6,16l-2.9-15.4l-14.2,3.1l-4-11l-6.7,6.7c0,0,20,20,26.7,25.5s27.3,3,27.3,3
			L-115.1-210.5z"/>
		
			<linearGradient id="SVGID_37_" gradientUnits="userSpaceOnUse" x1="-37.8356" y1="511.6883" x2="48.2448" y2="511.6883" gradientTransform="matrix(0.9906 -0.1366 -0.1366 -0.9906 44.3887 214.7798)">
			<stop  offset="0" style="stop-color:#E6E6E6"/>
			<stop  offset="1" style="stop-color:#FF9300"/>
		</linearGradient>
		<path class="st58" d="M-51.2-273.2l6.1,2.8l-1.1-8.2l7.5,3.8l-1-7.9c0,0,6.2,2.3,7.2,1.8c1-0.5,2.9-7.1,2.9-7.1l4.4,2.2l1.7-5.4
			l5,4.7l2.4-5.5l4.3,0.9l1-6.2l8.7,3.6l2.2-7.2l6.1,4.4l0.1-9.2c0,0,8.2,7.2,8,6c-0.1-1.2-0.9-8.7-0.9-8.7s8.5,5.5,8.2,4.8
			c-0.3-0.7-3-12.1-3-12.1l-8.9-0.2l-71.5,37.6L-51.2-273.2z"/>
		<path class="st12" d="M-50.7-185.2c0,0-6.7,16.7-7.3,20.4c-0.6,3.6,9.3,5.3,10.2,7.9c0.9,2.6-6.4,1.2-6.4,1.2s-2.5,2.4-4.8,1.8
			c-1.5-0.4-8.3-0.9-12.9-1.3c-2.3-0.2-4-2.3-3.7-4.6l2.8-20.3C-72.8-180-52.1-194.6-50.7-185.2z"/>
		<path class="st13" d="M-75-164.6c0,0,9.1-7.5,14.6-9.3s3.9,4.2,3.9,4.2l5.8-15.7c0,0-19.7,3.1-20.2,3.7s-3.1,5.1-3.1,5.1
			L-75-164.6z"/>
		<g>
			
				<linearGradient id="SVGID_38_" gradientUnits="userSpaceOnUse" x1="-144.9367" y1="478.7212" x2="48.511" y2="478.7212" gradientTransform="matrix(0.9906 -0.1366 -0.1366 -0.9906 44.3887 214.7798)">
				<stop  offset="0" style="stop-color:#FF3A2D"/>
				<stop  offset="1" style="stop-color:#D50000"/>
			</linearGradient>
			<path class="st59" d="M-51.7-222.5c1.7,5.6,5.9,17.6,6.8,26.4c0.9,8.8-6.6,16.7-14.7,19.3s-12.6,3.3-19.9,5.6
				c-4.1,3.9-8.9,7.3-12.7,11.7c5.1,0.9,11.6,2,15,6.2c-1.6,1.7-3.4,2.8-5.6,3.1c-3.5,0.5-5.6,0.8-9.4,1.3
				c-2.6,0.3-6.9-0.3-10.7-0.6c-2.8-0.2-4.9-2.6-5-5.4c-0.1-5.1,0.4-9.7-0.1-15.3c-25.1-1.8-37.8-29.4-53.9-50
				c10.2-0.6,23.3,17.4,33.4,17s31.8-29,35.4-39.2c3.6-10.2-8.8-26.3-13.5-40.4c-4.7-14.2-7.7-24.6,10-38.1s65.5-48,82.3-36.3
				c16.8,11.8,41.6,33.9,31.9,45.2c-9.6,11.3-72.3,27.4-74.2,47.4s4.4,12.1,12.5,9.4c7.4-2.4,29.2-11.4,34-6.5s-12.7,8.4-27.8,11.8
				c-14.3,3.2-19.3,10.1-20.9,10.3c-1.6,0.2,3.9,6.8,4.8,9.6C-52.9-227.3-53.4-228-51.7-222.5z"/>
		</g>
		<path class="st15" d="M-52.6-155.4c0,0-0.6-4.1,1-4s4.6,1.9,5.2,3.1C-45.9-155.1-52.6-155.4-52.6-155.4z"/>
		<path class="st15" d="M-59.9-154c0,0-0.6-3.5,1.8-3.5s5.5,1.2,6.1,3S-59.9-154-59.9-154z"/>
		<path class="st15" d="M-80.6-151.3c0,0-0.6-4.1,1-4s4.6,1.9,5.2,3.1C-73.8-151-80.6-151.3-80.6-151.3z"/>
		<path class="st15" d="M-87.8-149.9c0,0-0.6-3.5,1.8-3.5c2.4,0,5.5,1.2,6.1,3C-79.3-148.6-87.8-149.9-87.8-149.9z"/>
		<path class="st13" d="M-79.3-171.6c0,0-27.3,1.2-28.5,0.6s0.4,10.9,0.2,13.3s4.7-3.6,13.8-6.6S-79.3-171.6-79.3-171.6z"/>
		<g>
			
				<linearGradient id="SVGID_39_" gradientUnits="userSpaceOnUse" x1="-15.2254" y1="168.6873" x2="87.8389" y2="168.6873" gradientTransform="matrix(0.9932 -0.1162 -0.101 -0.8634 13.1466 -132.9433)">
				<stop  offset="0.1522" style="stop-color:#FF3A2D"/>
				<stop  offset="0.1907" style="stop-color:#FF462A"/>
				<stop  offset="0.4015" style="stop-color:#FF811B"/>
				<stop  offset="0.5953" style="stop-color:#FFB00F"/>
				<stop  offset="0.7658" style="stop-color:#FFD207"/>
				<stop  offset="0.9065" style="stop-color:#FFE702"/>
				<stop  offset="1" style="stop-color:#FFEE00"/>
			</linearGradient>
			<path class="st60" d="M-19.2-278.5c0-0.1,0-0.2,0.1-0.2c1.9-0.9,27.6-13.6,37-15.2c11.3-1.9,21-0.7,26.6-5.5
				c3.9-3.3,4.4-6.3,4.4-7.6c0-0.2,0.3-0.3,0.4-0.1c1.2,1.9,4.1,7.3,1.8,10.5c-2.1,2.9-4.6,5.3-6.1,6.5c-0.2,0.2,0,0.4,0.2,0.3
				c3-1.4,10.5-4.8,14.8-5.6c7.6-1.4,18.1,1.6,22.8,4.2c0.6,0.3,0.4,1.2-0.3,1.3c-3.4,0.3-10.2,1.4-13.7,5.3
				c-4.8,5.3-21.6,27-40.1,23.6C10.3-264.3-19-273-19.2-278.5z"/>
			
				<linearGradient id="SVGID_40_" gradientUnits="userSpaceOnUse" x1="-9.7917" y1="163.716" x2="56.1505" y2="163.716" gradientTransform="matrix(0.9932 -0.1162 -0.101 -0.8634 13.1466 -132.9433)">
				<stop  offset="0.1522" style="stop-color:#FF5A19"/>
				<stop  offset="1" style="stop-color:#FFEE00"/>
			</linearGradient>
			<path class="st61" d="M-13.6-277.3c0,0,30-12.5,42.3-8.4c12.3,4.1,13.7,10,20.7,8c11.3-3.3-8.6,10.3-20.6,8.6
				C16.8-270.9-13.6-277.3-13.6-277.3z"/>
			
				<linearGradient id="SVGID_41_" gradientUnits="userSpaceOnUse" x1="-7.998" y1="164.4915" x2="42.5" y2="164.4915" gradientTransform="matrix(0.9932 -0.1162 -0.101 -0.8634 13.1466 -132.9433)">
				<stop  offset="0.1522" style="stop-color:#FFB02A"/>
				<stop  offset="0.9393" style="stop-color:#FFEE00"/>
			</linearGradient>
			<path class="st62" d="M-11.8-277.7c0,0,21.5-5.6,28.8-5.6c7.3-0.1,10.6,2.3,16.2,4.3c1.3,0.5,4.3,1,5.8,1.3
				c0.3,0,0.3,0.4,0.1,0.5c-2.1,1-8.4,3.9-14.4,4.9C17.2-271-11.8-277.7-11.8-277.7z"/>
		</g>
		<g>
			<path class="st19" d="M-57.7-290c0,0-3.2-1.9-6.4-2.4s-8.1-0.6-8.1-0.6l1.7-0.9c0,0-0.7-0.2-1.5-1.1c-0.7-0.7-1.8-3.1-1.8-3.1
				s3.5,0.4,7.4,0.8c5.5,0.7,8.2,3.8,8.2,3.8h-1.1C-59.3-293.4-57.9-291.3-57.7-290z"/>
			<path class="st20" d="M-59.7-294.2c0,0-1.6-1.5-4.8-2.3c-3.2-0.8-7-0.9-7-0.9l2.7,1l-3.2-0.5c0,0,1.7,1,4.9,1.6
				c3.2,0.6,7.3,2.3,7.3,2.3l-0.8-1.4L-59.7-294.2z"/>
		</g>
		<path class="st10" d="M-58.6-231.2c0,0,0.8,0.3,5.4,0.6c4.6,0.3,6-7.3,9-8s1.1,5.9,1.6,6.6c0.4,0.7,1.5-4.1,1.5-4.1
			s0.1,4.3,0.8,3.9s1-5.4,1-5.4s1.2,8.3,2.1,2.5c1-5.8-3.4-7.7-6.1-8.6c-2.7-0.9-6.9,7.1-9.6,7.8c-2.6,0.6-6.7-2.8-6.7-2.8
			L-58.6-231.2z"/>
		<g>
			<circle cx="-64" cy="-284.9" r="4.2"/>
			<circle class="st0" cx="-63.7" cy="-285.7" r="1.5"/>
			<circle class="st0" cx="-65.3" cy="-283.2" r="0.7"/>
		</g>
		<path class="st10" d="M-83.7-225.5c0,0,0.8,0.1,5.3-1s3.5-8.8,6.1-10.3s2.8,5.3,3.5,5.9c0.6,0.6,0.2-4.4,0.2-4.4s1.4,4.1,1.9,3.5
			c0.6-0.6-0.7-5.5-0.7-5.5s3.6,7.5,2.8,1.7s-5.5-6.3-8.4-6.3s-4.5,8.9-6.8,10.3c-2.3,1.4-7.3-0.6-7.3-0.6L-83.7-225.5z"/>
		<g>
			<path class="st21" d="M-17.4-319c3.2,6.1,7.8,10.1,10.2,8.8c2.5-1.3,1.9-7.3-1.3-13.4c-3.2-6.1-7.8-10.1-10.2-8.8
				S-20.5-325.1-17.4-319z"/>
			<path class="st22" d="M-18.3-318.4c3.2,6.1,7.8,10.1,10.2,8.8c2.5-1.3,1.9-7.3-1.3-13.4s-7.8-10.1-10.2-8.8
				C-22.1-330.5-21.5-324.5-18.3-318.4z"/>
		</g>
		<g>
			<path class="st21" d="M-1.6-331.9c2.5,4.7,6,7.8,7.9,6.8s1.5-5.7-1-10.4s-6-7.8-7.9-6.8S-4.1-336.7-1.6-331.9z"/>
			<path class="st22" d="M-2.4-331.4c2.5,4.7,6,7.8,7.9,6.8s1.5-5.7-1-10.4s-6-7.8-7.9-6.8S-4.8-336.2-2.4-331.4z"/>
		</g>
		<g>
			<path class="st23" d="M-15.9-338.1c0,0-4.8-2.5-8.6-0.4c-7.2,4-2.9,14.8-2.9,14.8s-2.3-6.3,4.9-12.2
				C-18.8-338.7-15.9-338.1-15.9-338.1z"/>
			<path class="st24" d="M-15.9-338.1c0,0-5.4,0.7-9.3,5.9c-3.9,5.2-1.2,11-1.2,11s-3.4-6,0.1-11.4
				C-22.8-338.1-15.9-338.1-15.9-338.1z"/>
			<path class="st25" d="M-17.8-336.5c0,0-5.8,3.5-6.8,8.9c-1,5.4,1.9,9.4,1.9,9.4s-4-3.6-3.5-9.5
				C-25.6-333.8-17.8-336.5-17.8-336.5z"/>
		</g>
		<g>
			<path class="st23" d="M-2.4-345.6c0,0-2.8-1.5-5.1-0.2c-4.3,2.4-1.7,8.8-1.7,8.8s-1.3-3.7,2.9-7.2C-4.1-346-2.4-345.6-2.4-345.6z
				"/>
			<path class="st24" d="M-2.4-345.6c0,0-3.2,0.4-5.5,3.5s-0.7,6.5-0.7,6.5s-2-3.6,0.1-6.8C-6.5-345.6-2.4-345.6-2.4-345.6z"/>
			<path class="st25" d="M-3.6-344.6c0,0-3.4,2-4,5.2c-0.6,3.2,1.2,5.6,1.2,5.6s-2.4-2.2-2.1-5.6C-8.1-343-3.6-344.6-3.6-344.6z"/>
		</g>
		<path class="st10" d="M-96.3-321c0,0,11.5-10.3,32.2-19.4c19.7-8.7,29.7-9.1,29.7-9.1s-4.9-12.7,6.7-17.6
			c11.6-4.9-11.5-12.1-22.5,0c-6.9,7.7-10.3-6.7-10.3-6.7l-9.1,21.9l-12.1-3.6l-3.6,18.8l-13.4,1.2L-96.3-321z"/>
	</g>
	<g>
		<g>
			<path class="st26" d="M-109.3,118.7c0,0-21.9-3.7-22.9,0.4c-0.7,2.9,23.4,2.8,23.4,2.8L-109.3,118.7z"/>
			<path class="st26" d="M-129.3,115.3c0,0-5.9-7.3-6.6-5.1s2.1,5.7,2.1,5.7s-8.1-3.6-9.1-2.4s7.9,4.1,7.4,4.2s-8.8-0.6-8.5,0.6
				c0.2,1.2,8.1,1.3,8.2,1.8s-7.7,1.2-7.2,2.1c0.4,0.9,7.4,0.1,8.2,0.2c0.8,0.1-4.9,2.4-4.5,3.4c0.4,0.9,5.4-1.3,6.3-1.9
				c0.9-0.7,5-0.4,6.5-1.7c1.5-1.3,0.9-4.5,0-5.3C-127.4,116-129.3,115.3-129.3,115.3z"/>
		</g>
		<path class="st27" d="M-149.9,64.3c4.9,0,12.8,0.5,16.6-1.6c7.7-4.4-14.5-13.5-27.3-23.3S-131.5,23-123,27.3s37.7,28.6,38.3,36.5
			c0.6,7.9-20.7,27.9-20.7,27.9l-14.6-3C-119.9,88.6-159.4,64.3-149.9,64.3z"/>
		
			<linearGradient id="SVGID_42_" gradientUnits="userSpaceOnUse" x1="-158.9527" y1="187.5725" x2="-110.735" y2="139.3548" gradientTransform="matrix(1 0 0 -1 0 208.5318)">
			<stop  offset="0" style="stop-color:#FFC76D"/>
			<stop  offset="1" style="stop-color:#E8E3E0"/>
		</linearGradient>
		<path class="st63" d="M-170.9,32.9c0,0-1.5,4.1,0.6,4.6s4.3-1.1,4.3-1.1s-1.1,8.6,1.6,7.5s4.8-2.6,4.8-2.6s-1,5.9,1.6,6.4
			c2.7,0.5,5.4-2.8,5.4-2.8s0,7.1,2.6,7.1s5.7-3.2,5.7-3.2s-2.5,5.3,1.8,5.9c4.3,0.5,5.4-1.6,5.4-1.6s0.5,4.4,3.2,4.8
			c3.7,0.5,5.1-1.9,5.1-1.9s3,4,4,3.5c1.1-0.5,5.9-2.7,5.9-2.7s-0.5,3.7,2.1,3.7s7-3.7,7-3.7s0,3.7,2.1,3.2s3.7-3.7,3.7-3.7
			s1.1,2.7,3.2,2.1c2.1-0.5,4.3-4.3,4.3-4.3L-170.9,32.9z"/>
		
			<linearGradient id="SVGID_43_" gradientUnits="userSpaceOnUse" x1="-183.5492" y1="31.0401" x2="-124.2645" y2="24.8647" gradientTransform="matrix(0.9996 2.982325e-02 2.982325e-02 -0.9996 30.1776 106.7008)">
			<stop  offset="0" style="stop-color:#FFC76D"/>
			<stop  offset="1" style="stop-color:#E8E3E0"/>
		</linearGradient>
		<path class="st64" d="M-93.2,77.1c0,0-3.2-7.5-6.4-5.4c-2.9,1.9-1.6,4.3-1.6,4.3s-1.6-3.7-3.7-2.1s-2.1,4.3-2.1,4.3
			s-1-5.3-3.7-3.2c-2.7,2.1-2.8,5.1-2.8,5.1s0.2-5.6-2.5-4.6s-2.2,2.8-2.2,2.8s-0.4-4.4-3.1-3.4s-3.3,2.1-3.3,2.1s-0.9-5.2-3.1-3.2
			c-2.2,2.1-2.7,2.5-2.7,2.5s0.6-5.1-2.1-4.6s-3.7,1.7-3.7,1.7s1.6-3.8-1.6-3.9s-3,1.9-3,1.9s0.4-6.1-2.3-4.1c-2.7,2.1-3,2.3-3,2.3
			s4.3-8.3,0.9-8.2c-3.4,0.1-3.8,5.4-3.8,5.4s1.6-7.5-0.5-7s-1.2,5.4-1.2,5.4s10.9,10.6,11.9,11.2s41.4,12,41.4,12L-93.2,77.1z"/>
		<g>
			<path class="st30" d="M-111.9,157.2c0,0,6.7,16.7,7.4,20.4c0.6,3.6-9.3,5.4-10.2,8c-0.9,2.6,6.4,1.1,6.4,1.1s2.5,2.4,4.8,1.8
				c1.5-0.4,8.3-1,12.9-1.3c2.3-0.2,4-2.3,3.7-4.6l-2.8-20.2C-89.8,162.3-110.6,147.8-111.9,157.2z"/>
			<path class="st31" d="M-87.6,177.7c0,0-9.1-7.5-14.6-9.3s-3.9,4.2-3.9,4.2l-5.8-15.7c0,0,19.7,3,20.2,3.6s3.1,5.1,3.1,5.1
				L-87.6,177.7z"/>
			<path class="st15" d="M-109.9,187c0,0,0.6-4.1-1-4s-4.6,1.9-5.2,3.1C-116.7,187.3-109.9,187-109.9,187z"/>
			<path class="st15" d="M-102.7,188.3c0,0,0.6-3.5-1.9-3.5c-2.4,0-5.5,1.2-6.1,3S-102.7,188.3-102.7,188.3z"/>
		</g>
		<path class="st32" d="M-60.5,135.5c0,0,9.1-22.2,6.4-23.6c-2.7-1.3-10.9-7.2-9.6-10.2c1.2-3,23.5-11.5,20.9-12.8
			c-2.7-1.3-9.6-16.6-9.6-16.6s23.3-5.9,21.6-7.1C-32.5,64-42.3,55-42.3,55l13.4-12.9L-42.2,36c0,0-4.4-13,0.9-16.8
			c5.4-3.7-24.6,1.1-24.6,1.1l-28.4,98"/>
		<path class="st32" d="M-62.7,133.3l17.1-13.3l8.6,12.3l2.9-11.6l13.7,2l4.6-9.9l6.7,6.7c0,0-20,20-26.7,25.5s-27.3,3-27.3,3
			L-62.7,133.3z"/>
		
			<linearGradient id="SVGID_44_" gradientUnits="userSpaceOnUse" x1="-172.407" y1="121.8283" x2="-9.207" y2="121.8283" gradientTransform="matrix(1 0 0 -1 0 208.5318)">
			<stop  offset="0" style="stop-color:#6BC62A"/>
			<stop  offset="1" style="stop-color:#00B53E"/>
		</linearGradient>
		<path class="st65" d="M-42.5,136.4c-31.9-3.1-29.2-27.7-20.1-43.2c0.1-0.1,0.1-0.2,0-0.3C-49.8,79.7-36.2,53.6-39.5,44
			c-4.3-12.3-76.6-66.1-99.6-61.3s-33.3,48.5-33.3,48.5c4,15.2,49,32.2,68.8,26.5c7.7-2.3,13.5-3.7,16.9,2.9c1.8,3.5,0,8.1-18.2,15
			c-15.5,5.9-39.4-4.5-43.4-10.7c-3.4-5.4-12.9,2.5-3.8,10.1c6,5,20.4,13.9,43.8,20.4c-2.2,3.3-5.1,8.3-5.8,10.2
			c-1,2.8-4.1,8.9-5.9,14.5c-1.7,5.6-5.5,12.6-6.4,21.4c-0.9,8.8,6.9,18.9,14.9,21.5s12.6,3.3,19.9,5.6c4.1,3.9,8.9,7.3,12.7,11.7
			c-5.1,0.9-11.6,2-15,6.2c1.6,1.7,3.4,2.8,5.6,3.1c3.5,0.5,5.6,0.8,9.4,1.3c2.6,0.3,6.9-0.3,10.7-0.6c2.8-0.2,4.9-2.6,5-5.4
			c0.1-5.1-0.4-9.7,0.1-15.3c25.1-1.8,37.8-29.4,53.9-50C-19.3,118.8-32.5,137.4-42.5,136.4z"/>
		<path class="st15" d="M-90.4,188.3c0,0,0.6-4.1-1-4s-4.6,1.9-5.2,3.1C-97.1,188.6-90.4,188.3-90.4,188.3z"/>
		<path class="st15" d="M-83.2,189.7c0,0,0.6-3.5-1.8-3.5s-5.5,1.2-6.1,3S-83.2,189.7-83.2,189.7z"/>
		<path class="st31" d="M-91.6,168.7c0,0,28.4-0.8,28.4,0.5c0,1.1-0.2,10.9,0,13.4s-4.8-4.2-13.9-7.3S-91.6,168.7-91.6,168.7z"/>
		<g>
			<g>
				<path class="st34" d="M-138.6,27c-3.2,6.1-7.8,10.1-10.2,8.8c-2.5-1.3-1.9-7.3,1.3-13.4c3.2-6.1,7.8-10.1,10.2-8.8
					C-134.9,14.9-135.4,20.9-138.6,27z"/>
				<path class="st27" d="M-137.7,27.7c-3.2,6.1-7.8,10.1-10.2,8.8c-2.5-1.3-1.9-7.3,1.3-13.4c3.2-6.1,7.8-10.1,10.2-8.8
					C-133.9,15.5-134.5,21.5-137.7,27.7z"/>
			</g>
			<g>
				<path class="st34" d="M-154.4,14.1c-2.5,4.7-6,7.8-7.9,6.8s-1.5-5.7,1-10.4s6-7.8,7.9-6.8C-151.4,4.7-151.9,9.4-154.4,14.1z"/>
				<path class="st27" d="M-153.6,14.6c-2.5,4.7-6,7.8-7.9,6.8s-1.5-5.7,1-10.4s6-7.8,7.9-6.8C-150.7,5.2-151.1,9.8-153.6,14.6z"/>
			</g>
		</g>
		<g>
			<g>
				<path class="st32" d="M-72.6,40.6c0,0,2.2,2.9,3,6.1s1.4,8,1.4,8l0.7-1.8c0,0,0.3,0.6,1.2,1.4c0.8,0.6,3.2,1.4,3.2,1.4
					s-0.7-3.4-1.6-7.3c-1.2-5.4-4.6-7.8-4.6-7.8l0.1,1.1C-69.1,41.8-71.3,40.7-72.6,40.6z"/>
				<path class="st30" d="M-68.2,42.1c0,0,1.7,1.5,2.8,4.6c1.1,3.1,1.6,6.9,1.6,6.9l-1.3-2.5l0.8,3.1c0,0-1.2-1.6-2.1-4.7
					c-0.9-3.2-3-7-3-7l1.5,0.7L-68.2,42.1z"/>
			</g>
			<path class="st36" d="M-78.4,47.6c0,0,7.6-0.9,5.3,6"/>
		</g>
		<g>
			<path class="st37" d="M-109.7,115c-4.2-0.3-22.5,2.5-22.2,6.7c0.2,2.9,23.2-4.4,23.2-4.4S-105.5,115.3-109.7,115z"/>
			<path class="st37" d="M-130.3,117.2c0,0-7.9-5.2-7.8-2.9c0.1,2.2,3.7,4.8,3.7,4.8s-8.8-1-9.4,0.5s8.8,1.6,8.3,1.8
				c-0.4,0.2-8.6,2-8,3.1s8.1-1.2,8.4-0.8c0.2,0.4-7,3.4-6.3,4.2c0.7,0.8,7.1-2.1,7.9-2.2c0.8-0.1-4,3.7-3.2,4.6
				c0.7,0.8,4.7-2.8,5.4-3.7s4.6-1.9,5.7-3.6c1.1-1.7-0.5-4.6-1.6-5.1C-128.3,117.4-130.3,117.2-130.3,117.2z"/>
		</g>
		<path class="st32" d="M-61.6,22c0,0-12.3-10.5-33-19.6c-19.7-8.7-33.4-12-33.4-12s0.1-19.7,18.7-24.1c9.1-2.1,24.5,3.8,22,4.8
			c-10.7,4.3-11.4,22.4-2.1,15c8-6.4,20.9,1.1,20.9,1.1s-13.1,8.2-8.6,9.1c5.4,1.1,18.6-2.5,15,1.6c-4.3,4.8-9.6,8.6-9.6,8.6
			s24.1-4.8,19.8,1.1S-61.6,22-61.6,22z"/>
	</g>
	<g>
		<g>
			<path class="st26" d="M-297.5,118.7c0,0-21.9-3.7-22.9,0.4c-0.7,2.9,23.4,2.8,23.4,2.8L-297.5,118.7z"/>
			<path class="st26" d="M-317.5,115.3c0,0-5.9-7.3-6.6-5.1s2.1,5.7,2.1,5.7s-8.1-3.6-9.1-2.4s7.9,4.1,7.4,4.2s-8.8-0.6-8.5,0.6
				c0.2,1.2,8.1,1.3,8.2,1.8s-7.7,1.2-7.2,2.1c0.4,0.9,7.4,0.1,8.2,0.2c0.8,0.1-4.9,2.4-4.5,3.4c0.4,0.9,5.4-1.3,6.3-1.9
				c0.9-0.7,5-0.4,6.5-1.7s0.9-4.5,0-5.3C-315.6,116-317.5,115.3-317.5,115.3z"/>
		</g>
		<path class="st27" d="M-338.1,64.3c4.9,0,12.8,0.5,16.6-1.6c7.7-4.4-14.5-13.5-27.3-23.3s29.1-16.4,37.6-12.1s37.7,28.6,38.3,36.5
			c0.6,7.9-20.7,27.9-20.7,27.9l-14.6-3C-308.1,88.6-347.6,64.3-338.1,64.3z"/>
		
			<linearGradient id="SVGID_45_" gradientUnits="userSpaceOnUse" x1="-347.1639" y1="187.5725" x2="-298.9462" y2="139.3548" gradientTransform="matrix(1 0 0 -1 0 208.5318)">
			<stop  offset="0" style="stop-color:#FFC76D"/>
			<stop  offset="1" style="stop-color:#E8E3E0"/>
		</linearGradient>
		<path class="st66" d="M-359.1,32.9c0,0-1.5,4.1,0.6,4.6s4.3-1.1,4.3-1.1s-1.1,8.6,1.6,7.5s4.8-2.6,4.8-2.6s-1,5.9,1.6,6.4
			c2.7,0.5,5.4-2.8,5.4-2.8s0,7.1,2.6,7.1s5.7-3.2,5.7-3.2s-2.5,5.3,1.8,5.9c4.3,0.5,5.4-1.6,5.4-1.6s0.5,4.4,3.2,4.8
			c3.7,0.5,5.1-1.9,5.1-1.9s3,4,4,3.5c1.1-0.5,5.9-2.7,5.9-2.7s-0.5,3.7,2.1,3.7s7-3.7,7-3.7s0,3.7,2.1,3.2s3.7-3.7,3.7-3.7
			s1.1,2.7,3.2,2.1c2.1-0.5,4.3-4.3,4.3-4.3L-359.1,32.9z"/>
		
			<linearGradient id="SVGID_46_" gradientUnits="userSpaceOnUse" x1="-371.6683" y1="25.4276" x2="-312.3836" y2="19.2522" gradientTransform="matrix(0.9996 2.982325e-02 2.982325e-02 -0.9996 30.1776 106.7008)">
			<stop  offset="0" style="stop-color:#FFC76D"/>
			<stop  offset="1" style="stop-color:#E8E3E0"/>
		</linearGradient>
		<path class="st67" d="M-281.4,77.1c0,0-3.2-7.5-6.4-5.4c-2.9,1.9-1.6,4.3-1.6,4.3s-1.6-3.7-3.7-2.1s-2.1,4.3-2.1,4.3
			s-1-5.3-3.7-3.2c-2.7,2.1-2.8,5.1-2.8,5.1s0.2-5.6-2.5-4.6s-2.2,2.8-2.2,2.8s-0.4-4.4-3.1-3.4s-3.3,2.1-3.3,2.1s-0.9-5.2-3.1-3.2
			c-2.2,2.1-2.7,2.5-2.7,2.5s0.6-5.1-2.1-4.6s-3.7,1.7-3.7,1.7s1.6-3.8-1.6-3.9s-3,1.9-3,1.9s0.4-6.1-2.3-4.1c-2.7,2.1-3,2.3-3,2.3
			s4.3-8.3,0.9-8.2c-3.4,0.1-3.8,5.4-3.8,5.4s1.6-7.5-0.5-7s-1.2,5.4-1.2,5.4S-328,75.8-327,76.4s41.4,12,41.4,12L-281.4,77.1z"/>
		<g>
			<path class="st30" d="M-300.1,157.2c0,0,6.7,16.7,7.4,20.4c0.6,3.6-9.3,5.4-10.2,8c-0.9,2.6,6.4,1.1,6.4,1.1s2.5,2.4,4.8,1.8
				c1.5-0.4,8.3-1,12.9-1.3c2.3-0.2,4-2.3,3.7-4.6l-2.8-20.2C-278,162.3-298.8,147.8-300.1,157.2z"/>
			<path class="st31" d="M-275.8,177.7c0,0-9.1-7.5-14.6-9.3s-3.9,4.2-3.9,4.2l-5.8-15.7c0,0,19.7,3,20.2,3.6s3.1,5.1,3.1,5.1
				L-275.8,177.7z"/>
			<path class="st15" d="M-298.1,187c0,0,0.6-4.1-1-4s-4.6,1.9-5.2,3.1C-304.9,187.3-298.1,187-298.1,187z"/>
			<path class="st15" d="M-290.9,188.3c0,0,0.6-3.5-1.9-3.5c-2.4,0-5.5,1.2-6.1,3S-290.9,188.3-290.9,188.3z"/>
		</g>
		<path class="st32" d="M-248.7,135.5c0,0,9.1-22.2,6.4-23.6c-2.7-1.3-10.9-7.2-9.6-10.2c1.2-3,23.5-11.5,20.9-12.8
			c-2.7-1.3-9.6-16.6-9.6-16.6s23.3-5.9,21.6-7.1S-230.5,55-230.5,55l13.4-12.9l-13.3-6.1c0,0-4.4-13,0.9-16.8
			c5.4-3.7-24.6,1.1-24.6,1.1l-28.4,98"/>
		<path class="st32" d="M-250.9,133.3l17.1-13.3l8.6,12.3l2.9-11.6l13.7,2l4.6-9.9l6.7,6.7c0,0-20,20-26.7,25.5s-27.3,3-27.3,3
			L-250.9,133.3z"/>
		
			<linearGradient id="SVGID_47_" gradientUnits="userSpaceOnUse" x1="-360.6183" y1="121.8283" x2="-197.4182" y2="121.8283" gradientTransform="matrix(1 0 0 -1 0 208.5318)">
			<stop  offset="0" style="stop-color:#6BC62A"/>
			<stop  offset="1" style="stop-color:#00B53E"/>
		</linearGradient>
		<path class="st68" d="M-230.7,136.4c-31.9-3.1-29.2-27.7-20.1-43.2c0.1-0.1,0.1-0.2,0-0.3c12.8-13.2,26.4-39.3,23.1-48.9
			c-4.3-12.3-76.6-66.1-99.6-61.3s-33.3,48.5-33.3,48.5c4,15.2,49,32.2,68.8,26.5c7.7-2.3,13.5-3.7,16.9,2.9c1.8,3.5,0,8.1-18.2,15
			c-15.5,5.9-39.4-4.5-43.4-10.7c-3.4-5.4-12.9,2.5-3.8,10.1c6,5,20.4,13.9,43.8,20.4c-2.2,3.3-5.1,8.3-5.8,10.2
			c-1,2.8-4.1,8.9-5.9,14.5c-1.7,5.6-5.5,12.6-6.4,21.4c-0.9,8.8,6.9,18.9,14.9,21.5s12.6,3.3,19.9,5.6c4.1,3.9,8.9,7.3,12.7,11.7
			c-5.1,0.9-11.6,2-15,6.2c1.6,1.7,3.4,2.8,5.6,3.1c3.5,0.5,5.6,0.8,9.4,1.3c2.6,0.3,6.9-0.3,10.7-0.6c2.8-0.2,4.9-2.6,5-5.4
			c0.1-5.1-0.4-9.7,0.1-15.3c25.1-1.8,37.8-29.4,53.9-50C-207.5,118.8-220.7,137.4-230.7,136.4z"/>
		<g>
			<path class="st2" d="M-330.1,105.3c0,0-13.3-8.3-4.1-22.6C-334.1,82.6-322.6,89.5-330.1,105.3z"/>
			<path class="st2" d="M-332.1,107.3c0,0-5.8,14.9-21.5,8.3C-353.7,115.6-349,102.6-332.1,107.3z"/>
			<path class="st2" d="M-338.7,101.6c0,0-15.6,3.7-19.1-13C-357.8,88.6-344.5,85.1-338.7,101.6z"/>
			<g>
				<path class="st2" d="M-340.8,100.9c0-0.1,7.6,1.7,10.7,4.4s6.3,6.1,7.8,8.5s2.1,5,2.2,6.8s-0.2,3-0.3,2.9
					c-0.1,0-0.1-1.1-0.4-2.9c-0.3-1.7-3.9-4.5-5.3-6.7C-327.4,111.6-340.8,101-340.8,100.9z"/>
			</g>
		</g>
		<path class="st15" d="M-278.6,188.3c0,0,0.6-4.1-1-4s-4.6,1.9-5.2,3.1C-285.3,188.6-278.6,188.3-278.6,188.3z"/>
		<path class="st15" d="M-271.4,189.7c0,0,0.6-3.5-1.8-3.5s-5.5,1.2-6.1,3S-271.4,189.7-271.4,189.7z"/>
		<path class="st31" d="M-279.8,168.7c0,0,28.4-0.8,28.4,0.5c0,1.1-0.2,10.9,0,13.4s-4.8-4.2-13.9-7.3S-279.8,168.7-279.8,168.7z"/>
		<g>
			<g>
				<path class="st34" d="M-326.8,27c-3.2,6.1-7.8,10.1-10.2,8.8c-2.5-1.3-1.9-7.3,1.3-13.4c3.2-6.1,7.8-10.1,10.2-8.8
					C-323.1,14.9-323.6,20.9-326.8,27z"/>
				<path class="st27" d="M-325.9,27.7c-3.2,6.1-7.8,10.1-10.2,8.8c-2.5-1.3-1.9-7.3,1.3-13.4c3.2-6.1,7.8-10.1,10.2-8.8
					C-322.1,15.5-322.7,21.5-325.9,27.7z"/>
			</g>
			<g>
				<path class="st34" d="M-342.6,14.1c-2.5,4.7-6,7.8-7.9,6.8s-1.5-5.7,1-10.4s6-7.8,7.9-6.8C-339.6,4.7-340.1,9.4-342.6,14.1z"/>
				<path class="st27" d="M-341.8,14.6c-2.5,4.7-6,7.8-7.9,6.8s-1.5-5.7,1-10.4s6-7.8,7.9-6.8C-338.9,5.2-339.3,9.8-341.8,14.6z"/>
			</g>
			<g>
				<path class="st35" d="M-328.3,7.9c0,0,4.8-2.5,8.6-0.4c7.2,4,2.9,14.8,2.9,14.8s2.3-6.3-4.9-12.2
					C-325.3,7.3-328.3,7.9-328.3,7.9z"/>
				<path class="st32" d="M-328.3,7.9c0,0,5.4,0.7,9.3,5.9s1.2,11,1.2,11s3.4-6-0.1-11.4C-321.3,7.9-328.3,7.9-328.3,7.9z"/>
				<path class="st25" d="M-326.3,9.6c0,0,5.8,3.5,6.8,8.9s-1.9,9.4-1.9,9.4s4-3.6,3.5-9.5C-318.6,12.2-326.3,9.6-326.3,9.6z"/>
			</g>
			<g>
				<path class="st35" d="M-341.8,0.4c0,0,2.8-1.5,5.1-0.2C-332.4,2.6-335,9-335,9s1.3-3.7-2.9-7.2C-340,0-341.8,0.4-341.8,0.4z"/>
				<path class="st32" d="M-341.8,0.4c0,0,3.2,0.4,5.5,3.5s0.7,6.5,0.7,6.5s2-3.6-0.1-6.8C-337.7,0.4-341.8,0.4-341.8,0.4z"/>
				<path class="st25" d="M-340.6,1.4c0,0,3.4,2,4,5.2s-1.2,5.6-1.2,5.6s2.4-2.2,2.1-5.6C-336,3-340.6,1.4-340.6,1.4z"/>
			</g>
		</g>
		<g>
			<g>
				<path class="st32" d="M-260.8,40.6c0,0,2.2,2.9,3,6.1s1.4,8,1.4,8l0.7-1.8c0,0,0.3,0.6,1.2,1.4c0.8,0.6,3.2,1.4,3.2,1.4
					s-0.7-3.4-1.6-7.3c-1.2-5.4-4.6-7.8-4.6-7.8l0.1,1.1C-257.3,41.8-259.5,40.7-260.8,40.6z"/>
				<path class="st30" d="M-256.4,42.1c0,0,1.7,1.5,2.8,4.6c1.1,3.1,1.6,6.9,1.6,6.9l-1.3-2.5l0.8,3.1c0,0-1.2-1.6-2.1-4.7
					c-0.9-3.2-3-7-3-7l1.5,0.7L-256.4,42.1z"/>
			</g>
			<path class="st36" d="M-266.6,47.6c0,0,7.6-0.9,5.3,6"/>
		</g>
		<g>
			<path class="st37" d="M-297.9,115c-4.2-0.3-22.5,2.5-22.2,6.7c0.2,2.9,23.2-4.4,23.2-4.4S-293.7,115.3-297.9,115z"/>
			<path class="st37" d="M-318.5,117.2c0,0-7.9-5.2-7.8-2.9c0.1,2.2,3.7,4.8,3.7,4.8s-8.8-1-9.4,0.5s8.8,1.6,8.3,1.8
				c-0.4,0.2-8.6,2-8,3.1s8.1-1.2,8.4-0.8c0.2,0.4-7,3.4-6.3,4.2c0.7,0.8,7.1-2.1,7.9-2.2c0.8-0.1-4,3.7-3.2,4.6
				c0.7,0.8,4.7-2.8,5.4-3.7s4.6-1.9,5.7-3.6c1.1-1.7-0.5-4.6-1.6-5.1S-318.5,117.2-318.5,117.2z"/>
		</g>
		<path class="st32" d="M-249.8,22c0,0-12.3-10.5-33-19.6c-19.7-8.7-33.4-12-33.4-12s0.1-19.7,18.7-24.1c9.1-2.1,24.5,3.8,22,4.8
			c-10.7,4.3-11.4,22.4-2.1,15c8-6.4,20.9,1.1,20.9,1.1s-13.1,8.2-8.6,9.1c5.4,1.1,18.6-2.5,15,1.6c-4.3,4.8-9.6,8.6-9.6,8.6
			s24.1-4.8,19.8,1.1S-249.8,22-249.8,22z"/>
	</g>
	<g>
		<path class="st35" d="M13.4-25.9c0,0,4.8-2.5,8.6-0.4c7.2,4,2.9,14.8,2.9,14.8s2.3-6.3-4.9-12.2C16.4-26.5,13.4-25.9,13.4-25.9z"
			/>
		<path class="st32" d="M13.4-25.9c0,0,5.4,0.7,9.3,5.9s1.2,11,1.2,11s3.4-6-0.1-11.4C20.4-25.9,13.4-25.9,13.4-25.9z"/>
		<path class="st25" d="M15.4-24.2c0,0,5.8,3.5,6.8,8.9s-1.9,9.4-1.9,9.4s4-3.6,3.5-9.5C23.1-21.6,15.4-24.2,15.4-24.2z"/>
	</g>
	<g>
		<path class="st35" d="M-0.1-33.4c0,0,2.8-1.5,5.1-0.2c4.3,2.4,1.7,8.8,1.7,8.8S8-28.5,3.8-32C1.7-33.8-0.1-33.4-0.1-33.4z"/>
		<path class="st32" d="M-0.1-33.4c0,0,3.2,0.4,5.5,3.5s0.7,6.5,0.7,6.5s2-3.6-0.1-6.8C4-33.4-0.1-33.4-0.1-33.4z"/>
		<path class="st25" d="M1.1-32.4c0,0,3.4,2,4,5.2s-1.2,5.6-1.2,5.6s2.4-2.2,2.1-5.6C5.7-30.8,1.1-32.4,1.1-32.4z"/>
	</g>
	<g>
		<path class="st2" d="M27.7,22.6c0,0-13.3-8.3-4.1-22.6C23.7-0.1,35.2,6.8,27.7,22.6z"/>
		<path class="st2" d="M25.7,24.6c0,0-5.8,14.9-21.5,8.3C4.1,32.9,8.8,19.9,25.7,24.6z"/>
		<path class="st2" d="M19.1,18.9c0,0-15.6,3.7-19.1-13C0,5.9,13.3,2.4,19.1,18.9z"/>
		<g>
			<path class="st2" d="M17,18.2c0-0.1,7.6,1.7,10.7,4.4s6.3,6.1,7.8,8.5s2.1,5,2.2,6.8s-0.2,3-0.3,2.9c-0.1,0-0.1-1.1-0.4-2.9
				c-0.3-1.7-3.9-4.5-5.3-6.7C30.4,28.9,17,18.3,17,18.2z"/>
		</g>
	</g>
</g>
</svg>
