<?xml version="1.0" encoding="utf-8"?>
<!-- Generator: Adobe Illustrator 23.0.1, SVG Export Plug-In . SVG Version: 6.00 Build 0)  -->
<svg version="1.1" xmlns="http://www.w3.org/2000/svg" xmlns:xlink="http://www.w3.org/1999/xlink" x="0px" y="0px" width="163.3px"
	 height="225.1px" viewBox="0 0 163.3 225.1" style="enable-background:new 0 0 163.3 225.1;" xml:space="preserve">
<style type="text/css">
	.st0{fill:#FFFFFF;}
	.st1{clip-path:url(#SVGID_2_);}
	.st2{fill:#6BC62A;}
	.st3{clip-path:url(#SVGID_4_);}
	.st4{fill:none;stroke:#7A6356;stroke-width:3;stroke-linecap:round;stroke-linejoin:round;stroke-miterlimit:10;}
	.st5{fill:#7A6356;}
	.st6{fill:#FFFFFF;stroke:#7A6356;stroke-width:3;stroke-linecap:round;stroke-linejoin:round;stroke-miterlimit:10;}
	.st7{fill:#009380;}
	.st8{fill:url(#SVGID_5_);}
	.st9{fill:url(#SVGID_6_);}
	.st10{fill:#A60C17;}
	.st11{fill:url(#SVGID_7_);}
	.st12{fill:#E02229;}
	.st13{opacity:0.88;fill:#D50000;enable-background:new    ;}
	.st14{fill:url(#SVGID_8_);}
	.st15{fill:#491B02;}
	.st16{fill:url(#SVGID_9_);}
	.st17{fill:url(#SVGID_10_);}
	.st18{fill:url(#SVGID_11_);}
	.st19{fill:#680200;}
	.st20{fill:#A30B05;}
	.st21{fill:#FF5B56;}
	.st22{fill:#A40000;}
	.st23{opacity:0.5;fill:#D50000;enable-background:new    ;}
	.st24{fill:#6A1100;}
	.st25{opacity:0.43;fill:#FFFFFF;enable-background:new    ;}
	.st26{fill:#006325;}
	.st27{fill:#004B25;}
	.st28{fill:url(#SVGID_12_);}
	.st29{fill:url(#SVGID_13_);}
	.st30{fill:#00923D;}
	.st31{opacity:0.4;fill:#006830;enable-background:new    ;}
	.st32{fill:#006830;}
	.st33{fill:url(#SVGID_14_);}
	.st34{fill:#D6E000;}
	.st35{opacity:0.5;fill:#00923D;enable-background:new    ;}
	.st36{fill:none;stroke:#000000;stroke-width:2;stroke-linecap:round;stroke-linejoin:round;stroke-miterlimit:10;}
	.st37{fill:#00962B;}
	.st38{fill:url(#SVGID_15_);}
	.st39{fill:url(#SVGID_16_);}
	.st40{fill:url(#SVGID_17_);}
	.st41{fill:url(#SVGID_18_);}
	.st42{fill:url(#SVGID_19_);}
	.st43{fill:url(#SVGID_20_);}
	.st44{fill:url(#SVGID_21_);}
	.st45{clip-path:url(#SVGID_23_);}
	.st46{fill:url(#SVGID_24_);}
	.st47{fill:url(#SVGID_25_);}
	.st48{fill:url(#SVGID_26_);}
	.st49{clip-path:url(#SVGID_28_);}
	.st50{fill:url(#SVGID_29_);}
	.st51{fill:url(#SVGID_30_);}
	.st52{fill:url(#SVGID_31_);}
	.st53{fill:url(#SVGID_32_);}
	.st54{fill:url(#SVGID_33_);}
	.st55{fill:url(#SVGID_34_);}
	.st56{fill:url(#SVGID_35_);}
	.st57{fill:url(#SVGID_36_);}
	.st58{fill:url(#SVGID_37_);}
	.st59{fill:url(#SVGID_38_);}
	.st60{fill:url(#SVGID_39_);}
	.st61{fill:url(#SVGID_40_);}
	.st62{fill:url(#SVGID_41_);}
	.st63{fill:url(#SVGID_42_);}
	.st64{fill:url(#SVGID_43_);}
	.st65{fill:url(#SVGID_44_);}
	.st66{fill:url(#SVGID_45_);}
	.st67{fill:url(#SVGID_46_);}
	.st68{fill:url(#SVGID_47_);}
</style>
<g id="Layer_2">
	<rect x="-1473.2" y="-441.9" class="st0" width="1146.2" height="404.9"/>
</g>
<g id="green">
	<g>
		<defs>
			<rect id="SVGID_1_" x="-811.6" y="-232.6" width="49.7" height="58"/>
		</defs>
		<clipPath id="SVGID_2_">
			<use xlink:href="#SVGID_1_"  style="overflow:visible;"/>
		</clipPath>
		<g class="st1">
			<path class="st2" d="M-780.3-190.8c0,0-4-20.3,18.1-24.4C-762.1-215.2-758.3-197.9-780.3-190.8z"/>
			<path class="st2" d="M-783.5-190.6c0,0-20.3,7.5-28.1-13.7C-811.6-204.2-794.2-211-783.5-190.6z"/>
			<path class="st2" d="M-784.6-202.5c0,0-17.7-11.7-4.8-30.1C-789.4-232.6-773.9-223-784.6-202.5z"/>
			<g>
				<path class="st2" d="M-785.8-205.1c0,0,0.4-2.1,1.3-0.4c1.6,3.1,4.1,11.2,4.2,14.7c0.2,5.4-0.1,11.6-1.1,15.2
					c-1,3.6-2.8,6.5-4.5,8.3c-1.6,1.8-3,2.5-3.1,2.4c-0.1-0.1,1-1.1,2.4-2.9c1.4-1.8-0.5,1.2,1.7-11.2
					C-783-189.5-785.9-205.1-785.8-205.1z"/>
			</g>
		</g>
	</g>
	<g>
		<defs>
			<rect id="SVGID_3_" x="-230.3" y="0" width="49.7" height="58"/>
		</defs>
		<clipPath id="SVGID_4_">
			<use xlink:href="#SVGID_3_"  style="overflow:visible;"/>
		</clipPath>
		<g class="st3">
			<path class="st2" d="M-199,41.8c0,0-4-20.3,18.1-24.4C-180.8,17.4-177,34.7-199,41.8z"/>
			<path class="st2" d="M-202.2,42c0,0-20.3,7.5-28.1-13.7C-230.3,28.4-212.9,21.6-202.2,42z"/>
			<path class="st2" d="M-203.3,30.1c0,0-17.7-11.7-4.8-30.1C-208.1,0-192.6,9.7-203.3,30.1z"/>
			<g>
				<path class="st2" d="M-204.5,27.5c0,0,0.4-2.1,1.3-0.4c1.6,3.1,4.1,11.2,4.2,14.7c0.2,5.4-0.1,11.6-1.1,15.2
					c-1,3.6-2.8,6.5-4.5,8.3c-1.6,1.8-3,2.5-3.1,2.4c-0.1-0.1,1-1.1,2.4-2.9c1.4-1.8-0.5,1.2,1.7-11.2
					C-201.7,43.1-204.6,27.5-204.5,27.5z"/>
			</g>
		</g>
	</g>
</g>
<g id="fire">
</g>
<g id="Layer_1">
	<line class="st4" x1="-1000.6" y1="-283" x2="-783" y2="-283"/>
	<circle class="st5" cx="-891.8" cy="-306.3" r="3.8"/>
	<path class="st5" d="M-884.5-326.7c-3.4-4.1-5.8-11.8-6.9-15.2c-0.1-0.5-0.8-0.5-1,0c-0.8,3-2.9,9.3-6.9,14.7
		c-3.7,5,0.4,12.3,7.3,12.3c0,0,0,0,0.1,0c0,0,0,0,0.1,0C-884.9-314.9-880.5-321.9-884.5-326.7z M-891-317.9
		c-3.4,0.6-6.2-2.3-5.7-5.7c0.3-2,2-3.7,4-4c3.4-0.6,6.2,2.3,5.7,5.7C-887.4-319.9-889-318.2-891-317.9z"/>
	<line class="st4" x1="-891.8" y1="-283" x2="-891.8" y2="-316.1"/>
	<circle class="st6" cx="-891.8" cy="-283.5" r="12"/>
	<g>
		<path class="st7" d="M-830.8-173.1c9.5,17.3,27,28.8,47,28.8c20,0,37.5-11.6,47-28.8H-830.8z"/>
		<polygon class="st4" points="-783.9,-281.3 -831.2,-173.1 -736.6,-173.1 		"/>
		<circle class="st2" cx="-783.9" cy="-281.9" r="6.5"/>
	</g>
	<g>
		<linearGradient id="SVGID_5_" gradientUnits="userSpaceOnUse" x1="-1046.6813" y1="-158.6608" x2="-952.7472" y2="-158.6608">
			<stop  offset="0" style="stop-color:#FF3A2D"/>
			<stop  offset="1" style="stop-color:#D50000"/>
		</linearGradient>
		<path class="st8" d="M-1046.7-173.1c9.5,17.3,27,28.8,47,28.8s37.5-11.6,47-28.8H-1046.7z"/>
		<polygon class="st4" points="-999.7,-281.3 -1047,-173.1 -952.4,-173.1 		"/>
		<linearGradient id="SVGID_6_" gradientUnits="userSpaceOnUse" x1="-1006.2417" y1="-281.8669" x2="-993.1868" y2="-281.8669">
			<stop  offset="0" style="stop-color:#FF3A2D"/>
			<stop  offset="1" style="stop-color:#D50000"/>
		</linearGradient>
		<circle class="st9" cx="-999.7" cy="-281.9" r="6.5"/>
	</g>
	<g>
		<path class="st10" d="M-1184.1-234.9c0,0-0.2-1.8-9.7-1.8c-4.9,0-10.3-1.8-10.9-6.7c-1.1-8.8,9.7-19.4,22.5-29.1
			c12.8-9.7-29.1-16.4-37.6-12.1c-8.5,4.2-27.9,36.4-28.5,44.3c-0.6,7.9,10.9,20,10.9,20l14.6-3L-1184.1-234.9z"/>
		<path class="st10" d="M-1289.1-183.9c-0.7-1.8-0.8-18.3,1.2-17.6s13,0.3,13,0.3s-15-17.2-12.4-18.5c2.7-1.3,23.9-1.3,22.7-4.4
			c-1.2-3-22.4-8.8-19.8-10.1c2.6-1.3,9.7-14.2,9.7-14.2s-18.6-1.4-16.9-2.6c1.7-1.2,11.5-10.2,11.5-10.2l-13.4-12.9l13.3-6.1
			c0,0-7-15-5.2-15.2l26.7,2.2l6.7,99L-1289.1-183.9"/>
		<path class="st10" d="M-1289.1-183.9l-10.3-9.1l-8.6,16l-2.9-15.4l-14.2,3.1l-4-11l-6.7,6.7c0,0,20,20,26.7,25.5
			c6.7,5.5,27.3,3,27.3,3L-1289.1-183.9z"/>
		
			<linearGradient id="SVGID_7_" gradientUnits="userSpaceOnUse" x1="-1196.4227" y1="762.8533" x2="-1110.3423" y2="762.8533" gradientTransform="matrix(0.9906 -0.1366 -0.1366 -0.9906 52.4413 331.9893)">
			<stop  offset="0" style="stop-color:#E6E6E6"/>
			<stop  offset="1" style="stop-color:#FF9300"/>
		</linearGradient>
		<path class="st11" d="M-1225.2-246.6l6.1,2.8l-1.1-8.2l7.5,3.8l-1-7.9c0,0,6.2,2.3,7.2,1.8s2.9-7.1,2.9-7.1l4.4,2.2l1.7-5.4l5,4.7
			l2.4-5.5l4.3,0.9l1-6.2l8.7,3.6l2.2-7.2l6.1,4.4l0.1-9.2c0,0,8.2,7.2,8,6c-0.1-1.2-0.9-8.7-0.9-8.7s8.5,5.5,8.2,4.8
			c-0.3-0.7-3-12.1-3-12.1l-8.9-0.2l-71.5,37.6L-1225.2-246.6z"/>
		<path class="st12" d="M-1224.7-158.6c0,0-6.7,16.7-7.3,20.4c-0.6,3.6,9.3,5.3,10.2,7.9c0.9,2.6-6.4,1.2-6.4,1.2s-2.5,2.4-4.8,1.8
			c-1.5-0.4-8.3-0.9-12.9-1.3c-2.3-0.2-4-2.3-3.7-4.6l2.8-20.3C-1246.8-153.4-1226.1-168-1224.7-158.6z"/>
		<path class="st13" d="M-1249-138c0,0,9.1-7.5,14.6-9.3s3.9,4.2,3.9,4.2l5.8-15.7c0,0-19.7,3.1-20.2,3.7s-3.1,5.1-3.1,5.1
			L-1249-138z"/>
		<g>
			
				<linearGradient id="SVGID_8_" gradientUnits="userSpaceOnUse" x1="-1303.5238" y1="729.8861" x2="-1110.076" y2="729.8861" gradientTransform="matrix(0.9906 -0.1366 -0.1366 -0.9906 52.4413 331.9893)">
				<stop  offset="0" style="stop-color:#FF3A2D"/>
				<stop  offset="1" style="stop-color:#D50000"/>
			</linearGradient>
			<path class="st14" d="M-1225.7-195.9c1.7,5.6,5.9,17.6,6.8,26.4c0.9,8.8-6.6,16.7-14.7,19.3s-12.6,3.3-19.9,5.6
				c-4.1,3.9-8.9,7.3-12.7,11.7c5.1,0.9,11.6,2,15,6.2c-1.6,1.7-3.4,2.8-5.6,3.1c-3.5,0.5-5.6,0.8-9.4,1.3
				c-2.6,0.3-6.9-0.3-10.7-0.6c-2.8-0.2-4.9-2.6-5-5.4c-0.1-5.1,0.4-9.7-0.1-15.3c-25.1-1.8-37.8-29.4-53.9-50
				c10.2-0.6,23.3,17.4,33.4,17s31.8-29,35.4-39.2s-8.8-26.3-13.5-40.4c-4.7-14.2-7.7-24.6,10-38.1c17.7-13.5,65.5-48,82.3-36.3
				c16.8,11.8,41.6,33.9,31.9,45.2c-9.6,11.3-72.3,27.4-74.2,47.4c-1.9,20,4.4,12.1,12.5,9.4c7.4-2.4,29.2-11.4,34-6.5
				c4.8,4.9-12.7,8.4-27.8,11.8c-14.3,3.2-19.3,10.1-20.9,10.3s3.9,6.8,4.8,9.6C-1226.9-200.7-1227.4-201.4-1225.7-195.9z"/>
		</g>
		<path class="st15" d="M-1226.6-128.8c0,0-0.6-4.1,1-4c1.6,0.1,4.6,1.9,5.2,3.1C-1219.9-128.5-1226.6-128.8-1226.6-128.8z"/>
		<path class="st15" d="M-1233.9-127.4c0,0-0.6-3.5,1.8-3.5c2.4,0,5.5,1.2,6.1,3S-1233.9-127.4-1233.9-127.4z"/>
		<path class="st15" d="M-1254.6-124.7c0,0-0.6-4.1,1-4c1.6,0.1,4.6,1.9,5.2,3.1C-1247.8-124.4-1254.6-124.7-1254.6-124.7z"/>
		<path class="st15" d="M-1261.8-123.3c0,0-0.6-3.5,1.8-3.5s5.5,1.2,6.1,3C-1253.3-122-1261.8-123.3-1261.8-123.3z"/>
		<path class="st13" d="M-1253.3-145c0,0-27.3,1.2-28.5,0.6c-1.2-0.6,0.4,10.9,0.2,13.3c-0.2,2.4,4.7-3.6,13.8-6.6
			S-1253.3-145-1253.3-145z"/>
		<g>
			
				<linearGradient id="SVGID_9_" gradientUnits="userSpaceOnUse" x1="-1177.9567" y1="416.4888" x2="-1074.8923" y2="416.4888" gradientTransform="matrix(0.9932 -0.1162 -0.101 -0.8634 19.0464 -27.4324)">
				<stop  offset="0.1522" style="stop-color:#FF3A2D"/>
				<stop  offset="0.1907" style="stop-color:#FF462A"/>
				<stop  offset="0.4015" style="stop-color:#FF811B"/>
				<stop  offset="0.5953" style="stop-color:#FFB00F"/>
				<stop  offset="0.7658" style="stop-color:#FFD207"/>
				<stop  offset="0.9065" style="stop-color:#FFE702"/>
				<stop  offset="1" style="stop-color:#FFEE00"/>
			</linearGradient>
			<path class="st16" d="M-1193.2-251.8c0-0.1,0-0.2,0.1-0.2c1.9-0.9,27.6-13.6,37-15.2c11.3-1.9,21-0.7,26.6-5.5
				c3.9-3.3,4.4-6.3,4.4-7.6c0-0.2,0.3-0.3,0.4-0.1c1.2,1.9,4.1,7.3,1.8,10.5c-2.1,2.9-4.6,5.3-6.1,6.5c-0.2,0.2,0,0.4,0.2,0.3
				c3-1.4,10.5-4.8,14.8-5.6c7.6-1.4,18.1,1.6,22.8,4.2c0.6,0.3,0.4,1.2-0.3,1.3c-3.4,0.3-10.2,1.4-13.7,5.3
				c-4.8,5.3-21.6,27-40.1,23.6C-1163.6-237.6-1193-246.3-1193.2-251.8z"/>
			
				<linearGradient id="SVGID_10_" gradientUnits="userSpaceOnUse" x1="-1172.5229" y1="411.5174" x2="-1106.5808" y2="411.5174" gradientTransform="matrix(0.9932 -0.1162 -0.101 -0.8634 19.0464 -27.4324)">
				<stop  offset="0.1522" style="stop-color:#FF5A19"/>
				<stop  offset="1" style="stop-color:#FFEE00"/>
			</linearGradient>
			<path class="st17" d="M-1187.6-250.7c0,0,30-12.5,42.3-8.4c12.3,4.1,13.7,10,20.7,8c11.3-3.3-8.6,10.3-20.6,8.6
				C-1157.2-244.3-1187.6-250.7-1187.6-250.7z"/>
			
				<linearGradient id="SVGID_11_" gradientUnits="userSpaceOnUse" x1="-1170.7292" y1="412.293" x2="-1120.2313" y2="412.293" gradientTransform="matrix(0.9932 -0.1162 -0.101 -0.8634 19.0464 -27.4324)">
				<stop  offset="0.1522" style="stop-color:#FFB02A"/>
				<stop  offset="0.9393" style="stop-color:#FFEE00"/>
			</linearGradient>
			<path class="st18" d="M-1185.8-251c0,0,21.5-5.6,28.8-5.6c7.3-0.1,10.6,2.3,16.2,4.3c1.3,0.5,4.3,1,5.8,1.3
				c0.3,0,0.3,0.4,0.1,0.5c-2.1,1-8.4,3.9-14.4,4.9C-1156.8-244.3-1185.8-251-1185.8-251z"/>
		</g>
		<g>
			<path class="st19" d="M-1231.7-263.4c0,0-3.2-1.9-6.4-2.4c-3.2-0.5-8.1-0.6-8.1-0.6l1.7-0.9c0,0-0.7-0.2-1.5-1.1
				c-0.7-0.7-1.8-3.1-1.8-3.1s3.5,0.4,7.4,0.8c5.5,0.7,8.2,3.8,8.2,3.8h-1.1C-1233.3-266.8-1231.9-264.7-1231.7-263.4z"/>
			<path class="st20" d="M-1233.7-267.6c0,0-1.6-1.5-4.8-2.3c-3.2-0.8-7-0.9-7-0.9l2.7,1l-3.2-0.5c0,0,1.7,1,4.9,1.6
				c3.2,0.6,7.3,2.3,7.3,2.3l-0.8-1.4L-1233.7-267.6z"/>
		</g>
		<path class="st10" d="M-1232.6-204.6c0,0,0.8,0.3,5.4,0.6c4.6,0.3,6-7.3,9-8s1.1,5.9,1.6,6.6c0.4,0.7,1.5-4.1,1.5-4.1
			s0.1,4.3,0.8,3.9c0.7-0.4,1-5.4,1-5.4s1.2,8.3,2.1,2.5c1-5.8-3.4-7.7-6.1-8.6c-2.7-0.9-6.9,7.1-9.6,7.8c-2.6,0.6-6.7-2.8-6.7-2.8
			L-1232.6-204.6z"/>
		<g>
			<circle cx="-1238" cy="-258.3" r="4.2"/>
			<circle class="st0" cx="-1237.7" cy="-259.1" r="1.5"/>
			<circle class="st0" cx="-1239.3" cy="-256.6" r="0.7"/>
		</g>
		<path class="st10" d="M-1257.7-198.9c0,0,0.8,0.1,5.3-1s3.5-8.8,6.1-10.3c2.6-1.5,2.8,5.3,3.5,5.9c0.6,0.6,0.2-4.4,0.2-4.4
			s1.4,4.1,1.9,3.5c0.6-0.6-0.7-5.5-0.7-5.5s3.6,7.5,2.8,1.7c-0.8-5.8-5.5-6.3-8.4-6.3s-4.5,8.9-6.8,10.3c-2.3,1.4-7.3-0.6-7.3-0.6
			L-1257.7-198.9z"/>
		<g>
			<path class="st21" d="M-1191.4-292.4c3.2,6.1,7.8,10.1,10.2,8.8c2.5-1.3,1.9-7.3-1.3-13.4c-3.2-6.1-7.8-10.1-10.2-8.8
				C-1195.1-304.5-1194.5-298.5-1191.4-292.4z"/>
			<path class="st22" d="M-1192.3-291.8c3.2,6.1,7.8,10.1,10.2,8.8c2.5-1.3,1.9-7.3-1.3-13.4c-3.2-6.1-7.8-10.1-10.2-8.8
				C-1196.1-303.9-1195.5-297.9-1192.3-291.8z"/>
		</g>
		<g>
			<path class="st21" d="M-1175.6-305.3c2.5,4.7,6,7.8,7.9,6.8c1.9-1,1.5-5.7-1-10.4c-2.5-4.7-6-7.8-7.9-6.8
				C-1178.5-314.7-1178.1-310.1-1175.6-305.3z"/>
			<path class="st22" d="M-1176.4-304.8c2.5,4.7,6,7.8,7.9,6.8c1.9-1,1.5-5.7-1-10.4c-2.5-4.7-6-7.8-7.9-6.8
				S-1178.8-309.6-1176.4-304.8z"/>
		</g>
		<g>
			<path class="st23" d="M-1189.9-311.5c0,0-4.8-2.5-8.6-0.4c-7.2,4-2.9,14.8-2.9,14.8s-2.3-6.3,4.9-12.2
				C-1192.8-312.1-1189.9-311.5-1189.9-311.5z"/>
			<path class="st24" d="M-1189.9-311.5c0,0-5.4,0.7-9.3,5.9c-3.9,5.2-1.2,11-1.2,11s-3.4-6,0.1-11.4
				C-1196.8-311.5-1189.9-311.5-1189.9-311.5z"/>
			<path class="st25" d="M-1191.8-309.9c0,0-5.8,3.5-6.8,8.9c-1,5.4,1.9,9.4,1.9,9.4s-4-3.6-3.5-9.5
				C-1199.6-307.2-1191.8-309.9-1191.8-309.9z"/>
		</g>
		<g>
			<path class="st23" d="M-1176.4-319c0,0-2.8-1.5-5.1-0.2c-4.3,2.4-1.7,8.8-1.7,8.8s-1.3-3.7,2.9-7.2
				C-1178.1-319.4-1176.4-319-1176.4-319z"/>
			<path class="st24" d="M-1176.4-319c0,0-3.2,0.4-5.5,3.5c-2.3,3.1-0.7,6.5-0.7,6.5s-2-3.6,0.1-6.8
				C-1180.5-319-1176.4-319-1176.4-319z"/>
			<path class="st25" d="M-1177.6-318c0,0-3.4,2-4,5.2c-0.6,3.2,1.2,5.6,1.2,5.6s-2.4-2.2-2.1-5.6
				C-1182.1-316.4-1177.6-318-1177.6-318z"/>
		</g>
		<path class="st10" d="M-1270.3-294.4c0,0,11.5-10.3,32.2-19.4c19.7-8.7,29.7-9.1,29.7-9.1s-4.9-12.7,6.7-17.6
			c11.6-4.9-11.5-12.1-22.5,0c-6.9,7.7-10.3-6.7-10.3-6.7l-9.1,21.9l-12.1-3.6l-3.6,18.8l-13.4,1.2L-1270.3-294.4z"/>
	</g>
	<g>
		<g>
			<path class="st26" d="M-578-194.3c0,0-21.9-3.7-22.9,0.4c-0.7,2.9,23.4,2.8,23.4,2.8L-578-194.3z"/>
			<path class="st26" d="M-598-197.7c0,0-5.9-7.3-6.6-5.1s2.1,5.7,2.1,5.7s-8.1-3.6-9.1-2.4s7.9,4.1,7.4,4.2s-8.8-0.6-8.5,0.6
				c0.2,1.2,8.1,1.3,8.2,1.8c0.1,0.5-7.7,1.2-7.2,2.1c0.4,0.9,7.4,0.1,8.2,0.2c0.8,0.1-4.9,2.4-4.5,3.4c0.4,0.9,5.4-1.3,6.3-1.9
				c0.9-0.7,5-0.4,6.5-1.7s0.9-4.5,0-5.3C-596.1-197-598-197.7-598-197.7z"/>
		</g>
		<path class="st27" d="M-618.6-248.7c4.9,0,12.8,0.5,16.6-1.6c7.7-4.4-14.5-13.5-27.3-23.3c-12.8-9.8,29.1-16.4,37.6-12.1
			s37.7,28.6,38.3,36.5c0.6,7.9-20.7,27.9-20.7,27.9l-14.6-3C-588.6-224.4-628.1-248.7-618.6-248.7z"/>
		
			<linearGradient id="SVGID_12_" gradientUnits="userSpaceOnUse" x1="-627.5998" y1="568.8126" x2="-579.3821" y2="520.5949" gradientTransform="matrix(1 0 0 -1 0 276.8017)">
			<stop  offset="0" style="stop-color:#FFC76D"/>
			<stop  offset="1" style="stop-color:#E8E3E0"/>
		</linearGradient>
		<path class="st28" d="M-639.6-280.1c0,0-1.5,4.1,0.6,4.6c2.1,0.5,4.3-1.1,4.3-1.1s-1.1,8.6,1.6,7.5s4.8-2.6,4.8-2.6
			s-1,5.9,1.6,6.4c2.7,0.5,5.4-2.8,5.4-2.8s0,7.1,2.6,7.1c2.6,0,5.7-3.2,5.7-3.2s-2.5,5.3,1.8,5.9c4.3,0.5,5.4-1.6,5.4-1.6
			s0.5,4.4,3.2,4.8c3.7,0.5,5.1-1.9,5.1-1.9s3,4,4,3.5c1.1-0.5,5.9-2.7,5.9-2.7s-0.5,3.7,2.1,3.7c2.6,0,7-3.7,7-3.7s0,3.7,2.1,3.2
			c2.1-0.5,3.7-3.7,3.7-3.7s1.1,2.7,3.2,2.1c2.1-0.5,4.3-4.3,4.3-4.3L-639.6-280.1z"/>
		
			<linearGradient id="SVGID_13_" gradientUnits="userSpaceOnUse" x1="-662.1412" y1="387.3812" x2="-602.8565" y2="381.2058" gradientTransform="matrix(0.9996 2.982325e-02 2.982325e-02 -0.9996 29.3039 164.2022)">
			<stop  offset="0" style="stop-color:#FFC76D"/>
			<stop  offset="1" style="stop-color:#E8E3E0"/>
		</linearGradient>
		<path class="st29" d="M-561.9-235.9c0,0-3.2-7.5-6.4-5.4c-2.9,1.9-1.6,4.3-1.6,4.3s-1.6-3.7-3.7-2.1c-2.1,1.6-2.1,4.3-2.1,4.3
			s-1-5.3-3.7-3.2c-2.7,2.1-2.8,5.1-2.8,5.1s0.2-5.6-2.5-4.6s-2.2,2.8-2.2,2.8s-0.4-4.4-3.1-3.4s-3.3,2.1-3.3,2.1s-0.9-5.2-3.1-3.2
			c-2.2,2.1-2.7,2.5-2.7,2.5s0.6-5.1-2.1-4.6s-3.7,1.7-3.7,1.7s1.6-3.8-1.6-3.9c-3.2-0.1-3,1.9-3,1.9s0.4-6.1-2.3-4.1
			c-2.7,2.1-3,2.3-3,2.3s4.3-8.3,0.9-8.2c-3.4,0.1-3.8,5.4-3.8,5.4s1.6-7.5-0.5-7c-2.1,0.5-1.2,5.4-1.2,5.4s10.9,10.6,11.9,11.2
			c1,0.6,41.4,12,41.4,12L-561.9-235.9z"/>
		<g>
			<path class="st30" d="M-580.6-155.8c0,0,6.7,16.7,7.4,20.4c0.6,3.6-9.3,5.4-10.2,8s6.4,1.1,6.4,1.1s2.5,2.4,4.8,1.8
				c1.5-0.4,8.3-1,12.9-1.3c2.3-0.2,4-2.3,3.7-4.6l-2.8-20.2C-558.5-150.7-579.3-165.2-580.6-155.8z"/>
			<path class="st31" d="M-556.3-135.3c0,0-9.1-7.5-14.6-9.3s-3.9,4.2-3.9,4.2l-5.8-15.7c0,0,19.7,3,20.2,3.6s3.1,5.1,3.1,5.1
				L-556.3-135.3z"/>
			<path class="st15" d="M-578.6-126c0,0,0.6-4.1-1-4c-1.6,0.1-4.6,1.9-5.2,3.1C-585.4-125.7-578.6-126-578.6-126z"/>
			<path class="st15" d="M-571.4-124.7c0,0,0.6-3.5-1.9-3.5c-2.4,0-5.5,1.2-6.1,3C-580-123.4-571.4-124.7-571.4-124.7z"/>
		</g>
		<path class="st32" d="M-529.2-177.5c0,0,9.1-22.2,6.4-23.6c-2.7-1.3-10.9-7.2-9.6-10.2c1.2-3,23.5-11.5,20.9-12.8
			c-2.7-1.3-9.6-16.6-9.6-16.6s23.3-5.9,21.6-7.1S-511-258-511-258l13.4-12.9l-13.3-6.1c0,0-4.4-13,0.9-16.8
			c5.4-3.7-24.6,1.1-24.6,1.1l-28.4,98"/>
		<path class="st32" d="M-531.4-179.7l17.1-13.3l8.6,12.3l2.9-11.6l13.7,2l4.6-9.9l6.7,6.7c0,0-20,20-26.7,25.5s-27.3,3-27.3,3
			L-531.4-179.7z"/>
		
			<linearGradient id="SVGID_14_" gradientUnits="userSpaceOnUse" x1="-641.0541" y1="503.0685" x2="-477.8541" y2="503.0685" gradientTransform="matrix(1 0 0 -1 0 276.8017)">
			<stop  offset="0" style="stop-color:#6BC62A"/>
			<stop  offset="1" style="stop-color:#00B53E"/>
		</linearGradient>
		<path class="st33" d="M-511.2-176.6c-31.9-3.1-29.2-27.7-20.1-43.2c0.1-0.1,0.1-0.2,0-0.3c12.8-13.2,26.4-39.3,23.1-48.9
			c-4.3-12.3-76.6-66.1-99.6-61.3c-23,4.8-33.3,48.5-33.3,48.5c4,15.2,49,32.2,68.8,26.5c7.7-2.3,13.5-3.7,16.9,2.9
			c1.8,3.5,0,8.1-18.2,15c-15.5,5.9-39.4-4.5-43.4-10.7c-3.4-5.4-12.9,2.5-3.8,10.1c6,5,20.4,13.9,43.8,20.4
			c-2.2,3.3-5.1,8.3-5.8,10.2c-1,2.8-4.1,8.9-5.9,14.5c-1.7,5.6-5.5,12.6-6.4,21.4c-0.9,8.8,6.9,18.9,14.9,21.5s12.6,3.3,19.9,5.6
			c4.1,3.9,8.9,7.3,12.7,11.7c-5.1,0.9-11.6,2-15,6.2c1.6,1.7,3.4,2.8,5.6,3.1c3.5,0.5,5.6,0.8,9.4,1.3c2.6,0.3,6.9-0.3,10.7-0.6
			c2.8-0.2,4.9-2.6,5-5.4c0.1-5.1-0.4-9.7,0.1-15.3c25.1-1.8,37.8-29.4,53.9-50C-488-194.2-501.2-175.6-511.2-176.6z"/>
		<g>
			<path class="st2" d="M-610.6-207.7c0,0-13.3-8.3-4.1-22.6C-614.6-230.4-603.1-223.5-610.6-207.7z"/>
			<path class="st2" d="M-612.6-205.7c0,0-5.8,14.9-21.5,8.3C-634.2-197.4-629.5-210.4-612.6-205.7z"/>
			<path class="st2" d="M-619.2-211.4c0,0-15.6,3.7-19.1-13C-638.3-224.4-625-227.9-619.2-211.4z"/>
			<g>
				<path class="st2" d="M-621.3-212.1c0-0.1,7.6,1.7,10.7,4.4c3.1,2.7,6.3,6.1,7.8,8.5s2.1,5,2.2,6.8c0.1,1.8-0.2,3-0.3,2.9
					c-0.1,0-0.1-1.1-0.4-2.9c-0.3-1.7-3.9-4.5-5.3-6.7C-607.9-201.4-621.3-212-621.3-212.1z"/>
			</g>
		</g>
		<path class="st15" d="M-559.1-124.7c0,0,0.6-4.1-1-4c-1.6,0.1-4.6,1.9-5.2,3.1C-565.8-124.4-559.1-124.7-559.1-124.7z"/>
		<path class="st15" d="M-551.9-123.3c0,0,0.6-3.5-1.8-3.5c-2.4,0-5.5,1.2-6.1,3C-560.4-122-551.9-123.3-551.9-123.3z"/>
		<path class="st31" d="M-560.3-144.3c0,0,28.4-0.8,28.4,0.5c0,1.1-0.2,10.9,0,13.4s-4.8-4.2-13.9-7.3
			C-554.9-140.8-560.3-144.3-560.3-144.3z"/>
		<g>
			<g>
				<path class="st34" d="M-607.3-286c-3.2,6.1-7.8,10.1-10.2,8.8c-2.5-1.3-1.9-7.3,1.3-13.4c3.2-6.1,7.8-10.1,10.2-8.8
					C-603.6-298.1-604.1-292.1-607.3-286z"/>
				<path class="st27" d="M-606.4-285.3c-3.2,6.1-7.8,10.1-10.2,8.8c-2.5-1.3-1.9-7.3,1.3-13.4c3.2-6.1,7.8-10.1,10.2-8.8
					C-602.6-297.5-603.2-291.5-606.4-285.3z"/>
			</g>
			<g>
				<path class="st34" d="M-623.1-298.9c-2.5,4.7-6,7.8-7.9,6.8c-1.9-1-1.5-5.7,1-10.4c2.5-4.7,6-7.8,7.9-6.8
					C-620.1-308.3-620.6-303.6-623.1-298.9z"/>
				<path class="st27" d="M-622.3-298.4c-2.5,4.7-6,7.8-7.9,6.8c-1.9-1-1.5-5.7,1-10.4c2.5-4.7,6-7.8,7.9-6.8
					C-619.4-307.8-619.8-303.2-622.3-298.4z"/>
			</g>
			<g>
				<path class="st35" d="M-608.8-305.1c0,0,4.8-2.5,8.6-0.4c7.2,4,2.9,14.8,2.9,14.8s2.3-6.3-4.9-12.2
					C-605.8-305.7-608.8-305.1-608.8-305.1z"/>
				<path class="st32" d="M-608.8-305.1c0,0,5.4,0.7,9.3,5.9c3.9,5.2,1.2,11,1.2,11s3.4-6-0.1-11.4
					C-601.8-305.1-608.8-305.1-608.8-305.1z"/>
				<path class="st25" d="M-606.8-303.4c0,0,5.8,3.5,6.8,8.9c1,5.4-1.9,9.4-1.9,9.4s4-3.6,3.5-9.5
					C-599.1-300.8-606.8-303.4-606.8-303.4z"/>
			</g>
			<g>
				<path class="st35" d="M-622.3-312.6c0,0,2.8-1.5,5.1-0.2c4.3,2.4,1.7,8.8,1.7,8.8s1.3-3.7-2.9-7.2
					C-620.5-313-622.3-312.6-622.3-312.6z"/>
				<path class="st32" d="M-622.3-312.6c0,0,3.2,0.4,5.5,3.5s0.7,6.5,0.7,6.5s2-3.6-0.1-6.8C-618.2-312.6-622.3-312.6-622.3-312.6z"
					/>
				<path class="st25" d="M-621.1-311.6c0,0,3.4,2,4,5.2c0.6,3.2-1.2,5.6-1.2,5.6s2.4-2.2,2.1-5.6
					C-616.5-310-621.1-311.6-621.1-311.6z"/>
			</g>
		</g>
		<g>
			<g>
				<path class="st32" d="M-541.3-272.4c0,0,2.2,2.9,3,6.1c0.8,3.2,1.4,8,1.4,8l0.7-1.8c0,0,0.3,0.6,1.2,1.4
					c0.8,0.6,3.2,1.4,3.2,1.4s-0.7-3.4-1.6-7.3c-1.2-5.4-4.6-7.8-4.6-7.8l0.1,1.1C-537.8-271.2-540-272.3-541.3-272.4z"/>
				<path class="st30" d="M-536.9-270.9c0,0,1.7,1.5,2.8,4.6s1.6,6.9,1.6,6.9l-1.3-2.5l0.8,3.1c0,0-1.2-1.6-2.1-4.7
					c-0.9-3.2-3-7-3-7l1.5,0.7L-536.9-270.9z"/>
			</g>
			<path class="st36" d="M-547.1-265.4c0,0,7.6-0.9,5.3,6"/>
		</g>
		<g>
			<path class="st37" d="M-578.4-198c-4.2-0.3-22.5,2.5-22.2,6.7c0.2,2.9,23.2-4.4,23.2-4.4S-574.2-197.7-578.4-198z"/>
			<path class="st37" d="M-599-195.8c0,0-7.9-5.2-7.8-2.9c0.1,2.2,3.7,4.8,3.7,4.8s-8.8-1-9.4,0.5c-0.6,1.5,8.8,1.6,8.3,1.8
				c-0.4,0.2-8.6,2-8,3.1c0.6,1.1,8.1-1.2,8.4-0.8c0.2,0.4-7,3.4-6.3,4.2s7.1-2.1,7.9-2.2c0.8-0.1-4,3.7-3.2,4.6
				c0.7,0.8,4.7-2.8,5.4-3.7c0.7-0.9,4.6-1.9,5.7-3.6c1.1-1.7-0.5-4.6-1.6-5.1C-597-195.6-599-195.8-599-195.8z"/>
		</g>
		<path class="st32" d="M-530.3-291c0,0-12.3-10.5-33-19.6c-19.7-8.7-33.4-12-33.4-12s0.1-19.7,18.7-24.1c9.1-2.1,24.5,3.8,22,4.8
			c-10.7,4.3-11.4,22.4-2.1,15c8-6.4,20.9,1.1,20.9,1.1s-13.1,8.2-8.6,9.1c5.4,1.1,18.6-2.5,15,1.6c-4.3,4.8-9.6,8.6-9.6,8.6
			s24.1-4.8,19.8,1.1C-524.9-299.5-530.3-291-530.3-291z"/>
	</g>
	<g>
		<g>
			<circle class="st5" cx="-257.6" cy="-399.6" r="3.8"/>
		</g>
		<g>
			<path class="st5" d="M-250.3-419.9c-3.4-4.1-5.8-11.8-6.9-15.2c-0.1-0.5-0.8-0.5-1,0c-0.8,3-2.9,9.3-6.9,14.7
				c-3.7,5,0.4,12.3,7.3,12.3c0,0,0,0,0.1,0c0,0,0,0,0.1,0C-250.7-408.2-246.3-415.1-250.3-419.9z M-256.8-411.2
				c-3.4,0.6-6.2-2.3-5.7-5.7c0.3-2,2-3.7,4-4c3.4-0.6,6.2,2.3,5.7,5.7C-253.2-413.2-254.8-411.5-256.8-411.2z"/>
		</g>
		<path class="st5" d="M-257.6-410.9c-0.8,0-1.5,0.7-1.5,1.5v19.3h3v-19.3C-256.1-410.2-256.8-410.9-257.6-410.9z"/>
	</g>
	<g>
		<path class="st5" d="M-4.2-420.3h-217.6c-0.8,0-1.5-0.7-1.5-1.5s0.7-1.5,1.5-1.5H-4.2c0.8,0,1.5,0.7,1.5,1.5S-3.4-420.3-4.2-420.3
			z"/>
	</g>
	<g>
		
			<linearGradient id="SVGID_15_" gradientUnits="userSpaceOnUse" x1="-1044.2543" y1="-478.1839" x2="-971.7623" y2="-478.1839" gradientTransform="matrix(-3.274567e-02 -0.9994 -0.8688 2.845226e-02 -672.315 -1243.4338)">
			<stop  offset="0.1522" style="stop-color:#FF3A2D"/>
			<stop  offset="0.1907" style="stop-color:#FF462A"/>
			<stop  offset="0.4015" style="stop-color:#FF811B"/>
			<stop  offset="0.5953" style="stop-color:#FFB00F"/>
			<stop  offset="0.7658" style="stop-color:#FFD207"/>
			<stop  offset="0.9065" style="stop-color:#FFE702"/>
			<stop  offset="1" style="stop-color:#FFEE00"/>
		</linearGradient>
		<path class="st38" d="M-225.5-213.3c-0.1,0-0.1,0-0.1-0.1c-0.6-1.4-13.5-16.4-13.1-27.9c0.4-12.1,2.8-27.1,3-29
			c0.3-3.5,4.5,11,5.3,12.1c0.1,0.1,0.3,0,0.3-0.1c-0.9-2.2-1.2-8.2-0.3-12.4c1-4.2,6.1-11.9,8.3-15c0.3-0.4,0.9-0.2,0.9,0.3
			c0,2.3,1,9.8,3.7,12.5c3.7,3.6,11.5,15.2,7.9,27.8C-213.2-232.8-221.4-213.1-225.5-213.3z"/>
		
			<linearGradient id="SVGID_16_" gradientUnits="userSpaceOnUse" x1="-1040.5017" y1="-480.016" x2="-992.0523" y2="-480.016" gradientTransform="matrix(-3.274567e-02 -0.9994 -0.8688 2.845226e-02 -672.315 -1243.4338)">
			<stop  offset="0.1522" style="stop-color:#FF5A19"/>
			<stop  offset="1" style="stop-color:#FFEE00"/>
		</linearGradient>
		<path class="st39" d="M-224.3-217.1c0,0-7.6-21.5-3.8-29.7s5.4-12.2,4.3-17.1c-1.8-8,10.8,14.4,8.9,22.6
			C-217-233.2-224.3-217.1-224.3-217.1z"/>
		
			<linearGradient id="SVGID_17_" gradientUnits="userSpaceOnUse" x1="-1039.2583" y1="-479.1919" x2="-1004.3225" y2="-479.1919" gradientTransform="matrix(-3.274567e-02 -0.9994 -0.8688 2.845226e-02 -672.315 -1243.4338)">
			<stop  offset="0.1522" style="stop-color:#FFB02A"/>
			<stop  offset="0.9393" style="stop-color:#FFEE00"/>
		</linearGradient>
		<path class="st40" d="M-224.5-218.3c0,0-2.9-15.1-2.5-20.2c0.3-5,2.3-7.2,4.1-10.9c0.4-0.9,1-2.9,1.3-3.9c0.1-0.2,0.3-0.2,0.4,0
			c0.7,1.5,2.5,6,2.8,10.2C-217.8-237.9-224.5-218.3-224.5-218.3z"/>
	</g>
	<g>
		<linearGradient id="SVGID_18_" gradientUnits="userSpaceOnUse" x1="-270.382" y1="-213.6127" x2="-176.4479" y2="-213.6127">
			<stop  offset="0" style="stop-color:#FF3A2D"/>
			<stop  offset="1" style="stop-color:#D50000"/>
		</linearGradient>
		<path class="st41" d="M-270.4-228c9.5,17.3,27,28.8,47,28.8s37.5-11.6,47-28.8H-270.4z"/>
		<polygon class="st4" points="-223.4,-336.3 -270.7,-228 -176.1,-228 		"/>
		<linearGradient id="SVGID_19_" gradientUnits="userSpaceOnUse" x1="-229.9425" y1="-336.8187" x2="-216.8875" y2="-336.8187">
			<stop  offset="0" style="stop-color:#FF3A2D"/>
			<stop  offset="1" style="stop-color:#D50000"/>
		</linearGradient>
		<circle class="st42" cx="-223.4" cy="-336.8" r="6.5"/>
	</g>
	<g>
		<path class="st2" d="M-106.5-245.8c0,0-4-20.3,18.1-24.4C-88.4-270.2-84.5-252.9-106.5-245.8z"/>
		<path class="st2" d="M-109.7-245.5c0,0-20.3,7.5-28.1-13.7C-137.8-259.2-120.4-266-109.7-245.5z"/>
		<path class="st2" d="M-110.8-257.4c0,0-17.7-11.7-4.8-30.1C-115.6-287.6-100.1-277.9-110.8-257.4z"/>
		<g>
			<path class="st2" d="M-112-260.1c0,0,0.4-2.1,1.3-0.4c1.6,3.1,4.1,11.2,4.2,14.7c0.2,5.4-0.1,11.6-1.1,15.2
				c-1,3.6-2.8,6.5-4.5,8.3c-1.6,1.8-3,2.5-3.1,2.4c-0.1-0.1,1-1.1,2.4-2.9c1.4-1.8-0.5,1.2,1.7-11.2
				C-109.2-244.5-112.1-260.1-112-260.1z"/>
		</g>
	</g>
	<g>
		<path class="st7" d="M-157.1-228c9.5,17.3,27,28.8,47,28.8s37.5-11.6,47-28.8H-157.1z"/>
		<polygon class="st4" points="-110.1,-336.3 -157.4,-228 -62.8,-228 		"/>
		<circle class="st2" cx="-110.1" cy="-336.8" r="6.5"/>
	</g>
	<g>
		<circle class="st0" cx="-216.9" cy="-394.7" r="12"/>
		<path class="st5" d="M-216.9-381.2c-7.4,0-13.5-6-13.5-13.5s6-13.5,13.5-13.5s13.5,6,13.5,13.5S-209.5-381.2-216.9-381.2z
			 M-216.9-405.2c-5.8,0-10.5,4.7-10.5,10.5s4.7,10.5,10.5,10.5s10.5-4.7,10.5-10.5S-211.1-405.2-216.9-405.2z"/>
	</g>
	<g>
		<polygon class="st4" points="-223.7,-166.5 -271.1,-58.3 -176.4,-58.3 		"/>
		<linearGradient id="SVGID_20_" gradientUnits="userSpaceOnUse" x1="-230.2737" y1="-167.0416" x2="-217.2188" y2="-167.0416">
			<stop  offset="0" style="stop-color:#FF3A2D"/>
			<stop  offset="1" style="stop-color:#D50000"/>
		</linearGradient>
		<circle class="st43" cx="-223.7" cy="-167" r="6.5"/>
	</g>
	<g>
		<polygon class="st4" points="-110.1,-166.5 -157.4,-58.3 -62.8,-58.3 		"/>
		<circle class="st2" cx="-110.1" cy="-167" r="6.5"/>
	</g>
	<linearGradient id="SVGID_21_" gradientUnits="userSpaceOnUse" x1="-270.7133" y1="-31.778" x2="-176.7792" y2="-31.778">
		<stop  offset="0" style="stop-color:#FF3A2D"/>
		<stop  offset="1" style="stop-color:#D50000"/>
	</linearGradient>
	<path class="st44" d="M-270.7-46.2c9.5,17.3,27,28.8,47,28.8s37.5-11.6,47-28.8H-270.7z"/>
	<path class="st7" d="M-156.1-45.2c9.5,17.3,27,28.8,47,28.8s37.5-11.6,47-28.8H-156.1z"/>
	<g>
		<defs>
			<rect id="SVGID_22_" x="-1015.1" y="-231" width="30.1" height="56.3"/>
		</defs>
		<clipPath id="SVGID_23_">
			<use xlink:href="#SVGID_22_"  style="overflow:visible;"/>
		</clipPath>
		<g class="st45">
			
				<linearGradient id="SVGID_24_" gradientUnits="userSpaceOnUse" x1="-1073.7687" y1="416.4367" x2="-1001.2768" y2="416.4367" gradientTransform="matrix(-3.274567e-02 -0.9994 -0.8688 2.845226e-02 -672.315 -1243.4338)">
				<stop  offset="0.1522" style="stop-color:#FF3A2D"/>
				<stop  offset="0.1907" style="stop-color:#FF462A"/>
				<stop  offset="0.4015" style="stop-color:#FF811B"/>
				<stop  offset="0.5953" style="stop-color:#FFB00F"/>
				<stop  offset="0.7658" style="stop-color:#FFD207"/>
				<stop  offset="0.9065" style="stop-color:#FFE702"/>
				<stop  offset="1" style="stop-color:#FFEE00"/>
			</linearGradient>
			<path class="st46" d="M-1001.8-158.3c-0.1,0-0.1,0-0.1-0.1c-0.6-1.4-13.5-16.4-13.1-27.9c0.4-12.1,2.8-27.1,3-29
				c0.3-3.5,4.5,11,5.3,12.1c0.1,0.1,0.3,0,0.3-0.1c-0.9-2.2-1.2-8.2-0.3-12.4s6.1-11.9,8.3-15c0.3-0.4,0.9-0.2,0.9,0.3
				c0,2.3,1,9.8,3.7,12.5c3.7,3.6,11.5,15.2,7.9,27.8C-989.5-177.8-997.7-158.1-1001.8-158.3z"/>
			
				<linearGradient id="SVGID_25_" gradientUnits="userSpaceOnUse" x1="-1070.0161" y1="414.6046" x2="-1021.5667" y2="414.6046" gradientTransform="matrix(-3.274567e-02 -0.9994 -0.8688 2.845226e-02 -672.315 -1243.4338)">
				<stop  offset="0.1522" style="stop-color:#FF5A19"/>
				<stop  offset="1" style="stop-color:#FFEE00"/>
			</linearGradient>
			<path class="st47" d="M-1000.6-162.1c0,0-7.6-21.5-3.8-29.7c3.8-8.2,5.4-12.2,4.3-17.1c-1.8-8,10.8,14.4,8.9,22.6
				C-993.3-178.2-1000.6-162.1-1000.6-162.1z"/>
			
				<linearGradient id="SVGID_26_" gradientUnits="userSpaceOnUse" x1="-1068.7727" y1="415.4287" x2="-1033.837" y2="415.4287" gradientTransform="matrix(-3.274567e-02 -0.9994 -0.8688 2.845226e-02 -672.315 -1243.4338)">
				<stop  offset="0.1522" style="stop-color:#FFB02A"/>
				<stop  offset="0.9393" style="stop-color:#FFEE00"/>
			</linearGradient>
			<path class="st48" d="M-1000.8-163.4c0,0-2.9-15.1-2.5-20.2c0.3-5,2.3-7.2,4.1-10.9c0.4-0.9,1-2.9,1.3-3.9c0.1-0.2,0.3-0.2,0.4,0
				c0.7,1.5,2.5,6,2.8,10.2C-994.1-182.9-1000.8-163.4-1000.8-163.4z"/>
		</g>
	</g>
	<g>
		<defs>
			<rect id="SVGID_27_" x="-270.4" y="-1" width="30.1" height="56.3"/>
		</defs>
		<clipPath id="SVGID_28_">
			<use xlink:href="#SVGID_27_"  style="overflow:visible;"/>
		</clipPath>
		<g class="st49">
			
				<linearGradient id="SVGID_29_" gradientUnits="userSpaceOnUse" x1="-1327.9912" y1="-431.1108" x2="-1255.4993" y2="-431.1108" gradientTransform="matrix(-3.274567e-02 -0.9994 -0.8688 2.845226e-02 -672.315 -1243.4338)">
				<stop  offset="0.1522" style="stop-color:#FF3A2D"/>
				<stop  offset="0.1907" style="stop-color:#FF462A"/>
				<stop  offset="0.4015" style="stop-color:#FF811B"/>
				<stop  offset="0.5953" style="stop-color:#FFB00F"/>
				<stop  offset="0.7658" style="stop-color:#FFD207"/>
				<stop  offset="0.9065" style="stop-color:#FFE702"/>
				<stop  offset="1" style="stop-color:#FFEE00"/>
			</linearGradient>
			<path class="st50" d="M-257.1,71.6c-0.1,0-0.1,0-0.1-0.1c-0.6-1.4-13.5-16.4-13.1-27.9c0.4-12.1,2.8-27.1,3-29
				c0.3-3.5,4.5,11,5.3,12.1c0.1,0.1,0.3,0,0.3-0.1c-0.9-2.2-1.2-8.2-0.3-12.4c1-4.2,6.1-11.9,8.3-15c0.3-0.4,0.9-0.2,0.9,0.3
				c0,2.3,1,9.8,3.7,12.5c3.7,3.6,11.5,15.2,7.9,27.8C-244.8,52.2-253,71.9-257.1,71.6z"/>
			
				<linearGradient id="SVGID_30_" gradientUnits="userSpaceOnUse" x1="-1324.2385" y1="-432.9429" x2="-1275.7892" y2="-432.9429" gradientTransform="matrix(-3.274567e-02 -0.9994 -0.8688 2.845226e-02 -672.315 -1243.4338)">
				<stop  offset="0.1522" style="stop-color:#FF5A19"/>
				<stop  offset="1" style="stop-color:#FFEE00"/>
			</linearGradient>
			<path class="st51" d="M-255.9,67.8c0,0-7.6-21.5-3.8-29.7c3.8-8.2,5.4-12.2,4.3-17.1c-1.8-8,10.8,14.4,8.9,22.6
				C-248.7,51.8-255.9,67.8-255.9,67.8z"/>
			
				<linearGradient id="SVGID_31_" gradientUnits="userSpaceOnUse" x1="-1322.9952" y1="-432.1189" x2="-1288.0594" y2="-432.1189" gradientTransform="matrix(-3.274567e-02 -0.9994 -0.8688 2.845226e-02 -672.315 -1243.4338)">
				<stop  offset="0.1522" style="stop-color:#FFB02A"/>
				<stop  offset="0.9393" style="stop-color:#FFEE00"/>
			</linearGradient>
			<path class="st52" d="M-256.1,66.6c0,0-2.9-15.1-2.5-20.2c0.3-5,2.3-7.2,4.1-10.9c0.4-0.9,1-2.9,1.3-3.9c0.1-0.2,0.3-0.2,0.4,0
				c0.7,1.5,2.5,6,2.8,10.2C-249.4,47-256.1,66.6-256.1,66.6z"/>
		</g>
	</g>
	<g>
		<g>
			
				<linearGradient id="SVGID_32_" gradientUnits="userSpaceOnUse" x1="-15.0079" y1="41.4754" x2="88.0564" y2="41.4754" gradientTransform="matrix(0.9932 -0.1162 -0.101 -0.8634 19.0464 -27.4324)">
				<stop  offset="0.1522" style="stop-color:#FF3A2D"/>
				<stop  offset="0.1907" style="stop-color:#FF462A"/>
				<stop  offset="0.4015" style="stop-color:#FF811B"/>
				<stop  offset="0.5953" style="stop-color:#FFB00F"/>
				<stop  offset="0.7658" style="stop-color:#FFD207"/>
				<stop  offset="0.9065" style="stop-color:#FFE702"/>
				<stop  offset="1" style="stop-color:#FFEE00"/>
			</linearGradient>
			<path class="st53" d="M-0.2-63.2c0-0.1,0-0.2,0.1-0.2c1.9-0.9,27.6-13.6,37-15.2c11.3-1.9,21-0.7,26.6-5.5
				c3.9-3.3,4.4-6.3,4.4-7.6c0-0.2,0.3-0.3,0.4-0.1c1.2,1.9,4.1,7.3,1.8,10.5c-2.1,2.9-4.6,5.3-6.1,6.5c-0.2,0.2,0,0.4,0.2,0.3
				c3-1.4,10.5-4.8,14.8-5.6c7.6-1.4,18.1,1.6,22.8,4.2c0.6,0.3,0.4,1.2-0.3,1.3c-3.4,0.3-10.2,1.4-13.7,5.3
				c-4.8,5.3-21.6,27-40.1,23.6C29.3-49-0.1-57.7-0.2-63.2z"/>
			
				<linearGradient id="SVGID_33_" gradientUnits="userSpaceOnUse" x1="-9.5742" y1="36.504" x2="56.3679" y2="36.504" gradientTransform="matrix(0.9932 -0.1162 -0.101 -0.8634 19.0464 -27.4324)">
				<stop  offset="0.1522" style="stop-color:#FF5A19"/>
				<stop  offset="1" style="stop-color:#FFEE00"/>
			</linearGradient>
			<path class="st54" d="M5.4-62c0,0,30-12.5,42.3-8.4s13.7,10,20.7,8c11.3-3.3-8.6,10.3-20.6,8.6C35.8-55.6,5.4-62,5.4-62z"/>
			
				<linearGradient id="SVGID_34_" gradientUnits="userSpaceOnUse" x1="-7.7805" y1="37.2795" x2="42.7175" y2="37.2795" gradientTransform="matrix(0.9932 -0.1162 -0.101 -0.8634 19.0464 -27.4324)">
				<stop  offset="0.1522" style="stop-color:#FFB02A"/>
				<stop  offset="0.9393" style="stop-color:#FFEE00"/>
			</linearGradient>
			<path class="st55" d="M7.1-62.4c0,0,21.5-5.6,28.8-5.6c7.3-0.1,10.6,2.3,16.2,4.3c1.3,0.5,4.3,1,5.8,1.3c0.3,0,0.3,0.4,0.1,0.5
				c-2.1,1-8.4,3.9-14.4,4.9C36.1-55.7,7.1-62.4,7.1-62.4z"/>
		</g>
	</g>
	<g>
		<path class="st10" d="M149.1-227.4c0,0-0.2-1.8-9.7-1.8c-4.9,0-10.3-1.8-10.9-6.7c-1.1-8.8,9.7-19.4,22.5-29.1
			c12.8-9.7-29.1-16.4-37.6-12.1c-8.5,4.2-27.9,36.4-28.5,44.3c-0.6,7.9,10.9,20,10.9,20l14.6-3L149.1-227.4z"/>
		<path class="st10" d="M44.1-176.4c-0.7-1.8-0.8-18.3,1.2-17.6s13,0.3,13,0.3s-15-17.2-12.4-18.5c2.7-1.3,23.9-1.3,22.7-4.4
			c-1.2-3-22.4-8.8-19.8-10.1c2.6-1.3,9.7-14.2,9.7-14.2s-18.6-1.4-16.9-2.6s11.5-10.2,11.5-10.2l-13.4-12.9l13.3-6.1
			c0,0-7-15-5.2-15.2l26.7,2.2l6.7,99L44.1-176.4"/>
		<path class="st10" d="M44.1-176.4l-10.3-9.1l-8.6,16l-2.9-15.4l-14.2,3.1l-4-11l-6.7,6.7c0,0,20,20,26.7,25.5s27.3,3,27.3,3
			L44.1-176.4z"/>
		
			<linearGradient id="SVGID_35_" gradientUnits="userSpaceOnUse" x1="123.2351" y1="573.3401" x2="209.3155" y2="573.3401" gradientTransform="matrix(0.9906 -0.1366 -0.1366 -0.9906 52.4413 331.9893)">
			<stop  offset="0" style="stop-color:#E6E6E6"/>
			<stop  offset="1" style="stop-color:#FF9300"/>
		</linearGradient>
		<path class="st56" d="M108-239.1l6.1,2.8l-1.1-8.2l7.5,3.8l-1-7.9c0,0,6.2,2.3,7.2,1.8s2.9-7.1,2.9-7.1l4.4,2.2l1.7-5.4l5,4.7
			l2.4-5.5l4.3,0.9l1-6.2l8.7,3.6l2.2-7.2l6.1,4.4l0.1-9.2c0,0,8.2,7.2,8,6c-0.1-1.2-0.9-8.7-0.9-8.7s8.5,5.5,8.2,4.8
			c-0.3-0.7-3-12.1-3-12.1l-8.9-0.2l-71.5,37.6L108-239.1z"/>
		<path class="st12" d="M108.5-151.1c0,0-6.7,16.7-7.3,20.4c-0.6,3.6,9.3,5.3,10.2,7.9c0.9,2.6-6.4,1.2-6.4,1.2s-2.5,2.4-4.8,1.8
			c-1.5-0.4-8.3-0.9-12.9-1.3c-2.3-0.2-4-2.3-3.7-4.6l2.8-20.3C86.4-145.9,107.1-160.5,108.5-151.1z"/>
		<path class="st13" d="M84.2-130.5c0,0,9.1-7.5,14.6-9.3s3.9,4.2,3.9,4.2l5.8-15.7c0,0-19.7,3.1-20.2,3.7s-3.1,5.1-3.1,5.1
			L84.2-130.5z"/>
		<g>
			
				<linearGradient id="SVGID_36_" gradientUnits="userSpaceOnUse" x1="16.134" y1="540.373" x2="209.5817" y2="540.373" gradientTransform="matrix(0.9906 -0.1366 -0.1366 -0.9906 52.4413 331.9893)">
				<stop  offset="0" style="stop-color:#FF3A2D"/>
				<stop  offset="1" style="stop-color:#D50000"/>
			</linearGradient>
			<path class="st57" d="M107.5-188.4c1.7,5.6,5.9,17.6,6.8,26.4c0.9,8.8-6.6,16.7-14.7,19.3s-12.6,3.3-19.9,5.6
				c-4.1,3.9-8.9,7.3-12.7,11.7c5.1,0.9,11.6,2,15,6.2c-1.6,1.7-3.4,2.8-5.6,3.1c-3.5,0.5-5.6,0.8-9.4,1.3
				c-2.6,0.3-6.9-0.3-10.7-0.6c-2.8-0.2-4.9-2.6-5-5.4c-0.1-5.1,0.4-9.7-0.1-15.3c-25.1-1.8-37.8-29.4-53.9-50
				c10.2-0.6,23.3,17.4,33.4,17s31.8-29,35.4-39.2c3.6-10.2-8.8-26.3-13.5-40.4c-4.7-14.2-7.7-24.6,10-38.1
				c17.7-13.5,65.5-48,82.3-36.3c16.8,11.8,41.6,33.9,31.9,45.2c-9.6,11.3-72.3,27.4-74.2,47.4s4.4,12.1,12.5,9.4
				c7.4-2.4,29.2-11.4,34-6.5c4.8,4.9-12.7,8.4-27.8,11.8c-14.3,3.2-19.3,10.1-20.9,10.3c-1.6,0.2,3.9,6.8,4.8,9.6
				C106.3-193.2,105.8-193.9,107.5-188.4z"/>
		</g>
		<path class="st15" d="M106.6-121.3c0,0-0.6-4.1,1-4s4.6,1.9,5.2,3.1C113.3-121,106.6-121.3,106.6-121.3z"/>
		<path class="st15" d="M99.3-119.9c0,0-0.6-3.5,1.8-3.5s5.5,1.2,6.1,3S99.3-119.9,99.3-119.9z"/>
		<path class="st15" d="M78.6-117.2c0,0-0.6-4.1,1-4s4.6,1.9,5.2,3.1C85.4-116.9,78.6-117.2,78.6-117.2z"/>
		<path class="st15" d="M71.4-115.8c0,0-0.6-3.5,1.8-3.5c2.4,0,5.5,1.2,6.1,3C79.9-114.5,71.4-115.8,71.4-115.8z"/>
		<path class="st13" d="M79.9-137.5c0,0-27.3,1.2-28.5,0.6s0.4,10.9,0.2,13.3s4.7-3.6,13.8-6.6C74.5-133.2,79.9-137.5,79.9-137.5z"
			/>
		<g>
			<path class="st19" d="M101.5-255.9c0,0-3.2-1.9-6.4-2.4s-8.1-0.6-8.1-0.6l1.7-0.9c0,0-0.7-0.2-1.5-1.1c-0.7-0.7-1.8-3.1-1.8-3.1
				s3.5,0.4,7.4,0.8c5.5,0.7,8.2,3.8,8.2,3.8h-1.1C99.9-259.3,101.3-257.2,101.5-255.9z"/>
			<path class="st20" d="M99.5-260.1c0,0-1.6-1.5-4.8-2.3c-3.2-0.8-7-0.9-7-0.9l2.7,1l-3.2-0.5c0,0,1.7,1,4.9,1.6
				c3.2,0.6,7.3,2.3,7.3,2.3l-0.8-1.4L99.5-260.1z"/>
		</g>
		<g>
			<circle cx="95.2" cy="-250.8" r="4.2"/>
			<circle class="st0" cx="95.5" cy="-251.6" r="1.5"/>
			<circle class="st0" cx="93.9" cy="-249.1" r="0.7"/>
		</g>
		<g>
			<path class="st21" d="M141.8-284.9c3.2,6.1,7.8,10.1,10.2,8.8c2.5-1.3,1.9-7.3-1.3-13.4c-3.2-6.1-7.8-10.1-10.2-8.8
				S138.7-291,141.8-284.9z"/>
			<path class="st22" d="M140.9-284.3c3.2,6.1,7.8,10.1,10.2,8.8c2.5-1.3,1.9-7.3-1.3-13.4s-7.8-10.1-10.2-8.8
				C137.1-296.4,137.7-290.4,140.9-284.3z"/>
		</g>
		<g>
			<path class="st21" d="M157.6-297.8c2.5,4.7,6,7.8,7.9,6.8s1.5-5.7-1-10.4c-2.5-4.7-6-7.8-7.9-6.8S155.1-302.6,157.6-297.8z"/>
			<path class="st22" d="M156.8-297.3c2.5,4.7,6,7.8,7.9,6.8s1.5-5.7-1-10.4c-2.5-4.7-6-7.8-7.9-6.8S154.4-302.1,156.8-297.3z"/>
		</g>
		<g>
			<path class="st23" d="M143.3-304c0,0-4.8-2.5-8.6-0.4c-7.2,4-2.9,14.8-2.9,14.8s-2.3-6.3,4.9-12.2
				C140.4-304.6,143.3-304,143.3-304z"/>
			<path class="st24" d="M143.3-304c0,0-5.4,0.7-9.3,5.9c-3.9,5.2-1.2,11-1.2,11s-3.4-6,0.1-11.4C136.4-304,143.3-304,143.3-304z"/>
			<path class="st25" d="M141.4-302.4c0,0-5.8,3.5-6.8,8.9c-1,5.4,1.9,9.4,1.9,9.4s-4-3.6-3.5-9.5
				C133.6-299.7,141.4-302.4,141.4-302.4z"/>
		</g>
		<g>
			<path class="st23" d="M156.8-311.5c0,0-2.8-1.5-5.1-0.2c-4.3,2.4-1.7,8.8-1.7,8.8s-1.3-3.7,2.9-7.2
				C155.1-311.9,156.8-311.5,156.8-311.5z"/>
			<path class="st24" d="M156.8-311.5c0,0-3.2,0.4-5.5,3.5c-2.3,3.1-0.7,6.5-0.7,6.5s-2-3.6,0.1-6.8
				C152.7-311.5,156.8-311.5,156.8-311.5z"/>
			<path class="st25" d="M155.6-310.5c0,0-3.4,2-4,5.2s1.2,5.6,1.2,5.6s-2.4-2.2-2.1-5.6C151.1-308.9,155.6-310.5,155.6-310.5z"/>
		</g>
		<path class="st10" d="M62.9-286.9c0,0,11.5-10.3,32.2-19.4c19.7-8.7,29.7-9.1,29.7-9.1s-4.9-12.7,6.7-17.6
			c11.6-4.9-11.5-12.1-22.5,0c-6.9,7.7-10.3-6.7-10.3-6.7l-9.1,21.9l-12.1-3.6l-3.6,18.8l-13.4,1.2L62.9-286.9z"/>
	</g>
	<path class="st10" d="M122.5-75.5c0,0,0.8,0.1,5.3-1c4.5-1.1,3.5-8.8,6.1-10.3s2.8,5.3,3.5,5.9c0.6,0.6,0.2-4.4,0.2-4.4
		s1.4,4.1,1.9,3.5c0.6-0.6-0.7-5.5-0.7-5.5s3.6,7.5,2.8,1.7s-5.5-6.3-8.4-6.3s-4.5,8.9-6.8,10.3c-2.3,1.4-7.3-0.6-7.3-0.6
		L122.5-75.5z"/>
	<g>
		<path class="st10" d="M350.5-227.4c0,0-0.2-1.8-9.7-1.8c-4.9,0-10.3-1.8-10.9-6.7c-1.1-8.8,9.7-19.4,22.5-29.1
			c12.8-9.7-29.1-16.4-37.6-12.1c-8.5,4.2-27.9,36.4-28.5,44.3c-0.6,7.9,10.9,20,10.9,20l14.6-3L350.5-227.4z"/>
		<path class="st10" d="M245.5-176.4c-0.7-1.8-0.8-18.3,1.2-17.6s13,0.3,13,0.3s-15-17.2-12.4-18.5c2.7-1.3,23.9-1.3,22.7-4.4
			c-1.2-3-22.4-8.8-19.8-10.1c2.6-1.3,9.7-14.2,9.7-14.2s-18.6-1.4-16.9-2.6s11.5-10.2,11.5-10.2l-13.4-12.9l13.3-6.1
			c0,0-7-15-5.2-15.2l26.7,2.2l6.7,99L245.5-176.4"/>
		<path class="st10" d="M245.5-176.4l-10.3-9.1l-8.6,16l-2.9-15.4l-14.2,3.1l-4-11l-6.7,6.7c0,0,20,20,26.7,25.5s27.3,3,27.3,3
			L245.5-176.4z"/>
		
			<linearGradient id="SVGID_37_" gradientUnits="userSpaceOnUse" x1="322.7827" y1="545.8232" x2="408.863" y2="545.8232" gradientTransform="matrix(0.9906 -0.1366 -0.1366 -0.9906 52.4413 331.9893)">
			<stop  offset="0" style="stop-color:#E6E6E6"/>
			<stop  offset="1" style="stop-color:#FF9300"/>
		</linearGradient>
		<path class="st58" d="M309.4-239.1l6.1,2.8l-1.1-8.2l7.5,3.8l-1-7.9c0,0,6.2,2.3,7.2,1.8s2.9-7.1,2.9-7.1l4.4,2.2l1.7-5.4l5,4.7
			l2.4-5.5l4.3,0.9l1-6.2l8.7,3.6l2.2-7.2l6.1,4.4l0.1-9.2c0,0,8.2,7.2,8,6c-0.1-1.2-0.9-8.7-0.9-8.7s8.5,5.5,8.2,4.8
			c-0.3-0.7-3-12.1-3-12.1l-8.9-0.2l-71.5,37.6L309.4-239.1z"/>
		<path class="st12" d="M309.9-151.1c0,0-6.7,16.7-7.3,20.4c-0.6,3.6,9.3,5.3,10.2,7.9c0.9,2.6-6.4,1.2-6.4,1.2s-2.5,2.4-4.8,1.8
			c-1.5-0.4-8.3-0.9-12.9-1.3c-2.3-0.2-4-2.3-3.7-4.6l2.8-20.3C287.8-145.9,308.5-160.5,309.9-151.1z"/>
		<path class="st13" d="M285.6-130.5c0,0,9.1-7.5,14.6-9.3s3.9,4.2,3.9,4.2l5.8-15.7c0,0-19.7,3.1-20.2,3.7s-3.1,5.1-3.1,5.1
			L285.6-130.5z"/>
		<g>
			
				<linearGradient id="SVGID_38_" gradientUnits="userSpaceOnUse" x1="215.6816" y1="512.8561" x2="409.1292" y2="512.8561" gradientTransform="matrix(0.9906 -0.1366 -0.1366 -0.9906 52.4413 331.9893)">
				<stop  offset="0" style="stop-color:#FF3A2D"/>
				<stop  offset="1" style="stop-color:#D50000"/>
			</linearGradient>
			<path class="st59" d="M308.9-188.4c1.7,5.6,5.9,17.6,6.8,26.4c0.9,8.8-6.6,16.7-14.7,19.3c-8.1,2.6-12.6,3.3-19.9,5.6
				c-4.1,3.9-8.9,7.3-12.7,11.7c5.1,0.9,11.6,2,15,6.2c-1.6,1.7-3.4,2.8-5.6,3.1c-3.5,0.5-5.6,0.8-9.4,1.3
				c-2.6,0.3-6.9-0.3-10.7-0.6c-2.8-0.2-4.9-2.6-5-5.4c-0.1-5.1,0.4-9.7-0.1-15.3c-25.1-1.8-37.8-29.4-53.9-50
				c10.2-0.6,23.3,17.4,33.4,17s31.8-29,35.4-39.2c3.6-10.2-8.8-26.3-13.5-40.4c-4.7-14.2-7.7-24.6,10-38.1s65.5-48,82.3-36.3
				c16.8,11.8,41.6,33.9,31.9,45.2c-9.6,11.3-72.3,27.4-74.2,47.4s4.4,12.1,12.5,9.4c7.4-2.4,29.2-11.4,34-6.5
				c4.8,4.9-12.7,8.4-27.8,11.8c-14.3,3.2-19.3,10.1-20.9,10.3c-1.6,0.2,3.9,6.8,4.8,9.6C307.7-193.2,307.2-193.9,308.9-188.4z"/>
		</g>
		<path class="st15" d="M308-121.3c0,0-0.6-4.1,1-4s4.6,1.9,5.2,3.1C314.7-121,308-121.3,308-121.3z"/>
		<path class="st15" d="M300.7-119.9c0,0-0.6-3.5,1.8-3.5c2.4,0,5.5,1.2,6.1,3S300.7-119.9,300.7-119.9z"/>
		<path class="st15" d="M280-117.2c0,0-0.6-4.1,1-4s4.6,1.9,5.2,3.1C286.8-116.9,280-117.2,280-117.2z"/>
		<path class="st15" d="M272.8-115.8c0,0-0.6-3.5,1.8-3.5c2.4,0,5.5,1.2,6.1,3C281.3-114.5,272.8-115.8,272.8-115.8z"/>
		<path class="st13" d="M281.3-137.5c0,0-27.3,1.2-28.5,0.6s0.4,10.9,0.2,13.3s4.7-3.6,13.8-6.6
			C275.9-133.2,281.3-137.5,281.3-137.5z"/>
		<g>
			
				<linearGradient id="SVGID_39_" gradientUnits="userSpaceOnUse" x1="345.3929" y1="202.8223" x2="448.4571" y2="202.8223" gradientTransform="matrix(0.9932 -0.1162 -0.101 -0.8634 19.0464 -27.4324)">
				<stop  offset="0.1522" style="stop-color:#FF3A2D"/>
				<stop  offset="0.1907" style="stop-color:#FF462A"/>
				<stop  offset="0.4015" style="stop-color:#FF811B"/>
				<stop  offset="0.5953" style="stop-color:#FFB00F"/>
				<stop  offset="0.7658" style="stop-color:#FFD207"/>
				<stop  offset="0.9065" style="stop-color:#FFE702"/>
				<stop  offset="1" style="stop-color:#FFEE00"/>
			</linearGradient>
			<path class="st60" d="M341.4-244.4c0-0.1,0-0.2,0.1-0.2c1.9-0.9,27.6-13.6,37-15.2c11.3-1.9,21-0.7,26.6-5.5
				c3.9-3.3,4.4-6.3,4.4-7.6c0-0.2,0.3-0.3,0.4-0.1c1.2,1.9,4.1,7.3,1.8,10.5c-2.1,2.9-4.6,5.3-6.1,6.5c-0.2,0.2,0,0.4,0.2,0.3
				c3-1.4,10.5-4.8,14.8-5.6c7.6-1.4,18.1,1.6,22.8,4.2c0.6,0.3,0.4,1.2-0.3,1.3c-3.4,0.3-10.2,1.4-13.7,5.3
				c-4.8,5.3-21.6,27-40.1,23.6C371-230.2,341.6-238.9,341.4-244.4z"/>
			
				<linearGradient id="SVGID_40_" gradientUnits="userSpaceOnUse" x1="350.8266" y1="197.8509" x2="416.7687" y2="197.8509" gradientTransform="matrix(0.9932 -0.1162 -0.101 -0.8634 19.0464 -27.4324)">
				<stop  offset="0.1522" style="stop-color:#FF5A19"/>
				<stop  offset="1" style="stop-color:#FFEE00"/>
			</linearGradient>
			<path class="st61" d="M347-243.2c0,0,30-12.5,42.3-8.4c12.3,4.1,13.7,10,20.7,8c11.3-3.3-8.6,10.3-20.6,8.6
				C377.4-236.8,347-243.2,347-243.2z"/>
			
				<linearGradient id="SVGID_41_" gradientUnits="userSpaceOnUse" x1="352.6203" y1="198.6264" x2="403.1183" y2="198.6264" gradientTransform="matrix(0.9932 -0.1162 -0.101 -0.8634 19.0464 -27.4324)">
				<stop  offset="0.1522" style="stop-color:#FFB02A"/>
				<stop  offset="0.9393" style="stop-color:#FFEE00"/>
			</linearGradient>
			<path class="st62" d="M348.8-243.6c0,0,21.5-5.6,28.8-5.6c7.3-0.1,10.6,2.3,16.2,4.3c1.3,0.5,4.3,1,5.8,1.3
				c0.3,0,0.3,0.4,0.1,0.5c-2.1,1-8.4,3.9-14.4,4.9C377.8-236.9,348.8-243.6,348.8-243.6z"/>
		</g>
		<g>
			<path class="st19" d="M302.9-255.9c0,0-3.2-1.9-6.4-2.4c-3.2-0.5-8.1-0.6-8.1-0.6l1.7-0.9c0,0-0.7-0.2-1.5-1.1
				c-0.7-0.7-1.8-3.1-1.8-3.1s3.5,0.4,7.4,0.8c5.5,0.7,8.2,3.8,8.2,3.8h-1.1C301.3-259.3,302.7-257.2,302.9-255.9z"/>
			<path class="st20" d="M300.9-260.1c0,0-1.6-1.5-4.8-2.3c-3.2-0.8-7-0.9-7-0.9l2.7,1l-3.2-0.5c0,0,1.7,1,4.9,1.6
				c3.2,0.6,7.3,2.3,7.3,2.3l-0.8-1.4L300.9-260.1z"/>
		</g>
		<path class="st10" d="M302-197.1c0,0,0.8,0.3,5.4,0.6s6-7.3,9-8s1.1,5.9,1.6,6.6c0.4,0.7,1.5-4.1,1.5-4.1s0.1,4.3,0.8,3.9
			c0.7-0.4,1-5.4,1-5.4s1.2,8.3,2.1,2.5c1-5.8-3.4-7.7-6.1-8.6c-2.7-0.9-6.9,7.1-9.6,7.8c-2.6,0.6-6.7-2.8-6.7-2.8L302-197.1z"/>
		<g>
			<circle cx="296.6" cy="-250.8" r="4.2"/>
			<circle class="st0" cx="296.9" cy="-251.6" r="1.5"/>
			<circle class="st0" cx="295.3" cy="-249.1" r="0.7"/>
		</g>
		<path class="st10" d="M276.9-191.4c0,0,0.8,0.1,5.3-1s3.5-8.8,6.1-10.3s2.8,5.3,3.5,5.9c0.6,0.6,0.2-4.4,0.2-4.4s1.4,4.1,1.9,3.5
			c0.6-0.6-0.7-5.5-0.7-5.5s3.6,7.5,2.8,1.7c-0.8-5.8-5.5-6.3-8.4-6.3s-4.5,8.9-6.8,10.3c-2.3,1.4-7.3-0.6-7.3-0.6L276.9-191.4z"/>
		<g>
			<path class="st21" d="M343.2-284.9c3.2,6.1,7.8,10.1,10.2,8.8c2.5-1.3,1.9-7.3-1.3-13.4c-3.2-6.1-7.8-10.1-10.2-8.8
				S340.1-291,343.2-284.9z"/>
			<path class="st22" d="M342.3-284.3c3.2,6.1,7.8,10.1,10.2,8.8c2.5-1.3,1.9-7.3-1.3-13.4c-3.2-6.1-7.8-10.1-10.2-8.8
				C338.5-296.4,339.1-290.4,342.3-284.3z"/>
		</g>
		<g>
			<path class="st21" d="M359-297.8c2.5,4.7,6,7.8,7.9,6.8s1.5-5.7-1-10.4c-2.5-4.7-6-7.8-7.9-6.8S356.5-302.6,359-297.8z"/>
			<path class="st22" d="M358.2-297.3c2.5,4.7,6,7.8,7.9,6.8s1.5-5.7-1-10.4c-2.5-4.7-6-7.8-7.9-6.8S355.8-302.1,358.2-297.3z"/>
		</g>
		<g>
			<path class="st23" d="M344.7-304c0,0-4.8-2.5-8.6-0.4c-7.2,4-2.9,14.8-2.9,14.8s-2.3-6.3,4.9-12.2
				C341.8-304.6,344.7-304,344.7-304z"/>
			<path class="st24" d="M344.7-304c0,0-5.4,0.7-9.3,5.9c-3.9,5.2-1.2,11-1.2,11s-3.4-6,0.1-11.4C337.8-304,344.7-304,344.7-304z"/>
			<path class="st25" d="M342.8-302.4c0,0-5.8,3.5-6.8,8.9c-1,5.4,1.9,9.4,1.9,9.4s-4-3.6-3.5-9.5
				C335-299.7,342.8-302.4,342.8-302.4z"/>
		</g>
		<g>
			<path class="st23" d="M358.2-311.5c0,0-2.8-1.5-5.1-0.2c-4.3,2.4-1.7,8.8-1.7,8.8s-1.3-3.7,2.9-7.2
				C356.5-311.9,358.2-311.5,358.2-311.5z"/>
			<path class="st24" d="M358.2-311.5c0,0-3.2,0.4-5.5,3.5c-2.3,3.1-0.7,6.5-0.7,6.5s-2-3.6,0.1-6.8
				C354.1-311.5,358.2-311.5,358.2-311.5z"/>
			<path class="st25" d="M357-310.5c0,0-3.4,2-4,5.2s1.2,5.6,1.2,5.6s-2.4-2.2-2.1-5.6C352.5-308.9,357-310.5,357-310.5z"/>
		</g>
		<path class="st10" d="M264.3-286.9c0,0,11.5-10.3,32.2-19.4c19.7-8.7,29.7-9.1,29.7-9.1s-4.9-12.7,6.7-17.6
			c11.6-4.9-11.5-12.1-22.5,0c-6.9,7.7-10.3-6.7-10.3-6.7l-9.1,21.9l-12.1-3.6l-3.6,18.8l-13.4,1.2L264.3-286.9z"/>
	</g>
	<g>
		<g>
			<path class="st26" d="M251.3,152.8c0,0-21.9-3.7-22.9,0.4c-0.7,2.9,23.4,2.8,23.4,2.8L251.3,152.8z"/>
			<path class="st26" d="M231.3,149.4c0,0-5.9-7.3-6.6-5.1s2.1,5.7,2.1,5.7s-8.1-3.6-9.1-2.4s7.9,4.1,7.4,4.2s-8.8-0.6-8.5,0.6
				c0.2,1.2,8.1,1.3,8.2,1.8s-7.7,1.2-7.2,2.1c0.4,0.9,7.4,0.1,8.2,0.2c0.8,0.1-4.9,2.4-4.5,3.4c0.4,0.9,5.4-1.3,6.3-1.9
				c0.9-0.7,5-0.4,6.5-1.7s0.9-4.5,0-5.3C233.2,150.1,231.3,149.4,231.3,149.4z"/>
		</g>
		<path class="st27" d="M210.7,98.4c4.9,0,12.8,0.5,16.6-1.6c7.7-4.4-14.5-13.5-27.3-23.3s29.1-16.4,37.6-12.1s37.7,28.6,38.3,36.5
			c0.6,7.9-20.7,27.9-20.7,27.9l-14.6-3C240.7,122.7,201.2,98.4,210.7,98.4z"/>
		
			<linearGradient id="SVGID_42_" gradientUnits="userSpaceOnUse" x1="201.6656" y1="221.7074" x2="249.8833" y2="173.4897" gradientTransform="matrix(1 0 0 -1 0 276.8017)">
			<stop  offset="0" style="stop-color:#FFC76D"/>
			<stop  offset="1" style="stop-color:#E8E3E0"/>
		</linearGradient>
		<path class="st63" d="M189.7,67c0,0-1.5,4.1,0.6,4.6s4.3-1.1,4.3-1.1s-1.1,8.6,1.6,7.5s4.8-2.6,4.8-2.6s-1,5.9,1.6,6.4
			c2.7,0.5,5.4-2.8,5.4-2.8s0,7.1,2.6,7.1s5.7-3.2,5.7-3.2s-2.5,5.3,1.8,5.9c4.3,0.5,5.4-1.6,5.4-1.6s0.5,4.4,3.2,4.8
			c3.7,0.5,5.1-1.9,5.1-1.9s3,4,4,3.5c1.1-0.5,5.9-2.7,5.9-2.7s-0.5,3.7,2.1,3.7s7-3.7,7-3.7s0,3.7,2.1,3.2s3.7-3.7,3.7-3.7
			s1.1,2.7,3.2,2.1c2.1-0.5,4.3-4.3,4.3-4.3L189.7,67z"/>
		
			<linearGradient id="SVGID_43_" gradientUnits="userSpaceOnUse" x1="177.069" y1="65.1751" x2="236.3537" y2="58.9997" gradientTransform="matrix(0.9996 2.982325e-02 2.982325e-02 -0.9996 29.3039 164.2022)">
			<stop  offset="0" style="stop-color:#FFC76D"/>
			<stop  offset="1" style="stop-color:#E8E3E0"/>
		</linearGradient>
		<path class="st64" d="M267.4,111.2c0,0-3.2-7.5-6.4-5.4c-2.9,1.9-1.6,4.3-1.6,4.3s-1.6-3.7-3.7-2.1s-2.1,4.3-2.1,4.3
			s-1-5.3-3.7-3.2c-2.7,2.1-2.8,5.1-2.8,5.1s0.2-5.6-2.5-4.6s-2.2,2.8-2.2,2.8s-0.4-4.4-3.1-3.4s-3.3,2.1-3.3,2.1s-0.9-5.2-3.1-3.2
			c-2.2,2.1-2.7,2.5-2.7,2.5s0.6-5.1-2.1-4.6s-3.7,1.7-3.7,1.7s1.6-3.8-1.6-3.9s-3,1.9-3,1.9s0.4-6.1-2.3-4.1c-2.7,2.1-3,2.3-3,2.3
			s4.3-8.3,0.9-8.2c-3.4,0.1-3.8,5.4-3.8,5.4s1.6-7.5-0.5-7s-1.2,5.4-1.2,5.4s10.9,10.6,11.9,11.2s41.4,12,41.4,12L267.4,111.2z"/>
		<g>
			<path class="st30" d="M248.7,191.3c0,0,6.7,16.7,7.4,20.4c0.6,3.6-9.3,5.4-10.2,8c-0.9,2.6,6.4,1.1,6.4,1.1s2.5,2.4,4.8,1.8
				c1.5-0.4,8.3-1,12.9-1.3c2.3-0.2,4-2.3,3.7-4.6l-2.8-20.2C270.8,196.4,250,181.9,248.7,191.3z"/>
			<path class="st31" d="M273,211.8c0,0-9.1-7.5-14.6-9.3s-3.9,4.2-3.9,4.2l-5.8-15.7c0,0,19.7,3,20.2,3.6s3.1,5.1,3.1,5.1
				L273,211.8z"/>
			<path class="st15" d="M250.7,221.1c0,0,0.6-4.1-1-4s-4.6,1.9-5.2,3.1C243.9,221.4,250.7,221.1,250.7,221.1z"/>
			<path class="st15" d="M257.9,222.4c0,0,0.6-3.5-1.9-3.5c-2.4,0-5.5,1.2-6.1,3S257.9,222.4,257.9,222.4z"/>
		</g>
		<path class="st32" d="M300.1,169.6c0,0,9.1-22.2,6.4-23.6c-2.7-1.3-10.9-7.2-9.6-10.2c1.2-3,23.5-11.5,20.9-12.8
			c-2.7-1.3-9.6-16.6-9.6-16.6s23.3-5.9,21.6-7.1s-11.5-10.2-11.5-10.2l13.4-12.9l-13.3-6.1c0,0-4.4-13,0.9-16.8
			c5.4-3.7-24.6,1.1-24.6,1.1l-28.4,98"/>
		<path class="st32" d="M297.9,167.4l17.1-13.3l8.6,12.3l2.9-11.6l13.7,2l4.6-9.9l6.7,6.7c0,0-20,20-26.7,25.5s-27.3,3-27.3,3
			L297.9,167.4z"/>
		
			<linearGradient id="SVGID_44_" gradientUnits="userSpaceOnUse" x1="188.2112" y1="155.9633" x2="351.4113" y2="155.9633" gradientTransform="matrix(1 0 0 -1 0 276.8017)">
			<stop  offset="0" style="stop-color:#6BC62A"/>
			<stop  offset="1" style="stop-color:#00B53E"/>
		</linearGradient>
		<path class="st65" d="M318.1,170.5c-31.9-3.1-29.2-27.7-20.1-43.2c0.1-0.1,0.1-0.2,0-0.3c12.8-13.2,26.4-39.3,23.1-48.9
			c-4.3-12.3-76.6-66.1-99.6-61.3s-33.3,48.5-33.3,48.5c4,15.2,49,32.2,68.8,26.5c7.7-2.3,13.5-3.7,16.9,2.9c1.8,3.5,0,8.1-18.2,15
			c-15.5,5.9-39.4-4.5-43.4-10.7c-3.4-5.4-12.9,2.5-3.8,10.1c6,5,20.4,13.9,43.8,20.4c-2.2,3.3-5.1,8.3-5.8,10.2
			c-1,2.8-4.1,8.9-5.9,14.5c-1.7,5.6-5.5,12.6-6.4,21.4c-0.9,8.8,6.9,18.9,14.9,21.5s12.6,3.3,19.9,5.6c4.1,3.9,8.9,7.3,12.7,11.7
			c-5.1,0.9-11.6,2-15,6.2c1.6,1.7,3.4,2.8,5.6,3.1c3.5,0.5,5.6,0.8,9.4,1.3c2.6,0.3,6.9-0.3,10.7-0.6c2.8-0.2,4.9-2.6,5-5.4
			c0.1-5.1-0.4-9.7,0.1-15.3c25.1-1.8,37.8-29.4,53.9-50C341.3,152.9,328.1,171.5,318.1,170.5z"/>
		<path class="st15" d="M270.2,222.4c0,0,0.6-4.1-1-4s-4.6,1.9-5.2,3.1C263.5,222.7,270.2,222.4,270.2,222.4z"/>
		<path class="st15" d="M277.4,223.8c0,0,0.6-3.5-1.8-3.5s-5.5,1.2-6.1,3S277.4,223.8,277.4,223.8z"/>
		<path class="st31" d="M269,202.8c0,0,28.4-0.8,28.4,0.5c0,1.1-0.2,10.9,0,13.4s-4.8-4.2-13.9-7.3S269,202.8,269,202.8z"/>
		<g>
			<g>
				<path class="st34" d="M222,61.1c-3.2,6.1-7.8,10.1-10.2,8.8c-2.5-1.3-1.9-7.3,1.3-13.4c3.2-6.1,7.8-10.1,10.2-8.8
					C225.7,49,225.2,55,222,61.1z"/>
				<path class="st27" d="M222.9,61.8c-3.2,6.1-7.8,10.1-10.2,8.8c-2.5-1.3-1.9-7.3,1.3-13.4c3.2-6.1,7.8-10.1,10.2-8.8
					C226.7,49.6,226.1,55.6,222.9,61.8z"/>
			</g>
			<g>
				<path class="st34" d="M206.2,48.2c-2.5,4.7-6,7.8-7.9,6.8s-1.5-5.7,1-10.4s6-7.8,7.9-6.8C209.2,38.8,208.7,43.5,206.2,48.2z"/>
				<path class="st27" d="M207,48.7c-2.5,4.7-6,7.8-7.9,6.8s-1.5-5.7,1-10.4s6-7.8,7.9-6.8C209.9,39.3,209.5,43.9,207,48.7z"/>
			</g>
		</g>
		<g>
			<g>
				<path class="st32" d="M288,74.7c0,0,2.2,2.9,3,6.1s1.4,8,1.4,8l0.7-1.8c0,0,0.3,0.6,1.2,1.4c0.8,0.6,3.2,1.4,3.2,1.4
					s-0.7-3.4-1.6-7.3c-1.2-5.4-4.6-7.8-4.6-7.8l0.1,1.1C291.5,75.9,289.3,74.8,288,74.7z"/>
				<path class="st30" d="M292.4,76.2c0,0,1.7,1.5,2.8,4.6c1.1,3.1,1.6,6.9,1.6,6.9l-1.3-2.5l0.8,3.1c0,0-1.2-1.6-2.1-4.7
					c-0.9-3.2-3-7-3-7l1.5,0.7L292.4,76.2z"/>
			</g>
			<path class="st36" d="M282.2,81.7c0,0,7.6-0.9,5.3,6"/>
		</g>
		<g>
			<path class="st37" d="M250.9,149.1c-4.2-0.3-22.5,2.5-22.2,6.7c0.2,2.9,23.2-4.4,23.2-4.4S255.1,149.4,250.9,149.1z"/>
			<path class="st37" d="M230.3,151.3c0,0-7.9-5.2-7.8-2.9c0.1,2.2,3.7,4.8,3.7,4.8s-8.8-1-9.4,0.5s8.8,1.6,8.3,1.8
				c-0.4,0.2-8.6,2-8,3.1s8.1-1.2,8.4-0.8c0.2,0.4-7,3.4-6.3,4.2s7.1-2.1,7.9-2.2c0.8-0.1-4,3.7-3.2,4.6c0.7,0.8,4.7-2.8,5.4-3.7
				s4.6-1.9,5.7-3.6c1.1-1.7-0.5-4.6-1.6-5.1S230.3,151.3,230.3,151.3z"/>
		</g>
		<path class="st32" d="M299,56.1c0,0-12.3-10.5-33-19.6c-19.7-8.7-33.4-12-33.4-12s0.1-19.7,18.7-24.1c9.1-2.1,24.5,3.8,22,4.8
			c-10.7,4.3-11.4,22.4-2.1,15c8-6.4,20.9,1.1,20.9,1.1s-13.1,8.2-8.6,9.1c5.4,1.1,18.6-2.5,15,1.6c-4.3,4.8-9.6,8.6-9.6,8.6
			s24.1-4.8,19.8,1.1S299,56.1,299,56.1z"/>
	</g>
	<g>
		<g>
			<path class="st26" d="M63.1,152.8c0,0-21.9-3.7-22.9,0.4c-0.7,2.9,23.4,2.8,23.4,2.8L63.1,152.8z"/>
			<path class="st26" d="M43.1,149.4c0,0-5.9-7.3-6.6-5.1s2.1,5.7,2.1,5.7s-8.1-3.6-9.1-2.4s7.9,4.1,7.4,4.2s-8.8-0.6-8.5,0.6
				c0.2,1.2,8.1,1.3,8.2,1.8s-7.7,1.2-7.2,2.1c0.4,0.9,7.4,0.1,8.2,0.2c0.8,0.1-4.9,2.4-4.5,3.4c0.4,0.9,5.4-1.3,6.3-1.9
				c0.9-0.7,5-0.4,6.5-1.7s0.9-4.5,0-5.3C45,150.1,43.1,149.4,43.1,149.4z"/>
		</g>
		<path class="st27" d="M22.5,98.4c4.9,0,12.8,0.5,16.6-1.6c7.7-4.4-14.5-13.5-27.3-23.3s29.1-16.4,37.6-12.1S87.1,90,87.7,97.9
			c0.6,7.9-20.7,27.9-20.7,27.9l-14.6-3C52.5,122.7,13,98.4,22.5,98.4z"/>
		
			<linearGradient id="SVGID_45_" gradientUnits="userSpaceOnUse" x1="13.4543" y1="221.7074" x2="61.672" y2="173.4897" gradientTransform="matrix(1 0 0 -1 0 276.8017)">
			<stop  offset="0" style="stop-color:#FFC76D"/>
			<stop  offset="1" style="stop-color:#E8E3E0"/>
		</linearGradient>
		<path class="st66" d="M1.5,67c0,0-1.5,4.1,0.6,4.6s4.3-1.1,4.3-1.1S5.3,79.1,8,78s4.8-2.6,4.8-2.6s-1,5.9,1.6,6.4
			c2.7,0.5,5.4-2.8,5.4-2.8s0,7.1,2.6,7.1s5.7-3.2,5.7-3.2s-2.5,5.3,1.8,5.9c4.3,0.5,5.4-1.6,5.4-1.6s0.5,4.4,3.2,4.8
			c3.7,0.5,5.1-1.9,5.1-1.9s3,4,4,3.5c1.1-0.5,5.9-2.7,5.9-2.7s-0.5,3.7,2.1,3.7s7-3.7,7-3.7s0,3.7,2.1,3.2s3.7-3.7,3.7-3.7
			s1.1,2.7,3.2,2.1c2.1-0.5,4.3-4.3,4.3-4.3L1.5,67z"/>
		
			<linearGradient id="SVGID_46_" gradientUnits="userSpaceOnUse" x1="-11.0501" y1="59.5625" x2="48.2346" y2="53.3871" gradientTransform="matrix(0.9996 2.982325e-02 2.982325e-02 -0.9996 29.3039 164.2022)">
			<stop  offset="0" style="stop-color:#FFC76D"/>
			<stop  offset="1" style="stop-color:#E8E3E0"/>
		</linearGradient>
		<path class="st67" d="M79.2,111.2c0,0-3.2-7.5-6.4-5.4c-2.9,1.9-1.6,4.3-1.6,4.3s-1.6-3.7-3.7-2.1s-2.1,4.3-2.1,4.3
			s-1-5.3-3.7-3.2c-2.7,2.1-2.8,5.1-2.8,5.1s0.2-5.6-2.5-4.6s-2.2,2.8-2.2,2.8s-0.4-4.4-3.1-3.4s-3.3,2.1-3.3,2.1s-0.9-5.2-3.1-3.2
			c-2.2,2.1-2.7,2.5-2.7,2.5s0.6-5.1-2.1-4.6s-3.7,1.7-3.7,1.7s1.6-3.8-1.6-3.9s-3,1.9-3,1.9s0.4-6.1-2.3-4.1c-2.7,2.1-3,2.3-3,2.3
			s4.3-8.3,0.9-8.2c-3.4,0.1-3.8,5.4-3.8,5.4s1.6-7.5-0.5-7s-1.2,5.4-1.2,5.4s10.9,10.6,11.9,11.2s41.4,12,41.4,12L79.2,111.2z"/>
		<g>
			<path class="st30" d="M60.5,191.3c0,0,6.7,16.7,7.4,20.4c0.6,3.6-9.3,5.4-10.2,8c-0.9,2.6,6.4,1.1,6.4,1.1s2.5,2.4,4.8,1.8
				c1.5-0.4,8.3-1,12.9-1.3c2.3-0.2,4-2.3,3.7-4.6l-2.8-20.2C82.6,196.4,61.8,181.9,60.5,191.3z"/>
			<path class="st31" d="M84.8,211.8c0,0-9.1-7.5-14.6-9.3s-3.9,4.2-3.9,4.2L60.5,191c0,0,19.7,3,20.2,3.6s3.1,5.1,3.1,5.1
				L84.8,211.8z"/>
			<path class="st15" d="M62.5,221.1c0,0,0.6-4.1-1-4s-4.6,1.9-5.2,3.1C55.7,221.4,62.5,221.1,62.5,221.1z"/>
			<path class="st15" d="M69.7,222.4c0,0,0.6-3.5-1.9-3.5c-2.4,0-5.5,1.2-6.1,3S69.7,222.4,69.7,222.4z"/>
		</g>
		<path class="st32" d="M111.9,169.6c0,0,9.1-22.2,6.4-23.6c-2.7-1.3-10.9-7.2-9.6-10.2c1.2-3,23.5-11.5,20.9-12.8
			c-2.7-1.3-9.6-16.6-9.6-16.6s23.3-5.9,21.6-7.1s-11.5-10.2-11.5-10.2l13.4-12.9l-13.3-6.1c0,0-4.4-13,0.9-16.8
			c5.4-3.7-24.6,1.1-24.6,1.1l-28.4,98"/>
		<path class="st32" d="M109.7,167.4l17.1-13.3l8.6,12.3l2.9-11.6l13.7,2l4.6-9.9l6.7,6.7c0,0-20,20-26.7,25.5s-27.3,3-27.3,3
			L109.7,167.4z"/>
		
			<linearGradient id="SVGID_47_" gradientUnits="userSpaceOnUse" x1="1.818989e-12" y1="155.9633" x2="163.2" y2="155.9633" gradientTransform="matrix(1 0 0 -1 0 276.8017)">
			<stop  offset="0" style="stop-color:#6BC62A"/>
			<stop  offset="1" style="stop-color:#00B53E"/>
		</linearGradient>
		<path class="st68" d="M129.9,170.5c-31.9-3.1-29.2-27.7-20.1-43.2c0.1-0.1,0.1-0.2,0-0.3c12.8-13.2,26.4-39.3,23.1-48.9
			C128.6,65.8,56.3,12,33.3,16.8S0,65.3,0,65.3c4,15.2,49,32.2,68.8,26.5c7.7-2.3,13.5-3.7,16.9,2.9c1.8,3.5,0,8.1-18.2,15
			C52,115.6,28.1,105.2,24.1,99c-3.4-5.4-12.9,2.5-3.8,10.1c6,5,20.4,13.9,43.8,20.4c-2.2,3.3-5.1,8.3-5.8,10.2
			c-1,2.8-4.1,8.9-5.9,14.5c-1.7,5.6-5.5,12.6-6.4,21.4c-0.9,8.8,6.9,18.9,14.9,21.5s12.6,3.3,19.9,5.6c4.1,3.9,8.9,7.3,12.7,11.7
			c-5.1,0.9-11.6,2-15,6.2c1.6,1.7,3.4,2.8,5.6,3.1c3.5,0.5,5.6,0.8,9.4,1.3c2.6,0.3,6.9-0.3,10.7-0.6c2.8-0.2,4.9-2.6,5-5.4
			c0.1-5.1-0.4-9.7,0.1-15.3c25.1-1.8,37.8-29.4,53.9-50C153.1,152.9,139.9,171.5,129.9,170.5z"/>
		<g>
			<path class="st2" d="M30.5,139.4c0,0-13.3-8.3-4.1-22.6C26.5,116.7,38,123.6,30.5,139.4z"/>
			<path class="st2" d="M28.5,141.4c0,0-5.8,14.9-21.5,8.3C6.9,149.7,11.6,136.7,28.5,141.4z"/>
			<path class="st2" d="M21.9,135.7c0,0-15.6,3.7-19.1-13C2.8,122.7,16.1,119.2,21.9,135.7z"/>
			<g>
				<path class="st2" d="M19.8,135c0-0.1,7.6,1.7,10.7,4.4s6.3,6.1,7.8,8.5s2.1,5,2.2,6.8s-0.2,3-0.3,2.9c-0.1,0-0.1-1.1-0.4-2.9
					c-0.3-1.7-3.9-4.5-5.3-6.7C33.2,145.7,19.8,135.1,19.8,135z"/>
			</g>
		</g>
		<path class="st15" d="M82,222.4c0,0,0.6-4.1-1-4s-4.6,1.9-5.2,3.1C75.3,222.7,82,222.4,82,222.4z"/>
		<path class="st15" d="M89.2,223.8c0,0,0.6-3.5-1.8-3.5s-5.5,1.2-6.1,3S89.2,223.8,89.2,223.8z"/>
		<path class="st31" d="M80.8,202.8c0,0,28.4-0.8,28.4,0.5c0,1.1-0.2,10.9,0,13.4s-4.8-4.2-13.9-7.3S80.8,202.8,80.8,202.8z"/>
		<g>
			<g>
				<path class="st34" d="M33.8,61.1c-3.2,6.1-7.8,10.1-10.2,8.8c-2.5-1.3-1.9-7.3,1.3-13.4c3.2-6.1,7.8-10.1,10.2-8.8
					C37.5,49,37,55,33.8,61.1z"/>
				<path class="st27" d="M34.7,61.8c-3.2,6.1-7.8,10.1-10.2,8.8c-2.5-1.3-1.9-7.3,1.3-13.4c3.2-6.1,7.8-10.1,10.2-8.8
					C38.5,49.6,37.9,55.6,34.7,61.8z"/>
			</g>
			<g>
				<path class="st34" d="M18,48.2c-2.5,4.7-6,7.8-7.9,6.8s-1.5-5.7,1-10.4s6-7.8,7.9-6.8C21,38.8,20.5,43.5,18,48.2z"/>
				<path class="st27" d="M18.8,48.7c-2.5,4.7-6,7.8-7.9,6.8s-1.5-5.7,1-10.4s6-7.8,7.9-6.8C21.7,39.3,21.3,43.9,18.8,48.7z"/>
			</g>
			<g>
				<path class="st35" d="M32.3,42c0,0,4.8-2.5,8.6-0.4c7.2,4,2.9,14.8,2.9,14.8s2.3-6.3-4.9-12.2C35.3,41.4,32.3,42,32.3,42z"/>
				<path class="st32" d="M32.3,42c0,0,5.4,0.7,9.3,5.9s1.2,11,1.2,11s3.4-6-0.1-11.4C39.3,42,32.3,42,32.3,42z"/>
				<path class="st25" d="M34.3,43.7c0,0,5.8,3.5,6.8,8.9S39.2,62,39.2,62s4-3.6,3.5-9.5C42,46.3,34.3,43.7,34.3,43.7z"/>
			</g>
			<g>
				<path class="st35" d="M18.8,34.5c0,0,2.8-1.5,5.1-0.2c4.3,2.4,1.7,8.8,1.7,8.8s1.3-3.7-2.9-7.2C20.6,34.1,18.8,34.5,18.8,34.5z"
					/>
				<path class="st32" d="M18.8,34.5c0,0,3.2,0.4,5.5,3.5c2.3,3.1,0.7,6.5,0.7,6.5s2-3.6-0.1-6.8C22.9,34.5,18.8,34.5,18.8,34.5z"/>
				<path class="st25" d="M20,35.5c0,0,3.4,2,4,5.2s-1.2,5.6-1.2,5.6s2.4-2.2,2.1-5.6C24.6,37.1,20,35.5,20,35.5z"/>
			</g>
		</g>
		<g>
			<g>
				<path class="st32" d="M99.8,74.7c0,0,2.2,2.9,3,6.1s1.4,8,1.4,8l0.7-1.8c0,0,0.3,0.6,1.2,1.4c0.8,0.6,3.2,1.4,3.2,1.4
					s-0.7-3.4-1.6-7.3c-1.2-5.4-4.6-7.8-4.6-7.8l0.1,1.1C103.3,75.9,101.1,74.8,99.8,74.7z"/>
				<path class="st30" d="M104.2,76.2c0,0,1.7,1.5,2.8,4.6c1.1,3.1,1.6,6.9,1.6,6.9l-1.3-2.5l0.8,3.1c0,0-1.2-1.6-2.1-4.7
					c-0.9-3.2-3-7-3-7l1.5,0.7L104.2,76.2z"/>
			</g>
			<path class="st36" d="M94,81.7c0,0,7.6-0.9,5.3,6"/>
		</g>
		<g>
			<path class="st37" d="M62.7,149.1c-4.2-0.3-22.5,2.5-22.2,6.7c0.2,2.9,23.2-4.4,23.2-4.4S66.9,149.4,62.7,149.1z"/>
			<path class="st37" d="M42.1,151.3c0,0-7.9-5.2-7.8-2.9c0.1,2.2,3.7,4.8,3.7,4.8s-8.8-1-9.4,0.5s8.8,1.6,8.3,1.8
				c-0.4,0.2-8.6,2-8,3.1s8.1-1.2,8.4-0.8c0.2,0.4-7,3.4-6.3,4.2s7.1-2.1,7.9-2.2c0.8-0.1-4,3.7-3.2,4.6c0.7,0.8,4.7-2.8,5.4-3.7
				s4.6-1.9,5.7-3.6c1.1-1.7-0.5-4.6-1.6-5.1S42.1,151.3,42.1,151.3z"/>
		</g>
		<path class="st32" d="M110.8,56.1c0,0-12.3-10.5-33-19.6c-19.7-8.7-33.4-12-33.4-12S44.5,4.8,63.1,0.4c9.1-2.1,24.5,3.8,22,4.8
			c-10.7,4.3-11.4,22.4-2.1,15c8-6.4,20.9,1.1,20.9,1.1s-13.1,8.2-8.6,9.1c5.4,1.1,18.6-2.5,15,1.6c-4.3,4.8-9.6,8.6-9.6,8.6
			s24.1-4.8,19.8,1.1S110.8,56.1,110.8,56.1z"/>
	</g>
	<g>
		<path class="st35" d="M374,8.2c0,0,4.8-2.5,8.6-0.4c7.2,4,2.9,14.8,2.9,14.8s2.3-6.3-4.9-12.2C377,7.6,374,8.2,374,8.2z"/>
		<path class="st32" d="M374,8.2c0,0,5.4,0.7,9.3,5.9s1.2,11,1.2,11s3.4-6-0.1-11.4C381,8.2,374,8.2,374,8.2z"/>
		<path class="st25" d="M376,9.9c0,0,5.8,3.5,6.8,8.9s-1.9,9.4-1.9,9.4s4-3.6,3.5-9.5C383.7,12.5,376,9.9,376,9.9z"/>
	</g>
	<g>
		<path class="st35" d="M360.5,0.7c0,0,2.8-1.5,5.1-0.2c4.3,2.4,1.7,8.8,1.7,8.8s1.3-3.7-2.9-7.2C362.3,0.3,360.5,0.7,360.5,0.7z"/>
		<path class="st32" d="M360.5,0.7c0,0,3.2,0.4,5.5,3.5s0.7,6.5,0.7,6.5s2-3.6-0.1-6.8C364.6,0.7,360.5,0.7,360.5,0.7z"/>
		<path class="st25" d="M361.7,1.7c0,0,3.4,2,4,5.2s-1.2,5.6-1.2,5.6s2.4-2.2,2.1-5.6C366.3,3.3,361.7,1.7,361.7,1.7z"/>
	</g>
	<g>
		<path class="st2" d="M388.3,56.7c0,0-13.3-8.3-4.1-22.6C384.3,34,395.8,40.9,388.3,56.7z"/>
		<path class="st2" d="M386.3,58.7c0,0-5.8,14.9-21.5,8.3C364.7,67,369.4,54,386.3,58.7z"/>
		<path class="st2" d="M379.7,53c0,0-15.6,3.7-19.1-13C360.6,40,373.9,36.5,379.7,53z"/>
		<g>
			<path class="st2" d="M377.6,52.3c0-0.1,7.6,1.7,10.7,4.4s6.3,6.1,7.8,8.5c1.5,2.4,2.1,5,2.2,6.8s-0.2,3-0.3,2.9
				c-0.1,0-0.1-1.1-0.4-2.9c-0.3-1.7-3.9-4.5-5.3-6.7C391,63,377.6,52.4,377.6,52.3z"/>
		</g>
	</g>
</g>
</svg>
