<?xml version="1.0" encoding="utf-8"?>
<!-- Generator: Adobe Illustrator 23.0.1, SVG Export Plug-In . SVG Version: 6.00 Build 0)  -->
<svg version="1.1" xmlns="http://www.w3.org/2000/svg" xmlns:xlink="http://www.w3.org/1999/xlink" x="0px" y="0px" width="26.3px"
	 height="28.2px" viewBox="0 0 26.3 28.2" style="enable-background:new 0 0 26.3 28.2;" xml:space="preserve">
<style type="text/css">
	.st0{fill:#FFFFFF;}
	.st1{clip-path:url(#SVGID_2_);}
	.st2{fill:#6BC62A;}
	.st3{clip-path:url(#SVGID_4_);}
	.st4{fill:none;stroke:#7A6356;stroke-width:3;stroke-linecap:round;stroke-linejoin:round;stroke-miterlimit:10;}
	.st5{fill:#7A6356;}
	.st6{fill:#FFFFFF;stroke:#7A6356;stroke-width:3;stroke-linecap:round;stroke-linejoin:round;stroke-miterlimit:10;}
	.st7{fill:#009380;}
	.st8{fill:url(#SVGID_5_);}
	.st9{fill:url(#SVGID_6_);}
	.st10{fill:#A60C17;}
	.st11{fill:url(#SVGID_7_);}
	.st12{fill:#E02229;}
	.st13{opacity:0.88;fill:#D50000;enable-background:new    ;}
	.st14{fill:url(#SVGID_8_);}
	.st15{fill:#491B02;}
	.st16{fill:url(#SVGID_9_);}
	.st17{fill:url(#SVGID_10_);}
	.st18{fill:url(#SVGID_11_);}
	.st19{fill:#680200;}
	.st20{fill:#A30B05;}
	.st21{fill:#FF5B56;}
	.st22{fill:#A40000;}
	.st23{opacity:0.5;fill:#D50000;enable-background:new    ;}
	.st24{fill:#6A1100;}
	.st25{opacity:0.43;fill:#FFFFFF;enable-background:new    ;}
	.st26{fill:#006325;}
	.st27{fill:#004B25;}
	.st28{fill:url(#SVGID_12_);}
	.st29{fill:url(#SVGID_13_);}
	.st30{fill:#00923D;}
	.st31{opacity:0.4;fill:#006830;enable-background:new    ;}
	.st32{fill:#006830;}
	.st33{fill:url(#SVGID_14_);}
	.st34{fill:#D6E000;}
	.st35{opacity:0.5;fill:#00923D;enable-background:new    ;}
	.st36{fill:none;stroke:#000000;stroke-width:2;stroke-linecap:round;stroke-linejoin:round;stroke-miterlimit:10;}
	.st37{fill:#00962B;}
	.st38{fill:url(#SVGID_15_);}
	.st39{fill:url(#SVGID_16_);}
	.st40{fill:url(#SVGID_17_);}
	.st41{fill:url(#SVGID_18_);}
	.st42{fill:url(#SVGID_19_);}
	.st43{fill:url(#SVGID_20_);}
	.st44{fill:url(#SVGID_21_);}
	.st45{clip-path:url(#SVGID_23_);}
	.st46{fill:url(#SVGID_24_);}
	.st47{fill:url(#SVGID_25_);}
	.st48{fill:url(#SVGID_26_);}
	.st49{clip-path:url(#SVGID_28_);}
	.st50{fill:url(#SVGID_29_);}
	.st51{fill:url(#SVGID_30_);}
	.st52{fill:url(#SVGID_31_);}
	.st53{fill:url(#SVGID_32_);}
	.st54{fill:url(#SVGID_33_);}
	.st55{fill:url(#SVGID_34_);}
	.st56{fill:url(#SVGID_35_);}
	.st57{fill:url(#SVGID_36_);}
	.st58{fill:url(#SVGID_37_);}
	.st59{fill:url(#SVGID_38_);}
	.st60{fill:url(#SVGID_39_);}
	.st61{fill:url(#SVGID_40_);}
	.st62{fill:url(#SVGID_41_);}
	.st63{fill:url(#SVGID_42_);}
	.st64{fill:url(#SVGID_43_);}
	.st65{fill:url(#SVGID_44_);}
	.st66{fill:url(#SVGID_45_);}
	.st67{fill:url(#SVGID_46_);}
	.st68{fill:url(#SVGID_47_);}
</style>
<g id="Layer_2">
	<rect x="-1833.8" y="-441.9" class="st0" width="1146.2" height="404.9"/>
</g>
<g id="green">
	<g>
		<defs>
			<rect id="SVGID_1_" x="-1172.1" y="-232.6" width="49.7" height="58"/>
		</defs>
		<clipPath id="SVGID_2_">
			<use xlink:href="#SVGID_1_"  style="overflow:visible;"/>
		</clipPath>
		<g class="st1">
			<path class="st2" d="M-1140.8-190.8c0,0-4-20.3,18.1-24.4C-1122.7-215.2-1118.8-197.9-1140.8-190.8z"/>
			<path class="st2" d="M-1144-190.6c0,0-20.3,7.5-28.1-13.7C-1172.1-204.2-1154.7-211-1144-190.6z"/>
			<path class="st2" d="M-1145.2-202.5c0,0-17.7-11.7-4.8-30.1C-1149.9-232.6-1134.5-223-1145.2-202.5z"/>
			<g>
				<path class="st2" d="M-1146.3-205.1c0,0,0.4-2.1,1.3-0.4c1.6,3.1,4.1,11.2,4.2,14.7c0.2,5.4-0.1,11.6-1.1,15.2
					c-1,3.6-2.8,6.5-4.5,8.3c-1.6,1.8-3,2.5-3.1,2.4c-0.1-0.1,1-1.1,2.4-2.9c1.4-1.8-0.5,1.2,1.7-11.2
					C-1143.5-189.5-1146.4-205.1-1146.3-205.1z"/>
			</g>
		</g>
	</g>
	<g>
		<defs>
			<rect id="SVGID_3_" x="-590.8" y="0" width="49.7" height="58"/>
		</defs>
		<clipPath id="SVGID_4_">
			<use xlink:href="#SVGID_3_"  style="overflow:visible;"/>
		</clipPath>
		<g class="st3">
			<path class="st2" d="M-559.5,41.8c0,0-4-20.3,18.1-24.4C-541.4,17.4-537.5,34.7-559.5,41.8z"/>
			<path class="st2" d="M-562.7,42c0,0-20.3,7.5-28.1-13.7C-590.8,28.4-573.4,21.6-562.7,42z"/>
			<path class="st2" d="M-563.8,30.1c0,0-17.7-11.7-4.8-30.1C-568.6,0-553.1,9.7-563.8,30.1z"/>
			<g>
				<path class="st2" d="M-565,27.5c0,0,0.4-2.1,1.3-0.4c1.6,3.1,4.1,11.2,4.2,14.7c0.2,5.4-0.1,11.6-1.1,15.2
					c-1,3.6-2.8,6.5-4.5,8.3c-1.6,1.8-3,2.5-3.1,2.4c-0.1-0.1,1-1.1,2.4-2.9c1.4-1.8-0.5,1.2,1.7-11.2
					C-562.2,43.1-565.1,27.5-565,27.5z"/>
			</g>
		</g>
	</g>
</g>
<g id="fire">
</g>
<g id="Layer_1">
	<line class="st4" x1="-1361.1" y1="-283" x2="-1143.5" y2="-283"/>
	<circle class="st5" cx="-1252.3" cy="-306.3" r="3.8"/>
	<path class="st5" d="M-1245-326.7c-3.4-4.1-5.8-11.8-6.9-15.2c-0.1-0.5-0.8-0.5-1,0c-0.8,3-2.9,9.3-6.9,14.7
		c-3.7,5,0.4,12.3,7.3,12.3c0,0,0,0,0.1,0c0,0,0,0,0.1,0C-1245.5-314.9-1241.1-321.9-1245-326.7z M-1251.6-317.9
		c-3.4,0.6-6.2-2.3-5.7-5.7c0.3-2,2-3.7,4-4c3.4-0.6,6.2,2.3,5.7,5.7C-1247.9-319.9-1249.5-318.2-1251.6-317.9z"/>
	<line class="st4" x1="-1252.3" y1="-283" x2="-1252.3" y2="-316.1"/>
	<circle class="st6" cx="-1252.3" cy="-283.5" r="12"/>
	<g>
		<path class="st7" d="M-1191.4-173.1c9.5,17.3,27,28.8,47,28.8c20,0,37.5-11.6,47-28.8H-1191.4z"/>
		<polygon class="st4" points="-1144.4,-281.3 -1191.7,-173.1 -1097.1,-173.1 		"/>
		<circle class="st2" cx="-1144.4" cy="-281.9" r="6.5"/>
	</g>
	<g>
		<linearGradient id="SVGID_5_" gradientUnits="userSpaceOnUse" x1="-1407.2219" y1="-158.6608" x2="-1313.2878" y2="-158.6608">
			<stop  offset="0" style="stop-color:#FF3A2D"/>
			<stop  offset="1" style="stop-color:#D50000"/>
		</linearGradient>
		<path class="st8" d="M-1407.2-173.1c9.5,17.3,27,28.8,47,28.8s37.5-11.6,47-28.8H-1407.2z"/>
		<polygon class="st4" points="-1360.3,-281.3 -1407.6,-173.1 -1312.9,-173.1 		"/>
		<linearGradient id="SVGID_6_" gradientUnits="userSpaceOnUse" x1="-1366.7823" y1="-281.8669" x2="-1353.7274" y2="-281.8669">
			<stop  offset="0" style="stop-color:#FF3A2D"/>
			<stop  offset="1" style="stop-color:#D50000"/>
		</linearGradient>
		<circle class="st9" cx="-1360.3" cy="-281.9" r="6.5"/>
	</g>
	<g>
		<path class="st10" d="M-1544.6-234.9c0,0-0.2-1.8-9.7-1.8c-4.9,0-10.3-1.8-10.9-6.7c-1.1-8.8,9.7-19.4,22.5-29.1
			c12.8-9.7-29.1-16.4-37.6-12.1c-8.5,4.2-27.9,36.4-28.5,44.3c-0.6,7.9,10.9,20,10.9,20l14.6-3L-1544.6-234.9z"/>
		<path class="st10" d="M-1649.6-183.9c-0.7-1.8-0.8-18.3,1.2-17.6s13,0.3,13,0.3s-15-17.2-12.4-18.5c2.7-1.3,23.9-1.3,22.7-4.4
			c-1.2-3-22.4-8.8-19.8-10.1c2.6-1.3,9.7-14.2,9.7-14.2s-18.6-1.4-16.9-2.6c1.7-1.2,11.5-10.2,11.5-10.2l-13.4-12.9l13.3-6.1
			c0,0-7-15-5.2-15.2l26.7,2.2l6.7,99L-1649.6-183.9"/>
		<path class="st10" d="M-1649.6-183.9l-10.3-9.1l-8.6,16l-2.9-15.4l-14.2,3.1l-4-11l-6.7,6.7c0,0,20,20,26.7,25.5
			c6.7,5.5,27.3,3,27.3,3L-1649.6-183.9z"/>
		
			<linearGradient id="SVGID_7_" gradientUnits="userSpaceOnUse" x1="-1556.9633" y1="762.8533" x2="-1470.8829" y2="762.8533" gradientTransform="matrix(0.9906 -0.1366 -0.1366 -0.9906 49.0522 282.7395)">
			<stop  offset="0" style="stop-color:#E6E6E6"/>
			<stop  offset="1" style="stop-color:#FF9300"/>
		</linearGradient>
		<path class="st11" d="M-1585.7-246.6l6.1,2.8l-1.1-8.2l7.5,3.8l-1-7.9c0,0,6.2,2.3,7.2,1.8s2.9-7.1,2.9-7.1l4.4,2.2l1.7-5.4l5,4.7
			l2.4-5.5l4.3,0.9l1-6.2l8.7,3.6l2.2-7.2l6.1,4.4l0.1-9.2c0,0,8.2,7.2,8,6c-0.1-1.2-0.9-8.7-0.9-8.7s8.5,5.5,8.2,4.8
			c-0.3-0.7-3-12.1-3-12.1l-8.9-0.2l-71.5,37.6L-1585.7-246.6z"/>
		<path class="st12" d="M-1585.2-158.6c0,0-6.7,16.7-7.3,20.4c-0.6,3.6,9.3,5.3,10.2,7.9c0.9,2.6-6.4,1.2-6.4,1.2s-2.5,2.4-4.8,1.8
			c-1.5-0.4-8.3-0.9-12.9-1.3c-2.3-0.2-4-2.3-3.7-4.6l2.8-20.3C-1607.3-153.4-1586.6-168-1585.2-158.6z"/>
		<path class="st13" d="M-1609.5-138c0,0,9.1-7.5,14.6-9.3s3.9,4.2,3.9,4.2l5.8-15.7c0,0-19.7,3.1-20.2,3.7s-3.1,5.1-3.1,5.1
			L-1609.5-138z"/>
		<g>
			
				<linearGradient id="SVGID_8_" gradientUnits="userSpaceOnUse" x1="-1664.0643" y1="729.8861" x2="-1470.6167" y2="729.8861" gradientTransform="matrix(0.9906 -0.1366 -0.1366 -0.9906 49.0522 282.7395)">
				<stop  offset="0" style="stop-color:#FF3A2D"/>
				<stop  offset="1" style="stop-color:#D50000"/>
			</linearGradient>
			<path class="st14" d="M-1586.2-195.9c1.7,5.6,5.9,17.6,6.8,26.4c0.9,8.8-6.6,16.7-14.7,19.3s-12.6,3.3-19.9,5.6
				c-4.1,3.9-8.9,7.3-12.7,11.7c5.1,0.9,11.6,2,15,6.2c-1.6,1.7-3.4,2.8-5.6,3.1c-3.5,0.5-5.6,0.8-9.4,1.3
				c-2.6,0.3-6.9-0.3-10.7-0.6c-2.8-0.2-4.9-2.6-5-5.4c-0.1-5.1,0.4-9.7-0.1-15.3c-25.1-1.8-37.8-29.4-53.9-50
				c10.2-0.6,23.3,17.4,33.4,17s31.8-29,35.4-39.2s-8.8-26.3-13.5-40.4c-4.7-14.2-7.7-24.6,10-38.1c17.7-13.5,65.5-48,82.3-36.3
				c16.8,11.8,41.6,33.9,31.9,45.2c-9.6,11.3-72.3,27.4-74.2,47.4s4.4,12.1,12.5,9.4c7.4-2.4,29.2-11.4,34-6.5
				c4.8,4.9-12.7,8.4-27.8,11.8c-14.3,3.2-19.3,10.1-20.9,10.3c-1.6,0.2,3.9,6.8,4.8,9.6C-1587.4-200.7-1587.9-201.4-1586.2-195.9z"
				/>
		</g>
		<path class="st15" d="M-1587.1-128.8c0,0-0.6-4.1,1-4s4.6,1.9,5.2,3.1C-1580.4-128.5-1587.1-128.8-1587.1-128.8z"/>
		<path class="st15" d="M-1594.4-127.4c0,0-0.6-3.5,1.8-3.5s5.5,1.2,6.1,3S-1594.4-127.4-1594.4-127.4z"/>
		<path class="st15" d="M-1615.1-124.7c0,0-0.6-4.1,1-4s4.6,1.9,5.2,3.1C-1608.3-124.4-1615.1-124.7-1615.1-124.7z"/>
		<path class="st15" d="M-1622.3-123.3c0,0-0.6-3.5,1.8-3.5s5.5,1.2,6.1,3C-1613.8-122-1622.3-123.3-1622.3-123.3z"/>
		<path class="st13" d="M-1613.8-145c0,0-27.3,1.2-28.5,0.6c-1.2-0.6,0.4,10.9,0.2,13.3s4.7-3.6,13.8-6.6
			C-1619.2-140.7-1613.8-145-1613.8-145z"/>
		<g>
			
				<linearGradient id="SVGID_9_" gradientUnits="userSpaceOnUse" x1="-1538.4973" y1="416.4888" x2="-1435.433" y2="416.4888" gradientTransform="matrix(0.9932 -0.1162 -0.101 -0.8634 16.5947 -69.3272)">
				<stop  offset="0.1522" style="stop-color:#FF3A2D"/>
				<stop  offset="0.1907" style="stop-color:#FF462A"/>
				<stop  offset="0.4015" style="stop-color:#FF811B"/>
				<stop  offset="0.5953" style="stop-color:#FFB00F"/>
				<stop  offset="0.7658" style="stop-color:#FFD207"/>
				<stop  offset="0.9065" style="stop-color:#FFE702"/>
				<stop  offset="1" style="stop-color:#FFEE00"/>
			</linearGradient>
			<path class="st16" d="M-1553.7-251.8c0-0.1,0-0.2,0.1-0.2c1.9-0.9,27.6-13.6,37-15.2c11.3-1.9,21-0.7,26.6-5.5
				c3.9-3.3,4.4-6.3,4.4-7.6c0-0.2,0.3-0.3,0.4-0.1c1.2,1.9,4.1,7.3,1.8,10.5c-2.1,2.9-4.6,5.3-6.1,6.5c-0.2,0.2,0,0.4,0.2,0.3
				c3-1.4,10.5-4.8,14.8-5.6c7.6-1.4,18.1,1.6,22.8,4.2c0.6,0.3,0.4,1.2-0.3,1.3c-3.4,0.3-10.2,1.4-13.7,5.3
				c-4.8,5.3-21.6,27-40.1,23.6C-1524.1-237.6-1553.5-246.3-1553.7-251.8z"/>
			
				<linearGradient id="SVGID_10_" gradientUnits="userSpaceOnUse" x1="-1533.0636" y1="411.5174" x2="-1467.1215" y2="411.5174" gradientTransform="matrix(0.9932 -0.1162 -0.101 -0.8634 16.5947 -69.3272)">
				<stop  offset="0.1522" style="stop-color:#FF5A19"/>
				<stop  offset="1" style="stop-color:#FFEE00"/>
			</linearGradient>
			<path class="st17" d="M-1548.1-250.7c0,0,30-12.5,42.3-8.4c12.3,4.1,13.7,10,20.7,8c11.3-3.3-8.6,10.3-20.6,8.6
				C-1517.7-244.3-1548.1-250.7-1548.1-250.7z"/>
			
				<linearGradient id="SVGID_11_" gradientUnits="userSpaceOnUse" x1="-1531.2699" y1="412.293" x2="-1480.7719" y2="412.293" gradientTransform="matrix(0.9932 -0.1162 -0.101 -0.8634 16.5947 -69.3272)">
				<stop  offset="0.1522" style="stop-color:#FFB02A"/>
				<stop  offset="0.9393" style="stop-color:#FFEE00"/>
			</linearGradient>
			<path class="st18" d="M-1546.3-251c0,0,21.5-5.6,28.8-5.6c7.3-0.1,10.6,2.3,16.2,4.3c1.3,0.5,4.3,1,5.8,1.3
				c0.3,0,0.3,0.4,0.1,0.5c-2.1,1-8.4,3.9-14.4,4.9C-1517.3-244.3-1546.3-251-1546.3-251z"/>
		</g>
		<g>
			<path class="st19" d="M-1592.2-263.4c0,0-3.2-1.9-6.4-2.4s-8.1-0.6-8.1-0.6l1.7-0.9c0,0-0.7-0.2-1.5-1.1
				c-0.7-0.7-1.8-3.1-1.8-3.1s3.5,0.4,7.4,0.8c5.5,0.7,8.2,3.8,8.2,3.8h-1.1C-1593.8-266.8-1592.4-264.7-1592.2-263.4z"/>
			<path class="st20" d="M-1594.2-267.6c0,0-1.6-1.5-4.8-2.3c-3.2-0.8-7-0.9-7-0.9l2.7,1l-3.2-0.5c0,0,1.7,1,4.9,1.6
				c3.2,0.6,7.3,2.3,7.3,2.3l-0.8-1.4L-1594.2-267.6z"/>
		</g>
		<path class="st10" d="M-1593.1-204.6c0,0,0.8,0.3,5.4,0.6c4.6,0.3,6-7.3,9-8s1.1,5.9,1.6,6.6c0.4,0.7,1.5-4.1,1.5-4.1
			s0.1,4.3,0.8,3.9c0.7-0.4,1-5.4,1-5.4s1.2,8.3,2.1,2.5c1-5.8-3.4-7.7-6.1-8.6c-2.7-0.9-6.9,7.1-9.6,7.8c-2.6,0.6-6.7-2.8-6.7-2.8
			L-1593.1-204.6z"/>
		<g>
			<circle cx="-1598.5" cy="-258.3" r="4.2"/>
			<circle class="st0" cx="-1598.2" cy="-259.1" r="1.5"/>
			<circle class="st0" cx="-1599.8" cy="-256.6" r="0.7"/>
		</g>
		<path class="st10" d="M-1618.2-198.9c0,0,0.8,0.1,5.3-1s3.5-8.8,6.1-10.3c2.6-1.5,2.8,5.3,3.5,5.9c0.6,0.6,0.2-4.4,0.2-4.4
			s1.4,4.1,1.9,3.5c0.6-0.6-0.7-5.5-0.7-5.5s3.6,7.5,2.8,1.7s-5.5-6.3-8.4-6.3s-4.5,8.9-6.8,10.3c-2.3,1.4-7.3-0.6-7.3-0.6
			L-1618.2-198.9z"/>
		<g>
			<path class="st21" d="M-1551.9-292.4c3.2,6.1,7.8,10.1,10.2,8.8c2.5-1.3,1.9-7.3-1.3-13.4c-3.2-6.1-7.8-10.1-10.2-8.8
				C-1555.6-304.5-1555-298.5-1551.9-292.4z"/>
			<path class="st22" d="M-1552.8-291.8c3.2,6.1,7.8,10.1,10.2,8.8c2.5-1.3,1.9-7.3-1.3-13.4c-3.2-6.1-7.8-10.1-10.2-8.8
				C-1556.6-303.9-1556-297.9-1552.8-291.8z"/>
		</g>
		<g>
			<path class="st21" d="M-1536.1-305.3c2.5,4.7,6,7.8,7.9,6.8c1.9-1,1.5-5.7-1-10.4c-2.5-4.7-6-7.8-7.9-6.8
				S-1538.6-310.1-1536.1-305.3z"/>
			<path class="st22" d="M-1536.9-304.8c2.5,4.7,6,7.8,7.9,6.8s1.5-5.7-1-10.4c-2.5-4.7-6-7.8-7.9-6.8S-1539.3-309.6-1536.9-304.8z"
				/>
		</g>
		<g>
			<path class="st23" d="M-1550.4-311.5c0,0-4.8-2.5-8.6-0.4c-7.2,4-2.9,14.8-2.9,14.8s-2.3-6.3,4.9-12.2
				C-1553.3-312.1-1550.4-311.5-1550.4-311.5z"/>
			<path class="st24" d="M-1550.4-311.5c0,0-5.4,0.7-9.3,5.9c-3.9,5.2-1.2,11-1.2,11s-3.4-6,0.1-11.4
				C-1557.3-311.5-1550.4-311.5-1550.4-311.5z"/>
			<path class="st25" d="M-1552.3-309.9c0,0-5.8,3.5-6.8,8.9c-1,5.4,1.9,9.4,1.9,9.4s-4-3.6-3.5-9.5
				C-1560.1-307.2-1552.3-309.9-1552.3-309.9z"/>
		</g>
		<g>
			<path class="st23" d="M-1536.9-319c0,0-2.8-1.5-5.1-0.2c-4.3,2.4-1.7,8.8-1.7,8.8s-1.3-3.7,2.9-7.2
				C-1538.6-319.4-1536.9-319-1536.9-319z"/>
			<path class="st24" d="M-1536.9-319c0,0-3.2,0.4-5.5,3.5c-2.3,3.1-0.7,6.5-0.7,6.5s-2-3.6,0.1-6.8
				C-1541-319-1536.9-319-1536.9-319z"/>
			<path class="st25" d="M-1538.1-318c0,0-3.4,2-4,5.2c-0.6,3.2,1.2,5.6,1.2,5.6s-2.4-2.2-2.1-5.6
				C-1542.6-316.4-1538.1-318-1538.1-318z"/>
		</g>
		<path class="st10" d="M-1630.8-294.4c0,0,11.5-10.3,32.2-19.4c19.7-8.7,29.7-9.1,29.7-9.1s-4.9-12.7,6.7-17.6
			c11.6-4.9-11.5-12.1-22.5,0c-6.9,7.7-10.3-6.7-10.3-6.7l-9.1,21.9l-12.1-3.6l-3.6,18.8l-13.4,1.2L-1630.8-294.4z"/>
	</g>
	<g>
		<g>
			<path class="st26" d="M-938.5-194.3c0,0-21.9-3.7-22.9,0.4c-0.7,2.9,23.4,2.8,23.4,2.8L-938.5-194.3z"/>
			<path class="st26" d="M-958.5-197.7c0,0-5.9-7.3-6.6-5.1s2.1,5.7,2.1,5.7s-8.1-3.6-9.1-2.4s7.9,4.1,7.4,4.2s-8.8-0.6-8.5,0.6
				c0.2,1.2,8.1,1.3,8.2,1.8c0.1,0.5-7.7,1.2-7.2,2.1c0.4,0.9,7.4,0.1,8.2,0.2c0.8,0.1-4.9,2.4-4.5,3.4c0.4,0.9,5.4-1.3,6.3-1.9
				c0.9-0.7,5-0.4,6.5-1.7s0.9-4.5,0-5.3C-956.6-197-958.5-197.7-958.5-197.7z"/>
		</g>
		<path class="st27" d="M-979.1-248.7c4.9,0,12.8,0.5,16.6-1.6c7.7-4.4-14.5-13.5-27.3-23.3c-12.8-9.8,29.1-16.4,37.6-12.1
			s37.7,28.6,38.3,36.5s-20.7,27.9-20.7,27.9l-14.6-3C-949.1-224.4-988.6-248.7-979.1-248.7z"/>
		
			<linearGradient id="SVGID_12_" gradientUnits="userSpaceOnUse" x1="-988.1404" y1="568.8126" x2="-939.9227" y2="520.5949" gradientTransform="matrix(1 0 0 -1 0 276.8017)">
			<stop  offset="0" style="stop-color:#FFC76D"/>
			<stop  offset="1" style="stop-color:#E8E3E0"/>
		</linearGradient>
		<path class="st28" d="M-1000.1-280.1c0,0-1.5,4.1,0.6,4.6c2.1,0.5,4.3-1.1,4.3-1.1s-1.1,8.6,1.6,7.5s4.8-2.6,4.8-2.6
			s-1,5.9,1.6,6.4c2.7,0.5,5.4-2.8,5.4-2.8s0,7.1,2.6,7.1c2.6,0,5.7-3.2,5.7-3.2s-2.5,5.3,1.8,5.9c4.3,0.5,5.4-1.6,5.4-1.6
			s0.5,4.4,3.2,4.8c3.7,0.5,5.1-1.9,5.1-1.9s3,4,4,3.5c1.1-0.5,5.9-2.7,5.9-2.7s-0.5,3.7,2.1,3.7c2.6,0,7-3.7,7-3.7s0,3.7,2.1,3.2
			c2.1-0.5,3.7-3.7,3.7-3.7s1.1,2.7,3.2,2.1c2.1-0.5,4.3-4.3,4.3-4.3L-1000.1-280.1z"/>
		
			<linearGradient id="SVGID_13_" gradientUnits="userSpaceOnUse" x1="-1022.6819" y1="387.3812" x2="-963.3972" y2="381.2058" gradientTransform="matrix(0.9996 2.982325e-02 2.982325e-02 -0.9996 29.1597 174.9547)">
			<stop  offset="0" style="stop-color:#FFC76D"/>
			<stop  offset="1" style="stop-color:#E8E3E0"/>
		</linearGradient>
		<path class="st29" d="M-922.4-235.9c0,0-3.2-7.5-6.4-5.4c-2.9,1.9-1.6,4.3-1.6,4.3s-1.6-3.7-3.7-2.1c-2.1,1.6-2.1,4.3-2.1,4.3
			s-1-5.3-3.7-3.2c-2.7,2.1-2.8,5.1-2.8,5.1s0.2-5.6-2.5-4.6s-2.2,2.8-2.2,2.8s-0.4-4.4-3.1-3.4s-3.3,2.1-3.3,2.1s-0.9-5.2-3.1-3.2
			c-2.2,2.1-2.7,2.5-2.7,2.5s0.6-5.1-2.1-4.6s-3.7,1.7-3.7,1.7s1.6-3.8-1.6-3.9c-3.2-0.1-3,1.9-3,1.9s0.4-6.1-2.3-4.1
			c-2.7,2.1-3,2.3-3,2.3s4.3-8.3,0.9-8.2c-3.4,0.1-3.8,5.4-3.8,5.4s1.6-7.5-0.5-7c-2.1,0.5-1.2,5.4-1.2,5.4s10.9,10.6,11.9,11.2
			c1,0.6,41.4,12,41.4,12L-922.4-235.9z"/>
		<g>
			<path class="st30" d="M-941.1-155.8c0,0,6.7,16.7,7.4,20.4c0.6,3.6-9.3,5.4-10.2,8c-0.9,2.6,6.4,1.1,6.4,1.1s2.5,2.4,4.8,1.8
				c1.5-0.4,8.3-1,12.9-1.3c2.3-0.2,4-2.3,3.7-4.6l-2.8-20.2C-919-150.7-939.8-165.2-941.1-155.8z"/>
			<path class="st31" d="M-916.8-135.3c0,0-9.1-7.5-14.6-9.3s-3.9,4.2-3.9,4.2l-5.8-15.7c0,0,19.7,3,20.2,3.6s3.1,5.1,3.1,5.1
				L-916.8-135.3z"/>
			<path class="st15" d="M-939.1-126c0,0,0.6-4.1-1-4c-1.6,0.1-4.6,1.9-5.2,3.1C-945.9-125.7-939.1-126-939.1-126z"/>
			<path class="st15" d="M-931.9-124.7c0,0,0.6-3.5-1.9-3.5c-2.4,0-5.5,1.2-6.1,3C-940.5-123.4-931.9-124.7-931.9-124.7z"/>
		</g>
		<path class="st32" d="M-889.7-177.5c0,0,9.1-22.2,6.4-23.6c-2.7-1.3-10.9-7.2-9.6-10.2c1.2-3,23.5-11.5,20.9-12.8
			c-2.7-1.3-9.6-16.6-9.6-16.6s23.3-5.9,21.6-7.1s-11.5-10.2-11.5-10.2l13.4-12.9l-13.3-6.1c0,0-4.4-13,0.9-16.8
			c5.4-3.7-24.6,1.1-24.6,1.1l-28.4,98"/>
		<path class="st32" d="M-891.9-179.7l17.1-13.3l8.6,12.3l2.9-11.6l13.7,2l4.6-9.9l6.7,6.7c0,0-20,20-26.7,25.5s-27.3,3-27.3,3
			L-891.9-179.7z"/>
		
			<linearGradient id="SVGID_14_" gradientUnits="userSpaceOnUse" x1="-1001.5947" y1="503.0685" x2="-838.3947" y2="503.0685" gradientTransform="matrix(1 0 0 -1 0 276.8017)">
			<stop  offset="0" style="stop-color:#6BC62A"/>
			<stop  offset="1" style="stop-color:#00B53E"/>
		</linearGradient>
		<path class="st33" d="M-871.7-176.6c-31.9-3.1-29.2-27.7-20.1-43.2c0.1-0.1,0.1-0.2,0-0.3c12.8-13.2,26.4-39.3,23.1-48.9
			c-4.3-12.3-76.6-66.1-99.6-61.3c-23,4.8-33.3,48.5-33.3,48.5c4,15.2,49,32.2,68.8,26.5c7.7-2.3,13.5-3.7,16.9,2.9
			c1.8,3.5,0,8.1-18.2,15c-15.5,5.9-39.4-4.5-43.4-10.7c-3.4-5.4-12.9,2.5-3.8,10.1c6,5,20.4,13.9,43.8,20.4
			c-2.2,3.3-5.1,8.3-5.8,10.2c-1,2.8-4.1,8.9-5.9,14.5c-1.7,5.6-5.5,12.6-6.4,21.4c-0.9,8.8,6.9,18.9,14.9,21.5s12.6,3.3,19.9,5.6
			c4.1,3.9,8.9,7.3,12.7,11.7c-5.1,0.9-11.6,2-15,6.2c1.6,1.7,3.4,2.8,5.6,3.1c3.5,0.5,5.6,0.8,9.4,1.3c2.6,0.3,6.9-0.3,10.7-0.6
			c2.8-0.2,4.9-2.6,5-5.4c0.1-5.1-0.4-9.7,0.1-15.3c25.1-1.8,37.8-29.4,53.9-50C-848.5-194.2-861.7-175.6-871.7-176.6z"/>
		<g>
			<path class="st2" d="M-971.1-207.7c0,0-13.3-8.3-4.1-22.6C-975.1-230.4-963.6-223.5-971.1-207.7z"/>
			<path class="st2" d="M-973.1-205.7c0,0-5.8,14.9-21.5,8.3C-994.7-197.4-990-210.4-973.1-205.7z"/>
			<path class="st2" d="M-979.7-211.4c0,0-15.6,3.7-19.1-13C-998.8-224.4-985.5-227.9-979.7-211.4z"/>
			<g>
				<path class="st2" d="M-981.8-212.1c0-0.1,7.6,1.7,10.7,4.4c3.1,2.7,6.3,6.1,7.8,8.5s2.1,5,2.2,6.8c0.1,1.8-0.2,3-0.3,2.9
					c-0.1,0-0.1-1.1-0.4-2.9c-0.3-1.7-3.9-4.5-5.3-6.7C-968.4-201.4-981.8-212-981.8-212.1z"/>
			</g>
		</g>
		<path class="st15" d="M-919.6-124.7c0,0,0.6-4.1-1-4c-1.6,0.1-4.6,1.9-5.2,3.1C-926.3-124.4-919.6-124.7-919.6-124.7z"/>
		<path class="st15" d="M-912.4-123.3c0,0,0.6-3.5-1.8-3.5c-2.4,0-5.5,1.2-6.1,3C-920.9-122-912.4-123.3-912.4-123.3z"/>
		<path class="st31" d="M-920.8-144.3c0,0,28.4-0.8,28.4,0.5c0,1.1-0.2,10.9,0,13.4s-4.8-4.2-13.9-7.3
			C-915.4-140.8-920.8-144.3-920.8-144.3z"/>
		<g>
			<g>
				<path class="st34" d="M-967.8-286c-3.2,6.1-7.8,10.1-10.2,8.8c-2.5-1.3-1.9-7.3,1.3-13.4s7.8-10.1,10.2-8.8
					C-964.1-298.1-964.6-292.1-967.8-286z"/>
				<path class="st27" d="M-966.9-285.3c-3.2,6.1-7.8,10.1-10.2,8.8c-2.5-1.3-1.9-7.3,1.3-13.4c3.2-6.1,7.8-10.1,10.2-8.8
					C-963.1-297.5-963.7-291.5-966.9-285.3z"/>
			</g>
			<g>
				<path class="st34" d="M-983.6-298.9c-2.5,4.7-6,7.8-7.9,6.8c-1.9-1-1.5-5.7,1-10.4c2.5-4.7,6-7.8,7.9-6.8
					C-980.6-308.3-981.1-303.6-983.6-298.9z"/>
				<path class="st27" d="M-982.8-298.4c-2.5,4.7-6,7.8-7.9,6.8c-1.9-1-1.5-5.7,1-10.4c2.5-4.7,6-7.8,7.9-6.8
					C-979.9-307.8-980.3-303.2-982.8-298.4z"/>
			</g>
			<g>
				<path class="st35" d="M-969.3-305.1c0,0,4.8-2.5,8.6-0.4c7.2,4,2.9,14.8,2.9,14.8s2.3-6.3-4.9-12.2
					C-966.3-305.7-969.3-305.1-969.3-305.1z"/>
				<path class="st32" d="M-969.3-305.1c0,0,5.4,0.7,9.3,5.9c3.9,5.2,1.2,11,1.2,11s3.4-6-0.1-11.4
					C-962.3-305.1-969.3-305.1-969.3-305.1z"/>
				<path class="st25" d="M-967.3-303.4c0,0,5.8,3.5,6.8,8.9c1,5.4-1.9,9.4-1.9,9.4s4-3.6,3.5-9.5
					C-959.6-300.8-967.3-303.4-967.3-303.4z"/>
			</g>
			<g>
				<path class="st35" d="M-982.8-312.6c0,0,2.8-1.5,5.1-0.2c4.3,2.4,1.7,8.8,1.7,8.8s1.3-3.7-2.9-7.2
					C-981-313-982.8-312.6-982.8-312.6z"/>
				<path class="st32" d="M-982.8-312.6c0,0,3.2,0.4,5.5,3.5s0.7,6.5,0.7,6.5s2-3.6-0.1-6.8C-978.7-312.6-982.8-312.6-982.8-312.6z"
					/>
				<path class="st25" d="M-981.6-311.6c0,0,3.4,2,4,5.2c0.6,3.2-1.2,5.6-1.2,5.6s2.4-2.2,2.1-5.6C-977-310-981.6-311.6-981.6-311.6
					z"/>
			</g>
		</g>
		<g>
			<g>
				<path class="st32" d="M-901.8-272.4c0,0,2.2,2.9,3,6.1c0.8,3.2,1.4,8,1.4,8l0.7-1.8c0,0,0.3,0.6,1.2,1.4
					c0.8,0.6,3.2,1.4,3.2,1.4s-0.7-3.4-1.6-7.3c-1.2-5.4-4.6-7.8-4.6-7.8l0.1,1.1C-898.3-271.2-900.5-272.3-901.8-272.4z"/>
				<path class="st30" d="M-897.4-270.9c0,0,1.7,1.5,2.8,4.6c1.1,3.1,1.6,6.9,1.6,6.9l-1.3-2.5l0.8,3.1c0,0-1.2-1.6-2.1-4.7
					c-0.9-3.2-3-7-3-7l1.5,0.7L-897.4-270.9z"/>
			</g>
			<path class="st36" d="M-907.6-265.4c0,0,7.6-0.9,5.3,6"/>
		</g>
		<g>
			<path class="st37" d="M-938.9-198c-4.2-0.3-22.5,2.5-22.2,6.7c0.2,2.9,23.2-4.4,23.2-4.4S-934.7-197.7-938.9-198z"/>
			<path class="st37" d="M-959.5-195.8c0,0-7.9-5.2-7.8-2.9c0.1,2.2,3.7,4.8,3.7,4.8s-8.8-1-9.4,0.5c-0.6,1.5,8.8,1.6,8.3,1.8
				c-0.4,0.2-8.6,2-8,3.1c0.6,1.1,8.1-1.2,8.4-0.8c0.2,0.4-7,3.4-6.3,4.2s7.1-2.1,7.9-2.2c0.8-0.1-4,3.7-3.2,4.6
				c0.7,0.8,4.7-2.8,5.4-3.7c0.7-0.9,4.6-1.9,5.7-3.6c1.1-1.7-0.5-4.6-1.6-5.1C-957.5-195.6-959.5-195.8-959.5-195.8z"/>
		</g>
		<path class="st32" d="M-890.8-291c0,0-12.3-10.5-33-19.6c-19.7-8.7-33.4-12-33.4-12s0.1-19.7,18.7-24.1c9.1-2.1,24.5,3.8,22,4.8
			c-10.7,4.3-11.4,22.4-2.1,15c8-6.4,20.9,1.1,20.9,1.1s-13.1,8.2-8.6,9.1c5.4,1.1,18.6-2.5,15,1.6c-4.3,4.8-9.6,8.6-9.6,8.6
			s24.1-4.8,19.8,1.1C-885.4-299.5-890.8-291-890.8-291z"/>
	</g>
	<g>
		<g>
			<circle class="st5" cx="-618.1" cy="-399.6" r="3.8"/>
		</g>
		<g>
			<path class="st5" d="M-610.8-419.9c-3.4-4.1-5.8-11.8-6.9-15.2c-0.1-0.5-0.8-0.5-1,0c-0.8,3-2.9,9.3-6.9,14.7
				c-3.7,5,0.4,12.3,7.3,12.3c0,0,0,0,0.1,0c0,0,0,0,0.1,0C-611.3-408.2-606.9-415.1-610.8-419.9z M-617.4-411.2
				c-3.4,0.6-6.2-2.3-5.7-5.7c0.3-2,2-3.7,4-4c3.4-0.6,6.2,2.3,5.7,5.7C-613.7-413.2-615.4-411.5-617.4-411.2z"/>
		</g>
		<path class="st5" d="M-618.1-410.9c-0.8,0-1.5,0.7-1.5,1.5v19.3h3v-19.3C-616.6-410.2-617.3-410.9-618.1-410.9z"/>
	</g>
	<g>
		<path class="st5" d="M-364.8-420.3h-217.6c-0.8,0-1.5-0.7-1.5-1.5s0.7-1.5,1.5-1.5h217.6c0.8,0,1.5,0.7,1.5,1.5
			S-363.9-420.3-364.8-420.3z"/>
	</g>
	<g>
		
			<linearGradient id="SVGID_15_" gradientUnits="userSpaceOnUse" x1="-1404.7949" y1="-478.1839" x2="-1332.303" y2="-478.1839" gradientTransform="matrix(-3.274567e-02 -0.9994 -0.8688 2.845226e-02 -1044.6617 -1603.7719)">
			<stop  offset="0.1522" style="stop-color:#FF3A2D"/>
			<stop  offset="0.1907" style="stop-color:#FF462A"/>
			<stop  offset="0.4015" style="stop-color:#FF811B"/>
			<stop  offset="0.5953" style="stop-color:#FFB00F"/>
			<stop  offset="0.7658" style="stop-color:#FFD207"/>
			<stop  offset="0.9065" style="stop-color:#FFE702"/>
			<stop  offset="1" style="stop-color:#FFEE00"/>
		</linearGradient>
		<path class="st38" d="M-586.1-213.3c-0.1,0-0.1,0-0.1-0.1c-0.6-1.4-13.5-16.4-13.1-27.9c0.4-12.1,2.8-27.1,3-29
			c0.3-3.5,4.5,11,5.3,12.1c0.1,0.1,0.3,0,0.3-0.1c-0.9-2.2-1.2-8.2-0.3-12.4c1-4.2,6.1-11.9,8.3-15c0.3-0.4,0.9-0.2,0.9,0.3
			c0,2.3,1,9.8,3.7,12.5c3.7,3.6,11.5,15.2,7.9,27.8C-573.8-232.8-581.9-213.1-586.1-213.3z"/>
		
			<linearGradient id="SVGID_16_" gradientUnits="userSpaceOnUse" x1="-1401.0424" y1="-480.016" x2="-1352.5929" y2="-480.016" gradientTransform="matrix(-3.274567e-02 -0.9994 -0.8688 2.845226e-02 -1044.6617 -1603.7719)">
			<stop  offset="0.1522" style="stop-color:#FF5A19"/>
			<stop  offset="1" style="stop-color:#FFEE00"/>
		</linearGradient>
		<path class="st39" d="M-584.9-217.1c0,0-7.6-21.5-3.8-29.7c3.8-8.2,5.4-12.2,4.3-17.1c-1.8-8,10.8,14.4,8.9,22.6
			C-577.6-233.2-584.9-217.1-584.9-217.1z"/>
		
			<linearGradient id="SVGID_17_" gradientUnits="userSpaceOnUse" x1="-1399.799" y1="-479.1919" x2="-1364.8632" y2="-479.1919" gradientTransform="matrix(-3.274567e-02 -0.9994 -0.8688 2.845226e-02 -1044.6617 -1603.7719)">
			<stop  offset="0.1522" style="stop-color:#FFB02A"/>
			<stop  offset="0.9393" style="stop-color:#FFEE00"/>
		</linearGradient>
		<path class="st40" d="M-585-218.3c0,0-2.9-15.1-2.5-20.2c0.3-5,2.3-7.2,4.1-10.9c0.4-0.9,1-2.9,1.3-3.9c0.1-0.2,0.3-0.2,0.4,0
			c0.7,1.5,2.5,6,2.8,10.2C-578.4-237.9-585-218.3-585-218.3z"/>
	</g>
	<g>
		<linearGradient id="SVGID_18_" gradientUnits="userSpaceOnUse" x1="-630.9227" y1="-213.6127" x2="-536.9886" y2="-213.6127">
			<stop  offset="0" style="stop-color:#FF3A2D"/>
			<stop  offset="1" style="stop-color:#D50000"/>
		</linearGradient>
		<path class="st41" d="M-630.9-228c9.5,17.3,27,28.8,47,28.8s37.5-11.6,47-28.8H-630.9z"/>
		<polygon class="st4" points="-584,-336.3 -631.3,-228 -536.6,-228 		"/>
		<linearGradient id="SVGID_19_" gradientUnits="userSpaceOnUse" x1="-590.4831" y1="-336.8187" x2="-577.4282" y2="-336.8187">
			<stop  offset="0" style="stop-color:#FF3A2D"/>
			<stop  offset="1" style="stop-color:#D50000"/>
		</linearGradient>
		<circle class="st42" cx="-584" cy="-336.8" r="6.5"/>
	</g>
	<g>
		<path class="st2" d="M-467-245.8c0,0-4-20.3,18.1-24.4C-448.9-270.2-445.1-252.9-467-245.8z"/>
		<path class="st2" d="M-470.2-245.5c0,0-20.3,7.5-28.1-13.7C-498.3-259.2-481-266-470.2-245.5z"/>
		<path class="st2" d="M-471.4-257.4c0,0-17.7-11.7-4.8-30.1C-476.2-287.6-460.7-277.9-471.4-257.4z"/>
		<g>
			<path class="st2" d="M-472.6-260.1c0,0,0.4-2.1,1.3-0.4c1.6,3.1,4.1,11.2,4.2,14.7c0.2,5.4-0.1,11.6-1.1,15.2
				c-1,3.6-2.8,6.5-4.5,8.3c-1.6,1.8-3,2.5-3.1,2.4c-0.1-0.1,1-1.1,2.4-2.9c1.4-1.8-0.5,1.2,1.7-11.2
				C-469.8-244.5-472.6-260.1-472.6-260.1z"/>
		</g>
	</g>
	<g>
		<path class="st7" d="M-517.6-228c9.5,17.3,27,28.8,47,28.8c20,0,37.5-11.6,47-28.8H-517.6z"/>
		<polygon class="st4" points="-470.6,-336.3 -518,-228 -423.3,-228 		"/>
		<circle class="st2" cx="-470.6" cy="-336.8" r="6.5"/>
	</g>
	<g>
		<circle class="st0" cx="-577.4" cy="-394.7" r="12"/>
		<path class="st5" d="M-577.4-381.2c-7.4,0-13.5-6-13.5-13.5s6-13.5,13.5-13.5s13.5,6,13.5,13.5S-570-381.2-577.4-381.2z
			 M-577.4-405.2c-5.8,0-10.5,4.7-10.5,10.5s4.7,10.5,10.5,10.5s10.5-4.7,10.5-10.5S-571.7-405.2-577.4-405.2z"/>
	</g>
	<g>
		<polygon class="st4" points="-584.3,-166.5 -631.6,-58.3 -537,-58.3 		"/>
		<linearGradient id="SVGID_20_" gradientUnits="userSpaceOnUse" x1="-590.8143" y1="-167.0416" x2="-577.7594" y2="-167.0416">
			<stop  offset="0" style="stop-color:#FF3A2D"/>
			<stop  offset="1" style="stop-color:#D50000"/>
		</linearGradient>
		<circle class="st43" cx="-584.3" cy="-167" r="6.5"/>
	</g>
	<g>
		<polygon class="st4" points="-470.6,-166.5 -518,-58.3 -423.3,-58.3 		"/>
		<circle class="st2" cx="-470.6" cy="-167" r="6.5"/>
	</g>
	<linearGradient id="SVGID_21_" gradientUnits="userSpaceOnUse" x1="-631.2539" y1="-31.778" x2="-537.3198" y2="-31.778">
		<stop  offset="0" style="stop-color:#FF3A2D"/>
		<stop  offset="1" style="stop-color:#D50000"/>
	</linearGradient>
	<path class="st44" d="M-631.3-46.2c9.5,17.3,27,28.8,47,28.8s37.5-11.6,47-28.8H-631.3z"/>
	<path class="st7" d="M-516.6-45.2c9.5,17.3,27,28.8,47,28.8c20,0,37.5-11.6,47-28.8H-516.6z"/>
	<g>
		<defs>
			<rect id="SVGID_22_" x="-1375.6" y="-231" width="30.1" height="56.3"/>
		</defs>
		<clipPath id="SVGID_23_">
			<use xlink:href="#SVGID_22_"  style="overflow:visible;"/>
		</clipPath>
		<g class="st45">
			
				<linearGradient id="SVGID_24_" gradientUnits="userSpaceOnUse" x1="-1434.3093" y1="416.4367" x2="-1361.8174" y2="416.4367" gradientTransform="matrix(-3.274567e-02 -0.9994 -0.8688 2.845226e-02 -1044.6617 -1603.7719)">
				<stop  offset="0.1522" style="stop-color:#FF3A2D"/>
				<stop  offset="0.1907" style="stop-color:#FF462A"/>
				<stop  offset="0.4015" style="stop-color:#FF811B"/>
				<stop  offset="0.5953" style="stop-color:#FFB00F"/>
				<stop  offset="0.7658" style="stop-color:#FFD207"/>
				<stop  offset="0.9065" style="stop-color:#FFE702"/>
				<stop  offset="1" style="stop-color:#FFEE00"/>
			</linearGradient>
			<path class="st46" d="M-1362.4-158.3c-0.1,0-0.1,0-0.1-0.1c-0.6-1.4-13.5-16.4-13.1-27.9c0.4-12.1,2.8-27.1,3-29
				c0.3-3.5,4.5,11,5.3,12.1c0.1,0.1,0.3,0,0.3-0.1c-0.9-2.2-1.2-8.2-0.3-12.4s6.1-11.9,8.3-15c0.3-0.4,0.9-0.2,0.9,0.3
				c0,2.3,1,9.8,3.7,12.5c3.7,3.6,11.5,15.2,7.9,27.8C-1350.1-177.8-1358.2-158.1-1362.4-158.3z"/>
			
				<linearGradient id="SVGID_25_" gradientUnits="userSpaceOnUse" x1="-1430.5568" y1="414.6046" x2="-1382.1074" y2="414.6046" gradientTransform="matrix(-3.274567e-02 -0.9994 -0.8688 2.845226e-02 -1044.6617 -1603.7719)">
				<stop  offset="0.1522" style="stop-color:#FF5A19"/>
				<stop  offset="1" style="stop-color:#FFEE00"/>
			</linearGradient>
			<path class="st47" d="M-1361.2-162.1c0,0-7.6-21.5-3.8-29.7c3.8-8.2,5.4-12.2,4.3-17.1c-1.8-8,10.8,14.4,8.9,22.6
				C-1353.9-178.2-1361.2-162.1-1361.2-162.1z"/>
			
				<linearGradient id="SVGID_26_" gradientUnits="userSpaceOnUse" x1="-1429.3134" y1="415.4287" x2="-1394.3776" y2="415.4287" gradientTransform="matrix(-3.274567e-02 -0.9994 -0.8688 2.845226e-02 -1044.6617 -1603.7719)">
				<stop  offset="0.1522" style="stop-color:#FFB02A"/>
				<stop  offset="0.9393" style="stop-color:#FFEE00"/>
			</linearGradient>
			<path class="st48" d="M-1361.3-163.4c0,0-2.9-15.1-2.5-20.2c0.3-5,2.3-7.2,4.1-10.9c0.4-0.9,1-2.9,1.3-3.9c0.1-0.2,0.3-0.2,0.4,0
				c0.7,1.5,2.5,6,2.8,10.2C-1354.7-182.9-1361.3-163.4-1361.3-163.4z"/>
		</g>
	</g>
	<g>
		<defs>
			<rect id="SVGID_27_" x="-630.9" y="-1" width="30.1" height="56.3"/>
		</defs>
		<clipPath id="SVGID_28_">
			<use xlink:href="#SVGID_27_"  style="overflow:visible;"/>
		</clipPath>
		<g class="st49">
			
				<linearGradient id="SVGID_29_" gradientUnits="userSpaceOnUse" x1="-1688.5319" y1="-431.1108" x2="-1616.0399" y2="-431.1108" gradientTransform="matrix(-3.274567e-02 -0.9994 -0.8688 2.845226e-02 -1044.6617 -1603.7719)">
				<stop  offset="0.1522" style="stop-color:#FF3A2D"/>
				<stop  offset="0.1907" style="stop-color:#FF462A"/>
				<stop  offset="0.4015" style="stop-color:#FF811B"/>
				<stop  offset="0.5953" style="stop-color:#FFB00F"/>
				<stop  offset="0.7658" style="stop-color:#FFD207"/>
				<stop  offset="0.9065" style="stop-color:#FFE702"/>
				<stop  offset="1" style="stop-color:#FFEE00"/>
			</linearGradient>
			<path class="st50" d="M-617.7,71.6c-0.1,0-0.1,0-0.1-0.1c-0.6-1.4-13.5-16.4-13.1-27.9c0.4-12.1,2.8-27.1,3-29
				c0.3-3.5,4.5,11,5.3,12.1c0.1,0.1,0.3,0,0.3-0.1c-0.9-2.2-1.2-8.2-0.3-12.4s6.1-11.9,8.3-15c0.3-0.4,0.9-0.2,0.9,0.3
				c0,2.3,1,9.8,3.7,12.5c3.7,3.6,11.5,15.2,7.9,27.8C-605.4,52.2-613.6,71.9-617.7,71.6z"/>
			
				<linearGradient id="SVGID_30_" gradientUnits="userSpaceOnUse" x1="-1684.7792" y1="-432.9429" x2="-1636.3298" y2="-432.9429" gradientTransform="matrix(-3.274567e-02 -0.9994 -0.8688 2.845226e-02 -1044.6617 -1603.7719)">
				<stop  offset="0.1522" style="stop-color:#FF5A19"/>
				<stop  offset="1" style="stop-color:#FFEE00"/>
			</linearGradient>
			<path class="st51" d="M-616.5,67.8c0,0-7.6-21.5-3.8-29.7c3.8-8.2,5.4-12.2,4.3-17.1c-1.8-8,10.8,14.4,8.9,22.6
				C-609.2,51.8-616.5,67.8-616.5,67.8z"/>
			
				<linearGradient id="SVGID_31_" gradientUnits="userSpaceOnUse" x1="-1683.5358" y1="-432.1189" x2="-1648.6001" y2="-432.1189" gradientTransform="matrix(-3.274567e-02 -0.9994 -0.8688 2.845226e-02 -1044.6617 -1603.7719)">
				<stop  offset="0.1522" style="stop-color:#FFB02A"/>
				<stop  offset="0.9393" style="stop-color:#FFEE00"/>
			</linearGradient>
			<path class="st52" d="M-616.6,66.6c0,0-2.9-15.1-2.5-20.2c0.3-5,2.3-7.2,4.1-10.9c0.4-0.9,1-2.9,1.3-3.9c0.1-0.2,0.3-0.2,0.4,0
				c0.7,1.5,2.5,6,2.8,10.2C-610,47-616.6,66.6-616.6,66.6z"/>
		</g>
	</g>
	<g>
		<g>
			
				<linearGradient id="SVGID_32_" gradientUnits="userSpaceOnUse" x1="-375.5486" y1="41.4754" x2="-272.4843" y2="41.4754" gradientTransform="matrix(0.9932 -0.1162 -0.101 -0.8634 16.5947 -69.3272)">
				<stop  offset="0.1522" style="stop-color:#FF3A2D"/>
				<stop  offset="0.1907" style="stop-color:#FF462A"/>
				<stop  offset="0.4015" style="stop-color:#FF811B"/>
				<stop  offset="0.5953" style="stop-color:#FFB00F"/>
				<stop  offset="0.7658" style="stop-color:#FFD207"/>
				<stop  offset="0.9065" style="stop-color:#FFE702"/>
				<stop  offset="1" style="stop-color:#FFEE00"/>
			</linearGradient>
			<path class="st53" d="M-360.8-63.2c0-0.1,0-0.2,0.1-0.2c1.9-0.9,27.6-13.6,37-15.2c11.3-1.9,21-0.7,26.6-5.5
				c3.9-3.3,4.4-6.3,4.4-7.6c0-0.2,0.3-0.3,0.4-0.1c1.2,1.9,4.1,7.3,1.8,10.5c-2.1,2.9-4.6,5.3-6.1,6.5c-0.2,0.2,0,0.4,0.2,0.3
				c3-1.4,10.5-4.8,14.8-5.6c7.6-1.4,18.1,1.6,22.8,4.2c0.6,0.3,0.4,1.2-0.3,1.3c-3.4,0.3-10.2,1.4-13.7,5.3
				c-4.8,5.3-21.6,27-40.1,23.6C-331.2-49-360.6-57.7-360.8-63.2z"/>
			
				<linearGradient id="SVGID_33_" gradientUnits="userSpaceOnUse" x1="-370.1148" y1="36.504" x2="-304.1727" y2="36.504" gradientTransform="matrix(0.9932 -0.1162 -0.101 -0.8634 16.5947 -69.3272)">
				<stop  offset="0.1522" style="stop-color:#FF5A19"/>
				<stop  offset="1" style="stop-color:#FFEE00"/>
			</linearGradient>
			<path class="st54" d="M-355.2-62c0,0,30-12.5,42.3-8.4c12.3,4.1,13.7,10,20.7,8c11.3-3.3-8.6,10.3-20.6,8.6
				C-324.8-55.6-355.2-62-355.2-62z"/>
			
				<linearGradient id="SVGID_34_" gradientUnits="userSpaceOnUse" x1="-368.3211" y1="37.2795" x2="-317.8232" y2="37.2795" gradientTransform="matrix(0.9932 -0.1162 -0.101 -0.8634 16.5947 -69.3272)">
				<stop  offset="0.1522" style="stop-color:#FFB02A"/>
				<stop  offset="0.9393" style="stop-color:#FFEE00"/>
			</linearGradient>
			<path class="st55" d="M-353.4-62.4c0,0,21.5-5.6,28.8-5.6c7.3-0.1,10.6,2.3,16.2,4.3c1.3,0.5,4.3,1,5.8,1.3
				c0.3,0,0.3,0.4,0.1,0.5c-2.1,1-8.4,3.9-14.4,4.9C-324.4-55.7-353.4-62.4-353.4-62.4z"/>
		</g>
	</g>
	<g>
		<path class="st10" d="M-211.5-227.4c0,0-0.2-1.8-9.7-1.8c-4.9,0-10.3-1.8-10.9-6.7c-1.1-8.8,9.7-19.4,22.5-29.1
			c12.8-9.7-29.1-16.4-37.6-12.1c-8.5,4.2-27.9,36.4-28.5,44.3c-0.6,7.9,10.9,20,10.9,20l14.6-3L-211.5-227.4z"/>
		<path class="st10" d="M-316.5-176.4c-0.7-1.8-0.8-18.3,1.2-17.6s13,0.3,13,0.3s-15-17.2-12.4-18.5c2.7-1.3,23.9-1.3,22.7-4.4
			c-1.2-3-22.4-8.8-19.8-10.1c2.6-1.3,9.7-14.2,9.7-14.2s-18.6-1.4-16.9-2.6s11.5-10.2,11.5-10.2l-13.4-12.9l13.3-6.1
			c0,0-7-15-5.2-15.2l26.7,2.2l6.7,99L-316.5-176.4"/>
		<path class="st10" d="M-316.5-176.4l-10.3-9.1l-8.6,16l-2.9-15.4l-14.2,3.1l-4-11l-6.7,6.7c0,0,20,20,26.7,25.5s27.3,3,27.3,3
			L-316.5-176.4z"/>
		
			<linearGradient id="SVGID_35_" gradientUnits="userSpaceOnUse" x1="-237.3055" y1="573.3401" x2="-151.2251" y2="573.3401" gradientTransform="matrix(0.9906 -0.1366 -0.1366 -0.9906 49.0522 282.7395)">
			<stop  offset="0" style="stop-color:#E6E6E6"/>
			<stop  offset="1" style="stop-color:#FF9300"/>
		</linearGradient>
		<path class="st56" d="M-252.6-239.1l6.1,2.8l-1.1-8.2l7.5,3.8l-1-7.9c0,0,6.2,2.3,7.2,1.8s2.9-7.1,2.9-7.1l4.4,2.2l1.7-5.4l5,4.7
			l2.4-5.5l4.3,0.9l1-6.2l8.7,3.6l2.2-7.2l6.1,4.4l0.1-9.2c0,0,8.2,7.2,8,6c-0.1-1.2-0.9-8.7-0.9-8.7s8.5,5.5,8.2,4.8
			c-0.3-0.7-3-12.1-3-12.1l-8.9-0.2l-71.5,37.6L-252.6-239.1z"/>
		<path class="st12" d="M-252.1-151.1c0,0-6.7,16.7-7.3,20.4c-0.6,3.6,9.3,5.3,10.2,7.9c0.9,2.6-6.4,1.2-6.4,1.2s-2.5,2.4-4.8,1.8
			c-1.5-0.4-8.3-0.9-12.9-1.3c-2.3-0.2-4-2.3-3.7-4.6l2.8-20.3C-274.2-145.9-253.5-160.5-252.1-151.1z"/>
		<path class="st13" d="M-276.4-130.5c0,0,9.1-7.5,14.6-9.3s3.9,4.2,3.9,4.2l5.8-15.7c0,0-19.7,3.1-20.2,3.7s-3.1,5.1-3.1,5.1
			L-276.4-130.5z"/>
		<g>
			
				<linearGradient id="SVGID_36_" gradientUnits="userSpaceOnUse" x1="-344.4066" y1="540.373" x2="-150.9589" y2="540.373" gradientTransform="matrix(0.9906 -0.1366 -0.1366 -0.9906 49.0522 282.7395)">
				<stop  offset="0" style="stop-color:#FF3A2D"/>
				<stop  offset="1" style="stop-color:#D50000"/>
			</linearGradient>
			<path class="st57" d="M-253.1-188.4c1.7,5.6,5.9,17.6,6.8,26.4c0.9,8.8-6.6,16.7-14.7,19.3c-8.1,2.6-12.6,3.3-19.9,5.6
				c-4.1,3.9-8.9,7.3-12.7,11.7c5.1,0.9,11.6,2,15,6.2c-1.6,1.7-3.4,2.8-5.6,3.1c-3.5,0.5-5.6,0.8-9.4,1.3
				c-2.6,0.3-6.9-0.3-10.7-0.6c-2.8-0.2-4.9-2.6-5-5.4c-0.1-5.1,0.4-9.7-0.1-15.3c-25.1-1.8-37.8-29.4-53.9-50
				c10.2-0.6,23.3,17.4,33.4,17s31.8-29,35.4-39.2s-8.8-26.3-13.5-40.4c-4.7-14.2-7.7-24.6,10-38.1c17.7-13.5,65.5-48,82.3-36.3
				c16.8,11.8,41.6,33.9,31.9,45.2c-9.6,11.3-72.3,27.4-74.2,47.4s4.4,12.1,12.5,9.4c7.4-2.4,29.2-11.4,34-6.5
				c4.8,4.9-12.7,8.4-27.8,11.8c-14.3,3.2-19.3,10.1-20.9,10.3c-1.6,0.2,3.9,6.8,4.8,9.6C-254.3-193.2-254.8-193.9-253.1-188.4z"/>
		</g>
		<path class="st15" d="M-254-121.3c0,0-0.6-4.1,1-4s4.6,1.9,5.2,3.1C-247.3-121-254-121.3-254-121.3z"/>
		<path class="st15" d="M-261.3-119.9c0,0-0.6-3.5,1.8-3.5c2.4,0,5.5,1.2,6.1,3S-261.3-119.9-261.3-119.9z"/>
		<path class="st15" d="M-282-117.2c0,0-0.6-4.1,1-4s4.6,1.9,5.2,3.1C-275.2-116.9-282-117.2-282-117.2z"/>
		<path class="st15" d="M-289.2-115.8c0,0-0.6-3.5,1.8-3.5s5.5,1.2,6.1,3C-280.7-114.5-289.2-115.8-289.2-115.8z"/>
		<path class="st13" d="M-280.7-137.5c0,0-27.3,1.2-28.5,0.6s0.4,10.9,0.2,13.3s4.7-3.6,13.8-6.6
			C-286.1-133.2-280.7-137.5-280.7-137.5z"/>
		<g>
			<path class="st19" d="M-259.1-255.9c0,0-3.2-1.9-6.4-2.4c-3.2-0.5-8.1-0.6-8.1-0.6l1.7-0.9c0,0-0.7-0.2-1.5-1.1
				c-0.7-0.7-1.8-3.1-1.8-3.1s3.5,0.4,7.4,0.8c5.5,0.7,8.2,3.8,8.2,3.8h-1.1C-260.7-259.3-259.3-257.2-259.1-255.9z"/>
			<path class="st20" d="M-261.1-260.1c0,0-1.6-1.5-4.8-2.3c-3.2-0.8-7-0.9-7-0.9l2.7,1l-3.2-0.5c0,0,1.7,1,4.9,1.6
				c3.2,0.6,7.3,2.3,7.3,2.3l-0.8-1.4L-261.1-260.1z"/>
		</g>
		<g>
			<circle cx="-265.4" cy="-250.8" r="4.2"/>
			<circle class="st0" cx="-265.1" cy="-251.6" r="1.5"/>
			<circle class="st0" cx="-266.7" cy="-249.1" r="0.7"/>
		</g>
		<g>
			<path class="st21" d="M-218.8-284.9c3.2,6.1,7.8,10.1,10.2,8.8c2.5-1.3,1.9-7.3-1.3-13.4c-3.2-6.1-7.8-10.1-10.2-8.8
				S-221.9-291-218.8-284.9z"/>
			<path class="st22" d="M-219.7-284.3c3.2,6.1,7.8,10.1,10.2,8.8c2.5-1.3,1.9-7.3-1.3-13.4s-7.8-10.1-10.2-8.8
				C-223.5-296.4-222.9-290.4-219.7-284.3z"/>
		</g>
		<g>
			<path class="st21" d="M-203-297.8c2.5,4.7,6,7.8,7.9,6.8s1.5-5.7-1-10.4c-2.5-4.7-6-7.8-7.9-6.8S-205.5-302.6-203-297.8z"/>
			<path class="st22" d="M-203.8-297.3c2.5,4.7,6,7.8,7.9,6.8s1.5-5.7-1-10.4c-2.5-4.7-6-7.8-7.9-6.8S-206.2-302.1-203.8-297.3z"/>
		</g>
		<g>
			<path class="st23" d="M-217.3-304c0,0-4.8-2.5-8.6-0.4c-7.2,4-2.9,14.8-2.9,14.8s-2.3-6.3,4.9-12.2
				C-220.2-304.6-217.3-304-217.3-304z"/>
			<path class="st24" d="M-217.3-304c0,0-5.4,0.7-9.3,5.9c-3.9,5.2-1.2,11-1.2,11s-3.4-6,0.1-11.4C-224.2-304-217.3-304-217.3-304z"
				/>
			<path class="st25" d="M-219.2-302.4c0,0-5.8,3.5-6.8,8.9c-1,5.4,1.9,9.4,1.9,9.4s-4-3.6-3.5-9.5
				C-227-299.7-219.2-302.4-219.2-302.4z"/>
		</g>
		<g>
			<path class="st23" d="M-203.8-311.5c0,0-2.8-1.5-5.1-0.2c-4.3,2.4-1.7,8.8-1.7,8.8s-1.3-3.7,2.9-7.2
				C-205.5-311.9-203.8-311.5-203.8-311.5z"/>
			<path class="st24" d="M-203.8-311.5c0,0-3.2,0.4-5.5,3.5c-2.3,3.1-0.7,6.5-0.7,6.5s-2-3.6,0.1-6.8
				C-207.9-311.5-203.8-311.5-203.8-311.5z"/>
			<path class="st25" d="M-205-310.5c0,0-3.4,2-4,5.2s1.2,5.6,1.2,5.6s-2.4-2.2-2.1-5.6C-209.5-308.9-205-310.5-205-310.5z"/>
		</g>
		<path class="st10" d="M-297.7-286.9c0,0,11.5-10.3,32.2-19.4c19.7-8.7,29.7-9.1,29.7-9.1s-4.9-12.7,6.7-17.6
			c11.6-4.9-11.5-12.1-22.5,0c-6.9,7.7-10.3-6.7-10.3-6.7l-9.1,21.9l-12.1-3.6l-3.6,18.8l-13.4,1.2L-297.7-286.9z"/>
	</g>
	<path class="st10" d="M-238-75.5c0,0,0.8,0.1,5.3-1s3.5-8.8,6.1-10.3s2.8,5.3,3.5,5.9c0.6,0.6,0.2-4.4,0.2-4.4s1.4,4.1,1.9,3.5
		c0.6-0.6-0.7-5.5-0.7-5.5s3.6,7.5,2.8,1.7s-5.5-6.3-8.4-6.3s-4.5,8.9-6.8,10.3c-2.3,1.4-7.3-0.6-7.3-0.6L-238-75.5z"/>
	<g>
		<path class="st10" d="M-10-227.4c0,0-0.2-1.8-9.7-1.8c-4.9,0-10.3-1.8-10.9-6.7c-1.1-8.8,9.7-19.4,22.5-29.1
			c12.8-9.7-29.1-16.4-37.6-12.1c-8.5,4.2-27.9,36.4-28.5,44.3c-0.6,7.9,10.9,20,10.9,20l14.6-3L-10-227.4z"/>
		<path class="st10" d="M-115-176.4c-0.7-1.8-0.8-18.3,1.2-17.6s13,0.3,13,0.3s-15-17.2-12.4-18.5c2.7-1.3,23.9-1.3,22.7-4.4
			c-1.2-3-22.4-8.8-19.8-10.1c2.6-1.3,9.7-14.2,9.7-14.2s-18.6-1.4-16.9-2.6s11.5-10.2,11.5-10.2l-13.4-12.9l13.3-6.1
			c0,0-7-15-5.2-15.2l26.7,2.2l6.7,99L-115-176.4"/>
		<path class="st10" d="M-115-176.4l-10.3-9.1l-8.6,16l-2.9-15.4l-14.2,3.1l-4-11l-6.7,6.7c0,0,20,20,26.7,25.5s27.3,3,27.3,3
			L-115-176.4z"/>
		
			<linearGradient id="SVGID_37_" gradientUnits="userSpaceOnUse" x1="-37.758" y1="545.8232" x2="48.3224" y2="545.8232" gradientTransform="matrix(0.9906 -0.1366 -0.1366 -0.9906 49.0522 282.7395)">
			<stop  offset="0" style="stop-color:#E6E6E6"/>
			<stop  offset="1" style="stop-color:#FF9300"/>
		</linearGradient>
		<path class="st58" d="M-51.1-239.1l6.1,2.8l-1.1-8.2l7.5,3.8l-1-7.9c0,0,6.2,2.3,7.2,1.8s2.9-7.1,2.9-7.1l4.4,2.2l1.7-5.4l5,4.7
			l2.4-5.5l4.3,0.9l1-6.2l8.7,3.6l2.2-7.2l6.1,4.4l0.1-9.2c0,0,8.2,7.2,8,6c-0.1-1.2-0.9-8.7-0.9-8.7s8.5,5.5,8.2,4.8
			c-0.3-0.7-3-12.1-3-12.1l-8.9-0.2l-71.5,37.6L-51.1-239.1z"/>
		<path class="st12" d="M-50.6-151.1c0,0-6.7,16.7-7.3,20.4c-0.6,3.6,9.3,5.3,10.2,7.9c0.9,2.6-6.4,1.2-6.4,1.2s-2.5,2.4-4.8,1.8
			c-1.5-0.4-8.3-0.9-12.9-1.3c-2.3-0.2-4-2.3-3.7-4.6l2.8-20.3C-72.7-145.9-52-160.5-50.6-151.1z"/>
		<path class="st13" d="M-74.9-130.5c0,0,9.1-7.5,14.6-9.3s3.9,4.2,3.9,4.2l5.8-15.7c0,0-19.7,3.1-20.2,3.7s-3.1,5.1-3.1,5.1
			L-74.9-130.5z"/>
		<g>
			
				<linearGradient id="SVGID_38_" gradientUnits="userSpaceOnUse" x1="-144.8591" y1="512.8561" x2="48.5886" y2="512.8561" gradientTransform="matrix(0.9906 -0.1366 -0.1366 -0.9906 49.0522 282.7395)">
				<stop  offset="0" style="stop-color:#FF3A2D"/>
				<stop  offset="1" style="stop-color:#D50000"/>
			</linearGradient>
			<path class="st59" d="M-51.6-188.4c1.7,5.6,5.9,17.6,6.8,26.4c0.9,8.8-6.6,16.7-14.7,19.3s-12.6,3.3-19.9,5.6
				c-4.1,3.9-8.9,7.3-12.7,11.7c5.1,0.9,11.6,2,15,6.2c-1.6,1.7-3.4,2.8-5.6,3.1c-3.5,0.5-5.6,0.8-9.4,1.3
				c-2.6,0.3-6.9-0.3-10.7-0.6c-2.8-0.2-4.9-2.6-5-5.4c-0.1-5.1,0.4-9.7-0.1-15.3c-25.1-1.8-37.8-29.4-53.9-50
				c10.2-0.6,23.3,17.4,33.4,17s31.8-29,35.4-39.2c3.6-10.2-8.8-26.3-13.5-40.4c-4.7-14.2-7.7-24.6,10-38.1s65.5-48,82.3-36.3
				c16.8,11.8,41.6,33.9,31.9,45.2c-9.6,11.3-72.3,27.4-74.2,47.4s4.4,12.1,12.5,9.4c7.4-2.4,29.2-11.4,34-6.5
				c4.8,4.9-12.7,8.4-27.8,11.8c-14.3,3.2-19.3,10.1-20.9,10.3c-1.6,0.2,3.9,6.8,4.8,9.6C-52.8-193.2-53.3-193.9-51.6-188.4z"/>
		</g>
		<path class="st15" d="M-52.5-121.3c0,0-0.6-4.1,1-4s4.6,1.9,5.2,3.1C-45.8-121-52.5-121.3-52.5-121.3z"/>
		<path class="st15" d="M-59.8-119.9c0,0-0.6-3.5,1.8-3.5s5.5,1.2,6.1,3S-59.8-119.9-59.8-119.9z"/>
		<path class="st15" d="M-80.5-117.2c0,0-0.6-4.1,1-4s4.6,1.9,5.2,3.1C-73.7-116.9-80.5-117.2-80.5-117.2z"/>
		<path class="st15" d="M-87.7-115.8c0,0-0.6-3.5,1.8-3.5c2.4,0,5.5,1.2,6.1,3C-79.2-114.5-87.7-115.8-87.7-115.8z"/>
		<path class="st13" d="M-79.2-137.5c0,0-27.3,1.2-28.5,0.6s0.4,10.9,0.2,13.3s4.7-3.6,13.8-6.6C-84.6-133.2-79.2-137.5-79.2-137.5z
			"/>
		<g>
			
				<linearGradient id="SVGID_39_" gradientUnits="userSpaceOnUse" x1="-15.1478" y1="202.8223" x2="87.9165" y2="202.8223" gradientTransform="matrix(0.9932 -0.1162 -0.101 -0.8634 16.5947 -69.3272)">
				<stop  offset="0.1522" style="stop-color:#FF3A2D"/>
				<stop  offset="0.1907" style="stop-color:#FF462A"/>
				<stop  offset="0.4015" style="stop-color:#FF811B"/>
				<stop  offset="0.5953" style="stop-color:#FFB00F"/>
				<stop  offset="0.7658" style="stop-color:#FFD207"/>
				<stop  offset="0.9065" style="stop-color:#FFE702"/>
				<stop  offset="1" style="stop-color:#FFEE00"/>
			</linearGradient>
			<path class="st60" d="M-19.1-244.4c0-0.1,0-0.2,0.1-0.2c1.9-0.9,27.6-13.6,37-15.2c11.3-1.9,21-0.7,26.6-5.5
				c3.9-3.3,4.4-6.3,4.4-7.6c0-0.2,0.3-0.3,0.4-0.1c1.2,1.9,4.1,7.3,1.8,10.5c-2.1,2.9-4.6,5.3-6.1,6.5c-0.2,0.2,0,0.4,0.2,0.3
				c3-1.4,10.5-4.8,14.8-5.6c7.6-1.4,18.1,1.6,22.8,4.2c0.6,0.3,0.4,1.2-0.3,1.3c-3.4,0.3-10.2,1.4-13.7,5.3
				c-4.8,5.3-21.6,27-40.1,23.6C10.4-230.2-19-238.9-19.1-244.4z"/>
			
				<linearGradient id="SVGID_40_" gradientUnits="userSpaceOnUse" x1="-9.7141" y1="197.8509" x2="56.2281" y2="197.8509" gradientTransform="matrix(0.9932 -0.1162 -0.101 -0.8634 16.5947 -69.3272)">
				<stop  offset="0.1522" style="stop-color:#FF5A19"/>
				<stop  offset="1" style="stop-color:#FFEE00"/>
			</linearGradient>
			<path class="st61" d="M-13.5-243.2c0,0,30-12.5,42.3-8.4c12.3,4.1,13.7,10,20.7,8c11.3-3.3-8.6,10.3-20.6,8.6
				C16.9-236.8-13.5-243.2-13.5-243.2z"/>
			
				<linearGradient id="SVGID_41_" gradientUnits="userSpaceOnUse" x1="-7.9203" y1="198.6264" x2="42.5776" y2="198.6264" gradientTransform="matrix(0.9932 -0.1162 -0.101 -0.8634 16.5947 -69.3272)">
				<stop  offset="0.1522" style="stop-color:#FFB02A"/>
				<stop  offset="0.9393" style="stop-color:#FFEE00"/>
			</linearGradient>
			<path class="st62" d="M-11.8-243.6c0,0,21.5-5.6,28.8-5.6c7.3-0.1,10.6,2.3,16.2,4.3c1.3,0.5,4.3,1,5.8,1.3
				c0.3,0,0.3,0.4,0.1,0.5c-2.1,1-8.4,3.9-14.4,4.9C17.2-236.9-11.8-243.6-11.8-243.6z"/>
		</g>
		<g>
			<path class="st19" d="M-57.6-255.9c0,0-3.2-1.9-6.4-2.4s-8.1-0.6-8.1-0.6l1.7-0.9c0,0-0.7-0.2-1.5-1.1c-0.7-0.7-1.8-3.1-1.8-3.1
				s3.5,0.4,7.4,0.8c5.5,0.7,8.2,3.8,8.2,3.8h-1.1C-59.2-259.3-57.8-257.2-57.6-255.9z"/>
			<path class="st20" d="M-59.6-260.1c0,0-1.6-1.5-4.8-2.3c-3.2-0.8-7-0.9-7-0.9l2.7,1l-3.2-0.5c0,0,1.7,1,4.9,1.6
				c3.2,0.6,7.3,2.3,7.3,2.3l-0.8-1.4L-59.6-260.1z"/>
		</g>
		<path class="st10" d="M-58.5-197.1c0,0,0.8,0.3,5.4,0.6c4.6,0.3,6-7.3,9-8s1.1,5.9,1.6,6.6c0.4,0.7,1.5-4.1,1.5-4.1
			s0.1,4.3,0.8,3.9s1-5.4,1-5.4s1.2,8.3,2.1,2.5c1-5.8-3.4-7.7-6.1-8.6c-2.7-0.9-6.9,7.1-9.6,7.8c-2.6,0.6-6.7-2.8-6.7-2.8
			L-58.5-197.1z"/>
		<g>
			<circle cx="-63.9" cy="-250.8" r="4.2"/>
			<circle class="st0" cx="-63.6" cy="-251.6" r="1.5"/>
			<circle class="st0" cx="-65.2" cy="-249.1" r="0.7"/>
		</g>
		<path class="st10" d="M-83.6-191.4c0,0,0.8,0.1,5.3-1s3.5-8.8,6.1-10.3s2.8,5.3,3.5,5.9c0.6,0.6,0.2-4.4,0.2-4.4s1.4,4.1,1.9,3.5
			c0.6-0.6-0.7-5.5-0.7-5.5s3.6,7.5,2.8,1.7s-5.5-6.3-8.4-6.3s-4.5,8.9-6.8,10.3c-2.3,1.4-7.3-0.6-7.3-0.6L-83.6-191.4z"/>
		<g>
			<path class="st21" d="M-17.3-284.9c3.2,6.1,7.8,10.1,10.2,8.8c2.5-1.3,1.9-7.3-1.3-13.4c-3.2-6.1-7.8-10.1-10.2-8.8
				S-20.4-291-17.3-284.9z"/>
			<path class="st22" d="M-18.2-284.3c3.2,6.1,7.8,10.1,10.2,8.8c2.5-1.3,1.9-7.3-1.3-13.4s-7.8-10.1-10.2-8.8
				C-22-296.4-21.4-290.4-18.2-284.3z"/>
		</g>
		<g>
			<path class="st21" d="M-1.5-297.8c2.5,4.7,6,7.8,7.9,6.8s1.5-5.7-1-10.4c-2.5-4.7-6-7.8-7.9-6.8S-4-302.6-1.5-297.8z"/>
			<path class="st22" d="M-2.3-297.3c2.5,4.7,6,7.8,7.9,6.8s1.5-5.7-1-10.4c-2.5-4.7-6-7.8-7.9-6.8S-4.7-302.1-2.3-297.3z"/>
		</g>
		<g>
			<path class="st23" d="M-15.8-304c0,0-4.8-2.5-8.6-0.4c-7.2,4-2.9,14.8-2.9,14.8s-2.3-6.3,4.9-12.2C-18.7-304.6-15.8-304-15.8-304
				z"/>
			<path class="st24" d="M-15.8-304c0,0-5.4,0.7-9.3,5.9c-3.9,5.2-1.2,11-1.2,11s-3.4-6,0.1-11.4C-22.7-304-15.8-304-15.8-304z"/>
			<path class="st25" d="M-17.7-302.4c0,0-5.8,3.5-6.8,8.9c-1,5.4,1.9,9.4,1.9,9.4s-4-3.6-3.5-9.5
				C-25.5-299.7-17.7-302.4-17.7-302.4z"/>
		</g>
		<g>
			<path class="st23" d="M-2.3-311.5c0,0-2.8-1.5-5.1-0.2c-4.3,2.4-1.7,8.8-1.7,8.8s-1.3-3.7,2.9-7.2C-4-311.9-2.3-311.5-2.3-311.5z
				"/>
			<path class="st24" d="M-2.3-311.5c0,0-3.2,0.4-5.5,3.5c-2.3,3.1-0.7,6.5-0.7,6.5s-2-3.6,0.1-6.8C-6.4-311.5-2.3-311.5-2.3-311.5z
				"/>
			<path class="st25" d="M-3.5-310.5c0,0-3.4,2-4,5.2s1.2,5.6,1.2,5.6s-2.4-2.2-2.1-5.6C-8-308.9-3.5-310.5-3.5-310.5z"/>
		</g>
		<path class="st10" d="M-96.2-286.9c0,0,11.5-10.3,32.2-19.4c19.7-8.7,29.7-9.1,29.7-9.1s-4.9-12.7,6.7-17.6
			c11.6-4.9-11.5-12.1-22.5,0c-6.9,7.7-10.3-6.7-10.3-6.7l-9.1,21.9l-12.1-3.6l-3.6,18.8l-13.4,1.2L-96.2-286.9z"/>
	</g>
	<g>
		<g>
			<path class="st26" d="M-109.2,152.8c0,0-21.9-3.7-22.9,0.4c-0.7,2.9,23.4,2.8,23.4,2.8L-109.2,152.8z"/>
			<path class="st26" d="M-129.2,149.4c0,0-5.9-7.3-6.6-5.1s2.1,5.7,2.1,5.7s-8.1-3.6-9.1-2.4s7.9,4.1,7.4,4.2s-8.8-0.6-8.5,0.6
				c0.2,1.2,8.1,1.3,8.2,1.8s-7.7,1.2-7.2,2.1c0.4,0.9,7.4,0.1,8.2,0.2c0.8,0.1-4.9,2.4-4.5,3.4c0.4,0.9,5.4-1.3,6.3-1.9
				c0.9-0.7,5-0.4,6.5-1.7s0.9-4.5,0-5.3C-127.3,150.1-129.2,149.4-129.2,149.4z"/>
		</g>
		<path class="st27" d="M-149.8,98.4c4.9,0,12.8,0.5,16.6-1.6c7.7-4.4-14.5-13.5-27.3-23.3s29.1-16.4,37.6-12.1S-85.2,90-84.6,97.9
			c0.6,7.9-20.7,27.9-20.7,27.9l-14.6-3C-119.8,122.7-159.3,98.4-149.8,98.4z"/>
		
			<linearGradient id="SVGID_42_" gradientUnits="userSpaceOnUse" x1="-158.875" y1="221.7074" x2="-110.6573" y2="173.4897" gradientTransform="matrix(1 0 0 -1 0 276.8017)">
			<stop  offset="0" style="stop-color:#FFC76D"/>
			<stop  offset="1" style="stop-color:#E8E3E0"/>
		</linearGradient>
		<path class="st63" d="M-170.8,67c0,0-1.5,4.1,0.6,4.6s4.3-1.1,4.3-1.1s-1.1,8.6,1.6,7.5s4.8-2.6,4.8-2.6s-1,5.9,1.6,6.4
			c2.7,0.5,5.4-2.8,5.4-2.8s0,7.1,2.6,7.1s5.7-3.2,5.7-3.2s-2.5,5.3,1.8,5.9c4.3,0.5,5.4-1.6,5.4-1.6s0.5,4.4,3.2,4.8
			c3.7,0.5,5.1-1.9,5.1-1.9s3,4,4,3.5c1.1-0.5,5.9-2.7,5.9-2.7s-0.5,3.7,2.1,3.7s7-3.7,7-3.7s0,3.7,2.1,3.2s3.7-3.7,3.7-3.7
			s1.1,2.7,3.2,2.1c2.1-0.5,4.3-4.3,4.3-4.3L-170.8,67z"/>
		
			<linearGradient id="SVGID_43_" gradientUnits="userSpaceOnUse" x1="-183.4716" y1="65.1751" x2="-124.1869" y2="58.9997" gradientTransform="matrix(0.9996 2.982325e-02 2.982325e-02 -0.9996 29.1597 174.9547)">
			<stop  offset="0" style="stop-color:#FFC76D"/>
			<stop  offset="1" style="stop-color:#E8E3E0"/>
		</linearGradient>
		<path class="st64" d="M-93.1,111.2c0,0-3.2-7.5-6.4-5.4c-2.9,1.9-1.6,4.3-1.6,4.3s-1.6-3.7-3.7-2.1s-2.1,4.3-2.1,4.3
			s-1-5.3-3.7-3.2c-2.7,2.1-2.8,5.1-2.8,5.1s0.2-5.6-2.5-4.6s-2.2,2.8-2.2,2.8s-0.4-4.4-3.1-3.4s-3.3,2.1-3.3,2.1s-0.9-5.2-3.1-3.2
			c-2.2,2.1-2.7,2.5-2.7,2.5s0.6-5.1-2.1-4.6s-3.7,1.7-3.7,1.7s1.6-3.8-1.6-3.9s-3,1.9-3,1.9s0.4-6.1-2.3-4.1c-2.7,2.1-3,2.3-3,2.3
			s4.3-8.3,0.9-8.2c-3.4,0.1-3.8,5.4-3.8,5.4s1.6-7.5-0.5-7s-1.2,5.4-1.2,5.4s10.9,10.6,11.9,11.2s41.4,12,41.4,12L-93.1,111.2z"/>
		<g>
			<path class="st30" d="M-111.8,191.3c0,0,6.7,16.7,7.4,20.4c0.6,3.6-9.3,5.4-10.2,8c-0.9,2.6,6.4,1.1,6.4,1.1s2.5,2.4,4.8,1.8
				c1.5-0.4,8.3-1,12.9-1.3c2.3-0.2,4-2.3,3.7-4.6l-2.8-20.2C-89.7,196.4-110.5,181.9-111.8,191.3z"/>
			<path class="st31" d="M-87.5,211.8c0,0-9.1-7.5-14.6-9.3s-3.9,4.2-3.9,4.2l-5.8-15.7c0,0,19.7,3,20.2,3.6s3.1,5.1,3.1,5.1
				L-87.5,211.8z"/>
			<path class="st15" d="M-109.8,221.1c0,0,0.6-4.1-1-4s-4.6,1.9-5.2,3.1C-116.6,221.4-109.8,221.1-109.8,221.1z"/>
			<path class="st15" d="M-102.6,222.4c0,0,0.6-3.5-1.9-3.5c-2.4,0-5.5,1.2-6.1,3S-102.6,222.4-102.6,222.4z"/>
		</g>
		<path class="st32" d="M-60.4,169.6c0,0,9.1-22.2,6.4-23.6c-2.7-1.3-10.9-7.2-9.6-10.2c1.2-3,23.5-11.5,20.9-12.8
			c-2.7-1.3-9.6-16.6-9.6-16.6s23.3-5.9,21.6-7.1s-11.5-10.2-11.5-10.2l13.4-12.9l-13.3-6.1c0,0-4.4-13,0.9-16.8
			c5.4-3.7-24.6,1.1-24.6,1.1l-28.4,98"/>
		<path class="st32" d="M-62.6,167.4l17.1-13.3l8.6,12.3l2.9-11.6l13.7,2l4.6-9.9l6.7,6.7c0,0-20,20-26.7,25.5s-27.3,3-27.3,3
			L-62.6,167.4z"/>
		
			<linearGradient id="SVGID_44_" gradientUnits="userSpaceOnUse" x1="-172.3294" y1="155.9633" x2="-9.1294" y2="155.9633" gradientTransform="matrix(1 0 0 -1 0 276.8017)">
			<stop  offset="0" style="stop-color:#6BC62A"/>
			<stop  offset="1" style="stop-color:#00B53E"/>
		</linearGradient>
		<path class="st65" d="M-42.4,170.5c-31.9-3.1-29.2-27.7-20.1-43.2c0.1-0.1,0.1-0.2,0-0.3c12.8-13.2,26.4-39.3,23.1-48.9
			C-43.7,65.8-116,12-139,16.8s-33.3,48.5-33.3,48.5c4,15.2,49,32.2,68.8,26.5c7.7-2.3,13.5-3.7,16.9,2.9c1.8,3.5,0,8.1-18.2,15
			c-15.5,5.9-39.4-4.5-43.4-10.7c-3.4-5.4-12.9,2.5-3.8,10.1c6,5,20.4,13.9,43.8,20.4c-2.2,3.3-5.1,8.3-5.8,10.2
			c-1,2.8-4.1,8.9-5.9,14.5c-1.7,5.6-5.5,12.6-6.4,21.4c-0.9,8.8,6.9,18.9,14.9,21.5s12.6,3.3,19.9,5.6c4.1,3.9,8.9,7.3,12.7,11.7
			c-5.1,0.9-11.6,2-15,6.2c1.6,1.7,3.4,2.8,5.6,3.1c3.5,0.5,5.6,0.8,9.4,1.3c2.6,0.3,6.9-0.3,10.7-0.6c2.8-0.2,4.9-2.6,5-5.4
			c0.1-5.1-0.4-9.7,0.1-15.3c25.1-1.8,37.8-29.4,53.9-50C-19.2,152.9-32.4,171.5-42.4,170.5z"/>
		<path class="st15" d="M-90.3,222.4c0,0,0.6-4.1-1-4s-4.6,1.9-5.2,3.1C-97,222.7-90.3,222.4-90.3,222.4z"/>
		<path class="st15" d="M-83.1,223.8c0,0,0.6-3.5-1.8-3.5s-5.5,1.2-6.1,3S-83.1,223.8-83.1,223.8z"/>
		<path class="st31" d="M-91.5,202.8c0,0,28.4-0.8,28.4,0.5c0,1.1-0.2,10.9,0,13.4s-4.8-4.2-13.9-7.3S-91.5,202.8-91.5,202.8z"/>
		<g>
			<g>
				<path class="st34" d="M-138.5,61.1c-3.2,6.1-7.8,10.1-10.2,8.8c-2.5-1.3-1.9-7.3,1.3-13.4c3.2-6.1,7.8-10.1,10.2-8.8
					C-134.8,49-135.3,55-138.5,61.1z"/>
				<path class="st27" d="M-137.6,61.8c-3.2,6.1-7.8,10.1-10.2,8.8c-2.5-1.3-1.9-7.3,1.3-13.4c3.2-6.1,7.8-10.1,10.2-8.8
					C-133.8,49.6-134.4,55.6-137.6,61.8z"/>
			</g>
			<g>
				<path class="st34" d="M-154.3,48.2c-2.5,4.7-6,7.8-7.9,6.8s-1.5-5.7,1-10.4s6-7.8,7.9-6.8C-151.3,38.8-151.8,43.5-154.3,48.2z"
					/>
				<path class="st27" d="M-153.5,48.7c-2.5,4.7-6,7.8-7.9,6.8s-1.5-5.7,1-10.4s6-7.8,7.9-6.8C-150.6,39.3-151,43.9-153.5,48.7z"/>
			</g>
		</g>
		<g>
			<g>
				<path class="st32" d="M-72.5,74.7c0,0,2.2,2.9,3,6.1s1.4,8,1.4,8l0.7-1.8c0,0,0.3,0.6,1.2,1.4c0.8,0.6,3.2,1.4,3.2,1.4
					s-0.7-3.4-1.6-7.3c-1.2-5.4-4.6-7.8-4.6-7.8l0.1,1.1C-69,75.9-71.2,74.8-72.5,74.7z"/>
				<path class="st30" d="M-68.1,76.2c0,0,1.7,1.5,2.8,4.6c1.1,3.1,1.6,6.9,1.6,6.9l-1.3-2.5l0.8,3.1c0,0-1.2-1.6-2.1-4.7
					c-0.9-3.2-3-7-3-7l1.5,0.7L-68.1,76.2z"/>
			</g>
			<path class="st36" d="M-78.3,81.7c0,0,7.6-0.9,5.3,6"/>
		</g>
		<g>
			<path class="st37" d="M-109.6,149.1c-4.2-0.3-22.5,2.5-22.2,6.7c0.2,2.9,23.2-4.4,23.2-4.4S-105.4,149.4-109.6,149.1z"/>
			<path class="st37" d="M-130.2,151.3c0,0-7.9-5.2-7.8-2.9c0.1,2.2,3.7,4.8,3.7,4.8s-8.8-1-9.4,0.5s8.8,1.6,8.3,1.8
				c-0.4,0.2-8.6,2-8,3.1s8.1-1.2,8.4-0.8c0.2,0.4-7,3.4-6.3,4.2s7.1-2.1,7.9-2.2c0.8-0.1-4,3.7-3.2,4.6c0.7,0.8,4.7-2.8,5.4-3.7
				s4.6-1.9,5.7-3.6c1.1-1.7-0.5-4.6-1.6-5.1S-130.2,151.3-130.2,151.3z"/>
		</g>
		<path class="st32" d="M-61.5,56.1c0,0-12.3-10.5-33-19.6c-19.7-8.7-33.4-12-33.4-12s0.1-19.7,18.7-24.1c9.1-2.1,24.5,3.8,22,4.8
			c-10.7,4.3-11.4,22.4-2.1,15c8-6.4,20.9,1.1,20.9,1.1s-13.1,8.2-8.6,9.1c5.4,1.1,18.6-2.5,15,1.6c-4.3,4.8-9.6,8.6-9.6,8.6
			s24.1-4.8,19.8,1.1S-61.5,56.1-61.5,56.1z"/>
	</g>
	<g>
		<g>
			<path class="st26" d="M-297.4,152.8c0,0-21.9-3.7-22.9,0.4c-0.7,2.9,23.4,2.8,23.4,2.8L-297.4,152.8z"/>
			<path class="st26" d="M-317.4,149.4c0,0-5.9-7.3-6.6-5.1s2.1,5.7,2.1,5.7s-8.1-3.6-9.1-2.4s7.9,4.1,7.4,4.2s-8.8-0.6-8.5,0.6
				c0.2,1.2,8.1,1.3,8.2,1.8s-7.7,1.2-7.2,2.1c0.4,0.9,7.4,0.1,8.2,0.2c0.8,0.1-4.9,2.4-4.5,3.4c0.4,0.9,5.4-1.3,6.3-1.9
				c0.9-0.7,5-0.4,6.5-1.7s0.9-4.5,0-5.3C-315.5,150.1-317.4,149.4-317.4,149.4z"/>
		</g>
		<path class="st27" d="M-338,98.4c4.9,0,12.8,0.5,16.6-1.6c7.7-4.4-14.5-13.5-27.3-23.3s29.1-16.4,37.6-12.1s37.7,28.6,38.3,36.5
			c0.6,7.9-20.7,27.9-20.7,27.9l-14.6-3C-308,122.7-347.5,98.4-338,98.4z"/>
		
			<linearGradient id="SVGID_45_" gradientUnits="userSpaceOnUse" x1="-347.0863" y1="221.7074" x2="-298.8686" y2="173.4897" gradientTransform="matrix(1 0 0 -1 0 276.8017)">
			<stop  offset="0" style="stop-color:#FFC76D"/>
			<stop  offset="1" style="stop-color:#E8E3E0"/>
		</linearGradient>
		<path class="st66" d="M-359,67c0,0-1.5,4.1,0.6,4.6s4.3-1.1,4.3-1.1s-1.1,8.6,1.6,7.5s4.8-2.6,4.8-2.6s-1,5.9,1.6,6.4
			c2.7,0.5,5.4-2.8,5.4-2.8s0,7.1,2.6,7.1s5.7-3.2,5.7-3.2s-2.5,5.3,1.8,5.9c4.3,0.5,5.4-1.6,5.4-1.6s0.5,4.4,3.2,4.8
			c3.7,0.5,5.1-1.9,5.1-1.9s3,4,4,3.5c1.1-0.5,5.9-2.7,5.9-2.7s-0.5,3.7,2.1,3.7s7-3.7,7-3.7s0,3.7,2.1,3.2s3.7-3.7,3.7-3.7
			s1.1,2.7,3.2,2.1c2.1-0.5,4.3-4.3,4.3-4.3L-359,67z"/>
		
			<linearGradient id="SVGID_46_" gradientUnits="userSpaceOnUse" x1="-371.5907" y1="59.5625" x2="-312.306" y2="53.3871" gradientTransform="matrix(0.9996 2.982325e-02 2.982325e-02 -0.9996 29.1597 174.9547)">
			<stop  offset="0" style="stop-color:#FFC76D"/>
			<stop  offset="1" style="stop-color:#E8E3E0"/>
		</linearGradient>
		<path class="st67" d="M-281.3,111.2c0,0-3.2-7.5-6.4-5.4c-2.9,1.9-1.6,4.3-1.6,4.3s-1.6-3.7-3.7-2.1s-2.1,4.3-2.1,4.3
			s-1-5.3-3.7-3.2c-2.7,2.1-2.8,5.1-2.8,5.1s0.2-5.6-2.5-4.6s-2.2,2.8-2.2,2.8s-0.4-4.4-3.1-3.4s-3.3,2.1-3.3,2.1s-0.9-5.2-3.1-3.2
			c-2.2,2.1-2.7,2.5-2.7,2.5s0.6-5.1-2.1-4.6s-3.7,1.7-3.7,1.7s1.6-3.8-1.6-3.9s-3,1.9-3,1.9s0.4-6.1-2.3-4.1c-2.7,2.1-3,2.3-3,2.3
			s4.3-8.3,0.9-8.2c-3.4,0.1-3.8,5.4-3.8,5.4s1.6-7.5-0.5-7s-1.2,5.4-1.2,5.4s10.9,10.6,11.9,11.2s41.4,12,41.4,12L-281.3,111.2z"/>
		<g>
			<path class="st30" d="M-300,191.3c0,0,6.7,16.7,7.4,20.4c0.6,3.6-9.3,5.4-10.2,8c-0.9,2.6,6.4,1.1,6.4,1.1s2.5,2.4,4.8,1.8
				c1.5-0.4,8.3-1,12.9-1.3c2.3-0.2,4-2.3,3.7-4.6l-2.8-20.2C-277.9,196.4-298.7,181.9-300,191.3z"/>
			<path class="st31" d="M-275.7,211.8c0,0-9.1-7.5-14.6-9.3s-3.9,4.2-3.9,4.2L-300,191c0,0,19.7,3,20.2,3.6s3.1,5.1,3.1,5.1
				L-275.7,211.8z"/>
			<path class="st15" d="M-298,221.1c0,0,0.6-4.1-1-4s-4.6,1.9-5.2,3.1C-304.8,221.4-298,221.1-298,221.1z"/>
			<path class="st15" d="M-290.8,222.4c0,0,0.6-3.5-1.9-3.5c-2.4,0-5.5,1.2-6.1,3S-290.8,222.4-290.8,222.4z"/>
		</g>
		<path class="st32" d="M-248.6,169.6c0,0,9.1-22.2,6.4-23.6c-2.7-1.3-10.9-7.2-9.6-10.2c1.2-3,23.5-11.5,20.9-12.8
			c-2.7-1.3-9.6-16.6-9.6-16.6s23.3-5.9,21.6-7.1s-11.5-10.2-11.5-10.2l13.4-12.9l-13.3-6.1c0,0-4.4-13,0.9-16.8
			c5.4-3.7-24.6,1.1-24.6,1.1l-28.4,98"/>
		<path class="st32" d="M-250.8,167.4l17.1-13.3l8.6,12.3l2.9-11.6l13.7,2l4.6-9.9l6.7,6.7c0,0-20,20-26.7,25.5s-27.3,3-27.3,3
			L-250.8,167.4z"/>
		
			<linearGradient id="SVGID_47_" gradientUnits="userSpaceOnUse" x1="-360.5406" y1="155.9633" x2="-197.3406" y2="155.9633" gradientTransform="matrix(1 0 0 -1 0 276.8017)">
			<stop  offset="0" style="stop-color:#6BC62A"/>
			<stop  offset="1" style="stop-color:#00B53E"/>
		</linearGradient>
		<path class="st68" d="M-230.6,170.5c-31.9-3.1-29.2-27.7-20.1-43.2c0.1-0.1,0.1-0.2,0-0.3c12.8-13.2,26.4-39.3,23.1-48.9
			c-4.3-12.3-76.6-66.1-99.6-61.3s-33.3,48.5-33.3,48.5c4,15.2,49,32.2,68.8,26.5c7.7-2.3,13.5-3.7,16.9,2.9c1.8,3.5,0,8.1-18.2,15
			c-15.5,5.9-39.4-4.5-43.4-10.7c-3.4-5.4-12.9,2.5-3.8,10.1c6,5,20.4,13.9,43.8,20.4c-2.2,3.3-5.1,8.3-5.8,10.2
			c-1,2.8-4.1,8.9-5.9,14.5c-1.7,5.6-5.5,12.6-6.4,21.4c-0.9,8.8,6.9,18.9,14.9,21.5s12.6,3.3,19.9,5.6c4.1,3.9,8.9,7.3,12.7,11.7
			c-5.1,0.9-11.6,2-15,6.2c1.6,1.7,3.4,2.8,5.6,3.1c3.5,0.5,5.6,0.8,9.4,1.3c2.6,0.3,6.9-0.3,10.7-0.6c2.8-0.2,4.9-2.6,5-5.4
			c0.1-5.1-0.4-9.7,0.1-15.3c25.1-1.8,37.8-29.4,53.9-50C-207.4,152.9-220.6,171.5-230.6,170.5z"/>
		<g>
			<path class="st2" d="M-330,139.4c0,0-13.3-8.3-4.1-22.6C-334,116.7-322.5,123.6-330,139.4z"/>
			<path class="st2" d="M-332,141.4c0,0-5.8,14.9-21.5,8.3C-353.6,149.7-348.9,136.7-332,141.4z"/>
			<path class="st2" d="M-338.6,135.7c0,0-15.6,3.7-19.1-13C-357.7,122.7-344.4,119.2-338.6,135.7z"/>
			<g>
				<path class="st2" d="M-340.7,135c0-0.1,7.6,1.7,10.7,4.4s6.3,6.1,7.8,8.5s2.1,5,2.2,6.8s-0.2,3-0.3,2.9c-0.1,0-0.1-1.1-0.4-2.9
					c-0.3-1.7-3.9-4.5-5.3-6.7C-327.3,145.7-340.7,135.1-340.7,135z"/>
			</g>
		</g>
		<path class="st15" d="M-278.5,222.4c0,0,0.6-4.1-1-4s-4.6,1.9-5.2,3.1C-285.2,222.7-278.5,222.4-278.5,222.4z"/>
		<path class="st15" d="M-271.3,223.8c0,0,0.6-3.5-1.8-3.5s-5.5,1.2-6.1,3S-271.3,223.8-271.3,223.8z"/>
		<path class="st31" d="M-279.7,202.8c0,0,28.4-0.8,28.4,0.5c0,1.1-0.2,10.9,0,13.4s-4.8-4.2-13.9-7.3S-279.7,202.8-279.7,202.8z"/>
		<g>
			<g>
				<path class="st34" d="M-326.7,61.1c-3.2,6.1-7.8,10.1-10.2,8.8c-2.5-1.3-1.9-7.3,1.3-13.4c3.2-6.1,7.8-10.1,10.2-8.8
					C-323,49-323.5,55-326.7,61.1z"/>
				<path class="st27" d="M-325.8,61.8c-3.2,6.1-7.8,10.1-10.2,8.8c-2.5-1.3-1.9-7.3,1.3-13.4c3.2-6.1,7.8-10.1,10.2-8.8
					C-322,49.6-322.6,55.6-325.8,61.8z"/>
			</g>
			<g>
				<path class="st34" d="M-342.5,48.2c-2.5,4.7-6,7.8-7.9,6.8s-1.5-5.7,1-10.4s6-7.8,7.9-6.8C-339.5,38.8-340,43.5-342.5,48.2z"/>
				<path class="st27" d="M-341.7,48.7c-2.5,4.7-6,7.8-7.9,6.8s-1.5-5.7,1-10.4s6-7.8,7.9-6.8C-338.8,39.3-339.2,43.9-341.7,48.7z"
					/>
			</g>
			<g>
				<path class="st35" d="M-328.2,42c0,0,4.8-2.5,8.6-0.4c7.2,4,2.9,14.8,2.9,14.8s2.3-6.3-4.9-12.2C-325.2,41.4-328.2,42-328.2,42z
					"/>
				<path class="st32" d="M-328.2,42c0,0,5.4,0.7,9.3,5.9s1.2,11,1.2,11s3.4-6-0.1-11.4C-321.2,42-328.2,42-328.2,42z"/>
				<path class="st25" d="M-326.2,43.7c0,0,5.8,3.5,6.8,8.9s-1.9,9.4-1.9,9.4s4-3.6,3.5-9.5C-318.5,46.3-326.2,43.7-326.2,43.7z"/>
			</g>
			<g>
				<path class="st35" d="M-341.7,34.5c0,0,2.8-1.5,5.1-0.2c4.3,2.4,1.7,8.8,1.7,8.8s1.3-3.7-2.9-7.2
					C-339.9,34.1-341.7,34.5-341.7,34.5z"/>
				<path class="st32" d="M-341.7,34.5c0,0,3.2,0.4,5.5,3.5c2.3,3.1,0.7,6.5,0.7,6.5s2-3.6-0.1-6.8
					C-337.6,34.5-341.7,34.5-341.7,34.5z"/>
				<path class="st25" d="M-340.5,35.5c0,0,3.4,2,4,5.2s-1.2,5.6-1.2,5.6s2.4-2.2,2.1-5.6C-335.9,37.1-340.5,35.5-340.5,35.5z"/>
			</g>
		</g>
		<g>
			<g>
				<path class="st32" d="M-260.7,74.7c0,0,2.2,2.9,3,6.1s1.4,8,1.4,8l0.7-1.8c0,0,0.3,0.6,1.2,1.4c0.8,0.6,3.2,1.4,3.2,1.4
					s-0.7-3.4-1.6-7.3c-1.2-5.4-4.6-7.8-4.6-7.8l0.1,1.1C-257.2,75.9-259.4,74.8-260.7,74.7z"/>
				<path class="st30" d="M-256.3,76.2c0,0,1.7,1.5,2.8,4.6c1.1,3.1,1.6,6.9,1.6,6.9l-1.3-2.5l0.8,3.1c0,0-1.2-1.6-2.1-4.7
					c-0.9-3.2-3-7-3-7l1.5,0.7L-256.3,76.2z"/>
			</g>
			<path class="st36" d="M-266.5,81.7c0,0,7.6-0.9,5.3,6"/>
		</g>
		<g>
			<path class="st37" d="M-297.8,149.1c-4.2-0.3-22.5,2.5-22.2,6.7c0.2,2.9,23.2-4.4,23.2-4.4S-293.6,149.4-297.8,149.1z"/>
			<path class="st37" d="M-318.4,151.3c0,0-7.9-5.2-7.8-2.9c0.1,2.2,3.7,4.8,3.7,4.8s-8.8-1-9.4,0.5s8.8,1.6,8.3,1.8
				c-0.4,0.2-8.6,2-8,3.1s8.1-1.2,8.4-0.8c0.2,0.4-7,3.4-6.3,4.2s7.1-2.1,7.9-2.2c0.8-0.1-4,3.7-3.2,4.6c0.7,0.8,4.7-2.8,5.4-3.7
				s4.6-1.9,5.7-3.6c1.1-1.7-0.5-4.6-1.6-5.1S-318.4,151.3-318.4,151.3z"/>
		</g>
		<path class="st32" d="M-249.7,56.1c0,0-12.3-10.5-33-19.6c-19.7-8.7-33.4-12-33.4-12s0.1-19.7,18.7-24.1c9.1-2.1,24.5,3.8,22,4.8
			c-10.7,4.3-11.4,22.4-2.1,15c8-6.4,20.9,1.1,20.9,1.1s-13.1,8.2-8.6,9.1c5.4,1.1,18.6-2.5,15,1.6c-4.3,4.8-9.6,8.6-9.6,8.6
			s24.1-4.8,19.8,1.1S-249.7,56.1-249.7,56.1z"/>
	</g>
	<g>
		<path class="st35" d="M13.5,8.2c0,0,4.8-2.5,8.6-0.4c7.2,4,2.9,14.8,2.9,14.8s2.3-6.3-4.9-12.2C16.5,7.6,13.5,8.2,13.5,8.2z"/>
		<path class="st32" d="M13.5,8.2c0,0,5.4,0.7,9.3,5.9s1.2,11,1.2,11s3.4-6-0.1-11.4C20.5,8.2,13.5,8.2,13.5,8.2z"/>
		<path class="st25" d="M15.5,9.9c0,0,5.8,3.5,6.8,8.9s-1.9,9.4-1.9,9.4s4-3.6,3.5-9.5C23.2,12.5,15.5,9.9,15.5,9.9z"/>
	</g>
	<g>
		<path class="st35" d="M0,0.7c0,0,2.8-1.5,5.1-0.2c4.3,2.4,1.7,8.8,1.7,8.8s1.3-3.7-2.9-7.2C1.8,0.3,0,0.7,0,0.7z"/>
		<path class="st32" d="M0,0.7c0,0,3.2,0.4,5.5,3.5s0.7,6.5,0.7,6.5s2-3.6-0.1-6.8C4.1,0.7,0,0.7,0,0.7z"/>
		<path class="st25" d="M1.2,1.7c0,0,3.4,2,4,5.2S4,12.5,4,12.5s2.4-2.2,2.1-5.6C5.8,3.3,1.2,1.7,1.2,1.7z"/>
	</g>
	<g>
		<path class="st2" d="M27.8,56.7c0,0-13.3-8.3-4.1-22.6C23.8,34,35.3,40.9,27.8,56.7z"/>
		<path class="st2" d="M25.8,58.7c0,0-5.8,14.9-21.5,8.3C4.2,67,8.9,54,25.8,58.7z"/>
		<path class="st2" d="M19.2,53c0,0-15.6,3.7-19.1-13C0.1,40,13.4,36.5,19.2,53z"/>
		<g>
			<path class="st2" d="M17.1,52.3c0-0.1,7.6,1.7,10.7,4.4s6.3,6.1,7.8,8.5c1.5,2.4,2.1,5,2.2,6.8s-0.2,3-0.3,2.9
				c-0.1,0-0.1-1.1-0.4-2.9c-0.3-1.7-3.9-4.5-5.3-6.7C30.5,63,17.1,52.4,17.1,52.3z"/>
		</g>
	</g>
</g>
</svg>
