<?xml version="1.0" encoding="utf-8"?>
<!-- Generator: Adobe Illustrator 23.0.1, SVG Export Plug-In . SVG Version: 6.00 Build 0)  -->
<svg version="1.1" xmlns="http://www.w3.org/2000/svg" xmlns:xlink="http://www.w3.org/1999/xlink" x="0px" y="0px" width="163.3px"
	 height="225.1px" viewBox="0 0 163.3 225.1" style="enable-background:new 0 0 163.3 225.1;" xml:space="preserve">
<style type="text/css">
	.st0{fill:#FFFFFF;}
	.st1{clip-path:url(#SVGID_2_);}
	.st2{fill:#6BC62A;}
	.st3{clip-path:url(#SVGID_4_);}
	.st4{fill:none;stroke:#7A6356;stroke-width:3;stroke-linecap:round;stroke-linejoin:round;stroke-miterlimit:10;}
	.st5{fill:#7A6356;}
	.st6{fill:#FFFFFF;stroke:#7A6356;stroke-width:3;stroke-linecap:round;stroke-linejoin:round;stroke-miterlimit:10;}
	.st7{fill:#009380;}
	.st8{fill:url(#SVGID_5_);}
	.st9{fill:url(#SVGID_6_);}
	.st10{fill:#A60C17;}
	.st11{fill:url(#SVGID_7_);}
	.st12{fill:#E02229;}
	.st13{opacity:0.88;fill:#D50000;enable-background:new    ;}
	.st14{fill:url(#SVGID_8_);}
	.st15{fill:#491B02;}
	.st16{fill:url(#SVGID_9_);}
	.st17{fill:url(#SVGID_10_);}
	.st18{fill:url(#SVGID_11_);}
	.st19{fill:#680200;}
	.st20{fill:#A30B05;}
	.st21{fill:#FF5B56;}
	.st22{fill:#A40000;}
	.st23{opacity:0.5;fill:#D50000;enable-background:new    ;}
	.st24{fill:#6A1100;}
	.st25{opacity:0.43;fill:#FFFFFF;enable-background:new    ;}
	.st26{fill:#006325;}
	.st27{fill:#004B25;}
	.st28{fill:url(#SVGID_12_);}
	.st29{fill:url(#SVGID_13_);}
	.st30{fill:#00923D;}
	.st31{opacity:0.4;fill:#006830;enable-background:new    ;}
	.st32{fill:#006830;}
	.st33{fill:url(#SVGID_14_);}
	.st34{fill:#D6E000;}
	.st35{opacity:0.5;fill:#00923D;enable-background:new    ;}
	.st36{fill:none;stroke:#000000;stroke-width:2;stroke-linecap:round;stroke-linejoin:round;stroke-miterlimit:10;}
	.st37{fill:#00962B;}
	.st38{fill:url(#SVGID_15_);}
	.st39{fill:url(#SVGID_16_);}
	.st40{fill:url(#SVGID_17_);}
	.st41{fill:url(#SVGID_18_);}
	.st42{fill:url(#SVGID_19_);}
	.st43{fill:url(#SVGID_20_);}
	.st44{fill:url(#SVGID_21_);}
	.st45{clip-path:url(#SVGID_23_);}
	.st46{fill:url(#SVGID_24_);}
	.st47{fill:url(#SVGID_25_);}
	.st48{fill:url(#SVGID_26_);}
	.st49{clip-path:url(#SVGID_28_);}
	.st50{fill:url(#SVGID_29_);}
	.st51{fill:url(#SVGID_30_);}
	.st52{fill:url(#SVGID_31_);}
	.st53{fill:url(#SVGID_32_);}
	.st54{fill:url(#SVGID_33_);}
	.st55{fill:url(#SVGID_34_);}
	.st56{fill:url(#SVGID_35_);}
	.st57{fill:url(#SVGID_36_);}
	.st58{fill:url(#SVGID_37_);}
	.st59{fill:url(#SVGID_38_);}
	.st60{fill:url(#SVGID_39_);}
	.st61{fill:url(#SVGID_40_);}
	.st62{fill:url(#SVGID_41_);}
	.st63{fill:url(#SVGID_42_);}
	.st64{fill:url(#SVGID_43_);}
	.st65{fill:url(#SVGID_44_);}
	.st66{fill:url(#SVGID_45_);}
	.st67{fill:url(#SVGID_46_);}
	.st68{fill:url(#SVGID_47_);}
</style>
<g id="Layer_2">
	<rect x="-1661.5" y="-441.9" class="st0" width="1146.2" height="404.9"/>
</g>
<g id="green">
	<g>
		<defs>
			<rect id="SVGID_1_" x="-999.8" y="-232.6" width="49.7" height="58"/>
		</defs>
		<clipPath id="SVGID_2_">
			<use xlink:href="#SVGID_1_"  style="overflow:visible;"/>
		</clipPath>
		<g class="st1">
			<path class="st2" d="M-968.5-190.8c0,0-4-20.3,18.1-24.4C-950.4-215.2-946.5-197.9-968.5-190.8z"/>
			<path class="st2" d="M-971.7-190.6c0,0-20.3,7.5-28.1-13.7C-999.8-204.2-982.4-211-971.7-190.6z"/>
			<path class="st2" d="M-972.8-202.5c0,0-17.7-11.7-4.8-30.1C-977.6-232.6-962.1-223-972.8-202.5z"/>
			<g>
				<path class="st2" d="M-974-205.1c0,0,0.4-2.1,1.3-0.4c1.6,3.1,4.1,11.2,4.2,14.7c0.2,5.4-0.1,11.6-1.1,15.2
					c-1,3.6-2.8,6.5-4.5,8.3c-1.6,1.8-3,2.5-3.1,2.4c-0.1-0.1,1-1.1,2.4-2.9c1.4-1.8-0.5,1.2,1.7-11.2
					C-971.2-189.5-974.1-205.1-974-205.1z"/>
			</g>
		</g>
	</g>
	<g>
		<defs>
			<rect id="SVGID_3_" x="-418.5" y="0" width="49.7" height="58"/>
		</defs>
		<clipPath id="SVGID_4_">
			<use xlink:href="#SVGID_3_"  style="overflow:visible;"/>
		</clipPath>
		<g class="st3">
			<path class="st2" d="M-387.2,41.8c0,0-4-20.3,18.1-24.4C-369,17.4-365.2,34.7-387.2,41.8z"/>
			<path class="st2" d="M-390.4,42c0,0-20.3,7.5-28.1-13.7C-418.5,28.4-401.1,21.6-390.4,42z"/>
			<path class="st2" d="M-391.5,30.1c0,0-17.7-11.7-4.8-30.1C-396.3,0-380.8,9.7-391.5,30.1z"/>
			<g>
				<path class="st2" d="M-392.7,27.5c0,0,0.4-2.1,1.3-0.4c1.6,3.1,4.1,11.2,4.2,14.7c0.2,5.4-0.1,11.6-1.1,15.2
					c-1,3.6-2.8,6.5-4.5,8.3c-1.6,1.8-3,2.5-3.1,2.4c-0.1-0.1,1-1.1,2.4-2.9c1.4-1.8-0.5,1.2,1.7-11.2
					C-389.9,43.1-392.8,27.5-392.7,27.5z"/>
			</g>
		</g>
	</g>
</g>
<g id="fire">
</g>
<g id="Layer_1">
	<line class="st4" x1="-1188.8" y1="-283" x2="-971.2" y2="-283"/>
	<circle class="st5" cx="-1080" cy="-306.3" r="3.8"/>
	<path class="st5" d="M-1072.7-326.7c-3.4-4.1-5.8-11.8-6.9-15.2c-0.1-0.5-0.8-0.5-1,0c-0.8,3-2.9,9.3-6.9,14.7
		c-3.7,5,0.4,12.3,7.3,12.3c0,0,0,0,0.1,0c0,0,0,0,0.1,0C-1073.1-314.9-1068.8-321.9-1072.7-326.7z M-1079.3-317.9
		c-3.4,0.6-6.2-2.3-5.7-5.7c0.3-2,2-3.7,4-4c3.4-0.6,6.2,2.3,5.7,5.7C-1075.6-319.9-1077.2-318.2-1079.3-317.9z"/>
	<line class="st4" x1="-1080" y1="-283" x2="-1080" y2="-316.1"/>
	<circle class="st6" cx="-1080" cy="-283.5" r="12"/>
	<g>
		<path class="st7" d="M-1019.1-173.1c9.5,17.3,27,28.8,47,28.8c20,0,37.5-11.6,47-28.8H-1019.1z"/>
		<polygon class="st4" points="-972.1,-281.3 -1019.4,-173.1 -924.8,-173.1 		"/>
		<circle class="st2" cx="-972.1" cy="-281.9" r="6.5"/>
	</g>
	<g>
		<linearGradient id="SVGID_5_" gradientUnits="userSpaceOnUse" x1="-1234.8926" y1="-158.6608" x2="-1140.9584" y2="-158.6608">
			<stop  offset="0" style="stop-color:#FF3A2D"/>
			<stop  offset="1" style="stop-color:#D50000"/>
		</linearGradient>
		<path class="st8" d="M-1234.9-173.1c9.5,17.3,27,28.8,47,28.8c20,0,37.5-11.6,47-28.8H-1234.9z"/>
		<polygon class="st4" points="-1187.9,-281.3 -1235.2,-173.1 -1140.6,-173.1 		"/>
		<linearGradient id="SVGID_6_" gradientUnits="userSpaceOnUse" x1="-1194.453" y1="-281.8669" x2="-1181.3981" y2="-281.8669">
			<stop  offset="0" style="stop-color:#FF3A2D"/>
			<stop  offset="1" style="stop-color:#D50000"/>
		</linearGradient>
		<circle class="st9" cx="-1187.9" cy="-281.9" r="6.5"/>
	</g>
	<g>
		<path class="st10" d="M-1372.3-234.9c0,0-0.2-1.8-9.7-1.8c-4.9,0-10.3-1.8-10.9-6.7c-1.1-8.8,9.7-19.4,22.5-29.1
			c12.8-9.7-29.1-16.4-37.6-12.1c-8.5,4.2-27.9,36.4-28.5,44.3c-0.6,7.9,10.9,20,10.9,20l14.6-3L-1372.3-234.9z"/>
		<path class="st10" d="M-1477.3-183.9c-0.7-1.8-0.8-18.3,1.2-17.6s13,0.3,13,0.3s-15-17.2-12.4-18.5c2.7-1.3,23.9-1.3,22.7-4.4
			c-1.2-3-22.4-8.8-19.8-10.1c2.6-1.3,9.7-14.2,9.7-14.2s-18.6-1.4-16.9-2.6c1.7-1.2,11.5-10.2,11.5-10.2l-13.4-12.9l13.3-6.1
			c0,0-7-15-5.2-15.2l26.7,2.2l6.7,99L-1477.3-183.9"/>
		<path class="st10" d="M-1477.3-183.9l-10.3-9.1l-8.6,16l-2.9-15.4l-14.2,3.1l-4-11l-6.7,6.7c0,0,20,20,26.7,25.5
			c6.7,5.5,27.3,3,27.3,3L-1477.3-183.9z"/>
		
			<linearGradient id="SVGID_7_" gradientUnits="userSpaceOnUse" x1="-1384.6339" y1="762.8533" x2="-1298.5535" y2="762.8533" gradientTransform="matrix(0.9906 -0.1366 -0.1366 -0.9906 50.6721 306.2797)">
			<stop  offset="0" style="stop-color:#E6E6E6"/>
			<stop  offset="1" style="stop-color:#FF9300"/>
		</linearGradient>
		<path class="st11" d="M-1413.4-246.6l6.1,2.8l-1.1-8.2l7.5,3.8l-1-7.9c0,0,6.2,2.3,7.2,1.8s2.9-7.1,2.9-7.1l4.4,2.2l1.7-5.4l5,4.7
			l2.4-5.5l4.3,0.9l1-6.2l8.7,3.6l2.2-7.2l6.1,4.4l0.1-9.2c0,0,8.2,7.2,8,6c-0.1-1.2-0.9-8.7-0.9-8.7s8.5,5.5,8.2,4.8
			c-0.3-0.7-3-12.1-3-12.1l-8.9-0.2l-71.5,37.6L-1413.4-246.6z"/>
		<path class="st12" d="M-1412.9-158.6c0,0-6.7,16.7-7.3,20.4c-0.6,3.6,9.3,5.3,10.2,7.9c0.9,2.6-6.4,1.2-6.4,1.2s-2.5,2.4-4.8,1.8
			c-1.5-0.4-8.3-0.9-12.9-1.3c-2.3-0.2-4-2.3-3.7-4.6l2.8-20.3C-1435-153.4-1414.3-168-1412.9-158.6z"/>
		<path class="st13" d="M-1437.2-138c0,0,9.1-7.5,14.6-9.3s3.9,4.2,3.9,4.2l5.8-15.7c0,0-19.7,3.1-20.2,3.7s-3.1,5.1-3.1,5.1
			L-1437.2-138z"/>
		<g>
			
				<linearGradient id="SVGID_8_" gradientUnits="userSpaceOnUse" x1="-1491.735" y1="729.8861" x2="-1298.2874" y2="729.8861" gradientTransform="matrix(0.9906 -0.1366 -0.1366 -0.9906 50.6721 306.2797)">
				<stop  offset="0" style="stop-color:#FF3A2D"/>
				<stop  offset="1" style="stop-color:#D50000"/>
			</linearGradient>
			<path class="st14" d="M-1413.9-195.9c1.7,5.6,5.9,17.6,6.8,26.4c0.9,8.8-6.6,16.7-14.7,19.3s-12.6,3.3-19.9,5.6
				c-4.1,3.9-8.9,7.3-12.7,11.7c5.1,0.9,11.6,2,15,6.2c-1.6,1.7-3.4,2.8-5.6,3.1c-3.5,0.5-5.6,0.8-9.4,1.3
				c-2.6,0.3-6.9-0.3-10.7-0.6c-2.8-0.2-4.9-2.6-5-5.4c-0.1-5.1,0.4-9.7-0.1-15.3c-25.1-1.8-37.8-29.4-53.9-50
				c10.2-0.6,23.3,17.4,33.4,17c10.1-0.4,31.8-29,35.4-39.2s-8.8-26.3-13.5-40.4c-4.7-14.2-7.7-24.6,10-38.1
				c17.7-13.5,65.5-48,82.3-36.3c16.8,11.8,41.6,33.9,31.9,45.2c-9.6,11.3-72.3,27.4-74.2,47.4s4.4,12.1,12.5,9.4
				c7.4-2.4,29.2-11.4,34-6.5c4.8,4.9-12.7,8.4-27.8,11.8c-14.3,3.2-19.3,10.1-20.9,10.3s3.9,6.8,4.8,9.6
				C-1415.1-200.7-1415.6-201.4-1413.9-195.9z"/>
		</g>
		<path class="st15" d="M-1414.8-128.8c0,0-0.6-4.1,1-4s4.6,1.9,5.2,3.1C-1408.1-128.5-1414.8-128.8-1414.8-128.8z"/>
		<path class="st15" d="M-1422.1-127.4c0,0-0.6-3.5,1.8-3.5s5.5,1.2,6.1,3C-1413.6-126.1-1422.1-127.4-1422.1-127.4z"/>
		<path class="st15" d="M-1442.8-124.7c0,0-0.6-4.1,1-4s4.6,1.9,5.2,3.1C-1436-124.4-1442.8-124.7-1442.8-124.7z"/>
		<path class="st15" d="M-1450-123.3c0,0-0.6-3.5,1.8-3.5s5.5,1.2,6.1,3C-1441.5-122-1450-123.3-1450-123.3z"/>
		<path class="st13" d="M-1441.5-145c0,0-27.3,1.2-28.5,0.6c-1.2-0.6,0.4,10.9,0.2,13.3s4.7-3.6,13.8-6.6S-1441.5-145-1441.5-145z"
			/>
		<g>
			
				<linearGradient id="SVGID_9_" gradientUnits="userSpaceOnUse" x1="-1366.1678" y1="416.4888" x2="-1263.1036" y2="416.4888" gradientTransform="matrix(0.9932 -0.1162 -0.101 -0.8634 17.7666 -49.3025)">
				<stop  offset="0.1522" style="stop-color:#FF3A2D"/>
				<stop  offset="0.1907" style="stop-color:#FF462A"/>
				<stop  offset="0.4015" style="stop-color:#FF811B"/>
				<stop  offset="0.5953" style="stop-color:#FFB00F"/>
				<stop  offset="0.7658" style="stop-color:#FFD207"/>
				<stop  offset="0.9065" style="stop-color:#FFE702"/>
				<stop  offset="1" style="stop-color:#FFEE00"/>
			</linearGradient>
			<path class="st16" d="M-1381.4-251.8c0-0.1,0-0.2,0.1-0.2c1.9-0.9,27.6-13.6,37-15.2c11.3-1.9,21-0.7,26.6-5.5
				c3.9-3.3,4.4-6.3,4.4-7.6c0-0.2,0.3-0.3,0.4-0.1c1.2,1.9,4.1,7.3,1.8,10.5c-2.1,2.9-4.6,5.3-6.1,6.5c-0.2,0.2,0,0.4,0.2,0.3
				c3-1.4,10.5-4.8,14.8-5.6c7.6-1.4,18.1,1.6,22.8,4.2c0.6,0.3,0.4,1.2-0.3,1.3c-3.4,0.3-10.2,1.4-13.7,5.3
				c-4.8,5.3-21.6,27-40.1,23.6C-1351.8-237.6-1381.2-246.3-1381.4-251.8z"/>
			
				<linearGradient id="SVGID_10_" gradientUnits="userSpaceOnUse" x1="-1360.7341" y1="411.5174" x2="-1294.792" y2="411.5174" gradientTransform="matrix(0.9932 -0.1162 -0.101 -0.8634 17.7666 -49.3025)">
				<stop  offset="0.1522" style="stop-color:#FF5A19"/>
				<stop  offset="1" style="stop-color:#FFEE00"/>
			</linearGradient>
			<path class="st17" d="M-1375.8-250.7c0,0,30-12.5,42.3-8.4c12.3,4.1,13.7,10,20.7,8c11.3-3.3-8.6,10.3-20.6,8.6
				C-1345.4-244.3-1375.8-250.7-1375.8-250.7z"/>
			
				<linearGradient id="SVGID_11_" gradientUnits="userSpaceOnUse" x1="-1358.9404" y1="412.293" x2="-1308.4425" y2="412.293" gradientTransform="matrix(0.9932 -0.1162 -0.101 -0.8634 17.7666 -49.3025)">
				<stop  offset="0.1522" style="stop-color:#FFB02A"/>
				<stop  offset="0.9393" style="stop-color:#FFEE00"/>
			</linearGradient>
			<path class="st18" d="M-1374-251c0,0,21.5-5.6,28.8-5.6c7.3-0.1,10.6,2.3,16.2,4.3c1.3,0.5,4.3,1,5.8,1.3c0.3,0,0.3,0.4,0.1,0.5
				c-2.1,1-8.4,3.9-14.4,4.9C-1345-244.3-1374-251-1374-251z"/>
		</g>
		<g>
			<path class="st19" d="M-1419.9-263.4c0,0-3.2-1.9-6.4-2.4c-3.2-0.5-8.1-0.6-8.1-0.6l1.7-0.9c0,0-0.7-0.2-1.5-1.1
				c-0.7-0.7-1.8-3.1-1.8-3.1s3.5,0.4,7.4,0.8c5.5,0.7,8.2,3.8,8.2,3.8h-1.1C-1421.5-266.8-1420.1-264.7-1419.9-263.4z"/>
			<path class="st20" d="M-1421.9-267.6c0,0-1.6-1.5-4.8-2.3c-3.2-0.8-7-0.9-7-0.9l2.7,1l-3.2-0.5c0,0,1.7,1,4.9,1.6
				s7.3,2.3,7.3,2.3l-0.8-1.4L-1421.9-267.6z"/>
		</g>
		<path class="st10" d="M-1420.8-204.6c0,0,0.8,0.3,5.4,0.6s6-7.3,9-8s1.1,5.9,1.6,6.6c0.4,0.7,1.5-4.1,1.5-4.1s0.1,4.3,0.8,3.9
			c0.7-0.4,1-5.4,1-5.4s1.2,8.3,2.1,2.5c1-5.8-3.4-7.7-6.1-8.6c-2.7-0.9-6.9,7.1-9.6,7.8c-2.6,0.6-6.7-2.8-6.7-2.8L-1420.8-204.6z"
			/>
		<g>
			<circle cx="-1426.2" cy="-258.3" r="4.2"/>
			<circle class="st0" cx="-1425.9" cy="-259.1" r="1.5"/>
			<circle class="st0" cx="-1427.5" cy="-256.6" r="0.7"/>
		</g>
		<path class="st10" d="M-1445.9-198.9c0,0,0.8,0.1,5.3-1s3.5-8.8,6.1-10.3s2.8,5.3,3.5,5.9c0.6,0.6,0.2-4.4,0.2-4.4
			s1.4,4.1,1.9,3.5c0.6-0.6-0.7-5.5-0.7-5.5s3.6,7.5,2.8,1.7c-0.8-5.8-5.5-6.3-8.4-6.3c-2.9,0-4.5,8.9-6.8,10.3
			c-2.3,1.4-7.3-0.6-7.3-0.6L-1445.9-198.9z"/>
		<g>
			<path class="st21" d="M-1379.6-292.4c3.2,6.1,7.8,10.1,10.2,8.8c2.5-1.3,1.9-7.3-1.3-13.4c-3.2-6.1-7.8-10.1-10.2-8.8
				C-1383.3-304.5-1382.7-298.5-1379.6-292.4z"/>
			<path class="st22" d="M-1380.5-291.8c3.2,6.1,7.8,10.1,10.2,8.8c2.5-1.3,1.9-7.3-1.3-13.4c-3.2-6.1-7.8-10.1-10.2-8.8
				C-1384.3-303.9-1383.7-297.9-1380.5-291.8z"/>
		</g>
		<g>
			<path class="st21" d="M-1363.8-305.3c2.5,4.7,6,7.8,7.9,6.8s1.5-5.7-1-10.4c-2.5-4.7-6-7.8-7.9-6.8S-1366.3-310.1-1363.8-305.3z"
				/>
			<path class="st22" d="M-1364.6-304.8c2.5,4.7,6,7.8,7.9,6.8s1.5-5.7-1-10.4c-2.5-4.7-6-7.8-7.9-6.8
				C-1367.5-314.2-1367-309.6-1364.6-304.8z"/>
		</g>
		<g>
			<path class="st23" d="M-1378.1-311.5c0,0-4.8-2.5-8.6-0.4c-7.2,4-2.9,14.8-2.9,14.8s-2.3-6.3,4.9-12.2
				C-1381-312.1-1378.1-311.5-1378.1-311.5z"/>
			<path class="st24" d="M-1378.1-311.5c0,0-5.4,0.7-9.3,5.9c-3.9,5.2-1.2,11-1.2,11s-3.4-6,0.1-11.4
				C-1385-311.5-1378.1-311.5-1378.1-311.5z"/>
			<path class="st25" d="M-1380-309.9c0,0-5.8,3.5-6.8,8.9c-1,5.4,1.9,9.4,1.9,9.4s-4-3.6-3.5-9.5
				C-1387.8-307.2-1380-309.9-1380-309.9z"/>
		</g>
		<g>
			<path class="st23" d="M-1364.6-319c0,0-2.8-1.5-5.1-0.2c-4.3,2.4-1.7,8.8-1.7,8.8s-1.3-3.7,2.9-7.2
				C-1366.3-319.4-1364.6-319-1364.6-319z"/>
			<path class="st24" d="M-1364.6-319c0,0-3.2,0.4-5.5,3.5c-2.3,3.1-0.7,6.5-0.7,6.5s-2-3.6,0.1-6.8
				C-1368.7-319-1364.6-319-1364.6-319z"/>
			<path class="st25" d="M-1365.8-318c0,0-3.4,2-4,5.2c-0.6,3.2,1.2,5.6,1.2,5.6s-2.4-2.2-2.1-5.6
				C-1370.3-316.4-1365.8-318-1365.8-318z"/>
		</g>
		<path class="st10" d="M-1458.5-294.4c0,0,11.5-10.3,32.2-19.4c19.7-8.7,29.7-9.1,29.7-9.1s-4.9-12.7,6.7-17.6
			c11.6-4.9-11.5-12.1-22.5,0c-6.9,7.7-10.3-6.7-10.3-6.7l-9.1,21.9l-12.1-3.6l-3.6,18.8l-13.4,1.2L-1458.5-294.4z"/>
	</g>
	<g>
		<g>
			<path class="st26" d="M-766.2-194.3c0,0-21.9-3.7-22.9,0.4c-0.7,2.9,23.4,2.8,23.4,2.8L-766.2-194.3z"/>
			<path class="st26" d="M-786.2-197.7c0,0-5.9-7.3-6.6-5.1s2.1,5.7,2.1,5.7s-8.1-3.6-9.1-2.4s7.9,4.1,7.4,4.2s-8.8-0.6-8.5,0.6
				c0.2,1.2,8.1,1.3,8.2,1.8c0.1,0.5-7.7,1.2-7.2,2.1c0.4,0.9,7.4,0.1,8.2,0.2c0.8,0.1-4.9,2.4-4.5,3.4c0.4,0.9,5.4-1.3,6.3-1.9
				c0.9-0.7,5-0.4,6.5-1.7s0.9-4.5,0-5.3C-784.3-197-786.2-197.7-786.2-197.7z"/>
		</g>
		<path class="st27" d="M-806.8-248.7c4.9,0,12.8,0.5,16.6-1.6c7.7-4.4-14.5-13.5-27.3-23.3c-12.8-9.8,29.1-16.4,37.6-12.1
			s37.7,28.6,38.3,36.5c0.6,7.9-20.7,27.9-20.7,27.9l-14.6-3C-776.8-224.4-816.3-248.7-806.8-248.7z"/>
		
			<linearGradient id="SVGID_12_" gradientUnits="userSpaceOnUse" x1="-815.811" y1="568.8126" x2="-767.5933" y2="520.5949" gradientTransform="matrix(1 0 0 -1 0 276.8017)">
			<stop  offset="0" style="stop-color:#FFC76D"/>
			<stop  offset="1" style="stop-color:#E8E3E0"/>
		</linearGradient>
		<path class="st28" d="M-827.8-280.1c0,0-1.5,4.1,0.6,4.6c2.1,0.5,4.3-1.1,4.3-1.1s-1.1,8.6,1.6,7.5s4.8-2.6,4.8-2.6
			s-1,5.9,1.6,6.4c2.7,0.5,5.4-2.8,5.4-2.8s0,7.1,2.6,7.1c2.6,0,5.7-3.2,5.7-3.2s-2.5,5.3,1.8,5.9c4.3,0.5,5.4-1.6,5.4-1.6
			s0.5,4.4,3.2,4.8c3.7,0.5,5.1-1.9,5.1-1.9s3,4,4,3.5c1.1-0.5,5.9-2.7,5.9-2.7s-0.5,3.7,2.1,3.7c2.6,0,7-3.7,7-3.7s0,3.7,2.1,3.2
			c2.1-0.5,3.7-3.7,3.7-3.7s1.1,2.7,3.2,2.1c2.1-0.5,4.3-4.3,4.3-4.3L-827.8-280.1z"/>
		
			<linearGradient id="SVGID_13_" gradientUnits="userSpaceOnUse" x1="-850.3525" y1="387.3812" x2="-791.0677" y2="381.2058" gradientTransform="matrix(0.9996 2.982325e-02 2.982325e-02 -0.9996 29.2286 169.8153)">
			<stop  offset="0" style="stop-color:#FFC76D"/>
			<stop  offset="1" style="stop-color:#E8E3E0"/>
		</linearGradient>
		<path class="st29" d="M-750.1-235.9c0,0-3.2-7.5-6.4-5.4c-2.9,1.9-1.6,4.3-1.6,4.3s-1.6-3.7-3.7-2.1c-2.1,1.6-2.1,4.3-2.1,4.3
			s-1-5.3-3.7-3.2c-2.7,2.1-2.8,5.1-2.8,5.1s0.2-5.6-2.5-4.6s-2.2,2.8-2.2,2.8s-0.4-4.4-3.1-3.4s-3.3,2.1-3.3,2.1s-0.9-5.2-3.1-3.2
			c-2.2,2.1-2.7,2.5-2.7,2.5s0.6-5.1-2.1-4.6s-3.7,1.7-3.7,1.7s1.6-3.8-1.6-3.9c-3.2-0.1-3,1.9-3,1.9s0.4-6.1-2.3-4.1
			c-2.7,2.1-3,2.3-3,2.3s4.3-8.3,0.9-8.2c-3.4,0.1-3.8,5.4-3.8,5.4s1.6-7.5-0.5-7c-2.1,0.5-1.2,5.4-1.2,5.4s10.9,10.6,11.9,11.2
			c1,0.6,41.4,12,41.4,12L-750.1-235.9z"/>
		<g>
			<path class="st30" d="M-768.8-155.8c0,0,6.7,16.7,7.4,20.4c0.6,3.6-9.3,5.4-10.2,8s6.4,1.1,6.4,1.1s2.5,2.4,4.8,1.8
				c1.5-0.4,8.3-1,12.9-1.3c2.3-0.2,4-2.3,3.7-4.6l-2.8-20.2C-746.7-150.7-767.5-165.2-768.8-155.8z"/>
			<path class="st31" d="M-744.5-135.3c0,0-9.1-7.5-14.6-9.3s-3.9,4.2-3.9,4.2l-5.8-15.7c0,0,19.7,3,20.2,3.6s3.1,5.1,3.1,5.1
				L-744.5-135.3z"/>
			<path class="st15" d="M-766.8-126c0,0,0.6-4.1-1-4c-1.6,0.1-4.6,1.9-5.2,3.1C-773.6-125.7-766.8-126-766.8-126z"/>
			<path class="st15" d="M-759.6-124.7c0,0,0.6-3.5-1.9-3.5c-2.4,0-5.5,1.2-6.1,3C-768.2-123.4-759.6-124.7-759.6-124.7z"/>
		</g>
		<path class="st32" d="M-717.4-177.5c0,0,9.1-22.2,6.4-23.6c-2.7-1.3-10.9-7.2-9.6-10.2c1.2-3,23.5-11.5,20.9-12.8
			c-2.7-1.3-9.6-16.6-9.6-16.6s23.3-5.9,21.6-7.1s-11.5-10.2-11.5-10.2l13.4-12.9l-13.3-6.1c0,0-4.4-13,0.9-16.8
			c5.4-3.7-24.6,1.1-24.6,1.1l-28.4,98"/>
		<path class="st32" d="M-719.6-179.7l17.1-13.3l8.6,12.3l2.9-11.6l13.7,2l4.6-9.9l6.7,6.7c0,0-20,20-26.7,25.5s-27.3,3-27.3,3
			L-719.6-179.7z"/>
		
			<linearGradient id="SVGID_14_" gradientUnits="userSpaceOnUse" x1="-829.2654" y1="503.0685" x2="-666.0654" y2="503.0685" gradientTransform="matrix(1 0 0 -1 0 276.8017)">
			<stop  offset="0" style="stop-color:#6BC62A"/>
			<stop  offset="1" style="stop-color:#00B53E"/>
		</linearGradient>
		<path class="st33" d="M-699.4-176.6c-31.9-3.1-29.2-27.7-20.1-43.2c0.1-0.1,0.1-0.2,0-0.3c12.8-13.2,26.4-39.3,23.1-48.9
			c-4.3-12.3-76.6-66.1-99.6-61.3c-23,4.8-33.3,48.5-33.3,48.5c4,15.2,49,32.2,68.8,26.5c7.7-2.3,13.5-3.7,16.9,2.9
			c1.8,3.5,0,8.1-18.2,15c-15.5,5.9-39.4-4.5-43.4-10.7c-3.4-5.4-12.9,2.5-3.8,10.1c6,5,20.4,13.9,43.8,20.4
			c-2.2,3.3-5.1,8.3-5.8,10.2c-1,2.8-4.1,8.9-5.9,14.5c-1.7,5.6-5.5,12.6-6.4,21.4c-0.9,8.8,6.9,18.9,14.9,21.5s12.6,3.3,19.9,5.6
			c4.1,3.9,8.9,7.3,12.7,11.7c-5.1,0.9-11.6,2-15,6.2c1.6,1.7,3.4,2.8,5.6,3.1c3.5,0.5,5.6,0.8,9.4,1.3c2.6,0.3,6.9-0.3,10.7-0.6
			c2.8-0.2,4.9-2.6,5-5.4c0.1-5.1-0.4-9.7,0.1-15.3c25.1-1.8,37.8-29.4,53.9-50C-676.2-194.2-689.4-175.6-699.4-176.6z"/>
		<g>
			<path class="st2" d="M-798.8-207.7c0,0-13.3-8.3-4.1-22.6C-802.8-230.4-791.3-223.5-798.8-207.7z"/>
			<path class="st2" d="M-800.8-205.7c0,0-5.8,14.9-21.5,8.3C-822.4-197.4-817.7-210.4-800.8-205.7z"/>
			<path class="st2" d="M-807.4-211.4c0,0-15.6,3.7-19.1-13C-826.5-224.4-813.2-227.9-807.4-211.4z"/>
			<g>
				<path class="st2" d="M-809.5-212.1c0-0.1,7.6,1.7,10.7,4.4c3.1,2.7,6.3,6.1,7.8,8.5s2.1,5,2.2,6.8c0.1,1.8-0.2,3-0.3,2.9
					c-0.1,0-0.1-1.1-0.4-2.9c-0.3-1.7-3.9-4.5-5.3-6.7C-796.1-201.4-809.5-212-809.5-212.1z"/>
			</g>
		</g>
		<path class="st15" d="M-747.3-124.7c0,0,0.6-4.1-1-4c-1.6,0.1-4.6,1.9-5.2,3.1C-754-124.4-747.3-124.7-747.3-124.7z"/>
		<path class="st15" d="M-740.1-123.3c0,0,0.6-3.5-1.8-3.5c-2.4,0-5.5,1.2-6.1,3C-748.6-122-740.1-123.3-740.1-123.3z"/>
		<path class="st31" d="M-748.5-144.3c0,0,28.4-0.8,28.4,0.5c0,1.1-0.2,10.9,0,13.4s-4.8-4.2-13.9-7.3
			C-743.1-140.8-748.5-144.3-748.5-144.3z"/>
		<g>
			<g>
				<path class="st34" d="M-795.5-286c-3.2,6.1-7.8,10.1-10.2,8.8c-2.5-1.3-1.9-7.3,1.3-13.4c3.2-6.1,7.8-10.1,10.2-8.8
					C-791.8-298.1-792.3-292.1-795.5-286z"/>
				<path class="st27" d="M-794.6-285.3c-3.2,6.1-7.8,10.1-10.2,8.8c-2.5-1.3-1.9-7.3,1.3-13.4c3.2-6.1,7.8-10.1,10.2-8.8
					C-790.8-297.5-791.4-291.5-794.6-285.3z"/>
			</g>
			<g>
				<path class="st34" d="M-811.3-298.9c-2.5,4.7-6,7.8-7.9,6.8c-1.9-1-1.5-5.7,1-10.4c2.5-4.7,6-7.8,7.9-6.8
					C-808.3-308.3-808.8-303.6-811.3-298.9z"/>
				<path class="st27" d="M-810.5-298.4c-2.5,4.7-6,7.8-7.9,6.8c-1.9-1-1.5-5.7,1-10.4c2.5-4.7,6-7.8,7.9-6.8
					C-807.6-307.8-808-303.2-810.5-298.4z"/>
			</g>
			<g>
				<path class="st35" d="M-797-305.1c0,0,4.8-2.5,8.6-0.4c7.2,4,2.9,14.8,2.9,14.8s2.3-6.3-4.9-12.2
					C-794-305.7-797-305.1-797-305.1z"/>
				<path class="st32" d="M-797-305.1c0,0,5.4,0.7,9.3,5.9c3.9,5.2,1.2,11,1.2,11s3.4-6-0.1-11.4C-790-305.1-797-305.1-797-305.1z"
					/>
				<path class="st25" d="M-795-303.4c0,0,5.8,3.5,6.8,8.9c1,5.4-1.9,9.4-1.9,9.4s4-3.6,3.5-9.5C-787.3-300.8-795-303.4-795-303.4z"
					/>
			</g>
			<g>
				<path class="st35" d="M-810.5-312.6c0,0,2.8-1.5,5.1-0.2c4.3,2.4,1.7,8.8,1.7,8.8s1.3-3.7-2.9-7.2
					C-808.7-313-810.5-312.6-810.5-312.6z"/>
				<path class="st32" d="M-810.5-312.6c0,0,3.2,0.4,5.5,3.5s0.7,6.5,0.7,6.5s2-3.6-0.1-6.8C-806.4-312.6-810.5-312.6-810.5-312.6z"
					/>
				<path class="st25" d="M-809.3-311.6c0,0,3.4,2,4,5.2c0.6,3.2-1.2,5.6-1.2,5.6s2.4-2.2,2.1-5.6
					C-804.7-310-809.3-311.6-809.3-311.6z"/>
			</g>
		</g>
		<g>
			<g>
				<path class="st32" d="M-729.5-272.4c0,0,2.2,2.9,3,6.1c0.8,3.2,1.4,8,1.4,8l0.7-1.8c0,0,0.3,0.6,1.2,1.4
					c0.8,0.6,3.2,1.4,3.2,1.4s-0.7-3.4-1.6-7.3c-1.2-5.4-4.6-7.8-4.6-7.8l0.1,1.1C-726-271.2-728.2-272.3-729.5-272.4z"/>
				<path class="st30" d="M-725.1-270.9c0,0,1.7,1.5,2.8,4.6s1.6,6.9,1.6,6.9l-1.3-2.5l0.8,3.1c0,0-1.2-1.6-2.1-4.7
					c-0.9-3.2-3-7-3-7l1.5,0.7L-725.1-270.9z"/>
			</g>
			<path class="st36" d="M-735.3-265.4c0,0,7.6-0.9,5.3,6"/>
		</g>
		<g>
			<path class="st37" d="M-766.6-198c-4.2-0.3-22.5,2.5-22.2,6.7c0.2,2.9,23.2-4.4,23.2-4.4S-762.4-197.7-766.6-198z"/>
			<path class="st37" d="M-787.2-195.8c0,0-7.9-5.2-7.8-2.9c0.1,2.2,3.7,4.8,3.7,4.8s-8.8-1-9.4,0.5c-0.6,1.5,8.8,1.6,8.3,1.8
				c-0.4,0.2-8.6,2-8,3.1c0.6,1.1,8.1-1.2,8.4-0.8c0.2,0.4-7,3.4-6.3,4.2s7.1-2.1,7.9-2.2c0.8-0.1-4,3.7-3.2,4.6
				c0.7,0.8,4.7-2.8,5.4-3.7c0.7-0.9,4.6-1.9,5.7-3.6c1.1-1.7-0.5-4.6-1.6-5.1C-785.2-195.6-787.2-195.8-787.2-195.8z"/>
		</g>
		<path class="st32" d="M-718.5-291c0,0-12.3-10.5-33-19.6c-19.7-8.7-33.4-12-33.4-12s0.1-19.7,18.7-24.1c9.1-2.1,24.5,3.8,22,4.8
			c-10.7,4.3-11.4,22.4-2.1,15c8-6.4,20.9,1.1,20.9,1.1s-13.1,8.2-8.6,9.1c5.4,1.1,18.6-2.5,15,1.6c-4.3,4.8-9.6,8.6-9.6,8.6
			s24.1-4.8,19.8,1.1C-713.1-299.5-718.5-291-718.5-291z"/>
	</g>
	<g>
		<g>
			<circle class="st5" cx="-445.8" cy="-399.6" r="3.8"/>
		</g>
		<g>
			<path class="st5" d="M-438.5-419.9c-3.4-4.1-5.8-11.8-6.9-15.2c-0.1-0.5-0.8-0.5-1,0c-0.8,3-2.9,9.3-6.9,14.7
				c-3.7,5,0.4,12.3,7.3,12.3c0,0,0,0,0.1,0c0,0,0,0,0.1,0C-438.9-408.2-434.6-415.1-438.5-419.9z M-445.1-411.2
				c-3.4,0.6-6.2-2.3-5.7-5.7c0.3-2,2-3.7,4-4c3.4-0.6,6.2,2.3,5.7,5.7C-441.4-413.2-443-411.5-445.1-411.2z"/>
		</g>
		<path class="st5" d="M-445.8-410.9c-0.8,0-1.5,0.7-1.5,1.5v19.3h3v-19.3C-444.3-410.2-445-410.9-445.8-410.9z"/>
	</g>
	<g>
		<path class="st5" d="M-192.4-420.3H-410c-0.8,0-1.5-0.7-1.5-1.5s0.7-1.5,1.5-1.5h217.6c0.8,0,1.5,0.7,1.5,1.5
			S-191.6-420.3-192.4-420.3z"/>
	</g>
	<g>
		
			<linearGradient id="SVGID_15_" gradientUnits="userSpaceOnUse" x1="-1232.4655" y1="-478.1839" x2="-1159.9736" y2="-478.1839" gradientTransform="matrix(-3.274567e-02 -0.9994 -0.8688 2.845226e-02 -866.6894 -1431.5393)">
			<stop  offset="0.1522" style="stop-color:#FF3A2D"/>
			<stop  offset="0.1907" style="stop-color:#FF462A"/>
			<stop  offset="0.4015" style="stop-color:#FF811B"/>
			<stop  offset="0.5953" style="stop-color:#FFB00F"/>
			<stop  offset="0.7658" style="stop-color:#FFD207"/>
			<stop  offset="0.9065" style="stop-color:#FFE702"/>
			<stop  offset="1" style="stop-color:#FFEE00"/>
		</linearGradient>
		<path class="st38" d="M-413.7-213.3c-0.1,0-0.1,0-0.1-0.1c-0.6-1.4-13.5-16.4-13.1-27.9c0.4-12.1,2.8-27.1,3-29
			c0.3-3.5,4.5,11,5.3,12.1c0.1,0.1,0.3,0,0.3-0.1c-0.9-2.2-1.2-8.2-0.3-12.4c1-4.2,6.1-11.9,8.3-15c0.3-0.4,0.9-0.2,0.9,0.3
			c0,2.3,1,9.8,3.7,12.5c3.7,3.6,11.5,15.2,7.9,27.8C-401.4-232.8-409.6-213.1-413.7-213.3z"/>
		
			<linearGradient id="SVGID_16_" gradientUnits="userSpaceOnUse" x1="-1228.7129" y1="-480.016" x2="-1180.2635" y2="-480.016" gradientTransform="matrix(-3.274567e-02 -0.9994 -0.8688 2.845226e-02 -866.6894 -1431.5393)">
			<stop  offset="0.1522" style="stop-color:#FF5A19"/>
			<stop  offset="1" style="stop-color:#FFEE00"/>
		</linearGradient>
		<path class="st39" d="M-412.5-217.1c0,0-7.6-21.5-3.8-29.7c3.8-8.2,5.4-12.2,4.3-17.1c-1.8-8,10.8,14.4,8.9,22.6
			C-405.3-233.2-412.5-217.1-412.5-217.1z"/>
		
			<linearGradient id="SVGID_17_" gradientUnits="userSpaceOnUse" x1="-1227.4695" y1="-479.1919" x2="-1192.5338" y2="-479.1919" gradientTransform="matrix(-3.274567e-02 -0.9994 -0.8688 2.845226e-02 -866.6894 -1431.5393)">
			<stop  offset="0.1522" style="stop-color:#FFB02A"/>
			<stop  offset="0.9393" style="stop-color:#FFEE00"/>
		</linearGradient>
		<path class="st40" d="M-412.7-218.3c0,0-2.9-15.1-2.5-20.2c0.3-5,2.3-7.2,4.1-10.9c0.4-0.9,1-2.9,1.3-3.9c0.1-0.2,0.3-0.2,0.4,0
			c0.7,1.5,2.5,6,2.8,10.2C-406-237.9-412.7-218.3-412.7-218.3z"/>
	</g>
	<g>
		<linearGradient id="SVGID_18_" gradientUnits="userSpaceOnUse" x1="-458.5933" y1="-213.6127" x2="-364.6592" y2="-213.6127">
			<stop  offset="0" style="stop-color:#FF3A2D"/>
			<stop  offset="1" style="stop-color:#D50000"/>
		</linearGradient>
		<path class="st41" d="M-458.6-228c9.5,17.3,27,28.8,47,28.8c20,0,37.5-11.6,47-28.8H-458.6z"/>
		<polygon class="st4" points="-411.6,-336.3 -458.9,-228 -364.3,-228 		"/>
		<linearGradient id="SVGID_19_" gradientUnits="userSpaceOnUse" x1="-418.1537" y1="-336.8187" x2="-405.0988" y2="-336.8187">
			<stop  offset="0" style="stop-color:#FF3A2D"/>
			<stop  offset="1" style="stop-color:#D50000"/>
		</linearGradient>
		<circle class="st42" cx="-411.6" cy="-336.8" r="6.5"/>
	</g>
	<g>
		<path class="st2" d="M-294.7-245.8c0,0-4-20.3,18.1-24.4C-276.6-270.2-272.7-252.9-294.7-245.8z"/>
		<path class="st2" d="M-297.9-245.5c0,0-20.3,7.5-28.1-13.7C-326-259.2-308.6-266-297.9-245.5z"/>
		<path class="st2" d="M-299-257.4c0,0-17.7-11.7-4.8-30.1C-303.8-287.6-288.3-277.9-299-257.4z"/>
		<g>
			<path class="st2" d="M-300.2-260.1c0,0,0.4-2.1,1.3-0.4c1.6,3.1,4.1,11.2,4.2,14.7c0.2,5.4-0.1,11.6-1.1,15.2
				c-1,3.6-2.8,6.5-4.5,8.3c-1.6,1.8-3,2.5-3.1,2.4c-0.1-0.1,1-1.1,2.4-2.9c1.4-1.8-0.5,1.2,1.7-11.2
				C-297.4-244.5-300.3-260.1-300.2-260.1z"/>
		</g>
	</g>
	<g>
		<path class="st7" d="M-345.3-228c9.5,17.3,27,28.8,47,28.8c20,0,37.5-11.6,47-28.8H-345.3z"/>
		<polygon class="st4" points="-298.3,-336.3 -345.6,-228 -251,-228 		"/>
		<circle class="st2" cx="-298.3" cy="-336.8" r="6.5"/>
	</g>
	<g>
		<circle class="st0" cx="-405.1" cy="-394.7" r="12"/>
		<path class="st5" d="M-405.1-381.2c-7.4,0-13.5-6-13.5-13.5s6-13.5,13.5-13.5s13.5,6,13.5,13.5S-397.7-381.2-405.1-381.2z
			 M-405.1-405.2c-5.8,0-10.5,4.7-10.5,10.5s4.7,10.5,10.5,10.5s10.5-4.7,10.5-10.5S-399.3-405.2-405.1-405.2z"/>
	</g>
	<g>
		<polygon class="st4" points="-412,-166.5 -459.3,-58.3 -364.6,-58.3 		"/>
		<linearGradient id="SVGID_20_" gradientUnits="userSpaceOnUse" x1="-418.485" y1="-167.0416" x2="-405.43" y2="-167.0416">
			<stop  offset="0" style="stop-color:#FF3A2D"/>
			<stop  offset="1" style="stop-color:#D50000"/>
		</linearGradient>
		<circle class="st43" cx="-412" cy="-167" r="6.5"/>
	</g>
	<g>
		<polygon class="st4" points="-298.3,-166.5 -345.6,-58.3 -251,-58.3 		"/>
		<circle class="st2" cx="-298.3" cy="-167" r="6.5"/>
	</g>
	<linearGradient id="SVGID_21_" gradientUnits="userSpaceOnUse" x1="-458.9245" y1="-31.778" x2="-364.9904" y2="-31.778">
		<stop  offset="0" style="stop-color:#FF3A2D"/>
		<stop  offset="1" style="stop-color:#D50000"/>
	</linearGradient>
	<path class="st44" d="M-458.9-46.2c9.5,17.3,27,28.8,47,28.8c20,0,37.5-11.6,47-28.8H-458.9z"/>
	<path class="st7" d="M-344.3-45.2c9.5,17.3,27,28.8,47,28.8c20,0,37.5-11.6,47-28.8H-344.3z"/>
	<g>
		<defs>
			<rect id="SVGID_22_" x="-1203.3" y="-231" width="30.1" height="56.3"/>
		</defs>
		<clipPath id="SVGID_23_">
			<use xlink:href="#SVGID_22_"  style="overflow:visible;"/>
		</clipPath>
		<g class="st45">
			
				<linearGradient id="SVGID_24_" gradientUnits="userSpaceOnUse" x1="-1261.98" y1="416.4367" x2="-1189.488" y2="416.4367" gradientTransform="matrix(-3.274567e-02 -0.9994 -0.8688 2.845226e-02 -866.6894 -1431.5393)">
				<stop  offset="0.1522" style="stop-color:#FF3A2D"/>
				<stop  offset="0.1907" style="stop-color:#FF462A"/>
				<stop  offset="0.4015" style="stop-color:#FF811B"/>
				<stop  offset="0.5953" style="stop-color:#FFB00F"/>
				<stop  offset="0.7658" style="stop-color:#FFD207"/>
				<stop  offset="0.9065" style="stop-color:#FFE702"/>
				<stop  offset="1" style="stop-color:#FFEE00"/>
			</linearGradient>
			<path class="st46" d="M-1190-158.3c-0.1,0-0.1,0-0.1-0.1c-0.6-1.4-13.5-16.4-13.1-27.9c0.4-12.1,2.8-27.1,3-29
				c0.3-3.5,4.5,11,5.3,12.1c0.1,0.1,0.3,0,0.3-0.1c-0.9-2.2-1.2-8.2-0.3-12.4s6.1-11.9,8.3-15c0.3-0.4,0.9-0.2,0.9,0.3
				c0,2.3,1,9.8,3.7,12.5c3.7,3.6,11.5,15.2,7.9,27.8C-1177.7-177.8-1185.9-158.1-1190-158.3z"/>
			
				<linearGradient id="SVGID_25_" gradientUnits="userSpaceOnUse" x1="-1258.2274" y1="414.6046" x2="-1209.778" y2="414.6046" gradientTransform="matrix(-3.274567e-02 -0.9994 -0.8688 2.845226e-02 -866.6894 -1431.5393)">
				<stop  offset="0.1522" style="stop-color:#FF5A19"/>
				<stop  offset="1" style="stop-color:#FFEE00"/>
			</linearGradient>
			<path class="st47" d="M-1188.8-162.1c0,0-7.6-21.5-3.8-29.7c3.8-8.2,5.4-12.2,4.3-17.1c-1.8-8,10.8,14.4,8.9,22.6
				C-1181.6-178.2-1188.8-162.1-1188.8-162.1z"/>
			
				<linearGradient id="SVGID_26_" gradientUnits="userSpaceOnUse" x1="-1256.984" y1="415.4287" x2="-1222.0482" y2="415.4287" gradientTransform="matrix(-3.274567e-02 -0.9994 -0.8688 2.845226e-02 -866.6894 -1431.5393)">
				<stop  offset="0.1522" style="stop-color:#FFB02A"/>
				<stop  offset="0.9393" style="stop-color:#FFEE00"/>
			</linearGradient>
			<path class="st48" d="M-1189-163.4c0,0-2.9-15.1-2.5-20.2c0.3-5,2.3-7.2,4.1-10.9c0.4-0.9,1-2.9,1.3-3.9c0.1-0.2,0.3-0.2,0.4,0
				c0.7,1.5,2.5,6,2.8,10.2C-1182.3-182.9-1189-163.4-1189-163.4z"/>
		</g>
	</g>
	<g>
		<defs>
			<rect id="SVGID_27_" x="-458.6" y="-1" width="30.1" height="56.3"/>
		</defs>
		<clipPath id="SVGID_28_">
			<use xlink:href="#SVGID_27_"  style="overflow:visible;"/>
		</clipPath>
		<g class="st49">
			
				<linearGradient id="SVGID_29_" gradientUnits="userSpaceOnUse" x1="-1516.2024" y1="-431.1108" x2="-1443.7104" y2="-431.1108" gradientTransform="matrix(-3.274567e-02 -0.9994 -0.8688 2.845226e-02 -866.6894 -1431.5393)">
				<stop  offset="0.1522" style="stop-color:#FF3A2D"/>
				<stop  offset="0.1907" style="stop-color:#FF462A"/>
				<stop  offset="0.4015" style="stop-color:#FF811B"/>
				<stop  offset="0.5953" style="stop-color:#FFB00F"/>
				<stop  offset="0.7658" style="stop-color:#FFD207"/>
				<stop  offset="0.9065" style="stop-color:#FFE702"/>
				<stop  offset="1" style="stop-color:#FFEE00"/>
			</linearGradient>
			<path class="st50" d="M-445.3,71.6c-0.1,0-0.1,0-0.1-0.1c-0.6-1.4-13.5-16.4-13.1-27.9c0.4-12.1,2.8-27.1,3-29
				c0.3-3.5,4.5,11,5.3,12.1c0.1,0.1,0.3,0,0.3-0.1c-0.9-2.2-1.2-8.2-0.3-12.4c1-4.2,6.1-11.9,8.3-15c0.3-0.4,0.9-0.2,0.9,0.3
				c0,2.3,1,9.8,3.7,12.5c3.7,3.6,11.5,15.2,7.9,27.8C-433,52.2-441.2,71.9-445.3,71.6z"/>
			
				<linearGradient id="SVGID_30_" gradientUnits="userSpaceOnUse" x1="-1512.4498" y1="-432.9429" x2="-1464.0005" y2="-432.9429" gradientTransform="matrix(-3.274567e-02 -0.9994 -0.8688 2.845226e-02 -866.6894 -1431.5393)">
				<stop  offset="0.1522" style="stop-color:#FF5A19"/>
				<stop  offset="1" style="stop-color:#FFEE00"/>
			</linearGradient>
			<path class="st51" d="M-444.1,67.8c0,0-7.6-21.5-3.8-29.7c3.8-8.2,5.4-12.2,4.3-17.1c-1.8-8,10.8,14.4,8.9,22.6
				C-436.9,51.8-444.1,67.8-444.1,67.8z"/>
			
				<linearGradient id="SVGID_31_" gradientUnits="userSpaceOnUse" x1="-1511.2064" y1="-432.1189" x2="-1476.2706" y2="-432.1189" gradientTransform="matrix(-3.274567e-02 -0.9994 -0.8688 2.845226e-02 -866.6894 -1431.5393)">
				<stop  offset="0.1522" style="stop-color:#FFB02A"/>
				<stop  offset="0.9393" style="stop-color:#FFEE00"/>
			</linearGradient>
			<path class="st52" d="M-444.3,66.6c0,0-2.9-15.1-2.5-20.2c0.3-5,2.3-7.2,4.1-10.9c0.4-0.9,1-2.9,1.3-3.9c0.1-0.2,0.3-0.2,0.4,0
				c0.7,1.5,2.5,6,2.8,10.2C-437.6,47-444.3,66.6-444.3,66.6z"/>
		</g>
	</g>
	<g>
		<g>
			
				<linearGradient id="SVGID_32_" gradientUnits="userSpaceOnUse" x1="-203.2192" y1="41.4754" x2="-100.1549" y2="41.4754" gradientTransform="matrix(0.9932 -0.1162 -0.101 -0.8634 17.7666 -49.3025)">
				<stop  offset="0.1522" style="stop-color:#FF3A2D"/>
				<stop  offset="0.1907" style="stop-color:#FF462A"/>
				<stop  offset="0.4015" style="stop-color:#FF811B"/>
				<stop  offset="0.5953" style="stop-color:#FFB00F"/>
				<stop  offset="0.7658" style="stop-color:#FFD207"/>
				<stop  offset="0.9065" style="stop-color:#FFE702"/>
				<stop  offset="1" style="stop-color:#FFEE00"/>
			</linearGradient>
			<path class="st53" d="M-188.4-63.2c0-0.1,0-0.2,0.1-0.2c1.9-0.9,27.6-13.6,37-15.2c11.3-1.9,21-0.7,26.6-5.5
				c3.9-3.3,4.4-6.3,4.4-7.6c0-0.2,0.3-0.3,0.4-0.1c1.2,1.9,4.1,7.3,1.8,10.5c-2.1,2.9-4.6,5.3-6.1,6.5c-0.2,0.2,0,0.4,0.2,0.3
				c3-1.4,10.5-4.8,14.8-5.6c7.6-1.4,18.1,1.6,22.8,4.2c0.6,0.3,0.4,1.2-0.3,1.3c-3.4,0.3-10.2,1.4-13.7,5.3
				c-4.8,5.3-21.6,27-40.1,23.6C-158.9-49-188.3-57.7-188.4-63.2z"/>
			
				<linearGradient id="SVGID_33_" gradientUnits="userSpaceOnUse" x1="-197.7854" y1="36.504" x2="-131.8433" y2="36.504" gradientTransform="matrix(0.9932 -0.1162 -0.101 -0.8634 17.7666 -49.3025)">
				<stop  offset="0.1522" style="stop-color:#FF5A19"/>
				<stop  offset="1" style="stop-color:#FFEE00"/>
			</linearGradient>
			<path class="st54" d="M-182.8-62c0,0,30-12.5,42.3-8.4s13.7,10,20.7,8c11.3-3.3-8.6,10.3-20.6,8.6C-152.4-55.6-182.8-62-182.8-62
				z"/>
			
				<linearGradient id="SVGID_34_" gradientUnits="userSpaceOnUse" x1="-195.9917" y1="37.2795" x2="-145.4938" y2="37.2795" gradientTransform="matrix(0.9932 -0.1162 -0.101 -0.8634 17.7666 -49.3025)">
				<stop  offset="0.1522" style="stop-color:#FFB02A"/>
				<stop  offset="0.9393" style="stop-color:#FFEE00"/>
			</linearGradient>
			<path class="st55" d="M-181.1-62.4c0,0,21.5-5.6,28.8-5.6c7.3-0.1,10.6,2.3,16.2,4.3c1.3,0.5,4.3,1,5.8,1.3
				c0.3,0,0.3,0.4,0.1,0.5c-2.1,1-8.4,3.9-14.4,4.9C-152.1-55.7-181.1-62.4-181.1-62.4z"/>
		</g>
	</g>
	<g>
		<path class="st10" d="M-39.1-227.4c0,0-0.2-1.8-9.7-1.8c-4.9,0-10.3-1.8-10.9-6.7c-1.1-8.8,9.7-19.4,22.5-29.1
			c12.8-9.7-29.1-16.4-37.6-12.1c-8.5,4.2-27.9,36.4-28.5,44.3c-0.6,7.9,10.9,20,10.9,20l14.6-3L-39.1-227.4z"/>
		<path class="st10" d="M-144.1-176.4c-0.7-1.8-0.8-18.3,1.2-17.6s13,0.3,13,0.3s-15-17.2-12.4-18.5c2.7-1.3,23.9-1.3,22.7-4.4
			c-1.2-3-22.4-8.8-19.8-10.1c2.6-1.3,9.7-14.2,9.7-14.2s-18.6-1.4-16.9-2.6s11.5-10.2,11.5-10.2l-13.4-12.9l13.3-6.1
			c0,0-7-15-5.2-15.2l26.7,2.2l6.7,99L-144.1-176.4"/>
		<path class="st10" d="M-144.1-176.4l-10.3-9.1l-8.6,16l-2.9-15.4l-14.2,3.1l-4-11l-6.7,6.7c0,0,20,20,26.7,25.5s27.3,3,27.3,3
			L-144.1-176.4z"/>
		
			<linearGradient id="SVGID_35_" gradientUnits="userSpaceOnUse" x1="-64.9761" y1="573.3401" x2="21.1043" y2="573.3401" gradientTransform="matrix(0.9906 -0.1366 -0.1366 -0.9906 50.6721 306.2797)">
			<stop  offset="0" style="stop-color:#E6E6E6"/>
			<stop  offset="1" style="stop-color:#FF9300"/>
		</linearGradient>
		<path class="st56" d="M-80.2-239.1l6.1,2.8l-1.1-8.2l7.5,3.8l-1-7.9c0,0,6.2,2.3,7.2,1.8s2.9-7.1,2.9-7.1l4.4,2.2l1.7-5.4l5,4.7
			l2.4-5.5l4.3,0.9l1-6.2l8.7,3.6l2.2-7.2l6.1,4.4l0.1-9.2c0,0,8.2,7.2,8,6c-0.1-1.2-0.9-8.7-0.9-8.7s8.5,5.5,8.2,4.8
			c-0.3-0.7-3-12.1-3-12.1l-8.9-0.2l-71.5,37.6L-80.2-239.1z"/>
		<path class="st12" d="M-79.7-151.1c0,0-6.7,16.7-7.3,20.4c-0.6,3.6,9.3,5.3,10.2,7.9c0.9,2.6-6.4,1.2-6.4,1.2s-2.5,2.4-4.8,1.8
			c-1.5-0.4-8.3-0.9-12.9-1.3c-2.3-0.2-4-2.3-3.7-4.6l2.8-20.3C-101.8-145.9-81.1-160.5-79.7-151.1z"/>
		<path class="st13" d="M-104-130.5c0,0,9.1-7.5,14.6-9.3s3.9,4.2,3.9,4.2l5.8-15.7c0,0-19.7,3.1-20.2,3.7s-3.1,5.1-3.1,5.1
			L-104-130.5z"/>
		<g>
			
				<linearGradient id="SVGID_36_" gradientUnits="userSpaceOnUse" x1="-172.0772" y1="540.373" x2="21.3704" y2="540.373" gradientTransform="matrix(0.9906 -0.1366 -0.1366 -0.9906 50.6721 306.2797)">
				<stop  offset="0" style="stop-color:#FF3A2D"/>
				<stop  offset="1" style="stop-color:#D50000"/>
			</linearGradient>
			<path class="st57" d="M-80.7-188.4c1.7,5.6,5.9,17.6,6.8,26.4c0.9,8.8-6.6,16.7-14.7,19.3s-12.6,3.3-19.9,5.6
				c-4.1,3.9-8.9,7.3-12.7,11.7c5.1,0.9,11.6,2,15,6.2c-1.6,1.7-3.4,2.8-5.6,3.1c-3.5,0.5-5.6,0.8-9.4,1.3
				c-2.6,0.3-6.9-0.3-10.7-0.6c-2.8-0.2-4.9-2.6-5-5.4c-0.1-5.1,0.4-9.7-0.1-15.3c-25.1-1.8-37.8-29.4-53.9-50
				c10.2-0.6,23.3,17.4,33.4,17s31.8-29,35.4-39.2c3.6-10.2-8.8-26.3-13.5-40.4c-4.7-14.2-7.7-24.6,10-38.1
				c17.7-13.5,65.5-48,82.3-36.3c16.8,11.8,41.6,33.9,31.9,45.2c-9.6,11.3-72.3,27.4-74.2,47.4s4.4,12.1,12.5,9.4
				c7.4-2.4,29.2-11.4,34-6.5c4.8,4.9-12.7,8.4-27.8,11.8c-14.3,3.2-19.3,10.1-20.9,10.3c-1.6,0.2,3.9,6.8,4.8,9.6
				C-81.9-193.2-82.4-193.9-80.7-188.4z"/>
		</g>
		<path class="st15" d="M-81.6-121.3c0,0-0.6-4.1,1-4s4.6,1.9,5.2,3.1C-74.9-121-81.6-121.3-81.6-121.3z"/>
		<path class="st15" d="M-88.9-119.9c0,0-0.6-3.5,1.8-3.5s5.5,1.2,6.1,3S-88.9-119.9-88.9-119.9z"/>
		<path class="st15" d="M-109.6-117.2c0,0-0.6-4.1,1-4s4.6,1.9,5.2,3.1C-102.8-116.9-109.6-117.2-109.6-117.2z"/>
		<path class="st15" d="M-116.8-115.8c0,0-0.6-3.5,1.8-3.5c2.4,0,5.5,1.2,6.1,3C-108.3-114.5-116.8-115.8-116.8-115.8z"/>
		<path class="st13" d="M-108.3-137.5c0,0-27.3,1.2-28.5,0.6s0.4,10.9,0.2,13.3s4.7-3.6,13.8-6.6
			C-113.7-133.2-108.3-137.5-108.3-137.5z"/>
		<g>
			<path class="st19" d="M-86.7-255.9c0,0-3.2-1.9-6.4-2.4s-8.1-0.6-8.1-0.6l1.7-0.9c0,0-0.7-0.2-1.5-1.1c-0.7-0.7-1.8-3.1-1.8-3.1
				s3.5,0.4,7.4,0.8c5.5,0.7,8.2,3.8,8.2,3.8h-1.1C-88.3-259.3-86.9-257.2-86.7-255.9z"/>
			<path class="st20" d="M-88.7-260.1c0,0-1.6-1.5-4.8-2.3c-3.2-0.8-7-0.9-7-0.9l2.7,1l-3.2-0.5c0,0,1.7,1,4.9,1.6
				c3.2,0.6,7.3,2.3,7.3,2.3l-0.8-1.4L-88.7-260.1z"/>
		</g>
		<g>
			<circle cx="-93" cy="-250.8" r="4.2"/>
			<circle class="st0" cx="-92.7" cy="-251.6" r="1.5"/>
			<circle class="st0" cx="-94.3" cy="-249.1" r="0.7"/>
		</g>
		<g>
			<path class="st21" d="M-46.4-284.9c3.2,6.1,7.8,10.1,10.2,8.8c2.5-1.3,1.9-7.3-1.3-13.4c-3.2-6.1-7.8-10.1-10.2-8.8
				S-49.5-291-46.4-284.9z"/>
			<path class="st22" d="M-47.3-284.3c3.2,6.1,7.8,10.1,10.2,8.8c2.5-1.3,1.9-7.3-1.3-13.4s-7.8-10.1-10.2-8.8
				C-51.1-296.4-50.5-290.4-47.3-284.3z"/>
		</g>
		<g>
			<path class="st21" d="M-30.6-297.8c2.5,4.7,6,7.8,7.9,6.8s1.5-5.7-1-10.4c-2.5-4.7-6-7.8-7.9-6.8
				C-33.5-307.2-33.1-302.6-30.6-297.8z"/>
			<path class="st22" d="M-31.4-297.3c2.5,4.7,6,7.8,7.9,6.8s1.5-5.7-1-10.4c-2.5-4.7-6-7.8-7.9-6.8
				C-34.3-306.7-33.8-302.1-31.4-297.3z"/>
		</g>
		<g>
			<path class="st23" d="M-44.9-304c0,0-4.8-2.5-8.6-0.4c-7.2,4-2.9,14.8-2.9,14.8s-2.3-6.3,4.9-12.2C-47.8-304.6-44.9-304-44.9-304
				z"/>
			<path class="st24" d="M-44.9-304c0,0-5.4,0.7-9.3,5.9c-3.9,5.2-1.2,11-1.2,11s-3.4-6,0.1-11.4C-51.8-304-44.9-304-44.9-304z"/>
			<path class="st25" d="M-46.8-302.4c0,0-5.8,3.5-6.8,8.9c-1,5.4,1.9,9.4,1.9,9.4s-4-3.6-3.5-9.5
				C-54.6-299.7-46.8-302.4-46.8-302.4z"/>
		</g>
		<g>
			<path class="st23" d="M-31.4-311.5c0,0-2.8-1.5-5.1-0.2c-4.3,2.4-1.7,8.8-1.7,8.8s-1.3-3.7,2.9-7.2
				C-33.1-311.9-31.4-311.5-31.4-311.5z"/>
			<path class="st24" d="M-31.4-311.5c0,0-3.2,0.4-5.5,3.5c-2.3,3.1-0.7,6.5-0.7,6.5s-2-3.6,0.1-6.8
				C-35.5-311.5-31.4-311.5-31.4-311.5z"/>
			<path class="st25" d="M-32.6-310.5c0,0-3.4,2-4,5.2s1.2,5.6,1.2,5.6s-2.4-2.2-2.1-5.6C-37.1-308.9-32.6-310.5-32.6-310.5z"/>
		</g>
		<path class="st10" d="M-125.3-286.9c0,0,11.5-10.3,32.2-19.4c19.7-8.7,29.7-9.1,29.7-9.1s-4.9-12.7,6.7-17.6
			c11.6-4.9-11.5-12.1-22.5,0c-6.9,7.7-10.3-6.7-10.3-6.7l-9.1,21.9l-12.1-3.6l-3.6,18.8l-13.4,1.2L-125.3-286.9z"/>
	</g>
	<path class="st10" d="M-65.7-75.5c0,0,0.8,0.1,5.3-1s3.5-8.8,6.1-10.3s2.8,5.3,3.5,5.9c0.6,0.6,0.2-4.4,0.2-4.4s1.4,4.1,1.9,3.5
		c0.6-0.6-0.7-5.5-0.7-5.5s3.6,7.5,2.8,1.7s-5.5-6.3-8.4-6.3s-4.5,8.9-6.8,10.3c-2.3,1.4-7.3-0.6-7.3-0.6L-65.7-75.5z"/>
	<g>
		<path class="st10" d="M162.3-227.4c0,0-0.2-1.8-9.7-1.8c-4.9,0-10.3-1.8-10.9-6.7c-1.1-8.8,9.7-19.4,22.5-29.1
			c12.8-9.7-29.1-16.4-37.6-12.1c-8.5,4.2-27.9,36.4-28.5,44.3c-0.6,7.9,10.9,20,10.9,20l14.6-3L162.3-227.4z"/>
		<path class="st10" d="M57.3-176.4c-0.7-1.8-0.8-18.3,1.2-17.6s13,0.3,13,0.3s-15-17.2-12.4-18.5c2.7-1.3,23.9-1.3,22.7-4.4
			c-1.2-3-22.4-8.8-19.8-10.1c2.6-1.3,9.7-14.2,9.7-14.2s-18.6-1.4-16.9-2.6s11.5-10.2,11.5-10.2l-13.4-12.9l13.3-6.1
			c0,0-7-15-5.2-15.2l26.7,2.2l6.7,99L57.3-176.4"/>
		<path class="st10" d="M57.3-176.4L47-185.5l-8.6,16l-2.9-15.4l-14.2,3.1l-4-11l-6.7,6.7c0,0,20,20,26.7,25.5s27.3,3,27.3,3
			L57.3-176.4z"/>
		
			<linearGradient id="SVGID_37_" gradientUnits="userSpaceOnUse" x1="134.5714" y1="545.8232" x2="220.6518" y2="545.8232" gradientTransform="matrix(0.9906 -0.1366 -0.1366 -0.9906 50.6721 306.2797)">
			<stop  offset="0" style="stop-color:#E6E6E6"/>
			<stop  offset="1" style="stop-color:#FF9300"/>
		</linearGradient>
		<path class="st58" d="M121.2-239.1l6.1,2.8l-1.1-8.2l7.5,3.8l-1-7.9c0,0,6.2,2.3,7.2,1.8s2.9-7.1,2.9-7.1l4.4,2.2l1.7-5.4l5,4.7
			l2.4-5.5l4.3,0.9l1-6.2l8.7,3.6l2.2-7.2l6.1,4.4l0.1-9.2c0,0,8.2,7.2,8,6c-0.1-1.2-0.9-8.7-0.9-8.7s8.5,5.5,8.2,4.8
			c-0.3-0.7-3-12.1-3-12.1l-8.9-0.2l-71.5,37.6L121.2-239.1z"/>
		<path class="st12" d="M121.7-151.1c0,0-6.7,16.7-7.3,20.4c-0.6,3.6,9.3,5.3,10.2,7.9c0.9,2.6-6.4,1.2-6.4,1.2s-2.5,2.4-4.8,1.8
			c-1.5-0.4-8.3-0.9-12.9-1.3c-2.3-0.2-4-2.3-3.7-4.6l2.8-20.3C99.6-145.9,120.3-160.5,121.7-151.1z"/>
		<path class="st13" d="M97.4-130.5c0,0,9.1-7.5,14.6-9.3s3.9,4.2,3.9,4.2l5.8-15.7c0,0-19.7,3.1-20.2,3.7s-3.1,5.1-3.1,5.1
			L97.4-130.5z"/>
		<g>
			
				<linearGradient id="SVGID_38_" gradientUnits="userSpaceOnUse" x1="27.4703" y1="512.8561" x2="220.918" y2="512.8561" gradientTransform="matrix(0.9906 -0.1366 -0.1366 -0.9906 50.6721 306.2797)">
				<stop  offset="0" style="stop-color:#FF3A2D"/>
				<stop  offset="1" style="stop-color:#D50000"/>
			</linearGradient>
			<path class="st59" d="M120.7-188.4c1.7,5.6,5.9,17.6,6.8,26.4c0.9,8.8-6.6,16.7-14.7,19.3s-12.6,3.3-19.9,5.6
				c-4.1,3.9-8.9,7.3-12.7,11.7c5.1,0.9,11.6,2,15,6.2c-1.6,1.7-3.4,2.8-5.6,3.1c-3.5,0.5-5.6,0.8-9.4,1.3
				c-2.6,0.3-6.9-0.3-10.7-0.6c-2.8-0.2-4.9-2.6-5-5.4c-0.1-5.1,0.4-9.7-0.1-15.3c-25.1-1.8-37.8-29.4-53.9-50
				c10.2-0.6,23.3,17.4,33.4,17s31.8-29,35.4-39.2c3.6-10.2-8.8-26.3-13.5-40.4c-4.7-14.2-7.7-24.6,10-38.1s65.5-48,82.3-36.3
				c16.8,11.8,41.6,33.9,31.9,45.2c-9.6,11.3-72.3,27.4-74.2,47.4s4.4,12.1,12.5,9.4c7.4-2.4,29.2-11.4,34-6.5
				c4.8,4.9-12.7,8.4-27.8,11.8c-14.3,3.2-19.3,10.1-20.9,10.3c-1.6,0.2,3.9,6.8,4.8,9.6C119.5-193.2,119-193.9,120.7-188.4z"/>
		</g>
		<path class="st15" d="M119.8-121.3c0,0-0.6-4.1,1-4s4.6,1.9,5.2,3.1C126.5-121,119.8-121.3,119.8-121.3z"/>
		<path class="st15" d="M112.5-119.9c0,0-0.6-3.5,1.8-3.5s5.5,1.2,6.1,3S112.5-119.9,112.5-119.9z"/>
		<path class="st15" d="M91.8-117.2c0,0-0.6-4.1,1-4s4.6,1.9,5.2,3.1C98.6-116.9,91.8-117.2,91.8-117.2z"/>
		<path class="st15" d="M84.6-115.8c0,0-0.6-3.5,1.8-3.5c2.4,0,5.5,1.2,6.1,3C93.1-114.5,84.6-115.8,84.6-115.8z"/>
		<path class="st13" d="M93.1-137.5c0,0-27.3,1.2-28.5,0.6c-1.2-0.6,0.4,10.9,0.2,13.3s4.7-3.6,13.8-6.6
			C87.7-133.2,93.1-137.5,93.1-137.5z"/>
		<g>
			
				<linearGradient id="SVGID_39_" gradientUnits="userSpaceOnUse" x1="157.1816" y1="202.8223" x2="260.2459" y2="202.8223" gradientTransform="matrix(0.9932 -0.1162 -0.101 -0.8634 17.7666 -49.3025)">
				<stop  offset="0.1522" style="stop-color:#FF3A2D"/>
				<stop  offset="0.1907" style="stop-color:#FF462A"/>
				<stop  offset="0.4015" style="stop-color:#FF811B"/>
				<stop  offset="0.5953" style="stop-color:#FFB00F"/>
				<stop  offset="0.7658" style="stop-color:#FFD207"/>
				<stop  offset="0.9065" style="stop-color:#FFE702"/>
				<stop  offset="1" style="stop-color:#FFEE00"/>
			</linearGradient>
			<path class="st60" d="M153.2-244.4c0-0.1,0-0.2,0.1-0.2c1.9-0.9,27.6-13.6,37-15.2c11.3-1.9,21-0.7,26.6-5.5
				c3.9-3.3,4.4-6.3,4.4-7.6c0-0.2,0.3-0.3,0.4-0.1c1.2,1.9,4.1,7.3,1.8,10.5c-2.1,2.9-4.6,5.3-6.1,6.5c-0.2,0.2,0,0.4,0.2,0.3
				c3-1.4,10.5-4.8,14.8-5.6c7.6-1.4,18.1,1.6,22.8,4.2c0.6,0.3,0.4,1.2-0.3,1.3c-3.4,0.3-10.2,1.4-13.7,5.3
				c-4.8,5.3-21.6,27-40.1,23.6C182.8-230.2,153.4-238.9,153.2-244.4z"/>
			
				<linearGradient id="SVGID_40_" gradientUnits="userSpaceOnUse" x1="162.6153" y1="197.8509" x2="228.5575" y2="197.8509" gradientTransform="matrix(0.9932 -0.1162 -0.101 -0.8634 17.7666 -49.3025)">
				<stop  offset="0.1522" style="stop-color:#FF5A19"/>
				<stop  offset="1" style="stop-color:#FFEE00"/>
			</linearGradient>
			<path class="st61" d="M158.8-243.2c0,0,30-12.5,42.3-8.4c12.3,4.1,13.7,10,20.7,8c11.3-3.3-8.6,10.3-20.6,8.6
				C189.2-236.8,158.8-243.2,158.8-243.2z"/>
			
				<linearGradient id="SVGID_41_" gradientUnits="userSpaceOnUse" x1="164.4091" y1="198.6264" x2="214.907" y2="198.6264" gradientTransform="matrix(0.9932 -0.1162 -0.101 -0.8634 17.7666 -49.3025)">
				<stop  offset="0.1522" style="stop-color:#FFB02A"/>
				<stop  offset="0.9393" style="stop-color:#FFEE00"/>
			</linearGradient>
			<path class="st62" d="M160.6-243.6c0,0,21.5-5.6,28.8-5.6c7.3-0.1,10.6,2.3,16.2,4.3c1.3,0.5,4.3,1,5.8,1.3
				c0.3,0,0.3,0.4,0.1,0.5c-2.1,1-8.4,3.9-14.4,4.9C189.6-236.9,160.6-243.6,160.6-243.6z"/>
		</g>
		<g>
			<path class="st19" d="M114.7-255.9c0,0-3.2-1.9-6.4-2.4s-8.1-0.6-8.1-0.6l1.7-0.9c0,0-0.7-0.2-1.5-1.1c-0.7-0.7-1.8-3.1-1.8-3.1
				s3.5,0.4,7.4,0.8c5.5,0.7,8.2,3.8,8.2,3.8h-1.1C113.1-259.3,114.5-257.2,114.7-255.9z"/>
			<path class="st20" d="M112.7-260.1c0,0-1.6-1.5-4.8-2.3c-3.2-0.8-7-0.9-7-0.9l2.7,1l-3.2-0.5c0,0,1.7,1,4.9,1.6
				c3.2,0.6,7.3,2.3,7.3,2.3l-0.8-1.4L112.7-260.1z"/>
		</g>
		<path class="st10" d="M113.8-197.1c0,0,0.8,0.3,5.4,0.6c4.6,0.3,6-7.3,9-8s1.1,5.9,1.6,6.6c0.4,0.7,1.5-4.1,1.5-4.1
			s0.1,4.3,0.8,3.9s1-5.4,1-5.4s1.2,8.3,2.1,2.5c1-5.8-3.4-7.7-6.1-8.6c-2.7-0.9-6.9,7.1-9.6,7.8c-2.6,0.6-6.7-2.8-6.7-2.8
			L113.8-197.1z"/>
		<g>
			<circle cx="108.4" cy="-250.8" r="4.2"/>
			<circle class="st0" cx="108.7" cy="-251.6" r="1.5"/>
			<circle class="st0" cx="107.1" cy="-249.1" r="0.7"/>
		</g>
		<path class="st10" d="M88.7-191.4c0,0,0.8,0.1,5.3-1s3.5-8.8,6.1-10.3s2.8,5.3,3.5,5.9c0.6,0.6,0.2-4.4,0.2-4.4s1.4,4.1,1.9,3.5
			c0.6-0.6-0.7-5.5-0.7-5.5s3.6,7.5,2.8,1.7s-5.5-6.3-8.4-6.3s-4.5,8.9-6.8,10.3c-2.3,1.4-7.3-0.6-7.3-0.6L88.7-191.4z"/>
		<g>
			<path class="st21" d="M155-284.9c3.2,6.1,7.8,10.1,10.2,8.8c2.5-1.3,1.9-7.3-1.3-13.4c-3.2-6.1-7.8-10.1-10.2-8.8
				S151.9-291,155-284.9z"/>
			<path class="st22" d="M154.1-284.3c3.2,6.1,7.8,10.1,10.2,8.8c2.5-1.3,1.9-7.3-1.3-13.4s-7.8-10.1-10.2-8.8
				C150.3-296.4,150.9-290.4,154.1-284.3z"/>
		</g>
		<g>
			<path class="st21" d="M170.8-297.8c2.5,4.7,6,7.8,7.9,6.8s1.5-5.7-1-10.4c-2.5-4.7-6-7.8-7.9-6.8S168.3-302.6,170.8-297.8z"/>
			<path class="st22" d="M170-297.3c2.5,4.7,6,7.8,7.9,6.8s1.5-5.7-1-10.4c-2.5-4.7-6-7.8-7.9-6.8S167.6-302.1,170-297.3z"/>
		</g>
		<g>
			<path class="st23" d="M156.5-304c0,0-4.8-2.5-8.6-0.4c-7.2,4-2.9,14.8-2.9,14.8s-2.3-6.3,4.9-12.2
				C153.6-304.6,156.5-304,156.5-304z"/>
			<path class="st24" d="M156.5-304c0,0-5.4,0.7-9.3,5.9c-3.9,5.2-1.2,11-1.2,11s-3.4-6,0.1-11.4C149.6-304,156.5-304,156.5-304z"/>
			<path class="st25" d="M154.6-302.4c0,0-5.8,3.5-6.8,8.9c-1,5.4,1.9,9.4,1.9,9.4s-4-3.6-3.5-9.5
				C146.8-299.7,154.6-302.4,154.6-302.4z"/>
		</g>
		<g>
			<path class="st23" d="M170-311.5c0,0-2.8-1.5-5.1-0.2c-4.3,2.4-1.7,8.8-1.7,8.8s-1.3-3.7,2.9-7.2
				C168.3-311.9,170-311.5,170-311.5z"/>
			<path class="st24" d="M170-311.5c0,0-3.2,0.4-5.5,3.5c-2.3,3.1-0.7,6.5-0.7,6.5s-2-3.6,0.1-6.8C165.9-311.5,170-311.5,170-311.5z
				"/>
			<path class="st25" d="M168.8-310.5c0,0-3.4,2-4,5.2s1.2,5.6,1.2,5.6s-2.4-2.2-2.1-5.6C164.3-308.9,168.8-310.5,168.8-310.5z"/>
		</g>
		<path class="st10" d="M76.1-286.9c0,0,11.5-10.3,32.2-19.4c19.7-8.7,29.7-9.1,29.7-9.1s-4.9-12.7,6.7-17.6
			c11.6-4.9-11.5-12.1-22.5,0c-6.9,7.7-10.3-6.7-10.3-6.7l-9.1,21.9l-12.1-3.6l-3.6,18.8l-13.4,1.2L76.1-286.9z"/>
	</g>
	<g>
		<g>
			<path class="st26" d="M63.1,152.8c0,0-21.9-3.7-22.9,0.4c-0.7,2.9,23.4,2.8,23.4,2.8L63.1,152.8z"/>
			<path class="st26" d="M43.1,149.4c0,0-5.9-7.3-6.6-5.1s2.1,5.7,2.1,5.7s-8.1-3.6-9.1-2.4s7.9,4.1,7.4,4.2s-8.8-0.6-8.5,0.6
				c0.2,1.2,8.1,1.3,8.2,1.8s-7.7,1.2-7.2,2.1c0.4,0.9,7.4,0.1,8.2,0.2c0.8,0.1-4.9,2.4-4.5,3.4c0.4,0.9,5.4-1.3,6.3-1.9
				c0.9-0.7,5-0.4,6.5-1.7s0.9-4.5,0-5.3C45,150.1,43.1,149.4,43.1,149.4z"/>
		</g>
		<path class="st27" d="M22.5,98.4c4.9,0,12.8,0.5,16.6-1.6c7.7-4.4-14.5-13.5-27.3-23.3s29.1-16.4,37.6-12.1S87.1,90,87.7,97.9
			c0.6,7.9-20.7,27.9-20.7,27.9l-14.6-3C52.5,122.7,13,98.4,22.5,98.4z"/>
		
			<linearGradient id="SVGID_42_" gradientUnits="userSpaceOnUse" x1="13.4543" y1="221.7074" x2="61.672" y2="173.4897" gradientTransform="matrix(1 0 0 -1 0 276.8017)">
			<stop  offset="0" style="stop-color:#FFC76D"/>
			<stop  offset="1" style="stop-color:#E8E3E0"/>
		</linearGradient>
		<path class="st63" d="M1.5,67c0,0-1.5,4.1,0.6,4.6s4.3-1.1,4.3-1.1S5.3,79.1,8,78s4.8-2.6,4.8-2.6s-1,5.9,1.6,6.4
			c2.7,0.5,5.4-2.8,5.4-2.8s0,7.1,2.6,7.1s5.7-3.2,5.7-3.2s-2.5,5.3,1.8,5.9c4.3,0.5,5.4-1.6,5.4-1.6s0.5,4.4,3.2,4.8
			c3.7,0.5,5.1-1.9,5.1-1.9s3,4,4,3.5c1.1-0.5,5.9-2.7,5.9-2.7s-0.5,3.7,2.1,3.7s7-3.7,7-3.7s0,3.7,2.1,3.2s3.7-3.7,3.7-3.7
			s1.1,2.7,3.2,2.1c2.1-0.5,4.3-4.3,4.3-4.3L1.5,67z"/>
		
			<linearGradient id="SVGID_43_" gradientUnits="userSpaceOnUse" x1="-11.1422" y1="65.1751" x2="48.1425" y2="58.9997" gradientTransform="matrix(0.9996 2.982325e-02 2.982325e-02 -0.9996 29.2286 169.8153)">
			<stop  offset="0" style="stop-color:#FFC76D"/>
			<stop  offset="1" style="stop-color:#E8E3E0"/>
		</linearGradient>
		<path class="st64" d="M79.2,111.2c0,0-3.2-7.5-6.4-5.4c-2.9,1.9-1.6,4.3-1.6,4.3s-1.6-3.7-3.7-2.1s-2.1,4.3-2.1,4.3
			s-1-5.3-3.7-3.2c-2.7,2.1-2.8,5.1-2.8,5.1s0.2-5.6-2.5-4.6s-2.2,2.8-2.2,2.8s-0.4-4.4-3.1-3.4s-3.3,2.1-3.3,2.1s-0.9-5.2-3.1-3.2
			c-2.2,2.1-2.7,2.5-2.7,2.5s0.6-5.1-2.1-4.6s-3.7,1.7-3.7,1.7s1.6-3.8-1.6-3.9s-3,1.9-3,1.9s0.4-6.1-2.3-4.1c-2.7,2.1-3,2.3-3,2.3
			s4.3-8.3,0.9-8.2c-3.4,0.1-3.8,5.4-3.8,5.4s1.6-7.5-0.5-7s-1.2,5.4-1.2,5.4s10.9,10.6,11.9,11.2s41.4,12,41.4,12L79.2,111.2z"/>
		<g>
			<path class="st30" d="M60.5,191.3c0,0,6.7,16.7,7.4,20.4c0.6,3.6-9.3,5.4-10.2,8c-0.9,2.6,6.4,1.1,6.4,1.1s2.5,2.4,4.8,1.8
				c1.5-0.4,8.3-1,12.9-1.3c2.3-0.2,4-2.3,3.7-4.6l-2.8-20.2C82.6,196.4,61.8,181.9,60.5,191.3z"/>
			<path class="st31" d="M84.8,211.8c0,0-9.1-7.5-14.6-9.3s-3.9,4.2-3.9,4.2L60.5,191c0,0,19.7,3,20.2,3.6s3.1,5.1,3.1,5.1
				L84.8,211.8z"/>
			<path class="st15" d="M62.5,221.1c0,0,0.6-4.1-1-4s-4.6,1.9-5.2,3.1C55.7,221.4,62.5,221.1,62.5,221.1z"/>
			<path class="st15" d="M69.7,222.4c0,0,0.6-3.5-1.9-3.5c-2.4,0-5.5,1.2-6.1,3S69.7,222.4,69.7,222.4z"/>
		</g>
		<path class="st32" d="M111.9,169.6c0,0,9.1-22.2,6.4-23.6c-2.7-1.3-10.9-7.2-9.6-10.2c1.2-3,23.5-11.5,20.9-12.8
			c-2.7-1.3-9.6-16.6-9.6-16.6s23.3-5.9,21.6-7.1s-11.5-10.2-11.5-10.2l13.4-12.9l-13.3-6.1c0,0-4.4-13,0.9-16.8
			c5.4-3.7-24.6,1.1-24.6,1.1l-28.4,98"/>
		<path class="st32" d="M109.7,167.4l17.1-13.3l8.6,12.3l2.9-11.6l13.7,2l4.6-9.9l6.7,6.7c0,0-20,20-26.7,25.5s-27.3,3-27.3,3
			L109.7,167.4z"/>
		
			<linearGradient id="SVGID_44_" gradientUnits="userSpaceOnUse" x1="1.818989e-12" y1="155.9633" x2="163.2" y2="155.9633" gradientTransform="matrix(1 0 0 -1 0 276.8017)">
			<stop  offset="0" style="stop-color:#6BC62A"/>
			<stop  offset="1" style="stop-color:#00B53E"/>
		</linearGradient>
		<path class="st65" d="M129.9,170.5c-31.9-3.1-29.2-27.7-20.1-43.2c0.1-0.1,0.1-0.2,0-0.3c12.8-13.2,26.4-39.3,23.1-48.9
			C128.6,65.8,56.3,12,33.3,16.8S0,65.3,0,65.3c4,15.2,49,32.2,68.8,26.5c7.7-2.3,13.5-3.7,16.9,2.9c1.8,3.5,0,8.1-18.2,15
			C52,115.6,28.1,105.2,24.1,99c-3.4-5.4-12.9,2.5-3.8,10.1c6,5,20.4,13.9,43.8,20.4c-2.2,3.3-5.1,8.3-5.8,10.2
			c-1,2.8-4.1,8.9-5.9,14.5c-1.7,5.6-5.5,12.6-6.4,21.4c-0.9,8.8,6.9,18.9,14.9,21.5s12.6,3.3,19.9,5.6c4.1,3.9,8.9,7.3,12.7,11.7
			c-5.1,0.9-11.6,2-15,6.2c1.6,1.7,3.4,2.8,5.6,3.1c3.5,0.5,5.6,0.8,9.4,1.3c2.6,0.3,6.9-0.3,10.7-0.6c2.8-0.2,4.9-2.6,5-5.4
			c0.1-5.1-0.4-9.7,0.1-15.3c25.1-1.8,37.8-29.4,53.9-50C153.1,152.9,139.9,171.5,129.9,170.5z"/>
		<path class="st15" d="M82,222.4c0,0,0.6-4.1-1-4s-4.6,1.9-5.2,3.1C75.3,222.7,82,222.4,82,222.4z"/>
		<path class="st15" d="M89.2,223.8c0,0,0.6-3.5-1.8-3.5s-5.5,1.2-6.1,3S89.2,223.8,89.2,223.8z"/>
		<path class="st31" d="M80.8,202.8c0,0,28.4-0.8,28.4,0.5c0,1.1-0.2,10.9,0,13.4s-4.8-4.2-13.9-7.3S80.8,202.8,80.8,202.8z"/>
		<g>
			<g>
				<path class="st34" d="M33.8,61.1c-3.2,6.1-7.8,10.1-10.2,8.8c-2.5-1.3-1.9-7.3,1.3-13.4c3.2-6.1,7.8-10.1,10.2-8.8
					C37.5,49,37,55,33.8,61.1z"/>
				<path class="st27" d="M34.7,61.8c-3.2,6.1-7.8,10.1-10.2,8.8c-2.5-1.3-1.9-7.3,1.3-13.4c3.2-6.1,7.8-10.1,10.2-8.8
					C38.5,49.6,37.9,55.6,34.7,61.8z"/>
			</g>
			<g>
				<path class="st34" d="M18,48.2c-2.5,4.7-6,7.8-7.9,6.8s-1.5-5.7,1-10.4s6-7.8,7.9-6.8C21,38.8,20.5,43.5,18,48.2z"/>
				<path class="st27" d="M18.8,48.7c-2.5,4.7-6,7.8-7.9,6.8s-1.5-5.7,1-10.4s6-7.8,7.9-6.8C21.7,39.3,21.3,43.9,18.8,48.7z"/>
			</g>
		</g>
		<g>
			<g>
				<path class="st32" d="M99.8,74.7c0,0,2.2,2.9,3,6.1s1.4,8,1.4,8l0.7-1.8c0,0,0.3,0.6,1.2,1.4c0.8,0.6,3.2,1.4,3.2,1.4
					s-0.7-3.4-1.6-7.3c-1.2-5.4-4.6-7.8-4.6-7.8l0.1,1.1C103.3,75.9,101.1,74.8,99.8,74.7z"/>
				<path class="st30" d="M104.2,76.2c0,0,1.7,1.5,2.8,4.6c1.1,3.1,1.6,6.9,1.6,6.9l-1.3-2.5l0.8,3.1c0,0-1.2-1.6-2.1-4.7
					c-0.9-3.2-3-7-3-7l1.5,0.7L104.2,76.2z"/>
			</g>
			<path class="st36" d="M94,81.7c0,0,7.6-0.9,5.3,6"/>
		</g>
		<path class="st32" d="M110.8,56.1c0,0-12.3-10.5-33-19.6c-19.7-8.7-33.4-12-33.4-12S44.5,4.8,63.1,0.4c9.1-2.1,24.5,3.8,22,4.8
			c-10.7,4.3-11.4,22.4-2.1,15c8-6.4,20.9,1.1,20.9,1.1s-13.1,8.2-8.6,9.1c5.4,1.1,18.6-2.5,15,1.6c-4.3,4.8-9.6,8.6-9.6,8.6
			s24.1-4.8,19.8,1.1S110.8,56.1,110.8,56.1z"/>
	</g>
	<g>
		<g>
			<path class="st26" d="M-125.1,152.8c0,0-21.9-3.7-22.9,0.4c-0.7,2.9,23.4,2.8,23.4,2.8L-125.1,152.8z"/>
			<path class="st26" d="M-145.1,149.4c0,0-5.9-7.3-6.6-5.1s2.1,5.7,2.1,5.7s-8.1-3.6-9.1-2.4s7.9,4.1,7.4,4.2s-8.8-0.6-8.5,0.6
				c0.2,1.2,8.1,1.3,8.2,1.8s-7.7,1.2-7.2,2.1c0.4,0.9,7.4,0.1,8.2,0.2c0.8,0.1-4.9,2.4-4.5,3.4c0.4,0.9,5.4-1.3,6.3-1.9
				c0.9-0.7,5-0.4,6.5-1.7s0.9-4.5,0-5.3C-143.2,150.1-145.1,149.4-145.1,149.4z"/>
		</g>
		<path class="st27" d="M-165.7,98.4c4.9,0,12.8,0.5,16.6-1.6c7.7-4.4-14.5-13.5-27.3-23.3s29.1-16.4,37.6-12.1s37.7,28.6,38.3,36.5
			c0.6,7.9-20.7,27.9-20.7,27.9l-14.6-3C-135.7,122.7-175.2,98.4-165.7,98.4z"/>
		
			<linearGradient id="SVGID_45_" gradientUnits="userSpaceOnUse" x1="-174.7569" y1="221.7074" x2="-126.5392" y2="173.4897" gradientTransform="matrix(1 0 0 -1 0 276.8017)">
			<stop  offset="0" style="stop-color:#FFC76D"/>
			<stop  offset="1" style="stop-color:#E8E3E0"/>
		</linearGradient>
		<path class="st66" d="M-186.7,67c0,0-1.5,4.1,0.6,4.6s4.3-1.1,4.3-1.1s-1.1,8.6,1.6,7.5s4.8-2.6,4.8-2.6s-1,5.9,1.6,6.4
			c2.7,0.5,5.4-2.8,5.4-2.8s0,7.1,2.6,7.1s5.7-3.2,5.7-3.2s-2.5,5.3,1.8,5.9c4.3,0.5,5.4-1.6,5.4-1.6s0.5,4.4,3.2,4.8
			c3.7,0.5,5.1-1.9,5.1-1.9s3,4,4,3.5c1.1-0.5,5.9-2.7,5.9-2.7s-0.5,3.7,2.1,3.7s7-3.7,7-3.7s0,3.7,2.1,3.2s3.7-3.7,3.7-3.7
			s1.1,2.7,3.2,2.1c2.1-0.5,4.3-4.3,4.3-4.3L-186.7,67z"/>
		
			<linearGradient id="SVGID_46_" gradientUnits="userSpaceOnUse" x1="-199.2613" y1="59.5625" x2="-139.9766" y2="53.3871" gradientTransform="matrix(0.9996 2.982325e-02 2.982325e-02 -0.9996 29.2286 169.8153)">
			<stop  offset="0" style="stop-color:#FFC76D"/>
			<stop  offset="1" style="stop-color:#E8E3E0"/>
		</linearGradient>
		<path class="st67" d="M-109,111.2c0,0-3.2-7.5-6.4-5.4c-2.9,1.9-1.6,4.3-1.6,4.3s-1.6-3.7-3.7-2.1s-2.1,4.3-2.1,4.3
			s-1-5.3-3.7-3.2c-2.7,2.1-2.8,5.1-2.8,5.1s0.2-5.6-2.5-4.6s-2.2,2.8-2.2,2.8s-0.4-4.4-3.1-3.4s-3.3,2.1-3.3,2.1s-0.9-5.2-3.1-3.2
			c-2.2,2.1-2.7,2.5-2.7,2.5s0.6-5.1-2.1-4.6s-3.7,1.7-3.7,1.7s1.6-3.8-1.6-3.9s-3,1.9-3,1.9s0.4-6.1-2.3-4.1c-2.7,2.1-3,2.3-3,2.3
			s4.3-8.3,0.9-8.2c-3.4,0.1-3.8,5.4-3.8,5.4s1.6-7.5-0.5-7s-1.2,5.4-1.2,5.4s10.9,10.6,11.9,11.2s41.4,12,41.4,12L-109,111.2z"/>
		<g>
			<path class="st30" d="M-127.7,191.3c0,0,6.7,16.7,7.4,20.4c0.6,3.6-9.3,5.4-10.2,8c-0.9,2.6,6.4,1.1,6.4,1.1s2.5,2.4,4.8,1.8
				c1.5-0.4,8.3-1,12.9-1.3c2.3-0.2,4-2.3,3.7-4.6l-2.8-20.2C-105.6,196.4-126.4,181.9-127.7,191.3z"/>
			<path class="st31" d="M-103.4,211.8c0,0-9.1-7.5-14.6-9.3s-3.9,4.2-3.9,4.2l-5.8-15.7c0,0,19.7,3,20.2,3.6s3.1,5.1,3.1,5.1
				L-103.4,211.8z"/>
			<path class="st15" d="M-125.7,221.1c0,0,0.6-4.1-1-4s-4.6,1.9-5.2,3.1C-132.5,221.4-125.7,221.1-125.7,221.1z"/>
			<path class="st15" d="M-118.5,222.4c0,0,0.6-3.5-1.9-3.5c-2.4,0-5.5,1.2-6.1,3S-118.5,222.4-118.5,222.4z"/>
		</g>
		<path class="st32" d="M-76.3,169.6c0,0,9.1-22.2,6.4-23.6c-2.7-1.3-10.9-7.2-9.6-10.2c1.2-3,23.5-11.5,20.9-12.8
			c-2.7-1.3-9.6-16.6-9.6-16.6s23.3-5.9,21.6-7.1s-11.5-10.2-11.5-10.2l13.4-12.9L-58,70.1c0,0-4.4-13,0.9-16.8
			c5.4-3.7-24.6,1.1-24.6,1.1l-28.4,98"/>
		<path class="st32" d="M-78.5,167.4l17.1-13.3l8.6,12.3l2.9-11.6l13.7,2l4.6-9.9l6.7,6.7c0,0-20,20-26.7,25.5s-27.3,3-27.3,3
			L-78.5,167.4z"/>
		
			<linearGradient id="SVGID_47_" gradientUnits="userSpaceOnUse" x1="-188.2112" y1="155.9633" x2="-25.0112" y2="155.9633" gradientTransform="matrix(1 0 0 -1 0 276.8017)">
			<stop  offset="0" style="stop-color:#6BC62A"/>
			<stop  offset="1" style="stop-color:#00B53E"/>
		</linearGradient>
		<path class="st68" d="M-58.3,170.5c-31.9-3.1-29.2-27.7-20.1-43.2c0.1-0.1,0.1-0.2,0-0.3c12.8-13.2,26.4-39.3,23.1-48.9
			c-4.3-12.3-76.6-66.1-99.6-61.3s-33.3,48.5-33.3,48.5c4,15.2,49,32.2,68.8,26.5c7.7-2.3,13.5-3.7,16.9,2.9c1.8,3.5,0,8.1-18.2,15
			c-15.5,5.9-39.4-4.5-43.4-10.7c-3.4-5.4-12.9,2.5-3.8,10.1c6,5,20.4,13.9,43.8,20.4c-2.2,3.3-5.1,8.3-5.8,10.2
			c-1,2.8-4.1,8.9-5.9,14.5c-1.7,5.6-5.5,12.6-6.4,21.4c-0.9,8.8,6.9,18.9,14.9,21.5s12.6,3.3,19.9,5.6c4.1,3.9,8.9,7.3,12.7,11.7
			c-5.1,0.9-11.6,2-15,6.2c1.6,1.7,3.4,2.8,5.6,3.1c3.5,0.5,5.6,0.8,9.4,1.3c2.6,0.3,6.9-0.3,10.7-0.6c2.8-0.2,4.9-2.6,5-5.4
			c0.1-5.1-0.4-9.7,0.1-15.3c25.1-1.8,37.8-29.4,53.9-50C-35.1,152.9-48.3,171.5-58.3,170.5z"/>
		<g>
			<path class="st2" d="M-157.7,139.4c0,0-13.3-8.3-4.1-22.6C-161.7,116.7-150.2,123.6-157.7,139.4z"/>
			<path class="st2" d="M-159.7,141.4c0,0-5.8,14.9-21.5,8.3C-181.3,149.7-176.6,136.7-159.7,141.4z"/>
			<path class="st2" d="M-166.3,135.7c0,0-15.6,3.7-19.1-13C-185.4,122.7-172.1,119.2-166.3,135.7z"/>
			<g>
				<path class="st2" d="M-168.4,135c0-0.1,7.6,1.7,10.7,4.4s6.3,6.1,7.8,8.5s2.1,5,2.2,6.8s-0.2,3-0.3,2.9c-0.1,0-0.1-1.1-0.4-2.9
					c-0.3-1.7-3.9-4.5-5.3-6.7C-155,145.7-168.4,135.1-168.4,135z"/>
			</g>
		</g>
		<path class="st15" d="M-106.2,222.4c0,0,0.6-4.1-1-4s-4.6,1.9-5.2,3.1C-112.9,222.7-106.2,222.4-106.2,222.4z"/>
		<path class="st15" d="M-99,223.8c0,0,0.6-3.5-1.8-3.5s-5.5,1.2-6.1,3S-99,223.8-99,223.8z"/>
		<path class="st31" d="M-107.4,202.8c0,0,28.4-0.8,28.4,0.5c0,1.1-0.2,10.9,0,13.4s-4.8-4.2-13.9-7.3S-107.4,202.8-107.4,202.8z"/>
		<g>
			<g>
				<path class="st34" d="M-154.4,61.1c-3.2,6.1-7.8,10.1-10.2,8.8c-2.5-1.3-1.9-7.3,1.3-13.4c3.2-6.1,7.8-10.1,10.2-8.8
					C-150.7,49-151.2,55-154.4,61.1z"/>
				<path class="st27" d="M-153.5,61.8c-3.2,6.1-7.8,10.1-10.2,8.8c-2.5-1.3-1.9-7.3,1.3-13.4c3.2-6.1,7.8-10.1,10.2-8.8
					C-149.7,49.6-150.3,55.6-153.5,61.8z"/>
			</g>
			<g>
				<path class="st34" d="M-170.2,48.2c-2.5,4.7-6,7.8-7.9,6.8s-1.5-5.7,1-10.4s6-7.8,7.9-6.8C-167.2,38.8-167.7,43.5-170.2,48.2z"
					/>
				<path class="st27" d="M-169.4,48.7c-2.5,4.7-6,7.8-7.9,6.8s-1.5-5.7,1-10.4s6-7.8,7.9-6.8C-166.5,39.3-166.9,43.9-169.4,48.7z"
					/>
			</g>
			<g>
				<path class="st35" d="M-155.9,42c0,0,4.8-2.5,8.6-0.4c7.2,4,2.9,14.8,2.9,14.8s2.3-6.3-4.9-12.2C-152.9,41.4-155.9,42-155.9,42z
					"/>
				<path class="st32" d="M-155.9,42c0,0,5.4,0.7,9.3,5.9s1.2,11,1.2,11s3.4-6-0.1-11.4C-148.9,42-155.9,42-155.9,42z"/>
				<path class="st25" d="M-153.9,43.7c0,0,5.8,3.5,6.8,8.9S-149,62-149,62s4-3.6,3.5-9.5C-146.2,46.3-153.9,43.7-153.9,43.7z"/>
			</g>
			<g>
				<path class="st35" d="M-169.4,34.5c0,0,2.8-1.5,5.1-0.2c4.3,2.4,1.7,8.8,1.7,8.8s1.3-3.7-2.9-7.2
					C-167.6,34.1-169.4,34.5-169.4,34.5z"/>
				<path class="st32" d="M-169.4,34.5c0,0,3.2,0.4,5.5,3.5c2.3,3.1,0.7,6.5,0.7,6.5s2-3.6-0.1-6.8
					C-165.3,34.5-169.4,34.5-169.4,34.5z"/>
				<path class="st25" d="M-168.2,35.5c0,0,3.4,2,4,5.2s-1.2,5.6-1.2,5.6s2.4-2.2,2.1-5.6C-163.6,37.1-168.2,35.5-168.2,35.5z"/>
			</g>
		</g>
		<g>
			<g>
				<path class="st32" d="M-88.4,74.7c0,0,2.2,2.9,3,6.1s1.4,8,1.4,8l0.7-1.8c0,0,0.3,0.6,1.2,1.4c0.8,0.6,3.2,1.4,3.2,1.4
					s-0.7-3.4-1.6-7.3c-1.2-5.4-4.6-7.8-4.6-7.8l0.1,1.1C-84.9,75.9-87.1,74.8-88.4,74.7z"/>
				<path class="st30" d="M-84,76.2c0,0,1.7,1.5,2.8,4.6c1.1,3.1,1.6,6.9,1.6,6.9l-1.3-2.5l0.8,3.1c0,0-1.2-1.6-2.1-4.7
					c-0.9-3.2-3-7-3-7l1.5,0.7L-84,76.2z"/>
			</g>
			<path class="st36" d="M-94.2,81.7c0,0,7.6-0.9,5.3,6"/>
		</g>
		<g>
			<path class="st37" d="M-125.5,149.1c-4.2-0.3-22.5,2.5-22.2,6.7c0.2,2.9,23.2-4.4,23.2-4.4S-121.3,149.4-125.5,149.1z"/>
			<path class="st37" d="M-146.1,151.3c0,0-7.9-5.2-7.8-2.9c0.1,2.2,3.7,4.8,3.7,4.8s-8.8-1-9.4,0.5s8.8,1.6,8.3,1.8
				c-0.4,0.2-8.6,2-8,3.1s8.1-1.2,8.4-0.8c0.2,0.4-7,3.4-6.3,4.2s7.1-2.1,7.9-2.2c0.8-0.1-4,3.7-3.2,4.6c0.7,0.8,4.7-2.8,5.4-3.7
				s4.6-1.9,5.7-3.6c1.1-1.7-0.5-4.6-1.6-5.1S-146.1,151.3-146.1,151.3z"/>
		</g>
		<path class="st32" d="M-77.4,56.1c0,0-12.3-10.5-33-19.6c-19.7-8.7-33.4-12-33.4-12s0.1-19.7,18.7-24.1c9.1-2.1,24.5,3.8,22,4.8
			c-10.7,4.3-11.4,22.4-2.1,15c8-6.4,20.9,1.1,20.9,1.1s-13.1,8.2-8.6,9.1c5.4,1.1,18.6-2.5,15,1.6c-4.3,4.8-9.6,8.6-9.6,8.6
			s24.1-4.8,19.8,1.1S-77.4,56.1-77.4,56.1z"/>
	</g>
	<g>
		<path class="st35" d="M185.8,8.2c0,0,4.8-2.5,8.6-0.4c7.2,4,2.9,14.8,2.9,14.8s2.3-6.3-4.9-12.2C188.8,7.6,185.8,8.2,185.8,8.2z"
			/>
		<path class="st32" d="M185.8,8.2c0,0,5.4,0.7,9.3,5.9s1.2,11,1.2,11s3.4-6-0.1-11.4C192.8,8.2,185.8,8.2,185.8,8.2z"/>
		<path class="st25" d="M187.8,9.9c0,0,5.8,3.5,6.8,8.9s-1.9,9.4-1.9,9.4s4-3.6,3.5-9.5C195.5,12.5,187.8,9.9,187.8,9.9z"/>
	</g>
	<g>
		<path class="st35" d="M172.3,0.7c0,0,2.8-1.5,5.1-0.2c4.3,2.4,1.7,8.8,1.7,8.8s1.3-3.7-2.9-7.2C174.1,0.3,172.3,0.7,172.3,0.7z"/>
		<path class="st32" d="M172.3,0.7c0,0,3.2,0.4,5.5,3.5s0.7,6.5,0.7,6.5s2-3.6-0.1-6.8C176.4,0.7,172.3,0.7,172.3,0.7z"/>
		<path class="st25" d="M173.5,1.7c0,0,3.4,2,4,5.2s-1.2,5.6-1.2,5.6s2.4-2.2,2.1-5.6C178.1,3.3,173.5,1.7,173.5,1.7z"/>
	</g>
	<g>
		<path class="st2" d="M200.1,56.7c0,0-13.3-8.3-4.1-22.6C196.1,34,207.6,40.9,200.1,56.7z"/>
		<path class="st2" d="M198.1,58.7c0,0-5.8,14.9-21.5,8.3C176.5,67,181.2,54,198.1,58.7z"/>
		<path class="st2" d="M191.5,53c0,0-15.6,3.7-19.1-13C172.4,40,185.7,36.5,191.5,53z"/>
		<g>
			<path class="st2" d="M189.4,52.3c0-0.1,7.6,1.7,10.7,4.4s6.3,6.1,7.8,8.5c1.5,2.4,2.1,5,2.2,6.8s-0.2,3-0.3,2.9
				c-0.1,0-0.1-1.1-0.4-2.9c-0.3-1.7-3.9-4.5-5.3-6.7C202.8,63,189.4,52.4,189.4,52.3z"/>
		</g>
	</g>
	<g>
		<path class="st37" d="M206.5,82.1c-4.2-0.3-22.5,2.5-22.2,6.7c0.2,2.9,23.2-4.4,23.2-4.4S210.7,82.4,206.5,82.1z"/>
		<path class="st37" d="M185.9,84.3c0,0-7.9-5.2-7.8-2.9c0.1,2.2,3.7,4.8,3.7,4.8s-8.8-1-9.4,0.5s8.8,1.6,8.3,1.8
			c-0.4,0.2-8.6,2-8,3.1s8.1-1.2,8.4-0.8c0.2,0.4-7,3.4-6.3,4.2s7.1-2.1,7.9-2.2c0.8-0.1-4,3.7-3.2,4.6c0.7,0.8,4.7-2.8,5.4-3.7
			s4.6-1.9,5.7-3.6c1.1-1.7-0.5-4.6-1.6-5.1S185.9,84.3,185.9,84.3z"/>
	</g>
</g>
</svg>
