<?xml version="1.0" encoding="utf-8"?>
<!-- Generator: Adobe Illustrator 23.0.1, SVG Export Plug-In . SVG Version: 6.00 Build 0)  -->
<svg version="1.1" xmlns="http://www.w3.org/2000/svg" xmlns:xlink="http://www.w3.org/1999/xlink" x="0px" y="0px" width="102.3px"
	 height="46.7px" viewBox="0 0 102.3 46.7" style="enable-background:new 0 0 102.3 46.7;" xml:space="preserve">
<style type="text/css">
	.st0{fill:#FFFFFF;}
	.st1{clip-path:url(#SVGID_2_);}
	.st2{fill:#6BC62A;}
	.st3{clip-path:url(#SVGID_4_);}
	.st4{fill:none;stroke:#7A6356;stroke-width:3;stroke-linecap:round;stroke-linejoin:round;stroke-miterlimit:10;}
	.st5{fill:#7A6356;}
	.st6{fill:#FFFFFF;stroke:#7A6356;stroke-width:3;stroke-linecap:round;stroke-linejoin:round;stroke-miterlimit:10;}
	.st7{fill:#009380;}
	.st8{fill:url(#SVGID_5_);}
	.st9{fill:url(#SVGID_6_);}
	.st10{fill:#A60C17;}
	.st11{fill:url(#SVGID_7_);}
	.st12{fill:#E02229;}
	.st13{opacity:0.88;fill:#D50000;enable-background:new    ;}
	.st14{fill:url(#SVGID_8_);}
	.st15{fill:#491B02;}
	.st16{fill:url(#SVGID_9_);}
	.st17{fill:url(#SVGID_10_);}
	.st18{fill:url(#SVGID_11_);}
	.st19{fill:#680200;}
	.st20{fill:#A30B05;}
	.st21{fill:#FF5B56;}
	.st22{fill:#A40000;}
	.st23{opacity:0.5;fill:#D50000;enable-background:new    ;}
	.st24{fill:#6A1100;}
	.st25{opacity:0.43;fill:#FFFFFF;enable-background:new    ;}
	.st26{fill:#006325;}
	.st27{fill:#004B25;}
	.st28{fill:url(#SVGID_12_);}
	.st29{fill:url(#SVGID_13_);}
	.st30{fill:#00923D;}
	.st31{opacity:0.4;fill:#006830;enable-background:new    ;}
	.st32{fill:#006830;}
	.st33{fill:url(#SVGID_14_);}
	.st34{fill:#D6E000;}
	.st35{opacity:0.5;fill:#00923D;enable-background:new    ;}
	.st36{fill:none;stroke:#000000;stroke-width:2;stroke-linecap:round;stroke-linejoin:round;stroke-miterlimit:10;}
	.st37{fill:#00962B;}
	.st38{fill:url(#SVGID_15_);}
	.st39{fill:url(#SVGID_16_);}
	.st40{fill:url(#SVGID_17_);}
	.st41{fill:url(#SVGID_18_);}
	.st42{fill:url(#SVGID_19_);}
	.st43{fill:url(#SVGID_20_);}
	.st44{fill:url(#SVGID_21_);}
	.st45{clip-path:url(#SVGID_23_);}
	.st46{fill:url(#SVGID_24_);}
	.st47{fill:url(#SVGID_25_);}
	.st48{fill:url(#SVGID_26_);}
	.st49{clip-path:url(#SVGID_28_);}
	.st50{fill:url(#SVGID_29_);}
	.st51{fill:url(#SVGID_30_);}
	.st52{fill:url(#SVGID_31_);}
	.st53{fill:url(#SVGID_32_);}
	.st54{fill:url(#SVGID_33_);}
	.st55{fill:url(#SVGID_34_);}
	.st56{fill:url(#SVGID_35_);}
	.st57{fill:url(#SVGID_36_);}
	.st58{fill:url(#SVGID_37_);}
	.st59{fill:url(#SVGID_38_);}
	.st60{fill:url(#SVGID_39_);}
	.st61{fill:url(#SVGID_40_);}
	.st62{fill:url(#SVGID_41_);}
</style>
<g id="Layer_2">
	<rect x="-1473" y="-350" class="st0" width="1146.2" height="404.9"/>
</g>
<g id="green">
	<g>
		<defs>
			<rect id="SVGID_1_" x="-811.3" y="-140.7" width="49.7" height="58"/>
		</defs>
		<clipPath id="SVGID_2_">
			<use xlink:href="#SVGID_1_"  style="overflow:visible;"/>
		</clipPath>
		<g class="st1">
			<path class="st2" d="M-780-98.9c0,0-4-20.3,18.1-24.4C-761.9-123.3-758.1-106-780-98.9z"/>
			<path class="st2" d="M-783.2-98.7c0,0-20.3,7.5-28.1-13.7C-811.3-112.3-794-119.1-783.2-98.7z"/>
			<path class="st2" d="M-784.4-110.6c0,0-17.7-11.7-4.8-30.1C-789.2-140.7-773.7-131.1-784.4-110.6z"/>
			<g>
				<path class="st2" d="M-785.6-113.2c0,0,0.4-2.1,1.3-0.4c1.6,3.1,4.1,11.2,4.2,14.7c0.2,5.4-0.1,11.6-1.1,15.2
					c-1,3.6-2.8,6.5-4.5,8.3c-1.6,1.8-3,2.5-3.1,2.4c-0.1-0.1,1-1.1,2.4-2.9c1.4-1.8-0.5,1.2,1.7-11.2
					C-782.8-97.6-785.6-113.2-785.6-113.2z"/>
			</g>
		</g>
	</g>
	<g>
		<defs>
			<rect id="SVGID_3_" x="-230" y="91.9" width="49.7" height="58"/>
		</defs>
		<clipPath id="SVGID_4_">
			<use xlink:href="#SVGID_3_"  style="overflow:visible;"/>
		</clipPath>
		<g class="st3">
			<path class="st2" d="M-198.7,133.7c0,0-4-20.3,18.1-24.4C-180.6,109.3-176.8,126.6-198.7,133.7z"/>
			<path class="st2" d="M-201.9,134c0,0-20.3,7.5-28.1-13.7C-230,120.3-212.7,113.5-201.9,134z"/>
			<path class="st2" d="M-203.1,122c0,0-17.7-11.7-4.8-30.1C-207.9,91.9-192.4,101.6-203.1,122z"/>
			<g>
				<path class="st2" d="M-204.2,119.4c0,0,0.4-2.1,1.3-0.4c1.6,3.1,4.1,11.2,4.2,14.7c0.2,5.4-0.1,11.6-1.1,15.2
					c-1,3.6-2.8,6.5-4.5,8.3c-1.6,1.8-3,2.5-3.1,2.4c-0.1-0.1,1-1.1,2.4-2.9c1.4-1.8-0.5,1.2,1.7-11.2
					C-201.5,135-204.3,119.4-204.2,119.4z"/>
			</g>
		</g>
	</g>
</g>
<g id="fire">
</g>
<g id="Layer_1">
	<line class="st4" x1="-1000.4" y1="-191" x2="-782.8" y2="-191"/>
	<circle class="st5" cx="-891.6" cy="-214.4" r="3.8"/>
	<path class="st5" d="M-884.2-234.8c-3.4-4.1-5.8-11.8-6.9-15.2c-0.1-0.5-0.8-0.5-1,0c-0.8,3-2.9,9.3-6.9,14.7
		c-3.7,5,0.4,12.3,7.3,12.3c0,0,0,0,0.1,0c0,0,0,0,0.1,0C-884.7-223-880.3-230-884.2-234.8z M-890.8-226c-3.4,0.6-6.2-2.3-5.7-5.7
		c0.3-2,2-3.7,4-4c3.4-0.6,6.2,2.3,5.7,5.7C-887.1-228-888.8-226.3-890.8-226z"/>
	<line class="st4" x1="-891.6" y1="-191" x2="-891.6" y2="-224.2"/>
	<circle class="st6" cx="-891.6" cy="-191.6" r="12"/>
	<g>
		<path class="st7" d="M-830.6-81.2c9.5,17.3,27,28.8,47,28.8c20,0,37.5-11.6,47-28.8H-830.6z"/>
		<polygon class="st4" points="-783.6,-189.4 -831,-81.2 -736.3,-81.2 		"/>
		<circle class="st2" cx="-783.6" cy="-189.9" r="6.5"/>
	</g>
	<g>
		<linearGradient id="SVGID_5_" gradientUnits="userSpaceOnUse" x1="-1046.4426" y1="-66.7427" x2="-952.5085" y2="-66.7427">
			<stop  offset="0" style="stop-color:#FF3A2D"/>
			<stop  offset="1" style="stop-color:#D50000"/>
		</linearGradient>
		<path class="st8" d="M-1046.4-81.2c9.5,17.3,27,28.8,47,28.8c20,0,37.5-11.6,47-28.8H-1046.4z"/>
		<polygon class="st4" points="-999.5,-189.4 -1046.8,-81.2 -952.2,-81.2 		"/>
		<linearGradient id="SVGID_6_" gradientUnits="userSpaceOnUse" x1="-1006.0031" y1="-189.9487" x2="-992.9481" y2="-189.9487">
			<stop  offset="0" style="stop-color:#FF3A2D"/>
			<stop  offset="1" style="stop-color:#D50000"/>
		</linearGradient>
		<circle class="st9" cx="-999.5" cy="-189.9" r="6.5"/>
	</g>
	<g>
		<path class="st10" d="M-1183.8-142.9c0,0-0.2-1.8-9.7-1.8c-4.9,0-10.3-1.8-10.9-6.7c-1.1-8.8,9.7-19.4,22.5-29.1
			c12.8-9.7-29.1-16.4-37.6-12.1c-8.5,4.2-27.9,36.4-28.5,44.3c-0.6,7.9,10.9,20,10.9,20l14.6-3L-1183.8-142.9z"/>
		<path class="st10" d="M-1288.8-91.9c-0.7-1.8-0.8-18.3,1.2-17.6s13,0.3,13,0.3s-15-17.2-12.4-18.5c2.7-1.3,23.9-1.3,22.7-4.4
			c-1.2-3-22.4-8.8-19.8-10.1c2.6-1.3,9.7-14.2,9.7-14.2s-18.6-1.4-16.9-2.6c1.7-1.2,11.5-10.2,11.5-10.2l-13.4-12.9l13.3-6.1
			c0,0-7-15-5.2-15.2l26.7,2.2l6.7,99L-1288.8-91.9"/>
		<path class="st10" d="M-1288.8-91.9l-10.3-9.1l-8.6,16l-2.9-15.4l-14.2,3.1l-4-11l-6.7,6.7c0,0,20,20,26.7,25.5
			c6.7,5.5,27.3,3,27.3,3L-1288.8-91.9z"/>
		
			<linearGradient id="SVGID_7_" gradientUnits="userSpaceOnUse" x1="-1196.184" y1="854.7714" x2="-1110.1036" y2="854.7714" gradientTransform="matrix(0.9906 -0.1366 -0.1366 -0.9906 64.9996 514.9941)">
			<stop  offset="0" style="stop-color:#E6E6E6"/>
			<stop  offset="1" style="stop-color:#FF9300"/>
		</linearGradient>
		<path class="st11" d="M-1224.9-154.6l6.1,2.8l-1.1-8.2l7.5,3.8l-1-7.9c0,0,6.2,2.3,7.2,1.8s2.9-7.1,2.9-7.1l4.4,2.2l1.7-5.4l5,4.7
			l2.4-5.5l4.3,0.9l1-6.2l8.7,3.6l2.2-7.2l6.1,4.4l0.1-9.2c0,0,8.2,7.2,8,6c-0.1-1.2-0.9-8.7-0.9-8.7s8.5,5.5,8.2,4.8
			c-0.3-0.7-3-12.1-3-12.1l-8.9-0.2l-71.5,37.6L-1224.9-154.6z"/>
		<path class="st12" d="M-1224.4-66.6c0,0-6.7,16.7-7.3,20.4c-0.6,3.6,9.3,5.3,10.2,7.9c0.9,2.6-6.4,1.2-6.4,1.2s-2.5,2.4-4.8,1.8
			c-1.5-0.4-8.3-0.9-12.9-1.3c-2.3-0.2-4-2.3-3.7-4.6l2.8-20.3C-1246.5-61.4-1225.8-76-1224.4-66.6z"/>
		<path class="st13" d="M-1248.7-46c0,0,9.1-7.5,14.6-9.3s3.9,4.2,3.9,4.2l5.8-15.7c0,0-19.7,3.1-20.2,3.7s-3.1,5.1-3.1,5.1
			L-1248.7-46z"/>
		<g>
			
				<linearGradient id="SVGID_8_" gradientUnits="userSpaceOnUse" x1="-1303.285" y1="821.8043" x2="-1109.8374" y2="821.8043" gradientTransform="matrix(0.9906 -0.1366 -0.1366 -0.9906 64.9996 514.9941)">
				<stop  offset="0" style="stop-color:#FF3A2D"/>
				<stop  offset="1" style="stop-color:#D50000"/>
			</linearGradient>
			<path class="st14" d="M-1225.4-103.9c1.7,5.6,5.9,17.6,6.8,26.4c0.9,8.8-6.6,16.7-14.7,19.3s-12.6,3.3-19.9,5.6
				c-4.1,3.9-8.9,7.3-12.7,11.7c5.1,0.9,11.6,2,15,6.2c-1.6,1.7-3.4,2.8-5.6,3.1c-3.5,0.5-5.6,0.8-9.4,1.3
				c-2.6,0.3-6.9-0.3-10.7-0.6c-2.8-0.2-4.9-2.6-5-5.4c-0.1-5.1,0.4-9.7-0.1-15.3c-25.1-1.8-37.8-29.4-53.9-50
				c10.2-0.6,23.3,17.4,33.4,17c10.1-0.4,31.8-29,35.4-39.2s-8.8-26.3-13.5-40.4c-4.7-14.2-7.7-24.6,10-38.1s65.5-48,82.3-36.3
				c16.8,11.8,41.6,33.9,31.9,45.2c-9.6,11.3-72.3,27.4-74.2,47.4s4.4,12.1,12.5,9.4c7.4-2.4,29.2-11.4,34-6.5
				c4.8,4.9-12.7,8.4-27.8,11.8c-14.3,3.2-19.3,10.1-20.9,10.3c-1.6,0.2,3.9,6.8,4.8,9.6C-1226.6-108.7-1227.1-109.4-1225.4-103.9z"
				/>
		</g>
		<path class="st15" d="M-1226.3-36.8c0,0-0.6-4.1,1-4s4.6,1.9,5.2,3.1C-1219.6-36.5-1226.3-36.8-1226.3-36.8z"/>
		<path class="st15" d="M-1233.6-35.4c0,0-0.6-3.5,1.8-3.5s5.5,1.2,6.1,3S-1233.6-35.4-1233.6-35.4z"/>
		<path class="st15" d="M-1254.3-32.7c0,0-0.6-4.1,1-4s4.6,1.9,5.2,3.1C-1247.5-32.4-1254.3-32.7-1254.3-32.7z"/>
		<path class="st15" d="M-1261.5-31.3c0,0-0.6-3.5,1.8-3.5s5.5,1.2,6.1,3C-1253-30-1261.5-31.3-1261.5-31.3z"/>
		<path class="st13" d="M-1253-53c0,0-27.3,1.2-28.5,0.6c-1.2-0.6,0.4,10.9,0.2,13.3s4.7-3.6,13.8-6.6S-1253-53-1253-53z"/>
		<g>
			
				<linearGradient id="SVGID_9_" gradientUnits="userSpaceOnUse" x1="-1177.718" y1="508.407" x2="-1074.6537" y2="508.407" gradientTransform="matrix(0.9932 -0.1162 -0.101 -0.8634 28.3318 143.8756)">
				<stop  offset="0.1522" style="stop-color:#FF3A2D"/>
				<stop  offset="0.1907" style="stop-color:#FF462A"/>
				<stop  offset="0.4015" style="stop-color:#FF811B"/>
				<stop  offset="0.5953" style="stop-color:#FFB00F"/>
				<stop  offset="0.7658" style="stop-color:#FFD207"/>
				<stop  offset="0.9065" style="stop-color:#FFE702"/>
				<stop  offset="1" style="stop-color:#FFEE00"/>
			</linearGradient>
			<path class="st16" d="M-1192.9-159.9c0-0.1,0-0.2,0.1-0.2c1.9-0.9,27.6-13.6,37-15.2c11.3-1.9,21-0.7,26.6-5.5
				c3.9-3.3,4.4-6.3,4.4-7.6c0-0.2,0.3-0.3,0.4-0.1c1.2,1.9,4.1,7.3,1.8,10.5c-2.1,2.9-4.6,5.3-6.1,6.5c-0.2,0.2,0,0.4,0.2,0.3
				c3-1.4,10.5-4.8,14.8-5.6c7.6-1.4,18.1,1.6,22.8,4.2c0.6,0.3,0.4,1.2-0.3,1.3c-3.4,0.3-10.2,1.4-13.7,5.3
				c-4.8,5.3-21.6,27-40.1,23.6C-1163.4-145.7-1192.7-154.4-1192.9-159.9z"/>
			
				<linearGradient id="SVGID_10_" gradientUnits="userSpaceOnUse" x1="-1172.2843" y1="503.4356" x2="-1106.3422" y2="503.4356" gradientTransform="matrix(0.9932 -0.1162 -0.101 -0.8634 28.3318 143.8756)">
				<stop  offset="0.1522" style="stop-color:#FF5A19"/>
				<stop  offset="1" style="stop-color:#FFEE00"/>
			</linearGradient>
			<path class="st17" d="M-1187.3-158.7c0,0,30-12.5,42.3-8.4c12.3,4.1,13.7,10,20.7,8c11.3-3.3-8.6,10.3-20.6,8.6
				C-1156.9-152.3-1187.3-158.7-1187.3-158.7z"/>
			
				<linearGradient id="SVGID_11_" gradientUnits="userSpaceOnUse" x1="-1170.4905" y1="504.2111" x2="-1119.9926" y2="504.2111" gradientTransform="matrix(0.9932 -0.1162 -0.101 -0.8634 28.3318 143.8756)">
				<stop  offset="0.1522" style="stop-color:#FFB02A"/>
				<stop  offset="0.9393" style="stop-color:#FFEE00"/>
			</linearGradient>
			<path class="st18" d="M-1185.6-159.1c0,0,21.5-5.6,28.8-5.6c7.3-0.1,10.6,2.3,16.2,4.3c1.3,0.5,4.3,1,5.8,1.3
				c0.3,0,0.3,0.4,0.1,0.5c-2.1,1-8.4,3.9-14.4,4.9C-1156.6-152.4-1185.6-159.1-1185.6-159.1z"/>
		</g>
		<g>
			<path class="st19" d="M-1231.4-171.4c0,0-3.2-1.9-6.4-2.4s-8.1-0.6-8.1-0.6l1.7-0.9c0,0-0.7-0.2-1.5-1.1
				c-0.7-0.7-1.8-3.1-1.8-3.1s3.5,0.4,7.4,0.8c5.5,0.7,8.2,3.8,8.2,3.8h-1.1C-1233-174.8-1231.6-172.7-1231.4-171.4z"/>
			<path class="st20" d="M-1233.4-175.6c0,0-1.6-1.5-4.8-2.3c-3.2-0.8-7-0.9-7-0.9l2.7,1l-3.2-0.5c0,0,1.7,1,4.9,1.6
				c3.2,0.6,7.3,2.3,7.3,2.3l-0.8-1.4L-1233.4-175.6z"/>
		</g>
		<path class="st10" d="M-1232.3-112.6c0,0,0.8,0.3,5.4,0.6s6-7.3,9-8s1.1,5.9,1.6,6.6c0.4,0.7,1.5-4.1,1.5-4.1s0.1,4.3,0.8,3.9
			c0.7-0.4,1-5.4,1-5.4s1.2,8.3,2.1,2.5c1-5.8-3.4-7.7-6.1-8.6c-2.7-0.9-6.9,7.1-9.6,7.8c-2.6,0.6-6.7-2.8-6.7-2.8L-1232.3-112.6z"
			/>
		<g>
			<circle cx="-1237.7" cy="-166.3" r="4.2"/>
			<circle class="st0" cx="-1237.4" cy="-167.1" r="1.5"/>
			<circle class="st0" cx="-1239" cy="-164.6" r="0.7"/>
		</g>
		<path class="st10" d="M-1257.4-106.9c0,0,0.8,0.1,5.3-1s3.5-8.8,6.1-10.3c2.6-1.5,2.8,5.3,3.5,5.9c0.6,0.6,0.2-4.4,0.2-4.4
			s1.4,4.1,1.9,3.5c0.6-0.6-0.7-5.5-0.7-5.5s3.6,7.5,2.8,1.7s-5.5-6.3-8.4-6.3c-2.9,0-4.5,8.9-6.8,10.3c-2.3,1.4-7.3-0.6-7.3-0.6
			L-1257.4-106.9z"/>
		<g>
			<path class="st21" d="M-1191.1-200.4c3.2,6.1,7.8,10.1,10.2,8.8c2.5-1.3,1.9-7.3-1.3-13.4c-3.2-6.1-7.8-10.1-10.2-8.8
				C-1194.8-212.5-1194.2-206.5-1191.1-200.4z"/>
			<path class="st22" d="M-1192-199.8c3.2,6.1,7.8,10.1,10.2,8.8c2.5-1.3,1.9-7.3-1.3-13.4c-3.2-6.1-7.8-10.1-10.2-8.8
				C-1195.8-211.9-1195.2-205.9-1192-199.8z"/>
		</g>
		<g>
			<path class="st21" d="M-1175.3-213.3c2.5,4.7,6,7.8,7.9,6.8c1.9-1,1.5-5.7-1-10.4s-6-7.8-7.9-6.8
				C-1178.2-222.7-1177.8-218.1-1175.3-213.3z"/>
			<path class="st22" d="M-1176.1-212.8c2.5,4.7,6,7.8,7.9,6.8s1.5-5.7-1-10.4s-6-7.8-7.9-6.8
				C-1179-222.2-1178.5-217.6-1176.1-212.8z"/>
		</g>
		<g>
			<path class="st23" d="M-1189.6-219.5c0,0-4.8-2.5-8.6-0.4c-7.2,4-2.9,14.8-2.9,14.8s-2.3-6.3,4.9-12.2
				C-1192.5-220.1-1189.6-219.5-1189.6-219.5z"/>
			<path class="st24" d="M-1189.6-219.5c0,0-5.4,0.7-9.3,5.9s-1.2,11-1.2,11s-3.4-6,0.1-11.4
				C-1196.5-219.5-1189.6-219.5-1189.6-219.5z"/>
			<path class="st25" d="M-1191.5-217.9c0,0-5.8,3.5-6.8,8.9c-1,5.4,1.9,9.4,1.9,9.4s-4-3.6-3.5-9.5
				C-1199.3-215.2-1191.5-217.9-1191.5-217.9z"/>
		</g>
		<g>
			<path class="st23" d="M-1176.1-227c0,0-2.8-1.5-5.1-0.2c-4.3,2.4-1.7,8.8-1.7,8.8s-1.3-3.7,2.9-7.2
				C-1177.8-227.4-1176.1-227-1176.1-227z"/>
			<path class="st24" d="M-1176.1-227c0,0-3.2,0.4-5.5,3.5c-2.3,3.1-0.7,6.5-0.7,6.5s-2-3.6,0.1-6.8
				C-1180.2-227-1176.1-227-1176.1-227z"/>
			<path class="st25" d="M-1177.3-226c0,0-3.4,2-4,5.2s1.2,5.6,1.2,5.6s-2.4-2.2-2.1-5.6C-1181.8-224.4-1177.3-226-1177.3-226z"/>
		</g>
		<path class="st10" d="M-1270-202.4c0,0,11.5-10.3,32.2-19.4c19.7-8.7,29.7-9.1,29.7-9.1s-4.9-12.7,6.7-17.6
			c11.6-4.9-11.5-12.1-22.5,0c-6.9,7.7-10.3-6.7-10.3-6.7l-9.1,21.9l-12.1-3.6l-3.6,18.8l-13.4,1.2L-1270-202.4z"/>
	</g>
	<g>
		<g>
			<path class="st26" d="M-577.7-102.3c0,0-21.9-3.7-22.9,0.4c-0.7,2.9,23.4,2.8,23.4,2.8L-577.7-102.3z"/>
			<path class="st26" d="M-597.7-105.7c0,0-5.9-7.3-6.6-5.1s2.1,5.7,2.1,5.7s-8.1-3.6-9.1-2.4s7.9,4.1,7.4,4.2s-8.8-0.6-8.5,0.6
				c0.2,1.2,8.1,1.3,8.2,1.8c0.1,0.5-7.7,1.2-7.2,2.1c0.4,0.9,7.4,0.1,8.2,0.2c0.8,0.1-4.9,2.4-4.5,3.4c0.4,0.9,5.4-1.3,6.3-1.9
				c0.9-0.7,5-0.4,6.5-1.7s0.9-4.5,0-5.3C-595.8-105-597.7-105.7-597.7-105.7z"/>
		</g>
		<path class="st27" d="M-618.3-156.7c4.9,0,12.8,0.5,16.6-1.6c7.7-4.4-14.5-13.5-27.3-23.3s29.1-16.4,37.6-12.1
			c8.5,4.3,37.7,28.6,38.3,36.5c0.6,7.9-20.7,27.9-20.7,27.9l-14.6-3C-588.3-132.4-627.8-156.7-618.3-156.7z"/>
		
			<linearGradient id="SVGID_12_" gradientUnits="userSpaceOnUse" x1="-627.3611" y1="660.7308" x2="-579.1434" y2="612.5131" gradientTransform="matrix(1 0 0 -1 0 460.6379)">
			<stop  offset="0" style="stop-color:#FFC76D"/>
			<stop  offset="1" style="stop-color:#E8E3E0"/>
		</linearGradient>
		<path class="st28" d="M-639.3-188.1c0,0-1.5,4.1,0.6,4.6c2.1,0.5,4.3-1.1,4.3-1.1s-1.1,8.6,1.6,7.5c2.7-1.1,4.8-2.6,4.8-2.6
			s-1,5.9,1.6,6.4c2.7,0.5,5.4-2.8,5.4-2.8s0,7.1,2.6,7.1c2.6,0,5.7-3.2,5.7-3.2s-2.5,5.3,1.8,5.9c4.3,0.5,5.4-1.6,5.4-1.6
			s0.5,4.4,3.2,4.8c3.7,0.5,5.1-1.9,5.1-1.9s3,4,4,3.5c1.1-0.5,5.9-2.7,5.9-2.7s-0.5,3.7,2.1,3.7c2.6,0,7-3.7,7-3.7s0,3.7,2.1,3.2
			c2.1-0.5,3.7-3.7,3.7-3.7s1.1,2.7,3.2,2.1c2.1-0.5,4.3-4.3,4.3-4.3L-639.3-188.1z"/>
		
			<linearGradient id="SVGID_13_" gradientUnits="userSpaceOnUse" x1="-661.9025" y1="479.2993" x2="-602.6179" y2="473.1239" gradientTransform="matrix(0.9996 2.982325e-02 2.982325e-02 -0.9996 26.5627 347.9946)">
			<stop  offset="0" style="stop-color:#FFC76D"/>
			<stop  offset="1" style="stop-color:#E8E3E0"/>
		</linearGradient>
		<path class="st29" d="M-561.6-143.9c0,0-3.2-7.5-6.4-5.4c-2.9,1.9-1.6,4.3-1.6,4.3s-1.6-3.7-3.7-2.1c-2.1,1.6-2.1,4.3-2.1,4.3
			s-1-5.3-3.7-3.2s-2.8,5.1-2.8,5.1s0.2-5.6-2.5-4.6s-2.2,2.8-2.2,2.8s-0.4-4.4-3.1-3.4s-3.3,2.1-3.3,2.1s-0.9-5.2-3.1-3.2
			c-2.2,2.1-2.7,2.5-2.7,2.5s0.6-5.1-2.1-4.6s-3.7,1.7-3.7,1.7s1.6-3.8-1.6-3.9c-3.2-0.1-3,1.9-3,1.9s0.4-6.1-2.3-4.1
			c-2.7,2.1-3,2.3-3,2.3s4.3-8.3,0.9-8.2c-3.4,0.1-3.8,5.4-3.8,5.4s1.6-7.5-0.5-7c-2.1,0.5-1.2,5.4-1.2,5.4s10.9,10.6,11.9,11.2
			c1,0.6,41.4,12,41.4,12L-561.6-143.9z"/>
		<g>
			<path class="st30" d="M-580.3-63.8c0,0,6.7,16.7,7.4,20.4c0.6,3.6-9.3,5.4-10.2,8s6.4,1.1,6.4,1.1s2.5,2.4,4.8,1.8
				c1.5-0.4,8.3-1,12.9-1.3c2.3-0.2,4-2.3,3.7-4.6l-2.8-20.2C-558.2-58.7-579-73.2-580.3-63.8z"/>
			<path class="st31" d="M-556-43.3c0,0-9.1-7.5-14.6-9.3s-3.9,4.2-3.9,4.2l-5.8-15.7c0,0,19.7,3,20.2,3.6s3.1,5.1,3.1,5.1
				L-556-43.3z"/>
			<path class="st15" d="M-578.3-34c0,0,0.6-4.1-1-4c-1.6,0.1-4.6,1.9-5.2,3.1C-585.1-33.7-578.3-34-578.3-34z"/>
			<path class="st15" d="M-571.1-32.7c0,0,0.6-3.5-1.9-3.5c-2.4,0-5.5,1.2-6.1,3C-579.7-31.4-571.1-32.7-571.1-32.7z"/>
		</g>
		<path class="st32" d="M-528.9-85.5c0,0,9.1-22.2,6.4-23.6c-2.7-1.3-10.9-7.2-9.6-10.2c1.2-3,23.5-11.5,20.9-12.8
			c-2.7-1.3-9.6-16.6-9.6-16.6s23.3-5.9,21.6-7.1s-11.5-10.2-11.5-10.2l13.4-12.9l-13.3-6.1c0,0-4.4-13,0.9-16.8
			c5.4-3.7-24.6,1.1-24.6,1.1l-28.4,98"/>
		<path class="st32" d="M-531.1-87.7L-514-101l8.6,12.3l2.9-11.6l13.7,2l4.6-9.9l6.7,6.7c0,0-20,20-26.7,25.5s-27.3,3-27.3,3
			L-531.1-87.7z"/>
		
			<linearGradient id="SVGID_14_" gradientUnits="userSpaceOnUse" x1="-640.8154" y1="594.9866" x2="-477.6154" y2="594.9866" gradientTransform="matrix(1 0 0 -1 0 460.6379)">
			<stop  offset="0" style="stop-color:#6BC62A"/>
			<stop  offset="1" style="stop-color:#00B53E"/>
		</linearGradient>
		<path class="st33" d="M-510.9-84.6c-31.9-3.1-29.2-27.7-20.1-43.2c0.1-0.1,0.1-0.2,0-0.3c12.8-13.2,26.4-39.3,23.1-48.9
			c-4.3-12.3-76.6-66.1-99.6-61.3s-33.3,48.5-33.3,48.5c4,15.2,49,32.2,68.8,26.5c7.7-2.3,13.5-3.7,16.9,2.9c1.8,3.5,0,8.1-18.2,15
			c-15.5,5.9-39.4-4.5-43.4-10.7c-3.4-5.4-12.9,2.5-3.8,10.1c6,5,20.4,13.9,43.8,20.4c-2.2,3.3-5.1,8.3-5.8,10.2
			c-1,2.8-4.1,8.9-5.9,14.5c-1.7,5.6-5.5,12.6-6.4,21.4c-0.9,8.8,6.9,18.9,14.9,21.5s12.6,3.3,19.9,5.6c4.1,3.9,8.9,7.3,12.7,11.7
			c-5.1,0.9-11.6,2-15,6.2c1.6,1.7,3.4,2.8,5.6,3.1c3.5,0.5,5.6,0.8,9.4,1.3c2.6,0.3,6.9-0.3,10.7-0.6c2.8-0.2,4.9-2.6,5-5.4
			c0.1-5.1-0.4-9.7,0.1-15.3c25.1-1.8,37.8-29.4,53.9-50C-487.7-102.2-500.9-83.6-510.9-84.6z"/>
		<g>
			<path class="st2" d="M-610.3-115.7c0,0-13.3-8.3-4.1-22.6C-614.3-138.4-602.8-131.5-610.3-115.7z"/>
			<path class="st2" d="M-612.3-113.7c0,0-5.8,14.9-21.5,8.3C-633.9-105.4-629.2-118.4-612.3-113.7z"/>
			<path class="st2" d="M-618.9-119.4c0,0-15.6,3.7-19.1-13C-638-132.4-624.7-135.9-618.9-119.4z"/>
			<g>
				<path class="st2" d="M-621-120.1c0-0.1,7.6,1.7,10.7,4.4c3.1,2.7,6.3,6.1,7.8,8.5s2.1,5,2.2,6.8c0.1,1.8-0.2,3-0.3,2.9
					c-0.1,0-0.1-1.1-0.4-2.9c-0.3-1.7-3.9-4.5-5.3-6.7C-607.6-109.4-621-120-621-120.1z"/>
			</g>
		</g>
		<path class="st15" d="M-558.8-32.7c0,0,0.6-4.1-1-4c-1.6,0.1-4.6,1.9-5.2,3.1C-565.5-32.4-558.8-32.7-558.8-32.7z"/>
		<path class="st15" d="M-551.6-31.3c0,0,0.6-3.5-1.8-3.5c-2.4,0-5.5,1.2-6.1,3C-560.1-30-551.6-31.3-551.6-31.3z"/>
		<path class="st31" d="M-560-52.3c0,0,28.4-0.8,28.4,0.5c0,1.1-0.2,10.9,0,13.4s-4.8-4.2-13.9-7.3C-554.6-48.8-560-52.3-560-52.3z"
			/>
		<g>
			<g>
				<path class="st34" d="M-607-194c-3.2,6.1-7.8,10.1-10.2,8.8c-2.5-1.3-1.9-7.3,1.3-13.4c3.2-6.1,7.8-10.1,10.2-8.8
					C-603.3-206.1-603.8-200.1-607-194z"/>
				<path class="st27" d="M-606.1-193.3c-3.2,6.1-7.8,10.1-10.2,8.8c-2.5-1.3-1.9-7.3,1.3-13.4c3.2-6.1,7.8-10.1,10.2-8.8
					C-602.3-205.5-602.9-199.5-606.1-193.3z"/>
			</g>
			<g>
				<path class="st34" d="M-622.8-206.9c-2.5,4.7-6,7.8-7.9,6.8c-1.9-1-1.5-5.7,1-10.4s6-7.8,7.9-6.8
					C-619.8-216.3-620.3-211.6-622.8-206.9z"/>
				<path class="st27" d="M-622-206.4c-2.5,4.7-6,7.8-7.9,6.8c-1.9-1-1.5-5.7,1-10.4s6-7.8,7.9-6.8
					C-619.1-215.8-619.5-211.2-622-206.4z"/>
			</g>
			<g>
				<path class="st35" d="M-608.5-213.1c0,0,4.8-2.5,8.6-0.4c7.2,4,2.9,14.8,2.9,14.8s2.3-6.3-4.9-12.2
					C-605.5-213.7-608.5-213.1-608.5-213.1z"/>
				<path class="st32" d="M-608.5-213.1c0,0,5.4,0.7,9.3,5.9c3.9,5.2,1.2,11,1.2,11s3.4-6-0.1-11.4
					C-601.5-213.1-608.5-213.1-608.5-213.1z"/>
				<path class="st25" d="M-606.5-211.4c0,0,5.8,3.5,6.8,8.9c1,5.4-1.9,9.4-1.9,9.4s4-3.6,3.5-9.5
					C-598.8-208.8-606.5-211.4-606.5-211.4z"/>
			</g>
			<g>
				<path class="st35" d="M-622-220.6c0,0,2.8-1.5,5.1-0.2c4.3,2.4,1.7,8.8,1.7,8.8s1.3-3.7-2.9-7.2C-620.2-221-622-220.6-622-220.6
					z"/>
				<path class="st32" d="M-622-220.6c0,0,3.2,0.4,5.5,3.5c2.3,3.1,0.7,6.5,0.7,6.5s2-3.6-0.1-6.8C-617.9-220.6-622-220.6-622-220.6
					z"/>
				<path class="st25" d="M-620.8-219.6c0,0,3.4,2,4,5.2c0.6,3.2-1.2,5.6-1.2,5.6s2.4-2.2,2.1-5.6
					C-616.2-218-620.8-219.6-620.8-219.6z"/>
			</g>
		</g>
		<g>
			<g>
				<path class="st32" d="M-541-180.4c0,0,2.2,2.9,3,6.1s1.4,8,1.4,8l0.7-1.8c0,0,0.3,0.6,1.2,1.4c0.8,0.6,3.2,1.4,3.2,1.4
					s-0.7-3.4-1.6-7.3c-1.2-5.4-4.6-7.8-4.6-7.8l0.1,1.1C-537.5-179.2-539.7-180.3-541-180.4z"/>
				<path class="st30" d="M-536.6-178.9c0,0,1.7,1.5,2.8,4.6c1.1,3.1,1.6,6.9,1.6,6.9l-1.3-2.5l0.8,3.1c0,0-1.2-1.6-2.1-4.7
					c-0.9-3.2-3-7-3-7l1.5,0.7L-536.6-178.9z"/>
			</g>
			<path class="st36" d="M-546.8-173.4c0,0,7.6-0.9,5.3,6"/>
		</g>
		<g>
			<path class="st37" d="M-578.1-106c-4.2-0.3-22.5,2.5-22.2,6.7c0.2,2.9,23.2-4.4,23.2-4.4S-573.9-105.7-578.1-106z"/>
			<path class="st37" d="M-598.7-103.8c0,0-7.9-5.2-7.8-2.9c0.1,2.2,3.7,4.8,3.7,4.8s-8.8-1-9.4,0.5c-0.6,1.5,8.8,1.6,8.3,1.8
				c-0.4,0.2-8.6,2-8,3.1c0.6,1.1,8.1-1.2,8.4-0.8c0.2,0.4-7,3.4-6.3,4.2s7.1-2.1,7.9-2.2c0.8-0.1-4,3.7-3.2,4.6
				c0.7,0.8,4.7-2.8,5.4-3.7c0.7-0.9,4.6-1.9,5.7-3.6c1.1-1.7-0.5-4.6-1.6-5.1C-596.7-103.6-598.7-103.8-598.7-103.8z"/>
		</g>
		<path class="st32" d="M-530-199c0,0-12.3-10.5-33-19.6c-19.7-8.7-33.4-12-33.4-12s0.1-19.7,18.7-24.1c9.1-2.1,24.5,3.8,22,4.8
			c-10.7,4.3-11.4,22.4-2.1,15c8-6.4,20.9,1.1,20.9,1.1s-13.1,8.2-8.6,9.1c5.4,1.1,18.6-2.5,15,1.6c-4.3,4.8-9.6,8.6-9.6,8.6
			s24.1-4.8,19.8,1.1C-524.6-207.5-530-199-530-199z"/>
	</g>
	<g>
		<g>
			<circle class="st5" cx="-257.4" cy="-307.7" r="3.8"/>
		</g>
		<g>
			<path class="st5" d="M-250-328c-3.4-4.1-5.8-11.8-6.9-15.2c-0.1-0.5-0.8-0.5-1,0c-0.8,3-2.9,9.3-6.9,14.7
				c-3.7,5,0.4,12.3,7.3,12.3c0,0,0,0,0.1,0c0,0,0,0,0.1,0C-250.5-316.2-246.1-323.2-250-328z M-256.6-319.3
				c-3.4,0.6-6.2-2.3-5.7-5.7c0.3-2,2-3.7,4-4c3.4-0.6,6.2,2.3,5.7,5.7C-252.9-321.2-254.6-319.6-256.6-319.3z"/>
		</g>
		<path class="st5" d="M-257.4-319c-0.8,0-1.5,0.7-1.5,1.5v19.3h3v-19.3C-255.9-318.3-256.5-319-257.4-319z"/>
	</g>
	<g>
		<path class="st5" d="M-4-328.4h-217.6c-0.8,0-1.5-0.7-1.5-1.5s0.7-1.5,1.5-1.5H-4c0.8,0,1.5,0.7,1.5,1.5S-3.1-328.4-4-328.4z"/>
	</g>
	<g>
		
			<linearGradient id="SVGID_15_" gradientUnits="userSpaceOnUse" x1="-1044.0156" y1="-386.2657" x2="-971.5237" y2="-386.2657" gradientTransform="matrix(-3.274567e-02 -0.9994 -0.8688 2.845226e-02 -592.2081 -1153.8925)">
			<stop  offset="0.1522" style="stop-color:#FF3A2D"/>
			<stop  offset="0.1907" style="stop-color:#FF462A"/>
			<stop  offset="0.4015" style="stop-color:#FF811B"/>
			<stop  offset="0.5953" style="stop-color:#FFB00F"/>
			<stop  offset="0.7658" style="stop-color:#FFD207"/>
			<stop  offset="0.9065" style="stop-color:#FFE702"/>
			<stop  offset="1" style="stop-color:#FFEE00"/>
		</linearGradient>
		<path class="st38" d="M-225.3-121.4c-0.1,0-0.1,0-0.1-0.1c-0.6-1.4-13.5-16.4-13.1-27.9c0.4-12.1,2.8-27.1,3-29
			c0.3-3.5,4.5,11,5.3,12.1c0.1,0.1,0.3,0,0.3-0.1c-0.9-2.2-1.2-8.2-0.3-12.4c1-4.2,6.1-11.9,8.3-15c0.3-0.4,0.9-0.2,0.9,0.3
			c0,2.3,1,9.8,3.7,12.5c3.7,3.6,11.5,15.2,7.9,27.8C-213-140.8-221.2-121.1-225.3-121.4z"/>
		
			<linearGradient id="SVGID_16_" gradientUnits="userSpaceOnUse" x1="-1040.2629" y1="-388.0978" x2="-991.8136" y2="-388.0978" gradientTransform="matrix(-3.274567e-02 -0.9994 -0.8688 2.845226e-02 -592.2081 -1153.8925)">
			<stop  offset="0.1522" style="stop-color:#FF5A19"/>
			<stop  offset="1" style="stop-color:#FFEE00"/>
		</linearGradient>
		<path class="st39" d="M-224.1-125.2c0,0-7.6-21.5-3.8-29.7c3.8-8.2,5.4-12.2,4.3-17.1c-1.8-8,10.8,14.4,8.9,22.6
			C-216.8-141.2-224.1-125.2-224.1-125.2z"/>
		
			<linearGradient id="SVGID_17_" gradientUnits="userSpaceOnUse" x1="-1039.0197" y1="-387.2738" x2="-1004.0839" y2="-387.2738" gradientTransform="matrix(-3.274567e-02 -0.9994 -0.8688 2.845226e-02 -592.2081 -1153.8925)">
			<stop  offset="0.1522" style="stop-color:#FFB02A"/>
			<stop  offset="0.9393" style="stop-color:#FFEE00"/>
		</linearGradient>
		<path class="st40" d="M-224.3-126.4c0,0-2.9-15.1-2.5-20.2c0.3-5,2.3-7.2,4.1-10.9c0.4-0.9,1-2.9,1.3-3.9c0.1-0.2,0.3-0.2,0.4,0
			c0.7,1.5,2.5,6,2.8,10.2C-217.6-146-224.3-126.4-224.3-126.4z"/>
	</g>
	<g>
		<linearGradient id="SVGID_18_" gradientUnits="userSpaceOnUse" x1="-270.1434" y1="-121.6945" x2="-176.2092" y2="-121.6945">
			<stop  offset="0" style="stop-color:#FF3A2D"/>
			<stop  offset="1" style="stop-color:#D50000"/>
		</linearGradient>
		<path class="st41" d="M-270.1-136.1c9.5,17.3,27,28.8,47,28.8s37.5-11.6,47-28.8H-270.1z"/>
		<polygon class="st4" points="-223.2,-244.4 -270.5,-136.1 -175.9,-136.1 		"/>
		<linearGradient id="SVGID_19_" gradientUnits="userSpaceOnUse" x1="-229.7038" y1="-244.9006" x2="-216.6488" y2="-244.9006">
			<stop  offset="0" style="stop-color:#FF3A2D"/>
			<stop  offset="1" style="stop-color:#D50000"/>
		</linearGradient>
		<circle class="st42" cx="-223.2" cy="-244.9" r="6.5"/>
	</g>
	<g>
		<path class="st2" d="M-106.3-153.8c0,0-4-20.3,18.1-24.4C-88.1-178.3-84.3-161-106.3-153.8z"/>
		<path class="st2" d="M-109.5-153.6c0,0-20.3,7.5-28.1-13.7C-137.6-167.3-120.2-174.1-109.5-153.6z"/>
		<path class="st2" d="M-110.6-165.5c0,0-17.7-11.7-4.8-30.1C-115.4-195.7-99.9-186-110.6-165.5z"/>
		<g>
			<path class="st2" d="M-111.8-168.2c0,0,0.4-2.1,1.3-0.4c1.6,3.1,4.1,11.2,4.2,14.7c0.2,5.4-0.1,11.6-1.1,15.2
				c-1,3.6-2.8,6.5-4.5,8.3c-1.6,1.8-3,2.5-3.1,2.4c-0.1-0.1,1-1.1,2.4-2.9c1.4-1.8-0.5,1.2,1.7-11.2
				C-109-152.6-111.9-168.1-111.8-168.2z"/>
		</g>
	</g>
	<g>
		<path class="st7" d="M-156.8-136.1c9.5,17.3,27,28.8,47,28.8s37.5-11.6,47-28.8H-156.8z"/>
		<polygon class="st4" points="-109.9,-244.4 -157.2,-136.1 -62.6,-136.1 		"/>
		<circle class="st2" cx="-109.9" cy="-244.9" r="6.5"/>
	</g>
	<g>
		<circle class="st0" cx="-216.6" cy="-302.8" r="12"/>
		<path class="st5" d="M-216.6-289.3c-7.4,0-13.5-6-13.5-13.5s6-13.5,13.5-13.5s13.5,6,13.5,13.5S-209.2-289.3-216.6-289.3z
			 M-216.6-313.2c-5.8,0-10.5,4.7-10.5,10.5s4.7,10.5,10.5,10.5s10.5-4.7,10.5-10.5S-210.9-313.2-216.6-313.2z"/>
	</g>
	<g>
		<polygon class="st4" points="-223.5,-74.6 -270.8,33.7 -176.2,33.7 		"/>
		<linearGradient id="SVGID_20_" gradientUnits="userSpaceOnUse" x1="-230.035" y1="-75.1235" x2="-216.9801" y2="-75.1235">
			<stop  offset="0" style="stop-color:#FF3A2D"/>
			<stop  offset="1" style="stop-color:#D50000"/>
		</linearGradient>
		<circle class="st43" cx="-223.5" cy="-75.1" r="6.5"/>
	</g>
	<g>
		<polygon class="st4" points="-109.9,-74.6 -157.2,33.7 -62.6,33.7 		"/>
		<circle class="st2" cx="-109.9" cy="-75.1" r="6.5"/>
	</g>
	<linearGradient id="SVGID_21_" gradientUnits="userSpaceOnUse" x1="-270.4746" y1="60.1401" x2="-176.5405" y2="60.1401">
		<stop  offset="0" style="stop-color:#FF3A2D"/>
		<stop  offset="1" style="stop-color:#D50000"/>
	</linearGradient>
	<path class="st44" d="M-270.5,45.7c9.5,17.3,27,28.8,47,28.8s37.5-11.6,47-28.8H-270.5z"/>
	<path class="st7" d="M-155.8,46.7c9.5,17.3,27,28.8,47,28.8s37.5-11.6,47-28.8H-155.8z"/>
	<g>
		<defs>
			<rect id="SVGID_22_" x="-1014.8" y="-139.1" width="30.1" height="56.3"/>
		</defs>
		<clipPath id="SVGID_23_">
			<use xlink:href="#SVGID_22_"  style="overflow:visible;"/>
		</clipPath>
		<g class="st45">
			
				<linearGradient id="SVGID_24_" gradientUnits="userSpaceOnUse" x1="-1073.53" y1="508.3549" x2="-1001.0381" y2="508.3549" gradientTransform="matrix(-3.274567e-02 -0.9994 -0.8688 2.845226e-02 -592.2081 -1153.8925)">
				<stop  offset="0.1522" style="stop-color:#FF3A2D"/>
				<stop  offset="0.1907" style="stop-color:#FF462A"/>
				<stop  offset="0.4015" style="stop-color:#FF811B"/>
				<stop  offset="0.5953" style="stop-color:#FFB00F"/>
				<stop  offset="0.7658" style="stop-color:#FFD207"/>
				<stop  offset="0.9065" style="stop-color:#FFE702"/>
				<stop  offset="1" style="stop-color:#FFEE00"/>
			</linearGradient>
			<path class="st46" d="M-1001.6-66.4c-0.1,0-0.1,0-0.1-0.1c-0.6-1.4-13.5-16.4-13.1-27.9c0.4-12.1,2.8-27.1,3-29
				c0.3-3.5,4.5,11,5.3,12.1c0.1,0.1,0.3,0,0.3-0.1c-0.9-2.2-1.2-8.2-0.3-12.4s6.1-11.9,8.3-15c0.3-0.4,0.9-0.2,0.9,0.3
				c0,2.3,1,9.8,3.7,12.5c3.7,3.6,11.5,15.2,7.9,27.8C-989.3-85.9-997.5-66.2-1001.6-66.4z"/>
			
				<linearGradient id="SVGID_25_" gradientUnits="userSpaceOnUse" x1="-1069.7775" y1="506.5228" x2="-1021.3281" y2="506.5228" gradientTransform="matrix(-3.274567e-02 -0.9994 -0.8688 2.845226e-02 -592.2081 -1153.8925)">
				<stop  offset="0.1522" style="stop-color:#FF5A19"/>
				<stop  offset="1" style="stop-color:#FFEE00"/>
			</linearGradient>
			<path class="st47" d="M-1000.4-70.2c0,0-7.6-21.5-3.8-29.7s5.4-12.2,4.3-17.1c-1.8-8,10.8,14.4,8.9,22.6
				C-993.1-86.3-1000.4-70.2-1000.4-70.2z"/>
			
				<linearGradient id="SVGID_26_" gradientUnits="userSpaceOnUse" x1="-1068.5341" y1="507.3468" x2="-1033.5983" y2="507.3468" gradientTransform="matrix(-3.274567e-02 -0.9994 -0.8688 2.845226e-02 -592.2081 -1153.8925)">
				<stop  offset="0.1522" style="stop-color:#FFB02A"/>
				<stop  offset="0.9393" style="stop-color:#FFEE00"/>
			</linearGradient>
			<path class="st48" d="M-1000.6-71.4c0,0-2.9-15.1-2.5-20.2c0.3-5,2.3-7.2,4.1-10.9c0.4-0.9,1-2.9,1.3-3.9c0.1-0.2,0.3-0.2,0.4,0
				c0.7,1.5,2.5,6,2.8,10.2C-993.9-91-1000.6-71.4-1000.6-71.4z"/>
		</g>
	</g>
	<g>
		<defs>
			<rect id="SVGID_27_" x="-270.1" y="90.9" width="30.1" height="56.3"/>
		</defs>
		<clipPath id="SVGID_28_">
			<use xlink:href="#SVGID_27_"  style="overflow:visible;"/>
		</clipPath>
		<g class="st49">
			
				<linearGradient id="SVGID_29_" gradientUnits="userSpaceOnUse" x1="-1327.7524" y1="-339.1927" x2="-1255.2606" y2="-339.1927" gradientTransform="matrix(-3.274567e-02 -0.9994 -0.8688 2.845226e-02 -592.2081 -1153.8925)">
				<stop  offset="0.1522" style="stop-color:#FF3A2D"/>
				<stop  offset="0.1907" style="stop-color:#FF462A"/>
				<stop  offset="0.4015" style="stop-color:#FF811B"/>
				<stop  offset="0.5953" style="stop-color:#FFB00F"/>
				<stop  offset="0.7658" style="stop-color:#FFD207"/>
				<stop  offset="0.9065" style="stop-color:#FFE702"/>
				<stop  offset="1" style="stop-color:#FFEE00"/>
			</linearGradient>
			<path class="st50" d="M-256.9,163.6c-0.1,0-0.1,0-0.1-0.1c-0.6-1.4-13.5-16.4-13.1-27.9c0.4-12.1,2.8-27.1,3-29
				c0.3-3.5,4.5,11,5.3,12.1c0.1,0.1,0.3,0,0.3-0.1c-0.9-2.2-1.2-8.2-0.3-12.4s6.1-11.9,8.3-15c0.3-0.4,0.9-0.2,0.9,0.3
				c0,2.3,1,9.8,3.7,12.5c3.7,3.6,11.5,15.2,7.9,27.8C-244.6,144.1-252.8,163.8-256.9,163.6z"/>
			
				<linearGradient id="SVGID_30_" gradientUnits="userSpaceOnUse" x1="-1323.9999" y1="-341.0247" x2="-1275.5505" y2="-341.0247" gradientTransform="matrix(-3.274567e-02 -0.9994 -0.8688 2.845226e-02 -592.2081 -1153.8925)">
				<stop  offset="0.1522" style="stop-color:#FF5A19"/>
				<stop  offset="1" style="stop-color:#FFEE00"/>
			</linearGradient>
			<path class="st51" d="M-255.7,159.8c0,0-7.6-21.5-3.8-29.7c3.8-8.2,5.4-12.2,4.3-17.1c-1.8-8,10.8,14.4,8.9,22.6
				C-248.4,143.7-255.7,159.8-255.7,159.8z"/>
			
				<linearGradient id="SVGID_31_" gradientUnits="userSpaceOnUse" x1="-1322.7565" y1="-340.2007" x2="-1287.8208" y2="-340.2007" gradientTransform="matrix(-3.274567e-02 -0.9994 -0.8688 2.845226e-02 -592.2081 -1153.8925)">
				<stop  offset="0.1522" style="stop-color:#FFB02A"/>
				<stop  offset="0.9393" style="stop-color:#FFEE00"/>
			</linearGradient>
			<path class="st52" d="M-255.9,158.5c0,0-2.9-15.1-2.5-20.2c0.3-5,2.3-7.2,4.1-10.9c0.4-0.9,1-2.9,1.3-3.9c0.1-0.2,0.3-0.2,0.4,0
				c0.7,1.5,2.5,6,2.8,10.2C-249.2,138.9-255.9,158.5-255.9,158.5z"/>
		</g>
	</g>
	<g>
		<path class="st10" d="M155.5,14.2c0,0,0.8,0.3,5.4,0.6c4.6,0.3,6-7.3,9-8s1.1,5.9,1.6,6.6c0.4,0.7,1.5-4.1,1.5-4.1
			s0.1,4.3,0.8,3.9s1-5.4,1-5.4s1.2,8.3,2.1,2.5c1-5.8-3.4-7.7-6.1-8.6s-6.9,7.1-9.6,7.8c-2.6,0.6-6.7-2.8-6.7-2.8L155.5,14.2z"/>
	</g>
	<g>
		<g>
			
				<linearGradient id="SVGID_32_" gradientUnits="userSpaceOnUse" x1="-14.7692" y1="133.3935" x2="88.2951" y2="133.3935" gradientTransform="matrix(0.9932 -0.1162 -0.101 -0.8634 28.3318 143.8756)">
				<stop  offset="0.1522" style="stop-color:#FF3A2D"/>
				<stop  offset="0.1907" style="stop-color:#FF462A"/>
				<stop  offset="0.4015" style="stop-color:#FF811B"/>
				<stop  offset="0.5953" style="stop-color:#FFB00F"/>
				<stop  offset="0.7658" style="stop-color:#FFD207"/>
				<stop  offset="0.9065" style="stop-color:#FFE702"/>
				<stop  offset="1" style="stop-color:#FFEE00"/>
			</linearGradient>
			<path class="st53" d="M0,28.7c0-0.1,0-0.2,0.1-0.2c1.9-0.9,27.6-13.6,37-15.2c11.3-1.9,21-0.7,26.6-5.5c3.9-3.3,4.4-6.3,4.4-7.6
				c0-0.2,0.3-0.3,0.4-0.1c1.2,1.9,4.1,7.3,1.8,10.5c-2.1,2.9-4.6,5.3-6.1,6.5c-0.2,0.2,0,0.4,0.2,0.3c3-1.4,10.5-4.8,14.8-5.6
				c7.6-1.4,18.1,1.6,22.8,4.2c0.6,0.3,0.4,1.2-0.3,1.3c-3.4,0.3-10.2,1.4-13.7,5.3c-4.8,5.3-21.6,27-40.1,23.6
				C29.5,42.9,0.2,34.3,0,28.7z"/>
			
				<linearGradient id="SVGID_33_" gradientUnits="userSpaceOnUse" x1="-9.3355" y1="128.4221" x2="56.6066" y2="128.4221" gradientTransform="matrix(0.9932 -0.1162 -0.101 -0.8634 28.3318 143.8756)">
				<stop  offset="0.1522" style="stop-color:#FF5A19"/>
				<stop  offset="1" style="stop-color:#FFEE00"/>
			</linearGradient>
			<path class="st54" d="M5.6,29.9c0,0,30-12.5,42.3-8.4s13.7,10,20.7,8C79.8,26.2,60,39.8,48,38.1C36,36.3,5.6,29.9,5.6,29.9z"/>
			
				<linearGradient id="SVGID_34_" gradientUnits="userSpaceOnUse" x1="-7.5418" y1="129.1976" x2="42.9562" y2="129.1976" gradientTransform="matrix(0.9932 -0.1162 -0.101 -0.8634 28.3318 143.8756)">
				<stop  offset="0.1522" style="stop-color:#FFB02A"/>
				<stop  offset="0.9393" style="stop-color:#FFEE00"/>
			</linearGradient>
			<path class="st55" d="M7.4,29.6c0,0,21.5-5.6,28.8-5.6c7.3-0.1,10.6,2.3,16.2,4.3c1.3,0.5,4.3,1,5.8,1.3c0.3,0,0.3,0.4,0.1,0.5
				c-2.1,1-8.4,3.9-14.4,4.9C36.4,36.2,7.4,29.6,7.4,29.6z"/>
		</g>
	</g>
	<g>
		<path class="st10" d="M149.3-135.5c0,0-0.2-1.8-9.7-1.8c-4.9,0-10.3-1.8-10.9-6.7c-1.1-8.8,9.7-19.4,22.5-29.1
			c12.8-9.7-29.1-16.4-37.6-12.1c-8.5,4.2-27.9,36.4-28.5,44.3c-0.6,7.9,10.9,20,10.9,20l14.6-3L149.3-135.5z"/>
		<path class="st10" d="M44.3-84.5c-0.7-1.8-0.8-18.3,1.2-17.6s13,0.3,13,0.3s-15-17.2-12.4-18.5c2.7-1.3,23.9-1.3,22.7-4.4
			c-1.2-3-22.4-8.8-19.8-10.1c2.6-1.3,9.7-14.2,9.7-14.2s-18.6-1.4-16.9-2.6s11.5-10.2,11.5-10.2l-13.4-12.9l13.3-6.1
			c0,0-7-15-5.2-15.2l26.7,2.2l6.7,99L44.3-84.5"/>
		<path class="st10" d="M44.3-84.5L34-93.6l-8.6,16L22.5-93L8.3-89.9l-4-11l-6.7,6.7c0,0,20,20,26.7,25.5s27.3,3,27.3,3L44.3-84.5z"
			/>
		
			<linearGradient id="SVGID_35_" gradientUnits="userSpaceOnUse" x1="123.4738" y1="665.2582" x2="209.5542" y2="665.2582" gradientTransform="matrix(0.9906 -0.1366 -0.1366 -0.9906 64.9996 514.9941)">
			<stop  offset="0" style="stop-color:#E6E6E6"/>
			<stop  offset="1" style="stop-color:#FF9300"/>
		</linearGradient>
		<path class="st56" d="M108.2-147.2l6.1,2.8l-1.1-8.2l7.5,3.8l-1-7.9c0,0,6.2,2.3,7.2,1.8s2.9-7.1,2.9-7.1l4.4,2.2l1.7-5.4l5,4.7
			l2.4-5.5l4.3,0.9l1-6.2l8.7,3.6l2.2-7.2l6.1,4.4l0.1-9.2c0,0,8.2,7.2,8,6c-0.1-1.2-0.9-8.7-0.9-8.7s8.5,5.5,8.2,4.8
			c-0.3-0.7-3-12.1-3-12.1l-8.9-0.2l-71.5,37.6L108.2-147.2z"/>
		<path class="st12" d="M108.7-59.2c0,0-6.7,16.7-7.3,20.4c-0.6,3.6,9.3,5.3,10.2,7.9c0.9,2.6-6.4,1.2-6.4,1.2s-2.5,2.4-4.8,1.8
			c-1.5-0.4-8.3-0.9-12.9-1.3c-2.3-0.2-4-2.3-3.7-4.6l2.8-20.3C86.6-54,107.3-68.6,108.7-59.2z"/>
		<path class="st13" d="M84.4-38.6c0,0,9.1-7.5,14.6-9.3s3.9,4.2,3.9,4.2l5.8-15.7c0,0-19.7,3.1-20.2,3.7s-3.1,5.1-3.1,5.1
			L84.4-38.6z"/>
		<g>
			
				<linearGradient id="SVGID_36_" gradientUnits="userSpaceOnUse" x1="16.3727" y1="632.2911" x2="209.8204" y2="632.2911" gradientTransform="matrix(0.9906 -0.1366 -0.1366 -0.9906 64.9996 514.9941)">
				<stop  offset="0" style="stop-color:#FF3A2D"/>
				<stop  offset="1" style="stop-color:#D50000"/>
			</linearGradient>
			<path class="st57" d="M107.7-96.5c1.7,5.6,5.9,17.6,6.8,26.4c0.9,8.8-6.6,16.7-14.7,19.3s-12.6,3.3-19.9,5.6
				c-4.1,3.9-8.9,7.3-12.7,11.7c5.1,0.9,11.6,2,15,6.2c-1.6,1.7-3.4,2.8-5.6,3.1c-3.5,0.5-5.6,0.8-9.4,1.3
				c-2.6,0.3-6.9-0.3-10.7-0.6c-2.8-0.2-4.9-2.6-5-5.4c-0.1-5.1,0.4-9.7-0.1-15.3C26.3-46,13.6-73.6-2.5-94.2
				c10.2-0.6,23.3,17.4,33.4,17s31.8-29,35.4-39.2c3.6-10.2-8.8-26.3-13.5-40.4c-4.7-14.2-7.7-24.6,10-38.1s65.5-48,82.3-36.3
				c16.8,11.8,41.6,33.9,31.9,45.2c-9.6,11.3-72.3,27.4-74.2,47.4s4.4,12.1,12.5,9.4c7.4-2.4,29.2-11.4,34-6.5
				c4.8,4.9-12.7,8.4-27.8,11.8c-14.3,3.2-19.3,10.1-20.9,10.3c-1.6,0.2,3.9,6.8,4.8,9.6C106.5-101.3,106-102,107.7-96.5z"/>
		</g>
		<path class="st15" d="M106.8-29.4c0,0-0.6-4.1,1-4s4.6,1.9,5.2,3.1C113.5-29.1,106.8-29.4,106.8-29.4z"/>
		<path class="st15" d="M99.5-28c0,0-0.6-3.5,1.8-3.5s5.5,1.2,6.1,3S99.5-28,99.5-28z"/>
		<path class="st15" d="M78.8-25.3c0,0-0.6-4.1,1-4s4.6,1.9,5.2,3.1C85.6-25,78.8-25.3,78.8-25.3z"/>
		<path class="st15" d="M71.6-23.9c0,0-0.6-3.5,1.8-3.5c2.4,0,5.5,1.2,6.1,3C80.1-22.6,71.6-23.9,71.6-23.9z"/>
		<path class="st13" d="M80.1-45.6c0,0-27.3,1.2-28.5,0.6s0.4,10.9,0.2,13.3s4.7-3.6,13.8-6.6S80.1-45.6,80.1-45.6z"/>
		<g>
			<path class="st19" d="M101.7-164c0,0-3.2-1.9-6.4-2.4s-8.1-0.6-8.1-0.6l1.7-0.9c0,0-0.7-0.2-1.5-1.1c-0.7-0.7-1.8-3.1-1.8-3.1
				s3.5,0.4,7.4,0.8c5.5,0.7,8.2,3.8,8.2,3.8h-1.1C100.1-167.4,101.5-165.3,101.7-164z"/>
			<path class="st20" d="M99.7-168.2c0,0-1.6-1.5-4.8-2.3s-7-0.9-7-0.9l2.7,1l-3.2-0.5c0,0,1.7,1,4.9,1.6c3.2,0.6,7.3,2.3,7.3,2.3
				l-0.8-1.4L99.7-168.2z"/>
		</g>
		<path class="st10" d="M100.8-105.2c0,0,0.8,0.3,5.4,0.6c4.6,0.3,6-7.3,9-8s1.1,5.9,1.6,6.6c0.4,0.7,1.5-4.1,1.5-4.1
			s0.1,4.3,0.8,3.9s1-5.4,1-5.4s1.2,8.3,2.1,2.5c1-5.8-3.4-7.7-6.1-8.6s-6.9,7.1-9.6,7.8c-2.6,0.6-6.7-2.8-6.7-2.8L100.8-105.2z"/>
		<g>
			<circle cx="95.4" cy="-158.9" r="4.2"/>
			<circle class="st0" cx="95.7" cy="-159.7" r="1.5"/>
			<circle class="st0" cx="94.1" cy="-157.2" r="0.7"/>
		</g>
		<path class="st10" d="M75.7-99.5c0,0,0.8,0.1,5.3-1s3.5-8.8,6.1-10.3s2.8,5.3,3.5,5.9c0.6,0.6,0.2-4.4,0.2-4.4s1.4,4.1,1.9,3.5
			c0.6-0.6-0.7-5.5-0.7-5.5s3.6,7.5,2.8,1.7s-5.5-6.3-8.4-6.3s-4.5,8.9-6.8,10.3c-2.3,1.4-7.3-0.6-7.3-0.6L75.7-99.5z"/>
		<g>
			<path class="st21" d="M142-193c3.2,6.1,7.8,10.1,10.2,8.8c2.5-1.3,1.9-7.3-1.3-13.4c-3.2-6.1-7.8-10.1-10.2-8.8
				S138.9-199.1,142-193z"/>
			<path class="st22" d="M141.1-192.4c3.2,6.1,7.8,10.1,10.2,8.8c2.5-1.3,1.9-7.3-1.3-13.4c-3.2-6.1-7.8-10.1-10.2-8.8
				C137.3-204.5,137.9-198.5,141.1-192.4z"/>
		</g>
		<g>
			<path class="st21" d="M157.8-205.9c2.5,4.7,6,7.8,7.9,6.8s1.5-5.7-1-10.4s-6-7.8-7.9-6.8S155.3-210.7,157.8-205.9z"/>
			<path class="st22" d="M157-205.4c2.5,4.7,6,7.8,7.9,6.8s1.5-5.7-1-10.4s-6-7.8-7.9-6.8S154.6-210.2,157-205.4z"/>
		</g>
		<g>
			<path class="st23" d="M143.5-212.1c0,0-4.8-2.5-8.6-0.4c-7.2,4-2.9,14.8-2.9,14.8s-2.3-6.3,4.9-12.2
				C140.6-212.7,143.5-212.1,143.5-212.1z"/>
			<path class="st24" d="M143.5-212.1c0,0-5.4,0.7-9.3,5.9c-3.9,5.2-1.2,11-1.2,11s-3.4-6,0.1-11.4
				C136.6-212.1,143.5-212.1,143.5-212.1z"/>
			<path class="st25" d="M141.6-210.5c0,0-5.8,3.5-6.8,8.9c-1,5.4,1.9,9.4,1.9,9.4s-4-3.6-3.5-9.5
				C133.8-207.8,141.6-210.5,141.6-210.5z"/>
		</g>
		<g>
			<path class="st23" d="M157-219.6c0,0-2.8-1.5-5.1-0.2c-4.3,2.4-1.7,8.8-1.7,8.8s-1.3-3.7,2.9-7.2C155.3-220,157-219.6,157-219.6z
				"/>
			<path class="st24" d="M157-219.6c0,0-3.2,0.4-5.5,3.5c-2.3,3.1-0.7,6.5-0.7,6.5s-2-3.6,0.1-6.8C152.9-219.6,157-219.6,157-219.6z
				"/>
			<path class="st25" d="M155.8-218.6c0,0-3.4,2-4,5.2c-0.6,3.2,1.2,5.6,1.2,5.6s-2.4-2.2-2.1-5.6
				C151.3-217,155.8-218.6,155.8-218.6z"/>
		</g>
		<path class="st10" d="M63.1-195c0,0,11.5-10.3,32.2-19.4c19.7-8.7,29.7-9.1,29.7-9.1s-4.9-12.7,6.7-17.6
			c11.6-4.9-11.5-12.1-22.5,0c-6.9,7.7-10.3-6.7-10.3-6.7l-9.1,21.9l-12.1-3.6l-3.6,18.8l-13.4,1.2L63.1-195z"/>
	</g>
	<path class="st10" d="M122.8,16.4c0,0,0.8,0.1,5.3-1s3.5-8.8,6.1-10.3s2.8,5.3,3.5,5.9c0.6,0.6,0.2-4.4,0.2-4.4s1.4,4.1,1.9,3.5
		c0.6-0.6-0.7-5.5-0.7-5.5s3.6,7.5,2.8,1.7S136.4,0,133.5,0s-4.5,8.9-6.8,10.3c-2.3,1.4-7.3-0.6-7.3-0.6L122.8,16.4z"/>
	<g>
		<path class="st10" d="M350.8-135.5c0,0-0.2-1.8-9.7-1.8c-4.9,0-10.3-1.8-10.9-6.7c-1.1-8.8,9.7-19.4,22.5-29.1
			c12.8-9.7-29.1-16.4-37.6-12.1c-8.5,4.2-27.9,36.4-28.5,44.3c-0.6,7.9,10.9,20,10.9,20l14.6-3L350.8-135.5z"/>
		<path class="st10" d="M245.8-84.5c-0.7-1.8-0.8-18.3,1.2-17.6s13,0.3,13,0.3s-15-17.2-12.4-18.5c2.7-1.3,23.9-1.3,22.7-4.4
			c-1.2-3-22.4-8.8-19.8-10.1c2.6-1.3,9.7-14.2,9.7-14.2s-18.6-1.4-16.9-2.6s11.5-10.2,11.5-10.2l-13.4-12.9l13.3-6.1
			c0,0-7-15-5.2-15.2l26.7,2.2l6.7,99L245.8-84.5"/>
		<path class="st10" d="M245.8-84.5l-10.3-9.1l-8.6,16L224-93l-14.2,3.1l-4-11l-6.7,6.7c0,0,20,20,26.7,25.5s27.3,3,27.3,3
			L245.8-84.5z"/>
		
			<linearGradient id="SVGID_37_" gradientUnits="userSpaceOnUse" x1="323.0213" y1="637.7414" x2="409.1017" y2="637.7414" gradientTransform="matrix(0.9906 -0.1366 -0.1366 -0.9906 64.9996 514.9941)">
			<stop  offset="0" style="stop-color:#E6E6E6"/>
			<stop  offset="1" style="stop-color:#FF9300"/>
		</linearGradient>
		<path class="st58" d="M309.7-147.2l6.1,2.8l-1.1-8.2l7.5,3.8l-1-7.9c0,0,6.2,2.3,7.2,1.8s2.9-7.1,2.9-7.1l4.4,2.2l1.7-5.4l5,4.7
			l2.4-5.5l4.3,0.9l1-6.2l8.7,3.6l2.2-7.2l6.1,4.4l0.1-9.2c0,0,8.2,7.2,8,6c-0.1-1.2-0.9-8.7-0.9-8.7s8.5,5.5,8.2,4.8
			c-0.3-0.7-3-12.1-3-12.1l-8.9-0.2l-71.5,37.6L309.7-147.2z"/>
		<path class="st12" d="M310.2-59.2c0,0-6.7,16.7-7.3,20.4c-0.6,3.6,9.3,5.3,10.2,7.9c0.9,2.6-6.4,1.2-6.4,1.2s-2.5,2.4-4.8,1.8
			c-1.5-0.4-8.3-0.9-12.9-1.3c-2.3-0.2-4-2.3-3.7-4.6l2.8-20.3C288.1-54,308.8-68.6,310.2-59.2z"/>
		<path class="st13" d="M285.9-38.6c0,0,9.1-7.5,14.6-9.3s3.9,4.2,3.9,4.2l5.8-15.7c0,0-19.7,3.1-20.2,3.7s-3.1,5.1-3.1,5.1
			L285.9-38.6z"/>
		<g>
			
				<linearGradient id="SVGID_38_" gradientUnits="userSpaceOnUse" x1="215.9203" y1="604.7742" x2="409.3679" y2="604.7742" gradientTransform="matrix(0.9906 -0.1366 -0.1366 -0.9906 64.9996 514.9941)">
				<stop  offset="0" style="stop-color:#FF3A2D"/>
				<stop  offset="1" style="stop-color:#D50000"/>
			</linearGradient>
			<path class="st59" d="M309.2-96.5c1.7,5.6,5.9,17.6,6.8,26.4c0.9,8.8-6.6,16.7-14.7,19.3c-8.1,2.6-12.6,3.3-19.9,5.6
				c-4.1,3.9-8.9,7.3-12.7,11.7c5.1,0.9,11.6,2,15,6.2c-1.6,1.7-3.4,2.8-5.6,3.1c-3.5,0.5-5.6,0.8-9.4,1.3
				c-2.6,0.3-6.9-0.3-10.7-0.6c-2.8-0.2-4.9-2.6-5-5.4c-0.1-5.1,0.4-9.7-0.1-15.3c-25.1-1.8-37.8-29.4-53.9-50
				c10.2-0.6,23.3,17.4,33.4,17s31.8-29,35.4-39.2s-8.8-26.3-13.5-40.4c-4.7-14.2-7.7-24.6,10-38.1c17.7-13.5,65.5-48,82.3-36.3
				c16.8,11.8,41.6,33.9,31.9,45.2c-9.6,11.3-72.3,27.4-74.2,47.4s4.4,12.1,12.5,9.4c7.4-2.4,29.2-11.4,34-6.5
				c4.8,4.9-12.7,8.4-27.8,11.8c-14.3,3.2-19.3,10.1-20.9,10.3c-1.6,0.2,3.9,6.8,4.8,9.6C308-101.3,307.5-102,309.2-96.5z"/>
		</g>
		<path class="st15" d="M308.3-29.4c0,0-0.6-4.1,1-4s4.6,1.9,5.2,3.1C315-29.1,308.3-29.4,308.3-29.4z"/>
		<path class="st15" d="M301-28c0,0-0.6-3.5,1.8-3.5c2.4,0,5.5,1.2,6.1,3S301-28,301-28z"/>
		<path class="st15" d="M280.3-25.3c0,0-0.6-4.1,1-4s4.6,1.9,5.2,3.1C287.1-25,280.3-25.3,280.3-25.3z"/>
		<path class="st15" d="M273.1-23.9c0,0-0.6-3.5,1.8-3.5s5.5,1.2,6.1,3C281.6-22.6,273.1-23.9,273.1-23.9z"/>
		<path class="st13" d="M281.6-45.6c0,0-27.3,1.2-28.5,0.6s0.4,10.9,0.2,13.3s4.7-3.6,13.8-6.6C276.2-41.3,281.6-45.6,281.6-45.6z"
			/>
		<g>
			
				<linearGradient id="SVGID_39_" gradientUnits="userSpaceOnUse" x1="345.6315" y1="294.7404" x2="448.6958" y2="294.7404" gradientTransform="matrix(0.9932 -0.1162 -0.101 -0.8634 28.3318 143.8756)">
				<stop  offset="0.1522" style="stop-color:#FF3A2D"/>
				<stop  offset="0.1907" style="stop-color:#FF462A"/>
				<stop  offset="0.4015" style="stop-color:#FF811B"/>
				<stop  offset="0.5953" style="stop-color:#FFB00F"/>
				<stop  offset="0.7658" style="stop-color:#FFD207"/>
				<stop  offset="0.9065" style="stop-color:#FFE702"/>
				<stop  offset="1" style="stop-color:#FFEE00"/>
			</linearGradient>
			<path class="st60" d="M341.7-152.4c0-0.1,0-0.2,0.1-0.2c1.9-0.9,27.6-13.6,37-15.2c11.3-1.9,21-0.7,26.6-5.5
				c3.9-3.3,4.4-6.3,4.4-7.6c0-0.2,0.3-0.3,0.4-0.1c1.2,1.9,4.1,7.3,1.8,10.5c-2.1,2.9-4.6,5.3-6.1,6.5c-0.2,0.2,0,0.4,0.2,0.3
				c3-1.4,10.5-4.8,14.8-5.6c7.6-1.4,18.1,1.6,22.8,4.2c0.6,0.3,0.4,1.2-0.3,1.3c-3.4,0.3-10.2,1.4-13.7,5.3
				c-4.8,5.3-21.6,27-40.1,23.6C371.2-138.2,341.8-146.9,341.7-152.4z"/>
			
				<linearGradient id="SVGID_40_" gradientUnits="userSpaceOnUse" x1="351.0652" y1="289.769" x2="417.0074" y2="289.769" gradientTransform="matrix(0.9932 -0.1162 -0.101 -0.8634 28.3318 143.8756)">
				<stop  offset="0.1522" style="stop-color:#FF5A19"/>
				<stop  offset="1" style="stop-color:#FFEE00"/>
			</linearGradient>
			<path class="st61" d="M347.3-151.3c0,0,30-12.5,42.3-8.4c12.3,4.1,13.7,10,20.7,8c11.3-3.3-8.6,10.3-20.6,8.6
				C377.7-144.9,347.3-151.3,347.3-151.3z"/>
			
				<linearGradient id="SVGID_41_" gradientUnits="userSpaceOnUse" x1="352.859" y1="290.5446" x2="403.3569" y2="290.5446" gradientTransform="matrix(0.9932 -0.1162 -0.101 -0.8634 28.3318 143.8756)">
				<stop  offset="0.1522" style="stop-color:#FFB02A"/>
				<stop  offset="0.9393" style="stop-color:#FFEE00"/>
			</linearGradient>
			<path class="st62" d="M349-151.6c0,0,21.5-5.6,28.8-5.6c7.3-0.1,10.6,2.3,16.2,4.3c1.3,0.5,4.3,1,5.8,1.3c0.3,0,0.3,0.4,0.1,0.5
				c-2.1,1-8.4,3.9-14.4,4.9C378-144.9,349-151.6,349-151.6z"/>
		</g>
		<g>
			<path class="st19" d="M303.2-164c0,0-3.2-1.9-6.4-2.4c-3.2-0.5-8.1-0.6-8.1-0.6l1.7-0.9c0,0-0.7-0.2-1.5-1.1
				c-0.7-0.7-1.8-3.1-1.8-3.1s3.5,0.4,7.4,0.8c5.5,0.7,8.2,3.8,8.2,3.8h-1.1C301.6-167.4,303-165.3,303.2-164z"/>
			<path class="st20" d="M301.2-168.2c0,0-1.6-1.5-4.8-2.3c-3.2-0.8-7-0.9-7-0.9l2.7,1l-3.2-0.5c0,0,1.7,1,4.9,1.6
				c3.2,0.6,7.3,2.3,7.3,2.3l-0.8-1.4L301.2-168.2z"/>
		</g>
		<path class="st10" d="M302.3-105.2c0,0,0.8,0.3,5.4,0.6c4.6,0.3,6-7.3,9-8s1.1,5.9,1.6,6.6c0.4,0.7,1.5-4.1,1.5-4.1
			s0.1,4.3,0.8,3.9c0.7-0.4,1-5.4,1-5.4s1.2,8.3,2.1,2.5c1-5.8-3.4-7.7-6.1-8.6s-6.9,7.1-9.6,7.8c-2.6,0.6-6.7-2.8-6.7-2.8
			L302.3-105.2z"/>
		<g>
			<circle cx="296.9" cy="-158.9" r="4.2"/>
			<circle class="st0" cx="297.2" cy="-159.7" r="1.5"/>
			<circle class="st0" cx="295.6" cy="-157.2" r="0.7"/>
		</g>
		<path class="st10" d="M277.2-99.5c0,0,0.8,0.1,5.3-1s3.5-8.8,6.1-10.3s2.8,5.3,3.5,5.9c0.6,0.6,0.2-4.4,0.2-4.4s1.4,4.1,1.9,3.5
			c0.6-0.6-0.7-5.5-0.7-5.5s3.6,7.5,2.8,1.7c-0.8-5.8-5.5-6.3-8.4-6.3s-4.5,8.9-6.8,10.3c-2.3,1.4-7.3-0.6-7.3-0.6L277.2-99.5z"/>
		<g>
			<path class="st21" d="M343.5-193c3.2,6.1,7.8,10.1,10.2,8.8c2.5-1.3,1.9-7.3-1.3-13.4c-3.2-6.1-7.8-10.1-10.2-8.8
				S340.4-199.1,343.5-193z"/>
			<path class="st22" d="M342.6-192.4c3.2,6.1,7.8,10.1,10.2,8.8c2.5-1.3,1.9-7.3-1.3-13.4c-3.2-6.1-7.8-10.1-10.2-8.8
				C338.8-204.5,339.4-198.5,342.6-192.4z"/>
		</g>
		<g>
			<path class="st21" d="M359.3-205.9c2.5,4.7,6,7.8,7.9,6.8s1.5-5.7-1-10.4s-6-7.8-7.9-6.8S356.8-210.7,359.3-205.9z"/>
			<path class="st22" d="M358.5-205.4c2.5,4.7,6,7.8,7.9,6.8s1.5-5.7-1-10.4s-6-7.8-7.9-6.8S356.1-210.2,358.5-205.4z"/>
		</g>
		<g>
			<path class="st23" d="M345-212.1c0,0-4.8-2.5-8.6-0.4c-7.2,4-2.9,14.8-2.9,14.8s-2.3-6.3,4.9-12.2
				C342.1-212.7,345-212.1,345-212.1z"/>
			<path class="st24" d="M345-212.1c0,0-5.4,0.7-9.3,5.9c-3.9,5.2-1.2,11-1.2,11s-3.4-6,0.1-11.4C338.1-212.1,345-212.1,345-212.1z"
				/>
			<path class="st25" d="M343.1-210.5c0,0-5.8,3.5-6.8,8.9c-1,5.4,1.9,9.4,1.9,9.4s-4-3.6-3.5-9.5
				C335.3-207.8,343.1-210.5,343.1-210.5z"/>
		</g>
		<g>
			<path class="st23" d="M358.5-219.6c0,0-2.8-1.5-5.1-0.2c-4.3,2.4-1.7,8.8-1.7,8.8s-1.3-3.7,2.9-7.2
				C356.8-220,358.5-219.6,358.5-219.6z"/>
			<path class="st24" d="M358.5-219.6c0,0-3.2,0.4-5.5,3.5c-2.3,3.1-0.7,6.5-0.7,6.5s-2-3.6,0.1-6.8
				C354.4-219.6,358.5-219.6,358.5-219.6z"/>
			<path class="st25" d="M357.3-218.6c0,0-3.4,2-4,5.2c-0.6,3.2,1.2,5.6,1.2,5.6s-2.4-2.2-2.1-5.6
				C352.8-217,357.3-218.6,357.3-218.6z"/>
		</g>
		<path class="st10" d="M264.6-195c0,0,11.5-10.3,32.2-19.4c19.7-8.7,29.7-9.1,29.7-9.1s-4.9-12.7,6.7-17.6
			c11.6-4.9-11.5-12.1-22.5,0c-6.9,7.7-10.3-6.7-10.3-6.7l-9.1,21.9l-12.1-3.6l-3.6,18.8l-13.4,1.2L264.6-195z"/>
	</g>
</g>
</svg>
