<?xml version="1.0" encoding="utf-8"?>
<!-- Generator: Adobe Illustrator 23.0.1, SVG Export Plug-In . SVG Version: 6.00 Build 0)  -->
<svg version="1.1" xmlns="http://www.w3.org/2000/svg" xmlns:xlink="http://www.w3.org/1999/xlink" x="0px" y="0px" width="183.5px"
	 height="225px" viewBox="0 0 183.5 225" style="enable-background:new 0 0 183.5 225;" xml:space="preserve">
<style type="text/css">
	.st0{fill:#FFFFFF;}
	.st1{clip-path:url(#SVGID_2_);}
	.st2{fill:#6BC62A;}
	.st3{clip-path:url(#SVGID_4_);}
	.st4{fill:none;stroke:#7A6356;stroke-width:3;stroke-linecap:round;stroke-linejoin:round;stroke-miterlimit:10;}
	.st5{fill:#7A6356;}
	.st6{fill:#FFFFFF;stroke:#7A6356;stroke-width:3;stroke-linecap:round;stroke-linejoin:round;stroke-miterlimit:10;}
	.st7{fill:#009380;}
	.st8{fill:url(#SVGID_5_);}
	.st9{fill:url(#SVGID_6_);}
	.st10{fill:#A60C17;}
	.st11{fill:url(#SVGID_7_);}
	.st12{fill:#E02229;}
	.st13{opacity:0.88;fill:#D50000;enable-background:new    ;}
	.st14{fill:url(#SVGID_8_);}
	.st15{fill:#491B02;}
	.st16{fill:url(#SVGID_9_);}
	.st17{fill:url(#SVGID_10_);}
	.st18{fill:url(#SVGID_11_);}
	.st19{fill:#680200;}
	.st20{fill:#A30B05;}
	.st21{fill:#FF5B56;}
	.st22{fill:#A40000;}
	.st23{opacity:0.5;fill:#D50000;enable-background:new    ;}
	.st24{fill:#6A1100;}
	.st25{opacity:0.43;fill:#FFFFFF;enable-background:new    ;}
	.st26{fill:#006325;}
	.st27{fill:#004B25;}
	.st28{fill:url(#SVGID_12_);}
	.st29{fill:url(#SVGID_13_);}
	.st30{fill:#00923D;}
	.st31{opacity:0.4;fill:#006830;enable-background:new    ;}
	.st32{fill:#006830;}
	.st33{fill:url(#SVGID_14_);}
	.st34{fill:#D6E000;}
	.st35{opacity:0.5;fill:#00923D;enable-background:new    ;}
	.st36{fill:none;stroke:#000000;stroke-width:2;stroke-linecap:round;stroke-linejoin:round;stroke-miterlimit:10;}
	.st37{fill:#00962B;}
	.st38{fill:url(#SVGID_15_);}
	.st39{fill:url(#SVGID_16_);}
	.st40{fill:url(#SVGID_17_);}
	.st41{fill:url(#SVGID_18_);}
	.st42{fill:url(#SVGID_19_);}
	.st43{fill:url(#SVGID_20_);}
	.st44{fill:url(#SVGID_21_);}
	.st45{clip-path:url(#SVGID_23_);}
	.st46{fill:url(#SVGID_24_);}
	.st47{fill:url(#SVGID_25_);}
	.st48{fill:url(#SVGID_26_);}
	.st49{clip-path:url(#SVGID_28_);}
	.st50{fill:url(#SVGID_29_);}
	.st51{fill:url(#SVGID_30_);}
	.st52{fill:url(#SVGID_31_);}
	.st53{fill:url(#SVGID_32_);}
	.st54{fill:url(#SVGID_33_);}
	.st55{fill:url(#SVGID_34_);}
	.st56{fill:url(#SVGID_35_);}
	.st57{fill:url(#SVGID_36_);}
	.st58{fill:url(#SVGID_37_);}
	.st59{fill:url(#SVGID_38_);}
	.st60{fill:url(#SVGID_39_);}
	.st61{fill:url(#SVGID_40_);}
	.st62{fill:url(#SVGID_41_);}
	.st63{fill:url(#SVGID_42_);}
	.st64{fill:url(#SVGID_43_);}
	.st65{fill:url(#SVGID_44_);}
	.st66{fill:url(#SVGID_45_);}
	.st67{fill:url(#SVGID_46_);}
	.st68{fill:url(#SVGID_47_);}
</style>
<g id="Layer_2">
	<rect x="-1470.5" y="-102.2" class="st0" width="1146.2" height="404.9"/>
</g>
<g id="green">
	<g>
		<defs>
			<rect id="SVGID_1_" x="-808.9" y="107.1" width="49.7" height="58"/>
		</defs>
		<clipPath id="SVGID_2_">
			<use xlink:href="#SVGID_1_"  style="overflow:visible;"/>
		</clipPath>
		<g class="st1">
			<path class="st2" d="M-777.6,148.9c0,0-4-20.3,18.1-24.4C-759.4,124.4-755.6,141.8-777.6,148.9z"/>
			<path class="st2" d="M-780.8,149.1c0,0-20.3,7.5-28.1-13.7C-808.9,135.5-791.5,128.6-780.8,149.1z"/>
			<path class="st2" d="M-781.9,137.2c0,0-17.7-11.7-4.8-30.1C-786.7,107.1-771.2,116.7-781.9,137.2z"/>
			<g>
				<path class="st2" d="M-783.1,134.6c0,0,0.4-2.1,1.3-0.4c1.6,3.1,4.1,11.2,4.2,14.7c0.2,5.4-0.1,11.6-1.1,15.2
					c-1,3.6-2.8,6.5-4.5,8.3c-1.6,1.8-3,2.5-3.1,2.4c-0.1-0.1,1-1.1,2.4-2.9c1.4-1.8-0.5,1.2,1.7-11.2
					C-780.3,150.2-783.2,134.6-783.1,134.6z"/>
			</g>
		</g>
	</g>
	<g>
		<defs>
			<rect id="SVGID_3_" x="-227.6" y="339.7" width="49.7" height="58"/>
		</defs>
		<clipPath id="SVGID_4_">
			<use xlink:href="#SVGID_3_"  style="overflow:visible;"/>
		</clipPath>
		<g class="st3">
			<path class="st2" d="M-196.3,381.5c0,0-4-20.3,18.1-24.4C-178.1,357.1-174.3,374.4-196.3,381.5z"/>
			<path class="st2" d="M-199.5,381.7c0,0-20.3,7.5-28.1-13.7C-227.6,368.1-210.2,361.3-199.5,381.7z"/>
			<path class="st2" d="M-200.6,369.8c0,0-17.7-11.7-4.8-30.1C-205.4,339.7-189.9,349.3-200.6,369.8z"/>
			<g>
				<path class="st2" d="M-201.8,367.2c0,0,0.4-2.1,1.3-0.4c1.6,3.1,4.1,11.2,4.2,14.7c0.2,5.4-0.1,11.6-1.1,15.2
					c-1,3.6-2.8,6.5-4.5,8.3c-1.6,1.8-3,2.5-3.1,2.4c-0.1-0.1,1-1.1,2.4-2.9c1.4-1.8-0.5,1.2,1.7-11.2
					C-199,382.8-201.9,367.2-201.8,367.2z"/>
			</g>
		</g>
	</g>
</g>
<g id="fire">
</g>
<g id="Layer_1">
	<line class="st4" x1="-997.9" y1="56.7" x2="-780.3" y2="56.7"/>
	<circle class="st5" cx="-889.1" cy="33.3" r="3.8"/>
	<path class="st5" d="M-881.8,13c-3.4-4.1-5.8-11.8-6.9-15.2c-0.1-0.5-0.8-0.5-1,0c-0.8,3-2.9,9.3-6.9,14.7
		c-3.7,5,0.4,12.3,7.3,12.3c0,0,0,0,0.1,0c0,0,0,0,0.1,0C-882.2,24.8-877.8,17.8-881.8,13z M-888.3,21.8c-3.4,0.6-6.2-2.3-5.7-5.7
		c0.3-2,2-3.7,4-4c3.4-0.6,6.2,2.3,5.7,5.7C-884.7,19.8-886.3,21.4-888.3,21.8z"/>
	<line class="st4" x1="-889.1" y1="56.7" x2="-889.1" y2="23.6"/>
	<circle class="st6" cx="-889.1" cy="56.2" r="12"/>
	<g>
		<path class="st7" d="M-828.1,166.6c9.5,17.3,27,28.8,47,28.8c20,0,37.5-11.6,47-28.8H-828.1z"/>
		<polygon class="st4" points="-781.2,58.4 -828.5,166.6 -733.9,166.6 		"/>
		<circle class="st2" cx="-781.2" cy="57.8" r="6.5"/>
	</g>
	<g>
		<linearGradient id="SVGID_5_" gradientUnits="userSpaceOnUse" x1="-1043.9677" y1="181.0293" x2="-950.0336" y2="181.0293">
			<stop  offset="0" style="stop-color:#FF3A2D"/>
			<stop  offset="1" style="stop-color:#D50000"/>
		</linearGradient>
		<path class="st8" d="M-1044,166.6c9.5,17.3,27,28.8,47,28.8s37.5-11.6,47-28.8H-1044z"/>
		<polygon class="st4" points="-997,58.4 -1044.3,166.6 -949.7,166.6 		"/>
		<linearGradient id="SVGID_6_" gradientUnits="userSpaceOnUse" x1="-1003.5281" y1="57.8233" x2="-990.4731" y2="57.8233">
			<stop  offset="0" style="stop-color:#FF3A2D"/>
			<stop  offset="1" style="stop-color:#D50000"/>
		</linearGradient>
		<circle class="st9" cx="-997" cy="57.8" r="6.5"/>
	</g>
	<g>
		<path class="st10" d="M-1181.3,104.8c0,0-0.2-1.8-9.7-1.8c-4.9,0-10.3-1.8-10.9-6.7c-1.1-8.8,9.7-19.4,22.5-29.1
			c12.8-9.7-29.1-16.4-37.6-12.1c-8.5,4.2-27.9,36.4-28.5,44.3s10.9,20,10.9,20l14.6-3L-1181.3,104.8z"/>
		<path class="st10" d="M-1286.3,155.8c-0.7-1.8-0.8-18.3,1.2-17.6s13,0.3,13,0.3s-15-17.2-12.4-18.5c2.7-1.3,23.9-1.3,22.7-4.4
			c-1.2-3-22.4-8.8-19.8-10.1s9.7-14.2,9.7-14.2s-18.6-1.4-16.9-2.6c1.7-1.2,11.5-10.2,11.5-10.2l-13.4-12.9l13.3-6.1
			c0,0-7-15-5.2-15.2l26.7,2.2l6.7,99L-1286.3,155.8"/>
		<path class="st10" d="M-1286.3,155.8l-10.3-9.1l-8.6,16l-2.9-15.4l-14.2,3.1l-4-11l-6.7,6.7c0,0,20,20,26.7,25.5
			c6.7,5.5,27.3,3,27.3,3L-1286.3,155.8z"/>
		
			<linearGradient id="SVGID_7_" gradientUnits="userSpaceOnUse" x1="-1193.7091" y1="1102.5435" x2="-1107.6287" y2="1102.5435" gradientTransform="matrix(0.9906 -0.1366 -0.1366 -0.9906 98.8685 1008.5472)">
			<stop  offset="0" style="stop-color:#E6E6E6"/>
			<stop  offset="1" style="stop-color:#FF9300"/>
		</linearGradient>
		<path class="st11" d="M-1222.4,93.1l6.1,2.8l-1.1-8.2l7.5,3.8l-1-7.9c0,0,6.2,2.3,7.2,1.8s2.9-7.1,2.9-7.1l4.4,2.2l1.7-5.4l5,4.7
			l2.4-5.5l4.3,0.9l1-6.2l8.7,3.6l2.2-7.2l6.1,4.4l0.1-9.2c0,0,8.2,7.2,8,6c-0.1-1.2-0.9-8.7-0.9-8.7s8.5,5.5,8.2,4.8
			s-3-12.1-3-12.1l-8.9-0.2L-1233,88L-1222.4,93.1z"/>
		<path class="st12" d="M-1221.9,181.1c0,0-6.7,16.7-7.3,20.4c-0.6,3.6,9.3,5.3,10.2,7.9c0.9,2.6-6.4,1.2-6.4,1.2s-2.5,2.4-4.8,1.8
			c-1.5-0.4-8.3-0.9-12.9-1.3c-2.3-0.2-4-2.3-3.7-4.6l2.8-20.3C-1244,186.3-1223.3,171.7-1221.9,181.1z"/>
		<path class="st13" d="M-1246.2,201.7c0,0,9.1-7.5,14.6-9.3s3.9,4.2,3.9,4.2l5.8-15.7c0,0-19.7,3.1-20.2,3.7s-3.1,5.1-3.1,5.1
			L-1246.2,201.7z"/>
		<g>
			
				<linearGradient id="SVGID_8_" gradientUnits="userSpaceOnUse" x1="-1300.8102" y1="1069.5763" x2="-1107.3624" y2="1069.5763" gradientTransform="matrix(0.9906 -0.1366 -0.1366 -0.9906 98.8685 1008.5472)">
				<stop  offset="0" style="stop-color:#FF3A2D"/>
				<stop  offset="1" style="stop-color:#D50000"/>
			</linearGradient>
			<path class="st14" d="M-1222.9,143.8c1.7,5.6,5.9,17.6,6.8,26.4c0.9,8.8-6.6,16.7-14.7,19.3s-12.6,3.3-19.9,5.6
				c-4.1,3.9-8.9,7.3-12.7,11.7c5.1,0.9,11.6,2,15,6.2c-1.6,1.7-3.4,2.8-5.6,3.1c-3.5,0.5-5.6,0.8-9.4,1.3
				c-2.6,0.3-6.9-0.3-10.7-0.6c-2.8-0.2-4.9-2.6-5-5.4c-0.1-5.1,0.4-9.7-0.1-15.3c-25.1-1.8-37.8-29.4-53.9-50
				c10.2-0.6,23.3,17.4,33.4,17s31.8-29,35.4-39.2s-8.8-26.3-13.5-40.4c-4.7-14.2-7.7-24.6,10-38.1c17.7-13.5,65.5-48,82.3-36.3
				c16.8,11.8,41.6,33.9,31.9,45.2c-9.6,11.3-72.3,27.4-74.2,47.4c-1.9,20,4.4,12.1,12.5,9.4c7.4-2.4,29.2-11.4,34-6.5
				c4.8,4.9-12.7,8.4-27.8,11.8c-14.3,3.2-19.3,10.1-20.9,10.3c-1.6,0.2,3.9,6.8,4.8,9.6C-1224.1,139-1224.6,138.3-1222.9,143.8z"/>
		</g>
		<path class="st15" d="M-1223.8,210.9c0,0-0.6-4.1,1-4c1.6,0.1,4.6,1.9,5.2,3.1C-1217.1,211.2-1223.8,210.9-1223.8,210.9z"/>
		<path class="st15" d="M-1231.1,212.3c0,0-0.6-3.5,1.8-3.5c2.4,0,5.5,1.2,6.1,3S-1231.1,212.3-1231.1,212.3z"/>
		<path class="st15" d="M-1251.8,215c0,0-0.6-4.1,1-4c1.6,0.1,4.6,1.9,5.2,3.1C-1245,215.3-1251.8,215-1251.8,215z"/>
		<path class="st15" d="M-1259,216.4c0,0-0.6-3.5,1.8-3.5s5.5,1.2,6.1,3C-1250.5,217.7-1259,216.4-1259,216.4z"/>
		<path class="st13" d="M-1250.5,194.7c0,0-27.3,1.2-28.5,0.6c-1.2-0.6,0.4,10.9,0.2,13.3c-0.2,2.4,4.7-3.6,13.8-6.6
			S-1250.5,194.7-1250.5,194.7z"/>
		<g>
			
				<linearGradient id="SVGID_9_" gradientUnits="userSpaceOnUse" x1="-1175.243" y1="756.179" x2="-1072.1787" y2="756.179" gradientTransform="matrix(0.9932 -0.1162 -0.101 -0.8634 53.3736 605.8616)">
				<stop  offset="0.1522" style="stop-color:#FF3A2D"/>
				<stop  offset="0.1907" style="stop-color:#FF462A"/>
				<stop  offset="0.4015" style="stop-color:#FF811B"/>
				<stop  offset="0.5953" style="stop-color:#FFB00F"/>
				<stop  offset="0.7658" style="stop-color:#FFD207"/>
				<stop  offset="0.9065" style="stop-color:#FFE702"/>
				<stop  offset="1" style="stop-color:#FFEE00"/>
			</linearGradient>
			<path class="st16" d="M-1190.4,87.9c0-0.1,0-0.2,0.1-0.2c1.9-0.9,27.6-13.6,37-15.2c11.3-1.9,21-0.7,26.6-5.5
				c3.9-3.3,4.4-6.3,4.4-7.6c0-0.2,0.3-0.3,0.4-0.1c1.2,1.9,4.1,7.3,1.8,10.5c-2.1,2.9-4.6,5.3-6.1,6.5c-0.2,0.2,0,0.4,0.2,0.3
				c3-1.4,10.5-4.8,14.8-5.6c7.6-1.4,18.1,1.6,22.8,4.2c0.6,0.3,0.4,1.2-0.3,1.3c-3.4,0.3-10.2,1.4-13.7,5.3
				c-4.8,5.3-21.6,27-40.1,23.6C-1160.9,102.1-1190.3,93.4-1190.4,87.9z"/>
			
				<linearGradient id="SVGID_10_" gradientUnits="userSpaceOnUse" x1="-1169.8093" y1="751.2076" x2="-1103.8672" y2="751.2076" gradientTransform="matrix(0.9932 -0.1162 -0.101 -0.8634 53.3736 605.8616)">
				<stop  offset="0.1522" style="stop-color:#FF5A19"/>
				<stop  offset="1" style="stop-color:#FFEE00"/>
			</linearGradient>
			<path class="st17" d="M-1184.8,89c0,0,30-12.5,42.3-8.4c12.3,4.1,13.7,10,20.7,8c11.3-3.3-8.6,10.3-20.6,8.6
				C-1154.4,95.4-1184.8,89-1184.8,89z"/>
			
				<linearGradient id="SVGID_11_" gradientUnits="userSpaceOnUse" x1="-1168.0156" y1="751.9831" x2="-1117.5177" y2="751.9831" gradientTransform="matrix(0.9932 -0.1162 -0.101 -0.8634 53.3736 605.8616)">
				<stop  offset="0.1522" style="stop-color:#FFB02A"/>
				<stop  offset="0.9393" style="stop-color:#FFEE00"/>
			</linearGradient>
			<path class="st18" d="M-1183.1,88.7c0,0,21.5-5.6,28.8-5.6c7.3-0.1,10.6,2.3,16.2,4.3c1.3,0.5,4.3,1,5.8,1.3
				c0.3,0,0.3,0.4,0.1,0.5c-2.1,1-8.4,3.9-14.4,4.9C-1154.1,95.4-1183.1,88.7-1183.1,88.7z"/>
		</g>
		<g>
			<path class="st19" d="M-1228.9,76.3c0,0-3.2-1.9-6.4-2.4c-3.2-0.5-8.1-0.6-8.1-0.6l1.7-0.9c0,0-0.7-0.2-1.5-1.1
				c-0.7-0.7-1.8-3.1-1.8-3.1s3.5,0.4,7.4,0.8c5.5,0.7,8.2,3.8,8.2,3.8h-1.1C-1230.5,72.9-1229.1,75-1228.9,76.3z"/>
			<path class="st20" d="M-1230.9,72.1c0,0-1.6-1.5-4.8-2.3c-3.2-0.8-7-0.9-7-0.9l2.7,1l-3.2-0.5c0,0,1.7,1,4.9,1.6
				c3.2,0.6,7.3,2.3,7.3,2.3l-0.8-1.4L-1230.9,72.1z"/>
		</g>
		<path class="st10" d="M-1229.8,135.1c0,0,0.8,0.3,5.4,0.6c4.6,0.3,6-7.3,9-8s1.1,5.9,1.6,6.6c0.4,0.7,1.5-4.1,1.5-4.1
			s0.1,4.3,0.8,3.9c0.7-0.4,1-5.4,1-5.4s1.2,8.3,2.1,2.5c1-5.8-3.4-7.7-6.1-8.6c-2.7-0.9-6.9,7.1-9.6,7.8c-2.6,0.6-6.7-2.8-6.7-2.8
			L-1229.8,135.1z"/>
		<g>
			<circle cx="-1235.2" cy="81.4" r="4.2"/>
			<circle class="st0" cx="-1234.9" cy="80.6" r="1.5"/>
			<circle class="st0" cx="-1236.5" cy="83.1" r="0.7"/>
		</g>
		<path class="st10" d="M-1254.9,140.8c0,0,0.8,0.1,5.3-1s3.5-8.8,6.1-10.3c2.6-1.5,2.8,5.3,3.5,5.9c0.6,0.6,0.2-4.4,0.2-4.4
			s1.4,4.1,1.9,3.5c0.6-0.6-0.7-5.5-0.7-5.5s3.6,7.5,2.8,1.7c-0.8-5.8-5.5-6.3-8.4-6.3s-4.5,8.9-6.8,10.3c-2.3,1.4-7.3-0.6-7.3-0.6
			L-1254.9,140.8z"/>
		<g>
			<path class="st21" d="M-1188.6,47.3c3.2,6.1,7.8,10.1,10.2,8.8c2.5-1.3,1.9-7.3-1.3-13.4c-3.2-6.1-7.8-10.1-10.2-8.8
				C-1192.3,35.2-1191.7,41.2-1188.6,47.3z"/>
			<path class="st22" d="M-1189.5,47.9c3.2,6.1,7.8,10.1,10.2,8.8c2.5-1.3,1.9-7.3-1.3-13.4s-7.8-10.1-10.2-8.8
				C-1193.3,35.8-1192.7,41.8-1189.5,47.9z"/>
		</g>
		<g>
			<path class="st21" d="M-1172.8,34.4c2.5,4.7,6,7.8,7.9,6.8c1.9-1,1.5-5.7-1-10.4s-6-7.8-7.9-6.8
				C-1175.7,25-1175.3,29.6-1172.8,34.4z"/>
			<path class="st22" d="M-1173.6,34.9c2.5,4.7,6,7.8,7.9,6.8c1.9-1,1.5-5.7-1-10.4s-6-7.8-7.9-6.8
				C-1176.5,25.5-1176,30.1-1173.6,34.9z"/>
		</g>
		<g>
			<path class="st23" d="M-1187.1,28.2c0,0-4.8-2.5-8.6-0.4c-7.2,4-2.9,14.8-2.9,14.8s-2.3-6.3,4.9-12.2
				C-1190,27.6-1187.1,28.2-1187.1,28.2z"/>
			<path class="st24" d="M-1187.1,28.2c0,0-5.4,0.7-9.3,5.9c-3.9,5.2-1.2,11-1.2,11s-3.4-6,0.1-11.4
				C-1194,28.2-1187.1,28.2-1187.1,28.2z"/>
			<path class="st25" d="M-1189,29.8c0,0-5.8,3.5-6.8,8.9s1.9,9.4,1.9,9.4s-4-3.6-3.5-9.5C-1196.8,32.5-1189,29.8-1189,29.8z"/>
		</g>
		<g>
			<path class="st23" d="M-1173.6,20.7c0,0-2.8-1.5-5.1-0.2c-4.3,2.4-1.7,8.8-1.7,8.8s-1.3-3.7,2.9-7.2
				C-1175.3,20.3-1173.6,20.7-1173.6,20.7z"/>
			<path class="st24" d="M-1173.6,20.7c0,0-3.2,0.4-5.5,3.5s-0.7,6.5-0.7,6.5s-2-3.6,0.1-6.8C-1177.7,20.7-1173.6,20.7-1173.6,20.7z
				"/>
			<path class="st25" d="M-1174.8,21.7c0,0-3.4,2-4,5.2c-0.6,3.2,1.2,5.6,1.2,5.6s-2.4-2.2-2.1-5.6
				C-1179.3,23.3-1174.8,21.7-1174.8,21.7z"/>
		</g>
		<path class="st10" d="M-1267.5,45.3c0,0,11.5-10.3,32.2-19.4c19.7-8.7,29.7-9.1,29.7-9.1s-4.9-12.7,6.7-17.6s-11.5-12.1-22.5,0
			c-6.9,7.7-10.3-6.7-10.3-6.7l-9.1,21.9l-12.1-3.6l-3.6,18.8l-13.4,1.2L-1267.5,45.3z"/>
	</g>
	<g>
		<g>
			<path class="st26" d="M-575.2,145.4c0,0-21.9-3.7-22.9,0.4c-0.7,2.9,23.4,2.8,23.4,2.8L-575.2,145.4z"/>
			<path class="st26" d="M-595.2,142c0,0-5.9-7.3-6.6-5.1s2.1,5.7,2.1,5.7s-8.1-3.6-9.1-2.4s7.9,4.1,7.4,4.2s-8.8-0.6-8.5,0.6
				c0.2,1.2,8.1,1.3,8.2,1.8c0.1,0.5-7.7,1.2-7.2,2.1c0.4,0.9,7.4,0.1,8.2,0.2c0.8,0.1-4.9,2.4-4.5,3.4c0.4,0.9,5.4-1.3,6.3-1.9
				c0.9-0.7,5-0.4,6.5-1.7s0.9-4.5,0-5.3C-593.3,142.7-595.2,142-595.2,142z"/>
		</g>
		<path class="st27" d="M-615.8,91c4.9,0,12.8,0.5,16.6-1.6c7.7-4.4-14.5-13.5-27.3-23.3s29.1-16.4,37.6-12.1s37.7,28.6,38.3,36.5
			c0.6,7.9-20.7,27.9-20.7,27.9l-14.6-3C-585.8,115.3-625.3,91-615.8,91z"/>
		
			<linearGradient id="SVGID_12_" gradientUnits="userSpaceOnUse" x1="-624.8862" y1="908.5028" x2="-576.6685" y2="860.2851" gradientTransform="matrix(1 0 0 -1 0 956.182)">
			<stop  offset="0" style="stop-color:#FFC76D"/>
			<stop  offset="1" style="stop-color:#E8E3E0"/>
		</linearGradient>
		<path class="st28" d="M-636.8,59.6c0,0-1.5,4.1,0.6,4.6c2.1,0.5,4.3-1.1,4.3-1.1s-1.1,8.6,1.6,7.5s4.8-2.6,4.8-2.6s-1,5.9,1.6,6.4
			c2.7,0.5,5.4-2.8,5.4-2.8s0,7.1,2.6,7.1c2.6,0,5.7-3.2,5.7-3.2s-2.5,5.3,1.8,5.9c4.3,0.5,5.4-1.6,5.4-1.6s0.5,4.4,3.2,4.8
			c3.7,0.5,5.1-1.9,5.1-1.9s3,4,4,3.5c1.1-0.5,5.9-2.7,5.9-2.7s-0.5,3.7,2.1,3.7c2.6,0,7-3.7,7-3.7s0,3.7,2.1,3.2
			c2.1-0.5,3.7-3.7,3.7-3.7s1.1,2.7,3.2,2.1c2.1-0.5,4.3-4.3,4.3-4.3L-636.8,59.6z"/>
		
			<linearGradient id="SVGID_13_" gradientUnits="userSpaceOnUse" x1="-659.4276" y1="727.0714" x2="-600.1429" y2="720.8959" gradientTransform="matrix(0.9996 2.982325e-02 2.982325e-02 -0.9996 19.1743 843.3657)">
			<stop  offset="0" style="stop-color:#FFC76D"/>
			<stop  offset="1" style="stop-color:#E8E3E0"/>
		</linearGradient>
		<path class="st29" d="M-559.1,103.8c0,0-3.2-7.5-6.4-5.4c-2.9,1.9-1.6,4.3-1.6,4.3s-1.6-3.7-3.7-2.1c-2.1,1.6-2.1,4.3-2.1,4.3
			s-1-5.3-3.7-3.2c-2.7,2.1-2.8,5.1-2.8,5.1s0.2-5.6-2.5-4.6s-2.2,2.8-2.2,2.8s-0.4-4.4-3.1-3.4s-3.3,2.1-3.3,2.1s-0.9-5.2-3.1-3.2
			c-2.2,2.1-2.7,2.5-2.7,2.5s0.6-5.1-2.1-4.6s-3.7,1.7-3.7,1.7s1.6-3.8-1.6-3.9s-3,1.9-3,1.9s0.4-6.1-2.3-4.1c-2.7,2.1-3,2.3-3,2.3
			s4.3-8.3,0.9-8.2c-3.4,0.1-3.8,5.4-3.8,5.4s1.6-7.5-0.5-7c-2.1,0.5-1.2,5.4-1.2,5.4s10.9,10.6,11.9,11.2s41.4,12,41.4,12
			L-559.1,103.8z"/>
		<g>
			<path class="st30" d="M-577.8,183.9c0,0,6.7,16.7,7.4,20.4c0.6,3.6-9.3,5.4-10.2,8s6.4,1.1,6.4,1.1s2.5,2.4,4.8,1.8
				c1.5-0.4,8.3-1,12.9-1.3c2.3-0.2,4-2.3,3.7-4.6l-2.8-20.2C-555.7,189-576.5,174.5-577.8,183.9z"/>
			<path class="st31" d="M-553.5,204.4c0,0-9.1-7.5-14.6-9.3s-3.9,4.2-3.9,4.2l-5.8-15.7c0,0,19.7,3,20.2,3.6s3.1,5.1,3.1,5.1
				L-553.5,204.4z"/>
			<path class="st15" d="M-575.8,213.7c0,0,0.6-4.1-1-4c-1.6,0.1-4.6,1.9-5.2,3.1C-582.6,214-575.8,213.7-575.8,213.7z"/>
			<path class="st15" d="M-568.6,215c0,0,0.6-3.5-1.9-3.5c-2.4,0-5.5,1.2-6.1,3C-577.2,216.3-568.6,215-568.6,215z"/>
		</g>
		<path class="st32" d="M-526.4,162.2c0,0,9.1-22.2,6.4-23.6c-2.7-1.3-10.9-7.2-9.6-10.2c1.2-3,23.5-11.5,20.9-12.8
			c-2.7-1.3-9.6-16.6-9.6-16.6s23.3-5.9,21.6-7.1s-11.5-10.2-11.5-10.2l13.4-12.9l-13.3-6.1c0,0-4.4-13,0.9-16.8
			c5.4-3.7-24.6,1.1-24.6,1.1l-28.4,98"/>
		<path class="st32" d="M-528.6,160l17.1-13.3l8.6,12.3l2.9-11.6l13.7,2l4.6-9.9l6.7,6.7c0,0-20,20-26.7,25.5s-27.3,3-27.3,3
			L-528.6,160z"/>
		
			<linearGradient id="SVGID_14_" gradientUnits="userSpaceOnUse" x1="-638.3405" y1="842.7586" x2="-475.1405" y2="842.7586" gradientTransform="matrix(1 0 0 -1 0 956.182)">
			<stop  offset="0" style="stop-color:#6BC62A"/>
			<stop  offset="1" style="stop-color:#00B53E"/>
		</linearGradient>
		<path class="st33" d="M-508.4,163.1c-31.9-3.1-29.2-27.7-20.1-43.2c0.1-0.1,0.1-0.2,0-0.3c12.8-13.2,26.4-39.3,23.1-48.9
			C-509.7,58.4-582,4.6-605,9.4s-33.3,48.5-33.3,48.5c4,15.2,49,32.2,68.8,26.5c7.7-2.3,13.5-3.7,16.9,2.9c1.8,3.5,0,8.1-18.2,15
			c-15.5,5.9-39.4-4.5-43.4-10.7c-3.4-5.4-12.9,2.5-3.8,10.1c6,5,20.4,13.9,43.8,20.4c-2.2,3.3-5.1,8.3-5.8,10.2
			c-1,2.8-4.1,8.9-5.9,14.5c-1.7,5.6-5.5,12.6-6.4,21.4c-0.9,8.8,6.9,18.9,14.9,21.5s12.6,3.3,19.9,5.6c4.1,3.9,8.9,7.3,12.7,11.7
			c-5.1,0.9-11.6,2-15,6.2c1.6,1.7,3.4,2.8,5.6,3.1c3.5,0.5,5.6,0.8,9.4,1.3c2.6,0.3,6.9-0.3,10.7-0.6c2.8-0.2,4.9-2.6,5-5.4
			c0.1-5.1-0.4-9.7,0.1-15.3c25.1-1.8,37.8-29.4,53.9-50C-485.2,145.5-498.4,164.1-508.4,163.1z"/>
		<g>
			<path class="st2" d="M-607.8,132c0,0-13.3-8.3-4.1-22.6C-611.8,109.3-600.3,116.2-607.8,132z"/>
			<path class="st2" d="M-609.8,134c0,0-5.8,14.9-21.5,8.3C-631.4,142.3-626.7,129.3-609.8,134z"/>
			<path class="st2" d="M-616.4,128.3c0,0-15.6,3.7-19.1-13C-635.5,115.3-622.2,111.8-616.4,128.3z"/>
			<g>
				<path class="st2" d="M-618.5,127.6c0-0.1,7.6,1.7,10.7,4.4c3.1,2.7,6.3,6.1,7.8,8.5s2.1,5,2.2,6.8c0.1,1.8-0.2,3-0.3,2.9
					c-0.1,0-0.1-1.1-0.4-2.9c-0.3-1.7-3.9-4.5-5.3-6.7C-605.1,138.3-618.5,127.7-618.5,127.6z"/>
			</g>
		</g>
		<path class="st15" d="M-556.3,215c0,0,0.6-4.1-1-4c-1.6,0.1-4.6,1.9-5.2,3.1C-563,215.3-556.3,215-556.3,215z"/>
		<path class="st15" d="M-549.1,216.4c0,0,0.6-3.5-1.8-3.5c-2.4,0-5.5,1.2-6.1,3C-557.6,217.7-549.1,216.4-549.1,216.4z"/>
		<path class="st31" d="M-557.5,195.4c0,0,28.4-0.8,28.4,0.5c0,1.1-0.2,10.9,0,13.4s-4.8-4.2-13.9-7.3
			C-552.1,198.9-557.5,195.4-557.5,195.4z"/>
		<g>
			<g>
				<path class="st34" d="M-604.5,53.7c-3.2,6.1-7.8,10.1-10.2,8.8c-2.5-1.3-1.9-7.3,1.3-13.4c3.2-6.1,7.8-10.1,10.2-8.8
					C-600.8,41.6-601.3,47.6-604.5,53.7z"/>
				<path class="st27" d="M-603.6,54.4c-3.2,6.1-7.8,10.1-10.2,8.8c-2.5-1.3-1.9-7.3,1.3-13.4s7.8-10.1,10.2-8.8
					C-599.8,42.2-600.4,48.2-603.6,54.4z"/>
			</g>
			<g>
				<path class="st34" d="M-620.3,40.8c-2.5,4.7-6,7.8-7.9,6.8c-1.9-1-1.5-5.7,1-10.4s6-7.8,7.9-6.8
					C-617.3,31.4-617.8,36.1-620.3,40.8z"/>
				<path class="st27" d="M-619.5,41.3c-2.5,4.7-6,7.8-7.9,6.8c-1.9-1-1.5-5.7,1-10.4s6-7.8,7.9-6.8
					C-616.6,31.9-617,36.5-619.5,41.3z"/>
			</g>
			<g>
				<path class="st35" d="M-606,34.6c0,0,4.8-2.5,8.6-0.4c7.2,4,2.9,14.8,2.9,14.8s2.3-6.3-4.9-12.2C-603,34-606,34.6-606,34.6z"/>
				<path class="st32" d="M-606,34.6c0,0,5.4,0.7,9.3,5.9c3.9,5.2,1.2,11,1.2,11s3.4-6-0.1-11.4C-599,34.6-606,34.6-606,34.6z"/>
				<path class="st25" d="M-604,36.3c0,0,5.8,3.5,6.8,8.9s-1.9,9.4-1.9,9.4s4-3.6,3.5-9.5C-596.3,38.9-604,36.3-604,36.3z"/>
			</g>
			<g>
				<path class="st35" d="M-619.5,27.1c0,0,2.8-1.5,5.1-0.2c4.3,2.4,1.7,8.8,1.7,8.8s1.3-3.7-2.9-7.2
					C-617.7,26.7-619.5,27.1-619.5,27.1z"/>
				<path class="st32" d="M-619.5,27.1c0,0,3.2,0.4,5.5,3.5s0.7,6.5,0.7,6.5s2-3.6-0.1-6.8C-615.4,27.1-619.5,27.1-619.5,27.1z"/>
				<path class="st25" d="M-618.3,28.1c0,0,3.4,2,4,5.2c0.6,3.2-1.2,5.6-1.2,5.6s2.4-2.2,2.1-5.6C-613.7,29.7-618.3,28.1-618.3,28.1
					z"/>
			</g>
		</g>
		<g>
			<g>
				<path class="st32" d="M-538.5,67.3c0,0,2.2,2.9,3,6.1s1.4,8,1.4,8l0.7-1.8c0,0,0.3,0.6,1.2,1.4c0.8,0.6,3.2,1.4,3.2,1.4
					s-0.7-3.4-1.6-7.3c-1.2-5.4-4.6-7.8-4.6-7.8l0.1,1.1C-535,68.5-537.2,67.4-538.5,67.3z"/>
				<path class="st30" d="M-534.1,68.8c0,0,1.7,1.5,2.8,4.6s1.6,6.9,1.6,6.9l-1.3-2.5l0.8,3.1c0,0-1.2-1.6-2.1-4.7c-0.9-3.2-3-7-3-7
					l1.5,0.7L-534.1,68.8z"/>
			</g>
			<path class="st36" d="M-544.3,74.3c0,0,7.6-0.9,5.3,6"/>
		</g>
		<g>
			<path class="st37" d="M-575.6,141.7c-4.2-0.3-22.5,2.5-22.2,6.7c0.2,2.9,23.2-4.4,23.2-4.4S-571.4,142-575.6,141.7z"/>
			<path class="st37" d="M-596.2,143.9c0,0-7.9-5.2-7.8-2.9c0.1,2.2,3.7,4.8,3.7,4.8s-8.8-1-9.4,0.5c-0.6,1.5,8.8,1.6,8.3,1.8
				c-0.4,0.2-8.6,2-8,3.1c0.6,1.1,8.1-1.2,8.4-0.8c0.2,0.4-7,3.4-6.3,4.2s7.1-2.1,7.9-2.2c0.8-0.1-4,3.7-3.2,4.6
				c0.7,0.8,4.7-2.8,5.4-3.7c0.7-0.9,4.6-1.9,5.7-3.6c1.1-1.7-0.5-4.6-1.6-5.1C-594.2,144.1-596.2,143.9-596.2,143.9z"/>
		</g>
		<path class="st32" d="M-527.5,48.7c0,0-12.3-10.5-33-19.6c-19.7-8.7-33.4-12-33.4-12s0.1-19.7,18.7-24.1c9.1-2.1,24.5,3.8,22,4.8
			c-10.7,4.3-11.4,22.4-2.1,15c8-6.4,20.9,1.1,20.9,1.1s-13.1,8.2-8.6,9.1c5.4,1.1,18.6-2.5,15,1.6c-4.3,4.8-9.6,8.6-9.6,8.6
			s24.1-4.8,19.8,1.1C-522.1,40.2-527.5,48.7-527.5,48.7z"/>
	</g>
	<g>
		<g>
			<circle class="st5" cx="-254.9" cy="-59.9" r="3.8"/>
		</g>
		<g>
			<path class="st5" d="M-247.6-80.3c-3.4-4.1-5.8-11.8-6.9-15.2c-0.1-0.5-0.8-0.5-1,0c-0.8,3-2.9,9.3-6.9,14.7
				c-3.7,5,0.4,12.3,7.3,12.3c0,0,0,0,0.1,0c0,0,0,0,0.1,0C-248-68.5-243.6-75.5-247.6-80.3z M-254.1-71.5c-3.4,0.6-6.2-2.3-5.7-5.7
				c0.3-2,2-3.7,4-4c3.4-0.6,6.2,2.3,5.7,5.7C-250.5-73.5-252.1-71.8-254.1-71.5z"/>
		</g>
		<path class="st5" d="M-254.9-71.2c-0.8,0-1.5,0.7-1.5,1.5v19.3h3v-19.3C-253.4-70.5-254.1-71.2-254.9-71.2z"/>
	</g>
	<g>
		<path class="st5" d="M-1.5-80.7h-217.6c-0.8,0-1.5-0.7-1.5-1.5s0.7-1.5,1.5-1.5H-1.5c0.8,0,1.5,0.7,1.5,1.5S-0.7-80.7-1.5-80.7z"
			/>
	</g>
	<g>
		
			<linearGradient id="SVGID_15_" gradientUnits="userSpaceOnUse" x1="-1041.5406" y1="-138.4937" x2="-969.0487" y2="-138.4937" gradientTransform="matrix(-3.274567e-02 -0.9994 -0.8688 2.845226e-02 -374.3824 -910.6966)">
			<stop  offset="0.1522" style="stop-color:#FF3A2D"/>
			<stop  offset="0.1907" style="stop-color:#FF462A"/>
			<stop  offset="0.4015" style="stop-color:#FF811B"/>
			<stop  offset="0.5953" style="stop-color:#FFB00F"/>
			<stop  offset="0.7658" style="stop-color:#FFD207"/>
			<stop  offset="0.9065" style="stop-color:#FFE702"/>
			<stop  offset="1" style="stop-color:#FFEE00"/>
		</linearGradient>
		<path class="st38" d="M-222.8,126.4c-0.1,0-0.1,0-0.1-0.1c-0.6-1.4-13.5-16.4-13.1-27.9c0.4-12.1,2.8-27.1,3-29
			c0.3-3.5,4.5,11,5.3,12.1c0.1,0.1,0.3,0,0.3-0.1c-0.9-2.2-1.2-8.2-0.3-12.4c1-4.2,6.1-11.9,8.3-15c0.3-0.4,0.9-0.2,0.9,0.3
			c0,2.3,1,9.8,3.7,12.5c3.7,3.6,11.5,15.2,7.9,27.8C-210.5,106.9-218.7,126.6-222.8,126.4z"/>
		
			<linearGradient id="SVGID_16_" gradientUnits="userSpaceOnUse" x1="-1037.7881" y1="-140.3258" x2="-989.3387" y2="-140.3258" gradientTransform="matrix(-3.274567e-02 -0.9994 -0.8688 2.845226e-02 -374.3824 -910.6966)">
			<stop  offset="0.1522" style="stop-color:#FF5A19"/>
			<stop  offset="1" style="stop-color:#FFEE00"/>
		</linearGradient>
		<path class="st39" d="M-221.6,122.6c0,0-7.6-21.5-3.8-29.7s5.4-12.2,4.3-17.1c-1.8-8,10.8,14.4,8.9,22.6
			C-214.3,106.5-221.6,122.6-221.6,122.6z"/>
		
			<linearGradient id="SVGID_17_" gradientUnits="userSpaceOnUse" x1="-1036.5447" y1="-139.5018" x2="-1001.6089" y2="-139.5018" gradientTransform="matrix(-3.274567e-02 -0.9994 -0.8688 2.845226e-02 -374.3824 -910.6966)">
			<stop  offset="0.1522" style="stop-color:#FFB02A"/>
			<stop  offset="0.9393" style="stop-color:#FFEE00"/>
		</linearGradient>
		<path class="st40" d="M-221.8,121.4c0,0-2.9-15.1-2.5-20.2c0.3-5,2.3-7.2,4.1-10.9c0.4-0.9,1-2.9,1.3-3.9c0.1-0.2,0.3-0.2,0.4,0
			c0.7,1.5,2.5,6,2.8,10.2C-215.1,101.8-221.8,121.4-221.8,121.4z"/>
	</g>
	<g>
		<linearGradient id="SVGID_18_" gradientUnits="userSpaceOnUse" x1="-267.6684" y1="126.0775" x2="-173.7343" y2="126.0775">
			<stop  offset="0" style="stop-color:#FF3A2D"/>
			<stop  offset="1" style="stop-color:#D50000"/>
		</linearGradient>
		<path class="st41" d="M-267.7,111.7c9.5,17.3,27,28.8,47,28.8s37.5-11.6,47-28.8H-267.7z"/>
		<polygon class="st4" points="-220.7,3.4 -268,111.7 -173.4,111.7 		"/>
		<linearGradient id="SVGID_19_" gradientUnits="userSpaceOnUse" x1="-227.2289" y1="2.8715" x2="-214.1739" y2="2.8715">
			<stop  offset="0" style="stop-color:#FF3A2D"/>
			<stop  offset="1" style="stop-color:#D50000"/>
		</linearGradient>
		<circle class="st42" cx="-220.7" cy="2.9" r="6.5"/>
	</g>
	<g>
		<path class="st2" d="M-103.8,93.9c0,0-4-20.3,18.1-24.4C-85.7,69.5-81.8,86.8-103.8,93.9z"/>
		<path class="st2" d="M-107,94.2c0,0-20.3,7.5-28.1-13.7C-135.1,80.5-117.7,73.7-107,94.2z"/>
		<path class="st2" d="M-108.1,82.2c0,0-17.7-11.7-4.8-30.1C-112.9,52.1-97.4,61.8-108.1,82.2z"/>
		<g>
			<path class="st2" d="M-109.3,79.6c0,0,0.4-2.1,1.3-0.4c1.6,3.1,4.1,11.2,4.2,14.7c0.2,5.4-0.1,11.6-1.1,15.2
				c-1,3.6-2.8,6.5-4.5,8.3c-1.6,1.8-3,2.5-3.1,2.4c-0.1-0.1,1-1.1,2.4-2.9c1.4-1.8-0.5,1.2,1.7-11.2
				C-106.5,95.2-109.4,79.6-109.3,79.6z"/>
		</g>
	</g>
	<g>
		<path class="st7" d="M-154.4,111.7c9.5,17.3,27,28.8,47,28.8s37.5-11.6,47-28.8H-154.4z"/>
		<polygon class="st4" points="-107.4,3.4 -154.7,111.7 -60.1,111.7 		"/>
		<circle class="st2" cx="-107.4" cy="2.9" r="6.5"/>
	</g>
	<g>
		<circle class="st0" cx="-214.2" cy="-55" r="12"/>
		<path class="st5" d="M-214.2-41.5c-7.4,0-13.5-6-13.5-13.5s6-13.5,13.5-13.5s13.5,6,13.5,13.5S-206.7-41.5-214.2-41.5z
			 M-214.2-65.5c-5.8,0-10.5,4.7-10.5,10.5s4.7,10.5,10.5,10.5s10.5-4.7,10.5-10.5S-208.4-65.5-214.2-65.5z"/>
	</g>
	<g>
		<polygon class="st4" points="-221,173.2 -268.4,281.4 -173.7,281.4 		"/>
		<linearGradient id="SVGID_20_" gradientUnits="userSpaceOnUse" x1="-227.5601" y1="172.6485" x2="-214.5051" y2="172.6485">
			<stop  offset="0" style="stop-color:#FF3A2D"/>
			<stop  offset="1" style="stop-color:#D50000"/>
		</linearGradient>
		<circle class="st43" cx="-221" cy="172.6" r="6.5"/>
	</g>
	<g>
		<polygon class="st4" points="-107.4,173.2 -154.7,281.4 -60.1,281.4 		"/>
		<circle class="st2" cx="-107.4" cy="172.6" r="6.5"/>
	</g>
	<linearGradient id="SVGID_21_" gradientUnits="userSpaceOnUse" x1="-267.9997" y1="307.9121" x2="-174.0656" y2="307.9121">
		<stop  offset="0" style="stop-color:#FF3A2D"/>
		<stop  offset="1" style="stop-color:#D50000"/>
	</linearGradient>
	<path class="st44" d="M-268,293.5c9.5,17.3,27,28.8,47,28.8s37.5-11.6,47-28.8H-268z"/>
	<path class="st7" d="M-153.4,294.5c9.5,17.3,27,28.8,47,28.8s37.5-11.6,47-28.8H-153.4z"/>
	<g>
		<defs>
			<rect id="SVGID_22_" x="-1012.4" y="108.7" width="30.1" height="56.3"/>
		</defs>
		<clipPath id="SVGID_23_">
			<use xlink:href="#SVGID_22_"  style="overflow:visible;"/>
		</clipPath>
		<g class="st45">
			
				<linearGradient id="SVGID_24_" gradientUnits="userSpaceOnUse" x1="-1071.0551" y1="756.1269" x2="-998.5632" y2="756.1269" gradientTransform="matrix(-3.274567e-02 -0.9994 -0.8688 2.845226e-02 -374.3824 -910.6966)">
				<stop  offset="0.1522" style="stop-color:#FF3A2D"/>
				<stop  offset="0.1907" style="stop-color:#FF462A"/>
				<stop  offset="0.4015" style="stop-color:#FF811B"/>
				<stop  offset="0.5953" style="stop-color:#FFB00F"/>
				<stop  offset="0.7658" style="stop-color:#FFD207"/>
				<stop  offset="0.9065" style="stop-color:#FFE702"/>
				<stop  offset="1" style="stop-color:#FFEE00"/>
			</linearGradient>
			<path class="st46" d="M-999.1,181.4c-0.1,0-0.1,0-0.1-0.1c-0.6-1.4-13.5-16.4-13.1-27.9c0.4-12.1,2.8-27.1,3-29
				c0.3-3.5,4.5,11,5.3,12.1c0.1,0.1,0.3,0,0.3-0.1c-0.9-2.2-1.2-8.2-0.3-12.4c1-4.2,6.1-11.9,8.3-15c0.3-0.4,0.9-0.2,0.9,0.3
				c0,2.3,1,9.8,3.7,12.5c3.7,3.6,11.5,15.2,7.9,27.8C-986.8,161.9-995,181.6-999.1,181.4z"/>
			
				<linearGradient id="SVGID_25_" gradientUnits="userSpaceOnUse" x1="-1067.3025" y1="754.2948" x2="-1018.8531" y2="754.2948" gradientTransform="matrix(-3.274567e-02 -0.9994 -0.8688 2.845226e-02 -374.3824 -910.6966)">
				<stop  offset="0.1522" style="stop-color:#FF5A19"/>
				<stop  offset="1" style="stop-color:#FFEE00"/>
			</linearGradient>
			<path class="st47" d="M-997.9,177.6c0,0-7.6-21.5-3.8-29.7s5.4-12.2,4.3-17.1c-1.8-8,10.8,14.4,8.9,22.6
				C-990.6,161.5-997.9,177.6-997.9,177.6z"/>
			
				<linearGradient id="SVGID_26_" gradientUnits="userSpaceOnUse" x1="-1066.0591" y1="755.1188" x2="-1031.1234" y2="755.1188" gradientTransform="matrix(-3.274567e-02 -0.9994 -0.8688 2.845226e-02 -374.3824 -910.6966)">
				<stop  offset="0.1522" style="stop-color:#FFB02A"/>
				<stop  offset="0.9393" style="stop-color:#FFEE00"/>
			</linearGradient>
			<path class="st48" d="M-998.1,176.3c0,0-2.9-15.1-2.5-20.2c0.3-5,2.3-7.2,4.1-10.9c0.4-0.9,1-2.9,1.3-3.9c0.1-0.2,0.3-0.2,0.4,0
				c0.7,1.5,2.5,6,2.8,10.2C-991.4,156.8-998.1,176.3-998.1,176.3z"/>
		</g>
	</g>
	<g>
		<defs>
			<rect id="SVGID_27_" x="-267.7" y="338.7" width="30.1" height="56.3"/>
		</defs>
		<clipPath id="SVGID_28_">
			<use xlink:href="#SVGID_27_"  style="overflow:visible;"/>
		</clipPath>
		<g class="st49">
			
				<linearGradient id="SVGID_29_" gradientUnits="userSpaceOnUse" x1="-1325.2776" y1="-91.4207" x2="-1252.7856" y2="-91.4207" gradientTransform="matrix(-3.274567e-02 -0.9994 -0.8688 2.845226e-02 -374.3824 -910.6966)">
				<stop  offset="0.1522" style="stop-color:#FF3A2D"/>
				<stop  offset="0.1907" style="stop-color:#FF462A"/>
				<stop  offset="0.4015" style="stop-color:#FF811B"/>
				<stop  offset="0.5953" style="stop-color:#FFB00F"/>
				<stop  offset="0.7658" style="stop-color:#FFD207"/>
				<stop  offset="0.9065" style="stop-color:#FFE702"/>
				<stop  offset="1" style="stop-color:#FFEE00"/>
			</linearGradient>
			<path class="st50" d="M-254.4,411.3c-0.1,0-0.1,0-0.1-0.1c-0.6-1.4-13.5-16.4-13.1-27.9c0.4-12.1,2.8-27.1,3-29
				c0.3-3.5,4.5,11,5.3,12.1c0.1,0.1,0.3,0,0.3-0.1c-0.9-2.2-1.2-8.2-0.3-12.4c1-4.2,6.1-11.9,8.3-15c0.3-0.4,0.9-0.2,0.9,0.3
				c0,2.3,1,9.8,3.7,12.5c3.7,3.6,11.5,15.2,7.9,27.8C-242.1,391.8-250.3,411.6-254.4,411.3z"/>
			
				<linearGradient id="SVGID_30_" gradientUnits="userSpaceOnUse" x1="-1321.5249" y1="-93.2527" x2="-1273.0756" y2="-93.2527" gradientTransform="matrix(-3.274567e-02 -0.9994 -0.8688 2.845226e-02 -374.3824 -910.6966)">
				<stop  offset="0.1522" style="stop-color:#FF5A19"/>
				<stop  offset="1" style="stop-color:#FFEE00"/>
			</linearGradient>
			<path class="st51" d="M-253.2,407.5c0,0-7.6-21.5-3.8-29.7c3.8-8.2,5.4-12.2,4.3-17.1c-1.8-8,10.8,14.4,8.9,22.6
				C-245.9,391.4-253.2,407.5-253.2,407.5z"/>
			
				<linearGradient id="SVGID_31_" gradientUnits="userSpaceOnUse" x1="-1320.2816" y1="-92.4287" x2="-1285.3458" y2="-92.4287" gradientTransform="matrix(-3.274567e-02 -0.9994 -0.8688 2.845226e-02 -374.3824 -910.6966)">
				<stop  offset="0.1522" style="stop-color:#FFB02A"/>
				<stop  offset="0.9393" style="stop-color:#FFEE00"/>
			</linearGradient>
			<path class="st52" d="M-253.4,406.3c0,0-2.9-15.1-2.5-20.2c0.3-5,2.3-7.2,4.1-10.9c0.4-0.9,1-2.9,1.3-3.9c0.1-0.2,0.3-0.2,0.4,0
				c0.7,1.5,2.5,6,2.8,10.2C-246.7,386.7-253.4,406.3-253.4,406.3z"/>
		</g>
	</g>
	<g>
		<g>
			
				<linearGradient id="SVGID_32_" gradientUnits="userSpaceOnUse" x1="-12.2943" y1="381.1656" x2="90.77" y2="381.1656" gradientTransform="matrix(0.9932 -0.1162 -0.101 -0.8634 53.3736 605.8616)">
				<stop  offset="0.1522" style="stop-color:#FF3A2D"/>
				<stop  offset="0.1907" style="stop-color:#FF462A"/>
				<stop  offset="0.4015" style="stop-color:#FF811B"/>
				<stop  offset="0.5953" style="stop-color:#FFB00F"/>
				<stop  offset="0.7658" style="stop-color:#FFD207"/>
				<stop  offset="0.9065" style="stop-color:#FFE702"/>
				<stop  offset="1" style="stop-color:#FFEE00"/>
			</linearGradient>
			<path class="st53" d="M2.5,276.5c0-0.1,0-0.2,0.1-0.2c1.9-0.9,27.6-13.6,37-15.2c11.3-1.9,21-0.7,26.6-5.5
				c3.9-3.3,4.4-6.3,4.4-7.6c0-0.2,0.3-0.3,0.4-0.1c1.2,1.9,4.1,7.3,1.8,10.5c-2.1,2.9-4.6,5.3-6.1,6.5c-0.2,0.2,0,0.4,0.2,0.3
				c3-1.4,10.5-4.8,14.8-5.6c7.6-1.4,18.1,1.6,22.8,4.2c0.6,0.3,0.4,1.2-0.3,1.3c-3.4,0.3-10.2,1.4-13.7,5.3
				c-4.8,5.3-21.6,27-40.1,23.6C32,290.7,2.6,282,2.5,276.5z"/>
			
				<linearGradient id="SVGID_33_" gradientUnits="userSpaceOnUse" x1="-6.8606" y1="376.1942" x2="59.0816" y2="376.1942" gradientTransform="matrix(0.9932 -0.1162 -0.101 -0.8634 53.3736 605.8616)">
				<stop  offset="0.1522" style="stop-color:#FF5A19"/>
				<stop  offset="1" style="stop-color:#FFEE00"/>
			</linearGradient>
			<path class="st54" d="M8.1,277.7c0,0,30-12.5,42.3-8.4s13.7,10,20.7,8c11.3-3.3-8.6,10.3-20.6,8.6
				C38.5,284.1,8.1,277.7,8.1,277.7z"/>
			
				<linearGradient id="SVGID_34_" gradientUnits="userSpaceOnUse" x1="-5.0669" y1="376.9697" x2="45.4311" y2="376.9697" gradientTransform="matrix(0.9932 -0.1162 -0.101 -0.8634 53.3736 605.8616)">
				<stop  offset="0.1522" style="stop-color:#FFB02A"/>
				<stop  offset="0.9393" style="stop-color:#FFEE00"/>
			</linearGradient>
			<path class="st55" d="M9.8,277.3c0,0,21.5-5.6,28.8-5.6c7.3-0.1,10.6,2.3,16.2,4.3c1.3,0.5,4.3,1,5.8,1.3c0.3,0,0.3,0.4,0.1,0.5
				c-2.1,1-8.4,3.9-14.4,4.9C38.8,284,9.8,277.3,9.8,277.3z"/>
		</g>
	</g>
	<g>
		<path class="st10" d="M151.8,112.3c0,0-0.2-1.8-9.7-1.8c-4.9,0-10.3-1.8-10.9-6.7c-1.1-8.8,9.7-19.4,22.5-29.1
			s-29.1-16.4-37.6-12.1c-8.5,4.2-27.9,36.4-28.5,44.3s10.9,20,10.9,20l14.6-3L151.8,112.3z"/>
		<path class="st10" d="M46.8,163.3c-0.7-1.8-0.8-18.3,1.2-17.6s13,0.3,13,0.3s-15-17.2-12.4-18.5c2.7-1.3,23.9-1.3,22.7-4.4
			c-1.2-3-22.4-8.8-19.8-10.1s9.7-14.2,9.7-14.2s-18.6-1.4-16.9-2.6S55.8,86,55.8,86L42.4,73.1L55.7,67c0,0-7-15-5.2-15.2L77.2,54
			l6.7,99L46.8,163.3"/>
		<path class="st10" d="M46.8,163.3l-10.3-9.1l-8.6,16L25,154.8l-14.2,3.1l-4-11l-6.7,6.7c0,0,20,20,26.7,25.5s27.3,3,27.3,3
			L46.8,163.3z"/>
		
			<linearGradient id="SVGID_35_" gradientUnits="userSpaceOnUse" x1="125.9487" y1="913.0303" x2="212.0291" y2="913.0303" gradientTransform="matrix(0.9906 -0.1366 -0.1366 -0.9906 98.8685 1008.5472)">
			<stop  offset="0" style="stop-color:#E6E6E6"/>
			<stop  offset="1" style="stop-color:#FF9300"/>
		</linearGradient>
		<path class="st56" d="M110.7,100.6l6.1,2.8l-1.1-8.2l7.5,3.8l-1-7.9c0,0,6.2,2.3,7.2,1.8s2.9-7.1,2.9-7.1l4.4,2.2l1.7-5.4l5,4.7
			l2.4-5.5l4.3,0.9l1-6.2l8.7,3.6l2.2-7.2l6.1,4.4l0.1-9.2c0,0,8.2,7.2,8,6c-0.1-1.2-0.9-8.7-0.9-8.7s8.5,5.5,8.2,4.8
			c-0.3-0.7-3-12.1-3-12.1l-8.9-0.2l-71.5,37.6L110.7,100.6z"/>
		<path class="st12" d="M111.2,188.6c0,0-6.7,16.7-7.3,20.4c-0.6,3.6,9.3,5.3,10.2,7.9c0.9,2.6-6.4,1.2-6.4,1.2s-2.5,2.4-4.8,1.8
			c-1.5-0.4-8.3-0.9-12.9-1.3c-2.3-0.2-4-2.3-3.7-4.6l2.8-20.3C89.1,193.8,109.8,179.2,111.2,188.6z"/>
		<path class="st13" d="M86.9,209.2c0,0,9.1-7.5,14.6-9.3s3.9,4.2,3.9,4.2l5.8-15.7c0,0-19.7,3.1-20.2,3.7s-3.1,5.1-3.1,5.1
			L86.9,209.2z"/>
		<g>
			
				<linearGradient id="SVGID_36_" gradientUnits="userSpaceOnUse" x1="18.8477" y1="880.0631" x2="212.2953" y2="880.0631" gradientTransform="matrix(0.9906 -0.1366 -0.1366 -0.9906 98.8685 1008.5472)">
				<stop  offset="0" style="stop-color:#FF3A2D"/>
				<stop  offset="1" style="stop-color:#D50000"/>
			</linearGradient>
			<path class="st57" d="M110.2,151.3c1.7,5.6,5.9,17.6,6.8,26.4c0.9,8.8-6.6,16.7-14.7,19.3s-12.6,3.3-19.9,5.6
				c-4.1,3.9-8.9,7.3-12.7,11.7c5.1,0.9,11.6,2,15,6.2c-1.6,1.7-3.4,2.8-5.6,3.1c-3.5,0.5-5.6,0.8-9.4,1.3
				c-2.6,0.3-6.9-0.3-10.7-0.6c-2.8-0.2-4.9-2.6-5-5.4c-0.1-5.1,0.4-9.7-0.1-15.3c-25.1-1.8-37.8-29.4-53.9-50
				c10.2-0.6,23.3,17.4,33.4,17s31.8-29,35.4-39.2c3.6-10.2-8.8-26.3-13.5-40.4c-4.7-14.2-7.7-24.6,10-38.1s65.5-48,82.3-36.3
				c16.8,11.8,41.6,33.9,31.9,45.2c-9.6,11.3-72.3,27.4-74.2,47.4s4.4,12.1,12.5,9.4c7.4-2.4,29.2-11.4,34-6.5s-12.7,8.4-27.8,11.8
				c-14.3,3.2-19.3,10.1-20.9,10.3c-1.6,0.2,3.9,6.8,4.8,9.6C109,146.5,108.5,145.8,110.2,151.3z"/>
		</g>
		<path class="st15" d="M109.3,218.4c0,0-0.6-4.1,1-4s4.6,1.9,5.2,3.1C116,218.7,109.3,218.4,109.3,218.4z"/>
		<path class="st15" d="M102,219.8c0,0-0.6-3.5,1.8-3.5s5.5,1.2,6.1,3S102,219.8,102,219.8z"/>
		<path class="st15" d="M81.3,222.5c0,0-0.6-4.1,1-4s4.6,1.9,5.2,3.1C88.1,222.8,81.3,222.5,81.3,222.5z"/>
		<path class="st15" d="M74.1,223.9c0,0-0.6-3.5,1.8-3.5c2.4,0,5.5,1.2,6.1,3C82.6,225.2,74.1,223.9,74.1,223.9z"/>
		<path class="st13" d="M82.6,202.2c0,0-27.3,1.2-28.5,0.6s0.4,10.9,0.2,13.3s4.7-3.6,13.8-6.6S82.6,202.2,82.6,202.2z"/>
		<g>
			<path class="st19" d="M104.2,83.8c0,0-3.2-1.9-6.4-2.4s-8.1-0.6-8.1-0.6l1.7-0.9c0,0-0.7-0.2-1.5-1.1c-0.7-0.7-1.8-3.1-1.8-3.1
				s3.5,0.4,7.4,0.8c5.5,0.7,8.2,3.8,8.2,3.8h-1.1C102.6,80.4,104,82.5,104.2,83.8z"/>
			<path class="st20" d="M102.2,79.6c0,0-1.6-1.5-4.8-2.3s-7-0.9-7-0.9l2.7,1l-3.2-0.5c0,0,1.7,1,4.9,1.6s7.3,2.3,7.3,2.3l-0.8-1.4
				L102.2,79.6z"/>
		</g>
		<g>
			<circle cx="97.9" cy="88.9" r="4.2"/>
			<circle class="st0" cx="98.2" cy="88.1" r="1.5"/>
			<circle class="st0" cx="96.6" cy="90.6" r="0.7"/>
		</g>
		<g>
			<path class="st21" d="M144.5,54.8c3.2,6.1,7.8,10.1,10.2,8.8c2.5-1.3,1.9-7.3-1.3-13.4s-7.8-10.1-10.2-8.8S141.4,48.7,144.5,54.8
				z"/>
			<path class="st22" d="M143.6,55.4c3.2,6.1,7.8,10.1,10.2,8.8c2.5-1.3,1.9-7.3-1.3-13.4s-7.8-10.1-10.2-8.8
				C139.8,43.3,140.4,49.3,143.6,55.4z"/>
		</g>
		<g>
			<path class="st21" d="M160.3,41.9c2.5,4.7,6,7.8,7.9,6.8s1.5-5.7-1-10.4s-6-7.8-7.9-6.8C157.4,32.5,157.8,37.1,160.3,41.9z"/>
			<path class="st22" d="M159.5,42.4c2.5,4.7,6,7.8,7.9,6.8s1.5-5.7-1-10.4s-6-7.8-7.9-6.8C156.6,33,157.1,37.6,159.5,42.4z"/>
		</g>
		<g>
			<path class="st23" d="M146,35.7c0,0-4.8-2.5-8.6-0.4c-7.2,4-2.9,14.8-2.9,14.8s-2.3-6.3,4.9-12.2C143.1,35.1,146,35.7,146,35.7z"
				/>
			<path class="st24" d="M146,35.7c0,0-5.4,0.7-9.3,5.9c-3.9,5.2-1.2,11-1.2,11s-3.4-6,0.1-11.4C139.1,35.7,146,35.7,146,35.7z"/>
			<path class="st25" d="M144.1,37.3c0,0-5.8,3.5-6.8,8.9s1.9,9.4,1.9,9.4s-4-3.6-3.5-9.5C136.3,40,144.1,37.3,144.1,37.3z"/>
		</g>
		<g>
			<path class="st23" d="M159.5,28.2c0,0-2.8-1.5-5.1-0.2c-4.3,2.4-1.7,8.8-1.7,8.8s-1.3-3.7,2.9-7.2
				C157.8,27.8,159.5,28.2,159.5,28.2z"/>
			<path class="st24" d="M159.5,28.2c0,0-3.2,0.4-5.5,3.5c-2.3,3.1-0.7,6.5-0.7,6.5s-2-3.6,0.1-6.8
				C155.4,28.2,159.5,28.2,159.5,28.2z"/>
			<path class="st25" d="M158.3,29.2c0,0-3.4,2-4,5.2c-0.6,3.2,1.2,5.6,1.2,5.6s-2.4-2.2-2.1-5.6C153.8,30.8,158.3,29.2,158.3,29.2z
				"/>
		</g>
		<path class="st10" d="M65.6,52.8c0,0,11.5-10.3,32.2-19.4c19.7-8.7,29.7-9.1,29.7-9.1s-4.9-12.7,6.7-17.6s-11.5-12.1-22.5,0
			c-6.9,7.7-10.3-6.7-10.3-6.7l-9.1,21.9l-12.1-3.6l-3.6,18.8l-13.4,1.2L65.6,52.8z"/>
	</g>
	<path class="st10" d="M125.2,264.2c0,0,0.8,0.1,5.3-1s3.5-8.8,6.1-10.3s2.8,5.3,3.5,5.9c0.6,0.6,0.2-4.4,0.2-4.4s1.4,4.1,1.9,3.5
		c0.6-0.6-0.7-5.5-0.7-5.5s3.6,7.5,2.8,1.7s-5.5-6.3-8.4-6.3s-4.5,8.9-6.8,10.3s-7.3-0.6-7.3-0.6L125.2,264.2z"/>
	<g>
		<path class="st10" d="M353.2,112.3c0,0-0.2-1.8-9.7-1.8c-4.9,0-10.3-1.8-10.9-6.7c-1.1-8.8,9.7-19.4,22.5-29.1
			c12.8-9.7-29.1-16.4-37.6-12.1C309,66.8,289.6,99,289,106.9s10.9,20,10.9,20l14.6-3L353.2,112.3z"/>
		<path class="st10" d="M248.2,163.3c-0.7-1.8-0.8-18.3,1.2-17.6s13,0.3,13,0.3s-15-17.2-12.4-18.5c2.7-1.3,23.9-1.3,22.7-4.4
			c-1.2-3-22.4-8.8-19.8-10.1s9.7-14.2,9.7-14.2s-18.6-1.4-16.9-2.6S257.2,86,257.2,86l-13.4-12.9l13.3-6.1c0,0-7-15-5.2-15.2
			l26.7,2.2l6.7,99L248.2,163.3"/>
		<path class="st10" d="M248.2,163.3l-10.3-9.1l-8.6,16l-2.9-15.4l-14.2,3.1l-4-11l-6.7,6.7c0,0,20,20,26.7,25.5s27.3,3,27.3,3
			L248.2,163.3z"/>
		
			<linearGradient id="SVGID_37_" gradientUnits="userSpaceOnUse" x1="325.4962" y1="885.5134" x2="411.5767" y2="885.5134" gradientTransform="matrix(0.9906 -0.1366 -0.1366 -0.9906 98.8685 1008.5472)">
			<stop  offset="0" style="stop-color:#E6E6E6"/>
			<stop  offset="1" style="stop-color:#FF9300"/>
		</linearGradient>
		<path class="st58" d="M312.1,100.6l6.1,2.8l-1.1-8.2l7.5,3.8l-1-7.9c0,0,6.2,2.3,7.2,1.8s2.9-7.1,2.9-7.1l4.4,2.2l1.7-5.4l5,4.7
			l2.4-5.5l4.3,0.9l1-6.2l8.7,3.6l2.2-7.2l6.1,4.4l0.1-9.2c0,0,8.2,7.2,8,6c-0.1-1.2-0.9-8.7-0.9-8.7s8.5,5.5,8.2,4.8
			c-0.3-0.7-3-12.1-3-12.1l-8.9-0.2l-71.5,37.6L312.1,100.6z"/>
		<path class="st12" d="M312.6,188.6c0,0-6.7,16.7-7.3,20.4c-0.6,3.6,9.3,5.3,10.2,7.9c0.9,2.6-6.4,1.2-6.4,1.2s-2.5,2.4-4.8,1.8
			c-1.5-0.4-8.3-0.9-12.9-1.3c-2.3-0.2-4-2.3-3.7-4.6l2.8-20.3C290.5,193.8,311.2,179.2,312.6,188.6z"/>
		<path class="st13" d="M288.3,209.2c0,0,9.1-7.5,14.6-9.3s3.9,4.2,3.9,4.2l5.8-15.7c0,0-19.7,3.1-20.2,3.7s-3.1,5.1-3.1,5.1
			L288.3,209.2z"/>
		<g>
			
				<linearGradient id="SVGID_38_" gradientUnits="userSpaceOnUse" x1="218.3952" y1="852.5463" x2="411.8428" y2="852.5463" gradientTransform="matrix(0.9906 -0.1366 -0.1366 -0.9906 98.8685 1008.5472)">
				<stop  offset="0" style="stop-color:#FF3A2D"/>
				<stop  offset="1" style="stop-color:#D50000"/>
			</linearGradient>
			<path class="st59" d="M311.6,151.3c1.7,5.6,5.9,17.6,6.8,26.4c0.9,8.8-6.6,16.7-14.7,19.3c-8.1,2.6-12.6,3.3-19.9,5.6
				c-4.1,3.9-8.9,7.3-12.7,11.7c5.1,0.9,11.6,2,15,6.2c-1.6,1.7-3.4,2.8-5.6,3.1c-3.5,0.5-5.6,0.8-9.4,1.3
				c-2.6,0.3-6.9-0.3-10.7-0.6c-2.8-0.2-4.9-2.6-5-5.4c-0.1-5.1,0.4-9.7-0.1-15.3c-25.1-1.8-37.8-29.4-53.9-50
				c10.2-0.6,23.3,17.4,33.4,17s31.8-29,35.4-39.2c3.6-10.2-8.8-26.3-13.5-40.4c-4.7-14.2-7.7-24.6,10-38.1s65.5-48,82.3-36.3
				c16.8,11.8,41.6,33.9,31.9,45.2c-9.6,11.3-72.3,27.4-74.2,47.4s4.4,12.1,12.5,9.4c7.4-2.4,29.2-11.4,34-6.5
				c4.8,4.9-12.7,8.4-27.8,11.8c-14.3,3.2-19.3,10.1-20.9,10.3c-1.6,0.2,3.9,6.8,4.8,9.6C310.4,146.5,309.9,145.8,311.6,151.3z"/>
		</g>
		<path class="st15" d="M310.7,218.4c0,0-0.6-4.1,1-4s4.6,1.9,5.2,3.1C317.4,218.7,310.7,218.4,310.7,218.4z"/>
		<path class="st15" d="M303.4,219.8c0,0-0.6-3.5,1.8-3.5c2.4,0,5.5,1.2,6.1,3S303.4,219.8,303.4,219.8z"/>
		<path class="st15" d="M282.7,222.5c0,0-0.6-4.1,1-4s4.6,1.9,5.2,3.1C289.5,222.8,282.7,222.5,282.7,222.5z"/>
		<path class="st15" d="M275.5,223.9c0,0-0.6-3.5,1.8-3.5c2.4,0,5.5,1.2,6.1,3C284,225.2,275.5,223.9,275.5,223.9z"/>
		<path class="st13" d="M284,202.2c0,0-27.3,1.2-28.5,0.6c-1.2-0.6,0.4,10.9,0.2,13.3s4.7-3.6,13.8-6.6
			C278.6,206.5,284,202.2,284,202.2z"/>
		<g>
			
				<linearGradient id="SVGID_39_" gradientUnits="userSpaceOnUse" x1="348.1065" y1="542.5125" x2="451.1707" y2="542.5125" gradientTransform="matrix(0.9932 -0.1162 -0.101 -0.8634 53.3736 605.8616)">
				<stop  offset="0.1522" style="stop-color:#FF3A2D"/>
				<stop  offset="0.1907" style="stop-color:#FF462A"/>
				<stop  offset="0.4015" style="stop-color:#FF811B"/>
				<stop  offset="0.5953" style="stop-color:#FFB00F"/>
				<stop  offset="0.7658" style="stop-color:#FFD207"/>
				<stop  offset="0.9065" style="stop-color:#FFE702"/>
				<stop  offset="1" style="stop-color:#FFEE00"/>
			</linearGradient>
			<path class="st60" d="M344.1,95.3c0-0.1,0-0.2,0.1-0.2c1.9-0.9,27.6-13.6,37-15.2c11.3-1.9,21-0.7,26.6-5.5
				c3.9-3.3,4.4-6.3,4.4-7.6c0-0.2,0.3-0.3,0.4-0.1c1.2,1.9,4.1,7.3,1.8,10.5c-2.1,2.9-4.6,5.3-6.1,6.5c-0.2,0.2,0,0.4,0.2,0.3
				c3-1.4,10.5-4.8,14.8-5.6c7.6-1.4,18.1,1.6,22.8,4.2c0.6,0.3,0.4,1.2-0.3,1.3c-3.4,0.3-10.2,1.4-13.7,5.3
				c-4.8,5.3-21.6,27-40.1,23.6C373.7,109.5,344.3,100.8,344.1,95.3z"/>
			
				<linearGradient id="SVGID_40_" gradientUnits="userSpaceOnUse" x1="353.5402" y1="537.5411" x2="419.4823" y2="537.5411" gradientTransform="matrix(0.9932 -0.1162 -0.101 -0.8634 53.3736 605.8616)">
				<stop  offset="0.1522" style="stop-color:#FF5A19"/>
				<stop  offset="1" style="stop-color:#FFEE00"/>
			</linearGradient>
			<path class="st61" d="M349.7,96.5c0,0,30-12.5,42.3-8.4c12.3,4.1,13.7,10,20.7,8c11.3-3.3-8.6,10.3-20.6,8.6
				C380.1,102.9,349.7,96.5,349.7,96.5z"/>
			
				<linearGradient id="SVGID_41_" gradientUnits="userSpaceOnUse" x1="355.3339" y1="538.3166" x2="405.8319" y2="538.3166" gradientTransform="matrix(0.9932 -0.1162 -0.101 -0.8634 53.3736 605.8616)">
				<stop  offset="0.1522" style="stop-color:#FFB02A"/>
				<stop  offset="0.9393" style="stop-color:#FFEE00"/>
			</linearGradient>
			<path class="st62" d="M351.5,96.1c0,0,21.5-5.6,28.8-5.6c7.3-0.1,10.6,2.3,16.2,4.3c1.3,0.5,4.3,1,5.8,1.3c0.3,0,0.3,0.4,0.1,0.5
				c-2.1,1-8.4,3.9-14.4,4.9C380.5,102.8,351.5,96.1,351.5,96.1z"/>
		</g>
		<g>
			<path class="st19" d="M305.6,83.8c0,0-3.2-1.9-6.4-2.4c-3.2-0.5-8.1-0.6-8.1-0.6l1.7-0.9c0,0-0.7-0.2-1.5-1.1
				c-0.7-0.7-1.8-3.1-1.8-3.1s3.5,0.4,7.4,0.8c5.5,0.7,8.2,3.8,8.2,3.8H304C304,80.4,305.4,82.5,305.6,83.8z"/>
			<path class="st20" d="M303.6,79.6c0,0-1.6-1.5-4.8-2.3c-3.2-0.8-7-0.9-7-0.9l2.7,1l-3.2-0.5c0,0,1.7,1,4.9,1.6
				c3.2,0.6,7.3,2.3,7.3,2.3l-0.8-1.4L303.6,79.6z"/>
		</g>
		<path class="st10" d="M304.7,142.6c0,0,0.8,0.3,5.4,0.6s6-7.3,9-8s1.1,5.9,1.6,6.6c0.4,0.7,1.5-4.1,1.5-4.1s0.1,4.3,0.8,3.9
			c0.7-0.4,1-5.4,1-5.4s1.2,8.3,2.1,2.5c1-5.8-3.4-7.7-6.1-8.6c-2.7-0.9-6.9,7.1-9.6,7.8c-2.6,0.6-6.7-2.8-6.7-2.8L304.7,142.6z"/>
		<g>
			<circle cx="299.3" cy="88.9" r="4.2"/>
			<circle class="st0" cx="299.6" cy="88.1" r="1.5"/>
			<circle class="st0" cx="298" cy="90.6" r="0.7"/>
		</g>
		<path class="st10" d="M279.6,148.3c0,0,0.8,0.1,5.3-1s3.5-8.8,6.1-10.3s2.8,5.3,3.5,5.9c0.6,0.6,0.2-4.4,0.2-4.4s1.4,4.1,1.9,3.5
			c0.6-0.6-0.7-5.5-0.7-5.5s3.6,7.5,2.8,1.7c-0.8-5.8-5.5-6.3-8.4-6.3s-4.5,8.9-6.8,10.3c-2.3,1.4-7.3-0.6-7.3-0.6L279.6,148.3z"/>
		<g>
			<path class="st21" d="M345.9,54.8c3.2,6.1,7.8,10.1,10.2,8.8c2.5-1.3,1.9-7.3-1.3-13.4c-3.2-6.1-7.8-10.1-10.2-8.8
				S342.8,48.7,345.9,54.8z"/>
			<path class="st22" d="M345,55.4c3.2,6.1,7.8,10.1,10.2,8.8c2.5-1.3,1.9-7.3-1.3-13.4c-3.2-6.1-7.8-10.1-10.2-8.8
				C341.2,43.3,341.8,49.3,345,55.4z"/>
		</g>
		<g>
			<path class="st21" d="M361.7,41.9c2.5,4.7,6,7.8,7.9,6.8s1.5-5.7-1-10.4s-6-7.8-7.9-6.8C358.8,32.5,359.2,37.1,361.7,41.9z"/>
			<path class="st22" d="M360.9,42.4c2.5,4.7,6,7.8,7.9,6.8s1.5-5.7-1-10.4s-6-7.8-7.9-6.8C358,33,358.5,37.6,360.9,42.4z"/>
		</g>
		<g>
			<path class="st23" d="M347.4,35.7c0,0-4.8-2.5-8.6-0.4c-7.2,4-2.9,14.8-2.9,14.8s-2.3-6.3,4.9-12.2
				C344.5,35.1,347.4,35.7,347.4,35.7z"/>
			<path class="st24" d="M347.4,35.7c0,0-5.4,0.7-9.3,5.9s-1.2,11-1.2,11s-3.4-6,0.1-11.4C340.5,35.7,347.4,35.7,347.4,35.7z"/>
			<path class="st25" d="M345.5,37.3c0,0-5.8,3.5-6.8,8.9s1.9,9.4,1.9,9.4s-4-3.6-3.5-9.5C337.7,40,345.5,37.3,345.5,37.3z"/>
		</g>
		<g>
			<path class="st23" d="M360.9,28.2c0,0-2.8-1.5-5.1-0.2c-4.3,2.4-1.7,8.8-1.7,8.8s-1.3-3.7,2.9-7.2
				C359.2,27.8,360.9,28.2,360.9,28.2z"/>
			<path class="st24" d="M360.9,28.2c0,0-3.2,0.4-5.5,3.5c-2.3,3.1-0.7,6.5-0.7,6.5s-2-3.6,0.1-6.8
				C356.8,28.2,360.9,28.2,360.9,28.2z"/>
			<path class="st25" d="M359.7,29.2c0,0-3.4,2-4,5.2c-0.6,3.2,1.2,5.6,1.2,5.6s-2.4-2.2-2.1-5.6C355.2,30.8,359.7,29.2,359.7,29.2z
				"/>
		</g>
		<path class="st10" d="M267,52.8c0,0,11.5-10.3,32.2-19.4c19.7-8.7,29.7-9.1,29.7-9.1s-4.9-12.7,6.7-17.6
			c11.6-4.9-11.5-12.1-22.5,0c-6.9,7.7-10.3-6.7-10.3-6.7l-9.1,21.9l-12.1-3.6L278,37.1l-13.4,1.2L267,52.8z"/>
	</g>
	<g>
		<g>
			<path class="st26" d="M254,492.5c0,0-21.9-3.7-22.9,0.4c-0.7,2.9,23.4,2.8,23.4,2.8L254,492.5z"/>
			<path class="st26" d="M234,489.1c0,0-5.9-7.3-6.6-5.1c-0.7,2.2,2.1,5.7,2.1,5.7s-8.1-3.6-9.1-2.4s7.9,4.1,7.4,4.2
				c-0.5,0.1-8.8-0.6-8.5,0.6c0.2,1.2,8.1,1.3,8.2,1.8s-7.7,1.2-7.2,2.1c0.4,0.9,7.4,0.1,8.2,0.2c0.8,0.1-4.9,2.4-4.5,3.4
				c0.4,0.9,5.4-1.3,6.3-1.9c0.9-0.7,5-0.4,6.5-1.7c1.5-1.3,0.9-4.5,0-5.3C235.9,489.8,234,489.1,234,489.1z"/>
		</g>
		<path class="st27" d="M213.4,438.1c4.9,0,12.8,0.5,16.6-1.6c7.7-4.4-14.5-13.5-27.3-23.3s29.1-16.4,37.6-12.1s37.7,28.6,38.3,36.5
			c0.6,7.9-20.7,27.9-20.7,27.9l-14.6-3C243.4,462.4,203.9,438.1,213.4,438.1z"/>
		
			<linearGradient id="SVGID_42_" gradientUnits="userSpaceOnUse" x1="204.3792" y1="561.3976" x2="252.5969" y2="513.1799" gradientTransform="matrix(1 0 0 -1 0 956.182)">
			<stop  offset="0" style="stop-color:#FFC76D"/>
			<stop  offset="1" style="stop-color:#E8E3E0"/>
		</linearGradient>
		<path class="st63" d="M192.4,406.7c0,0-1.5,4.1,0.6,4.6s4.3-1.1,4.3-1.1s-1.1,8.6,1.6,7.5s4.8-2.6,4.8-2.6s-1,5.9,1.6,6.4
			c2.7,0.5,5.4-2.8,5.4-2.8s0,7.1,2.6,7.1s5.7-3.2,5.7-3.2s-2.5,5.3,1.8,5.9c4.3,0.5,5.4-1.6,5.4-1.6s0.5,4.4,3.2,4.8
			c3.7,0.5,5.1-1.9,5.1-1.9s3,4,4,3.5c1.1-0.5,5.9-2.7,5.9-2.7s-0.5,3.7,2.1,3.7s7-3.7,7-3.7s0,3.7,2.1,3.2s3.7-3.7,3.7-3.7
			s1.1,2.7,3.2,2.1c2.1-0.5,4.3-4.3,4.3-4.3L192.4,406.7z"/>
		
			<linearGradient id="SVGID_43_" gradientUnits="userSpaceOnUse" x1="179.7827" y1="404.8653" x2="239.0674" y2="398.6898" gradientTransform="matrix(0.9996 2.982325e-02 2.982325e-02 -0.9996 19.1743 843.3657)">
			<stop  offset="0" style="stop-color:#FFC76D"/>
			<stop  offset="1" style="stop-color:#E8E3E0"/>
		</linearGradient>
		<path class="st64" d="M270.1,450.9c0,0-3.2-7.5-6.4-5.4c-2.9,1.9-1.6,4.3-1.6,4.3s-1.6-3.7-3.7-2.1s-2.1,4.3-2.1,4.3
			s-1-5.3-3.7-3.2s-2.8,5.1-2.8,5.1s0.2-5.6-2.5-4.6s-2.2,2.8-2.2,2.8s-0.4-4.4-3.1-3.4s-3.3,2.1-3.3,2.1s-0.9-5.2-3.1-3.2
			c-2.2,2.1-2.7,2.5-2.7,2.5s0.6-5.1-2.1-4.6s-3.7,1.7-3.7,1.7s1.6-3.8-1.6-3.9s-3,1.9-3,1.9s0.4-6.1-2.3-4.1c-2.7,2.1-3,2.3-3,2.3
			s4.3-8.3,0.9-8.2c-3.4,0.1-3.8,5.4-3.8,5.4s1.6-7.5-0.5-7s-1.2,5.4-1.2,5.4s10.9,10.6,11.9,11.2c1,0.6,41.4,12,41.4,12
			L270.1,450.9z"/>
		<g>
			<path class="st30" d="M251.4,531c0,0,6.7,16.7,7.4,20.4c0.6,3.6-9.3,5.4-10.2,8c-0.9,2.6,6.4,1.1,6.4,1.1s2.5,2.4,4.8,1.8
				c1.5-0.4,8.3-1,12.9-1.3c2.3-0.2,4-2.3,3.7-4.6l-2.8-20.2C273.5,536.1,252.7,521.6,251.4,531z"/>
			<path class="st31" d="M275.7,551.5c0,0-9.1-7.5-14.6-9.3s-3.9,4.2-3.9,4.2l-5.8-15.7c0,0,19.7,3,20.2,3.6
				c0.5,0.6,3.1,5.1,3.1,5.1L275.7,551.5z"/>
			<path class="st15" d="M253.4,560.8c0,0,0.6-4.1-1-4c-1.6,0.1-4.6,1.9-5.2,3.1S253.4,560.8,253.4,560.8z"/>
			<path class="st15" d="M260.6,562.1c0,0,0.6-3.5-1.9-3.5c-2.4,0-5.5,1.2-6.1,3C252,563.4,260.6,562.1,260.6,562.1z"/>
		</g>
		<path class="st32" d="M302.8,509.3c0,0,9.1-22.2,6.4-23.6c-2.7-1.3-10.9-7.2-9.6-10.2c1.2-3,23.5-11.5,20.9-12.8
			c-2.7-1.3-9.6-16.6-9.6-16.6s23.3-5.9,21.6-7.1c-1.7-1.2-11.5-10.2-11.5-10.2l13.4-12.9l-13.3-6.1c0,0-4.4-13,0.9-16.8
			c5.4-3.7-24.6,1.1-24.6,1.1l-28.4,98"/>
		<path class="st32" d="M300.6,507.1l17.1-13.3l8.6,12.3l2.9-11.6l13.7,2l4.6-9.9l6.7,6.7c0,0-20,20-26.7,25.5s-27.3,3-27.3,3
			L300.6,507.1z"/>
		
			<linearGradient id="SVGID_44_" gradientUnits="userSpaceOnUse" x1="190.9249" y1="495.6535" x2="354.1249" y2="495.6535" gradientTransform="matrix(1 0 0 -1 0 956.182)">
			<stop  offset="0" style="stop-color:#6BC62A"/>
			<stop  offset="1" style="stop-color:#00B53E"/>
		</linearGradient>
		<path class="st65" d="M320.8,510.2c-31.9-3.1-29.2-27.7-20.1-43.2c0.1-0.1,0.1-0.2,0-0.3c12.8-13.2,26.4-39.3,23.1-48.9
			c-4.3-12.3-76.6-66.1-99.6-61.3c-23,4.8-33.3,48.5-33.3,48.5c4,15.2,49,32.2,68.8,26.5c7.7-2.3,13.5-3.7,16.9,2.9
			c1.8,3.5,0,8.1-18.2,15c-15.5,5.9-39.4-4.5-43.4-10.7c-3.4-5.4-12.9,2.5-3.8,10.1c6,5,20.4,13.9,43.8,20.4
			c-2.2,3.3-5.1,8.3-5.8,10.2c-1,2.8-4.1,8.9-5.9,14.5c-1.7,5.6-5.5,12.6-6.4,21.4c-0.9,8.8,6.9,18.9,14.9,21.5
			c8,2.6,12.6,3.3,19.9,5.6c4.1,3.9,8.9,7.3,12.7,11.7c-5.1,0.9-11.6,2-15,6.2c1.6,1.7,3.4,2.8,5.6,3.1c3.5,0.5,5.6,0.8,9.4,1.3
			c2.6,0.3,6.9-0.3,10.7-0.6c2.8-0.2,4.9-2.6,5-5.4c0.1-5.1-0.4-9.7,0.1-15.3c25.1-1.8,37.8-29.4,53.9-50
			C344,492.6,330.8,511.2,320.8,510.2z"/>
		<path class="st15" d="M272.9,562.1c0,0,0.6-4.1-1-4c-1.6,0.1-4.6,1.9-5.2,3.1C266.2,562.4,272.9,562.1,272.9,562.1z"/>
		<path class="st15" d="M280.1,563.5c0,0,0.6-3.5-1.8-3.5s-5.5,1.2-6.1,3C271.6,564.8,280.1,563.5,280.1,563.5z"/>
		<path class="st31" d="M271.7,542.5c0,0,28.4-0.8,28.4,0.5c0,1.1-0.2,10.9,0,13.4s-4.8-4.2-13.9-7.3
			C277.1,546,271.7,542.5,271.7,542.5z"/>
		<g>
			<g>
				<path class="st34" d="M224.7,400.8c-3.2,6.1-7.8,10.1-10.2,8.8c-2.5-1.3-1.9-7.3,1.3-13.4c3.2-6.1,7.8-10.1,10.2-8.8
					C228.4,388.7,227.9,394.7,224.7,400.8z"/>
				<path class="st27" d="M225.6,401.5c-3.2,6.1-7.8,10.1-10.2,8.8c-2.5-1.3-1.9-7.3,1.3-13.4c3.2-6.1,7.8-10.1,10.2-8.8
					C229.4,389.3,228.8,395.3,225.6,401.5z"/>
			</g>
			<g>
				<path class="st34" d="M208.9,387.9c-2.5,4.7-6,7.8-7.9,6.8s-1.5-5.7,1-10.4c2.5-4.7,6-7.8,7.9-6.8
					C211.9,378.5,211.4,383.2,208.9,387.9z"/>
				<path class="st27" d="M209.7,388.4c-2.5,4.7-6,7.8-7.9,6.8s-1.5-5.7,1-10.4c2.5-4.7,6-7.8,7.9-6.8
					C212.6,379,212.2,383.6,209.7,388.4z"/>
			</g>
		</g>
		<g>
			<g>
				<path class="st32" d="M290.7,414.4c0,0,2.2,2.9,3,6.1c0.8,3.2,1.4,8,1.4,8l0.7-1.8c0,0,0.3,0.6,1.2,1.4c0.8,0.6,3.2,1.4,3.2,1.4
					s-0.7-3.4-1.6-7.3c-1.2-5.4-4.6-7.8-4.6-7.8l0.1,1.1C294.2,415.6,292,414.5,290.7,414.4z"/>
				<path class="st30" d="M295.1,415.9c0,0,1.7,1.5,2.8,4.6c1.1,3.1,1.6,6.9,1.6,6.9l-1.3-2.5l0.8,3.1c0,0-1.2-1.6-2.1-4.7
					c-0.9-3.2-3-7-3-7l1.5,0.7L295.1,415.9z"/>
			</g>
			<path class="st36" d="M284.9,421.4c0,0,7.6-0.9,5.3,6"/>
		</g>
		<path class="st32" d="M301.7,395.8c0,0-12.3-10.5-33-19.6c-19.7-8.7-33.4-12-33.4-12s0.1-19.7,18.7-24.1c9.1-2.1,24.5,3.8,22,4.8
			c-10.7,4.3-11.4,22.4-2.1,15c8-6.4,20.9,1.1,20.9,1.1s-13.1,8.2-8.6,9.1c5.4,1.1,18.6-2.5,15,1.6c-4.3,4.8-9.6,8.6-9.6,8.6
			s24.1-4.8,19.8,1.1S301.7,395.8,301.7,395.8z"/>
	</g>
	<g>
		<g>
			<path class="st26" d="M65.8,492.5c0,0-21.9-3.7-22.9,0.4c-0.7,2.9,23.4,2.8,23.4,2.8L65.8,492.5z"/>
			<path class="st26" d="M45.8,489.1c0,0-5.9-7.3-6.6-5.1c-0.7,2.2,2.1,5.7,2.1,5.7s-8.1-3.6-9.1-2.4c-1,1.2,7.9,4.1,7.4,4.2
				c-0.5,0.1-8.8-0.6-8.5,0.6c0.2,1.2,8.1,1.3,8.2,1.8s-7.7,1.2-7.2,2.1c0.4,0.9,7.4,0.1,8.2,0.2c0.8,0.1-4.9,2.4-4.5,3.4
				c0.4,0.9,5.4-1.3,6.3-1.9c0.9-0.7,5-0.4,6.5-1.7c1.5-1.3,0.9-4.5,0-5.3C47.7,489.8,45.8,489.1,45.8,489.1z"/>
		</g>
		<path class="st27" d="M25.2,438.1c4.9,0,12.8,0.5,16.6-1.6c7.7-4.4-14.5-13.5-27.3-23.3s29.1-16.4,37.6-12.1s37.7,28.6,38.3,36.5
			c0.6,7.9-20.7,27.9-20.7,27.9l-14.6-3C55.2,462.4,15.7,438.1,25.2,438.1z"/>
		
			<linearGradient id="SVGID_45_" gradientUnits="userSpaceOnUse" x1="16.168" y1="561.3976" x2="64.3857" y2="513.1799" gradientTransform="matrix(1 0 0 -1 0 956.182)">
			<stop  offset="0" style="stop-color:#FFC76D"/>
			<stop  offset="1" style="stop-color:#E8E3E0"/>
		</linearGradient>
		<path class="st66" d="M4.2,406.7c0,0-1.5,4.1,0.6,4.6s4.3-1.1,4.3-1.1s-1.1,8.6,1.6,7.5s4.8-2.6,4.8-2.6s-1,5.9,1.6,6.4
			c2.7,0.5,5.4-2.8,5.4-2.8s0,7.1,2.6,7.1s5.7-3.2,5.7-3.2s-2.5,5.3,1.8,5.9c4.3,0.5,5.4-1.6,5.4-1.6s0.5,4.4,3.2,4.8
			c3.7,0.5,5.1-1.9,5.1-1.9s3,4,4,3.5c1.1-0.5,5.9-2.7,5.9-2.7s-0.5,3.7,2.1,3.7s7-3.7,7-3.7s0,3.7,2.1,3.2s3.7-3.7,3.7-3.7
			s1.1,2.7,3.2,2.1c2.1-0.5,4.3-4.3,4.3-4.3L4.2,406.7z"/>
		
			<linearGradient id="SVGID_46_" gradientUnits="userSpaceOnUse" x1="-8.3364" y1="399.2527" x2="50.9483" y2="393.0773" gradientTransform="matrix(0.9996 2.982325e-02 2.982325e-02 -0.9996 19.1743 843.3657)">
			<stop  offset="0" style="stop-color:#FFC76D"/>
			<stop  offset="1" style="stop-color:#E8E3E0"/>
		</linearGradient>
		<path class="st67" d="M81.9,450.9c0,0-3.2-7.5-6.4-5.4c-2.9,1.9-1.6,4.3-1.6,4.3s-1.6-3.7-3.7-2.1s-2.1,4.3-2.1,4.3
			s-1-5.3-3.7-3.2c-2.7,2.1-2.8,5.1-2.8,5.1s0.2-5.6-2.5-4.6s-2.2,2.8-2.2,2.8s-0.4-4.4-3.1-3.4s-3.3,2.1-3.3,2.1s-0.9-5.2-3.1-3.2
			c-2.2,2.1-2.7,2.5-2.7,2.5s0.6-5.1-2.1-4.6s-3.7,1.7-3.7,1.7s1.6-3.8-1.6-3.9s-3,1.9-3,1.9s0.4-6.1-2.3-4.1c-2.7,2.1-3,2.3-3,2.3
			s4.3-8.3,0.9-8.2c-3.4,0.1-3.8,5.4-3.8,5.4s1.6-7.5-0.5-7s-1.2,5.4-1.2,5.4s10.9,10.6,11.9,11.2c1,0.6,41.4,12,41.4,12L81.9,450.9
			z"/>
		<g>
			<path class="st30" d="M63.2,531c0,0,6.7,16.7,7.4,20.4c0.6,3.6-9.3,5.4-10.2,8c-0.9,2.6,6.4,1.1,6.4,1.1s2.5,2.4,4.8,1.8
				c1.5-0.4,8.3-1,12.9-1.3c2.3-0.2,4-2.3,3.7-4.6l-2.8-20.2C85.3,536.1,64.5,521.6,63.2,531z"/>
			<path class="st31" d="M87.5,551.5c0,0-9.1-7.5-14.6-9.3s-3.9,4.2-3.9,4.2l-5.8-15.7c0,0,19.7,3,20.2,3.6c0.5,0.6,3.1,5.1,3.1,5.1
				L87.5,551.5z"/>
			<path class="st15" d="M65.2,560.8c0,0,0.6-4.1-1-4c-1.6,0.1-4.6,1.9-5.2,3.1S65.2,560.8,65.2,560.8z"/>
			<path class="st15" d="M72.4,562.1c0,0,0.6-3.5-1.9-3.5c-2.4,0-5.5,1.2-6.1,3C63.8,563.4,72.4,562.1,72.4,562.1z"/>
		</g>
		<path class="st32" d="M114.6,509.3c0,0,9.1-22.2,6.4-23.6c-2.7-1.3-10.9-7.2-9.6-10.2c1.2-3,23.5-11.5,20.9-12.8
			c-2.7-1.3-9.6-16.6-9.6-16.6s23.3-5.9,21.6-7.1c-1.7-1.2-11.5-10.2-11.5-10.2l13.4-12.9l-13.3-6.1c0,0-4.4-13,0.9-16.8
			c5.4-3.7-24.6,1.1-24.6,1.1l-28.4,98"/>
		<path class="st32" d="M112.4,507.1l17.1-13.3l8.6,12.3l2.9-11.6l13.7,2l4.6-9.9l6.7,6.7c0,0-20,20-26.7,25.5s-27.3,3-27.3,3
			L112.4,507.1z"/>
		
			<linearGradient id="SVGID_47_" gradientUnits="userSpaceOnUse" x1="2.7136" y1="495.6535" x2="165.9136" y2="495.6535" gradientTransform="matrix(1 0 0 -1 0 956.182)">
			<stop  offset="0" style="stop-color:#6BC62A"/>
			<stop  offset="1" style="stop-color:#00B53E"/>
		</linearGradient>
		<path class="st68" d="M132.6,510.2c-31.9-3.1-29.2-27.7-20.1-43.2c0.1-0.1,0.1-0.2,0-0.3c12.8-13.2,26.4-39.3,23.1-48.9
			c-4.3-12.3-76.6-66.1-99.6-61.3C13,361.3,2.7,405,2.7,405c4,15.2,49,32.2,68.8,26.5c7.7-2.3,13.5-3.7,16.9,2.9
			c1.8,3.5,0,8.1-18.2,15c-15.5,5.9-39.4-4.5-43.4-10.7c-3.4-5.4-12.9,2.5-3.8,10.1c6,5,20.4,13.9,43.8,20.4
			c-2.2,3.3-5.1,8.3-5.8,10.2c-1,2.8-4.1,8.9-5.9,14.5c-1.7,5.6-5.5,12.6-6.4,21.4c-0.9,8.8,6.9,18.9,14.9,21.5
			c8,2.6,12.6,3.3,19.9,5.6c4.1,3.9,8.9,7.3,12.7,11.7c-5.1,0.9-11.6,2-15,6.2c1.6,1.7,3.4,2.8,5.6,3.1c3.5,0.5,5.6,0.8,9.4,1.3
			c2.6,0.3,6.9-0.3,10.7-0.6c2.8-0.2,4.9-2.6,5-5.4c0.1-5.1-0.4-9.7,0.1-15.3c25.1-1.8,37.8-29.4,53.9-50
			C155.8,492.6,142.6,511.2,132.6,510.2z"/>
		<g>
			<path class="st2" d="M33.2,479.1c0,0-13.3-8.3-4.1-22.6C29.2,456.4,40.7,463.3,33.2,479.1z"/>
			<path class="st2" d="M31.2,481.1c0,0-5.8,14.9-21.5,8.3C9.6,489.4,14.3,476.4,31.2,481.1z"/>
			<path class="st2" d="M24.6,475.4c0,0-15.6,3.7-19.1-13C5.5,462.4,18.8,458.9,24.6,475.4z"/>
			<g>
				<path class="st2" d="M22.5,474.7c0-0.1,7.6,1.7,10.7,4.4c3.1,2.7,6.3,6.1,7.8,8.5s2.1,5,2.2,6.8c0.1,1.8-0.2,3-0.3,2.9
					c-0.1,0-0.1-1.1-0.4-2.9c-0.3-1.7-3.9-4.5-5.3-6.7C35.9,485.4,22.5,474.8,22.5,474.7z"/>
			</g>
		</g>
		<path class="st15" d="M84.7,562.1c0,0,0.6-4.1-1-4c-1.6,0.1-4.6,1.9-5.2,3.1C78,562.4,84.7,562.1,84.7,562.1z"/>
		<path class="st15" d="M91.9,563.5c0,0,0.6-3.5-1.8-3.5s-5.5,1.2-6.1,3C83.4,564.8,91.9,563.5,91.9,563.5z"/>
		<path class="st31" d="M83.5,542.5c0,0,28.4-0.8,28.4,0.5c0,1.1-0.2,10.9,0,13.4s-4.8-4.2-13.9-7.3C88.9,546,83.5,542.5,83.5,542.5
			z"/>
		<g>
			<g>
				<path class="st34" d="M36.5,400.8c-3.2,6.1-7.8,10.1-10.2,8.8c-2.5-1.3-1.9-7.3,1.3-13.4c3.2-6.1,7.8-10.1,10.2-8.8
					C40.2,388.7,39.7,394.7,36.5,400.8z"/>
				<path class="st27" d="M37.4,401.5c-3.2,6.1-7.8,10.1-10.2,8.8c-2.5-1.3-1.9-7.3,1.3-13.4c3.2-6.1,7.8-10.1,10.2-8.8
					C41.2,389.3,40.6,395.3,37.4,401.5z"/>
			</g>
			<g>
				<path class="st34" d="M20.7,387.9c-2.5,4.7-6,7.8-7.9,6.8s-1.5-5.7,1-10.4c2.5-4.7,6-7.8,7.9-6.8
					C23.7,378.5,23.2,383.2,20.7,387.9z"/>
				<path class="st27" d="M21.5,388.4c-2.5,4.7-6,7.8-7.9,6.8s-1.5-5.7,1-10.4c2.5-4.7,6-7.8,7.9-6.8C24.4,379,24,383.6,21.5,388.4z
					"/>
			</g>
			<g>
				<path class="st35" d="M35,381.7c0,0,4.8-2.5,8.6-0.4c7.2,4,2.9,14.8,2.9,14.8s2.3-6.3-4.9-12.2C38,381.1,35,381.7,35,381.7z"/>
				<path class="st32" d="M35,381.7c0,0,5.4,0.7,9.3,5.9c3.9,5.2,1.2,11,1.2,11s3.4-6-0.1-11.4C42,381.7,35,381.7,35,381.7z"/>
				<path class="st25" d="M37,383.4c0,0,5.8,3.5,6.8,8.9s-1.9,9.4-1.9,9.4s4-3.6,3.5-9.5C44.7,386,37,383.4,37,383.4z"/>
			</g>
			<g>
				<path class="st35" d="M21.5,374.2c0,0,2.8-1.5,5.1-0.2c4.3,2.4,1.7,8.8,1.7,8.8s1.3-3.7-2.9-7.2
					C23.3,373.8,21.5,374.2,21.5,374.2z"/>
				<path class="st32" d="M21.5,374.2c0,0,3.2,0.4,5.5,3.5s0.7,6.5,0.7,6.5s2-3.6-0.1-6.8C25.6,374.2,21.5,374.2,21.5,374.2z"/>
				<path class="st25" d="M22.7,375.2c0,0,3.4,2,4,5.2c0.6,3.2-1.2,5.6-1.2,5.6s2.4-2.2,2.1-5.6C27.3,376.8,22.7,375.2,22.7,375.2z"
					/>
			</g>
		</g>
		<g>
			<g>
				<path class="st32" d="M102.5,414.4c0,0,2.2,2.9,3,6.1c0.8,3.2,1.4,8,1.4,8l0.7-1.8c0,0,0.3,0.6,1.2,1.4c0.8,0.6,3.2,1.4,3.2,1.4
					s-0.7-3.4-1.6-7.3c-1.2-5.4-4.6-7.8-4.6-7.8l0.1,1.1C106,415.6,103.8,414.5,102.5,414.4z"/>
				<path class="st30" d="M106.9,415.9c0,0,1.7,1.5,2.8,4.6c1.1,3.1,1.6,6.9,1.6,6.9l-1.3-2.5l0.8,3.1c0,0-1.2-1.6-2.1-4.7
					c-0.9-3.2-3-7-3-7l1.5,0.7L106.9,415.9z"/>
			</g>
			<path class="st36" d="M96.7,421.4c0,0,7.6-0.9,5.3,6"/>
		</g>
		<g>
			<path class="st37" d="M65.4,488.8c-4.2-0.3-22.5,2.5-22.2,6.7c0.2,2.9,23.2-4.4,23.2-4.4S69.6,489.1,65.4,488.8z"/>
			<path class="st37" d="M44.8,491c0,0-7.9-5.2-7.8-2.9c0.1,2.2,3.7,4.8,3.7,4.8s-8.8-1-9.4,0.5s8.8,1.6,8.3,1.8
				c-0.4,0.2-8.6,2-8,3.1c0.6,1.1,8.1-1.2,8.4-0.8c0.2,0.4-7,3.4-6.3,4.2c0.7,0.8,7.1-2.1,7.9-2.2s-4,3.7-3.2,4.6
				c0.7,0.8,4.7-2.8,5.4-3.7s4.6-1.9,5.7-3.6s-0.5-4.6-1.6-5.1S44.8,491,44.8,491z"/>
		</g>
		<path class="st32" d="M113.5,395.8c0,0-12.3-10.5-33-19.6c-19.7-8.7-33.4-12-33.4-12s0.1-19.7,18.7-24.1c9.1-2.1,24.5,3.8,22,4.8
			c-10.7,4.3-11.4,22.4-2.1,15c8-6.4,20.9,1.1,20.9,1.1s-13.1,8.2-8.6,9.1c5.4,1.1,18.6-2.5,15,1.6c-4.3,4.8-9.6,8.6-9.6,8.6
			s24.1-4.8,19.8,1.1S113.5,395.8,113.5,395.8z"/>
	</g>
	<g>
		<path class="st35" d="M376.8,347.9c0,0,4.8-2.5,8.6-0.4c7.2,4,2.9,14.8,2.9,14.8s2.3-6.3-4.9-12.2
			C379.8,347.3,376.8,347.9,376.8,347.9z"/>
		<path class="st32" d="M376.8,347.9c0,0,5.4,0.7,9.3,5.9c3.9,5.2,1.2,11,1.2,11s3.4-6-0.1-11.4
			C383.8,347.9,376.8,347.9,376.8,347.9z"/>
		<path class="st25" d="M378.8,349.6c0,0,5.8,3.5,6.8,8.9s-1.9,9.4-1.9,9.4s4-3.6,3.5-9.5C386.5,352.2,378.8,349.6,378.8,349.6z"/>
	</g>
	<g>
		<path class="st35" d="M363.3,340.4c0,0,2.8-1.5,5.1-0.2c4.3,2.4,1.7,8.8,1.7,8.8s1.3-3.7-2.9-7.2
			C365.1,340,363.3,340.4,363.3,340.4z"/>
		<path class="st32" d="M363.3,340.4c0,0,3.2,0.4,5.5,3.5s0.7,6.5,0.7,6.5s2-3.6-0.1-6.8C367.4,340.4,363.3,340.4,363.3,340.4z"/>
		<path class="st25" d="M364.5,341.4c0,0,3.4,2,4,5.2c0.6,3.2-1.2,5.6-1.2,5.6s2.4-2.2,2.1-5.6C369.1,343,364.5,341.4,364.5,341.4z"
			/>
	</g>
	<g>
		<path class="st2" d="M391,396.4c0,0-13.3-8.3-4.1-22.6C387,373.7,398.5,380.6,391,396.4z"/>
		<path class="st2" d="M389,398.4c0,0-5.8,14.9-21.5,8.3C367.4,406.7,372.1,393.7,389,398.4z"/>
		<path class="st2" d="M382.4,392.7c0,0-15.6,3.7-19.1-13C363.3,379.7,376.6,376.2,382.4,392.7z"/>
		<g>
			<path class="st2" d="M380.3,392c0-0.1,7.6,1.7,10.7,4.4c3.1,2.7,6.3,6.1,7.8,8.5s2.1,5,2.2,6.8c0.1,1.8-0.2,3-0.3,2.9
				c-0.1,0-0.1-1.1-0.4-2.9c-0.3-1.7-3.9-4.5-5.3-6.7C393.7,402.7,380.3,392.1,380.3,392z"/>
		</g>
	</g>
	<g>
		<path class="st37" d="M397.5,421.8c-4.2-0.3-22.5,2.5-22.2,6.7c0.2,2.9,23.2-4.4,23.2-4.4S401.7,422.1,397.5,421.8z"/>
		<path class="st37" d="M376.9,424c0,0-7.9-5.2-7.8-2.9c0.1,2.2,3.7,4.8,3.7,4.8s-8.8-1-9.4,0.5s8.8,1.6,8.3,1.8
			c-0.4,0.2-8.6,2-8,3.1s8.1-1.2,8.4-0.8c0.2,0.4-7,3.4-6.3,4.2c0.7,0.8,7.1-2.1,7.9-2.2s-4,3.7-3.2,4.6c0.7,0.8,4.7-2.8,5.4-3.7
			s4.6-1.9,5.7-3.6s-0.5-4.6-1.6-5.1S376.9,424,376.9,424z"/>
	</g>
</g>
</svg>
