<?xml version="1.0" encoding="utf-8"?>
<!-- Generator: Adobe Illustrator 23.0.1, SVG Export Plug-In . SVG Version: 6.00 Build 0)  -->
<svg version="1.1" xmlns="http://www.w3.org/2000/svg" xmlns:xlink="http://www.w3.org/1999/xlink" x="0px" y="0px" width="26.9px"
	 height="26.9px" viewBox="0 0 26.9 26.9" style="enable-background:new 0 0 26.9 26.9;" xml:space="preserve">
<style type="text/css">
	.st0{fill:#FFFFFF;}
	.st1{fill:#6BC62A;}
	.st2{fill:url(#SVGID_1_);}
	.st3{fill:url(#SVGID_2_);}
	.st4{fill:url(#SVGID_3_);}
	.st5{fill:none;stroke:#7A6356;stroke-width:3;stroke-linecap:round;stroke-linejoin:round;stroke-miterlimit:10;}
	.st6{fill:#7A6356;}
	.st7{fill:#FFFFFF;stroke:#7A6356;stroke-width:3;stroke-linecap:round;stroke-linejoin:round;stroke-miterlimit:10;}
	.st8{fill:#009380;}
	.st9{fill:url(#SVGID_4_);}
	.st10{fill:url(#SVGID_5_);}
	.st11{fill:#A60C17;}
	.st12{fill:url(#SVGID_6_);}
	.st13{fill:#E02229;}
	.st14{opacity:0.88;fill:#D50000;enable-background:new    ;}
	.st15{fill:url(#SVGID_7_);}
	.st16{fill:#491B02;}
	.st17{fill:url(#SVGID_8_);}
	.st18{fill:url(#SVGID_9_);}
	.st19{fill:url(#SVGID_10_);}
	.st20{fill:#680200;}
	.st21{fill:#A30B05;}
	.st22{fill:#FF5B56;}
	.st23{fill:#A40000;}
	.st24{opacity:0.5;fill:#D50000;enable-background:new    ;}
	.st25{fill:#6A1100;}
	.st26{opacity:0.43;fill:#FFFFFF;enable-background:new    ;}
	.st27{fill:#006325;}
	.st28{fill:#004B25;}
	.st29{fill:url(#SVGID_11_);}
	.st30{fill:url(#SVGID_12_);}
	.st31{fill:#00923D;}
	.st32{opacity:0.4;fill:#006830;enable-background:new    ;}
	.st33{fill:#006830;}
	.st34{fill:url(#SVGID_13_);}
	.st35{fill:#D6E000;}
	.st36{opacity:0.5;fill:#00923D;enable-background:new    ;}
	.st37{fill:none;stroke:#000000;stroke-width:2;stroke-linecap:round;stroke-linejoin:round;stroke-miterlimit:10;}
	.st38{fill:#00962B;}
	.st39{fill:url(#SVGID_14_);}
	.st40{fill:url(#SVGID_15_);}
	.st41{fill:url(#SVGID_16_);}
	.st42{fill:url(#SVGID_17_);}
	.st43{fill:url(#SVGID_18_);}
</style>
<g id="Layer_2">
	<rect x="-1242.9" y="-33.7" class="st0" width="1146.2" height="404.9"/>
</g>
<g id="green">
	<g>
		<path class="st1" d="M-549.9,217.4c0,0-4-20.3,18.1-24.4C-531.8,192.9-528,210.2-549.9,217.4z"/>
		<path class="st1" d="M-553.1,217.6c0,0-20.3,7.5-28.1-13.7C-581.2,203.9-563.9,197.1-553.1,217.6z"/>
		<path class="st1" d="M-554.3,205.7c0,0-17.7-11.7-4.8-30.1C-559,175.5-543.6,185.2-554.3,205.7z"/>
		<g>
			<path class="st1" d="M-555.4,203c0,0,0.4-2.1,1.3-0.4c1.6,3.1,4.1,11.2,4.2,14.7c0.2,5.4-0.1,11.6-1.1,15.2
				c-1,3.6-2.8,6.5-4.5,8.3c-1.6,1.8-3,2.5-3.1,2.4c-0.1-0.1,1-1.1,2.4-2.9c1.4-1.8-0.5,1.2,1.7-11.2
				C-552.6,218.6-555.5,203.1-555.4,203z"/>
		</g>
	</g>
</g>
<g id="fire">
</g>
<g id="Layer_1">
	<g>
		
			<linearGradient id="SVGID_1_" gradientUnits="userSpaceOnUse" x1="-843.4144" y1="824.6027" x2="-770.9225" y2="824.6027" gradientTransform="matrix(-3.274567e-02 -0.9994 -0.8688 2.845226e-02 -79.7942 -616.6563)">
			<stop  offset="0.1522" style="stop-color:#FF3A2D"/>
			<stop  offset="0.1907" style="stop-color:#FF462A"/>
			<stop  offset="0.4015" style="stop-color:#FF811B"/>
			<stop  offset="0.5953" style="stop-color:#FFB00F"/>
			<stop  offset="0.7658" style="stop-color:#FFD207"/>
			<stop  offset="0.9065" style="stop-color:#FFE702"/>
			<stop  offset="1" style="stop-color:#FFEE00"/>
		</linearGradient>
		<path class="st2" d="M-771.5,249.8c-0.1,0-0.1,0-0.1-0.1c-0.6-1.4-13.5-16.4-13.1-27.9c0.4-12.1,2.8-27.1,3-29
			c0.3-3.5,4.5,11,5.3,12.1c0.1,0.1,0.3,0,0.3-0.1c-0.9-2.2-1.2-8.2-0.3-12.4s6.1-11.9,8.3-15c0.3-0.4,0.9-0.2,0.9,0.3
			c0,2.3,1,9.8,3.7,12.5c3.7,3.6,11.5,15.2,7.9,27.8C-759.2,230.4-767.4,250.1-771.5,249.8z"/>
		
			<linearGradient id="SVGID_2_" gradientUnits="userSpaceOnUse" x1="-839.6618" y1="822.7706" x2="-791.2124" y2="822.7706" gradientTransform="matrix(-3.274567e-02 -0.9994 -0.8688 2.845226e-02 -79.7942 -616.6563)">
			<stop  offset="0.1522" style="stop-color:#FF5A19"/>
			<stop  offset="1" style="stop-color:#FFEE00"/>
		</linearGradient>
		<path class="st3" d="M-770.3,246c0,0-7.6-21.5-3.8-29.7c3.8-8.2,5.4-12.2,4.3-17.1c-1.8-8,10.8,14.4,8.9,22.6
			C-763,230-770.3,246-770.3,246z"/>
		
			<linearGradient id="SVGID_3_" gradientUnits="userSpaceOnUse" x1="-838.4184" y1="823.5946" x2="-803.4827" y2="823.5946" gradientTransform="matrix(-3.274567e-02 -0.9994 -0.8688 2.845226e-02 -79.7942 -616.6563)">
			<stop  offset="0.1522" style="stop-color:#FFB02A"/>
			<stop  offset="0.9393" style="stop-color:#FFEE00"/>
		</linearGradient>
		<path class="st4" d="M-770.4,244.8c0,0-2.9-15.1-2.5-20.2c0.3-5,2.3-7.2,4.1-10.9c0.4-0.9,1-2.9,1.3-3.9c0.1-0.2,0.3-0.2,0.4,0
			c0.7,1.5,2.5,6,2.8,10.2C-763.8,225.2-770.4,244.8-770.4,244.8z"/>
	</g>
	<line class="st5" x1="-770.2" y1="125.2" x2="-552.7" y2="125.2"/>
	<circle class="st6" cx="-661.4" cy="101.8" r="3.8"/>
	<path class="st6" d="M-654.1,81.5c-3.4-4.1-5.8-11.8-6.9-15.2c-0.1-0.5-0.8-0.5-1,0c-0.8,3-2.9,9.3-6.9,14.7
		c-3.7,5,0.4,12.3,7.3,12.3c0,0,0,0,0.1,0c0,0,0,0,0.1,0C-654.6,93.3-650.2,86.3-654.1,81.5z M-660.7,90.3c-3.4,0.6-6.2-2.3-5.7-5.7
		c0.3-2,2-3.7,4-4c3.4-0.6,6.2,2.3,5.7,5.7C-657,88.3-658.7,89.9-660.7,90.3z"/>
	<line class="st5" x1="-661.4" y1="125.2" x2="-661.4" y2="92"/>
	<circle class="st7" cx="-661.4" cy="124.7" r="12"/>
	<g>
		<path class="st8" d="M-600.5,235.1c9.5,17.3,27,28.8,47,28.8s37.5-11.6,47-28.8H-600.5z"/>
		<polygon class="st5" points="-553.5,126.8 -600.8,235.1 -506.2,235.1 		"/>
		<circle class="st1" cx="-553.5" cy="126.3" r="6.5"/>
	</g>
	<g>
		<linearGradient id="SVGID_4_" gradientUnits="userSpaceOnUse" x1="-816.327" y1="249.5051" x2="-722.3929" y2="249.5051">
			<stop  offset="0" style="stop-color:#FF3A2D"/>
			<stop  offset="1" style="stop-color:#D50000"/>
		</linearGradient>
		<path class="st9" d="M-816.3,235.1c9.5,17.3,27,28.8,47,28.8s37.5-11.6,47-28.8H-816.3z"/>
		<polygon class="st5" points="-769.4,126.8 -816.7,235.1 -722,235.1 		"/>
		<linearGradient id="SVGID_5_" gradientUnits="userSpaceOnUse" x1="-775.8874" y1="126.2991" x2="-762.8325" y2="126.2991">
			<stop  offset="0" style="stop-color:#FF3A2D"/>
			<stop  offset="1" style="stop-color:#D50000"/>
		</linearGradient>
		<circle class="st10" cx="-769.4" cy="126.3" r="6.5"/>
	</g>
	<g>
		<path class="st11" d="M-953.7,173.3c0,0-0.2-1.8-9.7-1.8c-4.9,0-10.3-1.8-10.9-6.7c-1.1-8.8,9.7-19.4,22.5-29.1
			s-29.1-16.4-37.6-12.1c-8.5,4.2-27.9,36.4-28.5,44.3c-0.6,7.9,10.9,20,10.9,20l14.6-3L-953.7,173.3z"/>
		<path class="st11" d="M-1058.7,224.3c-0.7-1.8-0.8-18.3,1.2-17.6s13,0.3,13,0.3s-15-17.2-12.4-18.5c2.7-1.3,23.9-1.3,22.7-4.4
			c-1.2-3-22.4-8.8-19.8-10.1c2.6-1.3,9.7-14.2,9.7-14.2s-18.6-1.4-16.9-2.6c1.7-1.2,11.5-10.2,11.5-10.2l-13.4-12.9l13.3-6.1
			c0,0-7-15-5.2-15.2l26.7,2.2l6.7,99L-1058.7,224.3"/>
		<path class="st11" d="M-1058.7,224.3l-10.3-9.1l-8.6,16l-2.9-15.4l-14.2,3.1l-4-11l-6.7,6.7c0,0,20,20,26.7,25.5
			c6.7,5.5,27.3,3,27.3,3L-1058.7,224.3z"/>
		
			<linearGradient id="SVGID_6_" gradientUnits="userSpaceOnUse" x1="-966.0684" y1="1171.0192" x2="-879.988" y2="1171.0192" gradientTransform="matrix(0.9906 -0.1366 -0.1366 -0.9906 110.3621 1175.9508)">
			<stop  offset="0" style="stop-color:#E6E6E6"/>
			<stop  offset="1" style="stop-color:#FF9300"/>
		</linearGradient>
		<path class="st12" d="M-994.8,161.6l6.1,2.8l-1.1-8.2l7.5,3.8l-1-7.9c0,0,6.2,2.3,7.2,1.8s2.9-7.1,2.9-7.1l4.4,2.2l1.7-5.4l5,4.7
			l2.4-5.5l4.3,0.9l1-6.2l8.7,3.6l2.2-7.2l6.1,4.4l0.1-9.2c0,0,8.2,7.2,8,6c-0.1-1.2-0.9-8.7-0.9-8.7s8.5,5.5,8.2,4.8
			s-3-12.1-3-12.1l-8.9-0.2l-71.5,37.6L-994.8,161.6z"/>
		<path class="st13" d="M-994.3,249.6c0,0-6.7,16.7-7.3,20.4c-0.6,3.6,9.3,5.3,10.2,7.9c0.9,2.6-6.4,1.2-6.4,1.2s-2.5,2.4-4.8,1.8
			c-1.5-0.4-8.3-0.9-12.9-1.3c-2.3-0.2-4-2.3-3.7-4.6l2.8-20.3C-1016.4,254.8-995.7,240.2-994.3,249.6z"/>
		<path class="st14" d="M-1018.6,270.2c0,0,9.1-7.5,14.6-9.3c5.5-1.8,3.9,4.2,3.9,4.2l5.8-15.7c0,0-19.7,3.1-20.2,3.7
			s-3.1,5.1-3.1,5.1L-1018.6,270.2z"/>
		<g>
			
				<linearGradient id="SVGID_7_" gradientUnits="userSpaceOnUse" x1="-1073.1694" y1="1138.052" x2="-879.7218" y2="1138.052" gradientTransform="matrix(0.9906 -0.1366 -0.1366 -0.9906 110.3621 1175.9508)">
				<stop  offset="0" style="stop-color:#FF3A2D"/>
				<stop  offset="1" style="stop-color:#D50000"/>
			</linearGradient>
			<path class="st15" d="M-995.3,212.3c1.7,5.6,5.9,17.6,6.8,26.4c0.9,8.8-6.6,16.7-14.7,19.3c-8.1,2.6-12.6,3.3-19.9,5.6
				c-4.1,3.9-8.9,7.3-12.7,11.7c5.1,0.9,11.6,2,15,6.2c-1.6,1.7-3.4,2.8-5.6,3.1c-3.5,0.5-5.6,0.8-9.4,1.3
				c-2.6,0.3-6.9-0.3-10.7-0.6c-2.8-0.2-4.9-2.6-5-5.4c-0.1-5.1,0.4-9.7-0.1-15.3c-25.1-1.8-37.8-29.4-53.9-50
				c10.2-0.6,23.3,17.4,33.4,17c10.1-0.4,31.8-29,35.4-39.2c3.6-10.2-8.8-26.3-13.5-40.4c-4.7-14.2-7.7-24.6,10-38.1
				c17.7-13.5,65.5-48,82.3-36.3c16.8,11.8,41.6,33.9,31.9,45.2c-9.6,11.3-72.3,27.4-74.2,47.4c-1.9,20,4.4,12.1,12.5,9.4
				c7.4-2.4,29.2-11.4,34-6.5c4.8,4.9-12.7,8.4-27.8,11.8c-14.3,3.2-19.3,10.1-20.9,10.3c-1.6,0.2,3.9,6.8,4.8,9.6
				C-996.5,207.5-997,206.8-995.3,212.3z"/>
		</g>
		<path class="st16" d="M-996.2,279.4c0,0-0.6-4.1,1-4c1.6,0.1,4.6,1.9,5.2,3.1C-989.5,279.7-996.2,279.4-996.2,279.4z"/>
		<path class="st16" d="M-1003.5,280.8c0,0-0.6-3.5,1.8-3.5c2.4,0,5.5,1.2,6.1,3C-995,282.1-1003.5,280.8-1003.5,280.8z"/>
		<path class="st16" d="M-1024.2,283.5c0,0-0.6-4.1,1-4c1.6,0.1,4.6,1.9,5.2,3.1C-1017.4,283.8-1024.2,283.5-1024.2,283.5z"/>
		<path class="st16" d="M-1031.4,284.9c0,0-0.6-3.5,1.8-3.5c2.4,0,5.5,1.2,6.1,3C-1022.9,286.2-1031.4,284.9-1031.4,284.9z"/>
		<path class="st14" d="M-1022.9,263.2c0,0-27.3,1.2-28.5,0.6c-1.2-0.6,0.4,10.9,0.2,13.3c-0.2,2.4,4.7-3.6,13.8-6.6
			S-1022.9,263.2-1022.9,263.2z"/>
		<g>
			
				<linearGradient id="SVGID_8_" gradientUnits="userSpaceOnUse" x1="-947.6024" y1="824.6548" x2="-844.5381" y2="824.6548" gradientTransform="matrix(0.9932 -0.1162 -0.101 -0.8634 61.8376 759.9112)">
				<stop  offset="0.1522" style="stop-color:#FF3A2D"/>
				<stop  offset="0.1907" style="stop-color:#FF462A"/>
				<stop  offset="0.4015" style="stop-color:#FF811B"/>
				<stop  offset="0.5953" style="stop-color:#FFB00F"/>
				<stop  offset="0.7658" style="stop-color:#FFD207"/>
				<stop  offset="0.9065" style="stop-color:#FFE702"/>
				<stop  offset="1" style="stop-color:#FFEE00"/>
			</linearGradient>
			<path class="st17" d="M-962.8,156.3c0-0.1,0-0.2,0.1-0.2c1.9-0.9,27.6-13.6,37-15.2c11.3-1.9,21-0.7,26.6-5.5
				c3.9-3.3,4.4-6.3,4.4-7.6c0-0.2,0.3-0.3,0.4-0.1c1.2,1.9,4.1,7.3,1.8,10.5c-2.1,2.9-4.6,5.3-6.1,6.5c-0.2,0.2,0,0.4,0.2,0.3
				c3-1.4,10.5-4.8,14.8-5.6c7.6-1.4,18.1,1.6,22.8,4.2c0.6,0.3,0.4,1.2-0.3,1.3c-3.4,0.3-10.2,1.4-13.7,5.3
				c-4.8,5.3-21.6,27-40.1,23.6C-933.3,170.5-962.6,161.8-962.8,156.3z"/>
			
				<linearGradient id="SVGID_9_" gradientUnits="userSpaceOnUse" x1="-942.1686" y1="819.6833" x2="-876.2265" y2="819.6833" gradientTransform="matrix(0.9932 -0.1162 -0.101 -0.8634 61.8376 759.9112)">
				<stop  offset="0.1522" style="stop-color:#FF5A19"/>
				<stop  offset="1" style="stop-color:#FFEE00"/>
			</linearGradient>
			<path class="st18" d="M-957.2,157.5c0,0,30-12.5,42.3-8.4c12.3,4.1,13.7,10,20.7,8c11.3-3.3-8.6,10.3-20.6,8.6
				C-926.8,163.9-957.2,157.5-957.2,157.5z"/>
			
				<linearGradient id="SVGID_10_" gradientUnits="userSpaceOnUse" x1="-940.3749" y1="820.4589" x2="-889.877" y2="820.4589" gradientTransform="matrix(0.9932 -0.1162 -0.101 -0.8634 61.8376 759.9112)">
				<stop  offset="0.1522" style="stop-color:#FFB02A"/>
				<stop  offset="0.9393" style="stop-color:#FFEE00"/>
			</linearGradient>
			<path class="st19" d="M-955.4,157.1c0,0,21.5-5.6,28.8-5.6c7.3-0.1,10.6,2.3,16.2,4.3c1.3,0.5,4.3,1,5.8,1.3
				c0.3,0,0.3,0.4,0.1,0.5c-2.1,1-8.4,3.9-14.4,4.9C-926.4,163.8-955.4,157.1-955.4,157.1z"/>
		</g>
		<g>
			<path class="st20" d="M-1001.3,144.8c0,0-3.2-1.9-6.4-2.4c-3.2-0.5-8.1-0.6-8.1-0.6l1.7-0.9c0,0-0.7-0.2-1.5-1.1
				c-0.7-0.7-1.8-3.1-1.8-3.1s3.5,0.4,7.4,0.8c5.5,0.7,8.2,3.8,8.2,3.8h-1.1C-1002.9,141.4-1001.5,143.5-1001.3,144.8z"/>
			<path class="st21" d="M-1003.3,140.6c0,0-1.6-1.5-4.8-2.3s-7-0.9-7-0.9l2.7,1l-3.2-0.5c0,0,1.7,1,4.9,1.6
				c3.2,0.6,7.3,2.3,7.3,2.3l-0.8-1.4L-1003.3,140.6z"/>
		</g>
		<path class="st11" d="M-1002.2,203.6c0,0,0.8,0.3,5.4,0.6s6-7.3,9-8s1.1,5.9,1.6,6.6c0.4,0.7,1.5-4.1,1.5-4.1s0.1,4.3,0.8,3.9
			c0.7-0.4,1-5.4,1-5.4s1.2,8.3,2.1,2.5c1-5.8-3.4-7.7-6.1-8.6c-2.7-0.9-6.9,7.1-9.6,7.8c-2.6,0.6-6.7-2.8-6.7-2.8L-1002.2,203.6z"
			/>
		<g>
			<circle cx="-1007.6" cy="149.9" r="4.2"/>
			<circle class="st0" cx="-1007.3" cy="149.1" r="1.5"/>
			<circle class="st0" cx="-1008.9" cy="151.6" r="0.7"/>
		</g>
		<path class="st11" d="M-1027.3,209.3c0,0,0.8,0.1,5.3-1c4.5-1.1,3.5-8.8,6.1-10.3c2.6-1.5,2.8,5.3,3.5,5.9
			c0.6,0.6,0.2-4.4,0.2-4.4s1.4,4.1,1.9,3.5c0.6-0.6-0.7-5.5-0.7-5.5s3.6,7.5,2.8,1.7c-0.8-5.8-5.5-6.3-8.4-6.3
			c-2.9,0-4.5,8.9-6.8,10.3c-2.3,1.4-7.3-0.6-7.3-0.6L-1027.3,209.3z"/>
		<g>
			<path class="st22" d="M-961,115.8c3.2,6.1,7.8,10.1,10.2,8.8c2.5-1.3,1.9-7.3-1.3-13.4c-3.2-6.1-7.8-10.1-10.2-8.8
				C-964.7,103.7-964.1,109.7-961,115.8z"/>
			<path class="st23" d="M-961.9,116.4c3.2,6.1,7.8,10.1,10.2,8.8c2.5-1.3,1.9-7.3-1.3-13.4s-7.8-10.1-10.2-8.8
				C-965.7,104.3-965.1,110.3-961.9,116.4z"/>
		</g>
		<g>
			<path class="st22" d="M-945.2,102.9c2.5,4.7,6,7.8,7.9,6.8c1.9-1,1.5-5.7-1-10.4s-6-7.8-7.9-6.8
				C-948.1,93.5-947.7,98.1-945.2,102.9z"/>
			<path class="st23" d="M-946,103.4c2.5,4.7,6,7.8,7.9,6.8c1.9-1,1.5-5.7-1-10.4s-6-7.8-7.9-6.8C-948.9,94-948.4,98.6-946,103.4z"
				/>
		</g>
		<g>
			<path class="st24" d="M-959.5,96.7c0,0-4.8-2.5-8.6-0.4c-7.2,4-2.9,14.8-2.9,14.8s-2.3-6.3,4.9-12.2
				C-962.4,96.1-959.5,96.7-959.5,96.7z"/>
			<path class="st25" d="M-959.5,96.7c0,0-5.4,0.7-9.3,5.9c-3.9,5.2-1.2,11-1.2,11s-3.4-6,0.1-11.4
				C-966.4,96.7-959.5,96.7-959.5,96.7z"/>
			<path class="st26" d="M-961.4,98.3c0,0-5.8,3.5-6.8,8.9s1.9,9.4,1.9,9.4s-4-3.6-3.5-9.5C-969.2,101-961.4,98.3-961.4,98.3z"/>
		</g>
		<g>
			<path class="st24" d="M-946,89.2c0,0-2.8-1.5-5.1-0.2c-4.3,2.4-1.7,8.8-1.7,8.8s-1.3-3.7,2.9-7.2C-947.7,88.8-946,89.2-946,89.2z
				"/>
			<path class="st25" d="M-946,89.2c0,0-3.2,0.4-5.5,3.5s-0.7,6.5-0.7,6.5s-2-3.6,0.1-6.8C-950.1,89.2-946,89.2-946,89.2z"/>
			<path class="st26" d="M-947.2,90.2c0,0-3.4,2-4,5.2c-0.6,3.2,1.2,5.6,1.2,5.6s-2.4-2.2-2.1-5.6
				C-951.7,91.8-947.2,90.2-947.2,90.2z"/>
		</g>
		<path class="st11" d="M-1039.9,113.8c0,0,11.5-10.3,32.2-19.4c19.7-8.7,29.7-9.1,29.7-9.1s-4.9-12.7,6.7-17.6s-11.5-12.1-22.5,0
			c-6.9,7.7-10.3-6.7-10.3-6.7l-9.1,21.9l-12.1-3.6l-3.6,18.8l-13.4,1.2L-1039.9,113.8z"/>
	</g>
	<g>
		<g>
			<path class="st27" d="M-347.6,213.9c0,0-21.9-3.7-22.9,0.4c-0.7,2.9,23.4,2.8,23.4,2.8L-347.6,213.9z"/>
			<path class="st27" d="M-367.6,210.5c0,0-5.9-7.3-6.6-5.1s2.1,5.7,2.1,5.7s-8.1-3.6-9.1-2.4s7.9,4.1,7.4,4.2s-8.8-0.6-8.5,0.6
				c0.2,1.2,8.1,1.3,8.2,1.8s-7.7,1.2-7.2,2.1c0.4,0.9,7.4,0.1,8.2,0.2c0.8,0.1-4.9,2.4-4.5,3.4c0.4,0.9,5.4-1.3,6.3-1.9
				c0.9-0.7,5-0.4,6.5-1.7s0.9-4.5,0-5.3C-365.7,211.2-367.6,210.5-367.6,210.5z"/>
		</g>
		<path class="st28" d="M-388.2,159.5c4.9,0,12.8,0.5,16.6-1.6c7.7-4.4-14.5-13.5-27.3-23.3s29.1-16.4,37.6-12.1
			s37.7,28.6,38.3,36.5c0.6,7.9-20.7,27.9-20.7,27.9l-14.6-3C-358.2,183.8-397.7,159.5-388.2,159.5z"/>
		
			<linearGradient id="SVGID_11_" gradientUnits="userSpaceOnUse" x1="-397.2455" y1="976.9786" x2="-349.0277" y2="928.7609" gradientTransform="matrix(1 0 0 -1 0 1093.1335)">
			<stop  offset="0" style="stop-color:#FFC76D"/>
			<stop  offset="1" style="stop-color:#E8E3E0"/>
		</linearGradient>
		<path class="st29" d="M-409.2,128.1c0,0-1.5,4.1,0.6,4.6s4.3-1.1,4.3-1.1s-1.1,8.6,1.6,7.5c2.7-1.1,4.8-2.6,4.8-2.6
			s-1,5.9,1.6,6.4c2.7,0.5,5.4-2.8,5.4-2.8s0,7.1,2.6,7.1s5.7-3.2,5.7-3.2s-2.5,5.3,1.8,5.9c4.3,0.5,5.4-1.6,5.4-1.6
			s0.5,4.4,3.2,4.8c3.7,0.5,5.1-1.9,5.1-1.9s3,4,4,3.5c1.1-0.5,5.9-2.7,5.9-2.7s-0.5,3.7,2.1,3.7s7-3.7,7-3.7s0,3.7,2.1,3.2
			s3.7-3.7,3.7-3.7s1.1,2.7,3.2,2.1c2.1-0.5,4.3-4.3,4.3-4.3L-409.2,128.1z"/>
		
			<linearGradient id="SVGID_12_" gradientUnits="userSpaceOnUse" x1="-431.7869" y1="795.5471" x2="-372.5022" y2="789.3717" gradientTransform="matrix(0.9996 2.982325e-02 2.982325e-02 -0.9996 17.2232 973.5009)">
			<stop  offset="0" style="stop-color:#FFC76D"/>
			<stop  offset="1" style="stop-color:#E8E3E0"/>
		</linearGradient>
		<path class="st30" d="M-331.5,172.3c0,0-3.2-7.5-6.4-5.4c-2.9,1.9-1.6,4.3-1.6,4.3s-1.6-3.7-3.7-2.1c-2.1,1.6-2.1,4.3-2.1,4.3
			s-1-5.3-3.7-3.2c-2.7,2.1-2.8,5.1-2.8,5.1s0.2-5.6-2.5-4.6s-2.2,2.8-2.2,2.8s-0.4-4.4-3.1-3.4s-3.3,2.1-3.3,2.1s-0.9-5.2-3.1-3.2
			c-2.2,2.1-2.7,2.5-2.7,2.5s0.6-5.1-2.1-4.6s-3.7,1.7-3.7,1.7s1.6-3.8-1.6-3.9c-3.2-0.1-3,1.9-3,1.9s0.4-6.1-2.3-4.1
			c-2.7,2.1-3,2.3-3,2.3s4.3-8.3,0.9-8.2c-3.4,0.1-3.8,5.4-3.8,5.4s1.6-7.5-0.5-7s-1.2,5.4-1.2,5.4s10.9,10.6,11.9,11.2
			c1,0.6,41.4,12,41.4,12L-331.5,172.3z"/>
		<g>
			<path class="st31" d="M-350.2,252.4c0,0,6.7,16.7,7.4,20.4c0.6,3.6-9.3,5.4-10.2,8c-0.9,2.6,6.4,1.1,6.4,1.1s2.5,2.4,4.8,1.8
				c1.5-0.4,8.3-1,12.9-1.3c2.3-0.2,4-2.3,3.7-4.6l-2.8-20.2C-328.1,257.5-348.9,243-350.2,252.4z"/>
			<path class="st32" d="M-325.9,272.9c0,0-9.1-7.5-14.6-9.3c-5.5-1.8-3.9,4.2-3.9,4.2l-5.8-15.7c0,0,19.7,3,20.2,3.6
				c0.5,0.6,3.1,5.1,3.1,5.1L-325.9,272.9z"/>
			<path class="st16" d="M-348.2,282.2c0,0,0.6-4.1-1-4s-4.6,1.9-5.2,3.1C-355,282.5-348.2,282.2-348.2,282.2z"/>
			<path class="st16" d="M-341,283.5c0,0,0.6-3.5-1.9-3.5c-2.4,0-5.5,1.2-6.1,3C-349.6,284.8-341,283.5-341,283.5z"/>
		</g>
		<path class="st33" d="M-298.8,230.7c0,0,9.1-22.2,6.4-23.6c-2.7-1.3-10.9-7.2-9.6-10.2c1.2-3,23.5-11.5,20.9-12.8
			c-2.7-1.3-9.6-16.6-9.6-16.6s23.3-5.9,21.6-7.1s-11.5-10.2-11.5-10.2l13.4-12.9l-13.3-6.1c0,0-4.4-13,0.9-16.8
			c5.4-3.7-24.6,1.1-24.6,1.1l-28.4,98"/>
		<path class="st33" d="M-301,228.5l17.1-13.3l8.6,12.3l2.9-11.6l13.7,2l4.6-9.9l6.7,6.7c0,0-20,20-26.7,25.5s-27.3,3-27.3,3
			L-301,228.5z"/>
		
			<linearGradient id="SVGID_13_" gradientUnits="userSpaceOnUse" x1="-410.6998" y1="911.2344" x2="-247.4998" y2="911.2344" gradientTransform="matrix(1 0 0 -1 0 1093.1335)">
			<stop  offset="0" style="stop-color:#6BC62A"/>
			<stop  offset="1" style="stop-color:#00B53E"/>
		</linearGradient>
		<path class="st34" d="M-280.8,231.6c-31.9-3.1-29.2-27.7-20.1-43.2c0.1-0.1,0.1-0.2,0-0.3c12.8-13.2,26.4-39.3,23.1-48.9
			c-4.3-12.3-76.6-66.1-99.6-61.3c-23,4.8-33.3,48.5-33.3,48.5c4,15.2,49,32.2,68.8,26.5c7.7-2.3,13.5-3.7,16.9,2.9
			c1.8,3.5,0,8.1-18.2,15c-15.5,5.9-39.4-4.5-43.4-10.7c-3.4-5.4-12.9,2.5-3.8,10.1c6,5,20.4,13.9,43.8,20.4
			c-2.2,3.3-5.1,8.3-5.8,10.2c-1,2.8-4.1,8.9-5.9,14.5c-1.7,5.6-5.5,12.6-6.4,21.4c-0.9,8.8,6.9,18.9,14.9,21.5s12.6,3.3,19.9,5.6
			c4.1,3.9,8.9,7.3,12.7,11.7c-5.1,0.9-11.6,2-15,6.2c1.6,1.7,3.4,2.8,5.6,3.1c3.5,0.5,5.6,0.8,9.4,1.3c2.6,0.3,6.9-0.3,10.7-0.6
			c2.8-0.2,4.9-2.6,5-5.4c0.1-5.1-0.4-9.7,0.1-15.3c25.1-1.8,37.8-29.4,53.9-50C-257.6,214-270.8,232.6-280.8,231.6z"/>
		<g>
			<path class="st1" d="M-380.2,200.5c0,0-13.3-8.3-4.1-22.6C-384.2,177.8-372.7,184.7-380.2,200.5z"/>
			<path class="st1" d="M-382.2,202.5c0,0-5.8,14.9-21.5,8.3C-403.8,210.8-399.1,197.8-382.2,202.5z"/>
			<path class="st1" d="M-388.8,196.8c0,0-15.6,3.7-19.1-13C-407.9,183.8-394.6,180.3-388.8,196.8z"/>
			<g>
				<path class="st1" d="M-390.9,196.1c0-0.1,7.6,1.7,10.7,4.4s6.3,6.1,7.8,8.5s2.1,5,2.2,6.8s-0.2,3-0.3,2.9
					c-0.1,0-0.1-1.1-0.4-2.9c-0.3-1.7-3.9-4.5-5.3-6.7C-377.5,206.8-390.9,196.2-390.9,196.1z"/>
			</g>
		</g>
		<path class="st16" d="M-328.7,283.5c0,0,0.6-4.1-1-4s-4.6,1.9-5.2,3.1C-335.4,283.8-328.7,283.5-328.7,283.5z"/>
		<path class="st16" d="M-321.5,284.9c0,0,0.6-3.5-1.8-3.5s-5.5,1.2-6.1,3C-330,286.2-321.5,284.9-321.5,284.9z"/>
		<path class="st32" d="M-329.9,263.9c0,0,28.4-0.8,28.4,0.5c0,1.1-0.2,10.9,0,13.4s-4.8-4.2-13.9-7.3S-329.9,263.9-329.9,263.9z"/>
		<g>
			<g>
				<path class="st35" d="M-376.9,122.2c-3.2,6.1-7.8,10.1-10.2,8.8c-2.5-1.3-1.9-7.3,1.3-13.4c3.2-6.1,7.8-10.1,10.2-8.8
					C-373.2,110.1-373.7,116.1-376.9,122.2z"/>
				<path class="st28" d="M-376,122.9c-3.2,6.1-7.8,10.1-10.2,8.8c-2.5-1.3-1.9-7.3,1.3-13.4c3.2-6.1,7.8-10.1,10.2-8.8
					C-372.2,110.7-372.8,116.7-376,122.9z"/>
			</g>
			<g>
				<path class="st35" d="M-392.7,109.3c-2.5,4.7-6,7.8-7.9,6.8s-1.5-5.7,1-10.4s6-7.8,7.9-6.8C-389.7,99.9-390.2,104.6-392.7,109.3
					z"/>
				<path class="st28" d="M-391.9,109.8c-2.5,4.7-6,7.8-7.9,6.8s-1.5-5.7,1-10.4s6-7.8,7.9-6.8C-389,100.4-389.4,105-391.9,109.8z"
					/>
			</g>
			<g>
				<path class="st36" d="M-378.4,103.1c0,0,4.8-2.5,8.6-0.4c7.2,4,2.9,14.8,2.9,14.8s2.3-6.3-4.9-12.2
					C-375.4,102.5-378.4,103.1-378.4,103.1z"/>
				<path class="st33" d="M-378.4,103.1c0,0,5.4,0.7,9.3,5.9c3.9,5.2,1.2,11,1.2,11s3.4-6-0.1-11.4
					C-371.4,103.1-378.4,103.1-378.4,103.1z"/>
				<path class="st26" d="M-376.4,104.8c0,0,5.8,3.5,6.8,8.9s-1.9,9.4-1.9,9.4s4-3.6,3.5-9.5C-368.7,107.4-376.4,104.8-376.4,104.8z
					"/>
			</g>
			<g>
				<path class="st36" d="M-391.9,95.6c0,0,2.8-1.5,5.1-0.2c4.3,2.4,1.7,8.8,1.7,8.8s1.3-3.7-2.9-7.2
					C-390.1,95.2-391.9,95.6-391.9,95.6z"/>
				<path class="st33" d="M-391.9,95.6c0,0,3.2,0.4,5.5,3.5c2.3,3.1,0.7,6.5,0.7,6.5s2-3.6-0.1-6.8
					C-387.8,95.6-391.9,95.6-391.9,95.6z"/>
				<path class="st26" d="M-390.7,96.6c0,0,3.4,2,4,5.2c0.6,3.2-1.2,5.6-1.2,5.6s2.4-2.2,2.1-5.6C-386.1,98.2-390.7,96.6-390.7,96.6
					z"/>
			</g>
		</g>
		<g>
			<g>
				<path class="st33" d="M-310.9,135.8c0,0,2.2,2.9,3,6.1s1.4,8,1.4,8l0.7-1.8c0,0,0.3,0.6,1.2,1.4c0.8,0.6,3.2,1.4,3.2,1.4
					s-0.7-3.4-1.6-7.3c-1.2-5.4-4.6-7.8-4.6-7.8l0.1,1.1C-307.4,137-309.6,135.9-310.9,135.8z"/>
				<path class="st31" d="M-306.5,137.3c0,0,1.7,1.5,2.8,4.6c1.1,3.1,1.6,6.9,1.6,6.9l-1.3-2.5l0.8,3.1c0,0-1.2-1.6-2.1-4.7
					c-0.9-3.2-3-7-3-7l1.5,0.7L-306.5,137.3z"/>
			</g>
			<path class="st37" d="M-316.7,142.8c0,0,7.6-0.9,5.3,6"/>
		</g>
		<g>
			<path class="st38" d="M-348,210.2c-4.2-0.3-22.5,2.5-22.2,6.7c0.2,2.9,23.2-4.4,23.2-4.4S-343.8,210.5-348,210.2z"/>
			<path class="st38" d="M-368.6,212.4c0,0-7.9-5.2-7.8-2.9c0.1,2.2,3.7,4.8,3.7,4.8s-8.8-1-9.4,0.5s8.8,1.6,8.3,1.8
				c-0.4,0.2-8.6,2-8,3.1s8.1-1.2,8.4-0.8c0.2,0.4-7,3.4-6.3,4.2s7.1-2.1,7.9-2.2c0.8-0.1-4,3.7-3.2,4.6c0.7,0.8,4.7-2.8,5.4-3.7
				s4.6-1.9,5.7-3.6c1.1-1.7-0.5-4.6-1.6-5.1S-368.6,212.4-368.6,212.4z"/>
		</g>
		<path class="st33" d="M-299.9,117.2c0,0-12.3-10.5-33-19.6c-19.7-8.7-33.4-12-33.4-12s0.1-19.7,18.7-24.1c9.1-2.1,24.5,3.8,22,4.8
			c-10.7,4.3-11.4,22.4-2.1,15c8-6.4,20.9,1.1,20.9,1.1s-13.1,8.2-8.6,9.1c5.4,1.1,18.6-2.5,15,1.6c-4.3,4.8-9.6,8.6-9.6,8.6
			s24.1-4.8,19.8,1.1C-294.5,108.7-299.9,117.2-299.9,117.2z"/>
	</g>
	<g>
		<g>
			<circle class="st6" cx="-27.2" cy="8.5" r="3.8"/>
		</g>
		<g>
			<path class="st6" d="M-19.9-11.8c-3.4-4.1-5.8-11.8-6.9-15.2c-0.1-0.5-0.8-0.5-1,0c-0.8,3-2.9,9.3-6.9,14.7
				C-38.4-7.3-34.3,0-27.4,0c0,0,0,0,0.1,0c0,0,0,0,0.1,0C-20.4,0-16-7-19.9-11.8z M-26.5-3c-3.4,0.6-6.2-2.3-5.7-5.7
				c0.3-2,2-3.7,4-4c3.4-0.6,6.2,2.3,5.7,5.7C-22.8-5-24.5-3.3-26.5-3z"/>
		</g>
		<path class="st6" d="M-27.2-2.7c-0.8,0-1.5,0.7-1.5,1.5V18h3V-1.2C-25.7-2.1-26.4-2.7-27.2-2.7z"/>
	</g>
	<g>
		<path class="st6" d="M226.1-12.2H8.6c-0.8,0-1.5-0.7-1.5-1.5s0.7-1.5,1.5-1.5h217.6c0.8,0,1.5,0.7,1.5,1.5S227-12.2,226.1-12.2z"
			/>
	</g>
	<g>
		
			<linearGradient id="SVGID_14_" gradientUnits="userSpaceOnUse" x1="-813.9" y1="-70.0179" x2="-741.408" y2="-70.0179" gradientTransform="matrix(-3.274567e-02 -0.9994 -0.8688 2.845226e-02 -79.7942 -616.6563)">
			<stop  offset="0.1522" style="stop-color:#FF3A2D"/>
			<stop  offset="0.1907" style="stop-color:#FF462A"/>
			<stop  offset="0.4015" style="stop-color:#FF811B"/>
			<stop  offset="0.5953" style="stop-color:#FFB00F"/>
			<stop  offset="0.7658" style="stop-color:#FFD207"/>
			<stop  offset="0.9065" style="stop-color:#FFE702"/>
			<stop  offset="1" style="stop-color:#FFEE00"/>
		</linearGradient>
		<path class="st39" d="M4.8,194.9c-0.1,0-0.1,0-0.1-0.1c-0.6-1.4-13.5-16.4-13.1-27.9c0.4-12.1,2.8-27.1,3-29
			c0.3-3.5,4.5,11,5.3,12.1c0.1,0.1,0.3,0,0.3-0.1c-0.9-2.2-1.2-8.2-0.3-12.4s6.1-11.9,8.3-15c0.3-0.4,0.9-0.2,0.9,0.3
			c0,2.3,1,9.8,3.7,12.5c3.7,3.6,11.5,15.2,7.9,27.8C17.1,175.4,8.9,195.1,4.8,194.9z"/>
		
			<linearGradient id="SVGID_15_" gradientUnits="userSpaceOnUse" x1="-810.1473" y1="-71.85" x2="-761.698" y2="-71.85" gradientTransform="matrix(-3.274567e-02 -0.9994 -0.8688 2.845226e-02 -79.7942 -616.6563)">
			<stop  offset="0.1522" style="stop-color:#FF5A19"/>
			<stop  offset="1" style="stop-color:#FFEE00"/>
		</linearGradient>
		<path class="st40" d="M6,191.1c0,0-7.6-21.5-3.8-29.7s5.4-12.2,4.3-17.1c-1.8-8,10.8,14.4,8.9,22.6C13.3,175,6,191.1,6,191.1z"/>
		
			<linearGradient id="SVGID_16_" gradientUnits="userSpaceOnUse" x1="-808.904" y1="-71.026" x2="-773.9682" y2="-71.026" gradientTransform="matrix(-3.274567e-02 -0.9994 -0.8688 2.845226e-02 -79.7942 -616.6563)">
			<stop  offset="0.1522" style="stop-color:#FFB02A"/>
			<stop  offset="0.9393" style="stop-color:#FFEE00"/>
		</linearGradient>
		<path class="st41" d="M5.9,189.9c0,0-2.9-15.1-2.5-20.2c0.3-5,2.3-7.2,4.1-10.9c0.4-0.9,1-2.9,1.3-3.9c0.1-0.2,0.3-0.2,0.4,0
			c0.7,1.5,2.5,6,2.8,10.2C12.5,170.3,5.9,189.9,5.9,189.9z"/>
	</g>
	<g>
		<linearGradient id="SVGID_17_" gradientUnits="userSpaceOnUse" x1="-40.0277" y1="194.5533" x2="53.9064" y2="194.5533">
			<stop  offset="0" style="stop-color:#FF3A2D"/>
			<stop  offset="1" style="stop-color:#D50000"/>
		</linearGradient>
		<path class="st42" d="M-40,180.1c9.5,17.3,27,28.8,47,28.8s37.5-11.6,47-28.8H-40z"/>
		<polygon class="st5" points="6.9,71.9 -40.4,180.1 54.3,180.1 		"/>
		<linearGradient id="SVGID_18_" gradientUnits="userSpaceOnUse" x1="0.4119" y1="71.3472" x2="13.4668" y2="71.3472">
			<stop  offset="0" style="stop-color:#FF3A2D"/>
			<stop  offset="1" style="stop-color:#D50000"/>
		</linearGradient>
		<circle class="st43" cx="6.9" cy="71.3" r="6.5"/>
	</g>
	<g>
		<path class="st1" d="M123.8,162.4c0,0-4-20.3,18.1-24.4C142,138,145.8,155.3,123.8,162.4z"/>
		<path class="st1" d="M120.6,162.6c0,0-20.3,7.5-28.1-13.7C92.6,149,109.9,142.2,120.6,162.6z"/>
		<path class="st1" d="M119.5,150.7c0,0-17.7-11.7-4.8-30.1C114.7,120.6,130.2,130.2,119.5,150.7z"/>
		<g>
			<path class="st1" d="M118.3,148.1c0,0,0.4-2.1,1.3-0.4c1.6,3.1,4.1,11.2,4.2,14.7c0.2,5.4-0.1,11.6-1.1,15.2
				c-1,3.6-2.8,6.5-4.5,8.3c-1.6,1.8-3,2.5-3.1,2.4c-0.1-0.1,1-1.1,2.4-2.9c1.4-1.8-0.5,1.2,1.7-11.2
				C121.1,163.7,118.3,148.1,118.3,148.1z"/>
		</g>
	</g>
	<g>
		<path class="st8" d="M73.3,180.1c9.5,17.3,27,28.8,47,28.8s37.5-11.6,47-28.8H73.3z"/>
		<polygon class="st5" points="120.2,71.9 72.9,180.1 167.6,180.1 		"/>
		<circle class="st1" cx="120.2" cy="71.3" r="6.5"/>
	</g>
	<g>
		<circle class="st0" cx="13.5" cy="13.5" r="12"/>
		<path class="st6" d="M13.5,26.9C6,26.9,0,20.9,0,13.5S6,0,13.5,0s13.5,6,13.5,13.5S20.9,26.9,13.5,26.9z M13.5,3
			C7.7,3,3,7.7,3,13.5s4.7,10.5,10.5,10.5s10.5-4.7,10.5-10.5S19.2,3,13.5,3z"/>
	</g>
</g>
</svg>
