<?xml version="1.0" encoding="utf-8"?>
<!-- Generator: Adobe Illustrator 23.0.1, SVG Export Plug-In . SVG Version: 6.00 Build 0)  -->
<svg version="1.1" xmlns="http://www.w3.org/2000/svg" xmlns:xlink="http://www.w3.org/1999/xlink" x="0px" y="0px" width="93.9px"
	 height="28.8px" viewBox="0 0 93.9 28.8" style="enable-background:new 0 0 93.9 28.8;" xml:space="preserve">
<style type="text/css">
	.st0{fill:#FFFFFF;}
	.st1{clip-path:url(#SVGID_2_);}
	.st2{fill:#6BC62A;}
	.st3{clip-path:url(#SVGID_4_);}
	.st4{fill:none;stroke:#7A6356;stroke-width:3;stroke-linecap:round;stroke-linejoin:round;stroke-miterlimit:10;}
	.st5{fill:#7A6356;}
	.st6{fill:#FFFFFF;stroke:#7A6356;stroke-width:3;stroke-linecap:round;stroke-linejoin:round;stroke-miterlimit:10;}
	.st7{fill:#009380;}
	.st8{fill:url(#SVGID_5_);}
	.st9{fill:url(#SVGID_6_);}
	.st10{fill:#A60C17;}
	.st11{fill:url(#SVGID_7_);}
	.st12{fill:#E02229;}
	.st13{opacity:0.88;fill:#D50000;enable-background:new    ;}
	.st14{fill:url(#SVGID_8_);}
	.st15{fill:#491B02;}
	.st16{fill:url(#SVGID_9_);}
	.st17{fill:url(#SVGID_10_);}
	.st18{fill:url(#SVGID_11_);}
	.st19{fill:#680200;}
	.st20{fill:#A30B05;}
	.st21{fill:#FF5B56;}
	.st22{fill:#A40000;}
	.st23{opacity:0.5;fill:#D50000;enable-background:new    ;}
	.st24{fill:#6A1100;}
	.st25{opacity:0.43;fill:#FFFFFF;enable-background:new    ;}
	.st26{fill:#006325;}
	.st27{fill:#004B25;}
	.st28{fill:url(#SVGID_12_);}
	.st29{fill:url(#SVGID_13_);}
	.st30{fill:#00923D;}
	.st31{opacity:0.4;fill:#006830;enable-background:new    ;}
	.st32{fill:#006830;}
	.st33{fill:url(#SVGID_14_);}
	.st34{fill:#D6E000;}
	.st35{opacity:0.5;fill:#00923D;enable-background:new    ;}
	.st36{fill:none;stroke:#000000;stroke-width:2;stroke-linecap:round;stroke-linejoin:round;stroke-miterlimit:10;}
	.st37{fill:#00962B;}
	.st38{fill:url(#SVGID_15_);}
	.st39{fill:url(#SVGID_16_);}
	.st40{fill:url(#SVGID_17_);}
	.st41{fill:url(#SVGID_18_);}
	.st42{fill:url(#SVGID_19_);}
	.st43{fill:url(#SVGID_20_);}
	.st44{fill:url(#SVGID_21_);}
	.st45{clip-path:url(#SVGID_23_);}
	.st46{fill:url(#SVGID_24_);}
	.st47{fill:url(#SVGID_25_);}
	.st48{fill:url(#SVGID_26_);}
	.st49{clip-path:url(#SVGID_28_);}
	.st50{fill:url(#SVGID_29_);}
	.st51{fill:url(#SVGID_30_);}
	.st52{fill:url(#SVGID_31_);}
</style>
<g id="Layer_2">
	<rect x="-1317.2" y="-396.7" class="st0" width="1146.2" height="404.9"/>
</g>
<g id="green">
	<g>
		<defs>
			<rect id="SVGID_1_" x="-655.5" y="-187.4" width="49.7" height="58"/>
		</defs>
		<clipPath id="SVGID_2_">
			<use xlink:href="#SVGID_1_"  style="overflow:visible;"/>
		</clipPath>
		<g class="st1">
			<path class="st2" d="M-624.2-145.6c0,0-4-20.3,18.1-24.4C-606.1-170.1-602.2-152.7-624.2-145.6z"/>
			<path class="st2" d="M-627.4-145.4c0,0-20.3,7.5-28.1-13.7C-655.5-159-638.1-165.9-627.4-145.4z"/>
			<path class="st2" d="M-628.5-157.3c0,0-17.7-11.7-4.8-30.1C-633.3-187.4-617.8-177.8-628.5-157.3z"/>
			<g>
				<path class="st2" d="M-629.7-159.9c0,0,0.4-2.1,1.3-0.4c1.6,3.1,4.1,11.2,4.2,14.7c0.2,5.4-0.1,11.6-1.1,15.2
					c-1,3.6-2.8,6.5-4.5,8.3c-1.6,1.8-3,2.5-3.1,2.4c-0.1-0.1,1-1.1,2.4-2.9c1.4-1.8-0.5,1.2,1.7-11.2
					C-626.9-144.3-629.8-159.9-629.7-159.9z"/>
			</g>
		</g>
	</g>
	<g>
		<defs>
			<rect id="SVGID_3_" x="-74.2" y="45.2" width="49.7" height="58"/>
		</defs>
		<clipPath id="SVGID_4_">
			<use xlink:href="#SVGID_3_"  style="overflow:visible;"/>
		</clipPath>
		<g class="st3">
			<path class="st2" d="M-42.9,87c0,0-4-20.3,18.1-24.4C-24.8,62.6-20.9,79.9-42.9,87z"/>
			<path class="st2" d="M-46.1,87.2c0,0-20.3,7.5-28.1-13.7C-74.2,73.6-56.8,66.8-46.1,87.2z"/>
			<path class="st2" d="M-47.2,75.3c0,0-17.7-11.7-4.8-30.1C-52,45.2-36.5,54.8-47.2,75.3z"/>
			<g>
				<path class="st2" d="M-48.4,72.7c0,0,0.4-2.1,1.3-0.4c1.6,3.1,4.1,11.2,4.2,14.7c0.2,5.4-0.1,11.6-1.1,15.2
					c-1,3.6-2.8,6.5-4.5,8.3c-1.6,1.8-3,2.5-3.1,2.4c-0.1-0.1,1-1.1,2.4-2.9c1.4-1.8-0.5,1.2,1.7-11.2
					C-45.6,88.3-48.5,72.7-48.4,72.7z"/>
			</g>
		</g>
	</g>
</g>
<g id="fire">
</g>
<g id="Layer_1">
	<line class="st4" x1="-844.5" y1="-237.8" x2="-626.9" y2="-237.8"/>
	<circle class="st5" cx="-735.7" cy="-261.2" r="3.8"/>
	<path class="st5" d="M-728.4-281.5c-3.4-4.1-5.8-11.8-6.9-15.2c-0.1-0.5-0.8-0.5-1,0c-0.8,3-2.9,9.3-6.9,14.7
		c-3.7,5,0.4,12.3,7.3,12.3c0,0,0,0,0.1,0c0,0,0,0,0.1,0C-728.9-269.7-724.5-276.7-728.4-281.5z M-735-272.7
		c-3.4,0.6-6.2-2.3-5.7-5.7c0.3-2,2-3.7,4-4c3.4-0.6,6.2,2.3,5.7,5.7C-731.3-274.7-732.9-273-735-272.7z"/>
	<line class="st4" x1="-735.7" y1="-237.8" x2="-735.7" y2="-270.9"/>
	<circle class="st6" cx="-735.7" cy="-238.3" r="12"/>
	<g>
		<path class="st7" d="M-674.8-127.9c9.5,17.3,27,28.8,47,28.8s37.5-11.6,47-28.8H-674.8z"/>
		<polygon class="st4" points="-627.8,-236.1 -675.1,-127.9 -580.5,-127.9 		"/>
		<circle class="st2" cx="-627.8" cy="-236.7" r="6.5"/>
	</g>
	<g>
		<linearGradient id="SVGID_5_" gradientUnits="userSpaceOnUse" x1="-890.6075" y1="-113.468" x2="-796.6734" y2="-113.468">
			<stop  offset="0" style="stop-color:#FF3A2D"/>
			<stop  offset="1" style="stop-color:#D50000"/>
		</linearGradient>
		<path class="st8" d="M-890.6-127.9c9.5,17.3,27,28.8,47,28.8s37.5-11.6,47-28.8H-890.6z"/>
		<polygon class="st4" points="-843.6,-236.1 -891,-127.9 -796.3,-127.9 		"/>
		<linearGradient id="SVGID_6_" gradientUnits="userSpaceOnUse" x1="-850.168" y1="-236.674" x2="-837.113" y2="-236.674">
			<stop  offset="0" style="stop-color:#FF3A2D"/>
			<stop  offset="1" style="stop-color:#D50000"/>
		</linearGradient>
		<circle class="st9" cx="-843.6" cy="-236.7" r="6.5"/>
	</g>
	<g>
		<path class="st10" d="M-1028-189.7c0,0-0.2-1.8-9.7-1.8c-4.9,0-10.3-1.8-10.9-6.7c-1.1-8.8,9.7-19.4,22.5-29.1
			c12.8-9.7-29.1-16.4-37.6-12.1c-8.5,4.2-27.9,36.4-28.5,44.3c-0.6,7.9,10.9,20,10.9,20l14.6-3L-1028-189.7z"/>
		<path class="st10" d="M-1133-138.7c-0.7-1.8-0.8-18.3,1.2-17.6s13,0.3,13,0.3s-15-17.2-12.4-18.5c2.7-1.3,23.9-1.3,22.7-4.4
			c-1.2-3-22.4-8.8-19.8-10.1c2.6-1.3,9.7-14.2,9.7-14.2s-18.6-1.4-16.9-2.6c1.7-1.2,11.5-10.2,11.5-10.2l-13.4-12.9l13.3-6.1
			c0,0-7-15-5.2-15.2l26.7,2.2l6.7,99L-1133-138.7"/>
		<path class="st10" d="M-1133-138.7l-10.3-9.1l-8.6,16l-2.9-15.4l-14.2,3.1l-4-11l-6.7,6.7c0,0,20,20,26.7,25.5
			c6.7,5.5,27.3,3,27.3,3L-1133-138.7z"/>
		
			<linearGradient id="SVGID_7_" gradientUnits="userSpaceOnUse" x1="-1040.3489" y1="808.0461" x2="-954.2685" y2="808.0461" gradientTransform="matrix(0.9906 -0.1366 -0.1366 -0.9906 60.0817 443.2699)">
			<stop  offset="0" style="stop-color:#E6E6E6"/>
			<stop  offset="1" style="stop-color:#FF9300"/>
		</linearGradient>
		<path class="st11" d="M-1069.1-201.4l6.1,2.8l-1.1-8.2l7.5,3.8l-1-7.9c0,0,6.2,2.3,7.2,1.8s2.9-7.1,2.9-7.1l4.4,2.2l1.7-5.4l5,4.7
			l2.4-5.5l4.3,0.9l1-6.2l8.7,3.6l2.2-7.2l6.1,4.4l0.1-9.2c0,0,8.2,7.2,8,6c-0.1-1.2-0.9-8.7-0.9-8.7s8.5,5.5,8.2,4.8
			c-0.3-0.7-3-12.1-3-12.1l-8.9-0.2l-71.5,37.6L-1069.1-201.4z"/>
		<path class="st12" d="M-1068.6-113.4c0,0-6.7,16.7-7.3,20.4c-0.6,3.6,9.3,5.3,10.2,7.9c0.9,2.6-6.4,1.2-6.4,1.2s-2.5,2.4-4.8,1.8
			c-1.5-0.4-8.3-0.9-12.9-1.3c-2.3-0.2-4-2.3-3.7-4.6l2.8-20.3C-1090.7-108.2-1070-122.8-1068.6-113.4z"/>
		<path class="st13" d="M-1092.9-92.8c0,0,9.1-7.5,14.6-9.3s3.9,4.2,3.9,4.2l5.8-15.7c0,0-19.7,3.1-20.2,3.7s-3.1,5.1-3.1,5.1
			L-1092.9-92.8z"/>
		<g>
			
				<linearGradient id="SVGID_8_" gradientUnits="userSpaceOnUse" x1="-1147.45" y1="775.079" x2="-954.0023" y2="775.079" gradientTransform="matrix(0.9906 -0.1366 -0.1366 -0.9906 60.0817 443.2699)">
				<stop  offset="0" style="stop-color:#FF3A2D"/>
				<stop  offset="1" style="stop-color:#D50000"/>
			</linearGradient>
			<path class="st14" d="M-1069.6-150.7c1.7,5.6,5.9,17.6,6.8,26.4c0.9,8.8-6.6,16.7-14.7,19.3s-12.6,3.3-19.9,5.6
				c-4.1,3.9-8.9,7.3-12.7,11.7c5.1,0.9,11.6,2,15,6.2c-1.6,1.7-3.4,2.8-5.6,3.1c-3.5,0.5-5.6,0.8-9.4,1.3
				c-2.6,0.3-6.9-0.3-10.7-0.6c-2.8-0.2-4.9-2.6-5-5.4c-0.1-5.1,0.4-9.7-0.1-15.3c-25.1-1.8-37.8-29.4-53.9-50
				c10.2-0.6,23.3,17.4,33.4,17s31.8-29,35.4-39.2s-8.8-26.3-13.5-40.4c-4.7-14.2-7.7-24.6,10-38.1c17.7-13.5,65.5-48,82.3-36.3
				c16.8,11.8,41.6,33.9,31.9,45.2c-9.6,11.3-72.3,27.4-74.2,47.4s4.4,12.1,12.5,9.4c7.4-2.4,29.2-11.4,34-6.5
				c4.8,4.9-12.7,8.4-27.8,11.8c-14.3,3.2-19.3,10.1-20.9,10.3c-1.6,0.2,3.9,6.8,4.8,9.6C-1070.8-155.5-1071.3-156.2-1069.6-150.7z"
				/>
		</g>
		<path class="st15" d="M-1070.5-83.6c0,0-0.6-4.1,1-4c1.6,0.1,4.6,1.9,5.2,3.1C-1063.8-83.3-1070.5-83.6-1070.5-83.6z"/>
		<path class="st15" d="M-1077.8-82.2c0,0-0.6-3.5,1.8-3.5s5.5,1.2,6.1,3S-1077.8-82.2-1077.8-82.2z"/>
		<path class="st15" d="M-1098.5-79.5c0,0-0.6-4.1,1-4c1.6,0.1,4.6,1.9,5.2,3.1C-1091.7-79.2-1098.5-79.5-1098.5-79.5z"/>
		<path class="st15" d="M-1105.7-78.1c0,0-0.6-3.5,1.8-3.5s5.5,1.2,6.1,3C-1097.2-76.8-1105.7-78.1-1105.7-78.1z"/>
		<path class="st13" d="M-1097.2-99.8c0,0-27.3,1.2-28.5,0.6c-1.2-0.6,0.4,10.9,0.2,13.3s4.7-3.6,13.8-6.6
			C-1102.6-95.5-1097.2-99.8-1097.2-99.8z"/>
		<g>
			
				<linearGradient id="SVGID_9_" gradientUnits="userSpaceOnUse" x1="-1021.8829" y1="461.6817" x2="-918.8186" y2="461.6817" gradientTransform="matrix(0.9932 -0.1162 -0.101 -0.8634 24.6722 74.9158)">
				<stop  offset="0.1522" style="stop-color:#FF3A2D"/>
				<stop  offset="0.1907" style="stop-color:#FF462A"/>
				<stop  offset="0.4015" style="stop-color:#FF811B"/>
				<stop  offset="0.5953" style="stop-color:#FFB00F"/>
				<stop  offset="0.7658" style="stop-color:#FFD207"/>
				<stop  offset="0.9065" style="stop-color:#FFE702"/>
				<stop  offset="1" style="stop-color:#FFEE00"/>
			</linearGradient>
			<path class="st16" d="M-1037.1-206.6c0-0.1,0-0.2,0.1-0.2c1.9-0.9,27.6-13.6,37-15.2c11.3-1.9,21-0.7,26.6-5.5
				c3.9-3.3,4.4-6.3,4.4-7.6c0-0.2,0.3-0.3,0.4-0.1c1.2,1.9,4.1,7.3,1.8,10.5c-2.1,2.9-4.6,5.3-6.1,6.5c-0.2,0.2,0,0.4,0.2,0.3
				c3-1.4,10.5-4.8,14.8-5.6c7.6-1.4,18.1,1.6,22.8,4.2c0.6,0.3,0.4,1.2-0.3,1.3c-3.4,0.3-10.2,1.4-13.7,5.3
				c-4.8,5.3-21.6,27-40.1,23.6C-1007.5-192.4-1036.9-201.1-1037.1-206.6z"/>
			
				<linearGradient id="SVGID_10_" gradientUnits="userSpaceOnUse" x1="-1016.4492" y1="456.7103" x2="-950.5071" y2="456.7103" gradientTransform="matrix(0.9932 -0.1162 -0.101 -0.8634 24.6722 74.9158)">
				<stop  offset="0.1522" style="stop-color:#FF5A19"/>
				<stop  offset="1" style="stop-color:#FFEE00"/>
			</linearGradient>
			<path class="st17" d="M-1031.5-205.5c0,0,30-12.5,42.3-8.4c12.3,4.1,13.7,10,20.7,8c11.3-3.3-8.6,10.3-20.6,8.6
				C-1001.1-199.1-1031.5-205.5-1031.5-205.5z"/>
			
				<linearGradient id="SVGID_11_" gradientUnits="userSpaceOnUse" x1="-1014.6555" y1="457.4858" x2="-964.1575" y2="457.4858" gradientTransform="matrix(0.9932 -0.1162 -0.101 -0.8634 24.6722 74.9158)">
				<stop  offset="0.1522" style="stop-color:#FFB02A"/>
				<stop  offset="0.9393" style="stop-color:#FFEE00"/>
			</linearGradient>
			<path class="st18" d="M-1029.7-205.8c0,0,21.5-5.6,28.8-5.6c7.3-0.1,10.6,2.3,16.2,4.3c1.3,0.5,4.3,1,5.8,1.3
				c0.3,0,0.3,0.4,0.1,0.5c-2.1,1-8.4,3.9-14.4,4.9C-1000.7-199.1-1029.7-205.8-1029.7-205.8z"/>
		</g>
		<g>
			<path class="st19" d="M-1075.6-218.2c0,0-3.2-1.9-6.4-2.4c-3.2-0.5-8.1-0.6-8.1-0.6l1.7-0.9c0,0-0.7-0.2-1.5-1.1
				c-0.7-0.7-1.8-3.1-1.8-3.1s3.5,0.4,7.4,0.8c5.5,0.7,8.2,3.8,8.2,3.8h-1.1C-1077.2-221.6-1075.8-219.5-1075.6-218.2z"/>
			<path class="st20" d="M-1077.6-222.4c0,0-1.6-1.5-4.8-2.3s-7-0.9-7-0.9l2.7,1l-3.2-0.5c0,0,1.7,1,4.9,1.6
				c3.2,0.6,7.3,2.3,7.3,2.3l-0.8-1.4L-1077.6-222.4z"/>
		</g>
		<path class="st10" d="M-1076.5-159.4c0,0,0.8,0.3,5.4,0.6c4.6,0.3,6-7.3,9-8s1.1,5.9,1.6,6.6c0.4,0.7,1.5-4.1,1.5-4.1
			s0.1,4.3,0.8,3.9c0.7-0.4,1-5.4,1-5.4s1.2,8.3,2.1,2.5c1-5.8-3.4-7.7-6.1-8.6c-2.7-0.9-6.9,7.1-9.6,7.8c-2.6,0.6-6.7-2.8-6.7-2.8
			L-1076.5-159.4z"/>
		<g>
			<circle cx="-1081.9" cy="-213.1" r="4.2"/>
			<circle class="st0" cx="-1081.6" cy="-213.9" r="1.5"/>
			<circle class="st0" cx="-1083.2" cy="-211.4" r="0.7"/>
		</g>
		<path class="st10" d="M-1101.6-153.7c0,0,0.8,0.1,5.3-1s3.5-8.8,6.1-10.3c2.6-1.5,2.8,5.3,3.5,5.9c0.6,0.6,0.2-4.4,0.2-4.4
			s1.4,4.1,1.9,3.5c0.6-0.6-0.7-5.5-0.7-5.5s3.6,7.5,2.8,1.7c-0.8-5.8-5.5-6.3-8.4-6.3s-4.5,8.9-6.8,10.3c-2.3,1.4-7.3-0.6-7.3-0.6
			L-1101.6-153.7z"/>
		<g>
			<path class="st21" d="M-1035.3-247.2c3.2,6.1,7.8,10.1,10.2,8.8c2.5-1.3,1.9-7.3-1.3-13.4c-3.2-6.1-7.8-10.1-10.2-8.8
				C-1039-259.3-1038.4-253.3-1035.3-247.2z"/>
			<path class="st22" d="M-1036.2-246.6c3.2,6.1,7.8,10.1,10.2,8.8c2.5-1.3,1.9-7.3-1.3-13.4c-3.2-6.1-7.8-10.1-10.2-8.8
				C-1040-258.7-1039.4-252.7-1036.2-246.6z"/>
		</g>
		<g>
			<path class="st21" d="M-1019.5-260.1c2.5,4.7,6,7.8,7.9,6.8c1.9-1,1.5-5.7-1-10.4c-2.5-4.7-6-7.8-7.9-6.8
				C-1022.4-269.5-1022-264.9-1019.5-260.1z"/>
			<path class="st22" d="M-1020.3-259.6c2.5,4.7,6,7.8,7.9,6.8c1.9-1,1.5-5.7-1-10.4c-2.5-4.7-6-7.8-7.9-6.8
				C-1023.2-269-1022.7-264.4-1020.3-259.6z"/>
		</g>
		<g>
			<path class="st23" d="M-1033.8-266.3c0,0-4.8-2.5-8.6-0.4c-7.2,4-2.9,14.8-2.9,14.8s-2.3-6.3,4.9-12.2
				C-1036.7-266.9-1033.8-266.3-1033.8-266.3z"/>
			<path class="st24" d="M-1033.8-266.3c0,0-5.4,0.7-9.3,5.9c-3.9,5.2-1.2,11-1.2,11s-3.4-6,0.1-11.4
				C-1040.7-266.3-1033.8-266.3-1033.8-266.3z"/>
			<path class="st25" d="M-1035.7-264.7c0,0-5.8,3.5-6.8,8.9c-1,5.4,1.9,9.4,1.9,9.4s-4-3.6-3.5-9.5
				C-1043.5-262-1035.7-264.7-1035.7-264.7z"/>
		</g>
		<g>
			<path class="st23" d="M-1020.3-273.8c0,0-2.8-1.5-5.1-0.2c-4.3,2.4-1.7,8.8-1.7,8.8s-1.3-3.7,2.9-7.2
				C-1022-274.2-1020.3-273.8-1020.3-273.8z"/>
			<path class="st24" d="M-1020.3-273.8c0,0-3.2,0.4-5.5,3.5c-2.3,3.1-0.7,6.5-0.7,6.5s-2-3.6,0.1-6.8
				C-1024.4-273.8-1020.3-273.8-1020.3-273.8z"/>
			<path class="st25" d="M-1021.5-272.8c0,0-3.4,2-4,5.2c-0.6,3.2,1.2,5.6,1.2,5.6s-2.4-2.2-2.1-5.6
				C-1026-271.2-1021.5-272.8-1021.5-272.8z"/>
		</g>
		<path class="st10" d="M-1114.2-249.2c0,0,11.5-10.3,32.2-19.4c19.7-8.7,29.7-9.1,29.7-9.1s-4.9-12.7,6.7-17.6
			c11.6-4.9-11.5-12.1-22.5,0c-6.9,7.7-10.3-6.7-10.3-6.7l-9.1,21.9l-12.1-3.6l-3.6,18.8l-13.4,1.2L-1114.2-249.2z"/>
	</g>
	<g>
		<g>
			<path class="st26" d="M-421.9-149.1c0,0-21.9-3.7-22.9,0.4c-0.7,2.9,23.4,2.8,23.4,2.8L-421.9-149.1z"/>
			<path class="st26" d="M-441.9-152.5c0,0-5.9-7.3-6.6-5.1s2.1,5.7,2.1,5.7s-8.1-3.6-9.1-2.4s7.9,4.1,7.4,4.2s-8.8-0.6-8.5,0.6
				c0.2,1.2,8.1,1.3,8.2,1.8s-7.7,1.2-7.2,2.1c0.4,0.9,7.4,0.1,8.2,0.2c0.8,0.1-4.9,2.4-4.5,3.4c0.4,0.9,5.4-1.3,6.3-1.9
				c0.9-0.7,5-0.4,6.5-1.7s0.9-4.5,0-5.3C-440-151.8-441.9-152.5-441.9-152.5z"/>
		</g>
		<path class="st27" d="M-462.5-203.5c4.9,0,12.8,0.5,16.6-1.6c7.7-4.4-14.5-13.5-27.3-23.3c-12.8-9.8,29.1-16.4,37.6-12.1
			c8.5,4.3,37.7,28.6,38.3,36.5c0.6,7.9-20.7,27.9-20.7,27.9l-14.6-3C-432.5-179.2-472-203.5-462.5-203.5z"/>
		
			<linearGradient id="SVGID_12_" gradientUnits="userSpaceOnUse" x1="-471.526" y1="614.0055" x2="-423.3083" y2="565.7878" gradientTransform="matrix(1 0 0 -1 0 367.1874)">
			<stop  offset="0" style="stop-color:#FFC76D"/>
			<stop  offset="1" style="stop-color:#E8E3E0"/>
		</linearGradient>
		<path class="st28" d="M-483.5-234.9c0,0-1.5,4.1,0.6,4.6s4.3-1.1,4.3-1.1s-1.1,8.6,1.6,7.5c2.7-1.1,4.8-2.6,4.8-2.6
			s-1,5.9,1.6,6.4c2.7,0.5,5.4-2.8,5.4-2.8s0,7.1,2.6,7.1s5.7-3.2,5.7-3.2s-2.5,5.3,1.8,5.9c4.3,0.5,5.4-1.6,5.4-1.6
			s0.5,4.4,3.2,4.8c3.7,0.5,5.1-1.9,5.1-1.9s3,4,4,3.5c1.1-0.5,5.9-2.7,5.9-2.7s-0.5,3.7,2.1,3.7s7-3.7,7-3.7s0,3.7,2.1,3.2
			s3.7-3.7,3.7-3.7s1.1,2.7,3.2,2.1c2.1-0.5,4.3-4.3,4.3-4.3L-483.5-234.9z"/>
		
			<linearGradient id="SVGID_13_" gradientUnits="userSpaceOnUse" x1="-506.0675" y1="432.574" x2="-446.7828" y2="426.3986" gradientTransform="matrix(0.9996 2.982325e-02 2.982325e-02 -0.9996 28.0185 249.9152)">
			<stop  offset="0" style="stop-color:#FFC76D"/>
			<stop  offset="1" style="stop-color:#E8E3E0"/>
		</linearGradient>
		<path class="st29" d="M-405.8-190.7c0,0-3.2-7.5-6.4-5.4c-2.9,1.9-1.6,4.3-1.6,4.3s-1.6-3.7-3.7-2.1c-2.1,1.6-2.1,4.3-2.1,4.3
			s-1-5.3-3.7-3.2c-2.7,2.1-2.8,5.1-2.8,5.1s0.2-5.6-2.5-4.6s-2.2,2.8-2.2,2.8s-0.4-4.4-3.1-3.4s-3.3,2.1-3.3,2.1s-0.9-5.2-3.1-3.2
			c-2.2,2.1-2.7,2.5-2.7,2.5s0.6-5.1-2.1-4.6s-3.7,1.7-3.7,1.7s1.6-3.8-1.6-3.9c-3.2-0.1-3,1.9-3,1.9s0.4-6.1-2.3-4.1
			c-2.7,2.1-3,2.3-3,2.3s4.3-8.3,0.9-8.2c-3.4,0.1-3.8,5.4-3.8,5.4s1.6-7.5-0.5-7s-1.2,5.4-1.2,5.4s10.9,10.6,11.9,11.2
			c1,0.6,41.4,12,41.4,12L-405.8-190.7z"/>
		<g>
			<path class="st30" d="M-424.5-110.6c0,0,6.7,16.7,7.4,20.4c0.6,3.6-9.3,5.4-10.2,8c-0.9,2.6,6.4,1.1,6.4,1.1s2.5,2.4,4.8,1.8
				c1.5-0.4,8.3-1,12.9-1.3c2.3-0.2,4-2.3,3.7-4.6l-2.8-20.2C-402.4-105.5-423.2-120-424.5-110.6z"/>
			<path class="st31" d="M-400.2-90.1c0,0-9.1-7.5-14.6-9.3s-3.9,4.2-3.9,4.2l-5.8-15.7c0,0,19.7,3,20.2,3.6s3.1,5.1,3.1,5.1
				L-400.2-90.1z"/>
			<path class="st15" d="M-422.5-80.8c0,0,0.6-4.1-1-4s-4.6,1.9-5.2,3.1C-429.3-80.5-422.5-80.8-422.5-80.8z"/>
			<path class="st15" d="M-415.3-79.5c0,0,0.6-3.5-1.9-3.5c-2.4,0-5.5,1.2-6.1,3S-415.3-79.5-415.3-79.5z"/>
		</g>
		<path class="st32" d="M-373.1-132.3c0,0,9.1-22.2,6.4-23.6c-2.7-1.3-10.9-7.2-9.6-10.2c1.2-3,23.5-11.5,20.9-12.8
			c-2.7-1.3-9.6-16.6-9.6-16.6s23.3-5.9,21.6-7.1s-11.5-10.2-11.5-10.2l13.4-12.9l-13.3-6.1c0,0-4.4-13,0.9-16.8
			c5.4-3.7-24.6,1.1-24.6,1.1l-28.4,98"/>
		<path class="st32" d="M-375.3-134.5l17.1-13.3l8.6,12.3l2.9-11.6l13.7,2l4.6-9.9l6.7,6.7c0,0-20,20-26.7,25.5s-27.3,3-27.3,3
			L-375.3-134.5z"/>
		
			<linearGradient id="SVGID_14_" gradientUnits="userSpaceOnUse" x1="-484.9804" y1="548.2613" x2="-321.7804" y2="548.2613" gradientTransform="matrix(1 0 0 -1 0 367.1874)">
			<stop  offset="0" style="stop-color:#6BC62A"/>
			<stop  offset="1" style="stop-color:#00B53E"/>
		</linearGradient>
		<path class="st33" d="M-355.1-131.4c-31.9-3.1-29.2-27.7-20.1-43.2c0.1-0.1,0.1-0.2,0-0.3c12.8-13.2,26.4-39.3,23.1-48.9
			c-4.3-12.3-76.6-66.1-99.6-61.3c-23,4.8-33.3,48.5-33.3,48.5c4,15.2,49,32.2,68.8,26.5c7.7-2.3,13.5-3.7,16.9,2.9
			c1.8,3.5,0,8.1-18.2,15c-15.5,5.9-39.4-4.5-43.4-10.7c-3.4-5.4-12.9,2.5-3.8,10.1c6,5,20.4,13.9,43.8,20.4
			c-2.2,3.3-5.1,8.3-5.8,10.2c-1,2.8-4.1,8.9-5.9,14.5c-1.7,5.6-5.5,12.6-6.4,21.4c-0.9,8.8,6.9,18.9,14.9,21.5s12.6,3.3,19.9,5.6
			c4.1,3.9,8.9,7.3,12.7,11.7c-5.1,0.9-11.6,2-15,6.2c1.6,1.7,3.4,2.8,5.6,3.1c3.5,0.5,5.6,0.8,9.4,1.3c2.6,0.3,6.9-0.3,10.7-0.6
			c2.8-0.2,4.9-2.6,5-5.4c0.1-5.1-0.4-9.7,0.1-15.3c25.1-1.8,37.8-29.4,53.9-50C-331.9-149-345.1-130.4-355.1-131.4z"/>
		<g>
			<path class="st2" d="M-454.5-162.5c0,0-13.3-8.3-4.1-22.6C-458.5-185.2-447-178.3-454.5-162.5z"/>
			<path class="st2" d="M-456.5-160.5c0,0-5.8,14.9-21.5,8.3C-478.1-152.2-473.4-165.2-456.5-160.5z"/>
			<path class="st2" d="M-463.1-166.2c0,0-15.6,3.7-19.1-13C-482.2-179.2-468.9-182.7-463.1-166.2z"/>
			<g>
				<path class="st2" d="M-465.2-166.9c0-0.1,7.6,1.7,10.7,4.4s6.3,6.1,7.8,8.5s2.1,5,2.2,6.8s-0.2,3-0.3,2.9
					c-0.1,0-0.1-1.1-0.4-2.9c-0.3-1.7-3.9-4.5-5.3-6.7C-451.8-156.2-465.2-166.8-465.2-166.9z"/>
			</g>
		</g>
		<path class="st15" d="M-403-79.5c0,0,0.6-4.1-1-4s-4.6,1.9-5.2,3.1C-409.7-79.2-403-79.5-403-79.5z"/>
		<path class="st15" d="M-395.8-78.1c0,0,0.6-3.5-1.8-3.5s-5.5,1.2-6.1,3S-395.8-78.1-395.8-78.1z"/>
		<path class="st31" d="M-404.2-99.1c0,0,28.4-0.8,28.4,0.5c0,1.1-0.2,10.9,0,13.4s-4.8-4.2-13.9-7.3S-404.2-99.1-404.2-99.1z"/>
		<g>
			<g>
				<path class="st34" d="M-451.2-240.8c-3.2,6.1-7.8,10.1-10.2,8.8c-2.5-1.3-1.9-7.3,1.3-13.4c3.2-6.1,7.8-10.1,10.2-8.8
					S-448-246.9-451.2-240.8z"/>
				<path class="st27" d="M-450.3-240.1c-3.2,6.1-7.8,10.1-10.2,8.8c-2.5-1.3-1.9-7.3,1.3-13.4c3.2-6.1,7.8-10.1,10.2-8.8
					C-446.5-252.3-447.1-246.3-450.3-240.1z"/>
			</g>
			<g>
				<path class="st34" d="M-467-253.7c-2.5,4.7-6,7.8-7.9,6.8s-1.5-5.7,1-10.4c2.5-4.7,6-7.8,7.9-6.8
					C-464-263.1-464.5-258.4-467-253.7z"/>
				<path class="st27" d="M-466.2-253.2c-2.5,4.7-6,7.8-7.9,6.8s-1.5-5.7,1-10.4c2.5-4.7,6-7.8,7.9-6.8S-463.7-258-466.2-253.2z"/>
			</g>
			<g>
				<path class="st35" d="M-452.7-259.9c0,0,4.8-2.5,8.6-0.4c7.2,4,2.9,14.8,2.9,14.8s2.3-6.3-4.9-12.2
					C-449.7-260.5-452.7-259.9-452.7-259.9z"/>
				<path class="st32" d="M-452.7-259.9c0,0,5.4,0.7,9.3,5.9s1.2,11,1.2,11s3.4-6-0.1-11.4C-445.7-259.9-452.7-259.9-452.7-259.9z"
					/>
				<path class="st25" d="M-450.7-258.2c0,0,5.8,3.5,6.8,8.9c1,5.4-1.9,9.4-1.9,9.4s4-3.6,3.5-9.5
					C-443-255.6-450.7-258.2-450.7-258.2z"/>
			</g>
			<g>
				<path class="st35" d="M-466.2-267.4c0,0,2.8-1.5,5.1-0.2c4.3,2.4,1.7,8.8,1.7,8.8s1.3-3.7-2.9-7.2
					C-464.4-267.8-466.2-267.4-466.2-267.4z"/>
				<path class="st32" d="M-466.2-267.4c0,0,3.2,0.4,5.5,3.5s0.7,6.5,0.7,6.5s2-3.6-0.1-6.8C-462.1-267.4-466.2-267.4-466.2-267.4z"
					/>
				<path class="st25" d="M-465-266.4c0,0,3.4,2,4,5.2s-1.2,5.6-1.2,5.6s2.4-2.2,2.1-5.6C-460.4-264.8-465-266.4-465-266.4z"/>
			</g>
		</g>
		<g>
			<g>
				<path class="st32" d="M-385.2-227.2c0,0,2.2,2.9,3,6.1s1.4,8,1.4,8l0.7-1.8c0,0,0.3,0.6,1.2,1.4c0.8,0.6,3.2,1.4,3.2,1.4
					s-0.7-3.4-1.6-7.3c-1.2-5.4-4.6-7.8-4.6-7.8l0.1,1.1C-381.7-226-383.9-227.1-385.2-227.2z"/>
				<path class="st30" d="M-380.8-225.7c0,0,1.7,1.5,2.8,4.6c1.1,3.1,1.6,6.9,1.6,6.9l-1.3-2.5l0.8,3.1c0,0-1.2-1.6-2.1-4.7
					c-0.9-3.2-3-7-3-7l1.5,0.7L-380.8-225.7z"/>
			</g>
			<path class="st36" d="M-391-220.2c0,0,7.6-0.9,5.3,6"/>
		</g>
		<g>
			<path class="st37" d="M-422.3-152.8c-4.2-0.3-22.5,2.5-22.2,6.7c0.2,2.9,23.2-4.4,23.2-4.4S-418.1-152.5-422.3-152.8z"/>
			<path class="st37" d="M-442.9-150.6c0,0-7.9-5.2-7.8-2.9c0.1,2.2,3.7,4.8,3.7,4.8s-8.8-1-9.4,0.5s8.8,1.6,8.3,1.8
				c-0.4,0.2-8.6,2-8,3.1s8.1-1.2,8.4-0.8c0.2,0.4-7,3.4-6.3,4.2s7.1-2.1,7.9-2.2c0.8-0.1-4,3.7-3.2,4.6c0.7,0.8,4.7-2.8,5.4-3.7
				s4.6-1.9,5.7-3.6c1.1-1.7-0.5-4.6-1.6-5.1S-442.9-150.6-442.9-150.6z"/>
		</g>
		<path class="st32" d="M-374.2-245.8c0,0-12.3-10.5-33-19.6c-19.7-8.7-33.4-12-33.4-12s0.1-19.7,18.7-24.1c9.1-2.1,24.5,3.8,22,4.8
			c-10.7,4.3-11.4,22.4-2.1,15c8-6.4,20.9,1.1,20.9,1.1s-13.1,8.2-8.6,9.1c5.4,1.1,18.6-2.5,15,1.6c-4.3,4.8-9.6,8.6-9.6,8.6
			s24.1-4.8,19.8,1.1S-374.2-245.8-374.2-245.8z"/>
	</g>
	<g>
		<g>
			<circle class="st5" cx="-101.5" cy="-354.4" r="3.8"/>
		</g>
		<g>
			<path class="st5" d="M-94.2-374.8c-3.4-4.1-5.8-11.8-6.9-15.2c-0.1-0.5-0.8-0.5-1,0c-0.8,3-2.9,9.3-6.9,14.7
				c-3.7,5,0.4,12.3,7.3,12.3c0,0,0,0,0.1,0c0,0,0,0,0.1,0C-94.7-363-90.3-369.9-94.2-374.8z M-100.8-366c-3.4,0.6-6.2-2.3-5.7-5.7
				c0.3-2,2-3.7,4-4c3.4-0.6,6.2,2.3,5.7,5.7C-97.1-368-98.7-366.3-100.8-366z"/>
		</g>
		<path class="st5" d="M-101.5-365.7c-0.8,0-1.5,0.7-1.5,1.5v19.3h3v-19.3C-100-365-100.7-365.7-101.5-365.7z"/>
	</g>
	<g>
		<path class="st5" d="M151.9-375.1H-65.7c-0.8,0-1.5-0.7-1.5-1.5s0.7-1.5,1.5-1.5h217.6c0.8,0,1.5,0.7,1.5,1.5
			S152.7-375.1,151.9-375.1z"/>
	</g>
	<g>
		
			<linearGradient id="SVGID_15_" gradientUnits="userSpaceOnUse" x1="-888.1805" y1="-432.991" x2="-815.6886" y2="-432.991" gradientTransform="matrix(-3.274567e-02 -0.9994 -0.8688 2.845226e-02 -471.866 -1043.5408)">
			<stop  offset="0.1522" style="stop-color:#FF3A2D"/>
			<stop  offset="0.1907" style="stop-color:#FF462A"/>
			<stop  offset="0.4015" style="stop-color:#FF811B"/>
			<stop  offset="0.5953" style="stop-color:#FFB00F"/>
			<stop  offset="0.7658" style="stop-color:#FFD207"/>
			<stop  offset="0.9065" style="stop-color:#FFE702"/>
			<stop  offset="1" style="stop-color:#FFEE00"/>
		</linearGradient>
		<path class="st38" d="M-69.5-168.1c-0.1,0-0.1,0-0.1-0.1c-0.6-1.4-13.5-16.4-13.1-27.9c0.4-12.1,2.8-27.1,3-29
			c0.3-3.5,4.5,11,5.3,12.1c0.1,0.1,0.3,0,0.3-0.1c-0.9-2.2-1.2-8.2-0.3-12.4c1-4.2,6.1-11.9,8.3-15c0.3-0.4,0.9-0.2,0.9,0.3
			c0,2.3,1,9.8,3.7,12.5c3.7,3.6,11.5,15.2,7.9,27.8C-57.2-187.6-65.3-167.9-69.5-168.1z"/>
		
			<linearGradient id="SVGID_16_" gradientUnits="userSpaceOnUse" x1="-884.4279" y1="-434.8231" x2="-835.9785" y2="-434.8231" gradientTransform="matrix(-3.274567e-02 -0.9994 -0.8688 2.845226e-02 -471.866 -1043.5408)">
			<stop  offset="0.1522" style="stop-color:#FF5A19"/>
			<stop  offset="1" style="stop-color:#FFEE00"/>
		</linearGradient>
		<path class="st39" d="M-68.3-171.9c0,0-7.6-21.5-3.8-29.7s5.4-12.2,4.3-17.1c-1.8-8,10.8,14.4,8.9,22.6
			C-61-188-68.3-171.9-68.3-171.9z"/>
		
			<linearGradient id="SVGID_17_" gradientUnits="userSpaceOnUse" x1="-883.1845" y1="-433.9991" x2="-848.2488" y2="-433.9991" gradientTransform="matrix(-3.274567e-02 -0.9994 -0.8688 2.845226e-02 -471.866 -1043.5408)">
			<stop  offset="0.1522" style="stop-color:#FFB02A"/>
			<stop  offset="0.9393" style="stop-color:#FFEE00"/>
		</linearGradient>
		<path class="st40" d="M-68.4-173.1c0,0-2.9-15.1-2.5-20.2c0.3-5,2.3-7.2,4.1-10.9c0.4-0.9,1-2.9,1.3-3.9c0.1-0.2,0.3-0.2,0.4,0
			c0.7,1.5,2.5,6,2.8,10.2C-61.7-192.7-68.4-173.1-68.4-173.1z"/>
	</g>
	<g>
		<linearGradient id="SVGID_18_" gradientUnits="userSpaceOnUse" x1="-114.3083" y1="-168.4198" x2="-20.3742" y2="-168.4198">
			<stop  offset="0" style="stop-color:#FF3A2D"/>
			<stop  offset="1" style="stop-color:#D50000"/>
		</linearGradient>
		<path class="st41" d="M-114.3-182.8c9.5,17.3,27,28.8,47,28.8s37.5-11.6,47-28.8H-114.3z"/>
		<polygon class="st4" points="-67.3,-291.1 -114.7,-182.8 -20,-182.8 		"/>
		<linearGradient id="SVGID_19_" gradientUnits="userSpaceOnUse" x1="-73.8687" y1="-291.6258" x2="-60.8138" y2="-291.6258">
			<stop  offset="0" style="stop-color:#FF3A2D"/>
			<stop  offset="1" style="stop-color:#D50000"/>
		</linearGradient>
		<circle class="st42" cx="-67.3" cy="-291.6" r="6.5"/>
	</g>
	<g>
		<path class="st2" d="M49.6-200.6c0,0-4-20.3,18.1-24.4C67.7-225,71.5-207.7,49.6-200.6z"/>
		<path class="st2" d="M46.4-200.3c0,0-20.3,7.5-28.1-13.7C18.3-214,35.6-220.8,46.4-200.3z"/>
		<path class="st2" d="M45.2-212.3c0,0-17.7-11.7-4.8-30.1C40.5-242.4,55.9-232.7,45.2-212.3z"/>
		<g>
			<path class="st2" d="M44.1-214.9c0,0,0.4-2.1,1.3-0.4c1.6,3.1,4.1,11.2,4.2,14.7c0.2,5.4-0.1,11.6-1.1,15.2
				c-1,3.6-2.8,6.5-4.5,8.3c-1.6,1.8-3,2.5-3.1,2.4c-0.1-0.1,1-1.1,2.4-2.9c1.4-1.8-0.5,1.2,1.7-11.2
				C46.8-199.3,44-214.9,44.1-214.9z"/>
		</g>
	</g>
	<g>
		<path class="st7" d="M-1-182.8C8.5-165.6,26-154,46-154s37.5-11.6,47-28.8H-1z"/>
		<polygon class="st4" points="46,-291.1 -1.4,-182.8 93.3,-182.8 		"/>
		<circle class="st2" cx="46" cy="-291.6" r="6.5"/>
	</g>
	<g>
		<circle class="st0" cx="-60.8" cy="-349.5" r="12"/>
		<path class="st5" d="M-60.8-336c-7.4,0-13.5-6-13.5-13.5s6-13.5,13.5-13.5s13.5,6,13.5,13.5S-53.4-336-60.8-336z M-60.8-360
			c-5.8,0-10.5,4.7-10.5,10.5s4.7,10.5,10.5,10.5s10.5-4.7,10.5-10.5S-55-360-60.8-360z"/>
	</g>
	<g>
		<polygon class="st4" points="-67.7,-121.3 -115,-13.1 -20.4,-13.1 		"/>
		<linearGradient id="SVGID_20_" gradientUnits="userSpaceOnUse" x1="-74.2" y1="-121.8488" x2="-61.145" y2="-121.8488">
			<stop  offset="0" style="stop-color:#FF3A2D"/>
			<stop  offset="1" style="stop-color:#D50000"/>
		</linearGradient>
		<circle class="st43" cx="-67.7" cy="-121.8" r="6.5"/>
	</g>
	<g>
		<polygon class="st4" points="46,-121.3 -1.4,-13.1 93.3,-13.1 		"/>
		<circle class="st2" cx="46" cy="-121.8" r="6.5"/>
	</g>
	<linearGradient id="SVGID_21_" gradientUnits="userSpaceOnUse" x1="-114.6395" y1="13.4148" x2="-20.7054" y2="13.4148">
		<stop  offset="0" style="stop-color:#FF3A2D"/>
		<stop  offset="1" style="stop-color:#D50000"/>
	</linearGradient>
	<path class="st44" d="M-114.6-1c9.5,17.3,27,28.8,47,28.8s37.5-11.6,47-28.8H-114.6z"/>
	<path class="st7" d="M0,0c9.5,17.3,27,28.8,47,28.8S84.4,17.3,93.9,0H0z"/>
	<g>
		<defs>
			<rect id="SVGID_22_" x="-859" y="-185.8" width="30.1" height="56.3"/>
		</defs>
		<clipPath id="SVGID_23_">
			<use xlink:href="#SVGID_22_"  style="overflow:visible;"/>
		</clipPath>
		<g class="st45">
			
				<linearGradient id="SVGID_24_" gradientUnits="userSpaceOnUse" x1="-917.6949" y1="461.6296" x2="-845.2031" y2="461.6296" gradientTransform="matrix(-3.274567e-02 -0.9994 -0.8688 2.845226e-02 -471.866 -1043.5408)">
				<stop  offset="0.1522" style="stop-color:#FF3A2D"/>
				<stop  offset="0.1907" style="stop-color:#FF462A"/>
				<stop  offset="0.4015" style="stop-color:#FF811B"/>
				<stop  offset="0.5953" style="stop-color:#FFB00F"/>
				<stop  offset="0.7658" style="stop-color:#FFD207"/>
				<stop  offset="0.9065" style="stop-color:#FFE702"/>
				<stop  offset="1" style="stop-color:#FFEE00"/>
			</linearGradient>
			<path class="st46" d="M-845.8-113.1c-0.1,0-0.1,0-0.1-0.1c-0.6-1.4-13.5-16.4-13.1-27.9c0.4-12.1,2.8-27.1,3-29
				c0.3-3.5,4.5,11,5.3,12.1c0.1,0.1,0.3,0,0.3-0.1c-0.9-2.2-1.2-8.2-0.3-12.4c1-4.2,6.1-11.9,8.3-15c0.3-0.4,0.9-0.2,0.9,0.3
				c0,2.3,1,9.8,3.7,12.5c3.7,3.6,11.5,15.2,7.9,27.8C-833.5-132.6-841.6-112.9-845.8-113.1z"/>
			
				<linearGradient id="SVGID_25_" gradientUnits="userSpaceOnUse" x1="-913.9424" y1="459.7975" x2="-865.493" y2="459.7975" gradientTransform="matrix(-3.274567e-02 -0.9994 -0.8688 2.845226e-02 -471.866 -1043.5408)">
				<stop  offset="0.1522" style="stop-color:#FF5A19"/>
				<stop  offset="1" style="stop-color:#FFEE00"/>
			</linearGradient>
			<path class="st47" d="M-844.6-116.9c0,0-7.6-21.5-3.8-29.7c3.8-8.2,5.4-12.2,4.3-17.1c-1.8-8,10.8,14.4,8.9,22.6
				C-837.3-133-844.6-116.9-844.6-116.9z"/>
			
				<linearGradient id="SVGID_26_" gradientUnits="userSpaceOnUse" x1="-912.699" y1="460.6215" x2="-877.7632" y2="460.6215" gradientTransform="matrix(-3.274567e-02 -0.9994 -0.8688 2.845226e-02 -471.866 -1043.5408)">
				<stop  offset="0.1522" style="stop-color:#FFB02A"/>
				<stop  offset="0.9393" style="stop-color:#FFEE00"/>
			</linearGradient>
			<path class="st48" d="M-844.7-118.2c0,0-2.9-15.1-2.5-20.2c0.3-5,2.3-7.2,4.1-10.9c0.4-0.9,1-2.9,1.3-3.9c0.1-0.2,0.3-0.2,0.4,0
				c0.7,1.5,2.5,6,2.8,10.2C-838-137.7-844.7-118.2-844.7-118.2z"/>
		</g>
	</g>
	<g>
		<defs>
			<rect id="SVGID_27_" x="-114.3" y="44.2" width="30.1" height="56.3"/>
		</defs>
		<clipPath id="SVGID_28_">
			<use xlink:href="#SVGID_27_"  style="overflow:visible;"/>
		</clipPath>
		<g class="st49">
			
				<linearGradient id="SVGID_29_" gradientUnits="userSpaceOnUse" x1="-1171.9175" y1="-385.918" x2="-1099.4255" y2="-385.918" gradientTransform="matrix(-3.274567e-02 -0.9994 -0.8688 2.845226e-02 -471.866 -1043.5408)">
				<stop  offset="0.1522" style="stop-color:#FF3A2D"/>
				<stop  offset="0.1907" style="stop-color:#FF462A"/>
				<stop  offset="0.4015" style="stop-color:#FF811B"/>
				<stop  offset="0.5953" style="stop-color:#FFB00F"/>
				<stop  offset="0.7658" style="stop-color:#FFD207"/>
				<stop  offset="0.9065" style="stop-color:#FFE702"/>
				<stop  offset="1" style="stop-color:#FFEE00"/>
			</linearGradient>
			<path class="st50" d="M-101.1,116.8c-0.1,0-0.1,0-0.1-0.1c-0.6-1.4-13.5-16.4-13.1-27.9c0.4-12.1,2.8-27.1,3-29
				c0.3-3.5,4.5,11,5.3,12.1c0.1,0.1,0.3,0,0.3-0.1c-0.9-2.2-1.2-8.2-0.3-12.4s6.1-11.9,8.3-15c0.3-0.4,0.9-0.2,0.9,0.3
				c0,2.3,1,9.8,3.7,12.5c3.7,3.6,11.5,15.2,7.9,27.8C-88.8,97.3-96.9,117.1-101.1,116.8z"/>
			
				<linearGradient id="SVGID_30_" gradientUnits="userSpaceOnUse" x1="-1168.1648" y1="-387.75" x2="-1119.7155" y2="-387.75" gradientTransform="matrix(-3.274567e-02 -0.9994 -0.8688 2.845226e-02 -471.866 -1043.5408)">
				<stop  offset="0.1522" style="stop-color:#FF5A19"/>
				<stop  offset="1" style="stop-color:#FFEE00"/>
			</linearGradient>
			<path class="st51" d="M-99.9,113c0,0-7.6-21.5-3.8-29.7s5.4-12.2,4.3-17.1c-1.8-8,10.8,14.4,8.9,22.6C-92.6,97-99.9,113-99.9,113
				z"/>
			
				<linearGradient id="SVGID_31_" gradientUnits="userSpaceOnUse" x1="-1166.9214" y1="-386.926" x2="-1131.9857" y2="-386.926" gradientTransform="matrix(-3.274567e-02 -0.9994 -0.8688 2.845226e-02 -471.866 -1043.5408)">
				<stop  offset="0.1522" style="stop-color:#FFB02A"/>
				<stop  offset="0.9393" style="stop-color:#FFEE00"/>
			</linearGradient>
			<path class="st52" d="M-100,111.8c0,0-2.9-15.1-2.5-20.2c0.3-5,2.3-7.2,4.1-10.9c0.4-0.9,1-2.9,1.3-3.9c0.1-0.2,0.3-0.2,0.4,0
				c0.7,1.5,2.5,6,2.8,10.2C-93.4,92.2-100,111.8-100,111.8z"/>
		</g>
	</g>
</g>
</svg>
