<?xml version="1.0" encoding="utf-8"?>
<!-- Generator: Adobe Illustrator 23.0.1, SVG Export Plug-In . SVG Version: 6.00 Build 0)  -->
<svg version="1.1" xmlns="http://www.w3.org/2000/svg" xmlns:xlink="http://www.w3.org/1999/xlink" x="0px" y="0px" width="30.1px"
	 height="56.3px" viewBox="0 0 30.1 56.3" style="enable-background:new 0 0 30.1 56.3;" xml:space="preserve">
<style type="text/css">
	.st0{fill:#FFFFFF;}
	.st1{clip-path:url(#SVGID_2_);}
	.st2{fill:#6BC62A;}
	.st3{clip-path:url(#SVGID_4_);}
	.st4{fill:none;stroke:#7A6356;stroke-width:3;stroke-linecap:round;stroke-linejoin:round;stroke-miterlimit:10;}
	.st5{fill:#7A6356;}
	.st6{fill:#FFFFFF;stroke:#7A6356;stroke-width:3;stroke-linecap:round;stroke-linejoin:round;stroke-miterlimit:10;}
	.st7{fill:#009380;}
	.st8{fill:url(#SVGID_5_);}
	.st9{fill:url(#SVGID_6_);}
	.st10{fill:#A60C17;}
	.st11{fill:url(#SVGID_7_);}
	.st12{fill:#E02229;}
	.st13{opacity:0.88;fill:#D50000;enable-background:new    ;}
	.st14{fill:url(#SVGID_8_);}
	.st15{fill:#491B02;}
	.st16{fill:url(#SVGID_9_);}
	.st17{fill:url(#SVGID_10_);}
	.st18{fill:url(#SVGID_11_);}
	.st19{fill:#680200;}
	.st20{fill:#A30B05;}
	.st21{fill:#FF5B56;}
	.st22{fill:#A40000;}
	.st23{opacity:0.5;fill:#D50000;enable-background:new    ;}
	.st24{fill:#6A1100;}
	.st25{opacity:0.43;fill:#FFFFFF;enable-background:new    ;}
	.st26{fill:#006325;}
	.st27{fill:#004B25;}
	.st28{fill:url(#SVGID_12_);}
	.st29{fill:url(#SVGID_13_);}
	.st30{fill:#00923D;}
	.st31{opacity:0.4;fill:#006830;enable-background:new    ;}
	.st32{fill:#006830;}
	.st33{fill:url(#SVGID_14_);}
	.st34{fill:#D6E000;}
	.st35{opacity:0.5;fill:#00923D;enable-background:new    ;}
	.st36{fill:none;stroke:#000000;stroke-width:2;stroke-linecap:round;stroke-linejoin:round;stroke-miterlimit:10;}
	.st37{fill:#00962B;}
	.st38{fill:url(#SVGID_15_);}
	.st39{fill:url(#SVGID_16_);}
	.st40{fill:url(#SVGID_17_);}
	.st41{fill:url(#SVGID_18_);}
	.st42{fill:url(#SVGID_19_);}
	.st43{fill:url(#SVGID_20_);}
	.st44{fill:url(#SVGID_21_);}
	.st45{clip-path:url(#SVGID_23_);}
	.st46{fill:url(#SVGID_24_);}
	.st47{fill:url(#SVGID_25_);}
	.st48{fill:url(#SVGID_26_);}
	.st49{clip-path:url(#SVGID_28_);}
	.st50{fill:url(#SVGID_29_);}
	.st51{fill:url(#SVGID_30_);}
	.st52{fill:url(#SVGID_31_);}
</style>
<g id="Layer_2">
	<rect x="-1202.9" y="-440.9" class="st0" width="1146.2" height="404.9"/>
</g>
<g id="green">
	<g>
		<defs>
			<rect id="SVGID_1_" x="-541.2" y="-231.6" width="49.7" height="58"/>
		</defs>
		<clipPath id="SVGID_2_">
			<use xlink:href="#SVGID_1_"  style="overflow:visible;"/>
		</clipPath>
		<g class="st1">
			<path class="st2" d="M-509.9-189.8c0,0-4-20.3,18.1-24.4C-491.8-214.2-487.9-196.9-509.9-189.8z"/>
			<path class="st2" d="M-513.1-189.6c0,0-20.3,7.5-28.1-13.7C-541.2-203.2-523.8-210-513.1-189.6z"/>
			<path class="st2" d="M-514.2-201.5c0,0-17.7-11.7-4.8-30.1C-519-231.6-503.5-222-514.2-201.5z"/>
			<g>
				<path class="st2" d="M-515.4-204.1c0,0,0.4-2.1,1.3-0.4c1.6,3.1,4.1,11.2,4.2,14.7c0.2,5.4-0.1,11.6-1.1,15.2
					c-1,3.6-2.8,6.5-4.5,8.3c-1.6,1.8-3,2.5-3.1,2.4c-0.1-0.1,1-1.1,2.4-2.9c1.4-1.8-0.5,1.2,1.7-11.2
					C-512.6-188.5-515.5-204.1-515.4-204.1z"/>
			</g>
		</g>
	</g>
	<g>
		<defs>
			<rect id="SVGID_3_" x="40.1" y="1" width="49.7" height="58"/>
		</defs>
		<clipPath id="SVGID_4_">
			<use xlink:href="#SVGID_3_"  style="overflow:visible;"/>
		</clipPath>
		<g class="st3">
			<path class="st2" d="M71.4,42.8c0,0-4-20.3,18.1-24.4C89.5,18.4,93.4,35.7,71.4,42.8z"/>
			<path class="st2" d="M68.2,43.1c0,0-20.3,7.5-28.1-13.7C40.1,29.4,57.5,22.6,68.2,43.1z"/>
			<path class="st2" d="M67.1,31.1c0,0-17.7-11.7-4.8-30.1C62.3,1,77.8,10.7,67.1,31.1z"/>
			<g>
				<path class="st2" d="M65.9,28.5c0,0,0.4-2.1,1.3-0.4c1.6,3.1,4.1,11.2,4.2,14.7c0.2,5.4-0.1,11.6-1.1,15.2
					c-1,3.6-2.8,6.5-4.5,8.3c-1.6,1.8-3,2.5-3.1,2.4c-0.1-0.1,1-1.1,2.4-2.9c1.4-1.8-0.5,1.2,1.7-11.2
					C68.7,44.1,65.8,28.5,65.9,28.5z"/>
			</g>
		</g>
	</g>
</g>
<g id="fire">
</g>
<g id="Layer_1">
	<line class="st4" x1="-730.2" y1="-281.9" x2="-512.6" y2="-281.9"/>
	<circle class="st5" cx="-621.4" cy="-305.3" r="3.8"/>
	<path class="st5" d="M-614.1-325.7c-3.4-4.1-5.8-11.8-6.9-15.2c-0.1-0.5-0.8-0.5-1,0c-0.8,3-2.9,9.3-6.9,14.7
		c-3.7,5,0.4,12.3,7.3,12.3c0,0,0,0,0.1,0c0,0,0,0,0.1,0C-614.6-313.9-610.2-320.9-614.1-325.7z M-620.7-316.9
		c-3.4,0.6-6.2-2.3-5.7-5.7c0.3-2,2-3.7,4-4c3.4-0.6,6.2,2.3,5.7,5.7C-617-318.9-618.6-317.2-620.7-316.9z"/>
	<line class="st4" x1="-621.4" y1="-281.9" x2="-621.4" y2="-315.1"/>
	<circle class="st6" cx="-621.4" cy="-282.5" r="12"/>
	<g>
		<path class="st7" d="M-560.5-172.1c9.5,17.3,27,28.8,47,28.8c20,0,37.5-11.6,47-28.8H-560.5z"/>
		<polygon class="st4" points="-513.5,-280.3 -560.8,-172.1 -466.2,-172.1 		"/>
		<circle class="st2" cx="-513.5" cy="-280.9" r="6.5"/>
	</g>
	<g>
		<linearGradient id="SVGID_5_" gradientUnits="userSpaceOnUse" x1="-776.2993" y1="-157.6468" x2="-682.3651" y2="-157.6468">
			<stop  offset="0" style="stop-color:#FF3A2D"/>
			<stop  offset="1" style="stop-color:#D50000"/>
		</linearGradient>
		<path class="st8" d="M-776.3-172.1c9.5,17.3,27,28.8,47,28.8c20,0,37.5-11.6,47-28.8H-776.3z"/>
		<polygon class="st4" points="-729.3,-280.3 -776.6,-172.1 -682,-172.1 		"/>
		<linearGradient id="SVGID_6_" gradientUnits="userSpaceOnUse" x1="-735.8597" y1="-280.8529" x2="-722.8047" y2="-280.8529">
			<stop  offset="0" style="stop-color:#FF3A2D"/>
			<stop  offset="1" style="stop-color:#D50000"/>
		</linearGradient>
		<circle class="st9" cx="-729.3" cy="-280.9" r="6.5"/>
	</g>
	<g>
		<path class="st10" d="M-913.7-233.8c0,0-0.2-1.8-9.7-1.8c-4.9,0-10.3-1.8-10.9-6.7c-1.1-8.8,9.7-19.4,22.5-29.1
			c12.8-9.7-29.1-16.4-37.6-12.1c-8.5,4.2-27.9,36.4-28.5,44.3c-0.6,7.9,10.9,20,10.9,20l14.6-3L-913.7-233.8z"/>
		<path class="st10" d="M-1018.7-182.8c-0.7-1.8-0.8-18.3,1.2-17.6s13,0.3,13,0.3s-15-17.2-12.4-18.5c2.7-1.3,23.9-1.3,22.7-4.4
			c-1.2-3-22.4-8.8-19.8-10.1c2.6-1.3,9.7-14.2,9.7-14.2s-18.6-1.4-16.9-2.6s11.5-10.2,11.5-10.2l-13.4-12.9l13.3-6.1
			c0,0-7-15-5.2-15.2l26.7,2.2l6.7,99L-1018.7-182.8"/>
		<path class="st10" d="M-1018.7-182.8l-10.3-9.1l-8.6,16l-2.9-15.4l-14.2,3.1l-4-11l-6.7,6.7c0,0,20,20,26.7,25.5
			c6.7,5.5,27.3,3,27.3,3L-1018.7-182.8z"/>
		
			<linearGradient id="SVGID_7_" gradientUnits="userSpaceOnUse" x1="-926.0406" y1="763.8672" x2="-839.9602" y2="763.8672" gradientTransform="matrix(0.9906 -0.1366 -0.1366 -0.9906 55.1214 370.9419)">
			<stop  offset="0" style="stop-color:#E6E6E6"/>
			<stop  offset="1" style="stop-color:#FF9300"/>
		</linearGradient>
		<path class="st11" d="M-954.8-245.5l6.1,2.8l-1.1-8.2l7.5,3.8l-1-7.9c0,0,6.2,2.3,7.2,1.8s2.9-7.1,2.9-7.1l4.4,2.2l1.7-5.4l5,4.7
			l2.4-5.5l4.3,0.9l1-6.2l8.7,3.6l2.2-7.2l6.1,4.4l0.1-9.2c0,0,8.2,7.2,8,6c-0.1-1.2-0.9-8.7-0.9-8.7s8.5,5.5,8.2,4.8
			c-0.3-0.7-3-12.1-3-12.1l-8.9-0.2l-71.5,37.6L-954.8-245.5z"/>
		<path class="st12" d="M-954.3-157.5c0,0-6.7,16.7-7.3,20.4c-0.6,3.6,9.3,5.3,10.2,7.9c0.9,2.6-6.4,1.2-6.4,1.2s-2.5,2.4-4.8,1.8
			c-1.5-0.4-8.3-0.9-12.9-1.3c-2.3-0.2-4-2.3-3.7-4.6l2.8-20.3C-976.4-152.3-955.7-166.9-954.3-157.5z"/>
		<path class="st13" d="M-978.6-136.9c0,0,9.1-7.5,14.6-9.3s3.9,4.2,3.9,4.2l5.8-15.7c0,0-19.7,3.1-20.2,3.7s-3.1,5.1-3.1,5.1
			L-978.6-136.9z"/>
		<g>
			
				<linearGradient id="SVGID_8_" gradientUnits="userSpaceOnUse" x1="-1033.1417" y1="730.9001" x2="-839.694" y2="730.9001" gradientTransform="matrix(0.9906 -0.1366 -0.1366 -0.9906 55.1214 370.9419)">
				<stop  offset="0" style="stop-color:#FF3A2D"/>
				<stop  offset="1" style="stop-color:#D50000"/>
			</linearGradient>
			<path class="st14" d="M-955.3-194.8c1.7,5.6,5.9,17.6,6.8,26.4c0.9,8.8-6.6,16.7-14.7,19.3s-12.6,3.3-19.9,5.6
				c-4.1,3.9-8.9,7.3-12.7,11.7c5.1,0.9,11.6,2,15,6.2c-1.6,1.7-3.4,2.8-5.6,3.1c-3.5,0.5-5.6,0.8-9.4,1.3
				c-2.6,0.3-6.9-0.3-10.7-0.6c-2.8-0.2-4.9-2.6-5-5.4c-0.1-5.1,0.4-9.7-0.1-15.3c-25.1-1.8-37.8-29.4-53.9-50
				c10.2-0.6,23.3,17.4,33.4,17s31.8-29,35.4-39.2c3.6-10.2-8.8-26.3-13.5-40.4c-4.7-14.2-7.7-24.6,10-38.1s65.5-48,82.3-36.3
				c16.8,11.8,41.6,33.9,31.9,45.2c-9.6,11.3-72.3,27.4-74.2,47.4c-1.9,20,4.4,12.1,12.5,9.4c7.4-2.4,29.2-11.4,34-6.5
				c4.8,4.9-12.7,8.4-27.8,11.8c-14.3,3.2-19.3,10.1-20.9,10.3c-1.6,0.2,3.9,6.8,4.8,9.6C-956.5-199.6-957-200.3-955.3-194.8z"/>
		</g>
		<path class="st15" d="M-956.2-127.7c0,0-0.6-4.1,1-4c1.6,0.1,4.6,1.9,5.2,3.1C-949.5-127.4-956.2-127.7-956.2-127.7z"/>
		<path class="st15" d="M-963.5-126.3c0,0-0.6-3.5,1.8-3.5s5.5,1.2,6.1,3C-955-125-963.5-126.3-963.5-126.3z"/>
		<path class="st15" d="M-984.2-123.6c0,0-0.6-4.1,1-4c1.6,0.1,4.6,1.9,5.2,3.1C-977.4-123.3-984.2-123.6-984.2-123.6z"/>
		<path class="st15" d="M-991.4-122.2c0,0-0.6-3.5,1.8-3.5c2.4,0,5.5,1.2,6.1,3C-982.9-120.9-991.4-122.2-991.4-122.2z"/>
		<path class="st13" d="M-982.9-143.9c0,0-27.3,1.2-28.5,0.6s0.4,10.9,0.2,13.3c-0.2,2.4,4.7-3.6,13.8-6.6
			C-988.3-139.6-982.9-143.9-982.9-143.9z"/>
		<g>
			
				<linearGradient id="SVGID_9_" gradientUnits="userSpaceOnUse" x1="-907.5746" y1="417.5028" x2="-804.5103" y2="417.5028" gradientTransform="matrix(0.9932 -0.1162 -0.101 -0.8634 20.9874 5.8755)">
				<stop  offset="0.1522" style="stop-color:#FF3A2D"/>
				<stop  offset="0.1907" style="stop-color:#FF462A"/>
				<stop  offset="0.4015" style="stop-color:#FF811B"/>
				<stop  offset="0.5953" style="stop-color:#FFB00F"/>
				<stop  offset="0.7658" style="stop-color:#FFD207"/>
				<stop  offset="0.9065" style="stop-color:#FFE702"/>
				<stop  offset="1" style="stop-color:#FFEE00"/>
			</linearGradient>
			<path class="st16" d="M-922.8-250.8c0-0.1,0-0.2,0.1-0.2c1.9-0.9,27.6-13.6,37-15.2c11.3-1.9,21-0.7,26.6-5.5
				c3.9-3.3,4.4-6.3,4.4-7.6c0-0.2,0.3-0.3,0.4-0.1c1.2,1.9,4.1,7.3,1.8,10.5c-2.1,2.9-4.6,5.3-6.1,6.5c-0.2,0.2,0,0.4,0.2,0.3
				c3-1.4,10.5-4.8,14.8-5.6c7.5-1.4,18.1,1.6,22.8,4.2c0.6,0.3,0.4,1.2-0.3,1.3c-3.4,0.3-10.2,1.4-13.7,5.3
				c-4.8,5.3-21.6,27-40.1,23.6C-893.2-236.6-922.6-245.3-922.8-250.8z"/>
			
				<linearGradient id="SVGID_10_" gradientUnits="userSpaceOnUse" x1="-902.1409" y1="412.5314" x2="-836.1987" y2="412.5314" gradientTransform="matrix(0.9932 -0.1162 -0.101 -0.8634 20.9874 5.8755)">
				<stop  offset="0.1522" style="stop-color:#FF5A19"/>
				<stop  offset="1" style="stop-color:#FFEE00"/>
			</linearGradient>
			<path class="st17" d="M-917.2-249.6c0,0,30-12.5,42.3-8.4c12.3,4.1,13.7,10,20.7,8c11.3-3.3-8.6,10.3-20.6,8.6
				C-886.8-243.2-917.2-249.6-917.2-249.6z"/>
			
				<linearGradient id="SVGID_11_" gradientUnits="userSpaceOnUse" x1="-900.3472" y1="413.3069" x2="-849.8492" y2="413.3069" gradientTransform="matrix(0.9932 -0.1162 -0.101 -0.8634 20.9874 5.8755)">
				<stop  offset="0.1522" style="stop-color:#FFB02A"/>
				<stop  offset="0.9393" style="stop-color:#FFEE00"/>
			</linearGradient>
			<path class="st18" d="M-915.4-250c0,0,21.5-5.6,28.8-5.6c7.3-0.1,10.6,2.3,16.2,4.3c1.3,0.5,4.3,1,5.8,1.3c0.3,0,0.3,0.4,0.1,0.5
				c-2.1,1-8.4,3.9-14.4,4.9C-886.4-243.3-915.4-250-915.4-250z"/>
		</g>
		<g>
			<path class="st19" d="M-961.3-262.3c0,0-3.2-1.9-6.4-2.4s-8.1-0.6-8.1-0.6l1.7-0.9c0,0-0.7-0.2-1.5-1.1c-0.7-0.7-1.8-3.1-1.8-3.1
				s3.5,0.4,7.4,0.8c5.5,0.7,8.2,3.8,8.2,3.8h-1.1C-962.9-265.7-961.5-263.6-961.3-262.3z"/>
			<path class="st20" d="M-963.3-266.5c0,0-1.6-1.5-4.8-2.3c-3.2-0.8-7-0.9-7-0.9l2.7,1l-3.2-0.5c0,0,1.7,1,4.9,1.6s7.3,2.3,7.3,2.3
				l-0.8-1.4L-963.3-266.5z"/>
		</g>
		<path class="st10" d="M-962.2-203.5c0,0,0.8,0.3,5.4,0.6c4.6,0.3,6-7.3,9-8s1.1,5.9,1.6,6.6c0.4,0.7,1.5-4.1,1.5-4.1
			s0.1,4.3,0.8,3.9s1-5.4,1-5.4s1.2,8.3,2.1,2.5c1-5.8-3.4-7.7-6.1-8.6c-2.7-0.9-6.9,7.1-9.6,7.8c-2.6,0.6-6.7-2.8-6.7-2.8
			L-962.2-203.5z"/>
		<g>
			<circle cx="-967.6" cy="-257.2" r="4.2"/>
			<circle class="st0" cx="-967.3" cy="-258" r="1.5"/>
			<circle class="st0" cx="-968.9" cy="-255.5" r="0.7"/>
		</g>
		<path class="st10" d="M-987.3-197.8c0,0,0.8,0.1,5.3-1s3.5-8.8,6.1-10.3c2.6-1.5,2.8,5.3,3.5,5.9c0.6,0.6,0.2-4.4,0.2-4.4
			s1.4,4.1,1.9,3.5c0.6-0.6-0.7-5.5-0.7-5.5s3.6,7.5,2.8,1.7s-5.5-6.3-8.4-6.3c-2.9,0-4.5,8.9-6.8,10.3c-2.3,1.4-7.3-0.6-7.3-0.6
			L-987.3-197.8z"/>
		<g>
			<path class="st21" d="M-921-291.3c3.2,6.1,7.8,10.1,10.2,8.8c2.5-1.3,1.9-7.3-1.3-13.4s-7.8-10.1-10.2-8.8
				C-924.7-303.4-924.1-297.4-921-291.3z"/>
			<path class="st22" d="M-921.9-290.7c3.2,6.1,7.8,10.1,10.2,8.8c2.5-1.3,1.9-7.3-1.3-13.4c-3.2-6.1-7.8-10.1-10.2-8.8
				C-925.7-302.8-925.1-296.8-921.9-290.7z"/>
		</g>
		<g>
			<path class="st21" d="M-905.2-304.2c2.5,4.7,6,7.8,7.9,6.8c1.9-1,1.5-5.7-1-10.4c-2.5-4.7-6-7.8-7.9-6.8
				C-908.1-313.6-907.7-309-905.2-304.2z"/>
			<path class="st22" d="M-906-303.7c2.5,4.7,6,7.8,7.9,6.8c1.9-1,1.5-5.7-1-10.4c-2.5-4.7-6-7.8-7.9-6.8
				C-908.9-313.1-908.4-308.5-906-303.7z"/>
		</g>
		<g>
			<path class="st23" d="M-919.5-310.4c0,0-4.8-2.5-8.6-0.4c-7.2,4-2.9,14.8-2.9,14.8s-2.3-6.3,4.9-12.2
				C-922.4-311-919.5-310.4-919.5-310.4z"/>
			<path class="st24" d="M-919.5-310.4c0,0-5.4,0.7-9.3,5.9c-3.9,5.2-1.2,11-1.2,11s-3.4-6,0.1-11.4
				C-926.4-310.4-919.5-310.4-919.5-310.4z"/>
			<path class="st25" d="M-921.4-308.8c0,0-5.8,3.5-6.8,8.9s1.9,9.4,1.9,9.4s-4-3.6-3.5-9.5C-929.2-306.1-921.4-308.8-921.4-308.8z"
				/>
		</g>
		<g>
			<path class="st23" d="M-906-317.9c0,0-2.8-1.5-5.1-0.2c-4.3,2.4-1.7,8.8-1.7,8.8s-1.3-3.7,2.9-7.2
				C-907.7-318.3-906-317.9-906-317.9z"/>
			<path class="st24" d="M-906-317.9c0,0-3.2,0.4-5.5,3.5c-2.3,3.1-0.7,6.5-0.7,6.5s-2-3.6,0.1-6.8
				C-910.1-317.9-906-317.9-906-317.9z"/>
			<path class="st25" d="M-907.2-316.9c0,0-3.4,2-4,5.2c-0.6,3.2,1.2,5.6,1.2,5.6s-2.4-2.2-2.1-5.6
				C-911.7-315.3-907.2-316.9-907.2-316.9z"/>
		</g>
		<path class="st10" d="M-999.9-293.3c0,0,11.5-10.3,32.2-19.4c19.7-8.7,29.7-9.1,29.7-9.1s-4.9-12.7,6.7-17.6
			c11.6-4.9-11.5-12.1-22.5,0c-6.9,7.7-10.3-6.7-10.3-6.7l-9.1,21.9l-12.1-3.6l-3.6,18.8l-13.4,1.2L-999.9-293.3z"/>
	</g>
	<g>
		<g>
			<path class="st26" d="M-307.6-193.2c0,0-21.9-3.7-22.9,0.4c-0.7,2.9,23.4,2.8,23.4,2.8L-307.6-193.2z"/>
			<path class="st26" d="M-327.6-196.6c0,0-5.9-7.3-6.6-5.1s2.1,5.7,2.1,5.7s-8.1-3.6-9.1-2.4s7.9,4.1,7.4,4.2s-8.8-0.6-8.5,0.6
				c0.2,1.2,8.1,1.3,8.2,1.8s-7.7,1.2-7.2,2.1c0.4,0.9,7.4,0.1,8.2,0.2c0.8,0.1-4.9,2.4-4.5,3.4c0.4,0.9,5.4-1.3,6.3-1.9
				c0.9-0.7,5-0.4,6.5-1.7s0.9-4.5,0-5.3C-325.7-195.9-327.6-196.6-327.6-196.6z"/>
		</g>
		<path class="st27" d="M-348.2-247.6c4.9,0,12.8,0.5,16.6-1.6c7.7-4.4-14.5-13.5-27.3-23.3s29.1-16.4,37.6-12.1
			s37.7,28.6,38.3,36.5c0.6,7.9-20.7,27.9-20.7,27.9l-14.6-3C-318.2-223.3-357.7-247.6-348.2-247.6z"/>
		
			<linearGradient id="SVGID_12_" gradientUnits="userSpaceOnUse" x1="-357.2177" y1="569.8266" x2="-309" y2="521.6089" gradientTransform="matrix(1 0 0 -1 0 278.8296)">
			<stop  offset="0" style="stop-color:#FFC76D"/>
			<stop  offset="1" style="stop-color:#E8E3E0"/>
		</linearGradient>
		<path class="st28" d="M-369.2-279c0,0-1.5,4.1,0.6,4.6s4.3-1.1,4.3-1.1s-1.1,8.6,1.6,7.5s4.8-2.6,4.8-2.6s-1,5.9,1.6,6.4
			c2.7,0.5,5.4-2.8,5.4-2.8s0,7.1,2.6,7.1s5.7-3.2,5.7-3.2s-2.5,5.3,1.8,5.9c4.3,0.5,5.4-1.6,5.4-1.6s0.5,4.4,3.2,4.8
			c3.7,0.5,5.1-1.9,5.1-1.9s3,4,4,3.5c1.1-0.5,5.9-2.7,5.9-2.7s-0.5,3.7,2.1,3.7s7-3.7,7-3.7s0,3.7,2.1,3.2s3.7-3.7,3.7-3.7
			s1.1,2.7,3.2,2.1c2.1-0.5,4.3-4.3,4.3-4.3L-369.2-279z"/>
		
			<linearGradient id="SVGID_13_" gradientUnits="userSpaceOnUse" x1="-391.7592" y1="388.3951" x2="-332.4745" y2="382.2198" gradientTransform="matrix(0.9996 2.982325e-02 2.982325e-02 -0.9996 29.3818 158.1661)">
			<stop  offset="0" style="stop-color:#FFC76D"/>
			<stop  offset="1" style="stop-color:#E8E3E0"/>
		</linearGradient>
		<path class="st29" d="M-291.5-234.8c0,0-3.2-7.5-6.4-5.4c-2.9,1.9-1.6,4.3-1.6,4.3s-1.6-3.7-3.7-2.1c-2.1,1.6-2.1,4.3-2.1,4.3
			s-1-5.3-3.7-3.2s-2.8,5.1-2.8,5.1s0.2-5.6-2.5-4.6s-2.2,2.8-2.2,2.8s-0.4-4.4-3.1-3.4s-3.3,2.1-3.3,2.1s-0.9-5.2-3.1-3.2
			c-2.2,2.1-2.7,2.5-2.7,2.5s0.6-5.1-2.1-4.6s-3.7,1.7-3.7,1.7s1.6-3.8-1.6-3.9c-3.2-0.1-3,1.9-3,1.9s0.4-6.1-2.3-4.1
			c-2.7,2.1-3,2.3-3,2.3s4.3-8.3,0.9-8.2s-3.8,5.4-3.8,5.4s1.6-7.5-0.5-7s-1.2,5.4-1.2,5.4s10.9,10.6,11.9,11.2
			c1,0.6,41.4,12,41.4,12L-291.5-234.8z"/>
		<g>
			<path class="st30" d="M-310.2-154.7c0,0,6.7,16.7,7.4,20.4c0.6,3.6-9.3,5.4-10.2,8c-0.9,2.6,6.4,1.1,6.4,1.1s2.5,2.4,4.8,1.8
				c1.5-0.4,8.3-1,12.9-1.3c2.3-0.2,4-2.3,3.7-4.6l-2.8-20.2C-288.1-149.6-308.9-164.1-310.2-154.7z"/>
			<path class="st31" d="M-285.9-134.2c0,0-9.1-7.5-14.6-9.3s-3.9,4.2-3.9,4.2l-5.8-15.7c0,0,19.7,3,20.2,3.6s3.1,5.1,3.1,5.1
				L-285.9-134.2z"/>
			<path class="st15" d="M-308.2-124.9c0,0,0.6-4.1-1-4s-4.6,1.9-5.2,3.1C-315-124.6-308.2-124.9-308.2-124.9z"/>
			<path class="st15" d="M-301-123.6c0,0,0.6-3.5-1.9-3.5c-2.4,0-5.5,1.2-6.1,3S-301-123.6-301-123.6z"/>
		</g>
		<path class="st32" d="M-258.8-176.4c0,0,9.1-22.2,6.4-23.6c-2.7-1.3-10.9-7.2-9.6-10.2c1.2-3,23.5-11.5,20.9-12.8
			c-2.7-1.3-9.6-16.6-9.6-16.6s23.3-5.9,21.6-7.1s-11.5-10.2-11.5-10.2l13.4-12.9l-13.3-6.1c0,0-4.4-13,0.9-16.8
			c5.4-3.7-24.6,1.1-24.6,1.1l-28.4,98"/>
		<path class="st32" d="M-261-178.6l17.1-13.3l8.6,12.3l2.9-11.6l13.7,2l4.6-9.9l6.7,6.7c0,0-20,20-26.7,25.5s-27.3,3-27.3,3
			L-261-178.6z"/>
		
			<linearGradient id="SVGID_14_" gradientUnits="userSpaceOnUse" x1="-370.6721" y1="504.0825" x2="-207.472" y2="504.0825" gradientTransform="matrix(1 0 0 -1 0 278.8296)">
			<stop  offset="0" style="stop-color:#6BC62A"/>
			<stop  offset="1" style="stop-color:#00B53E"/>
		</linearGradient>
		<path class="st33" d="M-240.8-175.5c-31.9-3.1-29.2-27.7-20.1-43.2c0.1-0.1,0.1-0.2,0-0.3c12.8-13.2,26.4-39.3,23.1-48.9
			c-4.3-12.3-76.6-66.1-99.6-61.3c-23,4.8-33.3,48.5-33.3,48.5c4,15.2,49,32.2,68.8,26.5c7.7-2.3,13.5-3.7,16.9,2.9
			c1.8,3.5,0,8.1-18.2,15c-15.5,5.9-39.4-4.5-43.4-10.7c-3.4-5.4-12.9,2.5-3.8,10.1c6,5,20.4,13.9,43.8,20.4
			c-2.2,3.3-5.1,8.3-5.8,10.2c-1,2.8-4.1,8.9-5.9,14.5c-1.7,5.6-5.5,12.6-6.4,21.4c-0.9,8.8,6.9,18.9,14.9,21.5s12.6,3.3,19.9,5.6
			c4.1,3.9,8.9,7.3,12.7,11.7c-5.1,0.9-11.6,2-15,6.2c1.6,1.7,3.4,2.8,5.6,3.1c3.5,0.5,5.6,0.8,9.4,1.3c2.6,0.3,6.9-0.3,10.7-0.6
			c2.8-0.2,4.9-2.6,5-5.4c0.1-5.1-0.4-9.7,0.1-15.3c25.1-1.8,37.8-29.4,53.9-50C-217.6-193.1-230.8-174.5-240.8-175.5z"/>
		<g>
			<path class="st2" d="M-340.2-206.6c0,0-13.3-8.3-4.1-22.6C-344.2-229.3-332.7-222.4-340.2-206.6z"/>
			<path class="st2" d="M-342.2-204.6c0,0-5.8,14.9-21.5,8.3C-363.8-196.3-359.1-209.3-342.2-204.6z"/>
			<path class="st2" d="M-348.8-210.3c0,0-15.6,3.7-19.1-13C-367.9-223.3-354.6-226.8-348.8-210.3z"/>
			<g>
				<path class="st2" d="M-350.9-211c0-0.1,7.6,1.7,10.7,4.4s6.3,6.1,7.8,8.5s2.1,5,2.2,6.8s-0.2,3-0.3,2.9c-0.1,0-0.1-1.1-0.4-2.9
					c-0.3-1.7-3.9-4.5-5.3-6.7C-337.5-200.3-350.9-210.9-350.9-211z"/>
			</g>
		</g>
		<path class="st15" d="M-288.7-123.6c0,0,0.6-4.1-1-4s-4.6,1.9-5.2,3.1C-295.4-123.3-288.7-123.6-288.7-123.6z"/>
		<path class="st15" d="M-281.5-122.2c0,0,0.6-3.5-1.8-3.5s-5.5,1.2-6.1,3S-281.5-122.2-281.5-122.2z"/>
		<path class="st31" d="M-289.9-143.2c0,0,28.4-0.8,28.4,0.5c0,1.1-0.2,10.9,0,13.4s-4.8-4.2-13.9-7.3S-289.9-143.2-289.9-143.2z"/>
		<g>
			<g>
				<path class="st34" d="M-336.9-284.9c-3.2,6.1-7.8,10.1-10.2,8.8c-2.5-1.3-1.9-7.3,1.3-13.4c3.2-6.1,7.8-10.1,10.2-8.8
					C-333.2-297-333.7-291-336.9-284.9z"/>
				<path class="st27" d="M-336-284.2c-3.2,6.1-7.8,10.1-10.2,8.8c-2.5-1.3-1.9-7.3,1.3-13.4c3.2-6.1,7.8-10.1,10.2-8.8
					C-332.2-296.4-332.8-290.4-336-284.2z"/>
			</g>
			<g>
				<path class="st34" d="M-352.7-297.8c-2.5,4.7-6,7.8-7.9,6.8s-1.5-5.7,1-10.4c2.5-4.7,6-7.8,7.9-6.8
					C-349.7-307.2-350.2-302.5-352.7-297.8z"/>
				<path class="st27" d="M-351.9-297.3c-2.5,4.7-6,7.8-7.9,6.8s-1.5-5.7,1-10.4c2.5-4.7,6-7.8,7.9-6.8S-349.4-302.1-351.9-297.3z"
					/>
			</g>
			<g>
				<path class="st35" d="M-338.4-304c0,0,4.8-2.5,8.6-0.4c7.2,4,2.9,14.8,2.9,14.8s2.3-6.3-4.9-12.2
					C-335.4-304.6-338.4-304-338.4-304z"/>
				<path class="st32" d="M-338.4-304c0,0,5.4,0.7,9.3,5.9c3.9,5.2,1.2,11,1.2,11s3.4-6-0.1-11.4C-331.4-304-338.4-304-338.4-304z"
					/>
				<path class="st25" d="M-336.4-302.3c0,0,5.8,3.5,6.8,8.9s-1.9,9.4-1.9,9.4s4-3.6,3.5-9.5C-328.7-299.7-336.4-302.3-336.4-302.3z
					"/>
			</g>
			<g>
				<path class="st35" d="M-351.9-311.5c0,0,2.8-1.5,5.1-0.2c4.3,2.4,1.7,8.8,1.7,8.8s1.3-3.7-2.9-7.2
					C-350.1-311.9-351.9-311.5-351.9-311.5z"/>
				<path class="st32" d="M-351.9-311.5c0,0,3.2,0.4,5.5,3.5s0.7,6.5,0.7,6.5s2-3.6-0.1-6.8C-347.8-311.5-351.9-311.5-351.9-311.5z"
					/>
				<path class="st25" d="M-350.7-310.5c0,0,3.4,2,4,5.2c0.6,3.2-1.2,5.6-1.2,5.6s2.4-2.2,2.1-5.6
					C-346.1-308.9-350.7-310.5-350.7-310.5z"/>
			</g>
		</g>
		<g>
			<g>
				<path class="st32" d="M-270.9-271.3c0,0,2.2,2.9,3,6.1c0.8,3.2,1.4,8,1.4,8l0.7-1.8c0,0,0.3,0.6,1.2,1.4
					c0.8,0.6,3.2,1.4,3.2,1.4s-0.7-3.4-1.6-7.3c-1.2-5.4-4.6-7.8-4.6-7.8l0.1,1.1C-267.4-270.1-269.6-271.2-270.9-271.3z"/>
				<path class="st30" d="M-266.5-269.8c0,0,1.7,1.5,2.8,4.6c1.1,3.1,1.6,6.9,1.6,6.9l-1.3-2.5l0.8,3.1c0,0-1.2-1.6-2.1-4.7
					c-0.9-3.2-3-7-3-7l1.5,0.7L-266.5-269.8z"/>
			</g>
			<path class="st36" d="M-276.7-264.3c0,0,7.6-0.9,5.3,6"/>
		</g>
		<g>
			<path class="st37" d="M-308-196.9c-4.2-0.3-22.5,2.5-22.2,6.7c0.2,2.9,23.2-4.4,23.2-4.4S-303.8-196.6-308-196.9z"/>
			<path class="st37" d="M-328.6-194.7c0,0-7.9-5.2-7.8-2.9c0.1,2.2,3.7,4.8,3.7,4.8s-8.8-1-9.4,0.5s8.8,1.6,8.3,1.8
				c-0.4,0.2-8.6,2-8,3.1s8.1-1.2,8.4-0.8c0.2,0.4-7,3.4-6.3,4.2s7.1-2.1,7.9-2.2c0.8-0.1-4,3.7-3.2,4.6c0.7,0.8,4.7-2.8,5.4-3.7
				s4.6-1.9,5.7-3.6c1.1-1.7-0.5-4.6-1.6-5.1S-328.6-194.7-328.6-194.7z"/>
		</g>
		<path class="st32" d="M-259.9-289.9c0,0-12.3-10.5-33-19.6c-19.7-8.7-33.4-12-33.4-12s0.1-19.7,18.7-24.1c9.1-2.1,24.5,3.8,22,4.8
			c-10.7,4.3-11.4,22.4-2.1,15c8-6.4,20.9,1.1,20.9,1.1s-13.1,8.2-8.6,9.1c5.4,1.1,18.6-2.5,15,1.6c-4.3,4.8-9.6,8.6-9.6,8.6
			s24.1-4.8,19.8,1.1C-254.5-298.4-259.9-289.9-259.9-289.9z"/>
	</g>
	<g>
		<g>
			<circle class="st5" cx="12.8" cy="-398.6" r="3.8"/>
		</g>
		<g>
			<path class="st5" d="M20.1-418.9c-3.4-4.1-5.8-11.8-6.9-15.2c-0.1-0.5-0.8-0.5-1,0c-0.8,3-2.9,9.3-6.9,14.7
				c-3.7,5,0.4,12.3,7.3,12.3c0,0,0,0,0.1,0c0,0,0,0,0.1,0C19.6-407.2,24-414.1,20.1-418.9z M13.5-410.2c-3.4,0.6-6.2-2.3-5.7-5.7
				c0.3-2,2-3.7,4-4c3.4-0.6,6.2,2.3,5.7,5.7C17.2-412.1,15.6-410.5,13.5-410.2z"/>
		</g>
		<path class="st5" d="M12.8-409.9c-0.8,0-1.5,0.7-1.5,1.5v19.3h3v-19.3C14.3-409.2,13.6-409.9,12.8-409.9z"/>
	</g>
	<g>
		<path class="st5" d="M266.2-419.3H48.6c-0.8,0-1.5-0.7-1.5-1.5s0.7-1.5,1.5-1.5h217.6c0.8,0,1.5,0.7,1.5,1.5
			S267-419.3,266.2-419.3z"/>
	</g>
	<g>
		
			<linearGradient id="SVGID_15_" gradientUnits="userSpaceOnUse" x1="-773.8722" y1="-477.1699" x2="-701.3803" y2="-477.1699" gradientTransform="matrix(-3.274567e-02 -0.9994 -0.8688 2.845226e-02 -392.1982 -972.2186)">
			<stop  offset="0.1522" style="stop-color:#FF3A2D"/>
			<stop  offset="0.1907" style="stop-color:#FF462A"/>
			<stop  offset="0.4015" style="stop-color:#FF811B"/>
			<stop  offset="0.5953" style="stop-color:#FFB00F"/>
			<stop  offset="0.7658" style="stop-color:#FFD207"/>
			<stop  offset="0.9065" style="stop-color:#FFE702"/>
			<stop  offset="1" style="stop-color:#FFEE00"/>
		</linearGradient>
		<path class="st38" d="M44.9-212.3c-0.1,0-0.1,0-0.1-0.1c-0.6-1.4-13.5-16.4-13.1-27.9c0.4-12.1,2.8-27.1,3-29
			c0.3-3.5,4.5,11,5.3,12.1c0.1,0.1,0.3,0,0.3-0.1c-0.9-2.2-1.2-8.2-0.3-12.4c1-4.2,6.1-11.9,8.3-15c0.3-0.4,0.9-0.2,0.9,0.3
			c0,2.3,1,9.8,3.7,12.5c3.7,3.6,11.5,15.2,7.9,27.8C57.2-231.8,49-212,44.9-212.3z"/>
		
			<linearGradient id="SVGID_16_" gradientUnits="userSpaceOnUse" x1="-770.1196" y1="-479.002" x2="-721.6702" y2="-479.002" gradientTransform="matrix(-3.274567e-02 -0.9994 -0.8688 2.845226e-02 -392.1982 -972.2186)">
			<stop  offset="0.1522" style="stop-color:#FF5A19"/>
			<stop  offset="1" style="stop-color:#FFEE00"/>
		</linearGradient>
		<path class="st39" d="M46.1-216.1c0,0-7.6-21.5-3.8-29.7c3.8-8.2,5.4-12.2,4.3-17.1c-1.8-8,10.8,14.4,8.9,22.6
			C53.3-232.1,46.1-216.1,46.1-216.1z"/>
		
			<linearGradient id="SVGID_17_" gradientUnits="userSpaceOnUse" x1="-768.8762" y1="-478.1779" x2="-733.9405" y2="-478.1779" gradientTransform="matrix(-3.274567e-02 -0.9994 -0.8688 2.845226e-02 -392.1982 -972.2186)">
			<stop  offset="0.1522" style="stop-color:#FFB02A"/>
			<stop  offset="0.9393" style="stop-color:#FFEE00"/>
		</linearGradient>
		<path class="st40" d="M45.9-217.3c0,0-2.9-15.1-2.5-20.2c0.3-5,2.3-7.2,4.1-10.9c0.4-0.9,1-2.9,1.3-3.9c0.1-0.2,0.3-0.2,0.4,0
			c0.7,1.5,2.5,6,2.8,10.2C52.6-236.9,45.9-217.3,45.9-217.3z"/>
	</g>
	<g>
		<linearGradient id="SVGID_18_" gradientUnits="userSpaceOnUse" x1="0" y1="-212.5987" x2="93.9341" y2="-212.5987">
			<stop  offset="0" style="stop-color:#FF3A2D"/>
			<stop  offset="1" style="stop-color:#D50000"/>
		</linearGradient>
		<path class="st41" d="M0-227c9.5,17.3,27,28.8,47,28.8s37.5-11.6,47-28.8H0z"/>
		<polygon class="st4" points="47,-335.3 -0.4,-227 94.3,-227 		"/>
		<linearGradient id="SVGID_19_" gradientUnits="userSpaceOnUse" x1="40.4396" y1="-335.8047" x2="53.4945" y2="-335.8047">
			<stop  offset="0" style="stop-color:#FF3A2D"/>
			<stop  offset="1" style="stop-color:#D50000"/>
		</linearGradient>
		<circle class="st42" cx="47" cy="-335.8" r="6.5"/>
	</g>
	<g>
		<path class="st2" d="M163.9-244.7c0,0-4-20.3,18.1-24.4C182-269.2,185.9-251.9,163.9-244.7z"/>
		<path class="st2" d="M160.7-244.5c0,0-20.3,7.5-28.1-13.7C132.6-258.2,150-265,160.7-244.5z"/>
		<path class="st2" d="M159.5-256.4c0,0-17.7-11.7-4.8-30.1C154.8-286.6,170.2-276.9,159.5-256.4z"/>
		<g>
			<path class="st2" d="M158.4-259.1c0,0,0.4-2.1,1.3-0.4c1.6,3.1,4.1,11.2,4.2,14.7c0.2,5.4-0.1,11.6-1.1,15.2
				c-1,3.6-2.8,6.5-4.5,8.3c-1.6,1.8-3,2.5-3.1,2.4c-0.1-0.1,1-1.1,2.4-2.9c1.4-1.8-0.5,1.2,1.7-11.2
				C161.2-243.5,158.3-259,158.4-259.1z"/>
		</g>
	</g>
	<g>
		<path class="st7" d="M113.3-227c9.5,17.3,27,28.8,47,28.8s37.5-11.6,47-28.8H113.3z"/>
		<polygon class="st4" points="160.3,-335.3 113,-227 207.6,-227 		"/>
		<circle class="st2" cx="160.3" cy="-335.8" r="6.5"/>
	</g>
	<g>
		<circle class="st0" cx="53.5" cy="-393.7" r="12"/>
		<path class="st5" d="M53.5-380.2c-7.4,0-13.5-6-13.5-13.5s6-13.5,13.5-13.5s13.5,6,13.5,13.5S60.9-380.2,53.5-380.2z M53.5-404.2
			c-5.8,0-10.5,4.7-10.5,10.5s4.7,10.5,10.5,10.5S64-387.9,64-393.7S59.3-404.2,53.5-404.2z"/>
	</g>
	<g>
		<polygon class="st4" points="46.6,-165.5 -0.7,-57.2 94,-57.2 		"/>
		<linearGradient id="SVGID_20_" gradientUnits="userSpaceOnUse" x1="40.1084" y1="-166.0276" x2="53.1633" y2="-166.0276">
			<stop  offset="0" style="stop-color:#FF3A2D"/>
			<stop  offset="1" style="stop-color:#D50000"/>
		</linearGradient>
		<circle class="st43" cx="46.6" cy="-166" r="6.5"/>
	</g>
	<g>
		<polygon class="st4" points="160.3,-165.5 113,-57.2 207.6,-57.2 		"/>
		<circle class="st2" cx="160.3" cy="-166" r="6.5"/>
	</g>
	<linearGradient id="SVGID_21_" gradientUnits="userSpaceOnUse" x1="-0.3312" y1="-30.764" x2="93.6029" y2="-30.764">
		<stop  offset="0" style="stop-color:#FF3A2D"/>
		<stop  offset="1" style="stop-color:#D50000"/>
	</linearGradient>
	<path class="st44" d="M-0.3-45.2c9.5,17.3,27,28.8,47,28.8s37.5-11.6,47-28.8H-0.3z"/>
	<path class="st7" d="M114.3-44.2c9.5,17.3,27,28.8,47,28.8s37.5-11.6,47-28.8H114.3z"/>
	<g>
		<defs>
			<rect id="SVGID_22_" x="-744.7" y="-230" width="30.1" height="56.3"/>
		</defs>
		<clipPath id="SVGID_23_">
			<use xlink:href="#SVGID_22_"  style="overflow:visible;"/>
		</clipPath>
		<g class="st45">
			
				<linearGradient id="SVGID_24_" gradientUnits="userSpaceOnUse" x1="-803.3867" y1="417.4507" x2="-730.8947" y2="417.4507" gradientTransform="matrix(-3.274567e-02 -0.9994 -0.8688 2.845226e-02 -392.1982 -972.2186)">
				<stop  offset="0.1522" style="stop-color:#FF3A2D"/>
				<stop  offset="0.1907" style="stop-color:#FF462A"/>
				<stop  offset="0.4015" style="stop-color:#FF811B"/>
				<stop  offset="0.5953" style="stop-color:#FFB00F"/>
				<stop  offset="0.7658" style="stop-color:#FFD207"/>
				<stop  offset="0.9065" style="stop-color:#FFE702"/>
				<stop  offset="1" style="stop-color:#FFEE00"/>
			</linearGradient>
			<path class="st46" d="M-731.4-157.3c-0.1,0-0.1,0-0.1-0.1c-0.6-1.4-13.5-16.4-13.1-27.9c0.4-12.1,2.8-27.1,3-29
				c0.3-3.5,4.5,11,5.3,12.1c0.1,0.1,0.3,0,0.3-0.1c-0.9-2.2-1.2-8.2-0.3-12.4c1-4.2,6.1-11.9,8.3-15c0.3-0.4,0.9-0.2,0.9,0.3
				c0,2.3,1,9.8,3.7,12.5c3.7,3.6,11.5,15.2,7.9,27.8C-719.1-176.8-727.3-157.1-731.4-157.3z"/>
			
				<linearGradient id="SVGID_25_" gradientUnits="userSpaceOnUse" x1="-799.634" y1="415.6187" x2="-751.1847" y2="415.6187" gradientTransform="matrix(-3.274567e-02 -0.9994 -0.8688 2.845226e-02 -392.1982 -972.2186)">
				<stop  offset="0.1522" style="stop-color:#FF5A19"/>
				<stop  offset="1" style="stop-color:#FFEE00"/>
			</linearGradient>
			<path class="st47" d="M-730.2-161.1c0,0-7.6-21.5-3.8-29.7s5.4-12.2,4.3-17.1c-1.8-8,10.8,14.4,8.9,22.6
				C-723-177.2-730.2-161.1-730.2-161.1z"/>
			
				<linearGradient id="SVGID_26_" gradientUnits="userSpaceOnUse" x1="-798.3907" y1="416.4427" x2="-763.4549" y2="416.4427" gradientTransform="matrix(-3.274567e-02 -0.9994 -0.8688 2.845226e-02 -392.1982 -972.2186)">
				<stop  offset="0.1522" style="stop-color:#FFB02A"/>
				<stop  offset="0.9393" style="stop-color:#FFEE00"/>
			</linearGradient>
			<path class="st48" d="M-730.4-162.3c0,0-2.9-15.1-2.5-20.2c0.3-5,2.3-7.2,4.1-10.9c0.4-0.9,1-2.9,1.3-3.9c0.1-0.2,0.3-0.2,0.4,0
				c0.7,1.5,2.5,6,2.8,10.2C-723.7-181.9-730.4-162.3-730.4-162.3z"/>
		</g>
	</g>
	<g>
		<defs>
			<rect id="SVGID_27_" width="30.1" height="56.3"/>
		</defs>
		<clipPath id="SVGID_28_">
			<use xlink:href="#SVGID_27_"  style="overflow:visible;"/>
		</clipPath>
		<g class="st49">
			
				<linearGradient id="SVGID_29_" gradientUnits="userSpaceOnUse" x1="-1057.6091" y1="-430.0968" x2="-985.1172" y2="-430.0968" gradientTransform="matrix(-3.274567e-02 -0.9994 -0.8688 2.845226e-02 -392.1982 -972.2186)">
				<stop  offset="0.1522" style="stop-color:#FF3A2D"/>
				<stop  offset="0.1907" style="stop-color:#FF462A"/>
				<stop  offset="0.4015" style="stop-color:#FF811B"/>
				<stop  offset="0.5953" style="stop-color:#FFB00F"/>
				<stop  offset="0.7658" style="stop-color:#FFD207"/>
				<stop  offset="0.9065" style="stop-color:#FFE702"/>
				<stop  offset="1" style="stop-color:#FFEE00"/>
			</linearGradient>
			<path class="st50" d="M13.2,72.6c-0.1,0-0.1,0-0.1-0.1C12.5,71.2-0.4,56.1,0,44.6c0.4-12.1,2.8-27.1,3-29
				c0.3-3.5,4.5,11,5.3,12.1c0.1,0.1,0.3,0,0.3-0.1c-0.9-2.2-1.2-8.2-0.3-12.4s6.1-11.9,8.3-15c0.3-0.4,0.9-0.2,0.9,0.3
				c0,2.3,1,9.8,3.7,12.5c3.7,3.6,11.5,15.2,7.9,27.8C25.5,53.2,17.4,72.9,13.2,72.6z"/>
			
				<linearGradient id="SVGID_30_" gradientUnits="userSpaceOnUse" x1="-1053.8566" y1="-431.9289" x2="-1005.4072" y2="-431.9289" gradientTransform="matrix(-3.274567e-02 -0.9994 -0.8688 2.845226e-02 -392.1982 -972.2186)">
				<stop  offset="0.1522" style="stop-color:#FF5A19"/>
				<stop  offset="1" style="stop-color:#FFEE00"/>
			</linearGradient>
			<path class="st51" d="M14.4,68.9c0,0-7.6-21.5-3.8-29.7S16,27,14.9,22.1c-1.8-8,10.8,14.4,8.9,22.6
				C21.7,52.8,14.4,68.9,14.4,68.9z"/>
			
				<linearGradient id="SVGID_31_" gradientUnits="userSpaceOnUse" x1="-1052.6132" y1="-431.1049" x2="-1017.6774" y2="-431.1049" gradientTransform="matrix(-3.274567e-02 -0.9994 -0.8688 2.845226e-02 -392.1982 -972.2186)">
				<stop  offset="0.1522" style="stop-color:#FFB02A"/>
				<stop  offset="0.9393" style="stop-color:#FFEE00"/>
			</linearGradient>
			<path class="st52" d="M14.3,67.6c0,0-2.9-15.1-2.5-20.2c0.3-5,2.3-7.2,4.1-10.9c0.4-0.9,1-2.9,1.3-3.9c0.1-0.2,0.3-0.2,0.4,0
				c0.7,1.5,2.5,6,2.8,10.2C21,48,14.3,67.6,14.3,67.6z"/>
		</g>
	</g>
</g>
</svg>
