<?xml version="1.0" encoding="utf-8"?>
<!-- Generator: Adobe Illustrator 23.0.1, SVG Export Plug-In . SVG Version: 6.00 Build 0)  -->
<svg version="1.1" xmlns="http://www.w3.org/2000/svg" xmlns:xlink="http://www.w3.org/1999/xlink" x="0px" y="0px" width="97.6px"
	 height="116.8px" viewBox="0 0 97.6 116.8" style="enable-background:new 0 0 97.6 116.8;" xml:space="preserve">
<style type="text/css">
	.st0{fill:#FFFFFF;}
	.st1{clip-path:url(#SVGID_2_);}
	.st2{fill:#6BC62A;}
	.st3{clip-path:url(#SVGID_4_);}
	.st4{fill:none;stroke:#7A6356;stroke-width:3;stroke-linecap:round;stroke-linejoin:round;stroke-miterlimit:10;}
	.st5{fill:#7A6356;}
	.st6{fill:#FFFFFF;stroke:#7A6356;stroke-width:3;stroke-linecap:round;stroke-linejoin:round;stroke-miterlimit:10;}
	.st7{fill:#009380;}
	.st8{fill:url(#SVGID_5_);}
	.st9{fill:url(#SVGID_6_);}
	.st10{fill:#A60C17;}
	.st11{fill:url(#SVGID_7_);}
	.st12{fill:#E02229;}
	.st13{opacity:0.88;fill:#D50000;enable-background:new    ;}
	.st14{fill:url(#SVGID_8_);}
	.st15{fill:#491B02;}
	.st16{fill:url(#SVGID_9_);}
	.st17{fill:url(#SVGID_10_);}
	.st18{fill:url(#SVGID_11_);}
	.st19{fill:#680200;}
	.st20{fill:#A30B05;}
	.st21{fill:#FF5B56;}
	.st22{fill:#A40000;}
	.st23{opacity:0.5;fill:#D50000;enable-background:new    ;}
	.st24{fill:#6A1100;}
	.st25{opacity:0.43;fill:#FFFFFF;enable-background:new    ;}
	.st26{fill:#006325;}
	.st27{fill:#004B25;}
	.st28{fill:url(#SVGID_12_);}
	.st29{fill:url(#SVGID_13_);}
	.st30{fill:#00923D;}
	.st31{opacity:0.4;fill:#006830;enable-background:new    ;}
	.st32{fill:#006830;}
	.st33{fill:url(#SVGID_14_);}
	.st34{fill:#D6E000;}
	.st35{opacity:0.5;fill:#00923D;enable-background:new    ;}
	.st36{fill:none;stroke:#000000;stroke-width:2;stroke-linecap:round;stroke-linejoin:round;stroke-miterlimit:10;}
	.st37{fill:#00962B;}
	.st38{fill:url(#SVGID_15_);}
	.st39{fill:url(#SVGID_16_);}
	.st40{fill:url(#SVGID_17_);}
	.st41{fill:url(#SVGID_18_);}
	.st42{fill:url(#SVGID_19_);}
	.st43{fill:url(#SVGID_20_);}
	.st44{fill:url(#SVGID_21_);}
	.st45{clip-path:url(#SVGID_23_);}
	.st46{fill:url(#SVGID_24_);}
	.st47{fill:url(#SVGID_25_);}
	.st48{fill:url(#SVGID_26_);}
	.st49{clip-path:url(#SVGID_28_);}
	.st50{fill:url(#SVGID_29_);}
	.st51{fill:url(#SVGID_30_);}
	.st52{fill:url(#SVGID_31_);}
</style>
<g id="Layer_2">
	<rect x="-1314.3" y="-268.3" class="st0" width="1146.2" height="404.9"/>
</g>
<g id="green">
	<g>
		<defs>
			<rect id="SVGID_1_" x="-652.7" y="-59.1" width="49.7" height="58"/>
		</defs>
		<clipPath id="SVGID_2_">
			<use xlink:href="#SVGID_1_"  style="overflow:visible;"/>
		</clipPath>
		<g class="st1">
			<path class="st2" d="M-621.4-17.2c0,0-4-20.3,18.1-24.4C-603.2-41.7-599.4-24.4-621.4-17.2z"/>
			<path class="st2" d="M-624.6-17c0,0-20.3,7.5-28.1-13.7C-652.7-30.7-635.3-37.5-624.6-17z"/>
			<path class="st2" d="M-625.7-28.9c0,0-17.7-11.7-4.8-30.1C-630.5-59.1-615-49.4-625.7-28.9z"/>
			<g>
				<path class="st2" d="M-626.9-31.6c0,0,0.4-2.1,1.3-0.4c1.6,3.1,4.1,11.2,4.2,14.7c0.2,5.4-0.1,11.6-1.1,15.2
					c-1,3.6-2.8,6.5-4.5,8.3c-1.6,1.8-3,2.5-3.1,2.4c-0.1-0.1,1-1.1,2.4-2.9c1.4-1.8-0.5,1.2,1.7-11.2
					C-624.1-16-626.9-31.5-626.9-31.6z"/>
			</g>
		</g>
	</g>
	<g>
		<defs>
			<rect id="SVGID_3_" x="-71.3" y="173.6" width="49.7" height="58"/>
		</defs>
		<clipPath id="SVGID_4_">
			<use xlink:href="#SVGID_3_"  style="overflow:visible;"/>
		</clipPath>
		<g class="st3">
			<path class="st2" d="M-40.1,215.4c0,0-4-20.3,18.1-24.4C-21.9,190.9-18.1,208.3-40.1,215.4z"/>
			<path class="st2" d="M-43.3,215.6c0,0-20.3,7.5-28.1-13.7C-71.3,202-54,195.2-43.3,215.6z"/>
			<path class="st2" d="M-44.4,203.7c0,0-17.7-11.7-4.8-30.1C-49.2,173.6-33.7,183.2-44.4,203.7z"/>
			<g>
				<path class="st2" d="M-45.6,201.1c0,0,0.4-2.1,1.3-0.4c1.6,3.1,4.1,11.2,4.2,14.7c0.2,5.4-0.1,11.6-1.1,15.2
					c-1,3.6-2.8,6.5-4.5,8.3c-1.6,1.8-3,2.5-3.1,2.4c-0.1-0.1,1-1.1,2.4-2.9c1.4-1.8-0.5,1.2,1.7-11.2
					C-42.8,216.7-45.6,201.1-45.6,201.1z"/>
			</g>
		</g>
	</g>
</g>
<g id="fire">
</g>
<g id="Layer_1">
	<line class="st4" x1="-841.7" y1="-109.4" x2="-624.1" y2="-109.4"/>
	<circle class="st5" cx="-732.9" cy="-132.8" r="3.8"/>
	<path class="st5" d="M-725.6-153.1c-3.4-4.1-5.8-11.8-6.9-15.2c-0.1-0.5-0.8-0.5-1,0c-0.8,3-2.9,9.3-6.9,14.7
		c-3.7,5,0.4,12.3,7.3,12.3c0,0,0,0,0.1,0c0,0,0,0,0.1,0C-726-141.3-721.6-148.3-725.6-153.1z M-732.1-144.3
		c-3.4,0.6-6.2-2.3-5.7-5.7c0.3-2,2-3.7,4-4c3.4-0.6,6.2,2.3,5.7,5.7C-728.4-146.3-730.1-144.7-732.1-144.3z"/>
	<line class="st4" x1="-732.9" y1="-109.4" x2="-732.9" y2="-142.6"/>
	<circle class="st6" cx="-732.9" cy="-109.9" r="12"/>
	<g>
		<path class="st7" d="M-671.9,0.5c9.5,17.3,27,28.8,47,28.8c20,0,37.5-11.6,47-28.8H-671.9z"/>
		<polygon class="st4" points="-625,-107.8 -672.3,0.5 -577.6,0.5 		"/>
		<circle class="st2" cx="-625" cy="-108.3" r="6.5"/>
	</g>
	<g>
		<linearGradient id="SVGID_5_" gradientUnits="userSpaceOnUse" x1="-887.757" y1="14.9083" x2="-793.8229" y2="14.9083">
			<stop  offset="0" style="stop-color:#FF3A2D"/>
			<stop  offset="1" style="stop-color:#D50000"/>
		</linearGradient>
		<path class="st8" d="M-887.8,0.5c9.5,17.3,27,28.8,47,28.8s37.5-11.6,47-28.8H-887.8z"/>
		<polygon class="st4" points="-840.8,-107.8 -888.1,0.5 -793.5,0.5 		"/>
		<linearGradient id="SVGID_6_" gradientUnits="userSpaceOnUse" x1="-847.3174" y1="-108.2978" x2="-834.2625" y2="-108.2978">
			<stop  offset="0" style="stop-color:#FF3A2D"/>
			<stop  offset="1" style="stop-color:#D50000"/>
		</linearGradient>
		<circle class="st9" cx="-840.8" cy="-108.3" r="6.5"/>
	</g>
	<g>
		<path class="st10" d="M-1025.1-61.3c0,0-0.2-1.8-9.7-1.8c-4.9,0-10.3-1.8-10.9-6.7c-1.1-8.8,9.7-19.4,22.5-29.1
			s-29.1-16.4-37.6-12.1c-8.5,4.2-27.9,36.4-28.5,44.3c-0.6,7.9,10.9,20,10.9,20l14.6-3L-1025.1-61.3z"/>
		<path class="st10" d="M-1130.1-10.3c-0.7-1.8-0.8-18.3,1.2-17.6s13,0.3,13,0.3s-15-17.2-12.4-18.5c2.7-1.3,23.9-1.3,22.7-4.4
			c-1.2-3-22.4-8.8-19.8-10.1c2.6-1.3,9.7-14.2,9.7-14.2s-18.6-1.4-16.9-2.6c1.7-1.2,11.5-10.2,11.5-10.2l-13.4-12.9l13.3-6.1
			c0,0-7-15-5.2-15.2l26.7,2.2l6.7,99L-1130.1-10.3"/>
		<path class="st10" d="M-1130.1-10.3l-10.3-9.1l-8.6,16l-2.9-15.4l-14.2,3.1l-4-11l-6.7,6.7c0,0,20,20,26.7,25.5
			c6.7,5.5,27.3,3,27.3,3L-1130.1-10.3z"/>
		
			<linearGradient id="SVGID_7_" gradientUnits="userSpaceOnUse" x1="-1037.4984" y1="936.4224" x2="-951.418" y2="936.4224" gradientTransform="matrix(0.9906 -0.1366 -0.1366 -0.9906 77.6447 699.205)">
			<stop  offset="0" style="stop-color:#E6E6E6"/>
			<stop  offset="1" style="stop-color:#FF9300"/>
		</linearGradient>
		<path class="st11" d="M-1066.2-73l6.1,2.8l-1.1-8.2l7.5,3.8l-1-7.9c0,0,6.2,2.3,7.2,1.8s2.9-7.1,2.9-7.1l4.4,2.2l1.7-5.4l5,4.7
			l2.4-5.5l4.3,0.9l1-6.2l8.7,3.6l2.2-7.2l6.1,4.4l0.1-9.2c0,0,8.2,7.2,8,6c-0.1-1.2-0.9-8.7-0.9-8.7s8.5,5.5,8.2,4.8
			c-0.3-0.7-3-12.1-3-12.1l-8.9-0.2l-71.5,37.6L-1066.2-73z"/>
		<path class="st12" d="M-1065.7,15c0,0-6.7,16.7-7.3,20.4c-0.6,3.6,9.3,5.3,10.2,7.9c0.9,2.6-6.4,1.2-6.4,1.2s-2.5,2.4-4.8,1.8
			c-1.5-0.4-8.3-0.9-12.9-1.3c-2.3-0.2-4-2.3-3.7-4.6l2.8-20.3C-1087.8,20.2-1067.1,5.6-1065.7,15z"/>
		<path class="st13" d="M-1090,35.6c0,0,9.1-7.5,14.6-9.3s3.9,4.2,3.9,4.2l5.8-15.7c0,0-19.7,3.1-20.2,3.7s-3.1,5.1-3.1,5.1
			L-1090,35.6z"/>
		<g>
			
				<linearGradient id="SVGID_8_" gradientUnits="userSpaceOnUse" x1="-1144.5995" y1="903.4552" x2="-951.1518" y2="903.4552" gradientTransform="matrix(0.9906 -0.1366 -0.1366 -0.9906 77.6447 699.205)">
				<stop  offset="0" style="stop-color:#FF3A2D"/>
				<stop  offset="1" style="stop-color:#D50000"/>
			</linearGradient>
			<path class="st14" d="M-1066.7-22.3c1.7,5.6,5.9,17.6,6.8,26.4c0.9,8.8-6.6,16.7-14.7,19.3s-12.6,3.3-19.9,5.6
				c-4.1,3.9-8.9,7.3-12.7,11.7c5.1,0.9,11.6,2,15,6.2c-1.6,1.7-3.4,2.8-5.6,3.1c-3.5,0.5-5.6,0.8-9.4,1.3
				c-2.6,0.3-6.9-0.3-10.7-0.6c-2.8-0.2-4.9-2.6-5-5.4c-0.1-5.1,0.4-9.7-0.1-15.3c-25.1-1.8-37.8-29.4-53.9-50
				c10.2-0.6,23.3,17.4,33.4,17s31.8-29,35.4-39.2s-8.8-26.3-13.5-40.4c-4.7-14.2-7.7-24.6,10-38.1c17.7-13.5,65.5-48,82.3-36.3
				c16.8,11.8,41.6,33.9,31.9,45.2c-9.6,11.3-72.3,27.4-74.2,47.4s4.4,12.1,12.5,9.4c7.4-2.4,29.2-11.4,34-6.5
				c4.8,4.9-12.7,8.4-27.8,11.8c-14.3,3.2-19.3,10.1-20.9,10.3c-1.6,0.2,3.9,6.8,4.8,9.6C-1067.9-27.1-1068.4-27.8-1066.7-22.3z"/>
		</g>
		<path class="st15" d="M-1067.6,44.8c0,0-0.6-4.1,1-4c1.6,0.1,4.6,1.9,5.2,3.1C-1060.9,45.1-1067.6,44.8-1067.6,44.8z"/>
		<path class="st15" d="M-1074.9,46.2c0,0-0.6-3.5,1.8-3.5s5.5,1.2,6.1,3S-1074.9,46.2-1074.9,46.2z"/>
		<path class="st15" d="M-1095.6,48.9c0,0-0.6-4.1,1-4c1.6,0.1,4.6,1.9,5.2,3.1C-1088.8,49.2-1095.6,48.9-1095.6,48.9z"/>
		<path class="st15" d="M-1102.8,50.3c0,0-0.6-3.5,1.8-3.5s5.5,1.2,6.1,3C-1094.3,51.6-1102.8,50.3-1102.8,50.3z"/>
		<path class="st13" d="M-1094.3,28.6c0,0-27.3,1.2-28.5,0.6c-1.2-0.6,0.4,10.9,0.2,13.3s4.7-3.6,13.8-6.6
			C-1099.7,32.9-1094.3,28.6-1094.3,28.6z"/>
		<g>
			
				<linearGradient id="SVGID_9_" gradientUnits="userSpaceOnUse" x1="-1019.0323" y1="590.0579" x2="-915.9681" y2="590.0579" gradientTransform="matrix(0.9932 -0.1162 -0.101 -0.8634 37.6576 314.4633)">
				<stop  offset="0.1522" style="stop-color:#FF3A2D"/>
				<stop  offset="0.1907" style="stop-color:#FF462A"/>
				<stop  offset="0.4015" style="stop-color:#FF811B"/>
				<stop  offset="0.5953" style="stop-color:#FFB00F"/>
				<stop  offset="0.7658" style="stop-color:#FFD207"/>
				<stop  offset="0.9065" style="stop-color:#FFE702"/>
				<stop  offset="1" style="stop-color:#FFEE00"/>
			</linearGradient>
			<path class="st16" d="M-1034.2-78.3c0-0.1,0-0.2,0.1-0.2c1.9-0.9,27.6-13.6,37-15.2c11.3-1.9,21-0.7,26.6-5.5
				c3.9-3.3,4.4-6.3,4.4-7.6c0-0.2,0.3-0.3,0.4-0.1c1.2,1.9,4.1,7.3,1.8,10.5c-2.1,2.9-4.6,5.3-6.1,6.5c-0.2,0.2,0,0.4,0.2,0.3
				c3-1.4,10.5-4.8,14.8-5.6c7.6-1.4,18.1,1.6,22.8,4.2c0.6,0.3,0.4,1.2-0.3,1.3c-3.4,0.3-10.2,1.4-13.7,5.3
				c-4.8,5.3-21.6,27-40.1,23.6C-1004.7-64.1-1034.1-72.7-1034.2-78.3z"/>
			
				<linearGradient id="SVGID_10_" gradientUnits="userSpaceOnUse" x1="-1013.5986" y1="585.0865" x2="-947.6565" y2="585.0865" gradientTransform="matrix(0.9932 -0.1162 -0.101 -0.8634 37.6576 314.4633)">
				<stop  offset="0.1522" style="stop-color:#FF5A19"/>
				<stop  offset="1" style="stop-color:#FFEE00"/>
			</linearGradient>
			<path class="st17" d="M-1028.6-77.1c0,0,30-12.5,42.3-8.4c12.3,4.1,13.7,10,20.7,8c11.3-3.3-8.6,10.3-20.6,8.6
				C-998.2-70.7-1028.6-77.1-1028.6-77.1z"/>
			
				<linearGradient id="SVGID_11_" gradientUnits="userSpaceOnUse" x1="-1011.8049" y1="585.8621" x2="-961.3069" y2="585.8621" gradientTransform="matrix(0.9932 -0.1162 -0.101 -0.8634 37.6576 314.4633)">
				<stop  offset="0.1522" style="stop-color:#FFB02A"/>
				<stop  offset="0.9393" style="stop-color:#FFEE00"/>
			</linearGradient>
			<path class="st18" d="M-1026.9-77.4c0,0,21.5-5.6,28.8-5.6c7.3-0.1,10.6,2.3,16.2,4.3c1.3,0.5,4.3,1,5.8,1.3
				c0.3,0,0.3,0.4,0.1,0.5c-2.1,1-8.4,3.9-14.4,4.9C-997.9-70.8-1026.9-77.4-1026.9-77.4z"/>
		</g>
		<g>
			<path class="st19" d="M-1072.7-89.8c0,0-3.2-1.9-6.4-2.4c-3.2-0.5-8.1-0.6-8.1-0.6l1.7-0.9c0,0-0.7-0.2-1.5-1.1
				c-0.7-0.7-1.8-3.1-1.8-3.1s3.5,0.4,7.4,0.8c5.5,0.7,8.2,3.8,8.2,3.8h-1.1C-1074.3-93.2-1072.9-91.1-1072.7-89.8z"/>
			<path class="st20" d="M-1074.7-94c0,0-1.6-1.5-4.8-2.3s-7-0.9-7-0.9l2.7,1l-3.2-0.5c0,0,1.7,1,4.9,1.6c3.2,0.6,7.3,2.3,7.3,2.3
				l-0.8-1.4L-1074.7-94z"/>
		</g>
		<path class="st10" d="M-1073.6-31c0,0,0.8,0.3,5.4,0.6c4.6,0.3,6-7.3,9-8s1.1,5.9,1.6,6.6c0.4,0.7,1.5-4.1,1.5-4.1
			s0.1,4.3,0.8,3.9c0.7-0.4,1-5.4,1-5.4s1.2,8.3,2.1,2.5c1-5.8-3.4-7.7-6.1-8.6c-2.7-0.9-6.9,7.1-9.6,7.8c-2.6,0.6-6.7-2.8-6.7-2.8
			L-1073.6-31z"/>
		<g>
			<circle cx="-1079" cy="-84.7" r="4.2"/>
			<circle class="st0" cx="-1078.7" cy="-85.5" r="1.5"/>
			<circle class="st0" cx="-1080.3" cy="-83" r="0.7"/>
		</g>
		<path class="st10" d="M-1098.7-25.3c0,0,0.8,0.1,5.3-1s3.5-8.8,6.1-10.3c2.6-1.5,2.8,5.3,3.5,5.9c0.6,0.6,0.2-4.4,0.2-4.4
			s1.4,4.1,1.9,3.5c0.6-0.6-0.7-5.5-0.7-5.5s3.6,7.5,2.8,1.7c-0.8-5.8-5.5-6.3-8.4-6.3s-4.5,8.9-6.8,10.3c-2.3,1.4-7.3-0.6-7.3-0.6
			L-1098.7-25.3z"/>
		<g>
			<path class="st21" d="M-1032.4-118.8c3.2,6.1,7.8,10.1,10.2,8.8c2.5-1.3,1.9-7.3-1.3-13.4c-3.2-6.1-7.8-10.1-10.2-8.8
				C-1036.1-130.9-1035.5-124.9-1032.4-118.8z"/>
			<path class="st22" d="M-1033.3-118.2c3.2,6.1,7.8,10.1,10.2,8.8c2.5-1.3,1.9-7.3-1.3-13.4c-3.2-6.1-7.8-10.1-10.2-8.8
				C-1037.1-130.3-1036.5-124.3-1033.3-118.2z"/>
		</g>
		<g>
			<path class="st21" d="M-1016.6-131.7c2.5,4.7,6,7.8,7.9,6.8c1.9-1,1.5-5.7-1-10.4s-6-7.8-7.9-6.8
				C-1019.5-141.1-1019.1-136.5-1016.6-131.7z"/>
			<path class="st22" d="M-1017.4-131.2c2.5,4.7,6,7.8,7.9,6.8c1.9-1,1.5-5.7-1-10.4s-6-7.8-7.9-6.8
				C-1020.3-140.6-1019.8-136-1017.4-131.2z"/>
		</g>
		<g>
			<path class="st23" d="M-1030.9-137.9c0,0-4.8-2.5-8.6-0.4c-7.2,4-2.9,14.8-2.9,14.8s-2.3-6.3,4.9-12.2
				C-1033.8-138.5-1030.9-137.9-1030.9-137.9z"/>
			<path class="st24" d="M-1030.9-137.9c0,0-5.4,0.7-9.3,5.9c-3.9,5.2-1.2,11-1.2,11s-3.4-6,0.1-11.4
				C-1037.8-137.9-1030.9-137.9-1030.9-137.9z"/>
			<path class="st25" d="M-1032.8-136.3c0,0-5.8,3.5-6.8,8.9s1.9,9.4,1.9,9.4s-4-3.6-3.5-9.5
				C-1040.6-133.6-1032.8-136.3-1032.8-136.3z"/>
		</g>
		<g>
			<path class="st23" d="M-1017.4-145.4c0,0-2.8-1.5-5.1-0.2c-4.3,2.4-1.7,8.8-1.7,8.8s-1.3-3.7,2.9-7.2
				C-1019.1-145.8-1017.4-145.4-1017.4-145.4z"/>
			<path class="st24" d="M-1017.4-145.4c0,0-3.2,0.4-5.5,3.5c-2.3,3.1-0.7,6.5-0.7,6.5s-2-3.6,0.1-6.8
				C-1021.5-145.4-1017.4-145.4-1017.4-145.4z"/>
			<path class="st25" d="M-1018.6-144.4c0,0-3.4,2-4,5.2c-0.6,3.2,1.2,5.6,1.2,5.6s-2.4-2.2-2.1-5.6
				C-1023.1-142.8-1018.6-144.4-1018.6-144.4z"/>
		</g>
		<path class="st10" d="M-1111.3-120.8c0,0,11.5-10.3,32.2-19.4c19.7-8.7,29.7-9.1,29.7-9.1s-4.9-12.7,6.7-17.6
			c11.6-4.9-11.5-12.1-22.5,0c-6.9,7.7-10.3-6.7-10.3-6.7l-9.1,21.9l-12.1-3.6l-3.6,18.8l-13.4,1.2L-1111.3-120.8z"/>
	</g>
	<g>
		<g>
			<path class="st26" d="M-419-20.7c0,0-21.9-3.7-22.9,0.4c-0.7,2.9,23.4,2.8,23.4,2.8L-419-20.7z"/>
			<path class="st26" d="M-439-24.1c0,0-5.9-7.3-6.6-5.1s2.1,5.7,2.1,5.7s-8.1-3.6-9.1-2.4s7.9,4.1,7.4,4.2s-8.8-0.6-8.5,0.6
				c0.2,1.2,8.1,1.3,8.2,1.8s-7.7,1.2-7.2,2.1c0.4,0.9,7.4,0.1,8.2,0.2c0.8,0.1-4.9,2.4-4.5,3.4c0.4,0.9,5.4-1.3,6.3-1.9
				c0.9-0.7,5-0.4,6.5-1.7s0.9-4.5,0-5.3C-437.1-23.4-439-24.1-439-24.1z"/>
		</g>
		<path class="st27" d="M-459.6-75.1c4.9,0,12.8,0.5,16.6-1.6c7.7-4.4-14.5-13.5-27.3-23.3s29.1-16.4,37.6-12.1s37.7,28.6,38.3,36.5
			c0.6,7.9-20.7,27.9-20.7,27.9l-14.6-3C-429.6-50.8-469.1-75.1-459.6-75.1z"/>
		
			<linearGradient id="SVGID_12_" gradientUnits="userSpaceOnUse" x1="-468.6754" y1="742.3817" x2="-420.4577" y2="694.164" gradientTransform="matrix(1 0 0 -1 0 623.9399)">
			<stop  offset="0" style="stop-color:#FFC76D"/>
			<stop  offset="1" style="stop-color:#E8E3E0"/>
		</linearGradient>
		<path class="st28" d="M-480.6-106.5c0,0-1.5,4.1,0.6,4.6s4.3-1.1,4.3-1.1s-1.1,8.6,1.6,7.5s4.8-2.6,4.8-2.6s-1,5.9,1.6,6.4
			c2.7,0.5,5.4-2.8,5.4-2.8s0,7.1,2.6,7.1s5.7-3.2,5.7-3.2s-2.5,5.3,1.8,5.9c4.3,0.5,5.4-1.6,5.4-1.6s0.5,4.4,3.2,4.8
			c3.7,0.5,5.1-1.9,5.1-1.9s3,4,4,3.5c1.1-0.5,5.9-2.7,5.9-2.7s-0.5,3.7,2.1,3.7s7-3.7,7-3.7s0,3.7,2.1,3.2s3.7-3.7,3.7-3.7
			s1.1,2.7,3.2,2.1c2.1-0.5,4.3-4.3,4.3-4.3L-480.6-106.5z"/>
		
			<linearGradient id="SVGID_13_" gradientUnits="userSpaceOnUse" x1="-503.2169" y1="560.9503" x2="-443.9322" y2="554.7748" gradientTransform="matrix(0.9996 2.982325e-02 2.982325e-02 -0.9996 24.1911 506.5313)">
			<stop  offset="0" style="stop-color:#FFC76D"/>
			<stop  offset="1" style="stop-color:#E8E3E0"/>
		</linearGradient>
		<path class="st29" d="M-402.9-62.3c0,0-3.2-7.5-6.4-5.4c-2.9,1.9-1.6,4.3-1.6,4.3s-1.6-3.7-3.7-2.1s-2.1,4.3-2.1,4.3
			s-1-5.3-3.7-3.2c-2.7,2.1-2.8,5.1-2.8,5.1s0.2-5.6-2.5-4.6s-2.2,2.8-2.2,2.8s-0.4-4.4-3.1-3.4s-3.3,2.1-3.3,2.1s-0.9-5.2-3.1-3.2
			c-2.2,2.1-2.7,2.5-2.7,2.5s0.6-5.1-2.1-4.6s-3.7,1.7-3.7,1.7s1.6-3.8-1.6-3.9s-3,1.9-3,1.9s0.4-6.1-2.3-4.1c-2.7,2.1-3,2.3-3,2.3
			s4.3-8.3,0.9-8.2c-3.4,0.1-3.8,5.4-3.8,5.4s1.6-7.5-0.5-7s-1.2,5.4-1.2,5.4s10.9,10.6,11.9,11.2s41.4,12,41.4,12L-402.9-62.3z"/>
		<g>
			<path class="st30" d="M-421.6,17.8c0,0,6.7,16.7,7.4,20.4c0.6,3.6-9.3,5.4-10.2,8c-0.9,2.6,6.4,1.1,6.4,1.1s2.5,2.4,4.8,1.8
				c1.5-0.4,8.3-1,12.9-1.3c2.3-0.2,4-2.3,3.7-4.6l-2.8-20.2C-399.5,22.9-420.3,8.4-421.6,17.8z"/>
			<path class="st31" d="M-397.3,38.3c0,0-9.1-7.5-14.6-9.3s-3.9,4.2-3.9,4.2l-5.8-15.7c0,0,19.7,3,20.2,3.6s3.1,5.1,3.1,5.1
				L-397.3,38.3z"/>
			<path class="st15" d="M-419.6,47.6c0,0,0.6-4.1-1-4s-4.6,1.9-5.2,3.1C-426.4,47.9-419.6,47.6-419.6,47.6z"/>
			<path class="st15" d="M-412.4,48.9c0,0,0.6-3.5-1.9-3.5c-2.4,0-5.5,1.2-6.1,3S-412.4,48.9-412.4,48.9z"/>
		</g>
		<path class="st32" d="M-370.2-3.9c0,0,9.1-22.2,6.4-23.6c-2.7-1.3-10.9-7.2-9.6-10.2c1.2-3,23.5-11.5,20.9-12.8
			c-2.7-1.3-9.6-16.6-9.6-16.6s23.3-5.9,21.6-7.1S-352-84.4-352-84.4l13.4-12.9l-13.3-6.1c0,0-4.4-13,0.9-16.8
			c5.4-3.7-24.6,1.1-24.6,1.1l-28.4,98"/>
		<path class="st32" d="M-372.4-6.1l17.1-13.3l8.6,12.3l2.9-11.6l13.7,2l4.6-9.9l6.7,6.7c0,0-20,20-26.7,25.5s-27.3,3-27.3,3
			L-372.4-6.1z"/>
		
			<linearGradient id="SVGID_14_" gradientUnits="userSpaceOnUse" x1="-482.1298" y1="676.6376" x2="-318.9298" y2="676.6376" gradientTransform="matrix(1 0 0 -1 0 623.9399)">
			<stop  offset="0" style="stop-color:#6BC62A"/>
			<stop  offset="1" style="stop-color:#00B53E"/>
		</linearGradient>
		<path class="st33" d="M-352.2-3c-31.9-3.1-29.2-27.7-20.1-43.2c0.1-0.1,0.1-0.2,0-0.3c12.8-13.2,26.4-39.3,23.1-48.9
			c-4.3-12.3-76.6-66.1-99.6-61.3c-23,4.8-33.3,48.5-33.3,48.5c4,15.2,49,32.2,68.8,26.5c7.7-2.3,13.5-3.7,16.9,2.9
			c1.8,3.5,0,8.1-18.2,15c-15.5,5.9-39.4-4.5-43.4-10.7c-3.4-5.4-12.9,2.5-3.8,10.1c6,5,20.4,13.9,43.8,20.4
			c-2.2,3.3-5.1,8.3-5.8,10.2c-1,2.8-4.1,8.9-5.9,14.5c-1.7,5.6-5.5,12.6-6.4,21.4c-0.9,8.8,6.9,18.9,14.9,21.5s12.6,3.3,19.9,5.6
			c4.1,3.9,8.9,7.3,12.7,11.7c-5.1,0.9-11.6,2-15,6.2c1.6,1.7,3.4,2.8,5.6,3.1c3.5,0.5,5.6,0.8,9.4,1.3c2.6,0.3,6.9-0.3,10.7-0.6
			c2.8-0.2,4.9-2.6,5-5.4c0.1-5.1-0.4-9.7,0.1-15.3c25.1-1.8,37.8-29.4,53.9-50C-329-20.6-342.2-2-352.2-3z"/>
		<g>
			<path class="st2" d="M-451.6-34.1c0,0-13.3-8.3-4.1-22.6C-455.6-56.8-444.1-49.9-451.6-34.1z"/>
			<path class="st2" d="M-453.6-32.1c0,0-5.8,14.9-21.5,8.3C-475.2-23.8-470.5-36.8-453.6-32.1z"/>
			<path class="st2" d="M-460.2-37.8c0,0-15.6,3.7-19.1-13C-479.3-50.8-466-54.3-460.2-37.8z"/>
			<g>
				<path class="st2" d="M-462.3-38.5c0-0.1,7.6,1.7,10.7,4.4s6.3,6.1,7.8,8.5s2.1,5,2.2,6.8s-0.2,3-0.3,2.9c-0.1,0-0.1-1.1-0.4-2.9
					c-0.3-1.7-3.9-4.5-5.3-6.7C-448.9-27.8-462.3-38.4-462.3-38.5z"/>
			</g>
		</g>
		<path class="st15" d="M-400.1,48.9c0,0,0.6-4.1-1-4s-4.6,1.9-5.2,3.1C-406.8,49.2-400.1,48.9-400.1,48.9z"/>
		<path class="st15" d="M-392.9,50.3c0,0,0.6-3.5-1.8-3.5s-5.5,1.2-6.1,3S-392.9,50.3-392.9,50.3z"/>
		<path class="st31" d="M-401.3,29.3c0,0,28.4-0.8,28.4,0.5c0,1.1-0.2,10.9,0,13.4s-4.8-4.2-13.9-7.3S-401.3,29.3-401.3,29.3z"/>
		<g>
			<g>
				<path class="st34" d="M-448.3-112.4c-3.2,6.1-7.8,10.1-10.2,8.8c-2.5-1.3-1.9-7.3,1.3-13.4c3.2-6.1,7.8-10.1,10.2-8.8
					S-445.1-118.5-448.3-112.4z"/>
				<path class="st27" d="M-447.4-111.7c-3.2,6.1-7.8,10.1-10.2,8.8c-2.5-1.3-1.9-7.3,1.3-13.4c3.2-6.1,7.8-10.1,10.2-8.8
					C-443.6-123.9-444.2-117.9-447.4-111.7z"/>
			</g>
			<g>
				<path class="st34" d="M-464.1-125.3c-2.5,4.7-6,7.8-7.9,6.8s-1.5-5.7,1-10.4c2.5-4.7,6-7.8,7.9-6.8
					C-461.1-134.7-461.6-130-464.1-125.3z"/>
				<path class="st27" d="M-463.3-124.8c-2.5,4.7-6,7.8-7.9,6.8s-1.5-5.7,1-10.4c2.5-4.7,6-7.8,7.9-6.8S-460.8-129.6-463.3-124.8z"
					/>
			</g>
			<g>
				<path class="st35" d="M-449.8-131.5c0,0,4.8-2.5,8.6-0.4c7.2,4,2.9,14.8,2.9,14.8s2.3-6.3-4.9-12.2
					C-446.8-132.1-449.8-131.5-449.8-131.5z"/>
				<path class="st32" d="M-449.8-131.5c0,0,5.4,0.7,9.3,5.9c3.9,5.2,1.2,11,1.2,11s3.4-6-0.1-11.4
					C-442.8-131.5-449.8-131.5-449.8-131.5z"/>
				<path class="st25" d="M-447.8-129.8c0,0,5.8,3.5,6.8,8.9s-1.9,9.4-1.9,9.4s4-3.6,3.5-9.5C-440.1-127.2-447.8-129.8-447.8-129.8z
					"/>
			</g>
			<g>
				<path class="st35" d="M-463.3-139c0,0,2.8-1.5,5.1-0.2c4.3,2.4,1.7,8.8,1.7,8.8s1.3-3.7-2.9-7.2
					C-461.5-139.4-463.3-139-463.3-139z"/>
				<path class="st32" d="M-463.3-139c0,0,3.2,0.4,5.5,3.5c2.3,3.1,0.7,6.5,0.7,6.5s2-3.6-0.1-6.8C-459.2-139-463.3-139-463.3-139z"
					/>
				<path class="st25" d="M-462.1-138c0,0,3.4,2,4,5.2s-1.2,5.6-1.2,5.6s2.4-2.2,2.1-5.6C-457.5-136.4-462.1-138-462.1-138z"/>
			</g>
		</g>
		<g>
			<g>
				<path class="st32" d="M-382.3-98.8c0,0,2.2,2.9,3,6.1s1.4,8,1.4,8l0.7-1.8c0,0,0.3,0.6,1.2,1.4c0.8,0.6,3.2,1.4,3.2,1.4
					s-0.7-3.4-1.6-7.3c-1.2-5.4-4.6-7.8-4.6-7.8l0.1,1.1C-378.8-97.6-381-98.7-382.3-98.8z"/>
				<path class="st30" d="M-377.9-97.3c0,0,1.7,1.5,2.8,4.6c1.1,3.1,1.6,6.9,1.6,6.9l-1.3-2.5l0.8,3.1c0,0-1.2-1.6-2.1-4.7
					c-0.9-3.2-3-7-3-7l1.5,0.7L-377.9-97.3z"/>
			</g>
			<path class="st36" d="M-388.1-91.8c0,0,7.6-0.9,5.3,6"/>
		</g>
		<g>
			<path class="st37" d="M-419.4-24.4c-4.2-0.3-22.5,2.5-22.2,6.7c0.2,2.9,23.2-4.4,23.2-4.4S-415.2-24.1-419.4-24.4z"/>
			<path class="st37" d="M-440-22.2c0,0-7.9-5.2-7.8-2.9c0.1,2.2,3.7,4.8,3.7,4.8s-8.8-1-9.4,0.5s8.8,1.6,8.3,1.8
				c-0.4,0.2-8.6,2-8,3.1s8.1-1.2,8.4-0.8c0.2,0.4-7,3.4-6.3,4.2s7.1-2.1,7.9-2.2c0.8-0.1-4,3.7-3.2,4.6c0.7,0.8,4.7-2.8,5.4-3.7
				s4.6-1.9,5.7-3.6c1.1-1.7-0.5-4.6-1.6-5.1S-440-22.2-440-22.2z"/>
		</g>
		<path class="st32" d="M-371.3-117.4c0,0-12.3-10.5-33-19.6c-19.7-8.7-33.4-12-33.4-12s0.1-19.7,18.7-24.1c9.1-2.1,24.5,3.8,22,4.8
			c-10.7,4.3-11.4,22.4-2.1,15c8-6.4,20.9,1.1,20.9,1.1s-13.1,8.2-8.6,9.1c5.4,1.1,18.6-2.5,15,1.6c-4.3,4.8-9.6,8.6-9.6,8.6
			s24.1-4.8,19.8,1.1S-371.3-117.4-371.3-117.4z"/>
	</g>
	<g>
		<g>
			<circle class="st5" cx="-98.7" cy="-226" r="3.8"/>
		</g>
		<g>
			<path class="st5" d="M-91.4-246.4c-3.4-4.1-5.8-11.8-6.9-15.2c-0.1-0.5-0.8-0.5-1,0c-0.8,3-2.9,9.3-6.9,14.7
				c-3.7,5,0.4,12.3,7.3,12.3c0,0,0,0,0.1,0c0,0,0,0,0.1,0C-91.8-234.6-87.4-241.6-91.4-246.4z M-97.9-237.6
				c-3.4,0.6-6.2-2.3-5.7-5.7c0.3-2,2-3.7,4-4c3.4-0.6,6.2,2.3,5.7,5.7C-94.2-239.6-95.9-237.9-97.9-237.6z"/>
		</g>
		<path class="st5" d="M-98.7-237.3c-0.8,0-1.5,0.7-1.5,1.5v19.3h3v-19.3C-97.2-236.7-97.9-237.3-98.7-237.3z"/>
	</g>
	<g>
		<path class="st5" d="M154.7-246.8H-62.9c-0.8,0-1.5-0.7-1.5-1.5s0.7-1.5,1.5-1.5h217.6c0.8,0,1.5,0.7,1.5,1.5
			S155.5-246.8,154.7-246.8z"/>
	</g>
	<g>
		
			<linearGradient id="SVGID_15_" gradientUnits="userSpaceOnUse" x1="-885.33" y1="-304.6148" x2="-812.838" y2="-304.6148" gradientTransform="matrix(-3.274567e-02 -0.9994 -0.8688 2.845226e-02 -357.386 -915.9682)">
			<stop  offset="0.1522" style="stop-color:#FF3A2D"/>
			<stop  offset="0.1907" style="stop-color:#FF462A"/>
			<stop  offset="0.4015" style="stop-color:#FF811B"/>
			<stop  offset="0.5953" style="stop-color:#FFB00F"/>
			<stop  offset="0.7658" style="stop-color:#FFD207"/>
			<stop  offset="0.9065" style="stop-color:#FFE702"/>
			<stop  offset="1" style="stop-color:#FFEE00"/>
		</linearGradient>
		<path class="st38" d="M-66.6-39.7c-0.1,0-0.1,0-0.1-0.1c-0.6-1.4-13.5-16.4-13.1-27.9c0.4-12.1,2.8-27.1,3-29
			c0.3-3.5,4.5,11,5.3,12.1c0.1,0.1,0.3,0,0.3-0.1c-0.9-2.2-1.2-8.2-0.3-12.4c1-4.2,6.1-11.9,8.3-15c0.3-0.4,0.9-0.2,0.9,0.3
			c0,2.3,1,9.8,3.7,12.5c3.7,3.6,11.5,15.2,7.9,27.8C-54.3-59.2-62.5-39.5-66.6-39.7z"/>
		
			<linearGradient id="SVGID_16_" gradientUnits="userSpaceOnUse" x1="-881.5773" y1="-306.4469" x2="-833.128" y2="-306.4469" gradientTransform="matrix(-3.274567e-02 -0.9994 -0.8688 2.845226e-02 -357.386 -915.9682)">
			<stop  offset="0.1522" style="stop-color:#FF5A19"/>
			<stop  offset="1" style="stop-color:#FFEE00"/>
		</linearGradient>
		<path class="st39" d="M-65.4-43.5c0,0-7.6-21.5-3.8-29.7c3.8-8.2,5.4-12.2,4.3-17.1c-1.8-8,10.8,14.4,8.9,22.6
			C-58.1-59.6-65.4-43.5-65.4-43.5z"/>
		
			<linearGradient id="SVGID_17_" gradientUnits="userSpaceOnUse" x1="-880.334" y1="-305.6228" x2="-845.3982" y2="-305.6228" gradientTransform="matrix(-3.274567e-02 -0.9994 -0.8688 2.845226e-02 -357.386 -915.9682)">
			<stop  offset="0.1522" style="stop-color:#FFB02A"/>
			<stop  offset="0.9393" style="stop-color:#FFEE00"/>
		</linearGradient>
		<path class="st40" d="M-65.6-44.7c0,0-2.9-15.1-2.5-20.2c0.3-5,2.3-7.2,4.1-10.9c0.4-0.9,1-2.9,1.3-3.9c0.1-0.2,0.3-0.2,0.4,0
			c0.7,1.5,2.5,6,2.8,10.2C-58.9-64.3-65.6-44.7-65.6-44.7z"/>
	</g>
	<g>
		<linearGradient id="SVGID_18_" gradientUnits="userSpaceOnUse" x1="-111.4577" y1="-40.0436" x2="-17.5236" y2="-40.0436">
			<stop  offset="0" style="stop-color:#FF3A2D"/>
			<stop  offset="1" style="stop-color:#D50000"/>
		</linearGradient>
		<path class="st41" d="M-111.5-54.5c9.5,17.3,27,28.8,47,28.8s37.5-11.6,47-28.8H-111.5z"/>
		<polygon class="st4" points="-64.5,-162.7 -111.8,-54.5 -17.2,-54.5 		"/>
		<linearGradient id="SVGID_19_" gradientUnits="userSpaceOnUse" x1="-71.0181" y1="-163.2496" x2="-57.9632" y2="-163.2496">
			<stop  offset="0" style="stop-color:#FF3A2D"/>
			<stop  offset="1" style="stop-color:#D50000"/>
		</linearGradient>
		<circle class="st42" cx="-64.5" cy="-163.2" r="6.5"/>
	</g>
	<g>
		<path class="st2" d="M52.4-72.2c0,0-4-20.3,18.1-24.4C70.6-96.6,74.4-79.3,52.4-72.2z"/>
		<path class="st2" d="M49.2-72c0,0-20.3,7.5-28.1-13.7C21.1-85.6,38.5-92.4,49.2-72z"/>
		<path class="st2" d="M48.1-83.9c0,0-17.7-11.7-4.8-30.1C43.3-114,58.8-104.4,48.1-83.9z"/>
		<g>
			<path class="st2" d="M46.9-86.5c0,0,0.4-2.1,1.3-0.4c1.6,3.1,4.1,11.2,4.2,14.7c0.2,5.4-0.1,11.6-1.1,15.2
				c-1,3.6-2.8,6.5-4.5,8.3c-1.6,1.8-3,2.5-3.1,2.4c-0.1-0.1,1-1.1,2.4-2.9c1.4-1.8-0.5,1.2,1.7-11.2C49.7-70.9,46.8-86.5,46.9-86.5
				z"/>
		</g>
	</g>
	<g>
		<path class="st7" d="M1.9-54.5c9.5,17.3,27,28.8,47,28.8s37.5-11.6,47-28.8H1.9z"/>
		<polygon class="st4" points="48.8,-162.7 1.5,-54.5 96.1,-54.5 		"/>
		<circle class="st2" cx="48.8" cy="-163.2" r="6.5"/>
	</g>
	<g>
		<circle class="st0" cx="-58" cy="-221.1" r="12"/>
		<path class="st5" d="M-58-207.7c-7.4,0-13.5-6-13.5-13.5s6-13.5,13.5-13.5s13.5,6,13.5,13.5S-50.5-207.7-58-207.7z M-58-231.6
			c-5.8,0-10.5,4.7-10.5,10.5s4.7,10.5,10.5,10.5s10.5-4.7,10.5-10.5S-52.2-231.6-58-231.6z"/>
	</g>
	<g>
		<polygon class="st4" points="-64.8,7.1 -112.1,115.3 -17.5,115.3 		"/>
		<linearGradient id="SVGID_20_" gradientUnits="userSpaceOnUse" x1="-71.3494" y1="6.5275" x2="-58.2944" y2="6.5275">
			<stop  offset="0" style="stop-color:#FF3A2D"/>
			<stop  offset="1" style="stop-color:#D50000"/>
		</linearGradient>
		<circle class="st43" cx="-64.8" cy="6.5" r="6.5"/>
	</g>
	<g>
		<polygon class="st4" points="48.8,7.1 1.5,115.3 96.1,115.3 		"/>
		<circle class="st2" cx="48.8" cy="6.5" r="6.5"/>
	</g>
	<linearGradient id="SVGID_21_" gradientUnits="userSpaceOnUse" x1="-111.789" y1="141.7911" x2="-17.8548" y2="141.7911">
		<stop  offset="0" style="stop-color:#FF3A2D"/>
		<stop  offset="1" style="stop-color:#D50000"/>
	</linearGradient>
	<path class="st44" d="M-111.8,127.4c9.5,17.3,27,28.8,47,28.8s37.5-11.6,47-28.8H-111.8z"/>
	<path class="st7" d="M2.9,128.4c9.5,17.3,27,28.8,47,28.8s37.5-11.6,47-28.8H2.9z"/>
	<g>
		<defs>
			<rect id="SVGID_22_" x="-856.2" y="-57.4" width="30.1" height="56.3"/>
		</defs>
		<clipPath id="SVGID_23_">
			<use xlink:href="#SVGID_22_"  style="overflow:visible;"/>
		</clipPath>
		<g class="st45">
			
				<linearGradient id="SVGID_24_" gradientUnits="userSpaceOnUse" x1="-914.8444" y1="590.0058" x2="-842.3525" y2="590.0058" gradientTransform="matrix(-3.274567e-02 -0.9994 -0.8688 2.845226e-02 -357.386 -915.9682)">
				<stop  offset="0.1522" style="stop-color:#FF3A2D"/>
				<stop  offset="0.1907" style="stop-color:#FF462A"/>
				<stop  offset="0.4015" style="stop-color:#FF811B"/>
				<stop  offset="0.5953" style="stop-color:#FFB00F"/>
				<stop  offset="0.7658" style="stop-color:#FFD207"/>
				<stop  offset="0.9065" style="stop-color:#FFE702"/>
				<stop  offset="1" style="stop-color:#FFEE00"/>
			</linearGradient>
			<path class="st46" d="M-842.9,15.2c-0.1,0-0.1,0-0.1-0.1c-0.6-1.4-13.5-16.4-13.1-27.9c0.4-12.1,2.8-27.1,3-29
				c0.3-3.5,4.5,11,5.3,12.1c0.1,0.1,0.3,0,0.3-0.1c-0.9-2.2-1.2-8.2-0.3-12.4s6.1-11.9,8.3-15c0.3-0.4,0.9-0.2,0.9,0.3
				c0,2.3,1,9.8,3.7,12.5c3.7,3.6,11.5,15.2,7.9,27.8C-830.6-4.2-838.8,15.5-842.9,15.2z"/>
			
				<linearGradient id="SVGID_25_" gradientUnits="userSpaceOnUse" x1="-911.0918" y1="588.1738" x2="-862.6424" y2="588.1738" gradientTransform="matrix(-3.274567e-02 -0.9994 -0.8688 2.845226e-02 -357.386 -915.9682)">
				<stop  offset="0.1522" style="stop-color:#FF5A19"/>
				<stop  offset="1" style="stop-color:#FFEE00"/>
			</linearGradient>
			<path class="st47" d="M-841.7,11.4c0,0-7.6-21.5-3.8-29.7c3.8-8.2,5.4-12.2,4.3-17.1c-1.8-8,10.8,14.4,8.9,22.6
				C-834.4-4.6-841.7,11.4-841.7,11.4z"/>
			
				<linearGradient id="SVGID_26_" gradientUnits="userSpaceOnUse" x1="-909.8484" y1="588.9977" x2="-874.9127" y2="588.9977" gradientTransform="matrix(-3.274567e-02 -0.9994 -0.8688 2.845226e-02 -357.386 -915.9682)">
				<stop  offset="0.1522" style="stop-color:#FFB02A"/>
				<stop  offset="0.9393" style="stop-color:#FFEE00"/>
			</linearGradient>
			<path class="st48" d="M-841.9,10.2c0,0-2.9-15.1-2.5-20.2c0.3-5,2.3-7.2,4.1-10.9c0.4-0.9,1-2.9,1.3-3.9c0.1-0.2,0.3-0.2,0.4,0
				c0.7,1.5,2.5,6,2.8,10.2C-835.2-9.4-841.9,10.2-841.9,10.2z"/>
		</g>
	</g>
	<g>
		<defs>
			<rect id="SVGID_27_" x="-111.5" y="172.6" width="30.1" height="56.3"/>
		</defs>
		<clipPath id="SVGID_28_">
			<use xlink:href="#SVGID_27_"  style="overflow:visible;"/>
		</clipPath>
		<g class="st49">
			
				<linearGradient id="SVGID_29_" gradientUnits="userSpaceOnUse" x1="-1169.0669" y1="-257.5417" x2="-1096.575" y2="-257.5417" gradientTransform="matrix(-3.274567e-02 -0.9994 -0.8688 2.845226e-02 -357.386 -915.9682)">
				<stop  offset="0.1522" style="stop-color:#FF3A2D"/>
				<stop  offset="0.1907" style="stop-color:#FF462A"/>
				<stop  offset="0.4015" style="stop-color:#FF811B"/>
				<stop  offset="0.5953" style="stop-color:#FFB00F"/>
				<stop  offset="0.7658" style="stop-color:#FFD207"/>
				<stop  offset="0.9065" style="stop-color:#FFE702"/>
				<stop  offset="1" style="stop-color:#FFEE00"/>
			</linearGradient>
			<path class="st50" d="M-98.2,245.2c-0.1,0-0.1,0-0.1-0.1c-0.6-1.4-13.5-16.4-13.1-27.9c0.4-12.1,2.8-27.1,3-29
				c0.3-3.5,4.5,11,5.3,12.1c0.1,0.1,0.3,0,0.3-0.1c-0.9-2.2-1.2-8.2-0.3-12.4c1-4.2,6.1-11.9,8.3-15c0.3-0.4,0.9-0.2,0.9,0.3
				c0,2.3,1,9.8,3.7,12.5c3.7,3.6,11.5,15.2,7.9,27.8C-85.9,225.7-94.1,245.4-98.2,245.2z"/>
			
				<linearGradient id="SVGID_30_" gradientUnits="userSpaceOnUse" x1="-1165.3142" y1="-259.3738" x2="-1116.8649" y2="-259.3738" gradientTransform="matrix(-3.274567e-02 -0.9994 -0.8688 2.845226e-02 -357.386 -915.9682)">
				<stop  offset="0.1522" style="stop-color:#FF5A19"/>
				<stop  offset="1" style="stop-color:#FFEE00"/>
			</linearGradient>
			<path class="st51" d="M-97,241.4c0,0-7.6-21.5-3.8-29.7c3.8-8.2,5.4-12.2,4.3-17.1c-1.8-8,10.8,14.4,8.9,22.6
				C-89.7,225.3-97,241.4-97,241.4z"/>
			
				<linearGradient id="SVGID_31_" gradientUnits="userSpaceOnUse" x1="-1164.0709" y1="-258.5498" x2="-1129.1351" y2="-258.5498" gradientTransform="matrix(-3.274567e-02 -0.9994 -0.8688 2.845226e-02 -357.386 -915.9682)">
				<stop  offset="0.1522" style="stop-color:#FFB02A"/>
				<stop  offset="0.9393" style="stop-color:#FFEE00"/>
			</linearGradient>
			<path class="st52" d="M-97.2,240.2c0,0-2.9-15.1-2.5-20.2c0.3-5,2.3-7.2,4.1-10.9c0.4-0.9,1-2.9,1.3-3.9c0.1-0.2,0.3-0.2,0.4,0
				c0.7,1.5,2.5,6,2.8,10.2C-90.5,220.6-97.2,240.2-97.2,240.2z"/>
		</g>
	</g>
</g>
</svg>
