<?xml version="1.0" encoding="utf-8"?>
<!-- Generator: Adobe Illustrator 23.0.1, SVG Export Plug-In . SVG Version: 6.00 Build 0)  -->
<svg version="1.1" xmlns="http://www.w3.org/2000/svg" xmlns:xlink="http://www.w3.org/1999/xlink" x="0px" y="0px" width="97.6px"
	 height="144.1px" viewBox="0 0 97.6 144.1" style="enable-background:new 0 0 97.6 144.1;" xml:space="preserve">
<style type="text/css">
	.st0{fill:#FFFFFF;}
	.st1{fill:#6BC62A;}
	.st2{fill:url(#SVGID_1_);}
	.st3{fill:url(#SVGID_2_);}
	.st4{fill:url(#SVGID_3_);}
	.st5{fill:none;stroke:#7A6356;stroke-width:3;stroke-linecap:round;stroke-linejoin:round;stroke-miterlimit:10;}
	.st6{fill:#7A6356;}
	.st7{fill:#FFFFFF;stroke:#7A6356;stroke-width:3;stroke-linecap:round;stroke-linejoin:round;stroke-miterlimit:10;}
	.st8{fill:#009380;}
	.st9{fill:url(#SVGID_4_);}
	.st10{fill:url(#SVGID_5_);}
	.st11{fill:#A60C17;}
	.st12{fill:url(#SVGID_6_);}
	.st13{fill:#E02229;}
	.st14{opacity:0.88;fill:#D50000;enable-background:new    ;}
	.st15{fill:url(#SVGID_7_);}
	.st16{fill:#491B02;}
	.st17{fill:url(#SVGID_8_);}
	.st18{fill:url(#SVGID_9_);}
	.st19{fill:url(#SVGID_10_);}
	.st20{fill:#680200;}
	.st21{fill:#A30B05;}
	.st22{fill:#FF5B56;}
	.st23{fill:#A40000;}
	.st24{opacity:0.5;fill:#D50000;enable-background:new    ;}
	.st25{fill:#6A1100;}
	.st26{opacity:0.43;fill:#FFFFFF;enable-background:new    ;}
	.st27{fill:#006325;}
	.st28{fill:#004B25;}
	.st29{fill:url(#SVGID_11_);}
	.st30{fill:url(#SVGID_12_);}
	.st31{fill:#00923D;}
	.st32{opacity:0.4;fill:#006830;enable-background:new    ;}
	.st33{fill:#006830;}
	.st34{fill:url(#SVGID_13_);}
	.st35{fill:#D6E000;}
	.st36{opacity:0.5;fill:#00923D;enable-background:new    ;}
	.st37{fill:none;stroke:#000000;stroke-width:2;stroke-linecap:round;stroke-linejoin:round;stroke-miterlimit:10;}
	.st38{fill:#00962B;}
	.st39{fill:url(#SVGID_14_);}
	.st40{fill:url(#SVGID_15_);}
	.st41{fill:url(#SVGID_16_);}
	.st42{fill:url(#SVGID_17_);}
	.st43{fill:url(#SVGID_18_);}
</style>
<g id="Layer_2">
	<rect x="-1201" y="-98.6" class="st0" width="1146.2" height="404.9"/>
</g>
<g id="green">
	<g>
		<path class="st1" d="M-508,152.5c0,0-4-20.3,18.1-24.4C-489.9,128.1-486.1,145.4-508,152.5z"/>
		<path class="st1" d="M-511.3,152.8c0,0-20.3,7.5-28.1-13.7C-539.3,139.1-522,132.3-511.3,152.8z"/>
		<path class="st1" d="M-512.4,140.8c0,0-17.7-11.7-4.8-30.1C-517.2,110.7-501.7,120.4-512.4,140.8z"/>
		<g>
			<path class="st1" d="M-513.6,138.2c0,0,0.4-2.1,1.3-0.4c1.6,3.1,4.1,11.2,4.2,14.7c0.2,5.4-0.1,11.6-1.1,15.2
				c-1,3.6-2.8,6.5-4.5,8.3c-1.6,1.8-3,2.5-3.1,2.4c-0.1-0.1,1-1.1,2.4-2.9c1.4-1.8-0.5,1.2,1.7-11.2
				C-510.8,153.8-513.6,138.2-513.6,138.2z"/>
		</g>
	</g>
</g>
<g id="fire">
</g>
<g id="Layer_1">
	<g>
		
			<linearGradient id="SVGID_1_" gradientUnits="userSpaceOnUse" x1="-801.5361" y1="759.7829" x2="-729.0442" y2="759.7829" gradientTransform="matrix(-3.274567e-02 -0.9994 -0.8688 2.845226e-02 -92.8614 -637.777)">
			<stop  offset="0.1522" style="stop-color:#FF3A2D"/>
			<stop  offset="0.1907" style="stop-color:#FF462A"/>
			<stop  offset="0.4015" style="stop-color:#FF811B"/>
			<stop  offset="0.5953" style="stop-color:#FFB00F"/>
			<stop  offset="0.7658" style="stop-color:#FFD207"/>
			<stop  offset="0.9065" style="stop-color:#FFE702"/>
			<stop  offset="1" style="stop-color:#FFEE00"/>
		</linearGradient>
		<path class="st2" d="M-729.6,185c-0.1,0-0.1,0-0.1-0.1c-0.6-1.4-13.5-16.4-13.1-27.9c0.4-12.1,2.8-27.1,3-29
			c0.3-3.5,4.5,11,5.3,12.1c0.1,0.1,0.3,0,0.3-0.1c-0.9-2.2-1.2-8.2-0.3-12.4c1-4.2,6.1-11.9,8.3-15c0.3-0.4,0.9-0.2,0.9,0.3
			c0,2.3,1,9.8,3.7,12.5c3.7,3.6,11.5,15.2,7.9,27.8C-717.3,165.5-725.5,185.2-729.6,185z"/>
		
			<linearGradient id="SVGID_2_" gradientUnits="userSpaceOnUse" x1="-797.7835" y1="757.9508" x2="-749.3341" y2="757.9508" gradientTransform="matrix(-3.274567e-02 -0.9994 -0.8688 2.845226e-02 -92.8614 -637.777)">
			<stop  offset="0.1522" style="stop-color:#FF5A19"/>
			<stop  offset="1" style="stop-color:#FFEE00"/>
		</linearGradient>
		<path class="st3" d="M-728.4,181.2c0,0-7.6-21.5-3.8-29.7c3.8-8.2,5.4-12.2,4.3-17.1c-1.8-8,10.8,14.4,8.9,22.6
			C-721.1,165.1-728.4,181.2-728.4,181.2z"/>
		
			<linearGradient id="SVGID_3_" gradientUnits="userSpaceOnUse" x1="-796.5401" y1="758.7748" x2="-761.6044" y2="758.7748" gradientTransform="matrix(-3.274567e-02 -0.9994 -0.8688 2.845226e-02 -92.8614 -637.777)">
			<stop  offset="0.1522" style="stop-color:#FFB02A"/>
			<stop  offset="0.9393" style="stop-color:#FFEE00"/>
		</linearGradient>
		<path class="st4" d="M-728.6,180c0,0-2.9-15.1-2.5-20.2c0.3-5,2.3-7.2,4.1-10.9c0.4-0.9,1-2.9,1.3-3.9c0.1-0.2,0.3-0.2,0.4,0
			c0.7,1.5,2.5,6,2.8,10.2C-721.9,160.4-728.6,180-728.6,180z"/>
	</g>
	<line class="st5" x1="-728.4" y1="60.4" x2="-510.8" y2="60.4"/>
	<circle class="st6" cx="-619.6" cy="37" r="3.8"/>
	<path class="st6" d="M-612.2,16.7c-3.4-4.1-5.8-11.8-6.9-15.2c-0.1-0.5-0.8-0.5-1,0c-0.8,3-2.9,9.3-6.9,14.7
		c-3.7,5,0.4,12.3,7.3,12.3c0,0,0,0,0.1,0c0,0,0,0,0.1,0C-612.7,28.5-608.3,21.5-612.2,16.7z M-618.8,25.4c-3.4,0.6-6.2-2.3-5.7-5.7
		c0.3-2,2-3.7,4-4c3.4-0.6,6.2,2.3,5.7,5.7C-615.1,23.5-616.8,25.1-618.8,25.4z"/>
	<line class="st5" x1="-619.6" y1="60.4" x2="-619.6" y2="27.2"/>
	<circle class="st7" cx="-619.6" cy="59.8" r="12"/>
	<g>
		<path class="st8" d="M-558.6,170.3c9.5,17.3,27,28.8,47,28.8c20,0,37.5-11.6,47-28.8H-558.6z"/>
		<polygon class="st5" points="-511.6,62 -559,170.3 -464.3,170.3 		"/>
		<circle class="st1" cx="-511.6" cy="61.5" r="6.5"/>
	</g>
	<g>
		<linearGradient id="SVGID_4_" gradientUnits="userSpaceOnUse" x1="-774.4487" y1="184.6853" x2="-680.5145" y2="184.6853">
			<stop  offset="0" style="stop-color:#FF3A2D"/>
			<stop  offset="1" style="stop-color:#D50000"/>
		</linearGradient>
		<path class="st9" d="M-774.4,170.3c9.5,17.3,27,28.8,47,28.8s37.5-11.6,47-28.8H-774.4z"/>
		<polygon class="st5" points="-727.5,62 -774.8,170.3 -680.2,170.3 		"/>
		<linearGradient id="SVGID_5_" gradientUnits="userSpaceOnUse" x1="-734.0091" y1="61.4793" x2="-720.9542" y2="61.4793">
			<stop  offset="0" style="stop-color:#FF3A2D"/>
			<stop  offset="1" style="stop-color:#D50000"/>
		</linearGradient>
		<circle class="st10" cx="-727.5" cy="61.5" r="6.5"/>
	</g>
	<g>
		<path class="st11" d="M-911.8,108.5c0,0-0.2-1.8-9.7-1.8c-4.9,0-10.3-1.8-10.9-6.7c-1.1-8.8,9.7-19.4,22.5-29.1
			c12.8-9.7-29.1-16.4-37.6-12.1c-8.5,4.2-27.9,36.4-28.5,44.3c-0.6,7.9,10.9,20,10.9,20l14.6-3L-911.8,108.5z"/>
		<path class="st11" d="M-1016.8,159.5c-0.7-1.8-0.8-18.3,1.2-17.6s13,0.3,13,0.3s-15-17.2-12.4-18.5c2.7-1.3,23.9-1.3,22.7-4.4
			c-1.2-3-22.4-8.8-19.8-10.1c2.6-1.3,9.7-14.2,9.7-14.2s-18.6-1.4-16.9-2.6s11.5-10.2,11.5-10.2l-13.4-12.9l13.3-6.1
			c0,0-7-15-5.2-15.2l26.7,2.2l6.7,99L-1016.8,159.5"/>
		<path class="st11" d="M-1016.8,159.5l-10.3-9.1l-8.6,16l-2.9-15.4l-14.2,3.1l-4-11l-6.7,6.7c0,0,20,20,26.7,25.5
			c6.7,5.5,27.3,3,27.3,3L-1016.8,159.5z"/>
		
			<linearGradient id="SVGID_6_" gradientUnits="userSpaceOnUse" x1="-924.1901" y1="1106.1995" x2="-838.1096" y2="1106.1995" gradientTransform="matrix(0.9906 -0.1366 -0.1366 -0.9906 101.9014 1052.6411)">
			<stop  offset="0" style="stop-color:#E6E6E6"/>
			<stop  offset="1" style="stop-color:#FF9300"/>
		</linearGradient>
		<path class="st12" d="M-952.9,96.8l6.1,2.8l-1.1-8.2l7.5,3.8l-1-7.9c0,0,6.2,2.3,7.2,1.8s2.9-7.1,2.9-7.1l4.4,2.2l1.7-5.4l5,4.7
			l2.4-5.5l4.3,0.9l1-6.2l8.7,3.6l2.2-7.2l6.1,4.4l0.1-9.2c0,0,8.2,7.2,8,6c-0.1-1.2-0.9-8.7-0.9-8.7s8.5,5.5,8.2,4.8
			c-0.3-0.7-3-12.1-3-12.1l-8.9-0.2l-71.5,37.6L-952.9,96.8z"/>
		<path class="st13" d="M-952.4,184.8c0,0-6.7,16.7-7.3,20.4c-0.6,3.6,9.3,5.3,10.2,7.9c0.9,2.6-6.4,1.2-6.4,1.2s-2.5,2.4-4.8,1.8
			c-1.5-0.4-8.3-0.9-12.9-1.3c-2.3-0.2-4-2.3-3.7-4.6l2.8-20.3C-974.5,190-953.8,175.4-952.4,184.8z"/>
		<path class="st14" d="M-976.7,205.4c0,0,9.1-7.5,14.6-9.3s3.9,4.2,3.9,4.2l5.8-15.7c0,0-19.7,3.1-20.2,3.7s-3.1,5.1-3.1,5.1
			L-976.7,205.4z"/>
		<g>
			
				<linearGradient id="SVGID_7_" gradientUnits="userSpaceOnUse" x1="-1031.2911" y1="1073.2323" x2="-837.8434" y2="1073.2323" gradientTransform="matrix(0.9906 -0.1366 -0.1366 -0.9906 101.9014 1052.6411)">
				<stop  offset="0" style="stop-color:#FF3A2D"/>
				<stop  offset="1" style="stop-color:#D50000"/>
			</linearGradient>
			<path class="st15" d="M-953.4,147.5c1.7,5.6,5.9,17.6,6.8,26.4c0.9,8.8-6.6,16.7-14.7,19.3s-12.6,3.3-19.9,5.6
				c-4.1,3.9-8.9,7.3-12.7,11.7c5.1,0.9,11.6,2,15,6.2c-1.6,1.7-3.4,2.8-5.6,3.1c-3.5,0.5-5.6,0.8-9.4,1.3
				c-2.6,0.3-6.9-0.3-10.7-0.6c-2.8-0.2-4.9-2.6-5-5.4c-0.1-5.1,0.4-9.7-0.1-15.3c-25.1-1.8-37.8-29.4-53.9-50
				c10.2-0.6,23.3,17.4,33.4,17c10.1-0.4,31.8-29,35.4-39.2s-8.8-26.3-13.5-40.4c-4.7-14.2-7.7-24.6,10-38.1s65.5-48,82.3-36.3
				c16.8,11.8,41.6,33.9,31.9,45.2c-9.6,11.3-72.3,27.4-74.2,47.4c-1.9,20,4.4,12.1,12.5,9.4c7.4-2.4,29.2-11.4,34-6.5
				s-12.7,8.4-27.8,11.8c-14.3,3.2-19.3,10.1-20.9,10.3c-1.6,0.2,3.9,6.8,4.8,9.6C-954.6,142.7-955.1,142-953.4,147.5z"/>
		</g>
		<path class="st16" d="M-954.3,214.6c0,0-0.6-4.1,1-4c1.6,0.1,4.6,1.9,5.2,3.1C-947.6,214.9-954.3,214.6-954.3,214.6z"/>
		<path class="st16" d="M-961.6,216c0,0-0.6-3.5,1.8-3.5c2.4,0,5.5,1.2,6.1,3C-953.1,217.3-961.6,216-961.6,216z"/>
		<path class="st16" d="M-982.3,218.7c0,0-0.6-4.1,1-4c1.6,0.1,4.6,1.9,5.2,3.1C-975.5,219-982.3,218.7-982.3,218.7z"/>
		<path class="st16" d="M-989.5,220.1c0,0-0.6-3.5,1.8-3.5s5.5,1.2,6.1,3C-981,221.4-989.5,220.1-989.5,220.1z"/>
		<path class="st14" d="M-981,198.4c0,0-27.3,1.2-28.5,0.6s0.4,10.9,0.2,13.3c-0.2,2.4,4.7-3.6,13.8-6.6S-981,198.4-981,198.4z"/>
		<g>
			
				<linearGradient id="SVGID_8_" gradientUnits="userSpaceOnUse" x1="-905.7241" y1="759.835" x2="-802.6597" y2="759.835" gradientTransform="matrix(0.9932 -0.1162 -0.101 -0.8634 55.5756 643.9923)">
				<stop  offset="0.1522" style="stop-color:#FF3A2D"/>
				<stop  offset="0.1907" style="stop-color:#FF462A"/>
				<stop  offset="0.4015" style="stop-color:#FF811B"/>
				<stop  offset="0.5953" style="stop-color:#FFB00F"/>
				<stop  offset="0.7658" style="stop-color:#FFD207"/>
				<stop  offset="0.9065" style="stop-color:#FFE702"/>
				<stop  offset="1" style="stop-color:#FFEE00"/>
			</linearGradient>
			<path class="st17" d="M-920.9,91.5c0-0.1,0-0.2,0.1-0.2c1.9-0.9,27.6-13.6,37-15.2c11.3-1.9,21-0.7,26.6-5.5
				c3.9-3.3,4.4-6.3,4.4-7.6c0-0.2,0.3-0.3,0.4-0.1c1.2,1.9,4.1,7.3,1.8,10.5c-2.1,2.9-4.6,5.3-6.1,6.5c-0.2,0.2,0,0.4,0.2,0.3
				c3-1.4,10.5-4.8,14.8-5.6c7.6-1.4,18.1,1.6,22.8,4.2c0.6,0.3,0.4,1.2-0.3,1.3c-3.4,0.3-10.2,1.4-13.7,5.3
				c-4.8,5.3-21.6,27-40.1,23.6C-891.4,105.7-920.8,97-920.9,91.5z"/>
			
				<linearGradient id="SVGID_9_" gradientUnits="userSpaceOnUse" x1="-900.2903" y1="754.8636" x2="-834.3482" y2="754.8636" gradientTransform="matrix(0.9932 -0.1162 -0.101 -0.8634 55.5756 643.9923)">
				<stop  offset="0.1522" style="stop-color:#FF5A19"/>
				<stop  offset="1" style="stop-color:#FFEE00"/>
			</linearGradient>
			<path class="st18" d="M-915.3,92.7c0,0,30-12.5,42.3-8.4s13.7,10,20.7,8c11.3-3.3-8.6,10.3-20.6,8.6
				C-884.9,99.1-915.3,92.7-915.3,92.7z"/>
			
				<linearGradient id="SVGID_10_" gradientUnits="userSpaceOnUse" x1="-898.4966" y1="755.6391" x2="-847.9987" y2="755.6391" gradientTransform="matrix(0.9932 -0.1162 -0.101 -0.8634 55.5756 643.9923)">
				<stop  offset="0.1522" style="stop-color:#FFB02A"/>
				<stop  offset="0.9393" style="stop-color:#FFEE00"/>
			</linearGradient>
			<path class="st19" d="M-913.6,92.3c0,0,21.5-5.6,28.8-5.6c7.3-0.1,10.6,2.3,16.2,4.3c1.3,0.5,4.3,1,5.8,1.3
				c0.3,0,0.3,0.4,0.1,0.5c-2.1,1-8.4,3.9-14.4,4.9C-884.6,99-913.6,92.3-913.6,92.3z"/>
		</g>
		<g>
			<path class="st20" d="M-959.4,80c0,0-3.2-1.9-6.4-2.4s-8.1-0.6-8.1-0.6l1.7-0.9c0,0-0.7-0.2-1.5-1.1c-0.7-0.7-1.8-3.1-1.8-3.1
				s3.5,0.4,7.4,0.8c5.5,0.7,8.2,3.8,8.2,3.8h-1.1C-961,76.6-959.6,78.7-959.4,80z"/>
			<path class="st21" d="M-961.4,75.8c0,0-1.6-1.5-4.8-2.3s-7-0.9-7-0.9l2.7,1l-3.2-0.5c0,0,1.7,1,4.9,1.6c3.2,0.6,7.3,2.3,7.3,2.3
				l-0.8-1.4L-961.4,75.8z"/>
		</g>
		<path class="st11" d="M-960.3,138.8c0,0,0.8,0.3,5.4,0.6c4.6,0.3,6-7.3,9-8s1.1,5.9,1.6,6.6c0.4,0.7,1.5-4.1,1.5-4.1
			s0.1,4.3,0.8,3.9s1-5.4,1-5.4s1.2,8.3,2.1,2.5c1-5.8-3.4-7.7-6.1-8.6s-6.9,7.1-9.6,7.8c-2.6,0.6-6.7-2.8-6.7-2.8L-960.3,138.8z"/>
		<g>
			<circle cx="-965.7" cy="85.1" r="4.2"/>
			<circle class="st0" cx="-965.4" cy="84.3" r="1.5"/>
			<circle class="st0" cx="-967" cy="86.8" r="0.7"/>
		</g>
		<path class="st11" d="M-985.4,144.5c0,0,0.8,0.1,5.3-1s3.5-8.8,6.1-10.3c2.6-1.5,2.8,5.3,3.5,5.9c0.6,0.6,0.2-4.4,0.2-4.4
			s1.4,4.1,1.9,3.5c0.6-0.6-0.7-5.5-0.7-5.5s3.6,7.5,2.8,1.7s-5.5-6.3-8.4-6.3c-2.9,0-4.5,8.9-6.8,10.3c-2.3,1.4-7.3-0.6-7.3-0.6
			L-985.4,144.5z"/>
		<g>
			<path class="st22" d="M-919.1,51c3.2,6.1,7.8,10.1,10.2,8.8c2.5-1.3,1.9-7.3-1.3-13.4s-7.8-10.1-10.2-8.8
				C-922.8,38.9-922.2,44.9-919.1,51z"/>
			<path class="st23" d="M-920,51.6c3.2,6.1,7.8,10.1,10.2,8.8c2.5-1.3,1.9-7.3-1.3-13.4c-3.2-6.1-7.8-10.1-10.2-8.8
				C-923.8,39.5-923.2,45.5-920,51.6z"/>
		</g>
		<g>
			<path class="st22" d="M-903.3,38.1c2.5,4.7,6,7.8,7.9,6.8c1.9-1,1.5-5.7-1-10.4s-6-7.8-7.9-6.8
				C-906.2,28.7-905.8,33.3-903.3,38.1z"/>
			<path class="st23" d="M-904.1,38.6c2.5,4.7,6,7.8,7.9,6.8c1.9-1,1.5-5.7-1-10.4s-6-7.8-7.9-6.8C-907,29.2-906.5,33.8-904.1,38.6z
				"/>
		</g>
		<g>
			<path class="st24" d="M-917.6,31.9c0,0-4.8-2.5-8.6-0.4c-7.2,4-2.9,14.8-2.9,14.8s-2.3-6.3,4.9-12.2
				C-920.5,31.3-917.6,31.9-917.6,31.9z"/>
			<path class="st25" d="M-917.6,31.9c0,0-5.4,0.7-9.3,5.9c-3.9,5.2-1.2,11-1.2,11s-3.4-6,0.1-11.4
				C-924.5,31.9-917.6,31.9-917.6,31.9z"/>
			<path class="st26" d="M-919.5,33.5c0,0-5.8,3.5-6.8,8.9s1.9,9.4,1.9,9.4s-4-3.6-3.5-9.5C-927.3,36.2-919.5,33.5-919.5,33.5z"/>
		</g>
		<g>
			<path class="st24" d="M-904.1,24.4c0,0-2.8-1.5-5.1-0.2c-4.3,2.4-1.7,8.8-1.7,8.8s-1.3-3.7,2.9-7.2
				C-905.8,24-904.1,24.4-904.1,24.4z"/>
			<path class="st25" d="M-904.1,24.4c0,0-3.2,0.4-5.5,3.5c-2.3,3.1-0.7,6.5-0.7,6.5s-2-3.6,0.1-6.8
				C-908.2,24.4-904.1,24.4-904.1,24.4z"/>
			<path class="st26" d="M-905.3,25.4c0,0-3.4,2-4,5.2c-0.6,3.2,1.2,5.6,1.2,5.6s-2.4-2.2-2.1-5.6C-909.8,27-905.3,25.4-905.3,25.4z
				"/>
		</g>
		<path class="st11" d="M-998,49c0,0,11.5-10.3,32.2-19.4c19.7-8.7,29.7-9.1,29.7-9.1s-4.9-12.7,6.7-17.6s-11.5-12.1-22.5,0
			c-6.9,7.7-10.3-6.7-10.3-6.7l-9.1,21.9l-12.1-3.6l-3.6,18.8l-13.4,1.2L-998,49z"/>
	</g>
	<g>
		<g>
			<path class="st27" d="M-305.7,149.1c0,0-21.9-3.7-22.9,0.4c-0.7,2.9,23.4,2.8,23.4,2.8L-305.7,149.1z"/>
			<path class="st27" d="M-325.7,145.7c0,0-5.9-7.3-6.6-5.1s2.1,5.7,2.1,5.7s-8.1-3.6-9.1-2.4s7.9,4.1,7.4,4.2s-8.8-0.6-8.5,0.6
				c0.2,1.2,8.1,1.3,8.2,1.8s-7.7,1.2-7.2,2.1c0.4,0.9,7.4,0.1,8.2,0.2c0.8,0.1-4.9,2.4-4.5,3.4c0.4,0.9,5.4-1.3,6.3-1.9
				c0.9-0.7,5-0.4,6.5-1.7s0.9-4.5,0-5.3C-323.8,146.4-325.7,145.7-325.7,145.7z"/>
		</g>
		<path class="st28" d="M-346.3,94.7c4.9,0,12.8,0.5,16.6-1.6c7.7-4.4-14.5-13.5-27.3-23.3s29.1-16.4,37.6-12.1s37.7,28.6,38.3,36.5
			c0.6,7.9-20.7,27.9-20.7,27.9l-14.6-3C-316.3,119-355.8,94.7-346.3,94.7z"/>
		
			<linearGradient id="SVGID_11_" gradientUnits="userSpaceOnUse" x1="-355.3672" y1="912.1588" x2="-307.1494" y2="863.9411" gradientTransform="matrix(1 0 0 -1 0 963.494)">
			<stop  offset="0" style="stop-color:#FFC76D"/>
			<stop  offset="1" style="stop-color:#E8E3E0"/>
		</linearGradient>
		<path class="st29" d="M-367.3,63.3c0,0-1.5,4.1,0.6,4.6s4.3-1.1,4.3-1.1s-1.1,8.6,1.6,7.5s4.8-2.6,4.8-2.6s-1,5.9,1.6,6.4
			c2.7,0.5,5.4-2.8,5.4-2.8s0,7.1,2.6,7.1s5.7-3.2,5.7-3.2s-2.5,5.3,1.8,5.9c4.3,0.5,5.4-1.6,5.4-1.6s0.5,4.4,3.2,4.8
			c3.7,0.5,5.1-1.9,5.1-1.9s3,4,4,3.5c1.1-0.5,5.9-2.7,5.9-2.7s-0.5,3.7,2.1,3.7s7-3.7,7-3.7s0,3.7,2.1,3.2s3.7-3.7,3.7-3.7
			s1.1,2.7,3.2,2.1c2.1-0.5,4.3-4.3,4.3-4.3L-367.3,63.3z"/>
		
			<linearGradient id="SVGID_12_" gradientUnits="userSpaceOnUse" x1="-389.9086" y1="730.7274" x2="-330.6239" y2="724.5519" gradientTransform="matrix(0.9996 2.982325e-02 2.982325e-02 -0.9996 19.1731 842.6384)">
			<stop  offset="0" style="stop-color:#FFC76D"/>
			<stop  offset="1" style="stop-color:#E8E3E0"/>
		</linearGradient>
		<path class="st30" d="M-289.6,107.5c0,0-3.2-7.5-6.4-5.4c-2.9,1.9-1.6,4.3-1.6,4.3s-1.6-3.7-3.7-2.1s-2.1,4.3-2.1,4.3
			s-1-5.3-3.7-3.2c-2.7,2.1-2.8,5.1-2.8,5.1s0.2-5.6-2.5-4.6s-2.2,2.8-2.2,2.8s-0.4-4.4-3.1-3.4s-3.3,2.1-3.3,2.1s-0.9-5.2-3.1-3.2
			c-2.2,2.1-2.7,2.5-2.7,2.5s0.6-5.1-2.1-4.6s-3.7,1.7-3.7,1.7s1.6-3.8-1.6-3.9s-3,1.9-3,1.9s0.4-6.1-2.3-4.1c-2.7,2.1-3,2.3-3,2.3
			s4.3-8.3,0.9-8.2c-3.4,0.1-3.8,5.4-3.8,5.4s1.6-7.5-0.5-7s-1.2,5.4-1.2,5.4s10.9,10.6,11.9,11.2s41.4,12,41.4,12L-289.6,107.5z"/>
		<g>
			<path class="st31" d="M-308.3,187.6c0,0,6.7,16.7,7.4,20.4c0.6,3.6-9.3,5.4-10.2,8c-0.9,2.6,6.4,1.1,6.4,1.1s2.5,2.4,4.8,1.8
				c1.5-0.4,8.3-1,12.9-1.3c2.3-0.2,4-2.3,3.7-4.6l-2.8-20.2C-286.2,192.7-307,178.2-308.3,187.6z"/>
			<path class="st32" d="M-284,208.1c0,0-9.1-7.5-14.6-9.3s-3.9,4.2-3.9,4.2l-5.8-15.7c0,0,19.7,3,20.2,3.6s3.1,5.1,3.1,5.1
				L-284,208.1z"/>
			<path class="st16" d="M-306.3,217.4c0,0,0.6-4.1-1-4s-4.6,1.9-5.2,3.1C-313.1,217.7-306.3,217.4-306.3,217.4z"/>
			<path class="st16" d="M-299.1,218.7c0,0,0.6-3.5-1.9-3.5c-2.4,0-5.5,1.2-6.1,3S-299.1,218.7-299.1,218.7z"/>
		</g>
		<path class="st33" d="M-256.9,165.9c0,0,9.1-22.2,6.4-23.6c-2.7-1.3-10.9-7.2-9.6-10.2c1.2-3,23.5-11.5,20.9-12.8
			c-2.7-1.3-9.6-16.6-9.6-16.6s23.3-5.9,21.6-7.1s-11.5-10.2-11.5-10.2l13.4-12.9l-13.3-6.1c0,0-4.4-13,0.9-16.8
			c5.4-3.7-24.6,1.1-24.6,1.1l-28.4,98"/>
		<path class="st33" d="M-259.1,163.7l17.1-13.3l8.6,12.3l2.9-11.6l13.7,2l4.6-9.9l6.7,6.7c0,0-20,20-26.7,25.5s-27.3,3-27.3,3
			L-259.1,163.7z"/>
		
			<linearGradient id="SVGID_13_" gradientUnits="userSpaceOnUse" x1="-368.8215" y1="846.4146" x2="-205.6215" y2="846.4146" gradientTransform="matrix(1 0 0 -1 0 963.494)">
			<stop  offset="0" style="stop-color:#6BC62A"/>
			<stop  offset="1" style="stop-color:#00B53E"/>
		</linearGradient>
		<path class="st34" d="M-238.9,166.8c-31.9-3.1-29.2-27.7-20.1-43.2c0.1-0.1,0.1-0.2,0-0.3c12.8-13.2,26.4-39.3,23.1-48.9
			c-4.3-12.3-76.6-66.1-99.6-61.3s-33.3,48.5-33.3,48.5c4,15.2,49,32.2,68.8,26.5c7.7-2.3,13.5-3.7,16.9,2.9c1.8,3.5,0,8.1-18.2,15
			c-15.5,5.9-39.4-4.5-43.4-10.7c-3.4-5.4-12.9,2.5-3.8,10.1c6,5,20.4,13.9,43.8,20.4c-2.2,3.3-5.1,8.3-5.8,10.2
			c-1,2.8-4.1,8.9-5.9,14.5c-1.7,5.6-5.5,12.6-6.4,21.4c-0.9,8.8,6.9,18.9,14.9,21.5s12.6,3.3,19.9,5.6c4.1,3.9,8.9,7.3,12.7,11.7
			c-5.1,0.9-11.6,2-15,6.2c1.6,1.7,3.4,2.8,5.6,3.1c3.5,0.5,5.6,0.8,9.4,1.3c2.6,0.3,6.9-0.3,10.7-0.6c2.8-0.2,4.9-2.6,5-5.4
			c0.1-5.1-0.4-9.7,0.1-15.3c25.1-1.8,37.8-29.4,53.9-50C-215.7,149.2-228.9,167.8-238.9,166.8z"/>
		<g>
			<path class="st1" d="M-338.3,135.7c0,0-13.3-8.3-4.1-22.6C-342.3,113-330.8,119.9-338.3,135.7z"/>
			<path class="st1" d="M-340.3,137.7c0,0-5.8,14.9-21.5,8.3C-361.9,146-357.2,133-340.3,137.7z"/>
			<path class="st1" d="M-346.9,132c0,0-15.6,3.7-19.1-13C-366,119-352.7,115.5-346.9,132z"/>
			<g>
				<path class="st1" d="M-349,131.3c0-0.1,7.6,1.7,10.7,4.4s6.3,6.1,7.8,8.5s2.1,5,2.2,6.8s-0.2,3-0.3,2.9c-0.1,0-0.1-1.1-0.4-2.9
					c-0.3-1.7-3.9-4.5-5.3-6.7C-335.6,142-349,131.4-349,131.3z"/>
			</g>
		</g>
		<path class="st16" d="M-286.8,218.7c0,0,0.6-4.1-1-4s-4.6,1.9-5.2,3.1C-293.5,219-286.8,218.7-286.8,218.7z"/>
		<path class="st16" d="M-279.6,220.1c0,0,0.6-3.5-1.8-3.5s-5.5,1.2-6.1,3S-279.6,220.1-279.6,220.1z"/>
		<path class="st32" d="M-288,199.1c0,0,28.4-0.8,28.4,0.5c0,1.1-0.2,10.9,0,13.4s-4.8-4.2-13.9-7.3S-288,199.1-288,199.1z"/>
		<g>
			<g>
				<path class="st35" d="M-335,57.4c-3.2,6.1-7.8,10.1-10.2,8.8c-2.5-1.3-1.9-7.3,1.3-13.4c3.2-6.1,7.8-10.1,10.2-8.8
					C-331.3,45.3-331.8,51.3-335,57.4z"/>
				<path class="st28" d="M-334.1,58.1c-3.2,6.1-7.8,10.1-10.2,8.8c-2.5-1.3-1.9-7.3,1.3-13.4c3.2-6.1,7.8-10.1,10.2-8.8
					C-330.3,45.9-330.9,51.9-334.1,58.1z"/>
			</g>
			<g>
				<path class="st35" d="M-350.8,44.5c-2.5,4.7-6,7.8-7.9,6.8s-1.5-5.7,1-10.4s6-7.8,7.9-6.8C-347.8,35.1-348.3,39.8-350.8,44.5z"
					/>
				<path class="st28" d="M-350,45c-2.5,4.7-6,7.8-7.9,6.8s-1.5-5.7,1-10.4s6-7.8,7.9-6.8S-347.5,40.2-350,45z"/>
			</g>
			<g>
				<path class="st36" d="M-336.5,38.3c0,0,4.8-2.5,8.6-0.4c7.2,4,2.9,14.8,2.9,14.8s2.3-6.3-4.9-12.2
					C-333.5,37.7-336.5,38.3-336.5,38.3z"/>
				<path class="st33" d="M-336.5,38.3c0,0,5.4,0.7,9.3,5.9s1.2,11,1.2,11s3.4-6-0.1-11.4C-329.5,38.3-336.5,38.3-336.5,38.3z"/>
				<path class="st26" d="M-334.5,40c0,0,5.8,3.5,6.8,8.9s-1.9,9.4-1.9,9.4s4-3.6,3.5-9.5C-326.8,42.6-334.5,40-334.5,40z"/>
			</g>
			<g>
				<path class="st36" d="M-350,30.8c0,0,2.8-1.5,5.1-0.2c4.3,2.4,1.7,8.8,1.7,8.8s1.3-3.7-2.9-7.2C-348.2,30.4-350,30.8-350,30.8z"
					/>
				<path class="st33" d="M-350,30.8c0,0,3.2,0.4,5.5,3.5c2.3,3.1,0.7,6.5,0.7,6.5s2-3.6-0.1-6.8C-345.9,30.8-350,30.8-350,30.8z"/>
				<path class="st26" d="M-348.8,31.8c0,0,3.4,2,4,5.2s-1.2,5.6-1.2,5.6s2.4-2.2,2.1-5.6C-344.2,33.4-348.8,31.8-348.8,31.8z"/>
			</g>
		</g>
		<g>
			<g>
				<path class="st33" d="M-269,71c0,0,2.2,2.9,3,6.1s1.4,8,1.4,8l0.7-1.8c0,0,0.3,0.6,1.2,1.4c0.8,0.6,3.2,1.4,3.2,1.4
					s-0.7-3.4-1.6-7.3c-1.2-5.4-4.6-7.8-4.6-7.8l0.1,1.1C-265.5,72.2-267.7,71.1-269,71z"/>
				<path class="st31" d="M-264.6,72.5c0,0,1.7,1.5,2.8,4.6c1.1,3.1,1.6,6.9,1.6,6.9l-1.3-2.5l0.8,3.1c0,0-1.2-1.6-2.1-4.7
					c-0.9-3.2-3-7-3-7l1.5,0.7L-264.6,72.5z"/>
			</g>
			<path class="st37" d="M-274.8,78c0,0,7.6-0.9,5.3,6"/>
		</g>
		<g>
			<path class="st38" d="M-306.1,145.4c-4.2-0.3-22.5,2.5-22.2,6.7c0.2,2.9,23.2-4.4,23.2-4.4S-301.9,145.7-306.1,145.4z"/>
			<path class="st38" d="M-326.7,147.6c0,0-7.9-5.2-7.8-2.9c0.1,2.2,3.7,4.8,3.7,4.8s-8.8-1-9.4,0.5s8.8,1.6,8.3,1.8
				c-0.4,0.2-8.6,2-8,3.1s8.1-1.2,8.4-0.8c0.2,0.4-7,3.4-6.3,4.2s7.1-2.1,7.9-2.2c0.8-0.1-4,3.7-3.2,4.6c0.7,0.8,4.7-2.8,5.4-3.7
				s4.6-1.9,5.7-3.6c1.1-1.7-0.5-4.6-1.6-5.1S-326.7,147.6-326.7,147.6z"/>
		</g>
		<path class="st33" d="M-258,52.4c0,0-12.3-10.5-33-19.6c-19.7-8.7-33.4-12-33.4-12s0.1-19.7,18.7-24.1c9.1-2.1,24.5,3.8,22,4.8
			c-10.7,4.3-11.4,22.4-2.1,15c8-6.4,20.9,1.1,20.9,1.1s-13.1,8.2-8.6,9.1c5.4,1.1,18.6-2.5,15,1.6c-4.3,4.8-9.6,8.6-9.6,8.6
			s24.1-4.8,19.8,1.1S-258,52.4-258,52.4z"/>
	</g>
	<g>
		<g>
			<circle class="st6" cx="14.6" cy="-56.3" r="3.8"/>
		</g>
		<g>
			<path class="st6" d="M22-76.6c-3.4-4.1-5.8-11.8-6.9-15.2c-0.1-0.5-0.8-0.5-1,0c-0.8,3-2.9,9.3-6.9,14.7
				c-3.7,5,0.4,12.3,7.3,12.3c0,0,0,0,0.1,0c0,0,0,0,0.1,0C21.5-64.8,25.9-71.8,22-76.6z M15.4-67.8c-3.4,0.6-6.2-2.3-5.7-5.7
				c0.3-2,2-3.7,4-4c3.4-0.6,6.2,2.3,5.7,5.7C19.1-69.8,17.4-68.2,15.4-67.8z"/>
		</g>
		<path class="st6" d="M14.6-67.6c-0.8,0-1.5,0.7-1.5,1.5v19.3h3v-19.3C16.1-66.9,15.5-67.6,14.6-67.6z"/>
	</g>
	<g>
		<path class="st6" d="M268-77H50.4c-0.8,0-1.5-0.7-1.5-1.5s0.7-1.5,1.5-1.5H268c0.8,0,1.5,0.7,1.5,1.5S268.8-77,268-77z"/>
	</g>
	<g>
		
			<linearGradient id="SVGID_14_" gradientUnits="userSpaceOnUse" x1="-772.0217" y1="-134.8377" x2="-699.5297" y2="-134.8377" gradientTransform="matrix(-3.274567e-02 -0.9994 -0.8688 2.845226e-02 -92.8614 -637.777)">
			<stop  offset="0.1522" style="stop-color:#FF3A2D"/>
			<stop  offset="0.1907" style="stop-color:#FF462A"/>
			<stop  offset="0.4015" style="stop-color:#FF811B"/>
			<stop  offset="0.5953" style="stop-color:#FFB00F"/>
			<stop  offset="0.7658" style="stop-color:#FFD207"/>
			<stop  offset="0.9065" style="stop-color:#FFE702"/>
			<stop  offset="1" style="stop-color:#FFEE00"/>
		</linearGradient>
		<path class="st39" d="M46.7,130.1c-0.1,0-0.1,0-0.1-0.1c-0.6-1.4-13.5-16.4-13.1-27.9c0.4-12.1,2.8-27.1,3-29
			c0.3-3.5,4.5,11,5.3,12.1c0.1,0.1,0.3,0,0.3-0.1c-0.9-2.2-1.2-8.2-0.3-12.4c1-4.2,6.1-11.9,8.3-15c0.3-0.4,0.9-0.2,0.9,0.3
			c0,2.3,1,9.8,3.7,12.5c3.7,3.6,11.5,15.2,7.9,27.8C59,110.6,50.8,130.3,46.7,130.1z"/>
		
			<linearGradient id="SVGID_15_" gradientUnits="userSpaceOnUse" x1="-768.269" y1="-136.6698" x2="-719.8196" y2="-136.6698" gradientTransform="matrix(-3.274567e-02 -0.9994 -0.8688 2.845226e-02 -92.8614 -637.777)">
			<stop  offset="0.1522" style="stop-color:#FF5A19"/>
			<stop  offset="1" style="stop-color:#FFEE00"/>
		</linearGradient>
		<path class="st40" d="M47.9,126.3c0,0-7.6-21.5-3.8-29.7c3.8-8.2,5.4-12.2,4.3-17.1c-1.8-8,10.8,14.4,8.9,22.6
			C55.2,110.2,47.9,126.3,47.9,126.3z"/>
		
			<linearGradient id="SVGID_16_" gradientUnits="userSpaceOnUse" x1="-767.0256" y1="-135.8458" x2="-732.0899" y2="-135.8458" gradientTransform="matrix(-3.274567e-02 -0.9994 -0.8688 2.845226e-02 -92.8614 -637.777)">
			<stop  offset="0.1522" style="stop-color:#FFB02A"/>
			<stop  offset="0.9393" style="stop-color:#FFEE00"/>
		</linearGradient>
		<path class="st41" d="M47.7,125c0,0-2.9-15.1-2.5-20.2c0.3-5,2.3-7.2,4.1-10.9c0.4-0.9,1-2.9,1.3-3.9c0.1-0.2,0.3-0.2,0.4,0
			c0.7,1.5,2.5,6,2.8,10.2C54.4,105.5,47.7,125,47.7,125z"/>
	</g>
	<g>
		<linearGradient id="SVGID_17_" gradientUnits="userSpaceOnUse" x1="1.8506" y1="129.7335" x2="95.7847" y2="129.7335">
			<stop  offset="0" style="stop-color:#FF3A2D"/>
			<stop  offset="1" style="stop-color:#D50000"/>
		</linearGradient>
		<path class="st42" d="M1.9,115.3c9.5,17.3,27,28.8,47,28.8s37.5-11.6,47-28.8H1.9z"/>
		<polygon class="st5" points="48.8,7.1 1.5,115.3 96.1,115.3 		"/>
		<linearGradient id="SVGID_18_" gradientUnits="userSpaceOnUse" x1="42.2902" y1="6.5275" x2="55.3451" y2="6.5275">
			<stop  offset="0" style="stop-color:#FF3A2D"/>
			<stop  offset="1" style="stop-color:#D50000"/>
		</linearGradient>
		<circle class="st43" cx="48.8" cy="6.5" r="6.5"/>
	</g>
	<g>
		<path class="st1" d="M165.7,97.6c0,0-4-20.3,18.1-24.4C183.9,73.1,187.7,90.5,165.7,97.6z"/>
		<path class="st1" d="M162.5,97.8c0,0-20.3,7.5-28.1-13.7C134.4,84.2,151.8,77.3,162.5,97.8z"/>
		<path class="st1" d="M161.4,85.9c0,0-17.7-11.7-4.8-30.1C156.6,55.8,172.1,65.4,161.4,85.9z"/>
		<g>
			<path class="st1" d="M160.2,83.3c0,0,0.4-2.1,1.3-0.4c1.6,3.1,4.1,11.2,4.2,14.7c0.2,5.4-0.1,11.6-1.1,15.2
				c-1,3.6-2.8,6.5-4.5,8.3c-1.6,1.8-3,2.5-3.1,2.4c-0.1-0.1,1-1.1,2.4-2.9c1.4-1.8-0.5,1.2,1.7-11.2
				C163,98.9,160.1,83.3,160.2,83.3z"/>
		</g>
	</g>
	<g>
		<path class="st8" d="M115.2,115.3c9.5,17.3,27,28.8,47,28.8s37.5-11.6,47-28.8H115.2z"/>
		<polygon class="st5" points="162.1,7.1 114.8,115.3 209.4,115.3 		"/>
		<circle class="st1" cx="162.1" cy="6.5" r="6.5"/>
	</g>
	<g>
		<circle class="st0" cx="55.3" cy="-51.4" r="12"/>
		<path class="st6" d="M55.3-37.9c-7.4,0-13.5-6-13.5-13.5s6-13.5,13.5-13.5s13.5,6,13.5,13.5S62.8-37.9,55.3-37.9z M55.3-61.8
			c-5.8,0-10.5,4.7-10.5,10.5s4.7,10.5,10.5,10.5s10.5-4.7,10.5-10.5S61.1-61.8,55.3-61.8z"/>
	</g>
</g>
</svg>
