<?xml version="1.0" encoding="utf-8"?>
<!-- Generator: Adobe Illustrator 23.0.1, SVG Export Plug-In . SVG Version: 6.00 Build 0)  -->
<svg version="1.1" xmlns="http://www.w3.org/2000/svg" xmlns:xlink="http://www.w3.org/1999/xlink" x="0px" y="0px" width="220.6px"
	 height="3px" viewBox="0 0 220.6 3" style="enable-background:new 0 0 220.6 3;" xml:space="preserve">
<style type="text/css">
	.st0{fill:#FFFFFF;}
	.st1{clip-path:url(#SVGID_2_);}
	.st2{fill:#6BC62A;}
	.st3{clip-path:url(#SVGID_4_);}
	.st4{fill:none;stroke:#7A6356;stroke-width:3;stroke-linecap:round;stroke-linejoin:round;stroke-miterlimit:10;}
	.st5{fill:#7A6356;}
	.st6{fill:#FFFFFF;stroke:#7A6356;stroke-width:3;stroke-linecap:round;stroke-linejoin:round;stroke-miterlimit:10;}
	.st7{fill:#009380;}
	.st8{fill:url(#SVGID_5_);}
	.st9{fill:url(#SVGID_6_);}
	.st10{fill:#A60C17;}
	.st11{fill:url(#SVGID_7_);}
	.st12{fill:#E02229;}
	.st13{opacity:0.88;fill:#D50000;enable-background:new    ;}
	.st14{fill:url(#SVGID_8_);}
	.st15{fill:#491B02;}
	.st16{fill:url(#SVGID_9_);}
	.st17{fill:url(#SVGID_10_);}
	.st18{fill:url(#SVGID_11_);}
	.st19{fill:#680200;}
	.st20{fill:#A30B05;}
	.st21{fill:#FF5B56;}
	.st22{fill:#A40000;}
	.st23{opacity:0.5;fill:#D50000;enable-background:new    ;}
	.st24{fill:#6A1100;}
	.st25{opacity:0.43;fill:#FFFFFF;enable-background:new    ;}
	.st26{fill:#006325;}
	.st27{fill:#004B25;}
	.st28{fill:url(#SVGID_12_);}
	.st29{fill:url(#SVGID_13_);}
	.st30{fill:#00923D;}
	.st31{opacity:0.4;fill:#006830;enable-background:new    ;}
	.st32{fill:#006830;}
	.st33{fill:url(#SVGID_14_);}
	.st34{fill:#D6E000;}
	.st35{opacity:0.5;fill:#00923D;enable-background:new    ;}
	.st36{fill:none;stroke:#000000;stroke-width:2;stroke-linecap:round;stroke-linejoin:round;stroke-miterlimit:10;}
	.st37{fill:#00962B;}
	.st38{fill:url(#SVGID_15_);}
	.st39{fill:url(#SVGID_16_);}
	.st40{fill:url(#SVGID_17_);}
	.st41{fill:url(#SVGID_18_);}
	.st42{fill:url(#SVGID_19_);}
	.st43{fill:url(#SVGID_20_);}
	.st44{fill:url(#SVGID_21_);}
	.st45{clip-path:url(#SVGID_23_);}
	.st46{fill:url(#SVGID_24_);}
	.st47{fill:url(#SVGID_25_);}
	.st48{fill:url(#SVGID_26_);}
	.st49{clip-path:url(#SVGID_28_);}
	.st50{fill:url(#SVGID_29_);}
	.st51{fill:url(#SVGID_30_);}
	.st52{fill:url(#SVGID_31_);}
	.st53{fill:url(#SVGID_32_);}
	.st54{fill:url(#SVGID_33_);}
	.st55{fill:url(#SVGID_34_);}
	.st56{fill:url(#SVGID_35_);}
	.st57{fill:url(#SVGID_36_);}
	.st58{fill:url(#SVGID_37_);}
	.st59{fill:url(#SVGID_38_);}
	.st60{fill:url(#SVGID_39_);}
	.st61{fill:url(#SVGID_40_);}
	.st62{fill:url(#SVGID_41_);}
</style>
<g id="Layer_2">
	<rect x="-1249.9" y="-18.6" class="st0" width="1146.2" height="404.9"/>
</g>
<g id="green">
	<g>
		<defs>
			<rect id="SVGID_1_" x="-588.3" y="190.7" width="49.7" height="58"/>
		</defs>
		<clipPath id="SVGID_2_">
			<use xlink:href="#SVGID_1_"  style="overflow:visible;"/>
		</clipPath>
		<g class="st1">
			<path class="st2" d="M-557,232.5c0,0-4-20.3,18.1-24.4C-538.8,208.1-535,225.4-557,232.5z"/>
			<path class="st2" d="M-560.2,232.8c0,0-20.3,7.5-28.1-13.7C-588.3,219.1-570.9,212.3-560.2,232.8z"/>
			<path class="st2" d="M-561.3,220.8c0,0-17.7-11.7-4.8-30.1C-566.1,190.7-550.6,200.4-561.3,220.8z"/>
			<g>
				<path class="st2" d="M-562.5,218.2c0,0,0.4-2.1,1.3-0.4c1.6,3.1,4.1,11.2,4.2,14.7c0.2,5.4-0.1,11.6-1.1,15.2
					c-1,3.6-2.8,6.5-4.5,8.3c-1.6,1.8-3,2.5-3.1,2.4c-0.1-0.1,1-1.1,2.4-2.9c1.4-1.8-0.5,1.2,1.7-11.2
					C-559.7,233.8-562.6,218.2-562.5,218.2z"/>
			</g>
		</g>
	</g>
	<g>
		<defs>
			<rect id="SVGID_3_" x="-7" y="423.3" width="49.7" height="58"/>
		</defs>
		<clipPath id="SVGID_4_">
			<use xlink:href="#SVGID_3_"  style="overflow:visible;"/>
		</clipPath>
		<g class="st3">
			<path class="st2" d="M24.3,465.2c0,0-4-20.3,18.1-24.4C42.5,440.7,46.3,458,24.3,465.2z"/>
			<path class="st2" d="M21.1,465.4c0,0-20.3,7.5-28.1-13.7C-7,451.7,10.4,444.9,21.1,465.4z"/>
			<path class="st2" d="M20,453.5c0,0-17.7-11.7-4.8-30.1C15.2,423.3,30.7,433,20,453.5z"/>
			<g>
				<path class="st2" d="M18.8,450.8c0,0,0.4-2.1,1.3-0.4c1.6,3.1,4.1,11.2,4.2,14.7c0.2,5.4-0.1,11.6-1.1,15.2
					c-1,3.6-2.8,6.5-4.5,8.3c-1.6,1.8-3,2.5-3.1,2.4c-0.1-0.1,1-1.1,2.4-2.9c1.4-1.8-0.5,1.2,1.7-11.2
					C21.6,466.4,18.7,450.9,18.8,450.8z"/>
			</g>
		</g>
	</g>
</g>
<g id="fire">
</g>
<g id="Layer_1">
	<line class="st4" x1="-777.3" y1="140.4" x2="-559.7" y2="140.4"/>
	<circle class="st5" cx="-668.5" cy="117" r="3.8"/>
	<path class="st5" d="M-661.2,96.7c-3.4-4.1-5.8-11.8-6.9-15.2c-0.1-0.5-0.8-0.5-1,0c-0.8,3-2.9,9.3-6.9,14.7
		c-3.7,5,0.4,12.3,7.3,12.3c0,0,0,0,0.1,0c0,0,0,0,0.1,0C-661.6,108.4-657.2,101.5-661.2,96.7z M-667.7,105.4
		c-3.4,0.6-6.2-2.3-5.7-5.7c0.3-2,2-3.7,4-4c3.4-0.6,6.2,2.3,5.7,5.7C-664.1,103.5-665.7,105.1-667.7,105.4z"/>
	<line class="st4" x1="-668.5" y1="140.4" x2="-668.5" y2="107.2"/>
	<circle class="st6" cx="-668.5" cy="139.8" r="12"/>
	<g>
		<path class="st7" d="M-607.6,250.3c9.5,17.3,27,28.8,47,28.8c20,0,37.5-11.6,47-28.8H-607.6z"/>
		<polygon class="st4" points="-560.6,142 -607.9,250.3 -513.3,250.3 		"/>
		<circle class="st2" cx="-560.6" cy="141.5" r="6.5"/>
	</g>
	<g>
		<linearGradient id="SVGID_5_" gradientUnits="userSpaceOnUse" x1="-823.3857" y1="264.681" x2="-729.4515" y2="264.681">
			<stop  offset="0" style="stop-color:#FF3A2D"/>
			<stop  offset="1" style="stop-color:#D50000"/>
		</linearGradient>
		<path class="st8" d="M-823.4,250.3c9.5,17.3,27,28.8,47,28.8s37.5-11.6,47-28.8H-823.4z"/>
		<polygon class="st4" points="-776.4,142 -823.7,250.3 -729.1,250.3 		"/>
		<linearGradient id="SVGID_6_" gradientUnits="userSpaceOnUse" x1="-782.946" y1="141.475" x2="-769.8911" y2="141.475">
			<stop  offset="0" style="stop-color:#FF3A2D"/>
			<stop  offset="1" style="stop-color:#D50000"/>
		</linearGradient>
		<circle class="st9" cx="-776.4" cy="141.5" r="6.5"/>
	</g>
	<g>
		<path class="st10" d="M-960.8,188.5c0,0-0.2-1.8-9.7-1.8c-4.9,0-10.3-1.8-10.9-6.7c-1.1-8.8,9.7-19.4,22.5-29.1
			s-29.1-16.4-37.6-12.1c-8.5,4.2-27.9,36.4-28.5,44.3c-0.6,7.9,10.9,20,10.9,20l14.6-3L-960.8,188.5z"/>
		<path class="st10" d="M-1065.8,239.5c-0.7-1.8-0.8-18.3,1.2-17.6s13,0.3,13,0.3s-15-17.2-12.4-18.5c2.7-1.3,23.9-1.3,22.7-4.4
			c-1.2-3-22.4-8.8-19.8-10.1c2.6-1.3,9.7-14.2,9.7-14.2s-18.6-1.4-16.9-2.6c1.7-1.2,11.5-10.2,11.5-10.2l-13.4-12.9l13.3-6.1
			c0,0-7-15-5.2-15.2l26.7,2.2l6.7,99L-1065.8,239.5"/>
		<path class="st10" d="M-1065.8,239.5l-10.3-9.1l-8.6,16l-2.9-15.4l-14.2,3.1l-4-11l-6.7,6.7c0,0,20,20,26.7,25.5
			c6.7,5.5,27.3,3,27.3,3L-1065.8,239.5z"/>
		
			<linearGradient id="SVGID_7_" gradientUnits="userSpaceOnUse" x1="-973.127" y1="1186.1951" x2="-887.0466" y2="1186.1951" gradientTransform="matrix(0.9906 -0.1366 -0.1366 -0.9906 112.3688 1205.1958)">
			<stop  offset="0" style="stop-color:#E6E6E6"/>
			<stop  offset="1" style="stop-color:#FF9300"/>
		</linearGradient>
		<path class="st11" d="M-1001.9,176.8l6.1,2.8l-1.1-8.2l7.5,3.8l-1-7.9c0,0,6.2,2.3,7.2,1.8s2.9-7.1,2.9-7.1l4.4,2.2l1.7-5.4l5,4.7
			l2.4-5.5l4.3,0.9l1-6.2l8.7,3.6l2.2-7.2l6.1,4.4l0.1-9.2c0,0,8.2,7.2,8,6c-0.1-1.2-0.9-8.7-0.9-8.7s8.5,5.5,8.2,4.8
			c-0.3-0.7-3-12.1-3-12.1l-8.9-0.2l-71.5,37.6L-1001.9,176.8z"/>
		<path class="st12" d="M-1001.4,264.8c0,0-6.7,16.7-7.3,20.4c-0.6,3.6,9.3,5.3,10.2,7.9c0.9,2.6-6.4,1.2-6.4,1.2s-2.5,2.4-4.8,1.8
			c-1.5-0.4-8.3-0.9-12.9-1.3c-2.3-0.2-4-2.3-3.7-4.6l2.8-20.3C-1023.5,270-1002.8,255.4-1001.4,264.8z"/>
		<path class="st13" d="M-1025.7,285.4c0,0,9.1-7.5,14.6-9.3c5.5-1.8,3.9,4.2,3.9,4.2l5.8-15.7c0,0-19.7,3.1-20.2,3.7
			c-0.5,0.6-3.1,5.1-3.1,5.1L-1025.7,285.4z"/>
		<g>
			
				<linearGradient id="SVGID_8_" gradientUnits="userSpaceOnUse" x1="-1080.2281" y1="1153.2279" x2="-886.7805" y2="1153.2279" gradientTransform="matrix(0.9906 -0.1366 -0.1366 -0.9906 112.3688 1205.1958)">
				<stop  offset="0" style="stop-color:#FF3A2D"/>
				<stop  offset="1" style="stop-color:#D50000"/>
			</linearGradient>
			<path class="st14" d="M-1002.4,227.5c1.7,5.6,5.9,17.6,6.8,26.4s-6.6,16.7-14.7,19.3c-8.1,2.6-12.6,3.3-19.9,5.6
				c-4.1,3.9-8.9,7.3-12.7,11.7c5.1,0.9,11.6,2,15,6.2c-1.6,1.7-3.4,2.8-5.6,3.1c-3.5,0.5-5.6,0.8-9.4,1.3
				c-2.6,0.3-6.9-0.3-10.7-0.6c-2.8-0.2-4.9-2.6-5-5.4c-0.1-5.1,0.4-9.7-0.1-15.3c-25.1-1.8-37.8-29.4-53.9-50
				c10.2-0.6,23.3,17.4,33.4,17s31.8-29,35.4-39.2s-8.8-26.3-13.5-40.4c-4.7-14.2-7.7-24.6,10-38.1c17.7-13.5,65.5-48,82.3-36.3
				c16.8,11.8,41.6,33.9,31.9,45.2c-9.6,11.3-72.3,27.4-74.2,47.4c-1.9,20,4.4,12.1,12.5,9.4c7.4-2.4,29.2-11.4,34-6.5
				c4.8,4.9-12.7,8.4-27.8,11.8c-14.3,3.2-19.3,10.1-20.9,10.3c-1.6,0.2,3.9,6.8,4.8,9.6C-1003.6,222.7-1004.1,222-1002.4,227.5z"/>
		</g>
		<path class="st15" d="M-1003.3,294.6c0,0-0.6-4.1,1-4c1.6,0.1,4.6,1.9,5.2,3.1C-996.6,294.9-1003.3,294.6-1003.3,294.6z"/>
		<path class="st15" d="M-1010.6,296c0,0-0.6-3.5,1.8-3.5s5.5,1.2,6.1,3C-1002.1,297.3-1010.6,296-1010.6,296z"/>
		<path class="st15" d="M-1031.3,298.7c0,0-0.6-4.1,1-4c1.6,0.1,4.6,1.9,5.2,3.1S-1031.3,298.7-1031.3,298.7z"/>
		<path class="st15" d="M-1038.5,300.1c0,0-0.6-3.5,1.8-3.5s5.5,1.2,6.1,3C-1030,301.4-1038.5,300.1-1038.5,300.1z"/>
		<path class="st13" d="M-1030,278.4c0,0-27.3,1.2-28.5,0.6c-1.2-0.6,0.4,10.9,0.2,13.3c-0.2,2.4,4.7-3.6,13.8-6.6
			S-1030,278.4-1030,278.4z"/>
		<g>
			
				<linearGradient id="SVGID_9_" gradientUnits="userSpaceOnUse" x1="-954.661" y1="839.8307" x2="-851.5967" y2="839.8307" gradientTransform="matrix(0.9932 -0.1162 -0.101 -0.8634 63.3224 787.3698)">
				<stop  offset="0.1522" style="stop-color:#FF3A2D"/>
				<stop  offset="0.1907" style="stop-color:#FF462A"/>
				<stop  offset="0.4015" style="stop-color:#FF811B"/>
				<stop  offset="0.5953" style="stop-color:#FFB00F"/>
				<stop  offset="0.7658" style="stop-color:#FFD207"/>
				<stop  offset="0.9065" style="stop-color:#FFE702"/>
				<stop  offset="1" style="stop-color:#FFEE00"/>
			</linearGradient>
			<path class="st16" d="M-969.9,171.5c0-0.1,0-0.2,0.1-0.2c1.9-0.9,27.6-13.6,37-15.2c11.3-1.9,21-0.7,26.6-5.5
				c3.9-3.3,4.4-6.3,4.4-7.6c0-0.2,0.3-0.3,0.4-0.1c1.2,1.9,4.1,7.3,1.8,10.5c-2.1,2.9-4.6,5.3-6.1,6.5c-0.2,0.2,0,0.4,0.2,0.3
				c3-1.4,10.5-4.8,14.8-5.6c7.5-1.4,18.1,1.6,22.8,4.2c0.6,0.3,0.4,1.2-0.3,1.3c-3.4,0.3-10.2,1.4-13.7,5.3
				c-4.8,5.3-21.6,27-40.1,23.6C-940.3,185.7-969.7,177-969.9,171.5z"/>
			
				<linearGradient id="SVGID_10_" gradientUnits="userSpaceOnUse" x1="-949.2273" y1="834.8593" x2="-883.2852" y2="834.8593" gradientTransform="matrix(0.9932 -0.1162 -0.101 -0.8634 63.3224 787.3698)">
				<stop  offset="0.1522" style="stop-color:#FF5A19"/>
				<stop  offset="1" style="stop-color:#FFEE00"/>
			</linearGradient>
			<path class="st17" d="M-964.3,172.7c0,0,30-12.5,42.3-8.4c12.3,4.1,13.7,10,20.7,8c11.3-3.3-8.6,10.3-20.6,8.6
				C-933.9,179.1-964.3,172.7-964.3,172.7z"/>
			
				<linearGradient id="SVGID_11_" gradientUnits="userSpaceOnUse" x1="-947.4336" y1="835.6348" x2="-896.9356" y2="835.6348" gradientTransform="matrix(0.9932 -0.1162 -0.101 -0.8634 63.3224 787.3698)">
				<stop  offset="0.1522" style="stop-color:#FFB02A"/>
				<stop  offset="0.9393" style="stop-color:#FFEE00"/>
			</linearGradient>
			<path class="st18" d="M-962.5,172.3c0,0,21.5-5.6,28.8-5.6c7.3-0.1,10.6,2.3,16.2,4.3c1.3,0.5,4.3,1,5.8,1.3
				c0.3,0,0.3,0.4,0.1,0.5c-2.1,1-8.4,3.9-14.4,4.9C-933.5,179-962.5,172.3-962.5,172.3z"/>
		</g>
		<g>
			<path class="st19" d="M-1008.4,160c0,0-3.2-1.9-6.4-2.4c-3.2-0.5-8.1-0.6-8.1-0.6l1.7-0.9c0,0-0.7-0.2-1.5-1.1
				c-0.7-0.7-1.8-3.1-1.8-3.1s3.5,0.4,7.4,0.8c5.5,0.7,8.2,3.8,8.2,3.8h-1.1C-1010,156.6-1008.6,158.7-1008.4,160z"/>
			<path class="st20" d="M-1010.4,155.8c0,0-1.6-1.5-4.8-2.3c-3.2-0.8-7-0.9-7-0.9l2.7,1l-3.2-0.5c0,0,1.7,1,4.9,1.6
				c3.2,0.6,7.3,2.3,7.3,2.3l-0.8-1.4L-1010.4,155.8z"/>
		</g>
		<path class="st10" d="M-1009.3,218.8c0,0,0.8,0.3,5.4,0.6c4.6,0.3,6-7.3,9-8s1.1,5.9,1.6,6.6c0.4,0.7,1.5-4.1,1.5-4.1
			s0.1,4.3,0.8,3.9c0.7-0.4,1-5.4,1-5.4s1.2,8.3,2.1,2.5c1-5.8-3.4-7.7-6.1-8.6c-2.7-0.9-6.9,7.1-9.6,7.8c-2.6,0.6-6.7-2.8-6.7-2.8
			L-1009.3,218.8z"/>
		<g>
			<circle cx="-1014.7" cy="165.1" r="4.2"/>
			<circle class="st0" cx="-1014.4" cy="164.3" r="1.5"/>
			<circle class="st0" cx="-1016" cy="166.8" r="0.7"/>
		</g>
		<path class="st10" d="M-1034.4,224.5c0,0,0.8,0.1,5.3-1s3.5-8.8,6.1-10.3c2.6-1.5,2.8,5.3,3.5,5.9c0.6,0.6,0.2-4.4,0.2-4.4
			s1.4,4.1,1.9,3.5c0.6-0.6-0.7-5.5-0.7-5.5s3.6,7.5,2.8,1.7c-0.8-5.8-5.5-6.3-8.4-6.3c-2.9,0-4.5,8.9-6.8,10.3
			c-2.3,1.4-7.3-0.6-7.3-0.6L-1034.4,224.5z"/>
		<g>
			<path class="st21" d="M-968.1,131c3.2,6.1,7.8,10.1,10.2,8.8c2.5-1.3,1.9-7.3-1.3-13.4c-3.2-6.1-7.8-10.1-10.2-8.8
				C-971.8,118.9-971.2,124.9-968.1,131z"/>
			<path class="st22" d="M-969,131.6c3.2,6.1,7.8,10.1,10.2,8.8c2.5-1.3,1.9-7.3-1.3-13.4c-3.2-6.1-7.8-10.1-10.2-8.8
				C-972.8,119.5-972.2,125.5-969,131.6z"/>
		</g>
		<g>
			<path class="st21" d="M-952.3,118.1c2.5,4.7,6,7.8,7.9,6.8c1.9-1,1.5-5.7-1-10.4c-2.5-4.7-6-7.8-7.9-6.8
				C-955.2,108.7-954.8,113.3-952.3,118.1z"/>
			<path class="st22" d="M-953.1,118.6c2.5,4.7,6,7.8,7.9,6.8c1.9-1,1.5-5.7-1-10.4c-2.5-4.7-6-7.8-7.9-6.8
				C-956,109.2-955.5,113.8-953.1,118.6z"/>
		</g>
		<g>
			<path class="st23" d="M-966.6,111.9c0,0-4.8-2.5-8.6-0.4c-7.2,4-2.9,14.8-2.9,14.8s-2.3-6.3,4.9-12.2
				C-969.5,111.3-966.6,111.9-966.6,111.9z"/>
			<path class="st24" d="M-966.6,111.9c0,0-5.4,0.7-9.3,5.9c-3.9,5.2-1.2,11-1.2,11s-3.4-6,0.1-11.4
				C-973.5,111.9-966.6,111.9-966.6,111.9z"/>
			<path class="st25" d="M-968.5,113.5c0,0-5.8,3.5-6.8,8.9s1.9,9.4,1.9,9.4s-4-3.6-3.5-9.5C-976.3,116.2-968.5,113.5-968.5,113.5z"
				/>
		</g>
		<g>
			<path class="st23" d="M-953.1,104.4c0,0-2.8-1.5-5.1-0.2c-4.3,2.4-1.7,8.8-1.7,8.8s-1.3-3.7,2.9-7.2
				C-954.8,104-953.1,104.4-953.1,104.4z"/>
			<path class="st24" d="M-953.1,104.4c0,0-3.2,0.4-5.5,3.5c-2.3,3.1-0.7,6.5-0.7,6.5s-2-3.6,0.1-6.8
				C-957.2,104.4-953.1,104.4-953.1,104.4z"/>
			<path class="st25" d="M-954.3,105.4c0,0-3.4,2-4,5.2c-0.6,3.2,1.2,5.6,1.2,5.6s-2.4-2.2-2.1-5.6
				C-958.8,107-954.3,105.4-954.3,105.4z"/>
		</g>
		<path class="st10" d="M-1047,129c0,0,11.5-10.3,32.2-19.4c19.7-8.7,29.7-9.1,29.7-9.1s-4.9-12.7,6.7-17.6
			c11.6-4.9-11.5-12.1-22.5,0c-6.9,7.7-10.3-6.7-10.3-6.7l-9.1,21.9l-12.1-3.6l-3.6,18.8l-13.4,1.2L-1047,129z"/>
	</g>
	<g>
		<g>
			<path class="st26" d="M-354.7,229.1c0,0-21.9-3.7-22.9,0.4c-0.7,2.9,23.4,2.8,23.4,2.8L-354.7,229.1z"/>
			<path class="st26" d="M-374.7,225.7c0,0-5.9-7.3-6.6-5.1s2.1,5.7,2.1,5.7s-8.1-3.6-9.1-2.4s7.9,4.1,7.4,4.2s-8.8-0.6-8.5,0.6
				c0.2,1.2,8.1,1.3,8.2,1.8s-7.7,1.2-7.2,2.1c0.4,0.9,7.4,0.1,8.2,0.2c0.8,0.1-4.9,2.4-4.5,3.4c0.4,0.9,5.4-1.3,6.3-1.9
				c0.9-0.7,5-0.4,6.5-1.7s0.9-4.5,0-5.3C-372.8,226.4-374.7,225.7-374.7,225.7z"/>
		</g>
		<path class="st27" d="M-395.3,174.7c4.9,0,12.8,0.5,16.6-1.6c7.7-4.4-14.5-13.5-27.3-23.3c-12.8-9.8,29.1-16.4,37.6-12.1
			c8.5,4.3,37.7,28.6,38.3,36.5c0.6,7.9-20.7,27.9-20.7,27.9l-14.6-3C-365.3,199-404.8,174.7-395.3,174.7z"/>
		
			<linearGradient id="SVGID_12_" gradientUnits="userSpaceOnUse" x1="-404.3041" y1="992.1545" x2="-356.0864" y2="943.9368" gradientTransform="matrix(1 0 0 -1 0 1123.4854)">
			<stop  offset="0" style="stop-color:#FFC76D"/>
			<stop  offset="1" style="stop-color:#E8E3E0"/>
		</linearGradient>
		<path class="st28" d="M-416.3,143.3c0,0-1.5,4.1,0.6,4.6s4.3-1.1,4.3-1.1s-1.1,8.6,1.6,7.5c2.7-1.1,4.8-2.6,4.8-2.6
			s-1,5.9,1.6,6.4c2.7,0.5,5.4-2.8,5.4-2.8s0,7.1,2.6,7.1s5.7-3.2,5.7-3.2s-2.5,5.3,1.8,5.9c4.3,0.5,5.4-1.6,5.4-1.6
			s0.5,4.4,3.2,4.8c3.7,0.5,5.1-1.9,5.1-1.9s3,4,4,3.5c1.1-0.5,5.9-2.7,5.9-2.7s-0.5,3.7,2.1,3.7s7-3.7,7-3.7s0,3.7,2.1,3.2
			s3.7-3.7,3.7-3.7s1.1,2.7,3.2,2.1c2.1-0.5,4.3-4.3,4.3-4.3L-416.3,143.3z"/>
		
			<linearGradient id="SVGID_13_" gradientUnits="userSpaceOnUse" x1="-438.8456" y1="810.723" x2="-379.5609" y2="804.5476" gradientTransform="matrix(0.9996 2.982325e-02 2.982325e-02 -0.9996 16.7678 1004.0572)">
			<stop  offset="0" style="stop-color:#FFC76D"/>
			<stop  offset="1" style="stop-color:#E8E3E0"/>
		</linearGradient>
		<path class="st29" d="M-338.6,187.5c0,0-3.2-7.5-6.4-5.4c-2.9,1.9-1.6,4.3-1.6,4.3s-1.6-3.7-3.7-2.1c-2.1,1.6-2.1,4.3-2.1,4.3
			s-1-5.3-3.7-3.2c-2.7,2.1-2.8,5.1-2.8,5.1s0.2-5.6-2.5-4.6s-2.2,2.8-2.2,2.8s-0.4-4.4-3.1-3.4s-3.3,2.1-3.3,2.1s-0.9-5.2-3.1-3.2
			c-2.2,2.1-2.7,2.5-2.7,2.5s0.6-5.1-2.1-4.6s-3.7,1.7-3.7,1.7s1.6-3.8-1.6-3.9c-3.2-0.1-3,1.9-3,1.9s0.4-6.1-2.3-4.1
			c-2.7,2.1-3,2.3-3,2.3s4.3-8.3,0.9-8.2c-3.4,0.1-3.8,5.4-3.8,5.4s1.6-7.5-0.5-7s-1.2,5.4-1.2,5.4s10.9,10.6,11.9,11.2
			c1,0.6,41.4,12,41.4,12L-338.6,187.5z"/>
		<g>
			<path class="st30" d="M-357.3,267.6c0,0,6.7,16.7,7.4,20.4c0.6,3.6-9.3,5.4-10.2,8c-0.9,2.6,6.4,1.1,6.4,1.1s2.5,2.4,4.8,1.8
				c1.5-0.4,8.3-1,12.9-1.3c2.3-0.2,4-2.3,3.7-4.6l-2.8-20.2C-335.2,272.7-356,258.2-357.3,267.6z"/>
			<path class="st31" d="M-333,288.1c0,0-9.1-7.5-14.6-9.3c-5.5-1.8-3.9,4.2-3.9,4.2l-5.8-15.7c0,0,19.7,3,20.2,3.6s3.1,5.1,3.1,5.1
				L-333,288.1z"/>
			<path class="st15" d="M-355.3,297.4c0,0,0.6-4.1-1-4s-4.6,1.9-5.2,3.1C-362.1,297.7-355.3,297.4-355.3,297.4z"/>
			<path class="st15" d="M-348.1,298.7c0,0,0.6-3.5-1.9-3.5c-2.4,0-5.5,1.2-6.1,3C-356.7,300-348.1,298.7-348.1,298.7z"/>
		</g>
		<path class="st32" d="M-305.9,245.9c0,0,9.1-22.2,6.4-23.6c-2.7-1.3-10.9-7.2-9.6-10.2c1.2-3,23.5-11.5,20.9-12.8
			c-2.7-1.3-9.6-16.6-9.6-16.6s23.3-5.9,21.6-7.1s-11.5-10.2-11.5-10.2l13.4-12.9l-13.3-6.1c0,0-4.4-13,0.9-16.8
			c5.4-3.7-24.6,1.1-24.6,1.1l-28.4,98"/>
		<path class="st32" d="M-308.1,243.7l17.1-13.3l8.6,12.3l2.9-11.6l13.7,2l4.6-9.9l6.7,6.7c0,0-20,20-26.7,25.5s-27.3,3-27.3,3
			L-308.1,243.7z"/>
		
			<linearGradient id="SVGID_14_" gradientUnits="userSpaceOnUse" x1="-417.7585" y1="926.4103" x2="-254.5585" y2="926.4103" gradientTransform="matrix(1 0 0 -1 0 1123.4854)">
			<stop  offset="0" style="stop-color:#6BC62A"/>
			<stop  offset="1" style="stop-color:#00B53E"/>
		</linearGradient>
		<path class="st33" d="M-287.9,246.8c-31.9-3.1-29.2-27.7-20.1-43.2c0.1-0.1,0.1-0.2,0-0.3c12.8-13.2,26.4-39.3,23.1-48.9
			c-4.3-12.3-76.6-66.1-99.6-61.3c-23,4.8-33.3,48.5-33.3,48.5c4,15.2,49,32.2,68.8,26.5c7.7-2.3,13.5-3.7,16.9,2.9
			c1.8,3.5,0,8.1-18.2,15c-15.5,5.9-39.4-4.5-43.4-10.7c-3.4-5.4-12.9,2.5-3.8,10.1c6,5,20.4,13.9,43.8,20.4
			c-2.2,3.3-5.1,8.3-5.8,10.2c-1,2.8-4.1,8.9-5.9,14.5c-1.7,5.6-5.5,12.6-6.4,21.4s6.9,18.9,14.9,21.5s12.6,3.3,19.9,5.6
			c4.1,3.9,8.9,7.3,12.7,11.7c-5.1,0.9-11.6,2-15,6.2c1.6,1.7,3.4,2.8,5.6,3.1c3.5,0.5,5.6,0.8,9.4,1.3c2.6,0.3,6.9-0.3,10.7-0.6
			c2.8-0.2,4.9-2.6,5-5.4c0.1-5.1-0.4-9.7,0.1-15.3c25.1-1.8,37.8-29.4,53.9-50C-264.7,229.2-277.9,247.8-287.9,246.8z"/>
		<g>
			<path class="st2" d="M-387.3,215.7c0,0-13.3-8.3-4.1-22.6C-391.3,193-379.8,199.9-387.3,215.7z"/>
			<path class="st2" d="M-389.3,217.7c0,0-5.8,14.9-21.5,8.3C-410.9,226-406.2,213-389.3,217.7z"/>
			<path class="st2" d="M-395.9,212c0,0-15.6,3.7-19.1-13C-415,199-401.7,195.5-395.9,212z"/>
			<g>
				<path class="st2" d="M-398,211.3c0-0.1,7.6,1.7,10.7,4.4s6.3,6.1,7.8,8.5s2.1,5,2.2,6.8s-0.2,3-0.3,2.9c-0.1,0-0.1-1.1-0.4-2.9
					c-0.3-1.7-3.9-4.5-5.3-6.7C-384.6,222-398,211.4-398,211.3z"/>
			</g>
		</g>
		<path class="st15" d="M-335.8,298.7c0,0,0.6-4.1-1-4s-4.6,1.9-5.2,3.1C-342.5,299-335.8,298.7-335.8,298.7z"/>
		<path class="st15" d="M-328.6,300.1c0,0,0.6-3.5-1.8-3.5s-5.5,1.2-6.1,3C-337.1,301.4-328.6,300.1-328.6,300.1z"/>
		<path class="st31" d="M-337,279.1c0,0,28.4-0.8,28.4,0.5c0,1.1-0.2,10.9,0,13.4s-4.8-4.2-13.9-7.3S-337,279.1-337,279.1z"/>
		<g>
			<g>
				<path class="st34" d="M-384,137.4c-3.2,6.1-7.8,10.1-10.2,8.8c-2.5-1.3-1.9-7.3,1.3-13.4c3.2-6.1,7.8-10.1,10.2-8.8
					S-380.8,131.3-384,137.4z"/>
				<path class="st27" d="M-383.1,138.1c-3.2,6.1-7.8,10.1-10.2,8.8c-2.5-1.3-1.9-7.3,1.3-13.4c3.2-6.1,7.8-10.1,10.2-8.8
					C-379.3,125.9-379.9,131.9-383.1,138.1z"/>
			</g>
			<g>
				<path class="st34" d="M-399.8,124.5c-2.5,4.7-6,7.8-7.9,6.8s-1.5-5.7,1-10.4c2.5-4.7,6-7.8,7.9-6.8
					C-396.8,115.1-397.3,119.8-399.8,124.5z"/>
				<path class="st27" d="M-399,125c-2.5,4.7-6,7.8-7.9,6.8s-1.5-5.7,1-10.4c2.5-4.7,6-7.8,7.9-6.8S-396.5,120.2-399,125z"/>
			</g>
			<g>
				<path class="st35" d="M-385.5,118.3c0,0,4.8-2.5,8.6-0.4c7.2,4,2.9,14.8,2.9,14.8s2.3-6.3-4.9-12.2
					C-382.5,117.7-385.5,118.3-385.5,118.3z"/>
				<path class="st32" d="M-385.5,118.3c0,0,5.4,0.7,9.3,5.9s1.2,11,1.2,11s3.4-6-0.1-11.4C-378.5,118.3-385.5,118.3-385.5,118.3z"
					/>
				<path class="st25" d="M-383.5,120c0,0,5.8,3.5,6.8,8.9c1,5.4-1.9,9.4-1.9,9.4s4-3.6,3.5-9.5C-375.8,122.6-383.5,120-383.5,120z"
					/>
			</g>
			<g>
				<path class="st35" d="M-399,110.8c0,0,2.8-1.5,5.1-0.2c4.3,2.4,1.7,8.8,1.7,8.8s1.3-3.7-2.9-7.2
					C-397.2,110.4-399,110.8-399,110.8z"/>
				<path class="st32" d="M-399,110.8c0,0,3.2,0.4,5.5,3.5c2.3,3.1,0.7,6.5,0.7,6.5s2-3.6-0.1-6.8C-394.9,110.8-399,110.8-399,110.8
					z"/>
				<path class="st25" d="M-397.8,111.8c0,0,3.4,2,4,5.2c0.6,3.2-1.2,5.6-1.2,5.6s2.4-2.2,2.1-5.6
					C-393.2,113.4-397.8,111.8-397.8,111.8z"/>
			</g>
		</g>
		<g>
			<g>
				<path class="st32" d="M-318,151c0,0,2.2,2.9,3,6.1s1.4,8,1.4,8l0.7-1.8c0,0,0.3,0.6,1.2,1.4c0.8,0.6,3.2,1.4,3.2,1.4
					s-0.7-3.4-1.6-7.3c-1.2-5.4-4.6-7.8-4.6-7.8l0.1,1.1C-314.5,152.2-316.7,151.1-318,151z"/>
				<path class="st30" d="M-313.6,152.5c0,0,1.7,1.5,2.8,4.6c1.1,3.1,1.6,6.9,1.6,6.9l-1.3-2.5l0.8,3.1c0,0-1.2-1.6-2.1-4.7
					c-0.9-3.2-3-7-3-7l1.5,0.7L-313.6,152.5z"/>
			</g>
			<path class="st36" d="M-323.8,158c0,0,7.6-0.9,5.3,6"/>
		</g>
		<g>
			<path class="st37" d="M-355.1,225.4c-4.2-0.3-22.5,2.5-22.2,6.7c0.2,2.9,23.2-4.4,23.2-4.4S-350.9,225.7-355.1,225.4z"/>
			<path class="st37" d="M-375.7,227.6c0,0-7.9-5.2-7.8-2.9c0.1,2.2,3.7,4.8,3.7,4.8s-8.8-1-9.4,0.5s8.8,1.6,8.3,1.8
				c-0.4,0.2-8.6,2-8,3.1s8.1-1.2,8.4-0.8c0.2,0.4-7,3.4-6.3,4.2s7.1-2.1,7.9-2.2c0.8-0.1-4,3.7-3.2,4.6c0.7,0.8,4.7-2.8,5.4-3.7
				s4.6-1.9,5.7-3.6c1.1-1.7-0.5-4.6-1.6-5.1S-375.7,227.6-375.7,227.6z"/>
		</g>
		<path class="st32" d="M-307,132.4c0,0-12.3-10.5-33-19.6c-19.7-8.7-33.4-12-33.4-12s0.1-19.7,18.7-24.1c9.1-2.1,24.5,3.8,22,4.8
			c-10.7,4.3-11.4,22.4-2.1,15c8-6.4,20.9,1.1,20.9,1.1s-13.1,8.2-8.6,9.1c5.4,1.1,18.6-2.5,15,1.6c-4.3,4.8-9.6,8.6-9.6,8.6
			s24.1-4.8,19.8,1.1C-301.6,123.9-307,132.4-307,132.4z"/>
	</g>
	<g>
		<g>
			<circle class="st5" cx="-34.3" cy="23.7" r="3.8"/>
		</g>
		<g>
			<path class="st5" d="M-27,3.4c-3.4-4.1-5.8-11.8-6.9-15.2c-0.1-0.5-0.8-0.5-1,0c-0.8,3-2.9,9.3-6.9,14.7
				c-3.7,5,0.4,12.3,7.3,12.3c0,0,0,0,0.1,0c0,0,0,0,0.1,0C-27.4,15.2-23.1,8.2-27,3.4z M-33.5,12.2c-3.4,0.6-6.2-2.3-5.7-5.7
				c0.3-2,2-3.7,4-4c3.4-0.6,6.2,2.3,5.7,5.7C-29.9,10.2-31.5,11.8-33.5,12.2z"/>
		</g>
		<path class="st5" d="M-34.3,12.4c-0.8,0-1.5,0.7-1.5,1.5v19.3h3V13.9C-32.8,13.1-33.5,12.4-34.3,12.4z"/>
	</g>
	<g>
		<path class="st5" d="M219.1,3H1.5C0.7,3,0,2.3,0,1.5S0.7,0,1.5,0h217.6c0.8,0,1.5,0.7,1.5,1.5S219.9,3,219.1,3z"/>
	</g>
	<g>
		
			<linearGradient id="SVGID_15_" gradientUnits="userSpaceOnUse" x1="-820.9586" y1="-54.842" x2="-748.4667" y2="-54.842" gradientTransform="matrix(-3.274567e-02 -0.9994 -0.8688 2.845226e-02 -73.8989 -608.9669)">
			<stop  offset="0.1522" style="stop-color:#FF3A2D"/>
			<stop  offset="0.1907" style="stop-color:#FF462A"/>
			<stop  offset="0.4015" style="stop-color:#FF811B"/>
			<stop  offset="0.5953" style="stop-color:#FFB00F"/>
			<stop  offset="0.7658" style="stop-color:#FFD207"/>
			<stop  offset="0.9065" style="stop-color:#FFE702"/>
			<stop  offset="1" style="stop-color:#FFEE00"/>
		</linearGradient>
		<path class="st38" d="M-2.2,210.1c-0.1,0-0.1,0-0.1-0.1c-0.6-1.4-13.5-16.4-13.1-27.9c0.4-12.1,2.8-27.1,3-29
			c0.3-3.5,4.5,11,5.3,12.1c0.1,0.1,0.3,0,0.3-0.1c-0.9-2.2-1.2-8.2-0.3-12.4s6.1-11.9,8.3-15c0.3-0.4,0.9-0.2,0.9,0.3
			c0,2.3,1,9.8,3.7,12.5c3.7,3.6,11.5,15.2,7.9,27.8C10.1,190.6,1.9,210.3-2.2,210.1z"/>
		
			<linearGradient id="SVGID_16_" gradientUnits="userSpaceOnUse" x1="-817.2061" y1="-56.6741" x2="-768.7567" y2="-56.6741" gradientTransform="matrix(-3.274567e-02 -0.9994 -0.8688 2.845226e-02 -73.8989 -608.9669)">
			<stop  offset="0.1522" style="stop-color:#FF5A19"/>
			<stop  offset="1" style="stop-color:#FFEE00"/>
		</linearGradient>
		<path class="st39" d="M-1,206.3c0,0-7.6-21.5-3.8-29.7c3.8-8.2,5.4-12.2,4.3-17.1c-1.8-8,10.8,14.4,8.9,22.6
			C6.3,190.2-1,206.3-1,206.3z"/>
		
			<linearGradient id="SVGID_17_" gradientUnits="userSpaceOnUse" x1="-815.9626" y1="-55.8501" x2="-781.0269" y2="-55.8501" gradientTransform="matrix(-3.274567e-02 -0.9994 -0.8688 2.845226e-02 -73.8989 -608.9669)">
			<stop  offset="0.1522" style="stop-color:#FFB02A"/>
			<stop  offset="0.9393" style="stop-color:#FFEE00"/>
		</linearGradient>
		<path class="st40" d="M-1.2,205c0,0-2.9-15.1-2.5-20.2c0.3-5,2.3-7.2,4.1-10.9c0.4-0.9,1-2.9,1.3-3.9c0.1-0.2,0.3-0.2,0.4,0
			c0.7,1.5,2.5,6,2.8,10.2C5.5,185.5-1.2,205-1.2,205z"/>
	</g>
	<g>
		<linearGradient id="SVGID_18_" gradientUnits="userSpaceOnUse" x1="-47.0864" y1="209.7292" x2="46.8477" y2="209.7292">
			<stop  offset="0" style="stop-color:#FF3A2D"/>
			<stop  offset="1" style="stop-color:#D50000"/>
		</linearGradient>
		<path class="st41" d="M-47.1,195.3c9.5,17.3,27,28.8,47,28.8s37.5-11.6,47-28.8H-47.1z"/>
		<polygon class="st4" points="-0.1,87.1 -47.4,195.3 47.2,195.3 		"/>
		<linearGradient id="SVGID_19_" gradientUnits="userSpaceOnUse" x1="-6.6468" y1="86.5232" x2="6.4081" y2="86.5232">
			<stop  offset="0" style="stop-color:#FF3A2D"/>
			<stop  offset="1" style="stop-color:#D50000"/>
		</linearGradient>
		<circle class="st42" cx="-0.1" cy="86.5" r="6.5"/>
	</g>
	<g>
		<path class="st2" d="M116.8,177.6c0,0-4-20.3,18.1-24.4C134.9,153.1,138.8,170.5,116.8,177.6z"/>
		<path class="st2" d="M113.6,177.8c0,0-20.3,7.5-28.1-13.7C85.5,164.2,102.9,157.3,113.6,177.8z"/>
		<path class="st2" d="M112.5,165.9c0,0-17.7-11.7-4.8-30.1C107.7,135.8,123.2,145.4,112.5,165.9z"/>
		<g>
			<path class="st2" d="M111.3,163.3c0,0,0.4-2.1,1.3-0.4c1.6,3.1,4.1,11.2,4.2,14.7c0.2,5.4-0.1,11.6-1.1,15.2
				c-1,3.6-2.8,6.5-4.5,8.3c-1.6,1.8-3,2.5-3.1,2.4c-0.1-0.1,1-1.1,2.4-2.9c1.4-1.8-0.5,1.2,1.7-11.2
				C114.1,178.9,111.2,163.3,111.3,163.3z"/>
		</g>
	</g>
	<g>
		<path class="st7" d="M66.2,195.3c9.5,17.3,27,28.8,47,28.8s37.5-11.6,47-28.8H66.2z"/>
		<polygon class="st4" points="113.2,87.1 65.9,195.3 160.5,195.3 		"/>
		<circle class="st2" cx="113.2" cy="86.5" r="6.5"/>
	</g>
	<g>
		<circle class="st0" cx="6.4" cy="28.6" r="12"/>
		<path class="st5" d="M6.4,42.1c-7.4,0-13.5-6-13.5-13.5s6-13.5,13.5-13.5s13.5,6,13.5,13.5S13.8,42.1,6.4,42.1z M6.4,18.2
			c-5.8,0-10.5,4.7-10.5,10.5S0.6,39.1,6.4,39.1s10.5-4.7,10.5-10.5S12.2,18.2,6.4,18.2z"/>
	</g>
	<g>
		<polygon class="st4" points="-0.5,256.8 -47.8,365.1 46.9,365.1 		"/>
		<linearGradient id="SVGID_20_" gradientUnits="userSpaceOnUse" x1="-6.9781" y1="256.3002" x2="6.0769" y2="256.3002">
			<stop  offset="0" style="stop-color:#FF3A2D"/>
			<stop  offset="1" style="stop-color:#D50000"/>
		</linearGradient>
		<circle class="st43" cx="-0.5" cy="256.3" r="6.5"/>
	</g>
	<g>
		<polygon class="st4" points="113.2,256.8 65.9,365.1 160.5,365.1 		"/>
		<circle class="st2" cx="113.2" cy="256.3" r="6.5"/>
	</g>
	<linearGradient id="SVGID_21_" gradientUnits="userSpaceOnUse" x1="-47.4176" y1="391.5638" x2="46.5165" y2="391.5638">
		<stop  offset="0" style="stop-color:#FF3A2D"/>
		<stop  offset="1" style="stop-color:#D50000"/>
	</linearGradient>
	<path class="st44" d="M-47.4,377.1c9.5,17.3,27,28.8,47,28.8s37.5-11.6,47-28.8H-47.4z"/>
	<path class="st7" d="M67.2,378.1c9.5,17.3,27,28.8,47,28.8s37.5-11.6,47-28.8H67.2z"/>
	<g>
		<defs>
			<rect id="SVGID_22_" x="-791.8" y="192.4" width="30.1" height="56.3"/>
		</defs>
		<clipPath id="SVGID_23_">
			<use xlink:href="#SVGID_22_"  style="overflow:visible;"/>
		</clipPath>
		<g class="st45">
			
				<linearGradient id="SVGID_24_" gradientUnits="userSpaceOnUse" x1="-850.4731" y1="839.7786" x2="-777.9811" y2="839.7786" gradientTransform="matrix(-3.274567e-02 -0.9994 -0.8688 2.845226e-02 -73.8989 -608.9669)">
				<stop  offset="0.1522" style="stop-color:#FF3A2D"/>
				<stop  offset="0.1907" style="stop-color:#FF462A"/>
				<stop  offset="0.4015" style="stop-color:#FF811B"/>
				<stop  offset="0.5953" style="stop-color:#FFB00F"/>
				<stop  offset="0.7658" style="stop-color:#FFD207"/>
				<stop  offset="0.9065" style="stop-color:#FFE702"/>
				<stop  offset="1" style="stop-color:#FFEE00"/>
			</linearGradient>
			<path class="st46" d="M-778.5,265c-0.1,0-0.1,0-0.1-0.1c-0.6-1.4-13.5-16.4-13.1-27.9c0.4-12.1,2.8-27.1,3-29
				c0.3-3.5,4.5,11,5.3,12.1c0.1,0.1,0.3,0,0.3-0.1c-0.9-2.2-1.2-8.2-0.3-12.4c1-4.2,6.1-11.9,8.3-15c0.3-0.4,0.9-0.2,0.9,0.3
				c0,2.3,1,9.8,3.7,12.5c3.7,3.6,11.5,15.2,7.9,27.8C-766.2,245.5-774.4,265.2-778.5,265z"/>
			
				<linearGradient id="SVGID_25_" gradientUnits="userSpaceOnUse" x1="-846.7205" y1="837.9465" x2="-798.2711" y2="837.9465" gradientTransform="matrix(-3.274567e-02 -0.9994 -0.8688 2.845226e-02 -73.8989 -608.9669)">
				<stop  offset="0.1522" style="stop-color:#FF5A19"/>
				<stop  offset="1" style="stop-color:#FFEE00"/>
			</linearGradient>
			<path class="st47" d="M-777.3,261.2c0,0-7.6-21.5-3.8-29.7s5.4-12.2,4.3-17.1c-1.8-8,10.8,14.4,8.9,22.6
				C-770,245.1-777.3,261.2-777.3,261.2z"/>
			
				<linearGradient id="SVGID_26_" gradientUnits="userSpaceOnUse" x1="-845.4771" y1="838.7705" x2="-810.5413" y2="838.7705" gradientTransform="matrix(-3.274567e-02 -0.9994 -0.8688 2.845226e-02 -73.8989 -608.9669)">
				<stop  offset="0.1522" style="stop-color:#FFB02A"/>
				<stop  offset="0.9393" style="stop-color:#FFEE00"/>
			</linearGradient>
			<path class="st48" d="M-777.5,260c0,0-2.9-15.1-2.5-20.2c0.3-5,2.3-7.2,4.1-10.9c0.4-0.9,1-2.9,1.3-3.9c0.1-0.2,0.3-0.2,0.4,0
				c0.7,1.5,2.5,6,2.8,10.2C-770.8,240.4-777.5,260-777.5,260z"/>
		</g>
	</g>
	<g>
		<defs>
			<rect id="SVGID_27_" x="-47.1" y="422.3" width="30.1" height="56.3"/>
		</defs>
		<clipPath id="SVGID_28_">
			<use xlink:href="#SVGID_27_"  style="overflow:visible;"/>
		</clipPath>
		<g class="st49">
			
				<linearGradient id="SVGID_29_" gradientUnits="userSpaceOnUse" x1="-1104.6956" y1="-7.769" x2="-1032.2036" y2="-7.769" gradientTransform="matrix(-3.274567e-02 -0.9994 -0.8688 2.845226e-02 -73.8989 -608.9669)">
				<stop  offset="0.1522" style="stop-color:#FF3A2D"/>
				<stop  offset="0.1907" style="stop-color:#FF462A"/>
				<stop  offset="0.4015" style="stop-color:#FF811B"/>
				<stop  offset="0.5953" style="stop-color:#FFB00F"/>
				<stop  offset="0.7658" style="stop-color:#FFD207"/>
				<stop  offset="0.9065" style="stop-color:#FFE702"/>
				<stop  offset="1" style="stop-color:#FFEE00"/>
			</linearGradient>
			<path class="st50" d="M-33.8,495c-0.1,0-0.1,0-0.1-0.1c-0.6-1.4-13.5-16.4-13.1-27.9c0.4-12.1,2.8-27.1,3-29
				c0.3-3.5,4.5,11,5.3,12.1c0.1,0.1,0.3,0,0.3-0.1c-0.9-2.2-1.2-8.2-0.3-12.4c1-4.2,6.1-11.9,8.3-15c0.3-0.4,0.9-0.2,0.9,0.3
				c0,2.3,1,9.8,3.7,12.5c3.7,3.6,11.5,15.2,7.9,27.8C-21.5,475.5-29.7,495.2-33.8,495z"/>
			
				<linearGradient id="SVGID_30_" gradientUnits="userSpaceOnUse" x1="-1100.9429" y1="-9.601" x2="-1052.4935" y2="-9.601" gradientTransform="matrix(-3.274567e-02 -0.9994 -0.8688 2.845226e-02 -73.8989 -608.9669)">
				<stop  offset="0.1522" style="stop-color:#FF5A19"/>
				<stop  offset="1" style="stop-color:#FFEE00"/>
			</linearGradient>
			<path class="st51" d="M-32.6,491.2c0,0-7.6-21.5-3.8-29.7s5.4-12.2,4.3-17.1c-1.8-8,10.8,14.4,8.9,22.6
				C-25.4,475.1-32.6,491.2-32.6,491.2z"/>
			
				<linearGradient id="SVGID_31_" gradientUnits="userSpaceOnUse" x1="-1099.6996" y1="-8.777" x2="-1064.7638" y2="-8.777" gradientTransform="matrix(-3.274567e-02 -0.9994 -0.8688 2.845226e-02 -73.8989 -608.9669)">
				<stop  offset="0.1522" style="stop-color:#FFB02A"/>
				<stop  offset="0.9393" style="stop-color:#FFEE00"/>
			</linearGradient>
			<path class="st52" d="M-32.8,489.9c0,0-2.9-15.1-2.5-20.2c0.3-5,2.3-7.2,4.1-10.9c0.4-0.9,1-2.9,1.3-3.9c0.1-0.2,0.3-0.2,0.4,0
				c0.7,1.5,2.5,6,2.8,10.2C-26.1,470.4-32.8,489.9-32.8,489.9z"/>
		</g>
	</g>
	<g>
		<g>
			
				<linearGradient id="SVGID_32_" gradientUnits="userSpaceOnUse" x1="208.2877" y1="464.8172" x2="311.352" y2="464.8172" gradientTransform="matrix(0.9932 -0.1162 -0.101 -0.8634 63.3224 787.3698)">
				<stop  offset="0.1522" style="stop-color:#FF3A2D"/>
				<stop  offset="0.1907" style="stop-color:#FF462A"/>
				<stop  offset="0.4015" style="stop-color:#FF811B"/>
				<stop  offset="0.5953" style="stop-color:#FFB00F"/>
				<stop  offset="0.7658" style="stop-color:#FFD207"/>
				<stop  offset="0.9065" style="stop-color:#FFE702"/>
				<stop  offset="1" style="stop-color:#FFEE00"/>
			</linearGradient>
			<path class="st53" d="M223.1,360.2c0-0.1,0-0.2,0.1-0.2c1.9-0.9,27.6-13.6,37-15.2c11.3-1.9,21-0.7,26.6-5.5
				c3.9-3.3,4.4-6.3,4.4-7.6c0-0.2,0.3-0.3,0.4-0.1c1.2,1.9,4.1,7.3,1.8,10.5c-2.1,2.9-4.6,5.3-6.1,6.5c-0.2,0.2,0,0.4,0.2,0.3
				c3-1.4,10.5-4.8,14.8-5.6c7.6-1.4,18.1,1.6,22.8,4.2c0.6,0.3,0.4,1.2-0.3,1.3c-3.4,0.3-10.2,1.4-13.7,5.3
				c-4.8,5.3-21.6,27-40.1,23.6C252.6,374.4,223.2,365.7,223.1,360.2z"/>
			
				<linearGradient id="SVGID_33_" gradientUnits="userSpaceOnUse" x1="213.7215" y1="459.8458" x2="279.6636" y2="459.8458" gradientTransform="matrix(0.9932 -0.1162 -0.101 -0.8634 63.3224 787.3698)">
				<stop  offset="0.1522" style="stop-color:#FF5A19"/>
				<stop  offset="1" style="stop-color:#FFEE00"/>
			</linearGradient>
			<path class="st54" d="M228.7,361.3c0,0,30-12.5,42.3-8.4c12.3,4.1,13.7,10,20.7,8c11.3-3.3-8.6,10.3-20.6,8.6
				C259.1,367.7,228.7,361.3,228.7,361.3z"/>
			
				<linearGradient id="SVGID_34_" gradientUnits="userSpaceOnUse" x1="215.5152" y1="460.6214" x2="266.0131" y2="460.6214" gradientTransform="matrix(0.9932 -0.1162 -0.101 -0.8634 63.3224 787.3698)">
				<stop  offset="0.1522" style="stop-color:#FFB02A"/>
				<stop  offset="0.9393" style="stop-color:#FFEE00"/>
			</linearGradient>
			<path class="st55" d="M230.4,361c0,0,21.5-5.6,28.8-5.6c7.3-0.1,10.6,2.3,16.2,4.3c1.3,0.5,4.3,1,5.8,1.3c0.3,0,0.3,0.4,0.1,0.5
				c-2.1,1-8.4,3.9-14.4,4.9C259.4,367.7,230.4,361,230.4,361z"/>
		</g>
	</g>
	<g>
		<path class="st10" d="M372.4,196c0,0-0.2-1.8-9.7-1.8c-4.9,0-10.3-1.8-10.9-6.7c-1.1-8.8,9.7-19.4,22.5-29.1s-29.1-16.4-37.6-12.1
			c-8.5,4.2-27.9,36.4-28.5,44.3c-0.6,7.9,10.9,20,10.9,20l14.6-3L372.4,196z"/>
		<path class="st10" d="M267.4,247c-0.7-1.8-0.8-18.3,1.2-17.6s13,0.3,13,0.3s-15-17.2-12.4-18.5c2.7-1.3,23.9-1.3,22.7-4.4
			c-1.2-3-22.4-8.8-19.8-10.1c2.6-1.3,9.7-14.2,9.7-14.2s-18.6-1.4-16.9-2.6s11.5-10.2,11.5-10.2L263,156.8l13.3-6.1
			c0,0-7-15-5.2-15.2l26.7,2.2l6.7,99L267.4,247"/>
		<path class="st10" d="M267.4,247l-10.3-9.1l-8.6,16l-2.9-15.4l-14.2,3.1l-4-11l-6.7,6.7c0,0,20,20,26.7,25.5s27.3,3,27.3,3
			L267.4,247z"/>
		
			<linearGradient id="SVGID_35_" gradientUnits="userSpaceOnUse" x1="346.5308" y1="996.6819" x2="432.6112" y2="996.6819" gradientTransform="matrix(0.9906 -0.1366 -0.1366 -0.9906 112.3688 1205.1958)">
			<stop  offset="0" style="stop-color:#E6E6E6"/>
			<stop  offset="1" style="stop-color:#FF9300"/>
		</linearGradient>
		<path class="st56" d="M331.3,184.3l6.1,2.8l-1.1-8.2l7.5,3.8l-1-7.9c0,0,6.2,2.3,7.2,1.8s2.9-7.1,2.9-7.1l4.4,2.2l1.7-5.4l5,4.7
			l2.4-5.5l4.3,0.9l1-6.2l8.7,3.6l2.2-7.2l6.1,4.4l0.1-9.2c0,0,8.2,7.2,8,6c-0.1-1.2-0.9-8.7-0.9-8.7s8.5,5.5,8.2,4.8
			s-3-12.1-3-12.1l-8.9-0.2l-71.5,37.6L331.3,184.3z"/>
		<path class="st12" d="M331.8,272.3c0,0-6.7,16.7-7.3,20.4c-0.6,3.6,9.3,5.3,10.2,7.9c0.9,2.6-6.4,1.2-6.4,1.2s-2.5,2.4-4.8,1.8
			c-1.5-0.4-8.3-0.9-12.9-1.3c-2.3-0.2-4-2.3-3.7-4.6l2.8-20.3C309.7,277.5,330.4,262.9,331.8,272.3z"/>
		<path class="st13" d="M307.5,292.9c0,0,9.1-7.5,14.6-9.3c5.5-1.8,3.9,4.2,3.9,4.2l5.8-15.7c0,0-19.7,3.1-20.2,3.7
			c-0.5,0.6-3.1,5.1-3.1,5.1L307.5,292.9z"/>
		<g>
			
				<linearGradient id="SVGID_36_" gradientUnits="userSpaceOnUse" x1="239.4297" y1="963.7148" x2="432.8773" y2="963.7148" gradientTransform="matrix(0.9906 -0.1366 -0.1366 -0.9906 112.3688 1205.1958)">
				<stop  offset="0" style="stop-color:#FF3A2D"/>
				<stop  offset="1" style="stop-color:#D50000"/>
			</linearGradient>
			<path class="st57" d="M330.8,235c1.7,5.6,5.9,17.6,6.8,26.4c0.9,8.8-6.6,16.7-14.7,19.3s-12.6,3.3-19.9,5.6
				c-4.1,3.9-8.9,7.3-12.7,11.7c5.1,0.9,11.6,2,15,6.2c-1.6,1.7-3.4,2.8-5.6,3.1c-3.5,0.5-5.6,0.8-9.4,1.3
				c-2.6,0.3-6.9-0.3-10.7-0.6c-2.8-0.2-4.9-2.6-5-5.4c-0.1-5.1,0.4-9.7-0.1-15.3c-25.1-1.8-37.8-29.4-53.9-50
				c10.2-0.6,23.3,17.4,33.4,17s31.8-29,35.4-39.2c3.6-10.2-8.8-26.3-13.5-40.4c-4.7-14.2-7.7-24.6,10-38.1s65.5-48,82.3-36.3
				c16.8,11.8,41.6,33.9,31.9,45.2c-9.6,11.3-72.3,27.4-74.2,47.4s4.4,12.1,12.5,9.4c7.4-2.4,29.2-11.4,34-6.5
				c4.8,4.9-12.7,8.4-27.8,11.8c-14.3,3.2-19.3,10.1-20.9,10.3c-1.6,0.2,3.9,6.8,4.8,9.6C329.6,230.2,329.1,229.5,330.8,235z"/>
		</g>
		<path class="st15" d="M329.9,302.1c0,0-0.6-4.1,1-4c1.6,0.1,4.6,1.9,5.2,3.1C336.6,302.4,329.9,302.1,329.9,302.1z"/>
		<path class="st15" d="M322.6,303.5c0,0-0.6-3.5,1.8-3.5c2.4,0,5.5,1.2,6.1,3C331.1,304.8,322.6,303.5,322.6,303.5z"/>
		<path class="st15" d="M301.9,306.2c0,0-0.6-4.1,1-4c1.6,0.1,4.6,1.9,5.2,3.1S301.9,306.2,301.9,306.2z"/>
		<path class="st15" d="M294.7,307.6c0,0-0.6-3.5,1.8-3.5c2.4,0,5.5,1.2,6.1,3C303.2,308.9,294.7,307.6,294.7,307.6z"/>
		<path class="st13" d="M303.2,285.9c0,0-27.3,1.2-28.5,0.6c-1.2-0.6,0.4,10.9,0.2,13.3c-0.2,2.4,4.7-3.6,13.8-6.6
			C297.8,290.2,303.2,285.9,303.2,285.9z"/>
		<g>
			<path class="st19" d="M324.8,167.5c0,0-3.2-1.9-6.4-2.4s-8.1-0.6-8.1-0.6l1.7-0.9c0,0-0.7-0.2-1.5-1.1c-0.7-0.7-1.8-3.1-1.8-3.1
				s3.5,0.4,7.4,0.8c5.5,0.7,8.2,3.8,8.2,3.8h-1.1C323.2,164.1,324.6,166.2,324.8,167.5z"/>
			<path class="st20" d="M322.8,163.3c0,0-1.6-1.5-4.8-2.3c-3.2-0.8-7-0.9-7-0.9l2.7,1l-3.2-0.5c0,0,1.7,1,4.9,1.6
				c3.2,0.6,7.3,2.3,7.3,2.3l-0.8-1.4L322.8,163.3z"/>
		</g>
		<path class="st10" d="M323.9,226.3c0,0,0.8,0.3,5.4,0.6c4.6,0.3,6-7.3,9-8s1.1,5.9,1.6,6.6c0.4,0.7,1.5-4.1,1.5-4.1
			s0.1,4.3,0.8,3.9s1-5.4,1-5.4s1.2,8.3,2.1,2.5c1-5.8-3.4-7.7-6.1-8.6c-2.7-0.9-6.9,7.1-9.6,7.8c-2.6,0.6-6.7-2.8-6.7-2.8
			L323.9,226.3z"/>
		<g>
			<circle cx="318.5" cy="172.6" r="4.2"/>
			<circle class="st0" cx="318.8" cy="171.8" r="1.5"/>
			<circle class="st0" cx="317.2" cy="174.3" r="0.7"/>
		</g>
		<path class="st10" d="M298.8,232c0,0,0.8,0.1,5.3-1s3.5-8.8,6.1-10.3c2.6-1.5,2.8,5.3,3.5,5.9c0.6,0.6,0.2-4.4,0.2-4.4
			s1.4,4.1,1.9,3.5c0.6-0.6-0.7-5.5-0.7-5.5s3.6,7.5,2.8,1.7s-5.5-6.3-8.4-6.3s-4.5,8.9-6.8,10.3c-2.3,1.4-7.3-0.6-7.3-0.6
			L298.8,232z"/>
		<g>
			<path class="st21" d="M365.1,138.5c3.2,6.1,7.8,10.1,10.2,8.8c2.5-1.3,1.9-7.3-1.3-13.4c-3.2-6.1-7.8-10.1-10.2-8.8
				C361.4,126.4,362,132.4,365.1,138.5z"/>
			<path class="st22" d="M364.2,139.1c3.2,6.1,7.8,10.1,10.2,8.8c2.5-1.3,1.9-7.3-1.3-13.4c-3.2-6.1-7.8-10.1-10.2-8.8
				C360.4,127,361,133,364.2,139.1z"/>
		</g>
		<g>
			<path class="st21" d="M380.9,125.6c2.5,4.7,6,7.8,7.9,6.8c1.9-1,1.5-5.7-1-10.4s-6-7.8-7.9-6.8
				C378,116.2,378.4,120.8,380.9,125.6z"/>
			<path class="st22" d="M380.1,126.1c2.5,4.7,6,7.8,7.9,6.8s1.5-5.7-1-10.4s-6-7.8-7.9-6.8C377.2,116.7,377.7,121.3,380.1,126.1z"
				/>
		</g>
		<g>
			<path class="st23" d="M366.6,119.4c0,0-4.8-2.5-8.6-0.4c-7.2,4-2.9,14.8-2.9,14.8s-2.3-6.3,4.9-12.2
				C363.7,118.8,366.6,119.4,366.6,119.4z"/>
			<path class="st24" d="M366.6,119.4c0,0-5.4,0.7-9.3,5.9c-3.9,5.2-1.2,11-1.2,11s-3.4-6,0.1-11.4
				C359.7,119.4,366.6,119.4,366.6,119.4z"/>
			<path class="st25" d="M364.7,121c0,0-5.8,3.5-6.8,8.9c-1,5.4,1.9,9.4,1.9,9.4s-4-3.6-3.5-9.5C356.9,123.7,364.7,121,364.7,121z"
				/>
		</g>
		<g>
			<path class="st23" d="M380.1,111.9c0,0-2.8-1.5-5.1-0.2c-4.3,2.4-1.7,8.8-1.7,8.8s-1.3-3.7,2.9-7.2
				C378.4,111.5,380.1,111.9,380.1,111.9z"/>
			<path class="st24" d="M380.1,111.9c0,0-3.2,0.4-5.5,3.5s-0.7,6.5-0.7,6.5s-2-3.6,0.1-6.8C376,111.9,380.1,111.9,380.1,111.9z"/>
			<path class="st25" d="M378.9,112.9c0,0-3.4,2-4,5.2c-0.6,3.2,1.2,5.6,1.2,5.6s-2.4-2.2-2.1-5.6
				C374.4,114.5,378.9,112.9,378.9,112.9z"/>
		</g>
		<path class="st10" d="M286.2,136.5c0,0,11.5-10.3,32.2-19.4c19.7-8.7,29.7-9.1,29.7-9.1s-4.9-12.7,6.7-17.6
			c11.6-4.9-11.5-12.1-22.5,0c-6.9,7.7-10.3-6.7-10.3-6.7l-9.1,21.9l-12.1-3.6l-3.6,18.8l-13.4,1.2L286.2,136.5z"/>
	</g>
	<path class="st10" d="M345.8,347.8c0,0,0.8,0.1,5.3-1s3.5-8.8,6.1-10.3s2.8,5.3,3.5,5.9c0.6,0.6,0.2-4.4,0.2-4.4s1.4,4.1,1.9,3.5
		c0.6-0.6-0.7-5.5-0.7-5.5s3.6,7.5,2.8,1.7c-0.8-5.8-5.5-6.3-8.4-6.3s-4.5,8.9-6.8,10.3c-2.3,1.4-7.3-0.6-7.3-0.6L345.8,347.8z"/>
	<g>
		<path class="st10" d="M573.8,196c0,0-0.2-1.8-9.7-1.8c-4.9,0-10.3-1.8-10.9-6.7c-1.1-8.8,9.7-19.4,22.5-29.1s-29.1-16.4-37.6-12.1
			c-8.5,4.2-27.9,36.4-28.5,44.3c-0.6,7.9,10.9,20,10.9,20l14.6-3L573.8,196z"/>
		<path class="st10" d="M468.8,247c-0.7-1.8-0.8-18.3,1.2-17.6s13,0.3,13,0.3s-15-17.2-12.4-18.5c2.7-1.3,23.9-1.3,22.7-4.4
			c-1.2-3-22.4-8.8-19.8-10.1c2.6-1.3,9.7-14.2,9.7-14.2s-18.6-1.4-16.9-2.6s11.5-10.2,11.5-10.2l-13.4-12.9l13.3-6.1
			c0,0-7-15-5.2-15.2l26.7,2.2l6.7,99L468.8,247"/>
		<path class="st10" d="M468.8,247l-10.3-9.1l-8.6,16l-2.9-15.4l-14.2,3.1l-4-11l-6.7,6.7c0,0,20,20,26.7,25.5s27.3,3,27.3,3
			L468.8,247z"/>
		
			<linearGradient id="SVGID_37_" gradientUnits="userSpaceOnUse" x1="546.0783" y1="969.1651" x2="632.1587" y2="969.1651" gradientTransform="matrix(0.9906 -0.1366 -0.1366 -0.9906 112.3688 1205.1958)">
			<stop  offset="0" style="stop-color:#E6E6E6"/>
			<stop  offset="1" style="stop-color:#FF9300"/>
		</linearGradient>
		<path class="st58" d="M532.7,184.3l6.1,2.8l-1.1-8.2l7.5,3.8l-1-7.9c0,0,6.2,2.3,7.2,1.8s2.9-7.1,2.9-7.1l4.4,2.2l1.7-5.4l5,4.7
			l2.4-5.5l4.3,0.9l1-6.2l8.7,3.6l2.2-7.2l6.1,4.4l0.1-9.2c0,0,8.2,7.2,8,6c-0.1-1.2-0.9-8.7-0.9-8.7s8.5,5.5,8.2,4.8
			s-3-12.1-3-12.1l-8.9-0.2l-71.5,37.6L532.7,184.3z"/>
		<path class="st12" d="M533.2,272.3c0,0-6.7,16.7-7.3,20.4c-0.6,3.6,9.3,5.3,10.2,7.9c0.9,2.6-6.4,1.2-6.4,1.2s-2.5,2.4-4.8,1.8
			c-1.5-0.4-8.3-0.9-12.9-1.3c-2.3-0.2-4-2.3-3.7-4.6l2.8-20.3C511.1,277.5,531.8,262.9,533.2,272.3z"/>
		<path class="st13" d="M508.9,292.9c0,0,9.1-7.5,14.6-9.3c5.5-1.8,3.9,4.2,3.9,4.2l5.8-15.7c0,0-19.7,3.1-20.2,3.7
			c-0.5,0.6-3.1,5.1-3.1,5.1L508.9,292.9z"/>
		<g>
			
				<linearGradient id="SVGID_38_" gradientUnits="userSpaceOnUse" x1="438.9772" y1="936.1979" x2="632.4249" y2="936.1979" gradientTransform="matrix(0.9906 -0.1366 -0.1366 -0.9906 112.3688 1205.1958)">
				<stop  offset="0" style="stop-color:#FF3A2D"/>
				<stop  offset="1" style="stop-color:#D50000"/>
			</linearGradient>
			<path class="st59" d="M532.2,235c1.7,5.6,5.9,17.6,6.8,26.4c0.9,8.8-6.6,16.7-14.7,19.3c-8.1,2.6-12.6,3.3-19.9,5.6
				c-4.1,3.9-8.9,7.3-12.7,11.7c5.1,0.9,11.6,2,15,6.2c-1.6,1.7-3.4,2.8-5.6,3.1c-3.5,0.5-5.6,0.8-9.4,1.3
				c-2.6,0.3-6.9-0.3-10.7-0.6c-2.8-0.2-4.9-2.6-5-5.4c-0.1-5.1,0.4-9.7-0.1-15.3c-25.1-1.8-37.8-29.4-53.9-50
				c10.2-0.6,23.3,17.4,33.4,17s31.8-29,35.4-39.2c3.6-10.2-8.8-26.3-13.5-40.4c-4.7-14.2-7.7-24.6,10-38.1s65.5-48,82.3-36.3
				c16.8,11.8,41.6,33.9,31.9,45.2c-9.6,11.3-72.3,27.4-74.2,47.4c-1.9,20,4.4,12.1,12.5,9.4c7.4-2.4,29.2-11.4,34-6.5
				c4.8,4.9-12.7,8.4-27.8,11.8c-14.3,3.2-19.3,10.1-20.9,10.3c-1.6,0.2,3.9,6.8,4.8,9.6C531,230.2,530.5,229.5,532.2,235z"/>
		</g>
		<path class="st15" d="M531.3,302.1c0,0-0.6-4.1,1-4c1.6,0.1,4.6,1.9,5.2,3.1C538,302.4,531.3,302.1,531.3,302.1z"/>
		<path class="st15" d="M524,303.5c0,0-0.6-3.5,1.8-3.5c2.4,0,5.5,1.2,6.1,3C532.5,304.8,524,303.5,524,303.5z"/>
		<path class="st15" d="M503.3,306.2c0,0-0.6-4.1,1-4s4.6,1.9,5.2,3.1C510.1,306.5,503.3,306.2,503.3,306.2z"/>
		<path class="st15" d="M496.1,307.6c0,0-0.6-3.5,1.8-3.5c2.4,0,5.5,1.2,6.1,3C504.6,308.9,496.1,307.6,496.1,307.6z"/>
		<path class="st13" d="M504.6,285.9c0,0-27.3,1.2-28.5,0.6c-1.2-0.6,0.4,10.9,0.2,13.3c-0.2,2.4,4.7-3.6,13.8-6.6
			C499.2,290.2,504.6,285.9,504.6,285.9z"/>
		<g>
			
				<linearGradient id="SVGID_39_" gradientUnits="userSpaceOnUse" x1="568.6885" y1="626.1641" x2="671.7528" y2="626.1641" gradientTransform="matrix(0.9932 -0.1162 -0.101 -0.8634 63.3224 787.3698)">
				<stop  offset="0.1522" style="stop-color:#FF3A2D"/>
				<stop  offset="0.1907" style="stop-color:#FF462A"/>
				<stop  offset="0.4015" style="stop-color:#FF811B"/>
				<stop  offset="0.5953" style="stop-color:#FFB00F"/>
				<stop  offset="0.7658" style="stop-color:#FFD207"/>
				<stop  offset="0.9065" style="stop-color:#FFE702"/>
				<stop  offset="1" style="stop-color:#FFEE00"/>
			</linearGradient>
			<path class="st60" d="M564.7,179c0-0.1,0-0.2,0.1-0.2c1.9-0.9,27.6-13.6,37-15.2c11.3-1.9,21-0.7,26.6-5.5
				c3.9-3.3,4.4-6.3,4.4-7.6c0-0.2,0.3-0.3,0.4-0.1c1.2,1.9,4.1,7.3,1.8,10.5c-2.1,2.9-4.6,5.3-6.1,6.5c-0.2,0.2,0,0.4,0.2,0.3
				c3-1.4,10.5-4.8,14.8-5.6c7.6-1.4,18.1,1.6,22.8,4.2c0.6,0.3,0.4,1.2-0.3,1.3c-3.4,0.3-10.2,1.4-13.7,5.3
				c-4.8,5.3-21.6,27-40.1,23.6C594.3,193.2,564.9,184.5,564.7,179z"/>
			
				<linearGradient id="SVGID_40_" gradientUnits="userSpaceOnUse" x1="574.1222" y1="621.1927" x2="640.0643" y2="621.1927" gradientTransform="matrix(0.9932 -0.1162 -0.101 -0.8634 63.3224 787.3698)">
				<stop  offset="0.1522" style="stop-color:#FF5A19"/>
				<stop  offset="1" style="stop-color:#FFEE00"/>
			</linearGradient>
			<path class="st61" d="M570.3,180.2c0,0,30-12.5,42.3-8.4c12.3,4.1,13.7,10,20.7,8c11.3-3.3-8.6,10.3-20.6,8.6
				C600.7,186.6,570.3,180.2,570.3,180.2z"/>
			
				<linearGradient id="SVGID_41_" gradientUnits="userSpaceOnUse" x1="575.916" y1="621.9683" x2="626.4139" y2="621.9683" gradientTransform="matrix(0.9932 -0.1162 -0.101 -0.8634 63.3224 787.3698)">
				<stop  offset="0.1522" style="stop-color:#FFB02A"/>
				<stop  offset="0.9393" style="stop-color:#FFEE00"/>
			</linearGradient>
			<path class="st62" d="M572.1,179.8c0,0,21.5-5.6,28.8-5.6c7.3-0.1,10.6,2.3,16.2,4.3c1.3,0.5,4.3,1,5.8,1.3
				c0.3,0,0.3,0.4,0.1,0.5c-2.1,1-8.4,3.9-14.4,4.9C601.1,186.5,572.1,179.8,572.1,179.8z"/>
		</g>
		<g>
			<path class="st19" d="M526.2,167.5c0,0-3.2-1.9-6.4-2.4c-3.2-0.5-8.1-0.6-8.1-0.6l1.7-0.9c0,0-0.7-0.2-1.5-1.1
				c-0.7-0.7-1.8-3.1-1.8-3.1s3.5,0.4,7.4,0.8c5.5,0.7,8.2,3.8,8.2,3.8h-1.1C524.6,164.1,526,166.2,526.2,167.5z"/>
			<path class="st20" d="M524.2,163.3c0,0-1.6-1.5-4.8-2.3s-7-0.9-7-0.9l2.7,1l-3.2-0.5c0,0,1.7,1,4.9,1.6c3.2,0.6,7.3,2.3,7.3,2.3
				l-0.8-1.4L524.2,163.3z"/>
		</g>
		<path class="st10" d="M525.3,226.3c0,0,0.8,0.3,5.4,0.6s6-7.3,9-8s1.1,5.9,1.6,6.6c0.4,0.7,1.5-4.1,1.5-4.1s0.1,4.3,0.8,3.9
			c0.7-0.4,1-5.4,1-5.4s1.2,8.3,2.1,2.5c1-5.8-3.4-7.7-6.1-8.6c-2.7-0.9-6.9,7.1-9.6,7.8c-2.6,0.6-6.7-2.8-6.7-2.8L525.3,226.3z"/>
		<g>
			<circle cx="519.9" cy="172.6" r="4.2"/>
			<circle class="st0" cx="520.2" cy="171.8" r="1.5"/>
			<circle class="st0" cx="518.6" cy="174.3" r="0.7"/>
		</g>
		<path class="st10" d="M500.2,232c0,0,0.8,0.1,5.3-1s3.5-8.8,6.1-10.3c2.6-1.5,2.8,5.3,3.5,5.9c0.6,0.6,0.2-4.4,0.2-4.4
			s1.4,4.1,1.9,3.5c0.6-0.6-0.7-5.5-0.7-5.5s3.6,7.5,2.8,1.7c-0.8-5.8-5.5-6.3-8.4-6.3c-2.9,0-4.5,8.9-6.8,10.3
			c-2.3,1.4-7.3-0.6-7.3-0.6L500.2,232z"/>
		<g>
			<path class="st21" d="M566.5,138.5c3.2,6.1,7.8,10.1,10.2,8.8c2.5-1.3,1.9-7.3-1.3-13.4c-3.2-6.1-7.8-10.1-10.2-8.8
				C562.8,126.4,563.4,132.4,566.5,138.5z"/>
			<path class="st22" d="M565.6,139.1c3.2,6.1,7.8,10.1,10.2,8.8c2.5-1.3,1.9-7.3-1.3-13.4c-3.2-6.1-7.8-10.1-10.2-8.8
				C561.8,127,562.4,133,565.6,139.1z"/>
		</g>
		<g>
			<path class="st21" d="M582.3,125.6c2.5,4.7,6,7.8,7.9,6.8c1.9-1,1.5-5.7-1-10.4s-6-7.8-7.9-6.8
				C579.4,116.2,579.8,120.8,582.3,125.6z"/>
			<path class="st22" d="M581.5,126.1c2.5,4.7,6,7.8,7.9,6.8c1.9-1,1.5-5.7-1-10.4s-6-7.8-7.9-6.8
				C578.6,116.7,579.1,121.3,581.5,126.1z"/>
		</g>
		<g>
			<path class="st23" d="M568,119.4c0,0-4.8-2.5-8.6-0.4c-7.2,4-2.9,14.8-2.9,14.8s-2.3-6.3,4.9-12.2
				C565.1,118.8,568,119.4,568,119.4z"/>
			<path class="st24" d="M568,119.4c0,0-5.4,0.7-9.3,5.9s-1.2,11-1.2,11s-3.4-6,0.1-11.4C561.1,119.4,568,119.4,568,119.4z"/>
			<path class="st25" d="M566.1,121c0,0-5.8,3.5-6.8,8.9c-1,5.4,1.9,9.4,1.9,9.4s-4-3.6-3.5-9.5C558.3,123.7,566.1,121,566.1,121z"
				/>
		</g>
		<g>
			<path class="st23" d="M581.5,111.9c0,0-2.8-1.5-5.1-0.2c-4.3,2.4-1.7,8.8-1.7,8.8s-1.3-3.7,2.9-7.2
				C579.8,111.5,581.5,111.9,581.5,111.9z"/>
			<path class="st24" d="M581.5,111.9c0,0-3.2,0.4-5.5,3.5s-0.7,6.5-0.7,6.5s-2-3.6,0.1-6.8C577.4,111.9,581.5,111.9,581.5,111.9z"
				/>
			<path class="st25" d="M580.3,112.9c0,0-3.4,2-4,5.2c-0.6,3.2,1.2,5.6,1.2,5.6s-2.4-2.2-2.1-5.6
				C575.8,114.5,580.3,112.9,580.3,112.9z"/>
		</g>
		<path class="st10" d="M487.6,136.5c0,0,11.5-10.3,32.2-19.4c19.7-8.7,29.7-9.1,29.7-9.1s-4.9-12.7,6.7-17.6s-11.5-12.1-22.5,0
			c-6.9,7.7-10.3-6.7-10.3-6.7l-9.1,21.9l-12.1-3.6l-3.6,18.8l-13.4,1.2L487.6,136.5z"/>
	</g>
</g>
</svg>
