<?xml version="1.0" encoding="utf-8"?>
<!-- Generator: Adobe Illustrator 23.0.1, SVG Export Plug-In . SVG Version: 6.00 Build 0)  -->
<svg version="1.1" xmlns="http://www.w3.org/2000/svg" xmlns:xlink="http://www.w3.org/1999/xlink" x="0px" y="0px" width="93.9px"
	 height="28.8px" viewBox="0 0 93.9 28.8" style="enable-background:new 0 0 93.9 28.8;" xml:space="preserve">
<style type="text/css">
	.st0{fill:#FFFFFF;}
	.st1{clip-path:url(#SVGID_2_);}
	.st2{fill:#6BC62A;}
	.st3{clip-path:url(#SVGID_4_);}
	.st4{fill:none;stroke:#7A6356;stroke-width:3;stroke-linecap:round;stroke-linejoin:round;stroke-miterlimit:10;}
	.st5{fill:#7A6356;}
	.st6{fill:#FFFFFF;stroke:#7A6356;stroke-width:3;stroke-linecap:round;stroke-linejoin:round;stroke-miterlimit:10;}
	.st7{fill:#009380;}
	.st8{fill:url(#SVGID_5_);}
	.st9{fill:url(#SVGID_6_);}
	.st10{fill:#A60C17;}
	.st11{fill:url(#SVGID_7_);}
	.st12{fill:#E02229;}
	.st13{opacity:0.88;fill:#D50000;enable-background:new    ;}
	.st14{fill:url(#SVGID_8_);}
	.st15{fill:#491B02;}
	.st16{fill:url(#SVGID_9_);}
	.st17{fill:url(#SVGID_10_);}
	.st18{fill:url(#SVGID_11_);}
	.st19{fill:#680200;}
	.st20{fill:#A30B05;}
	.st21{fill:#FF5B56;}
	.st22{fill:#A40000;}
	.st23{opacity:0.5;fill:#D50000;enable-background:new    ;}
	.st24{fill:#6A1100;}
	.st25{opacity:0.43;fill:#FFFFFF;enable-background:new    ;}
	.st26{fill:#006325;}
	.st27{fill:#004B25;}
	.st28{fill:url(#SVGID_12_);}
	.st29{fill:url(#SVGID_13_);}
	.st30{fill:#00923D;}
	.st31{opacity:0.4;fill:#006830;enable-background:new    ;}
	.st32{fill:#006830;}
	.st33{fill:url(#SVGID_14_);}
	.st34{fill:#D6E000;}
	.st35{opacity:0.5;fill:#00923D;enable-background:new    ;}
	.st36{fill:none;stroke:#000000;stroke-width:2;stroke-linecap:round;stroke-linejoin:round;stroke-miterlimit:10;}
	.st37{fill:#00962B;}
	.st38{fill:url(#SVGID_15_);}
	.st39{fill:url(#SVGID_16_);}
	.st40{fill:url(#SVGID_17_);}
	.st41{fill:url(#SVGID_18_);}
	.st42{fill:url(#SVGID_19_);}
	.st43{fill:url(#SVGID_20_);}
	.st44{fill:url(#SVGID_21_);}
	.st45{clip-path:url(#SVGID_23_);}
	.st46{fill:url(#SVGID_24_);}
	.st47{fill:url(#SVGID_25_);}
	.st48{fill:url(#SVGID_26_);}
	.st49{clip-path:url(#SVGID_28_);}
	.st50{fill:url(#SVGID_29_);}
	.st51{fill:url(#SVGID_30_);}
	.st52{fill:url(#SVGID_31_);}
</style>
<g id="Layer_2">
	<rect x="-1202.5" y="-395.7" class="st0" width="1146.2" height="404.9"/>
</g>
<g id="green">
	<g>
		<defs>
			<rect id="SVGID_1_" x="-540.9" y="-186.4" width="49.7" height="58"/>
		</defs>
		<clipPath id="SVGID_2_">
			<use xlink:href="#SVGID_1_"  style="overflow:visible;"/>
		</clipPath>
		<g class="st1">
			<path class="st2" d="M-509.6-144.6c0,0-4-20.3,18.1-24.4C-491.4-169.1-487.6-151.7-509.6-144.6z"/>
			<path class="st2" d="M-512.8-144.4c0,0-20.3,7.5-28.1-13.7C-540.9-158-523.5-164.9-512.8-144.4z"/>
			<path class="st2" d="M-513.9-156.3c0,0-17.7-11.7-4.8-30.1C-518.7-186.4-503.2-176.8-513.9-156.3z"/>
			<g>
				<path class="st2" d="M-515.1-158.9c0,0,0.4-2.1,1.3-0.4c1.6,3.1,4.1,11.2,4.2,14.7c0.2,5.4-0.1,11.6-1.1,15.2
					c-1,3.6-2.8,6.5-4.5,8.3c-1.6,1.8-3,2.5-3.1,2.4c-0.1-0.1,1-1.1,2.4-2.9c1.4-1.8-0.5,1.2,1.7-11.2
					C-512.3-143.3-515.2-158.9-515.1-158.9z"/>
			</g>
		</g>
	</g>
	<g>
		<defs>
			<rect id="SVGID_3_" x="40.4" y="46.2" width="49.7" height="58"/>
		</defs>
		<clipPath id="SVGID_4_">
			<use xlink:href="#SVGID_3_"  style="overflow:visible;"/>
		</clipPath>
		<g class="st3">
			<path class="st2" d="M71.7,88c0,0-4-20.3,18.1-24.4C89.9,63.6,93.7,80.9,71.7,88z"/>
			<path class="st2" d="M68.5,88.2c0,0-20.3,7.5-28.1-13.7C40.4,74.6,57.8,67.8,68.5,88.2z"/>
			<path class="st2" d="M67.4,76.3c0,0-17.7-11.7-4.8-30.1C62.6,46.2,78.1,55.8,67.4,76.3z"/>
			<g>
				<path class="st2" d="M66.2,73.7c0,0,0.4-2.1,1.3-0.4c1.6,3.1,4.1,11.2,4.2,14.7c0.2,5.4-0.1,11.6-1.1,15.2
					c-1,3.6-2.8,6.5-4.5,8.3c-1.6,1.8-3,2.5-3.1,2.4c-0.1-0.1,1-1.1,2.4-2.9c1.4-1.8-0.5,1.2,1.7-11.2C69,89.3,66.1,73.7,66.2,73.7z
					"/>
			</g>
		</g>
	</g>
</g>
<g id="fire">
</g>
<g id="Layer_1">
	<line class="st4" x1="-729.9" y1="-236.8" x2="-512.3" y2="-236.8"/>
	<circle class="st5" cx="-621.1" cy="-260.2" r="3.8"/>
	<path class="st5" d="M-613.8-280.5c-3.4-4.1-5.8-11.8-6.9-15.2c-0.1-0.5-0.8-0.5-1,0c-0.8,3-2.9,9.3-6.9,14.7
		c-3.7,5,0.4,12.3,7.3,12.3c0,0,0,0,0.1,0c0,0,0,0,0.1,0C-614.2-268.7-609.8-275.7-613.8-280.5z M-620.3-271.7
		c-3.4,0.6-6.2-2.3-5.7-5.7c0.3-2,2-3.7,4-4c3.4-0.6,6.2,2.3,5.7,5.7C-616.7-273.7-618.3-272-620.3-271.7z"/>
	<line class="st4" x1="-621.1" y1="-236.8" x2="-621.1" y2="-269.9"/>
	<circle class="st6" cx="-621.1" cy="-237.3" r="12"/>
	<g>
		<path class="st7" d="M-560.1-126.9c9.5,17.3,27,28.8,47,28.8c20,0,37.5-11.6,47-28.8H-560.1z"/>
		<polygon class="st4" points="-513.2,-235.1 -560.5,-126.9 -465.9,-126.9 		"/>
		<circle class="st2" cx="-513.2" cy="-235.7" r="6.5"/>
	</g>
	<g>
		<linearGradient id="SVGID_5_" gradientUnits="userSpaceOnUse" x1="-775.968" y1="-112.468" x2="-682.0339" y2="-112.468">
			<stop  offset="0" style="stop-color:#FF3A2D"/>
			<stop  offset="1" style="stop-color:#D50000"/>
		</linearGradient>
		<path class="st8" d="M-776-126.9c9.5,17.3,27,28.8,47,28.8c20,0,37.5-11.6,47-28.8H-776z"/>
		<polygon class="st4" points="-729,-235.1 -776.3,-126.9 -681.7,-126.9 		"/>
		<linearGradient id="SVGID_6_" gradientUnits="userSpaceOnUse" x1="-735.5284" y1="-235.674" x2="-722.4734" y2="-235.674">
			<stop  offset="0" style="stop-color:#FF3A2D"/>
			<stop  offset="1" style="stop-color:#D50000"/>
		</linearGradient>
		<circle class="st9" cx="-729" cy="-235.7" r="6.5"/>
	</g>
	<g>
		<path class="st10" d="M-913.3-188.7c0,0-0.2-1.8-9.7-1.8c-4.9,0-10.3-1.8-10.9-6.7c-1.1-8.8,9.7-19.4,22.5-29.1
			c12.8-9.7-29.1-16.4-37.6-12.1c-8.5,4.2-27.9,36.4-28.5,44.3c-0.6,7.9,10.9,20,10.9,20l14.6-3L-913.3-188.7z"/>
		<path class="st10" d="M-1018.3-137.7c-0.7-1.8-0.8-18.3,1.2-17.6s13,0.3,13,0.3s-15-17.2-12.4-18.5c2.7-1.3,23.9-1.3,22.7-4.4
			c-1.2-3-22.4-8.8-19.8-10.1c2.6-1.3,9.7-14.2,9.7-14.2s-18.6-1.4-16.9-2.6s11.5-10.2,11.5-10.2l-13.4-12.9l13.3-6.1
			c0,0-7-15-5.2-15.2l26.7,2.2l6.7,99L-1018.3-137.7"/>
		<path class="st10" d="M-1018.3-137.7l-10.3-9.1l-8.6,16l-2.9-15.4l-14.2,3.1l-4-11l-6.7,6.7c0,0,20,20,26.7,25.5
			c6.7,5.5,27.3,3,27.3,3L-1018.3-137.7z"/>
		
			<linearGradient id="SVGID_7_" gradientUnits="userSpaceOnUse" x1="-925.7094" y1="809.0461" x2="-839.629" y2="809.0461" gradientTransform="matrix(0.9906 -0.1366 -0.1366 -0.9906 61.296 460.9203)">
			<stop  offset="0" style="stop-color:#E6E6E6"/>
			<stop  offset="1" style="stop-color:#FF9300"/>
		</linearGradient>
		<path class="st11" d="M-954.4-200.4l6.1,2.8l-1.1-8.2l7.5,3.8l-1-7.9c0,0,6.2,2.3,7.2,1.8s2.9-7.1,2.9-7.1l4.4,2.2l1.7-5.4l5,4.7
			l2.4-5.5l4.3,0.9l1-6.2l8.7,3.6l2.2-7.2l6.1,4.4l0.1-9.2c0,0,8.2,7.2,8,6c-0.1-1.2-0.9-8.7-0.9-8.7s8.5,5.5,8.2,4.8
			c-0.3-0.7-3-12.1-3-12.1l-8.9-0.2l-71.5,37.6L-954.4-200.4z"/>
		<path class="st12" d="M-953.9-112.4c0,0-6.7,16.7-7.3,20.4c-0.6,3.6,9.3,5.3,10.2,7.9c0.9,2.6-6.4,1.2-6.4,1.2s-2.5,2.4-4.8,1.8
			c-1.5-0.4-8.3-0.9-12.9-1.3c-2.3-0.2-4-2.3-3.7-4.6l2.8-20.3C-976-107.2-955.3-121.8-953.9-112.4z"/>
		<path class="st13" d="M-978.2-91.8c0,0,9.1-7.5,14.6-9.3s3.9,4.2,3.9,4.2l5.8-15.7c0,0-19.7,3.1-20.2,3.7s-3.1,5.1-3.1,5.1
			L-978.2-91.8z"/>
		<g>
			
				<linearGradient id="SVGID_8_" gradientUnits="userSpaceOnUse" x1="-1032.8104" y1="776.079" x2="-839.3628" y2="776.079" gradientTransform="matrix(0.9906 -0.1366 -0.1366 -0.9906 61.296 460.9203)">
				<stop  offset="0" style="stop-color:#FF3A2D"/>
				<stop  offset="1" style="stop-color:#D50000"/>
			</linearGradient>
			<path class="st14" d="M-954.9-149.7c1.7,5.6,5.9,17.6,6.8,26.4c0.9,8.8-6.6,16.7-14.7,19.3s-12.6,3.3-19.9,5.6
				c-4.1,3.9-8.9,7.3-12.7,11.7c5.1,0.9,11.6,2,15,6.2c-1.6,1.7-3.4,2.8-5.6,3.1c-3.5,0.5-5.6,0.8-9.4,1.3
				c-2.6,0.3-6.9-0.3-10.7-0.6c-2.8-0.2-4.9-2.6-5-5.4c-0.1-5.1,0.4-9.7-0.1-15.3c-25.1-1.8-37.8-29.4-53.9-50
				c10.2-0.6,23.3,17.4,33.4,17c10.1-0.4,31.8-29,35.4-39.2c3.6-10.2-8.8-26.3-13.5-40.4c-4.7-14.2-7.7-24.6,10-38.1
				s65.5-48,82.3-36.3c16.8,11.8,41.6,33.9,31.9,45.2c-9.6,11.3-72.3,27.4-74.2,47.4c-1.9,20,4.4,12.1,12.5,9.4
				c7.4-2.4,29.2-11.4,34-6.5c4.8,4.9-12.7,8.4-27.8,11.8c-14.3,3.2-19.3,10.1-20.9,10.3c-1.6,0.2,3.9,6.8,4.8,9.6
				C-956.1-154.5-956.6-155.2-954.9-149.7z"/>
		</g>
		<path class="st15" d="M-955.8-82.6c0,0-0.6-4.1,1-4c1.6,0.1,4.6,1.9,5.2,3.1C-949.1-82.3-955.8-82.6-955.8-82.6z"/>
		<path class="st15" d="M-963.1-81.2c0,0-0.6-3.5,1.8-3.5s5.5,1.2,6.1,3C-954.6-79.9-963.1-81.2-963.1-81.2z"/>
		<path class="st15" d="M-983.8-78.5c0,0-0.6-4.1,1-4c1.6,0.1,4.6,1.9,5.2,3.1C-977-78.2-983.8-78.5-983.8-78.5z"/>
		<path class="st15" d="M-991-77.1c0,0-0.6-3.5,1.8-3.5c2.4,0,5.5,1.2,6.1,3C-982.5-75.8-991-77.1-991-77.1z"/>
		<path class="st13" d="M-982.5-98.8c0,0-27.3,1.2-28.5,0.6s0.4,10.9,0.2,13.3c-0.2,2.4,4.7-3.6,13.8-6.6
			C-987.9-94.5-982.5-98.8-982.5-98.8z"/>
		<g>
			
				<linearGradient id="SVGID_9_" gradientUnits="userSpaceOnUse" x1="-907.2433" y1="462.6817" x2="-804.1791" y2="462.6817" gradientTransform="matrix(0.9932 -0.1162 -0.101 -0.8634 25.5527 90.1003)">
				<stop  offset="0.1522" style="stop-color:#FF3A2D"/>
				<stop  offset="0.1907" style="stop-color:#FF462A"/>
				<stop  offset="0.4015" style="stop-color:#FF811B"/>
				<stop  offset="0.5953" style="stop-color:#FFB00F"/>
				<stop  offset="0.7658" style="stop-color:#FFD207"/>
				<stop  offset="0.9065" style="stop-color:#FFE702"/>
				<stop  offset="1" style="stop-color:#FFEE00"/>
			</linearGradient>
			<path class="st16" d="M-922.4-205.6c0-0.1,0-0.2,0.1-0.2c1.9-0.9,27.6-13.6,37-15.2c11.3-1.9,21-0.7,26.6-5.5
				c3.9-3.3,4.4-6.3,4.4-7.6c0-0.2,0.3-0.3,0.4-0.1c1.2,1.9,4.1,7.3,1.8,10.5c-2.1,2.9-4.6,5.3-6.1,6.5c-0.2,0.2,0,0.4,0.2,0.3
				c3-1.4,10.5-4.8,14.8-5.6c7.5-1.4,18.1,1.6,22.8,4.2c0.6,0.3,0.4,1.2-0.3,1.3c-3.4,0.3-10.2,1.4-13.7,5.3
				c-4.8,5.3-21.6,27-40.1,23.6C-892.9-191.4-922.3-200.1-922.4-205.6z"/>
			
				<linearGradient id="SVGID_10_" gradientUnits="userSpaceOnUse" x1="-901.8096" y1="457.7103" x2="-835.8675" y2="457.7103" gradientTransform="matrix(0.9932 -0.1162 -0.101 -0.8634 25.5527 90.1003)">
				<stop  offset="0.1522" style="stop-color:#FF5A19"/>
				<stop  offset="1" style="stop-color:#FFEE00"/>
			</linearGradient>
			<path class="st17" d="M-916.8-204.5c0,0,30-12.5,42.3-8.4c12.3,4.1,13.7,10,20.7,8c11.3-3.3-8.6,10.3-20.6,8.6
				C-886.4-198.1-916.8-204.5-916.8-204.5z"/>
			
				<linearGradient id="SVGID_11_" gradientUnits="userSpaceOnUse" x1="-900.0159" y1="458.4858" x2="-849.518" y2="458.4858" gradientTransform="matrix(0.9932 -0.1162 -0.101 -0.8634 25.5527 90.1003)">
				<stop  offset="0.1522" style="stop-color:#FFB02A"/>
				<stop  offset="0.9393" style="stop-color:#FFEE00"/>
			</linearGradient>
			<path class="st18" d="M-915.1-204.8c0,0,21.5-5.6,28.8-5.6c7.3-0.1,10.6,2.3,16.2,4.3c1.3,0.5,4.3,1,5.8,1.3
				c0.3,0,0.3,0.4,0.1,0.5c-2.1,1-8.4,3.9-14.4,4.9C-886.1-198.1-915.1-204.8-915.1-204.8z"/>
		</g>
		<g>
			<path class="st19" d="M-960.9-217.2c0,0-3.2-1.9-6.4-2.4s-8.1-0.6-8.1-0.6l1.7-0.9c0,0-0.7-0.2-1.5-1.1c-0.7-0.7-1.8-3.1-1.8-3.1
				s3.5,0.4,7.4,0.8c5.5,0.7,8.2,3.8,8.2,3.8h-1.1C-962.5-220.6-961.1-218.5-960.9-217.2z"/>
			<path class="st20" d="M-962.9-221.4c0,0-1.6-1.5-4.8-2.3c-3.2-0.8-7-0.9-7-0.9l2.7,1l-3.2-0.5c0,0,1.7,1,4.9,1.6
				c3.2,0.6,7.3,2.3,7.3,2.3l-0.8-1.4L-962.9-221.4z"/>
		</g>
		<path class="st10" d="M-961.8-158.4c0,0,0.8,0.3,5.4,0.6c4.6,0.3,6-7.3,9-8s1.1,5.9,1.6,6.6c0.4,0.7,1.5-4.1,1.5-4.1
			s0.1,4.3,0.8,3.9s1-5.4,1-5.4s1.2,8.3,2.1,2.5c1-5.8-3.4-7.7-6.1-8.6c-2.7-0.9-6.9,7.1-9.6,7.8c-2.6,0.6-6.7-2.8-6.7-2.8
			L-961.8-158.4z"/>
		<g>
			<circle cx="-967.2" cy="-212.1" r="4.2"/>
			<circle class="st0" cx="-966.9" cy="-212.9" r="1.5"/>
			<circle class="st0" cx="-968.5" cy="-210.4" r="0.7"/>
		</g>
		<path class="st10" d="M-986.9-152.7c0,0,0.8,0.1,5.3-1s3.5-8.8,6.1-10.3c2.6-1.5,2.8,5.3,3.5,5.9c0.6,0.6,0.2-4.4,0.2-4.4
			s1.4,4.1,1.9,3.5c0.6-0.6-0.7-5.5-0.7-5.5s3.6,7.5,2.8,1.7s-5.5-6.3-8.4-6.3c-2.9,0-4.5,8.9-6.8,10.3c-2.3,1.4-7.3-0.6-7.3-0.6
			L-986.9-152.7z"/>
		<g>
			<path class="st21" d="M-920.6-246.2c3.2,6.1,7.8,10.1,10.2,8.8c2.5-1.3,1.9-7.3-1.3-13.4s-7.8-10.1-10.2-8.8
				C-924.3-258.3-923.7-252.3-920.6-246.2z"/>
			<path class="st22" d="M-921.5-245.6c3.2,6.1,7.8,10.1,10.2,8.8c2.5-1.3,1.9-7.3-1.3-13.4c-3.2-6.1-7.8-10.1-10.2-8.8
				C-925.3-257.7-924.7-251.7-921.5-245.6z"/>
		</g>
		<g>
			<path class="st21" d="M-904.8-259.1c2.5,4.7,6,7.8,7.9,6.8c1.9-1,1.5-5.7-1-10.4c-2.5-4.7-6-7.8-7.9-6.8
				C-907.7-268.5-907.3-263.9-904.8-259.1z"/>
			<path class="st22" d="M-905.6-258.6c2.5,4.7,6,7.8,7.9,6.8c1.9-1,1.5-5.7-1-10.4c-2.5-4.7-6-7.8-7.9-6.8
				C-908.5-268-908-263.4-905.6-258.6z"/>
		</g>
		<g>
			<path class="st23" d="M-919.1-265.3c0,0-4.8-2.5-8.6-0.4c-7.2,4-2.9,14.8-2.9,14.8s-2.3-6.3,4.9-12.2
				C-922-265.9-919.1-265.3-919.1-265.3z"/>
			<path class="st24" d="M-919.1-265.3c0,0-5.4,0.7-9.3,5.9c-3.9,5.2-1.2,11-1.2,11s-3.4-6,0.1-11.4
				C-926-265.3-919.1-265.3-919.1-265.3z"/>
			<path class="st25" d="M-921-263.7c0,0-5.8,3.5-6.8,8.9c-1,5.4,1.9,9.4,1.9,9.4s-4-3.6-3.5-9.5C-928.8-261-921-263.7-921-263.7z"
				/>
		</g>
		<g>
			<path class="st23" d="M-905.6-272.8c0,0-2.8-1.5-5.1-0.2c-4.3,2.4-1.7,8.8-1.7,8.8s-1.3-3.7,2.9-7.2
				C-907.3-273.2-905.6-272.8-905.6-272.8z"/>
			<path class="st24" d="M-905.6-272.8c0,0-3.2,0.4-5.5,3.5c-2.3,3.1-0.7,6.5-0.7,6.5s-2-3.6,0.1-6.8
				C-909.7-272.8-905.6-272.8-905.6-272.8z"/>
			<path class="st25" d="M-906.8-271.8c0,0-3.4,2-4,5.2c-0.6,3.2,1.2,5.6,1.2,5.6s-2.4-2.2-2.1-5.6
				C-911.3-270.2-906.8-271.8-906.8-271.8z"/>
		</g>
		<path class="st10" d="M-999.5-248.2c0,0,11.5-10.3,32.2-19.4c19.7-8.7,29.7-9.1,29.7-9.1s-4.9-12.7,6.7-17.6
			c11.6-4.9-11.5-12.1-22.5,0c-6.9,7.7-10.3-6.7-10.3-6.7l-9.1,21.9l-12.1-3.6l-3.6,18.8l-13.4,1.2L-999.5-248.2z"/>
	</g>
	<g>
		<g>
			<path class="st26" d="M-307.2-148.1c0,0-21.9-3.7-22.9,0.4c-0.7,2.9,23.4,2.8,23.4,2.8L-307.2-148.1z"/>
			<path class="st26" d="M-327.2-151.5c0,0-5.9-7.3-6.6-5.1s2.1,5.7,2.1,5.7s-8.1-3.6-9.1-2.4s7.9,4.1,7.4,4.2s-8.8-0.6-8.5,0.6
				c0.2,1.2,8.1,1.3,8.2,1.8s-7.7,1.2-7.2,2.1c0.4,0.9,7.4,0.1,8.2,0.2c0.8,0.1-4.9,2.4-4.5,3.4c0.4,0.9,5.4-1.3,6.3-1.9
				c0.9-0.7,5-0.4,6.5-1.7s0.9-4.5,0-5.3C-325.3-150.8-327.2-151.5-327.2-151.5z"/>
		</g>
		<path class="st27" d="M-347.8-202.5c4.9,0,12.8,0.5,16.6-1.6c7.7-4.4-14.5-13.5-27.3-23.3c-12.8-9.8,29.1-16.4,37.6-12.1
			c8.5,4.3,37.7,28.6,38.3,36.5c0.6,7.9-20.7,27.9-20.7,27.9l-14.6-3C-317.8-178.2-357.3-202.5-347.8-202.5z"/>
		
			<linearGradient id="SVGID_12_" gradientUnits="userSpaceOnUse" x1="-356.8865" y1="615.0055" x2="-308.6688" y2="566.7878" gradientTransform="matrix(1 0 0 -1 0 369.1874)">
			<stop  offset="0" style="stop-color:#FFC76D"/>
			<stop  offset="1" style="stop-color:#E8E3E0"/>
		</linearGradient>
		<path class="st28" d="M-368.8-233.9c0,0-1.5,4.1,0.6,4.6s4.3-1.1,4.3-1.1s-1.1,8.6,1.6,7.5c2.7-1.1,4.8-2.6,4.8-2.6
			s-1,5.9,1.6,6.4c2.7,0.5,5.4-2.8,5.4-2.8s0,7.1,2.6,7.1s5.7-3.2,5.7-3.2s-2.5,5.3,1.8,5.9c4.3,0.5,5.4-1.6,5.4-1.6
			s0.5,4.4,3.2,4.8c3.7,0.5,5.1-1.9,5.1-1.9s3,4,4,3.5c1.1-0.5,5.9-2.7,5.9-2.7s-0.5,3.7,2.1,3.7s7-3.7,7-3.7s0,3.7,2.1,3.2
			s3.7-3.7,3.7-3.7s1.1,2.7,3.2,2.1c2.1-0.5,4.3-4.3,4.3-4.3L-368.8-233.9z"/>
		
			<linearGradient id="SVGID_13_" gradientUnits="userSpaceOnUse" x1="-391.4279" y1="433.574" x2="-332.1432" y2="427.3986" gradientTransform="matrix(0.9996 2.982325e-02 2.982325e-02 -0.9996 28.0345 248.4959)">
			<stop  offset="0" style="stop-color:#FFC76D"/>
			<stop  offset="1" style="stop-color:#E8E3E0"/>
		</linearGradient>
		<path class="st29" d="M-291.1-189.7c0,0-3.2-7.5-6.4-5.4c-2.9,1.9-1.6,4.3-1.6,4.3s-1.6-3.7-3.7-2.1c-2.1,1.6-2.1,4.3-2.1,4.3
			s-1-5.3-3.7-3.2c-2.7,2.1-2.8,5.1-2.8,5.1s0.2-5.6-2.5-4.6s-2.2,2.8-2.2,2.8s-0.4-4.4-3.1-3.4s-3.3,2.1-3.3,2.1s-0.9-5.2-3.1-3.2
			c-2.2,2.1-2.7,2.5-2.7,2.5s0.6-5.1-2.1-4.6s-3.7,1.7-3.7,1.7s1.6-3.8-1.6-3.9c-3.2-0.1-3,1.9-3,1.9s0.4-6.1-2.3-4.1
			c-2.7,2.1-3,2.3-3,2.3s4.3-8.3,0.9-8.2c-3.4,0.1-3.8,5.4-3.8,5.4s1.6-7.5-0.5-7s-1.2,5.4-1.2,5.4s10.9,10.6,11.9,11.2
			c1,0.6,41.4,12,41.4,12L-291.1-189.7z"/>
		<g>
			<path class="st30" d="M-309.8-109.6c0,0,6.7,16.7,7.4,20.4c0.6,3.6-9.3,5.4-10.2,8c-0.9,2.6,6.4,1.1,6.4,1.1s2.5,2.4,4.8,1.8
				c1.5-0.4,8.3-1,12.9-1.3c2.3-0.2,4-2.3,3.7-4.6l-2.8-20.2C-287.7-104.5-308.5-119-309.8-109.6z"/>
			<path class="st31" d="M-285.5-89.1c0,0-9.1-7.5-14.6-9.3s-3.9,4.2-3.9,4.2l-5.8-15.7c0,0,19.7,3,20.2,3.6s3.1,5.1,3.1,5.1
				L-285.5-89.1z"/>
			<path class="st15" d="M-307.8-79.8c0,0,0.6-4.1-1-4s-4.6,1.9-5.2,3.1C-314.6-79.5-307.8-79.8-307.8-79.8z"/>
			<path class="st15" d="M-300.6-78.5c0,0,0.6-3.5-1.9-3.5c-2.4,0-5.5,1.2-6.1,3S-300.6-78.5-300.6-78.5z"/>
		</g>
		<path class="st32" d="M-258.4-131.3c0,0,9.1-22.2,6.4-23.6c-2.7-1.3-10.9-7.2-9.6-10.2c1.2-3,23.5-11.5,20.9-12.8
			c-2.7-1.3-9.6-16.6-9.6-16.6s23.3-5.9,21.6-7.1s-11.5-10.2-11.5-10.2l13.4-12.9l-13.3-6.1c0,0-4.4-13,0.9-16.8
			c5.4-3.7-24.6,1.1-24.6,1.1l-28.4,98"/>
		<path class="st32" d="M-260.6-133.5l17.1-13.3l8.6,12.3l2.9-11.6l13.7,2l4.6-9.9l6.7,6.7c0,0-20,20-26.7,25.5s-27.3,3-27.3,3
			L-260.6-133.5z"/>
		
			<linearGradient id="SVGID_14_" gradientUnits="userSpaceOnUse" x1="-370.3408" y1="549.2613" x2="-207.1408" y2="549.2613" gradientTransform="matrix(1 0 0 -1 0 369.1874)">
			<stop  offset="0" style="stop-color:#6BC62A"/>
			<stop  offset="1" style="stop-color:#00B53E"/>
		</linearGradient>
		<path class="st33" d="M-240.4-130.4c-31.9-3.1-29.2-27.7-20.1-43.2c0.1-0.1,0.1-0.2,0-0.3c12.8-13.2,26.4-39.3,23.1-48.9
			c-4.3-12.3-76.6-66.1-99.6-61.3c-23,4.8-33.3,48.5-33.3,48.5c4,15.2,49,32.2,68.8,26.5c7.7-2.3,13.5-3.7,16.9,2.9
			c1.8,3.5,0,8.1-18.2,15c-15.5,5.9-39.4-4.5-43.4-10.7c-3.4-5.4-12.9,2.5-3.8,10.1c6,5,20.4,13.9,43.8,20.4
			c-2.2,3.3-5.1,8.3-5.8,10.2c-1,2.8-4.1,8.9-5.9,14.5c-1.7,5.6-5.5,12.6-6.4,21.4c-0.9,8.8,6.9,18.9,14.9,21.5s12.6,3.3,19.9,5.6
			c4.1,3.9,8.9,7.3,12.7,11.7c-5.1,0.9-11.6,2-15,6.2c1.6,1.7,3.4,2.8,5.6,3.1c3.5,0.5,5.6,0.8,9.4,1.3c2.6,0.3,6.9-0.3,10.7-0.6
			c2.8-0.2,4.9-2.6,5-5.4c0.1-5.1-0.4-9.7,0.1-15.3c25.1-1.8,37.8-29.4,53.9-50C-217.2-148-230.4-129.4-240.4-130.4z"/>
		<g>
			<path class="st2" d="M-339.8-161.5c0,0-13.3-8.3-4.1-22.6C-343.8-184.2-332.3-177.3-339.8-161.5z"/>
			<path class="st2" d="M-341.8-159.5c0,0-5.8,14.9-21.5,8.3C-363.4-151.2-358.7-164.2-341.8-159.5z"/>
			<path class="st2" d="M-348.4-165.2c0,0-15.6,3.7-19.1-13C-367.5-178.2-354.2-181.7-348.4-165.2z"/>
			<g>
				<path class="st2" d="M-350.5-165.9c0-0.1,7.6,1.7,10.7,4.4s6.3,6.1,7.8,8.5s2.1,5,2.2,6.8s-0.2,3-0.3,2.9
					c-0.1,0-0.1-1.1-0.4-2.9c-0.3-1.7-3.9-4.5-5.3-6.7C-337.1-155.2-350.5-165.8-350.5-165.9z"/>
			</g>
		</g>
		<path class="st15" d="M-288.3-78.5c0,0,0.6-4.1-1-4s-4.6,1.9-5.2,3.1C-295-78.2-288.3-78.5-288.3-78.5z"/>
		<path class="st15" d="M-281.1-77.1c0,0,0.6-3.5-1.8-3.5s-5.5,1.2-6.1,3S-281.1-77.1-281.1-77.1z"/>
		<path class="st31" d="M-289.5-98.1c0,0,28.4-0.8,28.4,0.5c0,1.1-0.2,10.9,0,13.4s-4.8-4.2-13.9-7.3S-289.5-98.1-289.5-98.1z"/>
		<g>
			<g>
				<path class="st34" d="M-336.5-239.8c-3.2,6.1-7.8,10.1-10.2,8.8c-2.5-1.3-1.9-7.3,1.3-13.4c3.2-6.1,7.8-10.1,10.2-8.8
					S-333.3-245.9-336.5-239.8z"/>
				<path class="st27" d="M-335.6-239.1c-3.2,6.1-7.8,10.1-10.2,8.8c-2.5-1.3-1.9-7.3,1.3-13.4c3.2-6.1,7.8-10.1,10.2-8.8
					C-331.8-251.3-332.4-245.3-335.6-239.1z"/>
			</g>
			<g>
				<path class="st34" d="M-352.3-252.7c-2.5,4.7-6,7.8-7.9,6.8s-1.5-5.7,1-10.4c2.5-4.7,6-7.8,7.9-6.8
					C-349.3-262.1-349.8-257.4-352.3-252.7z"/>
				<path class="st27" d="M-351.5-252.2c-2.5,4.7-6,7.8-7.9,6.8s-1.5-5.7,1-10.4c2.5-4.7,6-7.8,7.9-6.8S-349-257-351.5-252.2z"/>
			</g>
			<g>
				<path class="st35" d="M-338-258.9c0,0,4.8-2.5,8.6-0.4c7.2,4,2.9,14.8,2.9,14.8s2.3-6.3-4.9-12.2
					C-335-259.5-338-258.9-338-258.9z"/>
				<path class="st32" d="M-338-258.9c0,0,5.4,0.7,9.3,5.9s1.2,11,1.2,11s3.4-6-0.1-11.4C-331-258.9-338-258.9-338-258.9z"/>
				<path class="st25" d="M-336-257.2c0,0,5.8,3.5,6.8,8.9c1,5.4-1.9,9.4-1.9,9.4s4-3.6,3.5-9.5C-328.3-254.6-336-257.2-336-257.2z"
					/>
			</g>
			<g>
				<path class="st35" d="M-351.5-266.4c0,0,2.8-1.5,5.1-0.2c4.3,2.4,1.7,8.8,1.7,8.8s1.3-3.7-2.9-7.2
					C-349.7-266.8-351.5-266.4-351.5-266.4z"/>
				<path class="st32" d="M-351.5-266.4c0,0,3.2,0.4,5.5,3.5s0.7,6.5,0.7,6.5s2-3.6-0.1-6.8C-347.4-266.4-351.5-266.4-351.5-266.4z"
					/>
				<path class="st25" d="M-350.3-265.4c0,0,3.4,2,4,5.2s-1.2,5.6-1.2,5.6s2.4-2.2,2.1-5.6C-345.7-263.8-350.3-265.4-350.3-265.4z"
					/>
			</g>
		</g>
		<g>
			<g>
				<path class="st32" d="M-270.5-226.2c0,0,2.2,2.9,3,6.1s1.4,8,1.4,8l0.7-1.8c0,0,0.3,0.6,1.2,1.4c0.8,0.6,3.2,1.4,3.2,1.4
					s-0.7-3.4-1.6-7.3c-1.2-5.4-4.6-7.8-4.6-7.8l0.1,1.1C-267-225-269.2-226.1-270.5-226.2z"/>
				<path class="st30" d="M-266.1-224.7c0,0,1.7,1.5,2.8,4.6c1.1,3.1,1.6,6.9,1.6,6.9l-1.3-2.5l0.8,3.1c0,0-1.2-1.6-2.1-4.7
					c-0.9-3.2-3-7-3-7l1.5,0.7L-266.1-224.7z"/>
			</g>
			<path class="st36" d="M-276.3-219.2c0,0,7.6-0.9,5.3,6"/>
		</g>
		<g>
			<path class="st37" d="M-307.6-151.8c-4.2-0.3-22.5,2.5-22.2,6.7c0.2,2.9,23.2-4.4,23.2-4.4S-303.4-151.5-307.6-151.8z"/>
			<path class="st37" d="M-328.2-149.6c0,0-7.9-5.2-7.8-2.9c0.1,2.2,3.7,4.8,3.7,4.8s-8.8-1-9.4,0.5s8.8,1.6,8.3,1.8
				c-0.4,0.2-8.6,2-8,3.1s8.1-1.2,8.4-0.8c0.2,0.4-7,3.4-6.3,4.2s7.1-2.1,7.9-2.2c0.8-0.1-4,3.7-3.2,4.6c0.7,0.8,4.7-2.8,5.4-3.7
				s4.6-1.9,5.7-3.6c1.1-1.7-0.5-4.6-1.6-5.1S-328.2-149.6-328.2-149.6z"/>
		</g>
		<path class="st32" d="M-259.5-244.8c0,0-12.3-10.5-33-19.6c-19.7-8.7-33.4-12-33.4-12s0.1-19.7,18.7-24.1c9.1-2.1,24.5,3.8,22,4.8
			c-10.7,4.3-11.4,22.4-2.1,15c8-6.4,20.9,1.1,20.9,1.1s-13.1,8.2-8.6,9.1c5.4,1.1,18.6-2.5,15,1.6c-4.3,4.8-9.6,8.6-9.6,8.6
			s24.1-4.8,19.8,1.1S-259.5-244.8-259.5-244.8z"/>
	</g>
	<g>
		<g>
			<circle class="st5" cx="13.1" cy="-353.4" r="3.8"/>
		</g>
		<g>
			<path class="st5" d="M20.4-373.8c-3.4-4.1-5.8-11.8-6.9-15.2c-0.1-0.5-0.8-0.5-1,0c-0.8,3-2.9,9.3-6.9,14.7
				C2-369.3,6.1-362,13-362c0,0,0,0,0.1,0c0,0,0,0,0.1,0C20-362,24.4-368.9,20.4-373.8z M13.9-365c-3.4,0.6-6.2-2.3-5.7-5.7
				c0.3-2,2-3.7,4-4c3.4-0.6,6.2,2.3,5.7,5.7C17.5-367,15.9-365.3,13.9-365z"/>
		</g>
		<path class="st5" d="M13.1-364.7c-0.8,0-1.5,0.7-1.5,1.5v19.3h3v-19.3C14.6-364,13.9-364.7,13.1-364.7z"/>
	</g>
	<g>
		<path class="st5" d="M266.5-374.1H48.9c-0.8,0-1.5-0.7-1.5-1.5s0.7-1.5,1.5-1.5h217.6c0.8,0,1.5,0.7,1.5,1.5
			S267.3-374.1,266.5-374.1z"/>
	</g>
	<g>
		
			<linearGradient id="SVGID_15_" gradientUnits="userSpaceOnUse" x1="-773.541" y1="-431.991" x2="-701.0491" y2="-431.991" gradientTransform="matrix(-3.274567e-02 -0.9994 -0.8688 2.845226e-02 -352.6037 -927.9941)">
			<stop  offset="0.1522" style="stop-color:#FF3A2D"/>
			<stop  offset="0.1907" style="stop-color:#FF462A"/>
			<stop  offset="0.4015" style="stop-color:#FF811B"/>
			<stop  offset="0.5953" style="stop-color:#FFB00F"/>
			<stop  offset="0.7658" style="stop-color:#FFD207"/>
			<stop  offset="0.9065" style="stop-color:#FFE702"/>
			<stop  offset="1" style="stop-color:#FFEE00"/>
		</linearGradient>
		<path class="st38" d="M45.2-167.1c-0.1,0-0.1,0-0.1-0.1c-0.6-1.4-13.5-16.4-13.1-27.9c0.4-12.1,2.8-27.1,3-29
			c0.3-3.5,4.5,11,5.3,12.1c0.1,0.1,0.3,0,0.3-0.1c-0.9-2.2-1.2-8.2-0.3-12.4s6.1-11.9,8.3-15c0.3-0.4,0.9-0.2,0.9,0.3
			c0,2.3,1,9.8,3.7,12.5c3.7,3.6,11.5,15.2,7.9,27.8C57.5-186.6,49.3-166.9,45.2-167.1z"/>
		
			<linearGradient id="SVGID_16_" gradientUnits="userSpaceOnUse" x1="-769.7884" y1="-433.8231" x2="-721.339" y2="-433.8231" gradientTransform="matrix(-3.274567e-02 -0.9994 -0.8688 2.845226e-02 -352.6037 -927.9941)">
			<stop  offset="0.1522" style="stop-color:#FF5A19"/>
			<stop  offset="1" style="stop-color:#FFEE00"/>
		</linearGradient>
		<path class="st39" d="M46.4-170.9c0,0-7.6-21.5-3.8-29.7s5.4-12.2,4.3-17.1c-1.8-8,10.8,14.4,8.9,22.6
			C53.7-187,46.4-170.9,46.4-170.9z"/>
		
			<linearGradient id="SVGID_17_" gradientUnits="userSpaceOnUse" x1="-768.545" y1="-432.9991" x2="-733.6093" y2="-432.9991" gradientTransform="matrix(-3.274567e-02 -0.9994 -0.8688 2.845226e-02 -352.6037 -927.9941)">
			<stop  offset="0.1522" style="stop-color:#FFB02A"/>
			<stop  offset="0.9393" style="stop-color:#FFEE00"/>
		</linearGradient>
		<path class="st40" d="M46.2-172.1c0,0-2.9-15.1-2.5-20.2c0.3-5,2.3-7.2,4.1-10.9c0.4-0.9,1-2.9,1.3-3.9c0.1-0.2,0.3-0.2,0.4,0
			c0.7,1.5,2.5,6,2.8,10.2C52.9-191.7,46.2-172.1,46.2-172.1z"/>
	</g>
	<g>
		<linearGradient id="SVGID_18_" gradientUnits="userSpaceOnUse" x1="0.3312" y1="-167.4198" x2="94.2654" y2="-167.4198">
			<stop  offset="0" style="stop-color:#FF3A2D"/>
			<stop  offset="1" style="stop-color:#D50000"/>
		</linearGradient>
		<path class="st41" d="M0.3-181.8c9.5,17.3,27,28.8,47,28.8s37.5-11.6,47-28.8H0.3z"/>
		<polygon class="st4" points="47.3,-290.1 0,-181.8 94.6,-181.8 		"/>
		<linearGradient id="SVGID_19_" gradientUnits="userSpaceOnUse" x1="40.7708" y1="-290.6258" x2="53.8258" y2="-290.6258">
			<stop  offset="0" style="stop-color:#FF3A2D"/>
			<stop  offset="1" style="stop-color:#D50000"/>
		</linearGradient>
		<circle class="st42" cx="47.3" cy="-290.6" r="6.5"/>
	</g>
	<g>
		<path class="st2" d="M164.2-199.6c0,0-4-20.3,18.1-24.4C182.3-224,186.2-206.7,164.2-199.6z"/>
		<path class="st2" d="M161-199.3c0,0-20.3,7.5-28.1-13.7C132.9-213,150.3-219.8,161-199.3z"/>
		<path class="st2" d="M159.9-211.3c0,0-17.7-11.7-4.8-30.1C155.1-241.4,170.6-231.7,159.9-211.3z"/>
		<g>
			<path class="st2" d="M158.7-213.9c0,0,0.4-2.1,1.3-0.4c1.6,3.1,4.1,11.2,4.2,14.7c0.2,5.4-0.1,11.6-1.1,15.2
				c-1,3.6-2.8,6.5-4.5,8.3c-1.6,1.8-3,2.5-3.1,2.4c-0.1-0.1,1-1.1,2.4-2.9c1.4-1.8-0.5,1.2,1.7-11.2
				C161.5-198.3,158.6-213.9,158.7-213.9z"/>
		</g>
	</g>
	<g>
		<path class="st7" d="M113.6-181.8c9.5,17.3,27,28.8,47,28.8s37.5-11.6,47-28.8H113.6z"/>
		<polygon class="st4" points="160.6,-290.1 113.3,-181.8 207.9,-181.8 		"/>
		<circle class="st2" cx="160.6" cy="-290.6" r="6.5"/>
	</g>
	<g>
		<circle class="st0" cx="53.8" cy="-348.5" r="12"/>
		<path class="st5" d="M53.8-335c-7.4,0-13.5-6-13.5-13.5s6-13.5,13.5-13.5s13.5,6,13.5,13.5S61.3-335,53.8-335z M53.8-359
			c-5.8,0-10.5,4.7-10.5,10.5S48.1-338,53.8-338s10.5-4.7,10.5-10.5S59.6-359,53.8-359z"/>
	</g>
	<g>
		<polygon class="st4" points="47,-120.3 -0.4,-12.1 94.3,-12.1 		"/>
		<linearGradient id="SVGID_20_" gradientUnits="userSpaceOnUse" x1="40.4396" y1="-120.8488" x2="53.4945" y2="-120.8488">
			<stop  offset="0" style="stop-color:#FF3A2D"/>
			<stop  offset="1" style="stop-color:#D50000"/>
		</linearGradient>
		<circle class="st43" cx="47" cy="-120.8" r="6.5"/>
	</g>
	<g>
		<polygon class="st4" points="160.6,-120.3 113.3,-12.1 207.9,-12.1 		"/>
		<circle class="st2" cx="160.6" cy="-120.8" r="6.5"/>
	</g>
	<linearGradient id="SVGID_21_" gradientUnits="userSpaceOnUse" x1="0" y1="14.4148" x2="93.9341" y2="14.4148">
		<stop  offset="0" style="stop-color:#FF3A2D"/>
		<stop  offset="1" style="stop-color:#D50000"/>
	</linearGradient>
	<path class="st44" d="M0,0c9.5,17.3,27,28.8,47,28.8S84.4,17.3,93.9,0H0z"/>
	<path class="st7" d="M114.6,1c9.5,17.3,27,28.8,47,28.8s37.5-11.6,47-28.8H114.6z"/>
	<g>
		<defs>
			<rect id="SVGID_22_" x="-744.4" y="-184.8" width="30.1" height="56.3"/>
		</defs>
		<clipPath id="SVGID_23_">
			<use xlink:href="#SVGID_22_"  style="overflow:visible;"/>
		</clipPath>
		<g class="st45">
			
				<linearGradient id="SVGID_24_" gradientUnits="userSpaceOnUse" x1="-803.0554" y1="462.6296" x2="-730.5635" y2="462.6296" gradientTransform="matrix(-3.274567e-02 -0.9994 -0.8688 2.845226e-02 -352.6037 -927.9941)">
				<stop  offset="0.1522" style="stop-color:#FF3A2D"/>
				<stop  offset="0.1907" style="stop-color:#FF462A"/>
				<stop  offset="0.4015" style="stop-color:#FF811B"/>
				<stop  offset="0.5953" style="stop-color:#FFB00F"/>
				<stop  offset="0.7658" style="stop-color:#FFD207"/>
				<stop  offset="0.9065" style="stop-color:#FFE702"/>
				<stop  offset="1" style="stop-color:#FFEE00"/>
			</linearGradient>
			<path class="st46" d="M-731.1-112.1c-0.1,0-0.1,0-0.1-0.1c-0.6-1.4-13.5-16.4-13.1-27.9c0.4-12.1,2.8-27.1,3-29
				c0.3-3.5,4.5,11,5.3,12.1c0.1,0.1,0.3,0,0.3-0.1c-0.9-2.2-1.2-8.2-0.3-12.4c1-4.2,6.1-11.9,8.3-15c0.3-0.4,0.9-0.2,0.9,0.3
				c0,2.3,1,9.8,3.7,12.5c3.7,3.6,11.5,15.2,7.9,27.8C-718.8-131.6-727-111.9-731.1-112.1z"/>
			
				<linearGradient id="SVGID_25_" gradientUnits="userSpaceOnUse" x1="-799.3029" y1="460.7975" x2="-750.8535" y2="460.7975" gradientTransform="matrix(-3.274567e-02 -0.9994 -0.8688 2.845226e-02 -352.6037 -927.9941)">
				<stop  offset="0.1522" style="stop-color:#FF5A19"/>
				<stop  offset="1" style="stop-color:#FFEE00"/>
			</linearGradient>
			<path class="st47" d="M-729.9-115.9c0,0-7.6-21.5-3.8-29.7c3.8-8.2,5.4-12.2,4.3-17.1c-1.8-8,10.8,14.4,8.9,22.6
				C-722.6-132-729.9-115.9-729.9-115.9z"/>
			
				<linearGradient id="SVGID_26_" gradientUnits="userSpaceOnUse" x1="-798.0594" y1="461.6215" x2="-763.1237" y2="461.6215" gradientTransform="matrix(-3.274567e-02 -0.9994 -0.8688 2.845226e-02 -352.6037 -927.9941)">
				<stop  offset="0.1522" style="stop-color:#FFB02A"/>
				<stop  offset="0.9393" style="stop-color:#FFEE00"/>
			</linearGradient>
			<path class="st48" d="M-730.1-117.2c0,0-2.9-15.1-2.5-20.2c0.3-5,2.3-7.2,4.1-10.9c0.4-0.9,1-2.9,1.3-3.9c0.1-0.2,0.3-0.2,0.4,0
				c0.7,1.5,2.5,6,2.8,10.2C-723.4-136.7-730.1-117.2-730.1-117.2z"/>
		</g>
	</g>
	<g>
		<defs>
			<rect id="SVGID_27_" x="0.3" y="45.2" width="30.1" height="56.3"/>
		</defs>
		<clipPath id="SVGID_28_">
			<use xlink:href="#SVGID_27_"  style="overflow:visible;"/>
		</clipPath>
		<g class="st49">
			
				<linearGradient id="SVGID_29_" gradientUnits="userSpaceOnUse" x1="-1057.2778" y1="-384.918" x2="-984.7859" y2="-384.918" gradientTransform="matrix(-3.274567e-02 -0.9994 -0.8688 2.845226e-02 -352.6037 -927.9941)">
				<stop  offset="0.1522" style="stop-color:#FF3A2D"/>
				<stop  offset="0.1907" style="stop-color:#FF462A"/>
				<stop  offset="0.4015" style="stop-color:#FF811B"/>
				<stop  offset="0.5953" style="stop-color:#FFB00F"/>
				<stop  offset="0.7658" style="stop-color:#FFD207"/>
				<stop  offset="0.9065" style="stop-color:#FFE702"/>
				<stop  offset="1" style="stop-color:#FFEE00"/>
			</linearGradient>
			<path class="st50" d="M13.6,117.8c-0.1,0-0.1,0-0.1-0.1C12.9,116.4,0,101.3,0.3,89.8c0.4-12.1,2.8-27.1,3-29
				c0.3-3.5,4.5,11,5.3,12.1c0.1,0.1,0.3,0,0.3-0.1C8,70.6,7.7,64.6,8.6,60.4s6.1-11.9,8.3-15c0.3-0.4,0.9-0.2,0.9,0.3
				c0,2.3,1,9.8,3.7,12.5c3.7,3.6,11.5,15.2,7.9,27.8C25.9,98.3,17.7,118.1,13.6,117.8z"/>
			
				<linearGradient id="SVGID_30_" gradientUnits="userSpaceOnUse" x1="-1053.5253" y1="-386.75" x2="-1005.0759" y2="-386.75" gradientTransform="matrix(-3.274567e-02 -0.9994 -0.8688 2.845226e-02 -352.6037 -927.9941)">
				<stop  offset="0.1522" style="stop-color:#FF5A19"/>
				<stop  offset="1" style="stop-color:#FFEE00"/>
			</linearGradient>
			<path class="st51" d="M14.8,114c0,0-7.6-21.5-3.8-29.7s5.4-12.2,4.3-17.1c-1.8-8,10.8,14.4,8.9,22.6C22.1,98,14.8,114,14.8,114z"
				/>
			
				<linearGradient id="SVGID_31_" gradientUnits="userSpaceOnUse" x1="-1052.2819" y1="-385.926" x2="-1017.3461" y2="-385.926" gradientTransform="matrix(-3.274567e-02 -0.9994 -0.8688 2.845226e-02 -352.6037 -927.9941)">
				<stop  offset="0.1522" style="stop-color:#FFB02A"/>
				<stop  offset="0.9393" style="stop-color:#FFEE00"/>
			</linearGradient>
			<path class="st52" d="M14.6,112.8c0,0-2.9-15.1-2.5-20.2c0.3-5,2.3-7.2,4.1-10.9c0.4-0.9,1-2.9,1.3-3.9c0.1-0.2,0.3-0.2,0.4,0
				c0.7,1.5,2.5,6,2.8,10.2C21.3,93.2,14.6,112.8,14.6,112.8z"/>
		</g>
	</g>
</g>
</svg>
