<?xml version="1.0" encoding="utf-8"?>
<!-- Generator: Adobe Illustrator 23.0.1, SVG Export Plug-In . SVG Version: 6.00 Build 0)  -->
<svg version="1.1" xmlns="http://www.w3.org/2000/svg" xmlns:xlink="http://www.w3.org/1999/xlink" x="0px" y="0px" width="97.6px"
	 height="116.8px" viewBox="0 0 97.6 116.8" style="enable-background:new 0 0 97.6 116.8;" xml:space="preserve">
<style type="text/css">
	.st0{fill:#FFFFFF;}
	.st1{clip-path:url(#SVGID_2_);}
	.st2{fill:#6BC62A;}
	.st3{clip-path:url(#SVGID_4_);}
	.st4{fill:none;stroke:#7A6356;stroke-width:3;stroke-linecap:round;stroke-linejoin:round;stroke-miterlimit:10;}
	.st5{fill:#7A6356;}
	.st6{fill:#FFFFFF;stroke:#7A6356;stroke-width:3;stroke-linecap:round;stroke-linejoin:round;stroke-miterlimit:10;}
	.st7{fill:#009380;}
	.st8{fill:url(#SVGID_5_);}
	.st9{fill:url(#SVGID_6_);}
	.st10{fill:#A60C17;}
	.st11{fill:url(#SVGID_7_);}
	.st12{fill:#E02229;}
	.st13{opacity:0.88;fill:#D50000;enable-background:new    ;}
	.st14{fill:url(#SVGID_8_);}
	.st15{fill:#491B02;}
	.st16{fill:url(#SVGID_9_);}
	.st17{fill:url(#SVGID_10_);}
	.st18{fill:url(#SVGID_11_);}
	.st19{fill:#680200;}
	.st20{fill:#A30B05;}
	.st21{fill:#FF5B56;}
	.st22{fill:#A40000;}
	.st23{opacity:0.5;fill:#D50000;enable-background:new    ;}
	.st24{fill:#6A1100;}
	.st25{opacity:0.43;fill:#FFFFFF;enable-background:new    ;}
	.st26{fill:#006325;}
	.st27{fill:#004B25;}
	.st28{fill:url(#SVGID_12_);}
	.st29{fill:url(#SVGID_13_);}
	.st30{fill:#00923D;}
	.st31{opacity:0.4;fill:#006830;enable-background:new    ;}
	.st32{fill:#006830;}
	.st33{fill:url(#SVGID_14_);}
	.st34{fill:#D6E000;}
	.st35{opacity:0.5;fill:#00923D;enable-background:new    ;}
	.st36{fill:none;stroke:#000000;stroke-width:2;stroke-linecap:round;stroke-linejoin:round;stroke-miterlimit:10;}
	.st37{fill:#00962B;}
	.st38{fill:url(#SVGID_15_);}
	.st39{fill:url(#SVGID_16_);}
	.st40{fill:url(#SVGID_17_);}
	.st41{fill:url(#SVGID_18_);}
	.st42{fill:url(#SVGID_19_);}
	.st43{fill:url(#SVGID_20_);}
	.st44{fill:url(#SVGID_21_);}
	.st45{clip-path:url(#SVGID_23_);}
	.st46{fill:url(#SVGID_24_);}
	.st47{fill:url(#SVGID_25_);}
	.st48{fill:url(#SVGID_26_);}
	.st49{clip-path:url(#SVGID_28_);}
	.st50{fill:url(#SVGID_29_);}
	.st51{fill:url(#SVGID_30_);}
	.st52{fill:url(#SVGID_31_);}
</style>
<g id="Layer_2">
	<rect x="-1200.7" y="-268.3" class="st0" width="1146.2" height="404.9"/>
</g>
<g id="green">
	<g>
		<defs>
			<rect id="SVGID_1_" x="-539" y="-59.1" width="49.7" height="58"/>
		</defs>
		<clipPath id="SVGID_2_">
			<use xlink:href="#SVGID_1_"  style="overflow:visible;"/>
		</clipPath>
		<g class="st1">
			<path class="st2" d="M-507.7-17.2c0,0-4-20.3,18.1-24.4C-489.6-41.7-485.7-24.4-507.7-17.2z"/>
			<path class="st2" d="M-510.9-17c0,0-20.3,7.5-28.1-13.7C-539-30.7-521.6-37.5-510.9-17z"/>
			<path class="st2" d="M-512-28.9c0,0-17.7-11.7-4.8-30.1C-516.8-59.1-501.3-49.4-512-28.9z"/>
			<g>
				<path class="st2" d="M-513.2-31.6c0,0,0.4-2.1,1.3-0.4c1.6,3.1,4.1,11.2,4.2,14.7c0.2,5.4-0.1,11.6-1.1,15.2
					c-1,3.6-2.8,6.5-4.5,8.3c-1.6,1.8-3,2.5-3.1,2.4c-0.1-0.1,1-1.1,2.4-2.9c1.4-1.8-0.5,1.2,1.7-11.2
					C-510.4-16-513.3-31.5-513.2-31.6z"/>
			</g>
		</g>
	</g>
	<g>
		<defs>
			<rect id="SVGID_3_" x="42.3" y="173.6" width="49.7" height="58"/>
		</defs>
		<clipPath id="SVGID_4_">
			<use xlink:href="#SVGID_3_"  style="overflow:visible;"/>
		</clipPath>
		<g class="st3">
			<path class="st2" d="M73.6,215.4c0,0-4-20.3,18.1-24.4C91.7,190.9,95.6,208.3,73.6,215.4z"/>
			<path class="st2" d="M70.4,215.6c0,0-20.3,7.5-28.1-13.7C42.3,202,59.7,195.2,70.4,215.6z"/>
			<path class="st2" d="M69.3,203.7c0,0-17.7-11.7-4.8-30.1C64.5,173.6,80,183.2,69.3,203.7z"/>
			<g>
				<path class="st2" d="M68.1,201.1c0,0,0.4-2.1,1.3-0.4c1.6,3.1,4.1,11.2,4.2,14.7c0.2,5.4-0.1,11.6-1.1,15.2
					c-1,3.6-2.8,6.5-4.5,8.3c-1.6,1.8-3,2.5-3.1,2.4c-0.1-0.1,1-1.1,2.4-2.9c1.4-1.8-0.5,1.2,1.7-11.2
					C70.9,216.7,68,201.1,68.1,201.1z"/>
			</g>
		</g>
	</g>
</g>
<g id="fire">
</g>
<g id="Layer_1">
	<line class="st4" x1="-728" y1="-109.4" x2="-510.4" y2="-109.4"/>
	<circle class="st5" cx="-619.2" cy="-132.8" r="3.8"/>
	<path class="st5" d="M-611.9-153.1c-3.4-4.1-5.8-11.8-6.9-15.2c-0.1-0.5-0.8-0.5-1,0c-0.8,3-2.9,9.3-6.9,14.7
		c-3.7,5,0.4,12.3,7.3,12.3c0,0,0,0,0.1,0c0,0,0,0,0.1,0C-612.4-141.3-608-148.3-611.9-153.1z M-618.5-144.3
		c-3.4,0.6-6.2-2.3-5.7-5.7c0.3-2,2-3.7,4-4c3.4-0.6,6.2,2.3,5.7,5.7C-614.8-146.3-616.4-144.7-618.5-144.3z"/>
	<line class="st4" x1="-619.2" y1="-109.4" x2="-619.2" y2="-142.6"/>
	<circle class="st6" cx="-619.2" cy="-109.9" r="12"/>
	<g>
		<path class="st7" d="M-558.3,0.5c9.5,17.3,27,28.8,47,28.8s37.5-11.6,47-28.8H-558.3z"/>
		<polygon class="st4" points="-511.3,-107.8 -558.6,0.5 -464,0.5 		"/>
		<circle class="st2" cx="-511.3" cy="-108.3" r="6.5"/>
	</g>
	<g>
		<linearGradient id="SVGID_5_" gradientUnits="userSpaceOnUse" x1="-774.1174" y1="14.9083" x2="-680.1833" y2="14.9083">
			<stop  offset="0" style="stop-color:#FF3A2D"/>
			<stop  offset="1" style="stop-color:#D50000"/>
		</linearGradient>
		<path class="st8" d="M-774.1,0.5c9.5,17.3,27,28.8,47,28.8s37.5-11.6,47-28.8H-774.1z"/>
		<polygon class="st4" points="-727.2,-107.8 -774.5,0.5 -679.8,0.5 		"/>
		<linearGradient id="SVGID_6_" gradientUnits="userSpaceOnUse" x1="-733.6779" y1="-108.2978" x2="-720.6229" y2="-108.2978">
			<stop  offset="0" style="stop-color:#FF3A2D"/>
			<stop  offset="1" style="stop-color:#D50000"/>
		</linearGradient>
		<circle class="st9" cx="-727.2" cy="-108.3" r="6.5"/>
	</g>
	<g>
		<path class="st10" d="M-911.5-61.3c0,0-0.2-1.8-9.7-1.8c-4.9,0-10.3-1.8-10.9-6.7c-1.1-8.8,9.7-19.4,22.5-29.1
			c12.8-9.7-29.1-16.4-37.6-12.1c-8.5,4.2-27.9,36.4-28.5,44.3c-0.6,7.9,10.9,20,10.9,20l14.6-3L-911.5-61.3z"/>
		<path class="st10" d="M-1016.5-10.3c-0.7-1.8-0.8-18.3,1.2-17.6s13,0.3,13,0.3s-15-17.2-12.4-18.5c2.7-1.3,23.9-1.3,22.7-4.4
			c-1.2-3-22.4-8.8-19.8-10.1c2.6-1.3,9.7-14.2,9.7-14.2s-18.6-1.4-16.9-2.6s11.5-10.2,11.5-10.2l-13.4-12.9l13.3-6.1
			c0,0-7-15-5.2-15.2l26.7,2.2l6.7,99L-1016.5-10.3"/>
		<path class="st10" d="M-1016.5-10.3l-10.3-9.1l-8.6,16l-2.9-15.4l-14.2,3.1l-4-11l-6.7,6.7c0,0,20,20,26.7,25.5
			c6.7,5.5,27.3,3,27.3,3L-1016.5-10.3z"/>
		
			<linearGradient id="SVGID_7_" gradientUnits="userSpaceOnUse" x1="-923.8588" y1="936.4224" x2="-837.7784" y2="936.4224" gradientTransform="matrix(0.9906 -0.1366 -0.1366 -0.9906 78.7129 714.7281)">
			<stop  offset="0" style="stop-color:#E6E6E6"/>
			<stop  offset="1" style="stop-color:#FF9300"/>
		</linearGradient>
		<path class="st11" d="M-952.6-73l6.1,2.8l-1.1-8.2l7.5,3.8l-1-7.9c0,0,6.2,2.3,7.2,1.8s2.9-7.1,2.9-7.1l4.4,2.2l1.7-5.4l5,4.7
			l2.4-5.5l4.3,0.9l1-6.2l8.7,3.6l2.2-7.2l6.1,4.4l0.1-9.2c0,0,8.2,7.2,8,6c-0.1-1.2-0.9-8.7-0.9-8.7s8.5,5.5,8.2,4.8
			c-0.3-0.7-3-12.1-3-12.1l-8.9-0.2l-71.5,37.6L-952.6-73z"/>
		<path class="st12" d="M-952.1,15c0,0-6.7,16.7-7.3,20.4c-0.6,3.6,9.3,5.3,10.2,7.9c0.9,2.6-6.4,1.2-6.4,1.2s-2.5,2.4-4.8,1.8
			c-1.5-0.4-8.3-0.9-12.9-1.3c-2.3-0.2-4-2.3-3.7-4.6l2.8-20.3C-974.2,20.2-953.5,5.6-952.1,15z"/>
		<path class="st13" d="M-976.4,35.6c0,0,9.1-7.5,14.6-9.3s3.9,4.2,3.9,4.2l5.8-15.7c0,0-19.7,3.1-20.2,3.7s-3.1,5.1-3.1,5.1
			L-976.4,35.6z"/>
		<g>
			
				<linearGradient id="SVGID_8_" gradientUnits="userSpaceOnUse" x1="-1030.9598" y1="903.4552" x2="-837.5122" y2="903.4552" gradientTransform="matrix(0.9906 -0.1366 -0.1366 -0.9906 78.7129 714.7281)">
				<stop  offset="0" style="stop-color:#FF3A2D"/>
				<stop  offset="1" style="stop-color:#D50000"/>
			</linearGradient>
			<path class="st14" d="M-953.1-22.3c1.7,5.6,5.9,17.6,6.8,26.4c0.9,8.8-6.6,16.7-14.7,19.3s-12.6,3.3-19.9,5.6
				c-4.1,3.9-8.9,7.3-12.7,11.7c5.1,0.9,11.6,2,15,6.2c-1.6,1.7-3.4,2.8-5.6,3.1c-3.5,0.5-5.6,0.8-9.4,1.3
				c-2.6,0.3-6.9-0.3-10.7-0.6c-2.8-0.2-4.9-2.6-5-5.4c-0.1-5.1,0.4-9.7-0.1-15.3c-25.1-1.8-37.8-29.4-53.9-50
				c10.2-0.6,23.3,17.4,33.4,17c10.1-0.4,31.8-29,35.4-39.2s-8.8-26.3-13.5-40.4c-4.7-14.2-7.7-24.6,10-38.1s65.5-48,82.3-36.3
				c16.8,11.8,41.6,33.9,31.9,45.2c-9.6,11.3-72.3,27.4-74.2,47.4c-1.9,20,4.4,12.1,12.5,9.4c7.4-2.4,29.2-11.4,34-6.5
				s-12.7,8.4-27.8,11.8c-14.3,3.2-19.3,10.1-20.9,10.3c-1.6,0.2,3.9,6.8,4.8,9.6C-954.3-27.1-954.8-27.8-953.1-22.3z"/>
		</g>
		<path class="st15" d="M-954,44.8c0,0-0.6-4.1,1-4c1.6,0.1,4.6,1.9,5.2,3.1C-947.3,45.1-954,44.8-954,44.8z"/>
		<path class="st15" d="M-961.3,46.2c0,0-0.6-3.5,1.8-3.5c2.4,0,5.5,1.2,6.1,3C-952.8,47.5-961.3,46.2-961.3,46.2z"/>
		<path class="st15" d="M-982,48.9c0,0-0.6-4.1,1-4c1.6,0.1,4.6,1.9,5.2,3.1C-975.2,49.2-982,48.9-982,48.9z"/>
		<path class="st15" d="M-989.2,50.3c0,0-0.6-3.5,1.8-3.5s5.5,1.2,6.1,3C-980.7,51.6-989.2,50.3-989.2,50.3z"/>
		<path class="st13" d="M-980.7,28.6c0,0-27.3,1.2-28.5,0.6s0.4,10.9,0.2,13.3c-0.2,2.4,4.7-3.6,13.8-6.6S-980.7,28.6-980.7,28.6z"
			/>
		<g>
			
				<linearGradient id="SVGID_9_" gradientUnits="userSpaceOnUse" x1="-905.3928" y1="590.0579" x2="-802.3285" y2="590.0579" gradientTransform="matrix(0.9932 -0.1162 -0.101 -0.8634 38.4303 327.6682)">
				<stop  offset="0.1522" style="stop-color:#FF3A2D"/>
				<stop  offset="0.1907" style="stop-color:#FF462A"/>
				<stop  offset="0.4015" style="stop-color:#FF811B"/>
				<stop  offset="0.5953" style="stop-color:#FFB00F"/>
				<stop  offset="0.7658" style="stop-color:#FFD207"/>
				<stop  offset="0.9065" style="stop-color:#FFE702"/>
				<stop  offset="1" style="stop-color:#FFEE00"/>
			</linearGradient>
			<path class="st16" d="M-920.6-78.3c0-0.1,0-0.2,0.1-0.2c1.9-0.9,27.6-13.6,37-15.2c11.3-1.9,21-0.7,26.6-5.5
				c3.9-3.3,4.4-6.3,4.4-7.6c0-0.2,0.3-0.3,0.4-0.1c1.2,1.9,4.1,7.3,1.8,10.5c-2.1,2.9-4.6,5.3-6.1,6.5c-0.2,0.2,0,0.4,0.2,0.3
				c3-1.4,10.5-4.8,14.8-5.6c7.6-1.4,18.1,1.6,22.8,4.2c0.6,0.3,0.4,1.2-0.3,1.3c-3.4,0.3-10.2,1.4-13.7,5.3
				c-4.8,5.3-21.6,27-40.1,23.6C-891-64.1-920.4-72.7-920.6-78.3z"/>
			
				<linearGradient id="SVGID_10_" gradientUnits="userSpaceOnUse" x1="-899.9591" y1="585.0865" x2="-834.017" y2="585.0865" gradientTransform="matrix(0.9932 -0.1162 -0.101 -0.8634 38.4303 327.6682)">
				<stop  offset="0.1522" style="stop-color:#FF5A19"/>
				<stop  offset="1" style="stop-color:#FFEE00"/>
			</linearGradient>
			<path class="st17" d="M-915-77.1c0,0,30-12.5,42.3-8.4s13.7,10,20.7,8c11.3-3.3-8.6,10.3-20.6,8.6C-884.6-70.7-915-77.1-915-77.1
				z"/>
			
				<linearGradient id="SVGID_11_" gradientUnits="userSpaceOnUse" x1="-898.1653" y1="585.8621" x2="-847.6674" y2="585.8621" gradientTransform="matrix(0.9932 -0.1162 -0.101 -0.8634 38.4303 327.6682)">
				<stop  offset="0.1522" style="stop-color:#FFB02A"/>
				<stop  offset="0.9393" style="stop-color:#FFEE00"/>
			</linearGradient>
			<path class="st18" d="M-913.2-77.4c0,0,21.5-5.6,28.8-5.6c7.3-0.1,10.6,2.3,16.2,4.3c1.3,0.5,4.3,1,5.8,1.3
				c0.3,0,0.3,0.4,0.1,0.5c-2.1,1-8.4,3.9-14.4,4.9C-884.2-70.8-913.2-77.4-913.2-77.4z"/>
		</g>
		<g>
			<path class="st19" d="M-959.1-89.8c0,0-3.2-1.9-6.4-2.4s-8.1-0.6-8.1-0.6l1.7-0.9c0,0-0.7-0.2-1.5-1.1c-0.7-0.7-1.8-3.1-1.8-3.1
				s3.5,0.4,7.4,0.8c5.5,0.7,8.2,3.8,8.2,3.8h-1.1C-960.7-93.2-959.3-91.1-959.1-89.8z"/>
			<path class="st20" d="M-961.1-94c0,0-1.6-1.5-4.8-2.3s-7-0.9-7-0.9l2.7,1l-3.2-0.5c0,0,1.7,1,4.9,1.6c3.2,0.6,7.3,2.3,7.3,2.3
				l-0.8-1.4L-961.1-94z"/>
		</g>
		<path class="st10" d="M-960-31c0,0,0.8,0.3,5.4,0.6c4.6,0.3,6-7.3,9-8s1.1,5.9,1.6,6.6c0.4,0.7,1.5-4.1,1.5-4.1s0.1,4.3,0.8,3.9
			s1-5.4,1-5.4s1.2,8.3,2.1,2.5c1-5.8-3.4-7.7-6.1-8.6s-6.9,7.1-9.6,7.8c-2.6,0.6-6.7-2.8-6.7-2.8L-960-31z"/>
		<g>
			<circle cx="-965.4" cy="-84.7" r="4.2"/>
			<circle class="st0" cx="-965.1" cy="-85.5" r="1.5"/>
			<circle class="st0" cx="-966.7" cy="-83" r="0.7"/>
		</g>
		<path class="st10" d="M-985.1-25.3c0,0,0.8,0.1,5.3-1s3.5-8.8,6.1-10.3c2.6-1.5,2.8,5.3,3.5,5.9c0.6,0.6,0.2-4.4,0.2-4.4
			s1.4,4.1,1.9,3.5c0.6-0.6-0.7-5.5-0.7-5.5s3.6,7.5,2.8,1.7s-5.5-6.3-8.4-6.3c-2.9,0-4.5,8.9-6.8,10.3c-2.3,1.4-7.3-0.6-7.3-0.6
			L-985.1-25.3z"/>
		<g>
			<path class="st21" d="M-918.8-118.8c3.2,6.1,7.8,10.1,10.2,8.8c2.5-1.3,1.9-7.3-1.3-13.4s-7.8-10.1-10.2-8.8
				C-922.5-130.9-921.9-124.9-918.8-118.8z"/>
			<path class="st22" d="M-919.7-118.2c3.2,6.1,7.8,10.1,10.2,8.8c2.5-1.3,1.9-7.3-1.3-13.4c-3.2-6.1-7.8-10.1-10.2-8.8
				C-923.5-130.3-922.9-124.3-919.7-118.2z"/>
		</g>
		<g>
			<path class="st21" d="M-903-131.7c2.5,4.7,6,7.8,7.9,6.8c1.9-1,1.5-5.7-1-10.4s-6-7.8-7.9-6.8
				C-905.9-141.1-905.5-136.5-903-131.7z"/>
			<path class="st22" d="M-903.8-131.2c2.5,4.7,6,7.8,7.9,6.8c1.9-1,1.5-5.7-1-10.4s-6-7.8-7.9-6.8
				C-906.7-140.6-906.2-136-903.8-131.2z"/>
		</g>
		<g>
			<path class="st23" d="M-917.3-137.9c0,0-4.8-2.5-8.6-0.4c-7.2,4-2.9,14.8-2.9,14.8s-2.3-6.3,4.9-12.2
				C-920.2-138.5-917.3-137.9-917.3-137.9z"/>
			<path class="st24" d="M-917.3-137.9c0,0-5.4,0.7-9.3,5.9c-3.9,5.2-1.2,11-1.2,11s-3.4-6,0.1-11.4
				C-924.2-137.9-917.3-137.9-917.3-137.9z"/>
			<path class="st25" d="M-919.2-136.3c0,0-5.8,3.5-6.8,8.9s1.9,9.4,1.9,9.4s-4-3.6-3.5-9.5C-927-133.6-919.2-136.3-919.2-136.3z"/>
		</g>
		<g>
			<path class="st23" d="M-903.8-145.4c0,0-2.8-1.5-5.1-0.2c-4.3,2.4-1.7,8.8-1.7,8.8s-1.3-3.7,2.9-7.2
				C-905.5-145.8-903.8-145.4-903.8-145.4z"/>
			<path class="st24" d="M-903.8-145.4c0,0-3.2,0.4-5.5,3.5c-2.3,3.1-0.7,6.5-0.7,6.5s-2-3.6,0.1-6.8
				C-907.9-145.4-903.8-145.4-903.8-145.4z"/>
			<path class="st25" d="M-905-144.4c0,0-3.4,2-4,5.2c-0.6,3.2,1.2,5.6,1.2,5.6s-2.4-2.2-2.1-5.6C-909.5-142.8-905-144.4-905-144.4z
				"/>
		</g>
		<path class="st10" d="M-997.7-120.8c0,0,11.5-10.3,32.2-19.4c19.7-8.7,29.7-9.1,29.7-9.1s-4.9-12.7,6.7-17.6
			c11.6-4.9-11.5-12.1-22.5,0c-6.9,7.7-10.3-6.7-10.3-6.7l-9.1,21.9l-12.1-3.6l-3.6,18.8l-13.4,1.2L-997.7-120.8z"/>
	</g>
	<g>
		<g>
			<path class="st26" d="M-305.4-20.7c0,0-21.9-3.7-22.9,0.4c-0.7,2.9,23.4,2.8,23.4,2.8L-305.4-20.7z"/>
			<path class="st26" d="M-325.4-24.1c0,0-5.9-7.3-6.6-5.1s2.1,5.7,2.1,5.7s-8.1-3.6-9.1-2.4s7.9,4.1,7.4,4.2s-8.8-0.6-8.5,0.6
				c0.2,1.2,8.1,1.3,8.2,1.8s-7.7,1.2-7.2,2.1c0.4,0.9,7.4,0.1,8.2,0.2c0.8,0.1-4.9,2.4-4.5,3.4c0.4,0.9,5.4-1.3,6.3-1.9
				c0.9-0.7,5-0.4,6.5-1.7s0.9-4.5,0-5.3C-323.5-23.4-325.4-24.1-325.4-24.1z"/>
		</g>
		<path class="st27" d="M-346-75.1c4.9,0,12.8,0.5,16.6-1.6c7.7-4.4-14.5-13.5-27.3-23.3s29.1-16.4,37.6-12.1s37.7,28.6,38.3,36.5
			c0.6,7.9-20.7,27.9-20.7,27.9l-14.6-3C-316-50.8-355.5-75.1-346-75.1z"/>
		
			<linearGradient id="SVGID_12_" gradientUnits="userSpaceOnUse" x1="-355.0359" y1="742.3817" x2="-306.8182" y2="694.164" gradientTransform="matrix(1 0 0 -1 0 623.9399)">
			<stop  offset="0" style="stop-color:#FFC76D"/>
			<stop  offset="1" style="stop-color:#E8E3E0"/>
		</linearGradient>
		<path class="st28" d="M-367-106.5c0,0-1.5,4.1,0.6,4.6s4.3-1.1,4.3-1.1s-1.1,8.6,1.6,7.5s4.8-2.6,4.8-2.6s-1,5.9,1.6,6.4
			c2.7,0.5,5.4-2.8,5.4-2.8s0,7.1,2.6,7.1s5.7-3.2,5.7-3.2s-2.5,5.3,1.8,5.9c4.3,0.5,5.4-1.6,5.4-1.6s0.5,4.4,3.2,4.8
			c3.7,0.5,5.1-1.9,5.1-1.9s3,4,4,3.5c1.1-0.5,5.9-2.7,5.9-2.7s-0.5,3.7,2.1,3.7s7-3.7,7-3.7s0,3.7,2.1,3.2s3.7-3.7,3.7-3.7
			s1.1,2.7,3.2,2.1c2.1-0.5,4.3-4.3,4.3-4.3L-367-106.5z"/>
		
			<linearGradient id="SVGID_13_" gradientUnits="userSpaceOnUse" x1="-389.5774" y1="560.9503" x2="-330.2927" y2="554.7748" gradientTransform="matrix(0.9996 2.982325e-02 2.982325e-02 -0.9996 24.2365 503.1422)">
			<stop  offset="0" style="stop-color:#FFC76D"/>
			<stop  offset="1" style="stop-color:#E8E3E0"/>
		</linearGradient>
		<path class="st29" d="M-289.3-62.3c0,0-3.2-7.5-6.4-5.4c-2.9,1.9-1.6,4.3-1.6,4.3s-1.6-3.7-3.7-2.1s-2.1,4.3-2.1,4.3
			s-1-5.3-3.7-3.2c-2.7,2.1-2.8,5.1-2.8,5.1s0.2-5.6-2.5-4.6s-2.2,2.8-2.2,2.8s-0.4-4.4-3.1-3.4s-3.3,2.1-3.3,2.1s-0.9-5.2-3.1-3.2
			c-2.2,2.1-2.7,2.5-2.7,2.5s0.6-5.1-2.1-4.6s-3.7,1.7-3.7,1.7s1.6-3.8-1.6-3.9s-3,1.9-3,1.9s0.4-6.1-2.3-4.1c-2.7,2.1-3,2.3-3,2.3
			s4.3-8.3,0.9-8.2c-3.4,0.1-3.8,5.4-3.8,5.4s1.6-7.5-0.5-7s-1.2,5.4-1.2,5.4s10.9,10.6,11.9,11.2s41.4,12,41.4,12L-289.3-62.3z"/>
		<g>
			<path class="st30" d="M-308,17.8c0,0,6.7,16.7,7.4,20.4c0.6,3.6-9.3,5.4-10.2,8c-0.9,2.6,6.4,1.1,6.4,1.1s2.5,2.4,4.8,1.8
				c1.5-0.4,8.3-1,12.9-1.3c2.3-0.2,4-2.3,3.7-4.6l-2.8-20.2C-285.9,22.9-306.7,8.4-308,17.8z"/>
			<path class="st31" d="M-283.7,38.3c0,0-9.1-7.5-14.6-9.3s-3.9,4.2-3.9,4.2l-5.8-15.7c0,0,19.7,3,20.2,3.6s3.1,5.1,3.1,5.1
				L-283.7,38.3z"/>
			<path class="st15" d="M-306,47.6c0,0,0.6-4.1-1-4s-4.6,1.9-5.2,3.1C-312.8,47.9-306,47.6-306,47.6z"/>
			<path class="st15" d="M-298.8,48.9c0,0,0.6-3.5-1.9-3.5c-2.4,0-5.5,1.2-6.1,3S-298.8,48.9-298.8,48.9z"/>
		</g>
		<path class="st32" d="M-256.6-3.9c0,0,9.1-22.2,6.4-23.6c-2.7-1.3-10.9-7.2-9.6-10.2c1.2-3,23.5-11.5,20.9-12.8
			c-2.7-1.3-9.6-16.6-9.6-16.6s23.3-5.9,21.6-7.1s-11.5-10.2-11.5-10.2l13.4-12.9l-13.3-6.1c0,0-4.4-13,0.9-16.8
			c5.4-3.7-24.6,1.1-24.6,1.1l-28.4,98"/>
		<path class="st32" d="M-258.8-6.1l17.1-13.3l8.6,12.3l2.9-11.6l13.7,2l4.6-9.9l6.7,6.7c0,0-20,20-26.7,25.5s-27.3,3-27.3,3
			L-258.8-6.1z"/>
		
			<linearGradient id="SVGID_14_" gradientUnits="userSpaceOnUse" x1="-368.4902" y1="676.6376" x2="-205.2902" y2="676.6376" gradientTransform="matrix(1 0 0 -1 0 623.9399)">
			<stop  offset="0" style="stop-color:#6BC62A"/>
			<stop  offset="1" style="stop-color:#00B53E"/>
		</linearGradient>
		<path class="st33" d="M-238.6-3c-31.9-3.1-29.2-27.7-20.1-43.2c0.1-0.1,0.1-0.2,0-0.3c12.8-13.2,26.4-39.3,23.1-48.9
			c-4.3-12.3-76.6-66.1-99.6-61.3c-23,4.8-33.3,48.5-33.3,48.5c4,15.2,49,32.2,68.8,26.5c7.7-2.3,13.5-3.7,16.9,2.9
			c1.8,3.5,0,8.1-18.2,15c-15.5,5.9-39.4-4.5-43.4-10.7c-3.4-5.4-12.9,2.5-3.8,10.1c6,5,20.4,13.9,43.8,20.4
			c-2.2,3.3-5.1,8.3-5.8,10.2c-1,2.8-4.1,8.9-5.9,14.5c-1.7,5.6-5.5,12.6-6.4,21.4c-0.9,8.8,6.9,18.9,14.9,21.5s12.6,3.3,19.9,5.6
			c4.1,3.9,8.9,7.3,12.7,11.7c-5.1,0.9-11.6,2-15,6.2c1.6,1.7,3.4,2.8,5.6,3.1c3.5,0.5,5.6,0.8,9.4,1.3c2.6,0.3,6.9-0.3,10.7-0.6
			c2.8-0.2,4.9-2.6,5-5.4c0.1-5.1-0.4-9.7,0.1-15.3c25.1-1.8,37.8-29.4,53.9-50C-215.4-20.6-228.6-2-238.6-3z"/>
		<g>
			<path class="st2" d="M-338-34.1c0,0-13.3-8.3-4.1-22.6C-342-56.8-330.5-49.9-338-34.1z"/>
			<path class="st2" d="M-340-32.1c0,0-5.8,14.9-21.5,8.3C-361.6-23.8-356.9-36.8-340-32.1z"/>
			<path class="st2" d="M-346.6-37.8c0,0-15.6,3.7-19.1-13C-365.7-50.8-352.4-54.3-346.6-37.8z"/>
			<g>
				<path class="st2" d="M-348.7-38.5c0-0.1,7.6,1.7,10.7,4.4s6.3,6.1,7.8,8.5s2.1,5,2.2,6.8s-0.2,3-0.3,2.9c-0.1,0-0.1-1.1-0.4-2.9
					c-0.3-1.7-3.9-4.5-5.3-6.7C-335.3-27.8-348.7-38.4-348.7-38.5z"/>
			</g>
		</g>
		<path class="st15" d="M-286.5,48.9c0,0,0.6-4.1-1-4s-4.6,1.9-5.2,3.1C-293.2,49.2-286.5,48.9-286.5,48.9z"/>
		<path class="st15" d="M-279.3,50.3c0,0,0.6-3.5-1.8-3.5s-5.5,1.2-6.1,3S-279.3,50.3-279.3,50.3z"/>
		<path class="st31" d="M-287.7,29.3c0,0,28.4-0.8,28.4,0.5c0,1.1-0.2,10.9,0,13.4s-4.8-4.2-13.9-7.3S-287.7,29.3-287.7,29.3z"/>
		<g>
			<g>
				<path class="st34" d="M-334.7-112.4c-3.2,6.1-7.8,10.1-10.2,8.8c-2.5-1.3-1.9-7.3,1.3-13.4c3.2-6.1,7.8-10.1,10.2-8.8
					S-331.5-118.5-334.7-112.4z"/>
				<path class="st27" d="M-333.8-111.7c-3.2,6.1-7.8,10.1-10.2,8.8c-2.5-1.3-1.9-7.3,1.3-13.4c3.2-6.1,7.8-10.1,10.2-8.8
					C-330-123.9-330.6-117.9-333.8-111.7z"/>
			</g>
			<g>
				<path class="st34" d="M-350.5-125.3c-2.5,4.7-6,7.8-7.9,6.8s-1.5-5.7,1-10.4c2.5-4.7,6-7.8,7.9-6.8
					C-347.5-134.7-348-130-350.5-125.3z"/>
				<path class="st27" d="M-349.7-124.8c-2.5,4.7-6,7.8-7.9,6.8s-1.5-5.7,1-10.4c2.5-4.7,6-7.8,7.9-6.8S-347.2-129.6-349.7-124.8z"
					/>
			</g>
			<g>
				<path class="st35" d="M-336.2-131.5c0,0,4.8-2.5,8.6-0.4c7.2,4,2.9,14.8,2.9,14.8s2.3-6.3-4.9-12.2
					C-333.2-132.1-336.2-131.5-336.2-131.5z"/>
				<path class="st32" d="M-336.2-131.5c0,0,5.4,0.7,9.3,5.9c3.9,5.2,1.2,11,1.2,11s3.4-6-0.1-11.4
					C-329.2-131.5-336.2-131.5-336.2-131.5z"/>
				<path class="st25" d="M-334.2-129.8c0,0,5.8,3.5,6.8,8.9s-1.9,9.4-1.9,9.4s4-3.6,3.5-9.5C-326.5-127.2-334.2-129.8-334.2-129.8z
					"/>
			</g>
			<g>
				<path class="st35" d="M-349.7-139c0,0,2.8-1.5,5.1-0.2c4.3,2.4,1.7,8.8,1.7,8.8s1.3-3.7-2.9-7.2
					C-347.9-139.4-349.7-139-349.7-139z"/>
				<path class="st32" d="M-349.7-139c0,0,3.2,0.4,5.5,3.5c2.3,3.1,0.7,6.5,0.7,6.5s2-3.6-0.1-6.8C-345.6-139-349.7-139-349.7-139z"
					/>
				<path class="st25" d="M-348.5-138c0,0,3.4,2,4,5.2s-1.2,5.6-1.2,5.6s2.4-2.2,2.1-5.6C-343.9-136.4-348.5-138-348.5-138z"/>
			</g>
		</g>
		<g>
			<g>
				<path class="st32" d="M-268.7-98.8c0,0,2.2,2.9,3,6.1s1.4,8,1.4,8l0.7-1.8c0,0,0.3,0.6,1.2,1.4c0.8,0.6,3.2,1.4,3.2,1.4
					s-0.7-3.4-1.6-7.3c-1.2-5.4-4.6-7.8-4.6-7.8l0.1,1.1C-265.2-97.6-267.4-98.7-268.7-98.8z"/>
				<path class="st30" d="M-264.3-97.3c0,0,1.7,1.5,2.8,4.6c1.1,3.1,1.6,6.9,1.6,6.9l-1.3-2.5l0.8,3.1c0,0-1.2-1.6-2.1-4.7
					c-0.9-3.2-3-7-3-7l1.5,0.7L-264.3-97.3z"/>
			</g>
			<path class="st36" d="M-274.5-91.8c0,0,7.6-0.9,5.3,6"/>
		</g>
		<g>
			<path class="st37" d="M-305.8-24.4c-4.2-0.3-22.5,2.5-22.2,6.7c0.2,2.9,23.2-4.4,23.2-4.4S-301.6-24.1-305.8-24.4z"/>
			<path class="st37" d="M-326.4-22.2c0,0-7.9-5.2-7.8-2.9c0.1,2.2,3.7,4.8,3.7,4.8s-8.8-1-9.4,0.5s8.8,1.6,8.3,1.8
				c-0.4,0.2-8.6,2-8,3.1s8.1-1.2,8.4-0.8c0.2,0.4-7,3.4-6.3,4.2s7.1-2.1,7.9-2.2c0.8-0.1-4,3.7-3.2,4.6c0.7,0.8,4.7-2.8,5.4-3.7
				s4.6-1.9,5.7-3.6c1.1-1.7-0.5-4.6-1.6-5.1S-326.4-22.2-326.4-22.2z"/>
		</g>
		<path class="st32" d="M-257.7-117.4c0,0-12.3-10.5-33-19.6c-19.7-8.7-33.4-12-33.4-12s0.1-19.7,18.7-24.1c9.1-2.1,24.5,3.8,22,4.8
			c-10.7,4.3-11.4,22.4-2.1,15c8-6.4,20.9,1.1,20.9,1.1s-13.1,8.2-8.6,9.1c5.4,1.1,18.6-2.5,15,1.6c-4.3,4.8-9.6,8.6-9.6,8.6
			s24.1-4.8,19.8,1.1S-257.7-117.4-257.7-117.4z"/>
	</g>
	<g>
		<g>
			<circle class="st5" cx="15" cy="-226" r="3.8"/>
		</g>
		<g>
			<path class="st5" d="M22.3-246.4c-3.4-4.1-5.8-11.8-6.9-15.2c-0.1-0.5-0.8-0.5-1,0c-0.8,3-2.9,9.3-6.9,14.7
				c-3.7,5,0.4,12.3,7.3,12.3c0,0,0,0,0.1,0c0,0,0,0,0.1,0C21.8-234.6,26.2-241.6,22.3-246.4z M15.7-237.6c-3.4,0.6-6.2-2.3-5.7-5.7
				c0.3-2,2-3.7,4-4c3.4-0.6,6.2,2.3,5.7,5.7C19.4-239.6,17.8-237.9,15.7-237.6z"/>
		</g>
		<path class="st5" d="M15-237.3c-0.8,0-1.5,0.7-1.5,1.5v19.3h3v-19.3C16.5-236.7,15.8-237.3,15-237.3z"/>
	</g>
	<g>
		<path class="st5" d="M268.4-246.8H50.8c-0.8,0-1.5-0.7-1.5-1.5s0.7-1.5,1.5-1.5h217.6c0.8,0,1.5,0.7,1.5,1.5
			S269.2-246.8,268.4-246.8z"/>
	</g>
	<g>
		
			<linearGradient id="SVGID_15_" gradientUnits="userSpaceOnUse" x1="-771.6904" y1="-304.6148" x2="-699.1985" y2="-304.6148" gradientTransform="matrix(-3.274567e-02 -0.9994 -0.8688 2.845226e-02 -240.0253 -802.3925)">
			<stop  offset="0.1522" style="stop-color:#FF3A2D"/>
			<stop  offset="0.1907" style="stop-color:#FF462A"/>
			<stop  offset="0.4015" style="stop-color:#FF811B"/>
			<stop  offset="0.5953" style="stop-color:#FFB00F"/>
			<stop  offset="0.7658" style="stop-color:#FFD207"/>
			<stop  offset="0.9065" style="stop-color:#FFE702"/>
			<stop  offset="1" style="stop-color:#FFEE00"/>
		</linearGradient>
		<path class="st38" d="M47-39.7c-0.1,0-0.1,0-0.1-0.1c-0.6-1.4-13.5-16.4-13.1-27.9c0.4-12.1,2.8-27.1,3-29
			c0.3-3.5,4.5,11,5.3,12.1c0.1,0.1,0.3,0,0.3-0.1c-0.9-2.2-1.2-8.2-0.3-12.4c1-4.2,6.1-11.9,8.3-15c0.3-0.4,0.9-0.2,0.9,0.3
			c0,2.3,1,9.8,3.7,12.5c3.7,3.6,11.5,15.2,7.9,27.8C59.3-59.2,51.2-39.5,47-39.7z"/>
		
			<linearGradient id="SVGID_16_" gradientUnits="userSpaceOnUse" x1="-767.9378" y1="-306.4469" x2="-719.4884" y2="-306.4469" gradientTransform="matrix(-3.274567e-02 -0.9994 -0.8688 2.845226e-02 -240.0253 -802.3925)">
			<stop  offset="0.1522" style="stop-color:#FF5A19"/>
			<stop  offset="1" style="stop-color:#FFEE00"/>
		</linearGradient>
		<path class="st39" d="M48.2-43.5c0,0-7.6-21.5-3.8-29.7c3.8-8.2,5.4-12.2,4.3-17.1c-1.8-8,10.8,14.4,8.9,22.6
			C55.5-59.6,48.2-43.5,48.2-43.5z"/>
		
			<linearGradient id="SVGID_17_" gradientUnits="userSpaceOnUse" x1="-766.6944" y1="-305.6228" x2="-731.7587" y2="-305.6228" gradientTransform="matrix(-3.274567e-02 -0.9994 -0.8688 2.845226e-02 -240.0253 -802.3925)">
			<stop  offset="0.1522" style="stop-color:#FFB02A"/>
			<stop  offset="0.9393" style="stop-color:#FFEE00"/>
		</linearGradient>
		<path class="st40" d="M48.1-44.7c0,0-2.9-15.1-2.5-20.2c0.3-5,2.3-7.2,4.1-10.9c0.4-0.9,1-2.9,1.3-3.9c0.1-0.2,0.3-0.2,0.4,0
			c0.7,1.5,2.5,6,2.8,10.2C54.7-64.3,48.1-44.7,48.1-44.7z"/>
	</g>
	<g>
		<linearGradient id="SVGID_18_" gradientUnits="userSpaceOnUse" x1="2.1818" y1="-40.0436" x2="96.1159" y2="-40.0436">
			<stop  offset="0" style="stop-color:#FF3A2D"/>
			<stop  offset="1" style="stop-color:#D50000"/>
		</linearGradient>
		<path class="st41" d="M2.2-54.5c9.5,17.3,27,28.8,47,28.8s37.5-11.6,47-28.8H2.2z"/>
		<polygon class="st4" points="49.1,-162.7 1.8,-54.5 96.5,-54.5 		"/>
		<linearGradient id="SVGID_19_" gradientUnits="userSpaceOnUse" x1="42.6214" y1="-163.2496" x2="55.6763" y2="-163.2496">
			<stop  offset="0" style="stop-color:#FF3A2D"/>
			<stop  offset="1" style="stop-color:#D50000"/>
		</linearGradient>
		<circle class="st42" cx="49.1" cy="-163.2" r="6.5"/>
	</g>
	<g>
		<path class="st2" d="M166.1-72.2c0,0-4-20.3,18.1-24.4C184.2-96.6,188-79.3,166.1-72.2z"/>
		<path class="st2" d="M162.9-72c0,0-20.3,7.5-28.1-13.7C134.8-85.6,152.1-92.4,162.9-72z"/>
		<path class="st2" d="M161.7-83.9c0,0-17.7-11.7-4.8-30.1C156.9-114,172.4-104.4,161.7-83.9z"/>
		<g>
			<path class="st2" d="M160.5-86.5c0,0,0.4-2.1,1.3-0.4c1.6,3.1,4.1,11.2,4.2,14.7c0.2,5.4-0.1,11.6-1.1,15.2
				c-1,3.6-2.8,6.5-4.5,8.3c-1.6,1.8-3,2.5-3.1,2.4c-0.1-0.1,1-1.1,2.4-2.9c1.4-1.8-0.5,1.2,1.7-11.2
				C163.3-70.9,160.5-86.5,160.5-86.5z"/>
		</g>
	</g>
	<g>
		<path class="st7" d="M115.5-54.5c9.5,17.3,27,28.8,47,28.8s37.5-11.6,47-28.8H115.5z"/>
		<polygon class="st4" points="162.5,-162.7 115.1,-54.5 209.8,-54.5 		"/>
		<circle class="st2" cx="162.5" cy="-163.2" r="6.5"/>
	</g>
	<g>
		<circle class="st0" cx="55.7" cy="-221.1" r="12"/>
		<path class="st5" d="M55.7-207.7c-7.4,0-13.5-6-13.5-13.5s6-13.5,13.5-13.5s13.5,6,13.5,13.5S63.1-207.7,55.7-207.7z M55.7-231.6
			c-5.8,0-10.5,4.7-10.5,10.5s4.7,10.5,10.5,10.5s10.5-4.7,10.5-10.5S61.4-231.6,55.7-231.6z"/>
	</g>
	<g>
		<polygon class="st4" points="48.8,7.1 1.5,115.3 96.1,115.3 		"/>
		<linearGradient id="SVGID_20_" gradientUnits="userSpaceOnUse" x1="42.2902" y1="6.5275" x2="55.3451" y2="6.5275">
			<stop  offset="0" style="stop-color:#FF3A2D"/>
			<stop  offset="1" style="stop-color:#D50000"/>
		</linearGradient>
		<circle class="st43" cx="48.8" cy="6.5" r="6.5"/>
	</g>
	<g>
		<polygon class="st4" points="162.5,7.1 115.1,115.3 209.8,115.3 		"/>
		<circle class="st2" cx="162.5" cy="6.5" r="6.5"/>
	</g>
	<linearGradient id="SVGID_21_" gradientUnits="userSpaceOnUse" x1="1.8506" y1="141.7911" x2="95.7847" y2="141.7911">
		<stop  offset="0" style="stop-color:#FF3A2D"/>
		<stop  offset="1" style="stop-color:#D50000"/>
	</linearGradient>
	<path class="st44" d="M1.9,127.4c9.5,17.3,27,28.8,47,28.8s37.5-11.6,47-28.8H1.9z"/>
	<path class="st7" d="M116.5,128.4c9.5,17.3,27,28.8,47,28.8s37.5-11.6,47-28.8H116.5z"/>
	<g>
		<defs>
			<rect id="SVGID_22_" x="-742.5" y="-57.4" width="30.1" height="56.3"/>
		</defs>
		<clipPath id="SVGID_23_">
			<use xlink:href="#SVGID_22_"  style="overflow:visible;"/>
		</clipPath>
		<g class="st45">
			
				<linearGradient id="SVGID_24_" gradientUnits="userSpaceOnUse" x1="-801.2048" y1="590.0058" x2="-728.713" y2="590.0058" gradientTransform="matrix(-3.274567e-02 -0.9994 -0.8688 2.845226e-02 -240.0253 -802.3925)">
				<stop  offset="0.1522" style="stop-color:#FF3A2D"/>
				<stop  offset="0.1907" style="stop-color:#FF462A"/>
				<stop  offset="0.4015" style="stop-color:#FF811B"/>
				<stop  offset="0.5953" style="stop-color:#FFB00F"/>
				<stop  offset="0.7658" style="stop-color:#FFD207"/>
				<stop  offset="0.9065" style="stop-color:#FFE702"/>
				<stop  offset="1" style="stop-color:#FFEE00"/>
			</linearGradient>
			<path class="st46" d="M-729.3,15.2c-0.1,0-0.1,0-0.1-0.1c-0.6-1.4-13.5-16.4-13.1-27.9c0.4-12.1,2.8-27.1,3-29
				c0.3-3.5,4.5,11,5.3,12.1c0.1,0.1,0.3,0,0.3-0.1c-0.9-2.2-1.2-8.2-0.3-12.4c1-4.2,6.1-11.9,8.3-15c0.3-0.4,0.9-0.2,0.9,0.3
				c0,2.3,1,9.8,3.7,12.5c3.7,3.6,11.5,15.2,7.9,27.8C-717-4.2-725.1,15.5-729.3,15.2z"/>
			
				<linearGradient id="SVGID_25_" gradientUnits="userSpaceOnUse" x1="-797.4523" y1="588.1738" x2="-749.0029" y2="588.1738" gradientTransform="matrix(-3.274567e-02 -0.9994 -0.8688 2.845226e-02 -240.0253 -802.3925)">
				<stop  offset="0.1522" style="stop-color:#FF5A19"/>
				<stop  offset="1" style="stop-color:#FFEE00"/>
			</linearGradient>
			<path class="st47" d="M-728.1,11.4c0,0-7.6-21.5-3.8-29.7c3.8-8.2,5.4-12.2,4.3-17.1c-1.8-8,10.8,14.4,8.9,22.6
				C-720.8-4.6-728.1,11.4-728.1,11.4z"/>
			
				<linearGradient id="SVGID_26_" gradientUnits="userSpaceOnUse" x1="-796.2089" y1="588.9977" x2="-761.2731" y2="588.9977" gradientTransform="matrix(-3.274567e-02 -0.9994 -0.8688 2.845226e-02 -240.0253 -802.3925)">
				<stop  offset="0.1522" style="stop-color:#FFB02A"/>
				<stop  offset="0.9393" style="stop-color:#FFEE00"/>
			</linearGradient>
			<path class="st48" d="M-728.2,10.2c0,0-2.9-15.1-2.5-20.2c0.3-5,2.3-7.2,4.1-10.9c0.4-0.9,1-2.9,1.3-3.9c0.1-0.2,0.3-0.2,0.4,0
				c0.7,1.5,2.5,6,2.8,10.2C-721.6-9.4-728.2,10.2-728.2,10.2z"/>
		</g>
	</g>
	<g>
		<defs>
			<rect id="SVGID_27_" x="2.2" y="172.6" width="30.1" height="56.3"/>
		</defs>
		<clipPath id="SVGID_28_">
			<use xlink:href="#SVGID_27_"  style="overflow:visible;"/>
		</clipPath>
		<g class="st49">
			
				<linearGradient id="SVGID_29_" gradientUnits="userSpaceOnUse" x1="-1055.4274" y1="-257.5417" x2="-982.9354" y2="-257.5417" gradientTransform="matrix(-3.274567e-02 -0.9994 -0.8688 2.845226e-02 -240.0253 -802.3925)">
				<stop  offset="0.1522" style="stop-color:#FF3A2D"/>
				<stop  offset="0.1907" style="stop-color:#FF462A"/>
				<stop  offset="0.4015" style="stop-color:#FF811B"/>
				<stop  offset="0.5953" style="stop-color:#FFB00F"/>
				<stop  offset="0.7658" style="stop-color:#FFD207"/>
				<stop  offset="0.9065" style="stop-color:#FFE702"/>
				<stop  offset="1" style="stop-color:#FFEE00"/>
			</linearGradient>
			<path class="st50" d="M15.4,245.2c-0.1,0-0.1,0-0.1-0.1c-0.6-1.4-13.5-16.4-13.1-27.9c0.4-12.1,2.8-27.1,3-29
				c0.3-3.5,4.5,11,5.3,12.1c0.1,0.1,0.3,0,0.3-0.1c-0.9-2.2-1.2-8.2-0.3-12.4s6.1-11.9,8.3-15c0.3-0.4,0.9-0.2,0.9,0.3
				c0,2.3,1,9.8,3.7,12.5c3.7,3.6,11.5,15.2,7.9,27.8C27.7,225.7,19.5,245.4,15.4,245.2z"/>
			
				<linearGradient id="SVGID_30_" gradientUnits="userSpaceOnUse" x1="-1051.6747" y1="-259.3738" x2="-1003.2253" y2="-259.3738" gradientTransform="matrix(-3.274567e-02 -0.9994 -0.8688 2.845226e-02 -240.0253 -802.3925)">
				<stop  offset="0.1522" style="stop-color:#FF5A19"/>
				<stop  offset="1" style="stop-color:#FFEE00"/>
			</linearGradient>
			<path class="st51" d="M16.6,241.4c0,0-7.6-21.5-3.8-29.7c3.8-8.2,5.4-12.2,4.3-17.1c-1.8-8,10.8,14.4,8.9,22.6
				C23.9,225.3,16.6,241.4,16.6,241.4z"/>
			
				<linearGradient id="SVGID_31_" gradientUnits="userSpaceOnUse" x1="-1050.4313" y1="-258.5498" x2="-1015.4956" y2="-258.5498" gradientTransform="matrix(-3.274567e-02 -0.9994 -0.8688 2.845226e-02 -240.0253 -802.3925)">
				<stop  offset="0.1522" style="stop-color:#FFB02A"/>
				<stop  offset="0.9393" style="stop-color:#FFEE00"/>
			</linearGradient>
			<path class="st52" d="M16.5,240.2c0,0-2.9-15.1-2.5-20.2c0.3-5,2.3-7.2,4.1-10.9c0.4-0.9,1-2.9,1.3-3.9c0.1-0.2,0.3-0.2,0.4,0
				c0.7,1.5,2.5,6,2.8,10.2C23.1,220.6,16.5,240.2,16.5,240.2z"/>
		</g>
	</g>
</g>
</svg>
