<?xml version="1.0" encoding="utf-8"?>
<!-- Generator: Adobe Illustrator 23.0.1, SVG Export Plug-In . SVG Version: 6.00 Build 0)  -->
<svg version="1.1" xmlns="http://www.w3.org/2000/svg" xmlns:xlink="http://www.w3.org/1999/xlink" x="0px" y="0px" width="17.6px"
	 height="45.4px" viewBox="0 0 17.6 45.4" style="enable-background:new 0 0 17.6 45.4;" xml:space="preserve">
<style type="text/css">
	.st0{fill:#FFFFFF;}
	.st1{fill:#6BC62A;}
	.st2{fill:url(#SVGID_1_);}
	.st3{fill:url(#SVGID_2_);}
	.st4{fill:url(#SVGID_3_);}
	.st5{fill:none;stroke:#7A6356;stroke-width:3;stroke-linecap:round;stroke-linejoin:round;stroke-miterlimit:10;}
	.st6{fill:#7A6356;}
	.st7{fill:#FFFFFF;stroke:#7A6356;stroke-width:3;stroke-linecap:round;stroke-linejoin:round;stroke-miterlimit:10;}
	.st8{fill:#009380;}
	.st9{fill:url(#SVGID_4_);}
	.st10{fill:url(#SVGID_5_);}
	.st11{fill:#A60C17;}
	.st12{fill:url(#SVGID_6_);}
	.st13{fill:#E02229;}
	.st14{opacity:0.88;fill:#D50000;enable-background:new    ;}
	.st15{fill:url(#SVGID_7_);}
	.st16{fill:#491B02;}
	.st17{fill:url(#SVGID_8_);}
	.st18{fill:url(#SVGID_9_);}
	.st19{fill:url(#SVGID_10_);}
	.st20{fill:#680200;}
	.st21{fill:#A30B05;}
	.st22{fill:#FF5B56;}
	.st23{fill:#A40000;}
	.st24{opacity:0.5;fill:#D50000;enable-background:new    ;}
	.st25{fill:#6A1100;}
	.st26{opacity:0.43;fill:#FFFFFF;enable-background:new    ;}
	.st27{fill:#006325;}
	.st28{fill:#004B25;}
	.st29{fill:url(#SVGID_11_);}
	.st30{fill:url(#SVGID_12_);}
	.st31{fill:#00923D;}
	.st32{opacity:0.4;fill:#006830;enable-background:new    ;}
	.st33{fill:#006830;}
	.st34{fill:url(#SVGID_13_);}
	.st35{fill:#D6E000;}
	.st36{opacity:0.5;fill:#00923D;enable-background:new    ;}
	.st37{fill:none;stroke:#000000;stroke-width:2;stroke-linecap:round;stroke-linejoin:round;stroke-miterlimit:10;}
	.st38{fill:#00962B;}
	.st39{fill:url(#SVGID_14_);}
	.st40{fill:url(#SVGID_15_);}
	.st41{fill:url(#SVGID_16_);}
	.st42{fill:url(#SVGID_17_);}
	.st43{fill:url(#SVGID_18_);}
</style>
<g id="Layer_2">
	<rect x="-1206.8" y="-6.4" class="st0" width="1146.2" height="404.9"/>
</g>
<g id="green">
	<g>
		<path class="st1" d="M-513.9,244.7c0,0-4-20.3,18.1-24.4C-495.7,220.3-491.9,237.6-513.9,244.7z"/>
		<path class="st1" d="M-517.1,244.9c0,0-20.3,7.5-28.1-13.7C-545.2,231.3-527.8,224.5-517.1,244.9z"/>
		<path class="st1" d="M-518.2,233c0,0-17.7-11.7-4.8-30.1C-523,202.9-507.5,212.5-518.2,233z"/>
		<g>
			<path class="st1" d="M-519.4,230.4c0,0,0.4-2.1,1.3-0.4c1.6,3.1,4.1,11.2,4.2,14.7c0.2,5.4-0.1,11.6-1.1,15.2
				c-1,3.6-2.8,6.5-4.5,8.3c-1.6,1.8-3,2.5-3.1,2.4c-0.1-0.1,1-1.1,2.4-2.9c1.4-1.8-0.5,1.2,1.7-11.2
				C-516.6,246-519.5,230.4-519.4,230.4z"/>
		</g>
	</g>
</g>
<g id="fire">
</g>
<g id="Layer_1">
	<g>
		
			<linearGradient id="SVGID_1_" gradientUnits="userSpaceOnUse" x1="-807.3613" y1="851.9545" x2="-734.8693" y2="851.9545" gradientTransform="matrix(-3.274567e-02 -0.9994 -0.8688 2.845226e-02 -18.7966 -554.0498)">
			<stop  offset="0.1522" style="stop-color:#FF3A2D"/>
			<stop  offset="0.1907" style="stop-color:#FF462A"/>
			<stop  offset="0.4015" style="stop-color:#FF811B"/>
			<stop  offset="0.5953" style="stop-color:#FFB00F"/>
			<stop  offset="0.7658" style="stop-color:#FFD207"/>
			<stop  offset="0.9065" style="stop-color:#FFE702"/>
			<stop  offset="1" style="stop-color:#FFEE00"/>
		</linearGradient>
		<path class="st2" d="M-735.4,277.2c-0.1,0-0.1,0-0.1-0.1c-0.6-1.4-13.5-16.4-13.1-27.9c0.4-12.1,2.8-27.1,3-29
			c0.3-3.5,4.5,11,5.3,12.1c0.1,0.1,0.3,0,0.3-0.1c-0.9-2.2-1.2-8.2-0.3-12.4s6.1-11.9,8.3-15c0.3-0.4,0.9-0.2,0.9,0.3
			c0,2.3,1,9.8,3.7,12.5c3.7,3.6,11.5,15.2,7.9,27.8C-723.1,257.7-731.3,277.4-735.4,277.2z"/>
		
			<linearGradient id="SVGID_2_" gradientUnits="userSpaceOnUse" x1="-803.6086" y1="850.1224" x2="-755.1593" y2="850.1224" gradientTransform="matrix(-3.274567e-02 -0.9994 -0.8688 2.845226e-02 -18.7966 -554.0498)">
			<stop  offset="0.1522" style="stop-color:#FF5A19"/>
			<stop  offset="1" style="stop-color:#FFEE00"/>
		</linearGradient>
		<path class="st3" d="M-734.2,273.4c0,0-7.6-21.5-3.8-29.7s5.4-12.2,4.3-17.1c-1.8-8,10.8,14.4,8.9,22.6
			C-726.9,257.3-734.2,273.4-734.2,273.4z"/>
		
			<linearGradient id="SVGID_3_" gradientUnits="userSpaceOnUse" x1="-802.3652" y1="850.9465" x2="-767.4295" y2="850.9465" gradientTransform="matrix(-3.274567e-02 -0.9994 -0.8688 2.845226e-02 -18.7966 -554.0498)">
			<stop  offset="0.1522" style="stop-color:#FFB02A"/>
			<stop  offset="0.9393" style="stop-color:#FFEE00"/>
		</linearGradient>
		<path class="st4" d="M-734.4,272.2c0,0-2.9-15.1-2.5-20.2c0.3-5,2.3-7.2,4.1-10.9c0.4-0.9,1-2.9,1.3-3.9c0.1-0.2,0.3-0.2,0.4,0
			c0.7,1.5,2.5,6,2.8,10.2C-727.7,252.6-734.4,272.2-734.4,272.2z"/>
	</g>
	<line class="st5" x1="-734.2" y1="152.6" x2="-516.6" y2="152.6"/>
	<circle class="st6" cx="-625.4" cy="129.2" r="3.8"/>
	<path class="st6" d="M-618.1,108.8c-3.4-4.1-5.8-11.8-6.9-15.2c-0.1-0.5-0.8-0.5-1,0c-0.8,3-2.9,9.3-6.9,14.7
		c-3.7,5,0.4,12.3,7.3,12.3c0,0,0,0,0.1,0c0,0,0,0,0.1,0C-618.5,120.6-614.1,113.6-618.1,108.8z M-624.6,117.6
		c-3.4,0.6-6.2-2.3-5.7-5.7c0.3-2,2-3.7,4-4c3.4-0.6,6.2,2.3,5.7,5.7C-621,115.6-622.6,117.3-624.6,117.6z"/>
	<line class="st5" x1="-625.4" y1="152.6" x2="-625.4" y2="119.4"/>
	<circle class="st7" cx="-625.4" cy="152" r="12"/>
	<g>
		<path class="st8" d="M-564.4,262.4c9.5,17.3,27,28.8,47,28.8c20,0,37.5-11.6,47-28.8H-564.4z"/>
		<polygon class="st5" points="-517.5,154.2 -564.8,262.4 -470.2,262.4 		"/>
		<circle class="st1" cx="-517.5" cy="153.7" r="6.5"/>
	</g>
	<g>
		<linearGradient id="SVGID_4_" gradientUnits="userSpaceOnUse" x1="-780.2739" y1="276.857" x2="-686.3397" y2="276.857">
			<stop  offset="0" style="stop-color:#FF3A2D"/>
			<stop  offset="1" style="stop-color:#D50000"/>
		</linearGradient>
		<path class="st9" d="M-780.3,262.4c9.5,17.3,27,28.8,47,28.8c20,0,37.5-11.6,47-28.8H-780.3z"/>
		<polygon class="st5" points="-733.3,154.2 -780.6,262.4 -686,262.4 		"/>
		<linearGradient id="SVGID_5_" gradientUnits="userSpaceOnUse" x1="-739.8342" y1="153.6509" x2="-726.7793" y2="153.6509">
			<stop  offset="0" style="stop-color:#FF3A2D"/>
			<stop  offset="1" style="stop-color:#D50000"/>
		</linearGradient>
		<circle class="st10" cx="-733.3" cy="153.7" r="6.5"/>
	</g>
	<g>
		<path class="st11" d="M-917.6,200.7c0,0-0.2-1.8-9.7-1.8c-4.9,0-10.3-1.8-10.9-6.7c-1.1-8.8,9.7-19.4,22.5-29.1
			s-29.1-16.4-37.6-12.1c-8.5,4.2-27.9,36.4-28.5,44.3c-0.6,7.9,10.9,20,10.9,20l14.6-3L-917.6,200.7z"/>
		<path class="st11" d="M-1022.6,251.7c-0.7-1.8-0.8-18.3,1.2-17.6s13,0.3,13,0.3s-15-17.2-12.4-18.5c2.7-1.3,23.9-1.3,22.7-4.4
			c-1.2-3-22.4-8.8-19.8-10.1c2.6-1.3,9.7-14.2,9.7-14.2s-18.6-1.4-16.9-2.6c1.7-1.2,11.5-10.2,11.5-10.2l-13.4-12.9l13.3-6.1
			c0,0-7-15-5.2-15.2l26.7,2.2l6.7,99L-1022.6,251.7"/>
		<path class="st11" d="M-1022.6,251.7l-10.3-9.1l-8.6,16l-2.9-15.4l-14.2,3.1l-4-11l-6.7,6.7c0,0,20,20,26.7,25.5
			c6.7,5.5,27.3,3,27.3,3L-1022.6,251.7z"/>
		
			<linearGradient id="SVGID_6_" gradientUnits="userSpaceOnUse" x1="-930.0152" y1="1198.371" x2="-843.9348" y2="1198.371" gradientTransform="matrix(0.9906 -0.1366 -0.1366 -0.9906 114.4373 1235.3223)">
			<stop  offset="0" style="stop-color:#E6E6E6"/>
			<stop  offset="1" style="stop-color:#FF9300"/>
		</linearGradient>
		<path class="st12" d="M-958.7,189l6.1,2.8l-1.1-8.2l7.5,3.8l-1-7.9c0,0,6.2,2.3,7.2,1.8s2.9-7.1,2.9-7.1l4.4,2.2l1.7-5.4l5,4.7
			l2.4-5.5l4.3,0.9l1-6.2l8.7,3.6l2.2-7.2l6.1,4.4l0.1-9.2c0,0,8.2,7.2,8,6c-0.1-1.2-0.9-8.7-0.9-8.7s8.5,5.5,8.2,4.8
			c-0.3-0.7-3-12.1-3-12.1l-8.9-0.2l-71.5,37.6L-958.7,189z"/>
		<path class="st13" d="M-958.2,277c0,0-6.7,16.7-7.3,20.4c-0.6,3.6,9.3,5.3,10.2,7.9c0.9,2.6-6.4,1.2-6.4,1.2s-2.5,2.4-4.8,1.8
			c-1.5-0.4-8.3-0.9-12.9-1.3c-2.3-0.2-4-2.3-3.7-4.6l2.8-20.3C-980.3,282.2-959.6,267.6-958.2,277z"/>
		<path class="st14" d="M-982.5,297.6c0,0,9.1-7.5,14.6-9.3c5.5-1.8,3.9,4.2,3.9,4.2l5.8-15.7c0,0-19.7,3.1-20.2,3.7
			c-0.5,0.6-3.1,5.1-3.1,5.1L-982.5,297.6z"/>
		<g>
			
				<linearGradient id="SVGID_7_" gradientUnits="userSpaceOnUse" x1="-1037.1163" y1="1165.4039" x2="-843.6686" y2="1165.4039" gradientTransform="matrix(0.9906 -0.1366 -0.1366 -0.9906 114.4373 1235.3223)">
				<stop  offset="0" style="stop-color:#FF3A2D"/>
				<stop  offset="1" style="stop-color:#D50000"/>
			</linearGradient>
			<path class="st15" d="M-959.2,239.7c1.7,5.6,5.9,17.6,6.8,26.4s-6.6,16.7-14.7,19.3c-8.1,2.6-12.6,3.3-19.9,5.6
				c-4.1,3.9-8.9,7.3-12.7,11.7c5.1,0.9,11.6,2,15,6.2c-1.6,1.7-3.4,2.8-5.6,3.1c-3.5,0.5-5.6,0.8-9.4,1.3
				c-2.6,0.3-6.9-0.3-10.7-0.6c-2.8-0.2-4.9-2.6-5-5.4c-0.1-5.1,0.4-9.7-0.1-15.3c-25.1-1.8-37.8-29.4-53.9-50
				c10.2-0.6,23.3,17.4,33.4,17s31.8-29,35.4-39.2c3.6-10.2-8.8-26.3-13.5-40.4c-4.7-14.2-7.7-24.6,10-38.1s65.5-48,82.3-36.3
				c16.8,11.8,41.6,33.9,31.9,45.2c-9.6,11.3-72.3,27.4-74.2,47.4c-1.9,20,4.4,12.1,12.5,9.4c7.4-2.4,29.2-11.4,34-6.5
				c4.8,4.9-12.7,8.4-27.8,11.8c-14.3,3.2-19.3,10.1-20.9,10.3c-1.6,0.2,3.9,6.8,4.8,9.6C-960.4,234.9-960.9,234.2-959.2,239.7z"/>
		</g>
		<path class="st16" d="M-960.1,306.8c0,0-0.6-4.1,1-4c1.6,0.1,4.6,1.9,5.2,3.1C-953.4,307.1-960.1,306.8-960.1,306.8z"/>
		<path class="st16" d="M-967.4,308.2c0,0-0.6-3.5,1.8-3.5s5.5,1.2,6.1,3C-958.9,309.5-967.4,308.2-967.4,308.2z"/>
		<path class="st16" d="M-988.1,310.9c0,0-0.6-4.1,1-4c1.6,0.1,4.6,1.9,5.2,3.1S-988.1,310.9-988.1,310.9z"/>
		<path class="st16" d="M-995.3,312.3c0,0-0.6-3.5,1.8-3.5c2.4,0,5.5,1.2,6.1,3C-986.8,313.6-995.3,312.3-995.3,312.3z"/>
		<path class="st14" d="M-986.8,290.6c0,0-27.3,1.2-28.5,0.6c-1.2-0.6,0.4,10.9,0.2,13.3c-0.2,2.4,4.7-3.6,13.8-6.6
			C-992.2,294.9-986.8,290.6-986.8,290.6z"/>
		<g>
			
				<linearGradient id="SVGID_8_" gradientUnits="userSpaceOnUse" x1="-911.5492" y1="852.0066" x2="-808.4849" y2="852.0066" gradientTransform="matrix(0.9932 -0.1162 -0.101 -0.8634 64.8453 815.068)">
				<stop  offset="0.1522" style="stop-color:#FF3A2D"/>
				<stop  offset="0.1907" style="stop-color:#FF462A"/>
				<stop  offset="0.4015" style="stop-color:#FF811B"/>
				<stop  offset="0.5953" style="stop-color:#FFB00F"/>
				<stop  offset="0.7658" style="stop-color:#FFD207"/>
				<stop  offset="0.9065" style="stop-color:#FFE702"/>
				<stop  offset="1" style="stop-color:#FFEE00"/>
			</linearGradient>
			<path class="st17" d="M-926.7,183.7c0-0.1,0-0.2,0.1-0.2c1.9-0.9,27.6-13.6,37-15.2c11.3-1.9,21-0.7,26.6-5.5
				c3.9-3.3,4.4-6.3,4.4-7.6c0-0.2,0.3-0.3,0.4-0.1c1.2,1.9,4.1,7.3,1.8,10.5c-2.1,2.9-4.6,5.3-6.1,6.5c-0.2,0.2,0,0.4,0.2,0.3
				c3-1.4,10.5-4.8,14.8-5.6c7.5-1.4,18.1,1.6,22.8,4.2c0.6,0.3,0.4,1.2-0.3,1.3c-3.4,0.3-10.2,1.4-13.7,5.3
				c-4.8,5.3-21.6,27-40.1,23.6C-897.2,197.9-926.6,189.2-926.7,183.7z"/>
			
				<linearGradient id="SVGID_9_" gradientUnits="userSpaceOnUse" x1="-906.1155" y1="847.0352" x2="-840.1733" y2="847.0352" gradientTransform="matrix(0.9932 -0.1162 -0.101 -0.8634 64.8453 815.068)">
				<stop  offset="0.1522" style="stop-color:#FF5A19"/>
				<stop  offset="1" style="stop-color:#FFEE00"/>
			</linearGradient>
			<path class="st18" d="M-921.1,184.9c0,0,30-12.5,42.3-8.4c12.3,4.1,13.7,10,20.7,8c11.3-3.3-8.6,10.3-20.6,8.6
				C-890.7,191.3-921.1,184.9-921.1,184.9z"/>
			
				<linearGradient id="SVGID_10_" gradientUnits="userSpaceOnUse" x1="-904.3218" y1="847.8107" x2="-853.8238" y2="847.8107" gradientTransform="matrix(0.9932 -0.1162 -0.101 -0.8634 64.8453 815.068)">
				<stop  offset="0.1522" style="stop-color:#FFB02A"/>
				<stop  offset="0.9393" style="stop-color:#FFEE00"/>
			</linearGradient>
			<path class="st19" d="M-919.4,184.5c0,0,21.5-5.6,28.8-5.6c7.3-0.1,10.6,2.3,16.2,4.3c1.3,0.5,4.3,1,5.8,1.3
				c0.3,0,0.3,0.4,0.1,0.5c-2.1,1-8.4,3.9-14.4,4.9C-890.4,191.2-919.4,184.5-919.4,184.5z"/>
		</g>
		<g>
			<path class="st20" d="M-965.2,172.2c0,0-3.2-1.9-6.4-2.4c-3.2-0.5-8.1-0.6-8.1-0.6l1.7-0.9c0,0-0.7-0.2-1.5-1.1
				c-0.7-0.7-1.8-3.1-1.8-3.1s3.5,0.4,7.4,0.8c5.5,0.7,8.2,3.8,8.2,3.8h-1.1C-966.8,168.8-965.4,170.9-965.2,172.2z"/>
			<path class="st21" d="M-967.2,168c0,0-1.6-1.5-4.8-2.3c-3.2-0.8-7-0.9-7-0.9l2.7,1l-3.2-0.5c0,0,1.7,1,4.9,1.6
				c3.2,0.6,7.3,2.3,7.3,2.3l-0.8-1.4L-967.2,168z"/>
		</g>
		<path class="st11" d="M-966.1,231c0,0,0.8,0.3,5.4,0.6c4.6,0.3,6-7.3,9-8s1.1,5.9,1.6,6.6c0.4,0.7,1.5-4.1,1.5-4.1
			s0.1,4.3,0.8,3.9c0.7-0.4,1-5.4,1-5.4s1.2,8.3,2.1,2.5c1-5.8-3.4-7.7-6.1-8.6c-2.7-0.9-6.9,7.1-9.6,7.8c-2.6,0.6-6.7-2.8-6.7-2.8
			L-966.1,231z"/>
		<g>
			<circle cx="-971.5" cy="177.3" r="4.2"/>
			<circle class="st0" cx="-971.2" cy="176.5" r="1.5"/>
			<circle class="st0" cx="-972.8" cy="179" r="0.7"/>
		</g>
		<path class="st11" d="M-991.2,236.7c0,0,0.8,0.1,5.3-1s3.5-8.8,6.1-10.3c2.6-1.5,2.8,5.3,3.5,5.9c0.6,0.6,0.2-4.4,0.2-4.4
			s1.4,4.1,1.9,3.5c0.6-0.6-0.7-5.5-0.7-5.5s3.6,7.5,2.8,1.7c-0.8-5.8-5.5-6.3-8.4-6.3c-2.9,0-4.5,8.9-6.8,10.3
			c-2.3,1.4-7.3-0.6-7.3-0.6L-991.2,236.7z"/>
		<g>
			<path class="st22" d="M-924.9,143.2c3.2,6.1,7.8,10.1,10.2,8.8c2.5-1.3,1.9-7.3-1.3-13.4c-3.2-6.1-7.8-10.1-10.2-8.8
				C-928.6,131.1-928,137.1-924.9,143.2z"/>
			<path class="st23" d="M-925.8,143.8c3.2,6.1,7.8,10.1,10.2,8.8c2.5-1.3,1.9-7.3-1.3-13.4c-3.2-6.1-7.8-10.1-10.2-8.8
				C-929.6,131.7-929,137.7-925.8,143.8z"/>
		</g>
		<g>
			<path class="st22" d="M-909.1,130.3c2.5,4.7,6,7.8,7.9,6.8c1.9-1,1.5-5.7-1-10.4c-2.5-4.7-6-7.8-7.9-6.8
				C-912,120.9-911.6,125.5-909.1,130.3z"/>
			<path class="st23" d="M-909.9,130.8c2.5,4.7,6,7.8,7.9,6.8c1.9-1,1.5-5.7-1-10.4c-2.5-4.7-6-7.8-7.9-6.8
				C-912.8,121.4-912.3,126-909.9,130.8z"/>
		</g>
		<g>
			<path class="st24" d="M-923.4,124.1c0,0-4.8-2.5-8.6-0.4c-7.2,4-2.9,14.8-2.9,14.8s-2.3-6.3,4.9-12.2
				C-926.3,123.5-923.4,124.1-923.4,124.1z"/>
			<path class="st25" d="M-923.4,124.1c0,0-5.4,0.7-9.3,5.9c-3.9,5.2-1.2,11-1.2,11s-3.4-6,0.1-11.4
				C-930.3,124.1-923.4,124.1-923.4,124.1z"/>
			<path class="st26" d="M-925.3,125.7c0,0-5.8,3.5-6.8,8.9c-1,5.4,1.9,9.4,1.9,9.4s-4-3.6-3.5-9.5
				C-933.1,128.4-925.3,125.7-925.3,125.7z"/>
		</g>
		<g>
			<path class="st24" d="M-909.9,116.6c0,0-2.8-1.5-5.1-0.2c-4.3,2.4-1.7,8.8-1.7,8.8s-1.3-3.7,2.9-7.2
				C-911.6,116.2-909.9,116.6-909.9,116.6z"/>
			<path class="st25" d="M-909.9,116.6c0,0-3.2,0.4-5.5,3.5c-2.3,3.1-0.7,6.5-0.7,6.5s-2-3.6,0.1-6.8
				C-914,116.6-909.9,116.6-909.9,116.6z"/>
			<path class="st26" d="M-911.1,117.6c0,0-3.4,2-4,5.2c-0.6,3.2,1.2,5.6,1.2,5.6s-2.4-2.2-2.1-5.6
				C-915.6,119.2-911.1,117.6-911.1,117.6z"/>
		</g>
		<path class="st11" d="M-1003.8,141.2c0,0,11.5-10.3,32.2-19.4c19.7-8.7,29.7-9.1,29.7-9.1s-4.9-12.7,6.7-17.6
			c11.6-4.9-11.5-12.1-22.5,0c-6.9,7.7-10.3-6.7-10.3-6.7l-9.1,21.9l-12.1-3.6l-3.6,18.8l-13.4,1.2L-1003.8,141.2z"/>
	</g>
	<g>
		<g>
			<path class="st27" d="M-311.5,241.3c0,0-21.9-3.7-22.9,0.4c-0.7,2.9,23.4,2.8,23.4,2.8L-311.5,241.3z"/>
			<path class="st27" d="M-331.5,237.9c0,0-5.9-7.3-6.6-5.1s2.1,5.7,2.1,5.7s-8.1-3.6-9.1-2.4s7.9,4.1,7.4,4.2s-8.8-0.6-8.5,0.6
				c0.2,1.2,8.1,1.3,8.2,1.8s-7.7,1.2-7.2,2.1c0.4,0.9,7.4,0.1,8.2,0.2c0.8,0.1-4.9,2.4-4.5,3.4c0.4,0.9,5.4-1.3,6.3-1.9
				c0.9-0.7,5-0.4,6.5-1.7s0.9-4.5,0-5.3C-329.6,238.6-331.5,237.9-331.5,237.9z"/>
		</g>
		<path class="st28" d="M-352.1,186.9c4.9,0,12.8,0.5,16.6-1.6c7.7-4.4-14.5-13.5-27.3-23.3c-12.8-9.8,29.1-16.4,37.6-12.1
			c8.5,4.3,37.7,28.6,38.3,36.5c0.6,7.9-20.7,27.9-20.7,27.9l-14.6-3C-322.1,211.2-361.6,186.9-352.1,186.9z"/>
		
			<linearGradient id="SVGID_11_" gradientUnits="userSpaceOnUse" x1="-361.1923" y1="1004.3304" x2="-312.9746" y2="956.1127" gradientTransform="matrix(1 0 0 -1 0 1147.8372)">
			<stop  offset="0" style="stop-color:#FFC76D"/>
			<stop  offset="1" style="stop-color:#E8E3E0"/>
		</linearGradient>
		<path class="st29" d="M-373.1,155.5c0,0-1.5,4.1,0.6,4.6s4.3-1.1,4.3-1.1s-1.1,8.6,1.6,7.5c2.7-1.1,4.8-2.6,4.8-2.6
			s-1,5.9,1.6,6.4c2.7,0.5,5.4-2.8,5.4-2.8s0,7.1,2.6,7.1s5.7-3.2,5.7-3.2s-2.5,5.3,1.8,5.9c4.3,0.5,5.4-1.6,5.4-1.6
			s0.5,4.4,3.2,4.8c3.7,0.5,5.1-1.9,5.1-1.9s3,4,4,3.5c1.1-0.5,5.9-2.7,5.9-2.7s-0.5,3.7,2.1,3.7s7-3.7,7-3.7s0,3.7,2.1,3.2
			s3.7-3.7,3.7-3.7s1.1,2.7,3.2,2.1c2.1-0.5,4.3-4.3,4.3-4.3L-373.1,155.5z"/>
		
			<linearGradient id="SVGID_12_" gradientUnits="userSpaceOnUse" x1="-395.7338" y1="822.8989" x2="-336.4491" y2="816.7236" gradientTransform="matrix(0.9996 2.982325e-02 2.982325e-02 -0.9996 16.4219 1027.1184)">
			<stop  offset="0" style="stop-color:#FFC76D"/>
			<stop  offset="1" style="stop-color:#E8E3E0"/>
		</linearGradient>
		<path class="st30" d="M-295.4,199.7c0,0-3.2-7.5-6.4-5.4c-2.9,1.9-1.6,4.3-1.6,4.3s-1.6-3.7-3.7-2.1c-2.1,1.6-2.1,4.3-2.1,4.3
			s-1-5.3-3.7-3.2c-2.7,2.1-2.8,5.1-2.8,5.1s0.2-5.6-2.5-4.6s-2.2,2.8-2.2,2.8s-0.4-4.4-3.1-3.4s-3.3,2.1-3.3,2.1s-0.9-5.2-3.1-3.2
			c-2.2,2.1-2.7,2.5-2.7,2.5s0.6-5.1-2.1-4.6s-3.7,1.7-3.7,1.7s1.6-3.8-1.6-3.9c-3.2-0.1-3,1.9-3,1.9s0.4-6.1-2.3-4.1
			c-2.7,2.1-3,2.3-3,2.3s4.3-8.3,0.9-8.2c-3.4,0.1-3.8,5.4-3.8,5.4s1.6-7.5-0.5-7s-1.2,5.4-1.2,5.4S-342,198.4-341,199
			c1,0.6,41.4,12,41.4,12L-295.4,199.7z"/>
		<g>
			<path class="st31" d="M-314.1,279.8c0,0,6.7,16.7,7.4,20.4c0.6,3.6-9.3,5.4-10.2,8c-0.9,2.6,6.4,1.1,6.4,1.1s2.5,2.4,4.8,1.8
				c1.5-0.4,8.3-1,12.9-1.3c2.3-0.2,4-2.3,3.7-4.6l-2.8-20.2C-292,284.9-312.8,270.4-314.1,279.8z"/>
			<path class="st32" d="M-289.8,300.3c0,0-9.1-7.5-14.6-9.3c-5.5-1.8-3.9,4.2-3.9,4.2l-5.8-15.7c0,0,19.7,3,20.2,3.6
				s3.1,5.1,3.1,5.1L-289.8,300.3z"/>
			<path class="st16" d="M-312.1,309.6c0,0,0.6-4.1-1-4s-4.6,1.9-5.2,3.1C-318.9,309.9-312.1,309.6-312.1,309.6z"/>
			<path class="st16" d="M-304.9,310.9c0,0,0.6-3.5-1.9-3.5c-2.4,0-5.5,1.2-6.1,3C-313.5,312.2-304.9,310.9-304.9,310.9z"/>
		</g>
		<path class="st33" d="M-262.7,258.1c0,0,9.1-22.2,6.4-23.6c-2.7-1.3-10.9-7.2-9.6-10.2c1.2-3,23.5-11.5,20.9-12.8
			c-2.7-1.3-9.6-16.6-9.6-16.6s23.3-5.9,21.6-7.1s-11.5-10.2-11.5-10.2l13.4-12.9l-13.3-6.1c0,0-4.4-13,0.9-16.8
			c5.4-3.7-24.6,1.1-24.6,1.1l-28.4,98"/>
		<path class="st33" d="M-264.9,255.9l17.1-13.3l8.6,12.3l2.9-11.6l13.7,2l4.6-9.9l6.7,6.7c0,0-20,20-26.7,25.5s-27.3,3-27.3,3
			L-264.9,255.9z"/>
		
			<linearGradient id="SVGID_13_" gradientUnits="userSpaceOnUse" x1="-374.6466" y1="938.5862" x2="-211.4466" y2="938.5862" gradientTransform="matrix(1 0 0 -1 0 1147.8372)">
			<stop  offset="0" style="stop-color:#6BC62A"/>
			<stop  offset="1" style="stop-color:#00B53E"/>
		</linearGradient>
		<path class="st34" d="M-244.7,259c-31.9-3.1-29.2-27.7-20.1-43.2c0.1-0.1,0.1-0.2,0-0.3c12.8-13.2,26.4-39.3,23.1-48.9
			c-4.3-12.3-76.6-66.1-99.6-61.3c-23,4.8-33.3,48.5-33.3,48.5c4,15.2,49,32.2,68.8,26.5c7.7-2.3,13.5-3.7,16.9,2.9
			c1.8,3.5,0,8.1-18.2,15c-15.5,5.9-39.4-4.5-43.4-10.7c-3.4-5.4-12.9,2.5-3.8,10.1c6,5,20.4,13.9,43.8,20.4
			c-2.2,3.3-5.1,8.3-5.8,10.2c-1,2.8-4.1,8.9-5.9,14.5c-1.7,5.6-5.5,12.6-6.4,21.4s6.9,18.9,14.9,21.5s12.6,3.3,19.9,5.6
			c4.1,3.9,8.9,7.3,12.7,11.7c-5.1,0.9-11.6,2-15,6.2c1.6,1.7,3.4,2.8,5.6,3.1c3.5,0.5,5.6,0.8,9.4,1.3c2.6,0.3,6.9-0.3,10.7-0.6
			c2.8-0.2,4.9-2.6,5-5.4c0.1-5.1-0.4-9.7,0.1-15.3c25.1-1.8,37.8-29.4,53.9-50C-221.5,241.4-234.7,260-244.7,259z"/>
		<g>
			<path class="st1" d="M-344.1,227.9c0,0-13.3-8.3-4.1-22.6C-348.1,205.2-336.6,212.1-344.1,227.9z"/>
			<path class="st1" d="M-346.1,229.9c0,0-5.8,14.9-21.5,8.3C-367.7,238.2-363,225.2-346.1,229.9z"/>
			<path class="st1" d="M-352.7,224.2c0,0-15.6,3.7-19.1-13C-371.8,211.2-358.5,207.7-352.7,224.2z"/>
			<g>
				<path class="st1" d="M-354.8,223.5c0-0.1,7.6,1.7,10.7,4.4s6.3,6.1,7.8,8.5s2.1,5,2.2,6.8s-0.2,3-0.3,2.9
					c-0.1,0-0.1-1.1-0.4-2.9c-0.3-1.7-3.9-4.5-5.3-6.7C-341.4,234.2-354.8,223.6-354.8,223.5z"/>
			</g>
		</g>
		<path class="st16" d="M-292.6,310.9c0,0,0.6-4.1-1-4s-4.6,1.9-5.2,3.1C-299.3,311.2-292.6,310.9-292.6,310.9z"/>
		<path class="st16" d="M-285.4,312.3c0,0,0.6-3.5-1.8-3.5s-5.5,1.2-6.1,3C-293.9,313.6-285.4,312.3-285.4,312.3z"/>
		<path class="st32" d="M-293.8,291.3c0,0,28.4-0.8,28.4,0.5c0,1.1-0.2,10.9,0,13.4s-4.8-4.2-13.9-7.3S-293.8,291.3-293.8,291.3z"/>
		<g>
			<g>
				<path class="st35" d="M-340.8,149.6c-3.2,6.1-7.8,10.1-10.2,8.8c-2.5-1.3-1.9-7.3,1.3-13.4c3.2-6.1,7.8-10.1,10.2-8.8
					S-337.6,143.5-340.8,149.6z"/>
				<path class="st28" d="M-339.9,150.3c-3.2,6.1-7.8,10.1-10.2,8.8c-2.5-1.3-1.9-7.3,1.3-13.4c3.2-6.1,7.8-10.1,10.2-8.8
					C-336.1,138.1-336.7,144.1-339.9,150.3z"/>
			</g>
			<g>
				<path class="st35" d="M-356.6,136.7c-2.5,4.7-6,7.8-7.9,6.8s-1.5-5.7,1-10.4s6-7.8,7.9-6.8C-353.6,127.3-354.1,132-356.6,136.7z
					"/>
				<path class="st28" d="M-355.8,137.2c-2.5,4.7-6,7.8-7.9,6.8s-1.5-5.7,1-10.4s6-7.8,7.9-6.8S-353.3,132.4-355.8,137.2z"/>
			</g>
			<g>
				<path class="st36" d="M-342.3,130.5c0,0,4.8-2.5,8.6-0.4c7.2,4,2.9,14.8,2.9,14.8s2.3-6.3-4.9-12.2
					C-339.3,129.9-342.3,130.5-342.3,130.5z"/>
				<path class="st33" d="M-342.3,130.5c0,0,5.4,0.7,9.3,5.9s1.2,11,1.2,11s3.4-6-0.1-11.4C-335.3,130.5-342.3,130.5-342.3,130.5z"
					/>
				<path class="st26" d="M-340.3,132.2c0,0,5.8,3.5,6.8,8.9c1,5.4-1.9,9.4-1.9,9.4s4-3.6,3.5-9.5
					C-332.6,134.8-340.3,132.2-340.3,132.2z"/>
			</g>
			<g>
				<path class="st36" d="M-355.8,123c0,0,2.8-1.5,5.1-0.2c4.3,2.4,1.7,8.8,1.7,8.8s1.3-3.7-2.9-7.2C-354,122.6-355.8,123-355.8,123
					z"/>
				<path class="st33" d="M-355.8,123c0,0,3.2,0.4,5.5,3.5s0.7,6.5,0.7,6.5s2-3.6-0.1-6.8C-351.7,123-355.8,123-355.8,123z"/>
				<path class="st26" d="M-354.6,124c0,0,3.4,2,4,5.2c0.6,3.2-1.2,5.6-1.2,5.6s2.4-2.2,2.1-5.6C-350,125.6-354.6,124-354.6,124z"/>
			</g>
		</g>
		<g>
			<g>
				<path class="st33" d="M-274.8,163.2c0,0,2.2,2.9,3,6.1s1.4,8,1.4,8l0.7-1.8c0,0,0.3,0.6,1.2,1.4c0.8,0.6,3.2,1.4,3.2,1.4
					s-0.7-3.4-1.6-7.3c-1.2-5.4-4.6-7.8-4.6-7.8l0.1,1.1C-271.3,164.4-273.5,163.3-274.8,163.2z"/>
				<path class="st31" d="M-270.4,164.7c0,0,1.7,1.5,2.8,4.6c1.1,3.1,1.6,6.9,1.6,6.9l-1.3-2.5l0.8,3.1c0,0-1.2-1.6-2.1-4.7
					c-0.9-3.2-3-7-3-7l1.5,0.7L-270.4,164.7z"/>
			</g>
			<path class="st37" d="M-280.6,170.2c0,0,7.6-0.9,5.3,6"/>
		</g>
		<g>
			<path class="st38" d="M-311.9,237.6c-4.2-0.3-22.5,2.5-22.2,6.7c0.2,2.9,23.2-4.4,23.2-4.4S-307.7,237.9-311.9,237.6z"/>
			<path class="st38" d="M-332.5,239.8c0,0-7.9-5.2-7.8-2.9c0.1,2.2,3.7,4.8,3.7,4.8s-8.8-1-9.4,0.5s8.8,1.6,8.3,1.8
				c-0.4,0.2-8.6,2-8,3.1s8.1-1.2,8.4-0.8c0.2,0.4-7,3.4-6.3,4.2s7.1-2.1,7.9-2.2c0.8-0.1-4,3.7-3.2,4.6c0.7,0.8,4.7-2.8,5.4-3.7
				s4.6-1.9,5.7-3.6c1.1-1.7-0.5-4.6-1.6-5.1S-332.5,239.8-332.5,239.8z"/>
		</g>
		<path class="st33" d="M-263.8,144.6c0,0-12.3-10.5-33-19.6c-19.7-8.7-33.4-12-33.4-12s0.1-19.7,18.7-24.1c9.1-2.1,24.5,3.8,22,4.8
			c-10.7,4.3-11.4,22.4-2.1,15c8-6.4,20.9,1.1,20.9,1.1s-13.1,8.2-8.6,9.1c5.4,1.1,18.6-2.5,15,1.6c-4.3,4.8-9.6,8.6-9.6,8.6
			s24.1-4.8,19.8,1.1C-258.4,136.1-263.8,144.6-263.8,144.6z"/>
	</g>
	<g>
		<g>
			<circle class="st6" cx="8.8" cy="35.9" r="3.8"/>
		</g>
		<g>
			<path class="st6" d="M16.1,15.6c-3.4-4.1-5.8-11.8-6.9-15.2c-0.1-0.5-0.8-0.5-1,0c-0.8,3-2.9,9.3-6.9,14.7
				c-3.7,5,0.4,12.3,7.3,12.3c0,0,0,0,0.1,0c0,0,0,0,0.1,0C15.7,27.4,20.1,20.4,16.1,15.6z M9.6,24.3c-3.4,0.6-6.2-2.3-5.7-5.7
				c0.3-2,2-3.7,4-4c3.4-0.6,6.2,2.3,5.7,5.7C13.2,22.4,11.6,24,9.6,24.3z"/>
		</g>
		<path class="st6" d="M8.8,24.6c-0.8,0-1.5,0.7-1.5,1.5v19.3h3V26.1C10.3,25.3,9.6,24.6,8.8,24.6z"/>
	</g>
	<g>
		<path class="st6" d="M262.2,15.2H44.6c-0.8,0-1.5-0.7-1.5-1.5s0.7-1.5,1.5-1.5h217.6c0.8,0,1.5,0.7,1.5,1.5S263,15.2,262.2,15.2z"
			/>
	</g>
	<g>
		
			<linearGradient id="SVGID_14_" gradientUnits="userSpaceOnUse" x1="-777.8468" y1="-42.6661" x2="-705.3549" y2="-42.6661" gradientTransform="matrix(-3.274567e-02 -0.9994 -0.8688 2.845226e-02 -18.7966 -554.0498)">
			<stop  offset="0.1522" style="stop-color:#FF3A2D"/>
			<stop  offset="0.1907" style="stop-color:#FF462A"/>
			<stop  offset="0.4015" style="stop-color:#FF811B"/>
			<stop  offset="0.5953" style="stop-color:#FFB00F"/>
			<stop  offset="0.7658" style="stop-color:#FFD207"/>
			<stop  offset="0.9065" style="stop-color:#FFE702"/>
			<stop  offset="1" style="stop-color:#FFEE00"/>
		</linearGradient>
		<path class="st39" d="M40.9,222.2c-0.1,0-0.1,0-0.1-0.1c-0.6-1.4-13.5-16.4-13.1-27.9c0.4-12.1,2.8-27.1,3-29
			c0.3-3.5,4.5,11,5.3,12.1c0.1,0.1,0.3,0,0.3-0.1c-0.9-2.2-1.2-8.2-0.3-12.4c1-4.2,6.1-11.9,8.3-15c0.3-0.4,0.9-0.2,0.9,0.3
			c0,2.3,1,9.8,3.7,12.5c3.7,3.6,11.5,15.2,7.9,27.8C53.2,202.8,45,222.5,40.9,222.2z"/>
		
			<linearGradient id="SVGID_15_" gradientUnits="userSpaceOnUse" x1="-774.0942" y1="-44.4982" x2="-725.6448" y2="-44.4982" gradientTransform="matrix(-3.274567e-02 -0.9994 -0.8688 2.845226e-02 -18.7966 -554.0498)">
			<stop  offset="0.1522" style="stop-color:#FF5A19"/>
			<stop  offset="1" style="stop-color:#FFEE00"/>
		</linearGradient>
		<path class="st40" d="M42.1,218.4c0,0-7.6-21.5-3.8-29.7c3.8-8.2,5.4-12.2,4.3-17.1c-1.8-8,10.8,14.4,8.9,22.6
			C49.4,202.4,42.1,218.4,42.1,218.4z"/>
		
			<linearGradient id="SVGID_16_" gradientUnits="userSpaceOnUse" x1="-772.8508" y1="-43.6742" x2="-737.915" y2="-43.6742" gradientTransform="matrix(-3.274567e-02 -0.9994 -0.8688 2.845226e-02 -18.7966 -554.0498)">
			<stop  offset="0.1522" style="stop-color:#FFB02A"/>
			<stop  offset="0.9393" style="stop-color:#FFEE00"/>
		</linearGradient>
		<path class="st41" d="M41.9,217.2c0,0-2.9-15.1-2.5-20.2c0.3-5,2.3-7.2,4.1-10.9c0.4-0.9,1-2.9,1.3-3.9c0.1-0.2,0.3-0.2,0.4,0
			c0.7,1.5,2.5,6,2.8,10.2C48.6,197.6,41.9,217.2,41.9,217.2z"/>
	</g>
	<g>
		<linearGradient id="SVGID_17_" gradientUnits="userSpaceOnUse" x1="-3.9746" y1="221.9051" x2="89.9595" y2="221.9051">
			<stop  offset="0" style="stop-color:#FF3A2D"/>
			<stop  offset="1" style="stop-color:#D50000"/>
		</linearGradient>
		<path class="st42" d="M-4,207.5c9.5,17.3,27,28.8,47,28.8s37.5-11.6,47-28.8H-4z"/>
		<polygon class="st5" points="43,99.2 -4.3,207.5 90.3,207.5 		"/>
		<linearGradient id="SVGID_18_" gradientUnits="userSpaceOnUse" x1="36.465" y1="98.6991" x2="49.5199" y2="98.6991">
			<stop  offset="0" style="stop-color:#FF3A2D"/>
			<stop  offset="1" style="stop-color:#D50000"/>
		</linearGradient>
		<circle class="st43" cx="43" cy="98.7" r="6.5"/>
	</g>
	<g>
		<path class="st1" d="M159.9,189.8c0,0-4-20.3,18.1-24.4C178,165.3,181.9,182.6,159.9,189.8z"/>
		<path class="st1" d="M156.7,190c0,0-20.3,7.5-28.1-13.7C128.6,176.3,146,169.5,156.7,190z"/>
		<path class="st1" d="M155.6,178.1c0,0-17.7-11.7-4.8-30.1C150.8,147.9,166.3,157.6,155.6,178.1z"/>
		<g>
			<path class="st1" d="M154.4,175.4c0,0,0.4-2.1,1.3-0.4c1.6,3.1,4.1,11.2,4.2,14.7c0.2,5.4-0.1,11.6-1.1,15.2
				c-1,3.6-2.8,6.5-4.5,8.3c-1.6,1.8-3,2.5-3.1,2.4c-0.1-0.1,1-1.1,2.4-2.9c1.4-1.8-0.5,1.2,1.7-11.2
				C157.2,191,154.3,175.5,154.4,175.4z"/>
		</g>
	</g>
	<g>
		<path class="st8" d="M109.3,207.5c9.5,17.3,27,28.8,47,28.8s37.5-11.6,47-28.8H109.3z"/>
		<polygon class="st5" points="156.3,99.2 109,207.5 203.6,207.5 		"/>
		<circle class="st1" cx="156.3" cy="98.7" r="6.5"/>
	</g>
	<g>
		<circle class="st0" cx="49.5" cy="40.8" r="12"/>
		<path class="st6" d="M49.5,54.3c-7.4,0-13.5-6-13.5-13.5s6-13.5,13.5-13.5S63,33.4,63,40.8S56.9,54.3,49.5,54.3z M49.5,30.4
			c-5.8,0-10.5,4.7-10.5,10.5s4.7,10.5,10.5,10.5S60,46.6,60,40.8S55.3,30.4,49.5,30.4z"/>
	</g>
</g>
</svg>
