<?xml version="1.0" encoding="utf-8"?>
<!-- Generator: Adobe Illustrator 23.0.1, SVG Export Plug-In . SVG Version: 6.00 Build 0)  -->
<svg version="1.1" xmlns="http://www.w3.org/2000/svg" xmlns:xlink="http://www.w3.org/1999/xlink" x="0px" y="0px" width="49.7px"
	 height="58px" viewBox="0 0 49.7 58" style="enable-background:new 0 0 49.7 58;" xml:space="preserve">
<style type="text/css">
	.st0{fill:#FFFFFF;}
	.st1{clip-path:url(#SVGID_2_);}
	.st2{fill:#6BC62A;}
	.st3{clip-path:url(#SVGID_4_);}
	.st4{fill:none;stroke:#7A6356;stroke-width:3;stroke-linecap:round;stroke-linejoin:round;stroke-miterlimit:10;}
	.st5{fill:#7A6356;}
	.st6{fill:#FFFFFF;stroke:#7A6356;stroke-width:3;stroke-linecap:round;stroke-linejoin:round;stroke-miterlimit:10;}
	.st7{fill:#009380;}
	.st8{fill:url(#SVGID_5_);}
	.st9{fill:url(#SVGID_6_);}
	.st10{fill:#A60C17;}
	.st11{fill:url(#SVGID_7_);}
	.st12{fill:#E02229;}
	.st13{opacity:0.88;fill:#D50000;enable-background:new    ;}
	.st14{fill:url(#SVGID_8_);}
	.st15{fill:#491B02;}
	.st16{fill:url(#SVGID_9_);}
	.st17{fill:url(#SVGID_10_);}
	.st18{fill:url(#SVGID_11_);}
	.st19{fill:#680200;}
	.st20{fill:#A30B05;}
	.st21{fill:#FF5B56;}
	.st22{fill:#A40000;}
	.st23{opacity:0.5;fill:#D50000;enable-background:new    ;}
	.st24{fill:#6A1100;}
	.st25{opacity:0.43;fill:#FFFFFF;enable-background:new    ;}
	.st26{fill:#006325;}
	.st27{fill:#004B25;}
	.st28{fill:url(#SVGID_12_);}
	.st29{fill:url(#SVGID_13_);}
	.st30{fill:#00923D;}
	.st31{opacity:0.4;fill:#006830;enable-background:new    ;}
	.st32{fill:#006830;}
	.st33{fill:url(#SVGID_14_);}
	.st34{fill:#D6E000;}
	.st35{opacity:0.5;fill:#00923D;enable-background:new    ;}
	.st36{fill:none;stroke:#000000;stroke-width:2;stroke-linecap:round;stroke-linejoin:round;stroke-miterlimit:10;}
	.st37{fill:#00962B;}
	.st38{fill:url(#SVGID_15_);}
	.st39{fill:url(#SVGID_16_);}
	.st40{fill:url(#SVGID_17_);}
	.st41{fill:url(#SVGID_18_);}
	.st42{fill:url(#SVGID_19_);}
	.st43{fill:url(#SVGID_20_);}
	.st44{fill:url(#SVGID_21_);}
	.st45{clip-path:url(#SVGID_23_);}
	.st46{fill:url(#SVGID_24_);}
	.st47{fill:url(#SVGID_25_);}
	.st48{fill:url(#SVGID_26_);}
	.st49{clip-path:url(#SVGID_28_);}
	.st50{fill:url(#SVGID_29_);}
	.st51{fill:url(#SVGID_30_);}
	.st52{fill:url(#SVGID_31_);}
</style>
<g id="Layer_2">
	<rect x="-1243" y="-441.9" class="st0" width="1146.2" height="404.9"/>
</g>
<g id="green">
	<g>
		<defs>
			<rect id="SVGID_1_" x="-581.3" y="-232.6" width="49.7" height="58"/>
		</defs>
		<clipPath id="SVGID_2_">
			<use xlink:href="#SVGID_1_"  style="overflow:visible;"/>
		</clipPath>
		<g class="st1">
			<path class="st2" d="M-550-190.8c0,0-4-20.3,18.1-24.4C-531.9-215.2-528-197.9-550-190.8z"/>
			<path class="st2" d="M-553.2-190.6c0,0-20.3,7.5-28.1-13.7C-581.3-204.2-563.9-211-553.2-190.6z"/>
			<path class="st2" d="M-554.3-202.5c0,0-17.7-11.7-4.8-30.1C-559.1-232.6-543.6-223-554.3-202.5z"/>
			<g>
				<path class="st2" d="M-555.5-205.1c0,0,0.4-2.1,1.3-0.4c1.6,3.1,4.1,11.2,4.2,14.7c0.2,5.4-0.1,11.6-1.1,15.2
					c-1,3.6-2.8,6.5-4.5,8.3c-1.6,1.8-3,2.5-3.1,2.4c-0.1-0.1,1-1.1,2.4-2.9c1.4-1.8-0.5,1.2,1.7-11.2
					C-552.7-189.5-555.6-205.1-555.5-205.1z"/>
			</g>
		</g>
	</g>
	<g>
		<defs>
			<rect id="SVGID_3_" width="49.7" height="58"/>
		</defs>
		<clipPath id="SVGID_4_">
			<use xlink:href="#SVGID_3_"  style="overflow:visible;"/>
		</clipPath>
		<g class="st3">
			<path class="st2" d="M31.3,41.8c0,0-4-20.3,18.1-24.4C49.4,17.4,53.3,34.7,31.3,41.8z"/>
			<path class="st2" d="M28.1,42c0,0-20.3,7.5-28.1-13.7C0,28.4,17.4,21.6,28.1,42z"/>
			<path class="st2" d="M27,30.1c0,0-17.7-11.7-4.8-30.1C22.2,0,37.7,9.7,27,30.1z"/>
			<g>
				<path class="st2" d="M25.8,27.5c0,0,0.4-2.1,1.3-0.4c1.6,3.1,4.1,11.2,4.2,14.7c0.2,5.4-0.1,11.6-1.1,15.2
					c-1,3.6-2.8,6.5-4.5,8.3c-1.6,1.8-3,2.5-3.1,2.4c-0.1-0.1,1-1.1,2.4-2.9c1.4-1.8-0.5,1.2,1.7-11.2
					C28.6,43.1,25.7,27.5,25.8,27.5z"/>
			</g>
		</g>
	</g>
</g>
<g id="fire">
</g>
<g id="Layer_1">
	<line class="st4" x1="-770.3" y1="-283" x2="-552.7" y2="-283"/>
	<circle class="st5" cx="-661.5" cy="-306.3" r="3.8"/>
	<path class="st5" d="M-654.2-326.7c-3.4-4.1-5.8-11.8-6.9-15.2c-0.1-0.5-0.8-0.5-1,0c-0.8,3-2.9,9.3-6.9,14.7
		c-3.7,5,0.4,12.3,7.3,12.3c0,0,0,0,0.1,0c0,0,0,0,0.1,0C-654.7-314.9-650.3-321.9-654.2-326.7z M-660.8-317.9
		c-3.4,0.6-6.2-2.3-5.7-5.7c0.3-2,2-3.7,4-4c3.4-0.6,6.2,2.3,5.7,5.7C-657.1-319.9-658.7-318.2-660.8-317.9z"/>
	<line class="st4" x1="-661.5" y1="-283" x2="-661.5" y2="-316.1"/>
	<circle class="st6" cx="-661.5" cy="-283.5" r="12"/>
	<g>
		<path class="st7" d="M-600.6-173.1c9.5,17.3,27,28.8,47,28.8s37.5-11.6,47-28.8H-600.6z"/>
		<polygon class="st4" points="-553.6,-281.3 -600.9,-173.1 -506.3,-173.1 		"/>
		<circle class="st2" cx="-553.6" cy="-281.9" r="6.5"/>
	</g>
	<g>
		<linearGradient id="SVGID_5_" gradientUnits="userSpaceOnUse" x1="-816.4076" y1="-158.6608" x2="-722.4734" y2="-158.6608">
			<stop  offset="0" style="stop-color:#FF3A2D"/>
			<stop  offset="1" style="stop-color:#D50000"/>
		</linearGradient>
		<path class="st8" d="M-816.4-173.1c9.5,17.3,27,28.8,47,28.8s37.5-11.6,47-28.8H-816.4z"/>
		<polygon class="st4" points="-769.4,-281.3 -816.8,-173.1 -722.1,-173.1 		"/>
		<linearGradient id="SVGID_6_" gradientUnits="userSpaceOnUse" x1="-775.968" y1="-281.8669" x2="-762.9131" y2="-281.8669">
			<stop  offset="0" style="stop-color:#FF3A2D"/>
			<stop  offset="1" style="stop-color:#D50000"/>
		</linearGradient>
		<circle class="st9" cx="-769.4" cy="-281.9" r="6.5"/>
	</g>
	<g>
		<path class="st10" d="M-953.8-234.9c0,0-0.2-1.8-9.7-1.8c-4.9,0-10.3-1.8-10.9-6.7c-1.1-8.8,9.7-19.4,22.5-29.1
			c12.8-9.7-29.1-16.4-37.6-12.1c-8.5,4.2-27.9,36.4-28.5,44.3c-0.6,7.9,10.9,20,10.9,20l14.6-3L-953.8-234.9z"/>
		<path class="st10" d="M-1058.8-183.9c-0.7-1.8-0.8-18.3,1.2-17.6s13,0.3,13,0.3s-15-17.2-12.4-18.5c2.7-1.3,23.9-1.3,22.7-4.4
			c-1.2-3-22.4-8.8-19.8-10.1c2.6-1.3,9.7-14.2,9.7-14.2s-18.6-1.4-16.9-2.6c1.7-1.2,11.5-10.2,11.5-10.2l-13.4-12.9l13.3-6.1
			c0,0-7-15-5.2-15.2l26.7,2.2l6.7,99L-1058.8-183.9"/>
		<path class="st10" d="M-1058.8-183.9l-10.3-9.1l-8.6,16l-2.9-15.4l-14.2,3.1l-4-11l-6.7,6.7c0,0,20,20,26.7,25.5
			c6.7,5.5,27.3,3,27.3,3L-1058.8-183.9z"/>
		
			<linearGradient id="SVGID_7_" gradientUnits="userSpaceOnUse" x1="-966.149" y1="762.8533" x2="-880.0685" y2="762.8533" gradientTransform="matrix(0.9906 -0.1366 -0.1366 -0.9906 54.6059 363.4447)">
			<stop  offset="0" style="stop-color:#E6E6E6"/>
			<stop  offset="1" style="stop-color:#FF9300"/>
		</linearGradient>
		<path class="st11" d="M-994.9-246.6l6.1,2.8l-1.1-8.2l7.5,3.8l-1-7.9c0,0,6.2,2.3,7.2,1.8s2.9-7.1,2.9-7.1l4.4,2.2l1.7-5.4l5,4.7
			l2.4-5.5l4.3,0.9l1-6.2l8.7,3.6l2.2-7.2l6.1,4.4l0.1-9.2c0,0,8.2,7.2,8,6c-0.1-1.2-0.9-8.7-0.9-8.7s8.5,5.5,8.2,4.8
			c-0.3-0.7-3-12.1-3-12.1l-8.9-0.2l-71.5,37.6L-994.9-246.6z"/>
		<path class="st12" d="M-994.4-158.6c0,0-6.7,16.7-7.3,20.4c-0.6,3.6,9.3,5.3,10.2,7.9c0.9,2.6-6.4,1.2-6.4,1.2s-2.5,2.4-4.8,1.8
			c-1.5-0.4-8.3-0.9-12.9-1.3c-2.3-0.2-4-2.3-3.7-4.6l2.8-20.3C-1016.5-153.4-995.8-168-994.4-158.6z"/>
		<path class="st13" d="M-1018.7-138c0,0,9.1-7.5,14.6-9.3s3.9,4.2,3.9,4.2l5.8-15.7c0,0-19.7,3.1-20.2,3.7s-3.1,5.1-3.1,5.1
			L-1018.7-138z"/>
		<g>
			
				<linearGradient id="SVGID_8_" gradientUnits="userSpaceOnUse" x1="-1073.25" y1="729.8861" x2="-879.8024" y2="729.8861" gradientTransform="matrix(0.9906 -0.1366 -0.1366 -0.9906 54.6059 363.4447)">
				<stop  offset="0" style="stop-color:#FF3A2D"/>
				<stop  offset="1" style="stop-color:#D50000"/>
			</linearGradient>
			<path class="st14" d="M-995.4-195.9c1.7,5.6,5.9,17.6,6.8,26.4c0.9,8.8-6.6,16.7-14.7,19.3c-8.1,2.6-12.6,3.3-19.9,5.6
				c-4.1,3.9-8.9,7.3-12.7,11.7c5.1,0.9,11.6,2,15,6.2c-1.6,1.7-3.4,2.8-5.6,3.1c-3.5,0.5-5.6,0.8-9.4,1.3
				c-2.6,0.3-6.9-0.3-10.7-0.6c-2.8-0.2-4.9-2.6-5-5.4c-0.1-5.1,0.4-9.7-0.1-15.3c-25.1-1.8-37.8-29.4-53.9-50
				c10.2-0.6,23.3,17.4,33.4,17s31.8-29,35.4-39.2s-8.8-26.3-13.5-40.4c-4.7-14.2-7.7-24.6,10-38.1c17.7-13.5,65.5-48,82.3-36.3
				c16.8,11.8,41.6,33.9,31.9,45.2c-9.6,11.3-72.3,27.4-74.2,47.4c-1.9,20,4.4,12.1,12.5,9.4c7.4-2.4,29.2-11.4,34-6.5
				c4.8,4.9-12.7,8.4-27.8,11.8c-14.3,3.2-19.3,10.1-20.9,10.3c-1.6,0.2,3.9,6.8,4.8,9.6C-996.6-200.7-997.1-201.4-995.4-195.9z"/>
		</g>
		<path class="st15" d="M-996.3-128.8c0,0-0.6-4.1,1-4c1.6,0.1,4.6,1.9,5.2,3.1C-989.6-128.5-996.3-128.8-996.3-128.8z"/>
		<path class="st15" d="M-1003.6-127.4c0,0-0.6-3.5,1.8-3.5c2.4,0,5.5,1.2,6.1,3C-995.1-126.1-1003.6-127.4-1003.6-127.4z"/>
		<path class="st15" d="M-1024.3-124.7c0,0-0.6-4.1,1-4s4.6,1.9,5.2,3.1C-1017.5-124.4-1024.3-124.7-1024.3-124.7z"/>
		<path class="st15" d="M-1031.5-123.3c0,0-0.6-3.5,1.8-3.5s5.5,1.2,6.1,3C-1023-122-1031.5-123.3-1031.5-123.3z"/>
		<path class="st13" d="M-1023-145c0,0-27.3,1.2-28.5,0.6c-1.2-0.6,0.4,10.9,0.2,13.3s4.7-3.6,13.8-6.6
			C-1028.4-140.7-1023-145-1023-145z"/>
		<g>
			
				<linearGradient id="SVGID_9_" gradientUnits="userSpaceOnUse" x1="-947.683" y1="416.4888" x2="-844.6187" y2="416.4888" gradientTransform="matrix(0.9932 -0.1162 -0.101 -0.8634 20.6123 -0.6745)">
				<stop  offset="0.1522" style="stop-color:#FF3A2D"/>
				<stop  offset="0.1907" style="stop-color:#FF462A"/>
				<stop  offset="0.4015" style="stop-color:#FF811B"/>
				<stop  offset="0.5953" style="stop-color:#FFB00F"/>
				<stop  offset="0.7658" style="stop-color:#FFD207"/>
				<stop  offset="0.9065" style="stop-color:#FFE702"/>
				<stop  offset="1" style="stop-color:#FFEE00"/>
			</linearGradient>
			<path class="st16" d="M-962.9-251.8c0-0.1,0-0.2,0.1-0.2c1.9-0.9,27.6-13.6,37-15.2c11.3-1.9,21-0.7,26.6-5.5
				c3.9-3.3,4.4-6.3,4.4-7.6c0-0.2,0.3-0.3,0.4-0.1c1.2,1.9,4.1,7.3,1.8,10.5c-2.1,2.9-4.6,5.3-6.1,6.5c-0.2,0.2,0,0.4,0.2,0.3
				c3-1.4,10.5-4.8,14.8-5.6c7.6-1.4,18.1,1.6,22.8,4.2c0.6,0.3,0.4,1.2-0.3,1.3c-3.4,0.3-10.2,1.4-13.7,5.3
				c-4.8,5.3-21.6,27-40.1,23.6C-933.3-237.6-962.7-246.3-962.9-251.8z"/>
			
				<linearGradient id="SVGID_10_" gradientUnits="userSpaceOnUse" x1="-942.2493" y1="411.5174" x2="-876.3071" y2="411.5174" gradientTransform="matrix(0.9932 -0.1162 -0.101 -0.8634 20.6123 -0.6745)">
				<stop  offset="0.1522" style="stop-color:#FF5A19"/>
				<stop  offset="1" style="stop-color:#FFEE00"/>
			</linearGradient>
			<path class="st17" d="M-957.3-250.7c0,0,30-12.5,42.3-8.4c12.3,4.1,13.7,10,20.7,8c11.3-3.3-8.6,10.3-20.6,8.6
				C-926.9-244.3-957.3-250.7-957.3-250.7z"/>
			
				<linearGradient id="SVGID_11_" gradientUnits="userSpaceOnUse" x1="-940.4555" y1="412.293" x2="-889.9576" y2="412.293" gradientTransform="matrix(0.9932 -0.1162 -0.101 -0.8634 20.6123 -0.6745)">
				<stop  offset="0.1522" style="stop-color:#FFB02A"/>
				<stop  offset="0.9393" style="stop-color:#FFEE00"/>
			</linearGradient>
			<path class="st18" d="M-955.5-251c0,0,21.5-5.6,28.8-5.6c7.3-0.1,10.6,2.3,16.2,4.3c1.3,0.5,4.3,1,5.8,1.3c0.3,0,0.3,0.4,0.1,0.5
				c-2.1,1-8.4,3.9-14.4,4.9C-926.5-244.3-955.5-251-955.5-251z"/>
		</g>
		<g>
			<path class="st19" d="M-1001.4-263.4c0,0-3.2-1.9-6.4-2.4c-3.2-0.5-8.1-0.6-8.1-0.6l1.7-0.9c0,0-0.7-0.2-1.5-1.1
				c-0.7-0.7-1.8-3.1-1.8-3.1s3.5,0.4,7.4,0.8c5.5,0.7,8.2,3.8,8.2,3.8h-1.1C-1003-266.8-1001.6-264.7-1001.4-263.4z"/>
			<path class="st20" d="M-1003.4-267.6c0,0-1.6-1.5-4.8-2.3c-3.2-0.8-7-0.9-7-0.9l2.7,1l-3.2-0.5c0,0,1.7,1,4.9,1.6
				c3.2,0.6,7.3,2.3,7.3,2.3l-0.8-1.4L-1003.4-267.6z"/>
		</g>
		<path class="st10" d="M-1002.3-204.6c0,0,0.8,0.3,5.4,0.6s6-7.3,9-8s1.1,5.9,1.6,6.6c0.4,0.7,1.5-4.1,1.5-4.1s0.1,4.3,0.8,3.9
			c0.7-0.4,1-5.4,1-5.4s1.2,8.3,2.1,2.5c1-5.8-3.4-7.7-6.1-8.6c-2.7-0.9-6.9,7.1-9.6,7.8c-2.6,0.6-6.7-2.8-6.7-2.8L-1002.3-204.6z"
			/>
		<g>
			<circle cx="-1007.7" cy="-258.3" r="4.2"/>
			<circle class="st0" cx="-1007.4" cy="-259.1" r="1.5"/>
			<circle class="st0" cx="-1009" cy="-256.6" r="0.7"/>
		</g>
		<path class="st10" d="M-1027.4-198.9c0,0,0.8,0.1,5.3-1s3.5-8.8,6.1-10.3c2.6-1.5,2.8,5.3,3.5,5.9c0.6,0.6,0.2-4.4,0.2-4.4
			s1.4,4.1,1.9,3.5c0.6-0.6-0.7-5.5-0.7-5.5s3.6,7.5,2.8,1.7c-0.8-5.8-5.5-6.3-8.4-6.3c-2.9,0-4.5,8.9-6.8,10.3
			c-2.3,1.4-7.3-0.6-7.3-0.6L-1027.4-198.9z"/>
		<g>
			<path class="st21" d="M-961.1-292.4c3.2,6.1,7.8,10.1,10.2,8.8c2.5-1.3,1.9-7.3-1.3-13.4c-3.2-6.1-7.8-10.1-10.2-8.8
				C-964.8-304.5-964.2-298.5-961.1-292.4z"/>
			<path class="st22" d="M-962-291.8c3.2,6.1,7.8,10.1,10.2,8.8c2.5-1.3,1.9-7.3-1.3-13.4c-3.2-6.1-7.8-10.1-10.2-8.8
				C-965.8-303.9-965.2-297.9-962-291.8z"/>
		</g>
		<g>
			<path class="st21" d="M-945.3-305.3c2.5,4.7,6,7.8,7.9,6.8c1.9-1,1.5-5.7-1-10.4c-2.5-4.7-6-7.8-7.9-6.8
				C-948.2-314.7-947.8-310.1-945.3-305.3z"/>
			<path class="st22" d="M-946.1-304.8c2.5,4.7,6,7.8,7.9,6.8c1.9-1,1.5-5.7-1-10.4c-2.5-4.7-6-7.8-7.9-6.8
				C-949-314.2-948.5-309.6-946.1-304.8z"/>
		</g>
		<g>
			<path class="st23" d="M-959.6-311.5c0,0-4.8-2.5-8.6-0.4c-7.2,4-2.9,14.8-2.9,14.8s-2.3-6.3,4.9-12.2
				C-962.5-312.1-959.6-311.5-959.6-311.5z"/>
			<path class="st24" d="M-959.6-311.5c0,0-5.4,0.7-9.3,5.9c-3.9,5.2-1.2,11-1.2,11s-3.4-6,0.1-11.4
				C-966.5-311.5-959.6-311.5-959.6-311.5z"/>
			<path class="st25" d="M-961.5-309.9c0,0-5.8,3.5-6.8,8.9c-1,5.4,1.9,9.4,1.9,9.4s-4-3.6-3.5-9.5
				C-969.3-307.2-961.5-309.9-961.5-309.9z"/>
		</g>
		<g>
			<path class="st23" d="M-946.1-319c0,0-2.8-1.5-5.1-0.2c-4.3,2.4-1.7,8.8-1.7,8.8s-1.3-3.7,2.9-7.2
				C-947.8-319.4-946.1-319-946.1-319z"/>
			<path class="st24" d="M-946.1-319c0,0-3.2,0.4-5.5,3.5c-2.3,3.1-0.7,6.5-0.7,6.5s-2-3.6,0.1-6.8C-950.2-319-946.1-319-946.1-319z
				"/>
			<path class="st25" d="M-947.3-318c0,0-3.4,2-4,5.2c-0.6,3.2,1.2,5.6,1.2,5.6s-2.4-2.2-2.1-5.6C-951.8-316.4-947.3-318-947.3-318z
				"/>
		</g>
		<path class="st10" d="M-1040-294.4c0,0,11.5-10.3,32.2-19.4c19.7-8.7,29.7-9.1,29.7-9.1s-4.9-12.7,6.7-17.6
			c11.6-4.9-11.5-12.1-22.5,0c-6.9,7.7-10.3-6.7-10.3-6.7l-9.1,21.9l-12.1-3.6l-3.6,18.8l-13.4,1.2L-1040-294.4z"/>
	</g>
	<g>
		<g>
			<path class="st26" d="M-347.7-194.3c0,0-21.9-3.7-22.9,0.4c-0.7,2.9,23.4,2.8,23.4,2.8L-347.7-194.3z"/>
			<path class="st26" d="M-367.7-197.7c0,0-5.9-7.3-6.6-5.1s2.1,5.7,2.1,5.7s-8.1-3.6-9.1-2.4s7.9,4.1,7.4,4.2s-8.8-0.6-8.5,0.6
				c0.2,1.2,8.1,1.3,8.2,1.8s-7.7,1.2-7.2,2.1c0.4,0.9,7.4,0.1,8.2,0.2c0.8,0.1-4.9,2.4-4.5,3.4c0.4,0.9,5.4-1.3,6.3-1.9
				c0.9-0.7,5-0.4,6.5-1.7s0.9-4.5,0-5.3C-365.8-197-367.7-197.7-367.7-197.7z"/>
		</g>
		<path class="st27" d="M-388.3-248.7c4.9,0,12.8,0.5,16.6-1.6c7.7-4.4-14.5-13.5-27.3-23.3c-12.8-9.8,29.1-16.4,37.6-12.1
			s37.7,28.6,38.3,36.5c0.6,7.9-20.7,27.9-20.7,27.9l-14.6-3C-358.3-224.4-397.8-248.7-388.3-248.7z"/>
		
			<linearGradient id="SVGID_12_" gradientUnits="userSpaceOnUse" x1="-397.3261" y1="568.8126" x2="-349.1084" y2="520.5949" gradientTransform="matrix(1 0 0 -1 0 276.8017)">
			<stop  offset="0" style="stop-color:#FFC76D"/>
			<stop  offset="1" style="stop-color:#E8E3E0"/>
		</linearGradient>
		<path class="st28" d="M-409.3-280.1c0,0-1.5,4.1,0.6,4.6s4.3-1.1,4.3-1.1s-1.1,8.6,1.6,7.5s4.8-2.6,4.8-2.6s-1,5.9,1.6,6.4
			c2.7,0.5,5.4-2.8,5.4-2.8s0,7.1,2.6,7.1s5.7-3.2,5.7-3.2s-2.5,5.3,1.8,5.9c4.3,0.5,5.4-1.6,5.4-1.6s0.5,4.4,3.2,4.8
			c3.7,0.5,5.1-1.9,5.1-1.9s3,4,4,3.5c1.1-0.5,5.9-2.7,5.9-2.7s-0.5,3.7,2.1,3.7s7-3.7,7-3.7s0,3.7,2.1,3.2s3.7-3.7,3.7-3.7
			s1.1,2.7,3.2,2.1c2.1-0.5,4.3-4.3,4.3-4.3L-409.3-280.1z"/>
		
			<linearGradient id="SVGID_13_" gradientUnits="userSpaceOnUse" x1="-431.8675" y1="387.3812" x2="-372.5828" y2="381.2058" gradientTransform="matrix(0.9996 2.982325e-02 2.982325e-02 -0.9996 29.396 157.3347)">
			<stop  offset="0" style="stop-color:#FFC76D"/>
			<stop  offset="1" style="stop-color:#E8E3E0"/>
		</linearGradient>
		<path class="st29" d="M-331.6-235.9c0,0-3.2-7.5-6.4-5.4c-2.9,1.9-1.6,4.3-1.6,4.3s-1.6-3.7-3.7-2.1c-2.1,1.6-2.1,4.3-2.1,4.3
			s-1-5.3-3.7-3.2c-2.7,2.1-2.8,5.1-2.8,5.1s0.2-5.6-2.5-4.6s-2.2,2.8-2.2,2.8s-0.4-4.4-3.1-3.4s-3.3,2.1-3.3,2.1s-0.9-5.2-3.1-3.2
			c-2.2,2.1-2.7,2.5-2.7,2.5s0.6-5.1-2.1-4.6s-3.7,1.7-3.7,1.7s1.6-3.8-1.6-3.9c-3.2-0.1-3,1.9-3,1.9s0.4-6.1-2.3-4.1
			c-2.7,2.1-3,2.3-3,2.3s4.3-8.3,0.9-8.2c-3.4,0.1-3.8,5.4-3.8,5.4s1.6-7.5-0.5-7s-1.2,5.4-1.2,5.4s10.9,10.6,11.9,11.2
			c1,0.6,41.4,12,41.4,12L-331.6-235.9z"/>
		<g>
			<path class="st30" d="M-350.3-155.8c0,0,6.7,16.7,7.4,20.4c0.6,3.6-9.3,5.4-10.2,8c-0.9,2.6,6.4,1.1,6.4,1.1s2.5,2.4,4.8,1.8
				c1.5-0.4,8.3-1,12.9-1.3c2.3-0.2,4-2.3,3.7-4.6l-2.8-20.2C-328.2-150.7-349-165.2-350.3-155.8z"/>
			<path class="st31" d="M-326-135.3c0,0-9.1-7.5-14.6-9.3s-3.9,4.2-3.9,4.2l-5.8-15.7c0,0,19.7,3,20.2,3.6s3.1,5.1,3.1,5.1
				L-326-135.3z"/>
			<path class="st15" d="M-348.3-126c0,0,0.6-4.1-1-4s-4.6,1.9-5.2,3.1C-355.1-125.7-348.3-126-348.3-126z"/>
			<path class="st15" d="M-341.1-124.7c0,0,0.6-3.5-1.9-3.5c-2.4,0-5.5,1.2-6.1,3S-341.1-124.7-341.1-124.7z"/>
		</g>
		<path class="st32" d="M-298.9-177.5c0,0,9.1-22.2,6.4-23.6c-2.7-1.3-10.9-7.2-9.6-10.2c1.2-3,23.5-11.5,20.9-12.8
			c-2.7-1.3-9.6-16.6-9.6-16.6s23.3-5.9,21.6-7.1s-11.5-10.2-11.5-10.2l13.4-12.9l-13.3-6.1c0,0-4.4-13,0.9-16.8
			c5.4-3.7-24.6,1.1-24.6,1.1l-28.4,98"/>
		<path class="st32" d="M-301.1-179.7L-284-193l8.6,12.3l2.9-11.6l13.7,2l4.6-9.9l6.7,6.7c0,0-20,20-26.7,25.5s-27.3,3-27.3,3
			L-301.1-179.7z"/>
		
			<linearGradient id="SVGID_14_" gradientUnits="userSpaceOnUse" x1="-410.7804" y1="503.0685" x2="-247.5804" y2="503.0685" gradientTransform="matrix(1 0 0 -1 0 276.8017)">
			<stop  offset="0" style="stop-color:#6BC62A"/>
			<stop  offset="1" style="stop-color:#00B53E"/>
		</linearGradient>
		<path class="st33" d="M-280.9-176.6c-31.9-3.1-29.2-27.7-20.1-43.2c0.1-0.1,0.1-0.2,0-0.3c12.8-13.2,26.4-39.3,23.1-48.9
			c-4.3-12.3-76.6-66.1-99.6-61.3c-23,4.8-33.3,48.5-33.3,48.5c4,15.2,49,32.2,68.8,26.5c7.7-2.3,13.5-3.7,16.9,2.9
			c1.8,3.5,0,8.1-18.2,15c-15.5,5.9-39.4-4.5-43.4-10.7c-3.4-5.4-12.9,2.5-3.8,10.1c6,5,20.4,13.9,43.8,20.4
			c-2.2,3.3-5.1,8.3-5.8,10.2c-1,2.8-4.1,8.9-5.9,14.5c-1.7,5.6-5.5,12.6-6.4,21.4c-0.9,8.8,6.9,18.9,14.9,21.5s12.6,3.3,19.9,5.6
			c4.1,3.9,8.9,7.3,12.7,11.7c-5.1,0.9-11.6,2-15,6.2c1.6,1.7,3.4,2.8,5.6,3.1c3.5,0.5,5.6,0.8,9.4,1.3c2.6,0.3,6.9-0.3,10.7-0.6
			c2.8-0.2,4.9-2.6,5-5.4c0.1-5.1-0.4-9.7,0.1-15.3c25.1-1.8,37.8-29.4,53.9-50C-257.7-194.2-270.9-175.6-280.9-176.6z"/>
		<g>
			<path class="st2" d="M-380.3-207.7c0,0-13.3-8.3-4.1-22.6C-384.3-230.4-372.8-223.5-380.3-207.7z"/>
			<path class="st2" d="M-382.3-205.7c0,0-5.8,14.9-21.5,8.3C-403.9-197.4-399.2-210.4-382.3-205.7z"/>
			<path class="st2" d="M-388.9-211.4c0,0-15.6,3.7-19.1-13C-408-224.4-394.7-227.9-388.9-211.4z"/>
			<g>
				<path class="st2" d="M-391-212.1c0-0.1,7.6,1.7,10.7,4.4s6.3,6.1,7.8,8.5s2.1,5,2.2,6.8s-0.2,3-0.3,2.9c-0.1,0-0.1-1.1-0.4-2.9
					c-0.3-1.7-3.9-4.5-5.3-6.7C-377.6-201.4-391-212-391-212.1z"/>
			</g>
		</g>
		<path class="st15" d="M-328.8-124.7c0,0,0.6-4.1-1-4s-4.6,1.9-5.2,3.1C-335.5-124.4-328.8-124.7-328.8-124.7z"/>
		<path class="st15" d="M-321.6-123.3c0,0,0.6-3.5-1.8-3.5s-5.5,1.2-6.1,3S-321.6-123.3-321.6-123.3z"/>
		<path class="st31" d="M-330-144.3c0,0,28.4-0.8,28.4,0.5c0,1.1-0.2,10.9,0,13.4s-4.8-4.2-13.9-7.3S-330-144.3-330-144.3z"/>
		<g>
			<g>
				<path class="st34" d="M-377-286c-3.2,6.1-7.8,10.1-10.2,8.8c-2.5-1.3-1.9-7.3,1.3-13.4c3.2-6.1,7.8-10.1,10.2-8.8
					C-373.3-298.1-373.8-292.1-377-286z"/>
				<path class="st27" d="M-376.1-285.3c-3.2,6.1-7.8,10.1-10.2,8.8c-2.5-1.3-1.9-7.3,1.3-13.4c3.2-6.1,7.8-10.1,10.2-8.8
					C-372.3-297.5-372.9-291.5-376.1-285.3z"/>
			</g>
			<g>
				<path class="st34" d="M-392.8-298.9c-2.5,4.7-6,7.8-7.9,6.8s-1.5-5.7,1-10.4c2.5-4.7,6-7.8,7.9-6.8
					C-389.8-308.3-390.3-303.6-392.8-298.9z"/>
				<path class="st27" d="M-392-298.4c-2.5,4.7-6,7.8-7.9,6.8s-1.5-5.7,1-10.4c2.5-4.7,6-7.8,7.9-6.8S-389.5-303.2-392-298.4z"/>
			</g>
			<g>
				<path class="st35" d="M-378.5-305.1c0,0,4.8-2.5,8.6-0.4c7.2,4,2.9,14.8,2.9,14.8s2.3-6.3-4.9-12.2
					C-375.5-305.7-378.5-305.1-378.5-305.1z"/>
				<path class="st32" d="M-378.5-305.1c0,0,5.4,0.7,9.3,5.9s1.2,11,1.2,11s3.4-6-0.1-11.4C-371.5-305.1-378.5-305.1-378.5-305.1z"
					/>
				<path class="st25" d="M-376.5-303.4c0,0,5.8,3.5,6.8,8.9c1,5.4-1.9,9.4-1.9,9.4s4-3.6,3.5-9.5
					C-368.8-300.8-376.5-303.4-376.5-303.4z"/>
			</g>
			<g>
				<path class="st35" d="M-392-312.6c0,0,2.8-1.5,5.1-0.2c4.3,2.4,1.7,8.8,1.7,8.8s1.3-3.7-2.9-7.2C-390.2-313-392-312.6-392-312.6
					z"/>
				<path class="st32" d="M-392-312.6c0,0,3.2,0.4,5.5,3.5s0.7,6.5,0.7,6.5s2-3.6-0.1-6.8C-387.9-312.6-392-312.6-392-312.6z"/>
				<path class="st25" d="M-390.8-311.6c0,0,3.4,2,4,5.2c0.6,3.2-1.2,5.6-1.2,5.6s2.4-2.2,2.1-5.6
					C-386.2-310-390.8-311.6-390.8-311.6z"/>
			</g>
		</g>
		<g>
			<g>
				<path class="st32" d="M-311-272.4c0,0,2.2,2.9,3,6.1c0.8,3.2,1.4,8,1.4,8l0.7-1.8c0,0,0.3,0.6,1.2,1.4c0.8,0.6,3.2,1.4,3.2,1.4
					s-0.7-3.4-1.6-7.3c-1.2-5.4-4.6-7.8-4.6-7.8l0.1,1.1C-307.5-271.2-309.7-272.3-311-272.4z"/>
				<path class="st30" d="M-306.6-270.9c0,0,1.7,1.5,2.8,4.6c1.1,3.1,1.6,6.9,1.6,6.9l-1.3-2.5l0.8,3.1c0,0-1.2-1.6-2.1-4.7
					c-0.9-3.2-3-7-3-7l1.5,0.7L-306.6-270.9z"/>
			</g>
			<path class="st36" d="M-316.8-265.4c0,0,7.6-0.9,5.3,6"/>
		</g>
		<g>
			<path class="st37" d="M-348.1-198c-4.2-0.3-22.5,2.5-22.2,6.7c0.2,2.9,23.2-4.4,23.2-4.4S-343.9-197.7-348.1-198z"/>
			<path class="st37" d="M-368.7-195.8c0,0-7.9-5.2-7.8-2.9c0.1,2.2,3.7,4.8,3.7,4.8s-8.8-1-9.4,0.5s8.8,1.6,8.3,1.8
				c-0.4,0.2-8.6,2-8,3.1s8.1-1.2,8.4-0.8c0.2,0.4-7,3.4-6.3,4.2s7.1-2.1,7.9-2.2c0.8-0.1-4,3.7-3.2,4.6c0.7,0.8,4.7-2.8,5.4-3.7
				s4.6-1.9,5.7-3.6c1.1-1.7-0.5-4.6-1.6-5.1S-368.7-195.8-368.7-195.8z"/>
		</g>
		<path class="st32" d="M-300-291c0,0-12.3-10.5-33-19.6c-19.7-8.7-33.4-12-33.4-12s0.1-19.7,18.7-24.1c9.1-2.1,24.5,3.8,22,4.8
			c-10.7,4.3-11.4,22.4-2.1,15c8-6.4,20.9,1.1,20.9,1.1s-13.1,8.2-8.6,9.1c5.4,1.1,18.6-2.5,15,1.6c-4.3,4.8-9.6,8.6-9.6,8.6
			s24.1-4.8,19.8,1.1C-294.6-299.5-300-291-300-291z"/>
	</g>
	<g>
		<g>
			<circle class="st5" cx="-27.3" cy="-399.6" r="3.8"/>
		</g>
		<g>
			<path class="st5" d="M-20-419.9c-3.4-4.1-5.8-11.8-6.9-15.2c-0.1-0.5-0.8-0.5-1,0c-0.8,3-2.9,9.3-6.9,14.7
				c-3.7,5,0.4,12.3,7.3,12.3c0,0,0,0,0.1,0c0,0,0,0,0.1,0C-20.5-408.2-16.1-415.1-20-419.9z M-26.6-411.2c-3.4,0.6-6.2-2.3-5.7-5.7
				c0.3-2,2-3.7,4-4c3.4-0.6,6.2,2.3,5.7,5.7C-22.9-413.2-24.5-411.5-26.6-411.2z"/>
		</g>
		<path class="st5" d="M-27.3-410.9c-0.8,0-1.5,0.7-1.5,1.5v19.3h3v-19.3C-25.8-410.2-26.5-410.9-27.3-410.9z"/>
	</g>
	<g>
		<path class="st5" d="M226.1-420.3H8.5c-0.8,0-1.5-0.7-1.5-1.5s0.7-1.5,1.5-1.5h217.6c0.8,0,1.5,0.7,1.5,1.5
			S226.9-420.3,226.1-420.3z"/>
	</g>
	<g>
		
			<linearGradient id="SVGID_15_" gradientUnits="userSpaceOnUse" x1="-813.9806" y1="-478.1839" x2="-741.4886" y2="-478.1839" gradientTransform="matrix(-3.274567e-02 -0.9994 -0.8688 2.845226e-02 -434.5009 -1013.2896)">
			<stop  offset="0.1522" style="stop-color:#FF3A2D"/>
			<stop  offset="0.1907" style="stop-color:#FF462A"/>
			<stop  offset="0.4015" style="stop-color:#FF811B"/>
			<stop  offset="0.5953" style="stop-color:#FFB00F"/>
			<stop  offset="0.7658" style="stop-color:#FFD207"/>
			<stop  offset="0.9065" style="stop-color:#FFE702"/>
			<stop  offset="1" style="stop-color:#FFEE00"/>
		</linearGradient>
		<path class="st38" d="M4.7-213.3c-0.1,0-0.1,0-0.1-0.1C4-214.7-8.9-229.8-8.5-241.3c0.4-12.1,2.8-27.1,3-29
			c0.3-3.5,4.5,11,5.3,12.1c0.1,0.1,0.3,0,0.3-0.1c-0.9-2.2-1.2-8.2-0.3-12.4c1-4.2,6.1-11.9,8.3-15c0.3-0.4,0.9-0.2,0.9,0.3
			c0,2.3,1,9.8,3.7,12.5c3.7,3.6,11.5,15.2,7.9,27.8C17-232.8,8.9-213.1,4.7-213.3z"/>
		
			<linearGradient id="SVGID_16_" gradientUnits="userSpaceOnUse" x1="-810.228" y1="-480.016" x2="-761.7786" y2="-480.016" gradientTransform="matrix(-3.274567e-02 -0.9994 -0.8688 2.845226e-02 -434.5009 -1013.2896)">
			<stop  offset="0.1522" style="stop-color:#FF5A19"/>
			<stop  offset="1" style="stop-color:#FFEE00"/>
		</linearGradient>
		<path class="st39" d="M5.9-217.1c0,0-7.6-21.5-3.8-29.7s5.4-12.2,4.3-17.1c-1.8-8,10.8,14.4,8.9,22.6
			C13.2-233.2,5.9-217.1,5.9-217.1z"/>
		
			<linearGradient id="SVGID_17_" gradientUnits="userSpaceOnUse" x1="-808.9846" y1="-479.1919" x2="-774.0488" y2="-479.1919" gradientTransform="matrix(-3.274567e-02 -0.9994 -0.8688 2.845226e-02 -434.5009 -1013.2896)">
			<stop  offset="0.1522" style="stop-color:#FFB02A"/>
			<stop  offset="0.9393" style="stop-color:#FFEE00"/>
		</linearGradient>
		<path class="st40" d="M5.8-218.3c0,0-2.9-15.1-2.5-20.2c0.3-5,2.3-7.2,4.1-10.9c0.4-0.9,1-2.9,1.3-3.9c0.1-0.2,0.3-0.2,0.4,0
			c0.7,1.5,2.5,6,2.8,10.2C12.5-237.9,5.8-218.3,5.8-218.3z"/>
	</g>
	<g>
		<linearGradient id="SVGID_18_" gradientUnits="userSpaceOnUse" x1="-40.1084" y1="-213.6127" x2="53.8258" y2="-213.6127">
			<stop  offset="0" style="stop-color:#FF3A2D"/>
			<stop  offset="1" style="stop-color:#D50000"/>
		</linearGradient>
		<path class="st41" d="M-40.1-228c9.5,17.3,27,28.8,47,28.8s37.5-11.6,47-28.8H-40.1z"/>
		<polygon class="st4" points="6.9,-336.3 -40.5,-228 54.2,-228 		"/>
		<linearGradient id="SVGID_19_" gradientUnits="userSpaceOnUse" x1="0.3312" y1="-336.8187" x2="13.3862" y2="-336.8187">
			<stop  offset="0" style="stop-color:#FF3A2D"/>
			<stop  offset="1" style="stop-color:#D50000"/>
		</linearGradient>
		<circle class="st42" cx="6.9" cy="-336.8" r="6.5"/>
	</g>
	<g>
		<path class="st2" d="M123.8-245.8c0,0-4-20.3,18.1-24.4C141.9-270.2,145.7-252.9,123.8-245.8z"/>
		<path class="st2" d="M120.6-245.5c0,0-20.3,7.5-28.1-13.7C92.5-259.2,109.8-266,120.6-245.5z"/>
		<path class="st2" d="M119.4-257.4c0,0-17.7-11.7-4.8-30.1C114.7-287.6,130.1-277.9,119.4-257.4z"/>
		<g>
			<path class="st2" d="M118.3-260.1c0,0,0.4-2.1,1.3-0.4c1.6,3.1,4.1,11.2,4.2,14.7c0.2,5.4-0.1,11.6-1.1,15.2
				c-1,3.6-2.8,6.5-4.5,8.3c-1.6,1.8-3,2.5-3.1,2.4c-0.1-0.1,1-1.1,2.4-2.9c1.4-1.8-0.5,1.2,1.7-11.2
				C121-244.5,118.2-260.1,118.3-260.1z"/>
		</g>
	</g>
	<g>
		<path class="st7" d="M73.2-228c9.5,17.3,27,28.8,47,28.8s37.5-11.6,47-28.8H73.2z"/>
		<polygon class="st4" points="120.2,-336.3 72.8,-228 167.5,-228 		"/>
		<circle class="st2" cx="120.2" cy="-336.8" r="6.5"/>
	</g>
	<g>
		<circle class="st0" cx="13.4" cy="-394.7" r="12"/>
		<path class="st5" d="M13.4-381.2c-7.4,0-13.5-6-13.5-13.5s6-13.5,13.5-13.5s13.5,6,13.5,13.5S20.8-381.2,13.4-381.2z M13.4-405.2
			c-5.8,0-10.5,4.7-10.5,10.5s4.7,10.5,10.5,10.5s10.5-4.7,10.5-10.5S19.2-405.2,13.4-405.2z"/>
	</g>
	<g>
		<polygon class="st4" points="6.5,-166.5 -40.8,-58.3 53.8,-58.3 		"/>
		<linearGradient id="SVGID_20_" gradientUnits="userSpaceOnUse" x1="0" y1="-167.0416" x2="13.0549" y2="-167.0416">
			<stop  offset="0" style="stop-color:#FF3A2D"/>
			<stop  offset="1" style="stop-color:#D50000"/>
		</linearGradient>
		<circle class="st43" cx="6.5" cy="-167" r="6.5"/>
	</g>
	<g>
		<polygon class="st4" points="120.2,-166.5 72.8,-58.3 167.5,-58.3 		"/>
		<circle class="st2" cx="120.2" cy="-167" r="6.5"/>
	</g>
	<linearGradient id="SVGID_21_" gradientUnits="userSpaceOnUse" x1="-40.4396" y1="-31.778" x2="53.4945" y2="-31.778">
		<stop  offset="0" style="stop-color:#FF3A2D"/>
		<stop  offset="1" style="stop-color:#D50000"/>
	</linearGradient>
	<path class="st44" d="M-40.4-46.2c9.5,17.3,27,28.8,47,28.8s37.5-11.6,47-28.8H-40.4z"/>
	<path class="st7" d="M74.2-45.2c9.5,17.3,27,28.8,47,28.8s37.5-11.6,47-28.8H74.2z"/>
	<g>
		<defs>
			<rect id="SVGID_22_" x="-784.8" y="-231" width="30.1" height="56.3"/>
		</defs>
		<clipPath id="SVGID_23_">
			<use xlink:href="#SVGID_22_"  style="overflow:visible;"/>
		</clipPath>
		<g class="st45">
			
				<linearGradient id="SVGID_24_" gradientUnits="userSpaceOnUse" x1="-843.495" y1="416.4367" x2="-771.0031" y2="416.4367" gradientTransform="matrix(-3.274567e-02 -0.9994 -0.8688 2.845226e-02 -434.5009 -1013.2896)">
				<stop  offset="0.1522" style="stop-color:#FF3A2D"/>
				<stop  offset="0.1907" style="stop-color:#FF462A"/>
				<stop  offset="0.4015" style="stop-color:#FF811B"/>
				<stop  offset="0.5953" style="stop-color:#FFB00F"/>
				<stop  offset="0.7658" style="stop-color:#FFD207"/>
				<stop  offset="0.9065" style="stop-color:#FFE702"/>
				<stop  offset="1" style="stop-color:#FFEE00"/>
			</linearGradient>
			<path class="st46" d="M-771.6-158.3c-0.1,0-0.1,0-0.1-0.1c-0.6-1.4-13.5-16.4-13.1-27.9c0.4-12.1,2.8-27.1,3-29
				c0.3-3.5,4.5,11,5.3,12.1c0.1,0.1,0.3,0,0.3-0.1c-0.9-2.2-1.2-8.2-0.3-12.4c1-4.2,6.1-11.9,8.3-15c0.3-0.4,0.9-0.2,0.9,0.3
				c0,2.3,1,9.8,3.7,12.5c3.7,3.6,11.5,15.2,7.9,27.8C-759.3-177.8-767.4-158.1-771.6-158.3z"/>
			
				<linearGradient id="SVGID_25_" gradientUnits="userSpaceOnUse" x1="-839.7424" y1="414.6046" x2="-791.293" y2="414.6046" gradientTransform="matrix(-3.274567e-02 -0.9994 -0.8688 2.845226e-02 -434.5009 -1013.2896)">
				<stop  offset="0.1522" style="stop-color:#FF5A19"/>
				<stop  offset="1" style="stop-color:#FFEE00"/>
			</linearGradient>
			<path class="st47" d="M-770.4-162.1c0,0-7.6-21.5-3.8-29.7c3.8-8.2,5.4-12.2,4.3-17.1c-1.8-8,10.8,14.4,8.9,22.6
				C-763.1-178.2-770.4-162.1-770.4-162.1z"/>
			
				<linearGradient id="SVGID_26_" gradientUnits="userSpaceOnUse" x1="-838.499" y1="415.4287" x2="-803.5633" y2="415.4287" gradientTransform="matrix(-3.274567e-02 -0.9994 -0.8688 2.845226e-02 -434.5009 -1013.2896)">
				<stop  offset="0.1522" style="stop-color:#FFB02A"/>
				<stop  offset="0.9393" style="stop-color:#FFEE00"/>
			</linearGradient>
			<path class="st48" d="M-770.5-163.4c0,0-2.9-15.1-2.5-20.2c0.3-5,2.3-7.2,4.1-10.9c0.4-0.9,1-2.9,1.3-3.9c0.1-0.2,0.3-0.2,0.4,0
				c0.7,1.5,2.5,6,2.8,10.2C-763.8-182.9-770.5-163.4-770.5-163.4z"/>
		</g>
	</g>
	<g>
		<defs>
			<rect id="SVGID_27_" x="-40.1" y="-1" width="30.1" height="56.3"/>
		</defs>
		<clipPath id="SVGID_28_">
			<use xlink:href="#SVGID_27_"  style="overflow:visible;"/>
		</clipPath>
		<g class="st49">
			
				<linearGradient id="SVGID_29_" gradientUnits="userSpaceOnUse" x1="-1097.7175" y1="-431.1108" x2="-1025.2256" y2="-431.1108" gradientTransform="matrix(-3.274567e-02 -0.9994 -0.8688 2.845226e-02 -434.5009 -1013.2896)">
				<stop  offset="0.1522" style="stop-color:#FF3A2D"/>
				<stop  offset="0.1907" style="stop-color:#FF462A"/>
				<stop  offset="0.4015" style="stop-color:#FF811B"/>
				<stop  offset="0.5953" style="stop-color:#FFB00F"/>
				<stop  offset="0.7658" style="stop-color:#FFD207"/>
				<stop  offset="0.9065" style="stop-color:#FFE702"/>
				<stop  offset="1" style="stop-color:#FFEE00"/>
			</linearGradient>
			<path class="st50" d="M-26.9,71.6c-0.1,0-0.1,0-0.1-0.1c-0.6-1.4-13.5-16.4-13.1-27.9c0.4-12.1,2.8-27.1,3-29
				c0.3-3.5,4.5,11,5.3,12.1c0.1,0.1,0.3,0,0.3-0.1c-0.9-2.2-1.2-8.2-0.3-12.4c1-4.2,6.1-11.9,8.3-15c0.3-0.4,0.9-0.2,0.9,0.3
				c0,2.3,1,9.8,3.7,12.5c3.7,3.6,11.5,15.2,7.9,27.8C-14.6,52.2-22.7,71.9-26.9,71.6z"/>
			
				<linearGradient id="SVGID_30_" gradientUnits="userSpaceOnUse" x1="-1093.9648" y1="-432.9429" x2="-1045.5155" y2="-432.9429" gradientTransform="matrix(-3.274567e-02 -0.9994 -0.8688 2.845226e-02 -434.5009 -1013.2896)">
				<stop  offset="0.1522" style="stop-color:#FF5A19"/>
				<stop  offset="1" style="stop-color:#FFEE00"/>
			</linearGradient>
			<path class="st51" d="M-25.7,67.8c0,0-7.6-21.5-3.8-29.7S-24.1,26-25.2,21c-1.8-8,10.8,14.4,8.9,22.6
				C-18.4,51.8-25.7,67.8-25.7,67.8z"/>
			
				<linearGradient id="SVGID_31_" gradientUnits="userSpaceOnUse" x1="-1092.7214" y1="-432.1189" x2="-1057.7858" y2="-432.1189" gradientTransform="matrix(-3.274567e-02 -0.9994 -0.8688 2.845226e-02 -434.5009 -1013.2896)">
				<stop  offset="0.1522" style="stop-color:#FFB02A"/>
				<stop  offset="0.9393" style="stop-color:#FFEE00"/>
			</linearGradient>
			<path class="st52" d="M-25.8,66.6c0,0-2.9-15.1-2.5-20.2c0.3-5,2.3-7.2,4.1-10.9c0.4-0.9,1-2.9,1.3-3.9c0.1-0.2,0.3-0.2,0.4,0
				c0.7,1.5,2.5,6,2.8,10.2C-19.2,47-25.8,66.6-25.8,66.6z"/>
		</g>
	</g>
</g>
</svg>
